<svg xmlns="http://www.w3.org/2000/svg" xmlns:xlink="http://www.w3.org/1999/xlink" xmlns:fi="http://pattern.flaticon.com/" x="0" y="0" width="700" height="350" viewBox="0 0 700 350"><rect x="0px" y="0px" width="100%" height="100%" opacity="1" fill="#ffc0cb"/><defs><g transform="matrix(0.3944590347283611 0.19428580109128707 -0.19428580109128707 0.3944590347283611 -15.021654875186506 123.40689485199172)" id="L1_3"><path d="M25,150 45,240 205,240 225,150 125,140z" id="XMLID_1120_" fill="#ff5023"/><path d="M125,150 25,150 45,240 125,240z" id="XMLID_1121_" fill="#bd3c1a"/><g id="XMLID_1122_"><path d="M85,150 95,240 155,240 165,150z" id="XMLID_1123_" fill="#ff5023"/><path d="M125,150 125,240 155,240 165,150z" id="XMLID_1124_" fill="#ff734f"/></g><path d="M220.744,137.179C223.508,129.105,225,120.061,225,110   c0-55.229-44.772-100-100-100S25,54.771,25,110c0,10.061,1.492,19.105,4.256,27.179H220.744z" id="XMLID_1125_" fill="#bd720d"/><path d="M250,125c0,13.807-11.193,25-25,25H25c-13.807,0-25-11.193-25-25l0,0   c0-13.807,11.193-25,25-25h200C238.807,100,250,111.193,250,125L250,125z" id="XMLID_1126_" fill="#ffe98f"/><path d="M125,100H25c-13.807,0-25,11.193-25,25s11.193,25,25,25h100V100z" id="XMLID_1127_" fill="#ffda44"/><path d="M125,10c-51.854,0-94.486,39.467-99.504,90H35c8.284,0,15,6.716,15,15v45   c0,8.284,6.716,15,15,15s15-6.716,15-15v-40c0-8.284,6.716-15,15-15s15,6.716,15,15v30c0,8.284,6.716,15,15,15s15-6.716,15-15v-30   c0-8.284,6.716-15,15-15s15,6.716,15,15v40c0,8.284,6.716,15,15,15s15-6.716,15-15v-45c0-8.284,6.716-15,15-15h9.504   C219.486,49.467,176.853,10,125,10z" id="XMLID_1128_" fill="#804c09"/><path d="M125,10c-51.854,0-94.486,39.467-99.504,90H35c8.284,0,15,6.716,15,15v45   c0,8.284,6.716,15,15,15s15-6.716,15-15v-40c0-8.284,6.716-15,15-15s15,6.716,15,15v30c0,8.284,6.716,15,15,15   C125,153.75,125,19.327,125,10z" id="XMLID_1129_" fill="#402604"/><circle cx="175" cy="70" r="10" id="XMLID_1130_" fill="#ff5023"/><circle cx="75" cy="70" r="10" id="XMLID_1131_" fill="#64c37d"/><circle cx="125" cy="40" r="10" id="XMLID_1132_" fill="#ff9811"/></g><g transform="matrix(0.155803188164842 -0.11385617017543062 0.11385617017543062 0.155803188164842 108.23815959060832 31.978271913411575)" id="L1_5"><circle cx="236" cy="236" r="236" fill="#ffc10e"/><g><path d="M182.13,109.97c-14.133,0-27.262,6.892-35.154,18.432l-1.628,2.069l-1.089-1.388   c-7.802-11.962-20.954-19.109-35.232-19.109c-24.363,0-42.042,17.684-42.042,42.039c0,35.962,65.107,88.968,69.855,92.784   c2.241,2.144,5.175,3.323,8.288,3.323s6.047-1.175,8.288-3.326c4.763-3.847,70.753-57.683,70.753-92.781   C224.169,127.654,206.489,109.97,182.13,109.97z" fill="#ed3533"/><path d="M366.696,109.97c-14.133,0-27.262,6.892-35.154,18.432l-1.628,2.069l-1.089-1.388   c-7.802-11.962-20.954-19.109-35.232-19.109c-24.363,0-42.042,17.684-42.042,42.039c0,35.962,65.107,88.968,69.855,92.784   c2.241,2.144,5.175,3.323,8.288,3.323c3.109,0,6.043-1.175,8.288-3.326c4.76-3.843,70.749-57.683,70.749-92.781   C408.735,127.654,391.055,109.97,366.696,109.97z" fill="#ed3533"/></g><path d="M343.254,316.86c-59.281,60.325-154.662,59.853-213.449-0.898c-8.4-8.681-21.616,4.561-13.227,13.227  c65.769,67.969,173.644,68.332,239.903,0.898C364.941,321.481,351.718,308.246,343.254,316.86L343.254,316.86z" fill="#333333"/></g></defs><g fi:class="KUsePattern"><pattern id="pattern_L1_3" width="350" height="350" patternUnits="userSpaceOnUse"><use xlink:href="#L1_3" x="-350" y="-350"/><use xlink:href="#L1_3" x="0" y="-350"/><use xlink:href="#L1_3" x="350" y="-350"/><use xlink:href="#L1_3" x="-350" y="0"/><use xlink:href="#L1_3" x="0" y="0"/><use xlink:href="#L1_3" x="350" y="0"/><use xlink:href="#L1_3" x="-350" y="350"/><use xlink:href="#L1_3" x="0" y="350"/><use xlink:href="#L1_3" x="350" y="350"/></pattern><rect x="0" y="0" width="100%" height="100%" fill="url(#pattern_L1_3)"/></g><g fi:class="KUsePattern"><pattern id="pattern_L1_5" width="350" height="350" patternUnits="userSpaceOnUse"><use xlink:href="#L1_5" x="-350" y="-350"/><use xlink:href="#L1_5" x="0" y="-350"/><use xlink:href="#L1_5" x="350" y="-350"/><use xlink:href="#L1_5" x="-350" y="0"/><use xlink:href="#L1_5" x="0" y="0"/><use xlink:href="#L1_5" x="350" y="0"/><use xlink:href="#L1_5" x="-350" y="350"/><use xlink:href="#L1_5" x="0" y="350"/><use xlink:href="#L1_5" x="350" y="350"/></pattern><rect x="0" y="0" width="100%" height="100%" fill="url(#pattern_L1_5)"/></g></svg>