<?xml version="1.0" encoding="utf-8"?>
<!-- Generator: Adobe Illustrator 25.4.1, SVG Export Plug-In . SVG Version: 6.00 Build 0)  -->
<svg version="1.1" id="Lager_1" xmlns="http://www.w3.org/2000/svg" xmlns:xlink="http://www.w3.org/1999/xlink" x="0px" y="0px"
	 viewBox="0 0 53.3 64.3" style="enable-background:new 0 0 53.3 64.3;" xml:space="preserve">
<style type="text/css">
	.st0{fill:#FFFFFF;}
</style>
<g>
	<path class="st0" d="M22.4,17.3c0.6,0.5,1.1,1.1,1.7,1.6c0.7,0.7,1.7,1.1,2.6,1.1c0.9,0,1.9-0.4,2.6-1.1c0.6-0.5,1.1-1.1,1.7-1.6
		c3.8-3.7,7.6-7.3,11.4-11c1.5-1.4,1.3-3.8,0-5.2c-1.4-1.5-3.8-1.3-5.2,0c-0.6,0.5-1.1,1.1-1.7,1.6c-2.9,2.8-5.9,5.7-8.8,8.5
		c-2.9-2.8-5.9-5.7-8.8-8.5c-0.6-0.5-1.1-1.1-1.7-1.6c-1.4-1.3-3.8-1.5-5.2,0c-1.3,1.4-1.5,3.8,0,5.2C14.7,9.9,18.6,13.6,22.4,17.3z
		"/>
	<path class="st0" d="M22.4,39.4c0.6,0.5,1.1,1.1,1.7,1.6c0.7,0.7,1.7,1.1,2.6,1.1c0.9,0,1.9-0.4,2.6-1.1c0.6-0.5,1.1-1.1,1.7-1.6
		c3.8-3.7,12.6-12.3,16.4-15.9c1.5-1.4,1.3-3.8,0-5.2c-1.4-1.5-3.8-1.3-5.2,0c-0.6,0.5-1.1,1.1-1.7,1.6
		c-2.9,2.8-10.9,10.6-13.8,13.4c-2.9-2.8-10.9-10.6-13.8-13.4c-0.6-0.5-1.1-1.1-1.7-1.6c-1.4-1.3-3.8-1.5-5.2,0
		c-1.3,1.4-1.5,3.8,0,5.2C9.8,27.2,18.6,35.8,22.4,39.4z"/>
	<path class="st0" d="M52.2,36.1c-1.4-1.5-3.8-1.3-5.2,0c-0.6,0.5-1.1,1.1-1.7,1.6c-2.9,2.8-15.8,15-18.7,17.8
		c-2.9-2.8-15.8-15-18.7-17.8c-0.6-0.5-1.1-1.1-1.7-1.6c-1.4-1.3-3.8-1.5-5.2,0c-1.3,1.4-1.5,3.8,0,5.2C4.9,45,18.6,58,22.4,61.6
		c0.6,0.5,1.1,1.1,1.7,1.6c0.7,0.7,1.7,1.1,2.6,1.1c0.9,0,1.9-0.4,2.6-1.1c0.6-0.5,1.1-1.1,1.7-1.6C34.7,58,48.4,45,52.2,41.3
		C53.7,39.9,53.6,37.5,52.2,36.1z"/>
</g>
</svg>
