<?xml version="1.0" encoding="utf-8"?>
<!-- Generator: Adobe Illustrator 25.4.1, SVG Export Plug-In . SVG Version: 6.00 Build 0)  -->
<svg version="1.1" id="Lager_1" xmlns="http://www.w3.org/2000/svg" xmlns:xlink="http://www.w3.org/1999/xlink" x="0px" y="0px"
	 viewBox="0 0 400 45" style="enable-background:new 0 0 400 45;" xml:space="preserve">
<style type="text/css">
	.st0{fill:#FFFFFF;}
</style>
<g>
	<g>
		<path class="st0" d="M200.5,9.3c-0.3-0.3-0.7-0.3-1-0.1c0,0-4,3.5-11.7,7.3c-15.9,8.1-68.3,16.2-116.3,3.8
			c-7.4-1.9-14.4-3.3-20.7-4.1c-17.4-2.2-30.7-0.3-39.6,5.6c0,0,0,0,0,0C2.4,27.7,0.5,36.1,0,39.4c-0.1,1.1,0.1,2.3,0.8,3.3
			c0.9,1.4,2.4,2.2,4,2.2c1.6,0,3.1-0.8,4-2.2c0.6-0.9,0.8-2,0.8-3C9.4,36.6,8.9,26.3,12.1,23c8.6-5.7,21.6-7.5,38.6-5.4
			c6.3,0.8,13.2,2.2,20.6,4.1c17.9,4.6,36.4,6.4,53.4,6.4c29,0,53.7-5.2,63.8-10.3c7.8-4,11.8-7.4,12-7.5
			C200.8,10,200.8,9.6,200.5,9.3z"/>
		<path class="st0" d="M200.5,9.3c-0.3-0.3-0.7-0.3-1-0.1c0,0-3.1,2.7-9,5.7c-12.3,6.3-53.1,12.6-90.3,2.9
			c-5.8-1.5-11.2-2.6-16.1-3.2c-13.5-1.7-23.9-0.3-30.9,4.4c0,0,0,0,0,0c-7,4.7-8.5,11.2-8.8,13.8c-0.1,0.9,0.1,1.9,0.6,2.7
			c0.7,1.1,1.9,1.8,3.3,1.8c1.3,0,2.5-0.7,3.3-1.8c0.5-0.7,0.7-1.6,0.6-2.5c-0.2-2.4-0.6-10.4,1.9-12.9c6.7-4.4,16.7-5.8,29.9-4.1
			c4.9,0.6,10.2,1.7,16,3.2c13.9,3.6,28.3,5,41.6,5c22.6,0,41.9-4,49.7-8c6.1-3.1,9.2-5.8,9.3-5.9C200.8,10,200.8,9.6,200.5,9.3z"/>
	</g>
	<path class="st0" d="M202.9,1.9c-0.5-1.1-1.5-1.8-2.8-1.9c0,0-0.1,0-0.1,0c-1.3,0.1-2.3,0.8-2.9,1.9c-0.9,2,0,5.1,2.3,8.2
		c0.1,0.2,0.3,0.3,0.6,0.3c0.2,0,0.4-0.1,0.6-0.3C202.9,7,203.8,4,202.9,1.9z"/>
	<g>
		<path class="st0" d="M400,39.4c-0.4-3.3-2.4-11.7-11.2-17.6c0,0,0,0,0,0c-8.9-6-22.2-7.8-39.6-5.6c-6.3,0.8-13.3,2.2-20.7,4.1
			c-47.9,12.4-100.4,4.3-116.3-3.8c-7.7-3.9-11.6-7.3-11.7-7.3c-0.3-0.3-0.7-0.2-1,0.1c-0.3,0.3-0.2,0.7,0.1,1
			c0.2,0.1,4.1,3.6,12,7.5c10.1,5.1,34.8,10.3,63.8,10.3c17,0,35.6-1.8,53.4-6.4c7.4-1.9,14.3-3.3,20.6-4.1
			c17-2.2,29.9-0.4,38.6,5.4c3.3,3.3,2.8,13.7,2.5,16.8c-0.1,1.1,0.2,2.1,0.8,3c0.9,1.4,2.4,2.2,4,2.2c0,0,0,0,0,0
			c1.6,0,3.1-0.8,4-2.3C399.8,41.8,400.1,40.6,400,39.4z"/>
		<path class="st0" d="M355.7,32.8c-0.3-2.6-1.8-9.2-8.8-13.8c0,0,0,0,0,0c-7-4.7-17.4-6.1-30.9-4.4c-4.9,0.6-10.4,1.7-16.1,3.2
			c-37.3,9.7-78,3.3-90.3-2.9c-5.9-3-9-5.7-9-5.7c-0.3-0.3-0.7-0.2-1,0.1c-0.3,0.3-0.2,0.7,0.1,1c0.1,0.1,3.2,2.8,9.3,5.9
			c7.9,4,27.1,8,49.7,8c13.3,0,27.7-1.4,41.6-5c5.7-1.5,11.1-2.6,16-3.2c13.1-1.7,23.2-0.3,29.9,4.1c2.5,2.5,2.1,10.5,1.9,12.9
			c-0.1,0.9,0.2,1.7,0.6,2.5c0.7,1.1,1.9,1.8,3.3,1.8c1.3,0,2.5-0.7,3.3-1.8C355.6,34.7,355.8,33.8,355.7,32.8z"/>
	</g>
</g>
</svg>
