<?xml version="1.0" encoding="utf-8"?>
<!-- Generator: Adobe Illustrator 24.3.0, SVG Export Plug-In . SVG Version: 6.00 Build 0)  -->
<svg version="1.1" id="Layer_1" xmlns="http://www.w3.org/2000/svg" xmlns:xlink="http://www.w3.org/1999/xlink" x="0px" y="0px"
	 viewBox="0 0 622.9 158.4" style="enable-background:new 0 0 622.9 158.4;" xml:space="preserve">
<style type="text/css">
	.st0{fill:#3FA9F5;stroke:#3FA9F5;stroke-width:25;stroke-miterlimit:10;}
	.st1{fill:none;stroke:#000000;stroke-width:5;stroke-miterlimit:10;}
	.st2{fill:none;stroke:#000000;stroke-miterlimit:10;}
	.st3{fill:#FFFFFF;}
	.st4{fill:#999999;}
	.st5{font-family:'SpaceAge';}
	.st6{font-size:153.982px;}
</style>
<path class="st0" d="M69.5,29.5C53.9,39,40,45,24.5,49.5c0,19.5,10.5,70.5,45,80c35.5-10.5,45-60.5,45-80C99,45,85.1,39,69.5,29.5z"
	/>
<g>
	<path class="st3" d="M114.5,49.5c0,6.1-0.9,15.1-3.3,25c-1.2,4.9-2.7,10-4.6,15H90.4H59.8c-0.3-0.7-0.6-1.4-0.9-2.1
		c-1.8-4.2-3.2-8.6-4.4-12.9h41.3c0.3-1.1,0.6-2.3,0.9-3.5c1-4.1,1.6-7.8,2-10.9c-10-3.6-19.5-7.9-29.2-13.3
		c-5.5,3.1-11,5.8-16.5,8.2c-4.2,1.8-8.3,3.5-12.7,5c1.2,8.2,3.7,18.2,7.5,27.3c4,9.5,10.9,21.2,21.5,26.1c6.5-3,11.5-8.2,15.4-14
		h17.4c-7,13.6-17.4,25.5-32.7,30c-34.5-9.5-45-60.5-45-80c7.8-2.2,15.1-4.9,22.5-8.1c7.4-3.3,14.7-7.1,22.5-11.9
		C85.1,39,99,45,114.5,49.5z"/>
</g>
<g>
	<path class="st4" d="M613.7,41.1l-16.8,101.6H114.5c9.1-9.5,16.7-21.3,22.6-35.3c8.9-21.3,12.1-43.9,12.1-57.9v-8.4H613.7z"/>
</g>
<g>
	<text transform="matrix(1 0 0 1 161.2485 136.6737)" class="st3 st5 st6">SEC</text>
</g>
</svg>
