<svg width="1920" height="610" xmlns="http://www.w3.org/2000/svg" style="vector-effect: non-scaling-stroke;" stroke="null">
 <!-- Created with Method Draw - http://github.com/duopixel/Method-Draw/ -->

 <g stroke="null">
  <title stroke="null">background</title>
  <rect stroke="null" fill="#f5f1ea" id="canvas_background" height="612" width="1922" y="-1" x="-1"/>
  <g style="vector-effect: non-scaling-stroke;" stroke="null" display="none" overflow="visible" y="0" x="0" height="100%" width="100%" id="canvasGrid">
   <rect fill="url(#gridpattern)" stroke-width="0" y="0" x="0" height="100%" width="100%"/>
  </g>
 </g>
 <g stroke="null">
  <title stroke="null">Layer 1</title>
  <path stroke="#ff7f00" id="svg_43" d="m547.629871,381.533225l0,0c0,-53.444657 44.82513,-96.770119 100.11972,-96.770119l0,0c26.553389,0 52.019242,10.195388 70.795319,28.343306c18.776096,18.147924 29.3244,42.761774 29.3244,68.426814l0,0c0,53.444649 -44.82513,96.770119 -100.119719,96.770119l0,0c-55.294583,0 -100.11972,-43.32547 -100.11972,-96.770119zm50.05986,0l0,0c0,26.722321 22.412579,48.385059 50.05986,48.385059c27.647301,0 50.059859,-21.662738 50.059859,-48.385059c0,-26.722321 -22.412571,-48.38506 -50.059859,-48.38506l0,0c-27.647281,0 -50.05986,21.662745 -50.05986,48.38506z" stroke-opacity="null" stroke-width="0" fill="#332D40"/>
  <ellipse stroke="#FFAAB8" ry="150.643353" rx="178.712942" id="svg_42" cy="612.931962" cx="1132.742802" stroke-opacity="null" stroke-width="0" fill="#ff812d"/>
  <path stroke="#FFAAB8" transform="rotate(179.41883850097656 1906.5816650390627,127.59635162353514) " id="svg_8" d="m1806.580671,23.050202l100.000779,0l0,0c55.228913,0 100.000779,46.806956 100.000779,104.546266c0,57.739317 -44.771866,104.546266 -100.000779,104.546266l-100.000779,0l0,-209.092533z" stroke-width="0" fill="#9A8AAB"/>
  <path transform="rotate(-90.40380859375 1512.3559570312498,546.6423950195311) " id="svg_20" d="m1426.019702,551.918048c21.56743,0 41.84558,8.18864 57.07872,23.04372c15.26817,14.86187 23.66251,34.66411 23.66251,55.73711l33.24804,0c0,-61.21433 -51.14382,-111.00533 -113.99628,-111.00533l0,32.2245l0.00701,0zm0.04204,-57.137c76.88741,0 139.42455,60.99008 139.42455,135.95181l33.23403,0c0,-92.7321 -77.45497,-168.18311 -172.66559,-168.18311l0,32.2313l0.00701,0zm45.96568,113.42455c0,12.33393 -10.30724,22.33698 -23.01788,22.33698s-23.01787,-10.00305 -23.01787,-22.33698c0,-12.32033 10.30724,-22.32338 23.01787,-22.32338s23.01788,9.99625 23.01788,22.32338z" stroke-opacity="null" stroke-width="0" stroke="#000" fill="#ff812d"/>
  <path stroke="#332D40" transform="rotate(-89.3132553100586 230.7067260742188,697.583740234375) " id="svg_3" d="m-300.70525,617.964481l531.396734,0l0,0c-51.427472,53.417171 536.311011,-15.014235 531.396711,79.620045c-4.9143,94.634279 -640.111003,17.795265 -531.396711,79.620048l-531.396734,0l0,-159.240093z" stroke-width="4" fill="none"/>
  <path stroke="#000" transform="rotate(-89.83181762695312 1817.5675048828123,387.30258178710926) " id="svg_4" d="m1585.77756,148.701435l231.78987,0l0,0c128.01403,0 231.78987,106.82547 231.78987,238.60137c0,131.77592 -103.77584,238.60138 -231.78987,238.60138l-231.78987,0l0,-477.20275z" fill-opacity="null" stroke-opacity="null" stroke-width="0" fill="#FFAAB8"/>
  <path stroke="#000" transform="rotate(-89.7970962524414 379.77587890624994,610.8773193359375) " id="svg_7" d="m202.50176,438.14751l177.27411,0l0,0c97.90579,0 177.2741,77.33322 177.2741,172.72858c0,95.39538 -79.36831,172.72858 -177.2741,172.72858l-177.27411,0" fill-opacity="null" stroke-opacity="null" stroke-width="0" fill="#FFAAB8"/>
  <path stroke="#ff7f00" id="svg_15" d="m1789.796041,388.888064l0,0c0,-66.525724 51.894666,-120.455491 115.909967,-120.455491l0,0c30.741221,0 60.223388,12.690802 81.960708,35.280589c21.737343,22.589794 33.949259,53.228109 33.949259,85.174902l0,0c0,66.525716 -51.894666,120.455491 -115.909967,120.455491l0,0c-64.015294,0 -115.909967,-53.929775 -115.909967,-120.455491zm57.954984,0l0,0c0,33.262854 25.947349,60.227746 57.954984,60.227746c32.007658,0 57.954984,-26.964891 57.954984,-60.227746c0,-33.262854 -25.947341,-60.227746 -57.954984,-60.227746l0,0c-32.007635,0 -57.954984,26.964899 -57.954984,60.227746z" stroke-opacity="null" stroke-width="0" fill="#332D40"/>
  <path stroke="#FFAAB8" transform="rotate(-0.4668080508708954 23.0001144409234,366.6455383300782) " id="svg_17" d="m-77.000666,262.095231l100.00078,0l0,0c55.22892,0 100.00078,46.80696 100.00078,104.54627c0,57.73932 -44.77186,104.54626 -100.00078,104.54626l-100.00078,0l0,-209.09253z" stroke-width="0" fill="#9A8AAB"/>
  <ellipse stroke="#FFAAB8" ry="52.273137" rx="52.273136" id="svg_27" cy="484.948505" cx="481.815709" stroke-opacity="null" stroke-width="0" fill="#ff812d"/>
  <path id="svg_28" d="m1815.90357,1535.321441c0.01539,0 0.02986,0.006025 0.04073,0.016955c0.010895,0.010935 0.016885,0.025505 0.016885,0.04101l0.023725,0c0,-0.04504 -0.036495,-0.081675 -0.081345,-0.081675l0,0.02371l0.000005,0zm0.00003,-0.04204c0.054865,0 0.09949,0.044875 0.09949,0.10003l0.023715,0c0,-0.06823 -0.05527,-0.123745 -0.12321,-0.123745l0,0.023715l0.000005,0zm0.0328,0.083455c0,0.009075 -0.007355,0.016435 -0.016425,0.016435s-0.016425,-0.00736 -0.016425,-0.016435c0,-0.009065 0.007355,-0.016425 0.016425,-0.016425s0.016425,0.007355 0.016425,0.016425z" fill-opacity="null" stroke-opacity="null" stroke-width="0" stroke="#000" fill="#FFAAB8"/>
  <path stroke="#000" transform="rotate(-89.83181762695312 881.1965942382812,384.9758300781249) " id="svg_34" d="m649.40671,146.37001l231.78987,0l0,0c128.01403,0 231.78987,106.82547 231.78987,238.60137c0,131.77592 -103.77584,238.60138 -231.78987,238.60138l-231.78987,0l0,-477.20275z" fill-opacity="null" stroke-opacity="null" stroke-width="0" fill="#FFAAB8"/>
  <path stroke="#332D40" transform="rotate(-90.40380859375 1290.0053710937498,898.7839965820314) " id="svg_35" d="m758.590966,819.167272l531.396734,0l0,0c-51.427472,53.417171 536.311011,-15.014235 531.396711,79.620045c-4.9143,94.634279 -640.111003,17.795265 -531.396711,79.620048l-531.396734,0l0,-159.240093z" stroke-width="4" fill="none"/>
  <path stroke="#FFAAB8" transform="rotate(-90.43755340576172 595.7318115234375,544.1512451171876) " id="svg_36" d="m495.731031,439.602075l100.00078,0l0,0c55.22892,0 100.00078,46.80696 100.00078,104.54627c0,57.73932 -44.77186,104.54626 -100.00078,104.54626l-100.00078,0l0,-209.09253z" stroke-width="0" fill="#9A8AAB"/>
  <path transform="rotate(-90.40380859375 1056.5980224609375,549.8821411132812) " id="svg_46" d="m970.261483,555.157568c21.56743,0 41.84558,8.18864 57.07872,23.04372c15.26817,14.86187 23.66251,34.66411 23.66251,55.73711l33.24804,0c0,-61.21433 -51.14382,-111.00533 -113.99628,-111.00533l0,32.2245l0.00701,0zm0.04204,-57.137c76.88741,0 139.42455,60.99008 139.42455,135.95181l33.23403,0c0,-92.7321 -77.45497,-168.18311 -172.66559,-168.18311l0,32.2313l0.00701,0zm45.96568,113.42455c0,12.33393 -10.30724,22.33698 -23.01788,22.33698s-23.01787,-10.00305 -23.01787,-22.33698c0,-12.32033 10.30724,-22.32338 23.01787,-22.32338s23.01788,9.99625 23.01788,22.32338z" stroke-opacity="null" stroke-width="0" stroke="#000" fill="#ff812d"/>
  <ellipse stroke="#ff7f00" ry="52.273137" rx="52.273136" id="svg_47" cy="456.74262" cx="89.497235" stroke-width="0" fill="#332D40"/>
  <path transform="rotate(-0.1845778524875641 61.62680816640096,539.5327148437501) " id="svg_22" d="m-24.709478,544.808364c21.56743,0 41.84558,8.18864 57.07872,23.04372c15.26817,14.86187 23.66251,34.66411 23.66251,55.73711l33.24804,0c0,-61.21433 -51.14382,-111.00533 -113.99628,-111.00533l0,32.2245l0.00701,0zm0.04204,-57.137c76.88741,0 139.42455,60.99008 139.42455,135.95181l33.23403,0c0,-92.7321 -77.45497,-168.18311 -172.66559,-168.18311l0,32.2313l0.00701,0zm45.96568,113.42455c0,12.33393 -10.30724,22.33698 -23.01788,22.33698s-23.01787,-10.00305 -23.01787,-22.33698c0,-12.32033 10.30724,-22.32338 23.01787,-22.32338s23.01788,9.99625 23.01788,22.32338z" stroke-opacity="null" stroke-width="0" stroke="#000" fill="#ff812d"/>
 </g>
</svg>