<svg fill="#ffffff" xmlns="http://www.w3.org/2000/svg"  viewBox="0 0 48 48" width="60px" height="60px"><path d="M41.9,16c-0.2-0.5-0.6-0.9-0.9-1.3c-1.2-1.4-2.1-3.3-3.3-4.7c-0.3,0-0.5,0-0.7,0.1c-0.339,0.085-1.325,0.385-2.41,0.718 C34.298,10.908,34,10.69,34,10.383V9.455C34,9.204,33.796,9,33.545,9h-5.061c-0.262,0-0.47,0.221-0.455,0.483l0.147,2.433 c0.013,0.222-0.137,0.422-0.353,0.472c-0.928,0.214-1.763,0.393-2.28,0.501C25.261,12.947,25,12.73,25,12.441V4.108 c0-0.071,0.016-0.14,0.048-0.204l0.622-1.245C25.822,2.356,25.602,2,25.263,2h-5.459c-0.33,0-0.551,0.341-0.415,0.642l0.571,1.269 C19.986,3.97,20,4.033,20,4.098v10.684c0,0.138-0.058,0.265-0.166,0.352c-0.787,0.63-2.226,1.786-3.115,2.421 C16.417,17.771,16,17.554,16,17.183V5.108c0-0.071,0.016-0.14,0.048-0.204l0.622-1.245C16.822,3.356,16.602,3,16.263,3h-5.526 c-0.339,0-0.559,0.356-0.407,0.659l0.622,1.245C10.984,4.967,11,5.037,11,5.108V18c0,0-0.4-0.1-0.6-0.2c-0.9-0.4-1.7-0.9-2.5-1.4 c-0.3-0.2-0.6-0.4-0.8-0.7c0.7-0.4,1.1-1,1.8-1.4C9,14.3,9,14.1,9,14c-1.1,0.2-1.9,0.6-3,1v0.1c0.2,0.6,0.5,1.1,0.9,1.6 c0.4,0.6,0.8,1.2,1.5,1.5c0.82,0.455,1.556,1.159,2.436,1.584c0.158,0.076,0.264,0.229,0.264,0.404v7.605 c0,0.071-0.016,0.14-0.048,0.204l-0.622,1.245c-0.151,0.303,0.069,0.659,0.407,0.659h5.526c0.339,0,0.559-0.356,0.407-0.659 l-0.622-1.245c-0.032-0.063-0.048-0.133-0.048-0.204v-7.645c0-0.205,0.138-0.375,0.335-0.432c1.016-0.295,2.024-0.926,2.946-1.586 c0.302-0.216,0.719-0.001,0.719,0.37v11.394c0,0.071-0.016,0.14-0.048,0.204l-0.622,1.245C19.278,31.644,19.498,32,19.837,32h5.526 c0.339,0,0.559-0.356,0.407-0.659l-0.622-1.245c-0.032-0.063-0.048-0.133-0.048-0.204V15.288c0-0.183,0.105-0.351,0.274-0.419 c0.472-0.189,1.397-0.465,2.47-0.796c0.282-0.087,0.573,0.113,0.59,0.408l0.519,8.733c0.021,0.35-0.345,0.591-0.658,0.434L27,23 l2,10l-2-1l2.415,12.88c0.097,0.517,0.848,0.485,0.901-0.039L31,38l1,2v-8.9c0-0.406,0.491-0.609,0.777-0.322l0.445,0.445 C33.509,31.509,34,31.306,34,30.9V25.42c0-0.433,0.549-0.622,0.815-0.28c0.477,0.612,0.931,1.216,1.185,1.66 c0.1,0.1,0.3,0.1,0.4,0.1c0.7-0.1,2-0.3,2.6-0.5c1-0.3,1.7-0.5,2.4-1.2c0,0,0.3-0.9,0.2-0.9c0.2-2.3,0.2-4.8,0.3-7.1 C42,16.8,42.1,16.4,41.9,16z M37,24c0,0.1-0.9,1.2-1,1c-0.369-0.461-1.418-1.347-1.893-1.875C34.033,23.043,34,22.939,34,22.829 v-9.774c0-0.208,0.144-0.387,0.345-0.439c0.82-0.212,1.717-0.529,2.155-0.617h0.1c0.1,0,0.2,0,0.3,0.1s0.1,0.2,0.1,0.4 c0.4,1.9,0.5,3.8,0.6,5.7c0,0.4,0,0.9,0.1,1.3C37.7,20.5,37,24,37,24z"/></svg>