<?xml version="1.0" encoding="utf-8"?>
<!-- Generator: Adobe Illustrator 24.3.0, SVG Export Plug-In . SVG Version: 6.00 Build 0)  -->
<svg version="1.1" id="Layer_1" xmlns="http://www.w3.org/2000/svg" xmlns:xlink="http://www.w3.org/1999/xlink" x="0px" y="0px"
	 viewBox="0 0 16 16" style="enable-background:new 0 0 16 16;" xml:space="preserve" width="14px" height="14px">
<style type="text/css">
	.st0{fill:#2296FF;}
</style>
<g>
	<path class="st0" d="M8,0C3.6,0,0,3.6,0,8s3.6,8,8,8s8-3.6,8-8S12.4,0,8,0z M8,1.2c3.7,0,6.8,3,6.8,6.8s-3,6.8-6.8,6.8
		s-6.8-3-6.8-6.8S4.3,1.2,8,1.2z"/>
	<path class="st0" d="M9.2,4.5c0,0.8-0.6,1.4-1.4,1.4S6.5,5.2,6.5,4.5s0.6-1.4,1.4-1.4S9.2,3.7,9.2,4.5z"/>
	<path class="st0" d="M9.3,11.8c0,0.3,0.1,0.4,0.5,0.5l0.6,0v0.6H5.7v-0.6l0.7,0c0.4,0,0.5-0.2,0.5-0.5V8c0-0.6-0.8-0.5-1.3-0.5V6.9
		l3.8-0.1"/>
</g>
</svg>
