<svg width="580" height="401" xmlns="http://www.w3.org/2000/svg">
 <!-- Created with Method Draw - http://github.com/duopixel/Method-Draw/ -->

 <g>
  <title>background</title>
  <rect fill="#f5f1ea" id="canvas_background" height="403" width="582" y="-1" x="-1"/>
  <g display="none" overflow="visible" y="0" x="0" height="100%" width="100%" id="canvasGrid">
   <rect fill="url(#gridpattern)" stroke-width="0" y="0" x="0" height="100%" width="100%"/>
  </g>
 </g>
 <g>
  <title>Layer 1</title>
  <ellipse stroke="#000" transform="rotate(38.700523376464844 37.665626525878686,372.0308532714845) " ry="57.61976" rx="129" id="svg_10" cy="372.030851" cx="37.665627" fill-opacity="null" stroke-opacity="null" stroke-width="1.5" fill="none"/>
  <path id="svg_11" d="m651.487759,50.174345c83.283617,-152.978451 409.591561,0 0,196.68658c-409.591561,-196.68658 -83.283617,-349.665031 0,-196.68658z" fill-opacity="null" stroke-opacity="null" stroke-width="1.5" stroke="#000" fill="none"/>
  <path stroke="#000" transform="rotate(74.43415832519531 544.4920043945312,389.4426574707031) " id="svg_12" d="m613.692563,262.427159c-20.931163,17.779147 -49.861942,17.951725 -70.952087,0.530067c-20.284148,16.76183 -47.832517,17.24165 -68.532454,1.438839l-37.221271,42.00672c22.896297,26.307432 22.76322,68.574705 -0.391261,94.701771c-3.073022,8.920293 -4.683614,8.49014 -5.018862,17.473241c-0.788427,21.627563 3.82866,41.803317 18.29085,56.998632c12.918992,13.573668 30.450608,19.330539 47.291104,17.276493c28.121559,1.63969 41.603243,15.384404 47.26021,23.605226c7.638674,-8.783876 19.517511,-22.904955 55.620841,-24.665308c21.552168,-3.510604 29.340654,-9.181977 39.455556,-19.667338c13.614381,-14.304296 18.37484,-32.417791 17.973616,-52.54363c-0.166612,-8.355264 -1.072588,-11.260099 -5.545954,-21.92832c-23.261865,-26.248207 -23.278786,-68.789589 -0.061747,-95.069541l-38.168542,-40.156853z" fill-opacity="null" stroke-opacity="null" stroke-width="1.5" fill="none"/>
  <path stroke="#000" transform="rotate(144.7498321533203 166.428955078125,-31.37048149108887) " id="svg_13" d="m288.78023,-48.689725c0.262809,-2.201599 0.414961,-4.425778 0.414961,-6.672537c0,-38.973941 -38.702038,-70.564059 -86.450228,-70.564059c-37.056026,0 -68.579236,19.069231 -80.875917,45.827123c-8.147069,-7.293501 -19.76598,-11.956374 -32.80959,-11.956374c-24.593361,0 -44.525325,16.269249 -44.525325,36.343313c0,2.370952 0.318137,4.685454 0.857586,6.920923c-32.80959,4.414488 -57.914736,27.503048 -57.914736,55.525447c0,31.183669 30.96993,56.451247 69.160182,56.451247l219.583578,0c38.204085,0 69.160182,-25.267578 69.160182,-56.451247c0.013832,-27.672401 -24.413544,-50.591608 -56.600693,-55.423835z" stroke-width="1.5" fill="none"/>
  <line stroke="#000" transform="rotate(127.80586242675781 180.0201721191406,366.47753906250006) " stroke-linecap="null" stroke-linejoin="null" id="svg_14" y2="381.239987" x2="242.02018" y1="351.71509" x1="118.02018" fill-opacity="null" stroke-opacity="null" stroke-width="1.5" fill="none"/>
  <line stroke-linecap="null" stroke-linejoin="null" id="svg_15" y2="114.78125" x2="50.5" y1="52.78125" x1="76.5" fill-opacity="null" stroke-opacity="null" stroke-width="1.5" stroke="#000" fill="none"/>
  <line stroke-linecap="null" stroke-linejoin="null" id="svg_16" y2="230.78125" x2="484.5" y1="281.78125" x1="585.5" fill-opacity="null" stroke-opacity="null" stroke-width="1.5" stroke="#000" fill="none"/>
 </g>
</svg>