<svg width="1920.0000000000002" height="1201" xmlns="http://www.w3.org/2000/svg" style="vector-effect: non-scaling-stroke;" stroke="null">
 <!-- Created with Method Draw - http://github.com/duopixel/Method-Draw/ -->

 <g stroke="null">
  <title stroke="null">background</title>
  <rect stroke="null" fill="#f5f1ea" id="canvas_background" height="1203" width="1922" y="-1" x="-1"/>
  <g style="vector-effect: non-scaling-stroke;" stroke="null" display="none" overflow="visible" y="0" x="0" height="100%" width="100%" id="canvasGrid">
   <rect fill="url(#gridpattern)" stroke-width="0" y="0" x="0" height="100%" width="100%"/>
  </g>
 </g>
 <g stroke="null">
  <title stroke="null">Layer 1</title>
  <path stroke="#FFAAB8" transform="rotate(179.41883850097656 1891.1964111328123,663.5086059570312) " id="svg_8" d="m1791.195633,558.962356l100.000779,0l0,0c55.228913,0 100.000779,46.806956 100.000779,104.546266c0,57.739317 -44.771866,104.546266 -100.000779,104.546266l-100.000779,0l0,-209.092533z" stroke-width="0" fill="#9A8AAB"/>
  <path transform="rotate(-90.40380859375 1507.0925292968748,1131.1378173828123) " id="svg_20" d="m1420.756286,1136.414418c21.56743,0 41.84558,8.18864 57.07872,23.04372c15.26817,14.86187 23.66251,34.66411 23.66251,55.73711l33.24804,0c0,-61.21433 -51.14382,-111.00533 -113.99628,-111.00533l0,32.2245l0.00701,0zm0.04204,-57.137c76.88741,0 139.42455,60.99008 139.42455,135.95181l33.23403,0c0,-92.7321 -77.45497,-168.18311 -172.66559,-168.18311l0,32.2313l0.00701,0zm45.96568,113.42455c0,12.33393 -10.30724,22.33698 -23.01788,22.33698s-23.01787,-10.00305 -23.01787,-22.33698c0,-12.32033 10.30724,-22.32338 23.01787,-22.32338s23.01788,9.99625 23.01788,22.32338z" stroke-opacity="null" stroke-width="0" stroke="#000" fill="#ff812d"/>
  <path stroke="#332D40" transform="rotate(-89.3132553100586 230.7067413330079,1307.8577880859375) " id="svg_3" d="m-300.70525,1228.237651l531.396734,0l0,0c-51.427472,53.417171 536.311011,-15.014235 531.396711,79.620045c-4.914299,94.63428 -640.111003,17.795265 -531.396711,79.620048l-531.396734,0l0,-159.240092z" stroke-width="4" fill="none"/>
  <path stroke="#000" transform="rotate(-89.83181762695312 1817.5675048828125,977.0626220703125) " id="svg_4" d="m1585.77756,738.461221l231.78987,0l0,0c128.01403,0 231.78987,106.82547 231.78987,238.60137c0,131.77592 -103.77584,238.60138 -231.78987,238.60138l-231.78987,0l0,-477.20275z" fill-opacity="null" stroke-opacity="null" stroke-width="0" fill="#FFAAB8"/>
  <path stroke="#000" transform="rotate(-89.7970962524414 379.77581787109386,1221.1492919921875) " id="svg_7" d="m202.50176,1048.42068l177.27411,0l0,0c97.90579,0 177.2741,77.33322 177.2741,172.72858c0,95.39538 -79.36831,172.72858 -177.2741,172.72858l-177.27411,0" fill-opacity="null" stroke-opacity="null" stroke-width="0" fill="#FFAAB8"/>
  <path stroke="#ff7f00" id="svg_15" d="m1789.796041,978.64785l0,0c0,-66.525724 51.894666,-120.455491 115.909967,-120.455491l0,0c30.741221,0 60.223388,12.690802 81.960708,35.280589c21.737343,22.589794 33.949259,53.228109 33.949259,85.174902l0,0c0,66.525716 -51.894666,120.455491 -115.909967,120.455491l0,0c-64.015294,0 -115.909967,-53.929775 -115.909967,-120.455491zm57.954984,0l0,0c0,33.262854 25.947349,60.227746 57.954984,60.227746c32.007658,0 57.954984,-26.964891 57.954984,-60.227746c0,-33.262854 -25.947341,-60.227746 -57.954984,-60.227746l0,0c-32.007635,0 -57.954984,26.964899 -57.954984,60.227746z" stroke-opacity="null" stroke-width="0" fill="#332D40"/>
  <path stroke="#FFAAB8" transform="rotate(-0.4668080508708954 23.00011062617957,958.9654541015624) " id="svg_17" d="m-77.000666,854.41919l100.00078,0l0,0c55.22892,0 100.00078,46.80696 100.00078,104.54627c0,57.73932 -44.77186,104.54626 -100.00078,104.54626l-100.00078,0l0,-209.09253z" stroke-width="0" fill="#9A8AAB"/>
  <path transform="rotate(-0.1845778524875641 61.62683105463214,1126.5921630859384) " id="svg_22" d="m-24.709478,1131.868907c21.56743,0 41.84558,8.18864 57.07872,23.04372c15.26817,14.86187 23.66251,34.66411 23.66251,55.73711l33.24804,0c0,-61.21433 -51.14382,-111.00533 -113.99628,-111.00533l0,32.2245l0.00701,0zm0.04204,-57.137c76.88741,0 139.42455,60.99008 139.42455,135.95181l33.23403,0c0,-92.7321 -77.45497,-168.18311 -172.66559,-168.18311l0,32.2313l0.00701,0zm45.96568,113.42455c0,12.33393 -10.30724,22.33698 -23.01788,22.33698s-23.01787,-10.00305 -23.01787,-22.33698c0,-12.32033 10.30724,-22.32338 23.01787,-22.32338s23.01788,9.99625 23.01788,22.32338z" stroke-opacity="null" stroke-width="0" stroke="#000" fill="#ff812d"/>
  <ellipse stroke="#FFAAB8" ry="52.273137" rx="52.273136" id="svg_27" cy="1095.221675" cx="481.815709" stroke-opacity="null" stroke-width="0" fill="#ff812d"/>
  <path id="svg_28" d="m1815.90357,1535.321441c0.01539,0 0.02986,0.006025 0.04073,0.016955c0.010895,0.010935 0.016885,0.025505 0.016885,0.04101l0.023725,0c0,-0.04504 -0.036495,-0.081675 -0.081345,-0.081675l0,0.02371l0.000005,0zm0.00003,-0.04204c0.054865,0 0.09949,0.044875 0.09949,0.10003l0.023715,0c0,-0.06823 -0.05527,-0.123745 -0.12321,-0.123745l0,0.023715l0.000005,0zm0.0328,0.083455c0,0.009075 -0.007355,0.016435 -0.016425,0.016435s-0.016425,-0.00736 -0.016425,-0.016435c0,-0.009065 0.007355,-0.016425 0.016425,-0.016425s0.016425,0.007355 0.016425,0.016425z" fill-opacity="null" stroke-opacity="null" stroke-width="0" stroke="#000" fill="#FFAAB8"/>
 </g>
</svg>