<svg width="1920.0000000000002" height="1201" xmlns="http://www.w3.org/2000/svg" style="vector-effect: non-scaling-stroke;" stroke="null">
 <!-- Created with Method Draw - http://github.com/duopixel/Method-Draw/ -->

 <g stroke="null">
  <title stroke="null">background</title>
  <rect stroke="null" fill="#fcf2f6" id="canvas_background" height="1203" width="1922" y="-1" x="-1"/>
  <g style="vector-effect: non-scaling-stroke;" stroke="null" display="none" overflow="visible" y="0" x="0" height="100%" width="100%" id="canvasGrid">
   <rect fill="url(#gridpattern)" stroke-width="0" y="0" x="0" height="100%" width="100%"/>
  </g>
 </g>
 <g stroke="null">
  <title stroke="null">Layer 1</title>
  <ellipse stroke="#FFAAB8" ry="52.273137" rx="52.273136" id="svg_26" cy="22.486053" cx="1354.549724" stroke-opacity="null" stroke-width="0" fill="#ff812d"/>
  <path stroke="#FFAAB8" transform="rotate(179.41883850097656 1891.1964111328123,663.5086059570312) " id="svg_8" d="m1791.195633,558.962356l100.000779,0l0,0c55.228913,0 100.000779,46.806956 100.000779,104.546266c0,57.739317 -44.771866,104.546266 -100.000779,104.546266l-100.000779,0l0,-209.092533z" stroke-width="0" fill="#9A8AAB"/>
  <path transform="rotate(90.29548645019531 338.90173339843756,72.03854370117188) " id="svg_19" d="m252.56543,77.31529c21.56743,0 41.84558,8.18864 57.07872,23.04372c15.26817,14.86187 23.66251,34.6641 23.66251,55.73711l33.24804,0c0,-61.21433 -51.14382,-111.00533 -113.99628,-111.00533l0,32.2245l0.00701,0zm0.04204,-57.137c76.8874,0 139.42455,60.99008 139.42455,135.95181l33.23403,0c0,-92.7321 -77.45497,-168.18311 -172.66559,-168.18311l0,32.2313l0.00701,0zm45.96568,113.42455c0,12.33393 -10.30725,22.33698 -23.01788,22.33698s-23.01787,-10.00305 -23.01787,-22.33698c0,-12.32033 10.30724,-22.32338 23.01787,-22.32338s23.01788,9.99625 23.01788,22.32338z" stroke-opacity="null" stroke-width="0" stroke="#000" fill="#ff812d"/>
  <path transform="rotate(-90.40380859375 1507.0925292968748,1131.1378173828123) " id="svg_20" d="m1420.756286,1136.414418c21.56743,0 41.84558,8.18864 57.07872,23.04372c15.26817,14.86187 23.66251,34.66411 23.66251,55.73711l33.24804,0c0,-61.21433 -51.14382,-111.00533 -113.99628,-111.00533l0,32.2245l0.00701,0zm0.04204,-57.137c76.88741,0 139.42455,60.99008 139.42455,135.95181l33.23403,0c0,-92.7321 -77.45497,-168.18311 -172.66559,-168.18311l0,32.2313l0.00701,0zm45.96568,113.42455c0,12.33393 -10.30724,22.33698 -23.01788,22.33698s-23.01787,-10.00305 -23.01787,-22.33698c0,-12.32033 10.30724,-22.32338 23.01787,-22.32338s23.01788,9.99625 23.01788,22.32338z" stroke-opacity="null" stroke-width="0" stroke="#000" fill="#ff812d"/>
  <path stroke="#000" transform="rotate(90.77989196777344 35.73539733886719,213.42031860351562) " id="svg_3" d="m-196.05448,-25.18104l231.78988,0l0,0c128.01403,0 231.78987,106.82547 231.78987,238.60137c0,131.77592 -103.77584,238.60138 -231.78987,238.60138l-231.78988,0l0,-477.20275z" fill-opacity="null" stroke-opacity="null" stroke-width="0" fill="#FFAAB8"/>
  <path stroke="#000" transform="rotate(-89.89836120605469 1817.5673828124998,977.0626220703124) " id="svg_4" d="m1585.77756,738.461221l231.78987,0l0,0c128.01403,0 231.78987,106.82547 231.78987,238.60137c0,131.77592 -103.77584,238.60138 -231.78987,238.60138l-231.78987,0l0,-477.20275z" fill-opacity="null" stroke-opacity="null" stroke-width="0" fill="#FFAAB8"/>
  <path stroke="#000" transform="rotate(89.44373321533203 1459.2666015625002,40.464332580566435) " id="svg_6" d="m1235.769682,-58.633333l0,0c0,-110.457821 89.543737,-200.001571 200.001555,-200.001571l0,0c53.043684,0 103.914855,21.071535 141.422433,58.579104c37.507564,37.50757 58.579069,88.378761 58.579069,141.422467l0,0c0,110.457794 -89.543724,200.001544 -200.001502,200.001544l0,0c-110.457818,0 -200.001555,-89.543764 -200.001555,-200.001544zm200.001555,-200.001571l0,400.003115m-200.001555,-200.001544l400.003057,0" fill-opacity="null" stroke-opacity="null" stroke-width="0" fill="#FFAAB8"/>
  <path stroke="#000" transform="rotate(-89.7970962524414 379.77581787109386,1221.1492919921875) " id="svg_7" d="m202.50176,1048.42068l177.27411,0l0,0c97.90579,0 177.2741,77.33322 177.2741,172.72858c0,95.39538 -79.36831,172.72858 -177.2741,172.72858l-177.27411,0" fill-opacity="null" stroke-opacity="null" stroke-width="0" fill="#FFAAB8"/>
  <path stroke="#ff7f00" id="svg_15" d="m1789.796041,978.64785l0,0c0,-66.525724 51.894666,-120.455491 115.909967,-120.455491l0,0c30.741221,0 60.223388,12.690802 81.960708,35.280589c21.737343,22.589794 33.949259,53.228109 33.949259,85.174902l0,0c0,66.525716 -51.894666,120.455491 -115.909967,120.455491l0,0c-64.015294,0 -115.909967,-53.929775 -115.909967,-120.455491zm57.954984,0l0,0c0,33.262854 25.947349,60.227746 57.954984,60.227746c32.007658,0 57.954984,-26.964891 57.954984,-60.227746c0,-33.262854 -25.947341,-60.227746 -57.954984,-60.227746l0,0c-32.007635,0 -57.954984,26.964899 -57.954984,60.227746z" stroke-opacity="null" stroke-width="0" fill="#332D40"/>
  <path stroke="#ff7f00" id="svg_16" d="m107.964863,369.552208l0,0c0,-66.52572 51.89467,-120.45549 115.90997,-120.45549l0,0c30.74122,0 60.22339,12.6908 81.96071,35.28059c21.73734,22.58979 33.94926,53.22811 33.94926,85.1749l0,0c0,66.52572 -51.89467,120.45549 -115.90997,120.45549l0,0c-64.01529,0 -115.90997,-53.92977 -115.90997,-120.45549zm57.95499,0l0,0c0,33.26285 25.94734,60.22775 57.95498,60.22775c32.00766,0 57.95498,-26.9649 57.95498,-60.22775c0,-33.26285 -25.94734,-60.22775 -57.95498,-60.22775l0,0c-32.00764,0 -57.95498,26.9649 -57.95498,60.22775z" stroke-opacity="null" stroke-width="0" fill="#332D40"/>
  <path stroke="#FFAAB8" transform="rotate(-0.4668080508708954 -4.272822856894538,954.4199829101562) " id="svg_17" d="m-104.273604,849.8737l100.00078,0l0,0c55.22892,0 100.00078,46.80696 100.00078,104.54627c0,57.73932 -44.77186,104.54626 -100.00078,104.54626l-100.00078,0l0,-209.09253z" stroke-width="0" fill="#9A8AAB"/>
  <path transform="rotate(-179.39337158203125 1848.0043945312498,72.03854370117188) " id="svg_21" d="m1761.667982,77.315283c21.56744,0 41.84559,8.18864 57.07872,23.04372c15.26818,14.86187 23.66252,34.66411 23.66252,55.73711l33.24804,0c0,-61.21433 -51.14382,-111.00533 -113.99628,-111.00533l0,32.2245l0.007,0zm0.04205,-57.13699c76.8874,0 139.42455,60.99007 139.42455,135.9518l33.23402,0c0,-92.7321 -77.45497,-168.1831 -172.66558,-168.1831l0,32.2313l0.00701,0zm45.96567,113.42455c0,12.33392 -10.30724,22.33697 -23.01787,22.33697s-23.01787,-10.00305 -23.01787,-22.33697c0,-12.32034 10.30724,-22.32339 23.01787,-22.32339s23.01787,9.99626 23.01787,22.32339z" stroke-opacity="null" stroke-width="0" stroke="#000" fill="#ff812d"/>
  <path transform="rotate(-0.1845778524875641 61.62683105463214,1126.5921630859384) " id="svg_22" d="m-24.709478,1131.868907c21.56743,0 41.84558,8.18864 57.07872,23.04372c15.26817,14.86187 23.66251,34.66411 23.66251,55.73711l33.24804,0c0,-61.21433 -51.14382,-111.00533 -113.99628,-111.00533l0,32.2245l0.00701,0zm0.04204,-57.137c76.88741,0 139.42455,60.99008 139.42455,135.95181l33.23403,0c0,-92.7321 -77.45497,-168.18311 -172.66559,-168.18311l0,32.2313l0.00701,0zm45.96568,113.42455c0,12.33393 -10.30724,22.33698 -23.01788,22.33698s-23.01787,-10.00305 -23.01787,-22.33698c0,-12.32033 10.30724,-22.32338 23.01787,-22.32338s23.01788,9.99625 23.01788,22.32338z" stroke-opacity="null" stroke-width="0" stroke="#000" fill="#ff812d"/>
  <ellipse stroke="#FFAAB8" ry="52.273137" rx="52.273136" id="svg_24" cy="467.94406" cx="-0.006215" stroke-opacity="null" stroke-width="0" fill="#ff812d"/>
  <ellipse stroke="#FFAAB8" ry="52.273137" rx="52.273136" id="svg_27" cy="1095.221675" cx="481.815709" stroke-opacity="null" stroke-width="0" fill="#ff812d"/>
  <path id="svg_28" d="m1815.90357,1535.321441c0.01539,0 0.02986,0.006025 0.04073,0.016955c0.010895,0.010935 0.016885,0.025505 0.016885,0.04101l0.023725,0c0,-0.04504 -0.036495,-0.081675 -0.081345,-0.081675l0,0.02371l0.000005,0zm0.00003,-0.04204c0.054865,0 0.09949,0.044875 0.09949,0.10003l0.023715,0c0,-0.06823 -0.05527,-0.123745 -0.12321,-0.123745l0,0.023715l0.000005,0zm0.0328,0.083455c0,0.009075 -0.007355,0.016435 -0.016425,0.016435s-0.016425,-0.00736 -0.016425,-0.016435c0,-0.009065 0.007355,-0.016425 0.016425,-0.016425s0.016425,0.007355 0.016425,0.016425z" fill-opacity="null" stroke-opacity="null" stroke-width="0" stroke="#000" fill="#FFAAB8"/>
 </g>
</svg>