<svg width="375" height="75" viewBox="0 0 375 75" fill="none" xmlns="http://www.w3.org/2000/svg">
<path d="M1 6.19111C1 6.19111 23.0573 18.4578 49.526 18.4578L107.717 25H154.081H201.918H246.074L292.07 18.4578L334.755 12.3244L356.858 6.19111L374 1" stroke="black"/>
<path class='light' d="M38.541 13.0516L74.2884 14.8097L52.6169 67.5633L38.541 13.0516Z" fill="#DBDBDB"/>
<path class='dark' d="M79.7602 17.6357L115.551 18.222L95.8549 71.6532L79.7602 17.6357Z" fill="#767676"/>
<path d="M122 19H158L139.194 73L122 19Z" fill="#DBDBDB"/>
<path d="M168.528 20.9833L204.303 19.811L187.613 74.1363L168.528 20.9833Z" fill="#767676"/>
<path d="M215.063 19.6396L250.838 18.4673L234.149 72.7927L215.063 19.6396Z" fill="#DBDBDB"/>
<path d="M258.735 17.8584L294.265 13.7647L282.685 69.2483L258.735 17.8584Z" fill="#767676"/>
<path d="M300.975 13.1556L336.505 9.06192L324.925 64.5455L300.975 13.1556Z" fill="#DBDBDB"/>
</svg>
