<svg id="Capa_1" enable-background="new 0 0 512.021 512.021" height="512" viewBox="0 0 512.021 512.021" width="512" xmlns="http://www.w3.org/2000/svg"><g><g><path d="m54.623 182.895c-4.51-4.51-10.626-7.043-17.004-7.043h-10.079c-5.72 0-9.599 5.819-7.399 11.099l35.455 85.092 88.744-16.032c-10.63 0-20.824-4.223-28.34-11.739z" fill="#b3e59f"/><path d="m502.198 282.607c-8.903-9.155-29.742-26.596-59.302-26.596h-397.324c-7.745 0-14.024 6.279-14.024 14.024 0 6.055 3.844 11.409 9.594 13.308 24.754 8.174 92.891 28.78 150.724 28.78 8.555 0 252.918-3.02 264.042-3.02 21.992 0 39.462-8.293 46.37-15.401 3.015-3.102 2.936-7.994-.08-11.095z" fill="#ccf49f"/><path d="m191.866 288.074c-46.705 0-101.536-14.658-130.065-23.397-3.707-1.135-6.156-4.52-6.093-8.423l.004-.244h-10.14c-7.746 0-14.024 6.279-14.024 14.024 0 6.055 3.844 11.409 9.593 13.308 24.754 8.174 92.891 28.78 150.725 28.78h267.062c21.992 0 36.442-11.313 43.351-18.42 1.527-1.571 2.247-3.602 2.206-5.627h-4.689-307.93z" fill="#b3e59f"/><path d="m241.819 283.349c-6.539-2.18-13.387-3.291-20.28-3.291h-17.893c-4.854 0-7.624 5.541-4.712 9.424l16.979 22.639h112.223z" fill="#ada7ae"/><path d="m288.057 336.17h40.081c4.427 0 8.016-3.589 8.016-8.016v-16.032c0-4.427-3.589-8.016-8.016-8.016h-40.081c-8.854 0-16.032 7.178-16.032 16.032 0 8.854 7.178 16.032 16.032 16.032z" fill="#95d6a4"/></g><g><path d="m507.576 277.379c-10.484-10.781-32.828-28.868-64.679-28.868h-298.557c-8.702 0-16.883-3.389-23.037-9.542l-61.376-61.376c-5.958-5.958-13.881-9.24-22.308-9.24h-22.103c-2.489 0-4.815 1.234-6.21 3.295-1.396 2.061-1.677 4.679-.753 6.99l27.949 69.874h-29.002c-4.142 0-7.5 3.358-7.5 7.5s3.358 7.5 7.5 7.5h17.565c-.657 2.059-1.017 4.25-1.017 6.524 0 9.308 5.924 17.518 14.742 20.429 26.549 8.767 94.611 29.158 153.076 29.158h72.672c-.004.172-.013.343-.013.516 0 12.976 10.556 23.532 23.532 23.532h48.097c4.142 0 7.5-3.358 7.5-7.5v-32.064c0-4.142-3.358-7.5-7.5-7.5h-30.848l-61.116-20.372c-7.316-2.439-14.937-3.675-22.65-3.675h-29.673c-2.841 0-5.438 1.605-6.708 4.146-1.271 2.541-.997 5.582.708 7.854l15.048 20.063h-9.048c-18.751 0-70.745-2.768-148.373-28.402-2.659-.877-4.445-3.363-4.445-6.186 0-3.597 2.927-6.524 6.524-6.524h397.325c13.424 0 24.873 3.962 34.047 9.048h-12.537c-4.142 0-7.5 3.358-7.5 7.5s3.358 7.5 7.5 7.5h32.141c.09.092.186.187.274.278.174.179.257.456.079.639-5.862 6.031-18.589 16.147-37.972 16.147h-90.712c-4.142 0-7.5 3.358-7.5 7.5s3.358 7.5 7.5 7.5h90.712c24.898 0 41.216-12.964 48.728-20.692 5.849-6.021 5.814-15.488-.082-21.552zm-219.519 34.227h40.597v17.064h-40.597c-4.705 0-8.532-3.827-8.532-8.532s3.827-8.532 8.532-8.532zm-66.518-24.047c6.098 0 12.123.978 17.907 2.906l33.923 11.308c-1.075.862-2.073 1.816-2.982 2.85h-50.723l-12.798-17.063h14.673zm-168.882-39.048-26.063-65.159h11.025c4.42 0 8.576 1.721 11.701 4.847l60.312 60.312z"/><path d="m439.923 280.059c0-4.142-3.358-7.5-7.5-7.5h-.081c-4.142 0-7.46 3.358-7.46 7.5s3.398 7.5 7.541 7.5 7.5-3.358 7.5-7.5z"/><path d="m336.072 272.559c-4.142 0-7.459 3.358-7.459 7.5s3.398 7.5 7.54 7.5 7.5-3.358 7.5-7.5-3.358-7.5-7.5-7.5z"/><path d="m159.802 272.559c-4.142 0-7.46 3.358-7.46 7.5s3.398 7.5 7.54 7.5 7.5-3.358 7.5-7.5-3.358-7.5-7.5-7.5z"/><path d="m368.296 287.559c4.142 0 7.5-3.358 7.5-7.5s-3.358-7.5-7.5-7.5h-.08c-4.142 0-7.46 3.358-7.46 7.5s3.398 7.5 7.54 7.5z"/><path d="m304.008 272.559c-4.142 0-7.46 3.358-7.46 7.5s3.398 7.5 7.54 7.5 7.5-3.358 7.5-7.5-3.358-7.5-7.5-7.5z"/><path d="m407.859 280.059c0-4.142-3.358-7.5-7.5-7.5h-.08c-4.142 0-7.46 3.358-7.46 7.5s3.398 7.5 7.54 7.5 7.5-3.358 7.5-7.5z"/><path d="m127.66 272.559c-4.142 0-7.46 3.358-7.46 7.5s3.398 7.5 7.54 7.5 7.5-3.358 7.5-7.5-3.358-7.5-7.5-7.5z"/></g></g></svg>