<?xml version="1.0" encoding="utf-8"?>
<!-- Uploaded to: SVG Repo, www.svgrepo.com, Generator: SVG Repo Mixer Tools -->
<svg width="800px" height="800px" viewBox="0 -7.14 198.41 198.41" xmlns="http://www.w3.org/2000/svg">

<defs>

<style>.cls-1{fill:#ffffff;}</style>

</defs>

<g id="Layer_2" data-name="Layer 2">

<g id="Layer_1-2" data-name="Layer 1">

<path d="M104.73,0c10.89.3,21.75,1,32.37,3.63a32.54,32.54,0,0,1,5.71,1.75A111.14,111.14,0,0,1,189.46,46a42.73,42.73,0,0,1,5.61,14.3c3.56,15.81,3.85,31.79,2.81,47.82a64.2,64.2,0,0,1-9.81,30.75c-1.68,2.64-3,5.53-4.47,8.29a38,38,0,0,1-17.17,16.19,219.77,219.77,0,0,1-55.25,18.25c-11.76,2.32-23.7,3.44-35.85,1.68a59.7,59.7,0,0,1-26.09-10.37C40.84,167,32.47,161,25.17,153.6,11,139.27,4.11,121.91,2.12,102.25Q1.09,92,.18,81.73c-.87-9.94,1.41-19.16,5.39-28.32,8.16-18.73,22.85-30.36,40.6-38.85,5.68-2.71,11.57-5,17.41-7.34C76.77,1.88,90.58-.13,104.73,0Zm85.51,92.54c.6-10.61-1.7-21.23-3.66-31.94A30.38,30.38,0,0,0,181.53,48c-8.26-11.45-17.82-21.57-29.95-29.12-8.14-5.08-16.65-8.79-26.35-9.44q-8.55-.56-17.1-1.32C94.13,6.92,80.8,9.6,67.94,15c-4.75,2-9.55,3.88-14.23,6A100.48,100.48,0,0,0,32.49,33.87C24.05,40.67,18.32,49.43,14,59.23c-3,6.61-5.13,13.4-4.8,20.7s.62,14.87,1.57,22.23c2.44,18.91,9.11,36,23.73,49a202.5,202.5,0,0,0,18.71,15c11.13,7.76,23.53,11.53,37.26,9.95,1.7-.2,3.43-.17,5.15-.23,17.17-.66,33.2-5.7,48.59-13,7.2-3.4,14.2-7.23,21.25-10.94a15.15,15.15,0,0,0,4.21-2.89c7.19-7.82,13.66-16,16.85-26.51A89,89,0,0,0,190.24,92.55Z"/>

<path class="cls-1" d="M190.24,92.55a89,89,0,0,1-3.76,30c-3.19,10.48-9.66,18.69-16.85,26.51a15.15,15.15,0,0,1-4.21,2.89c-7,3.71-14,7.54-21.25,10.94-15.39,7.26-31.42,12.3-48.59,13-1.72.06-3.45,0-5.15.23-13.73,1.58-26.13-2.19-37.26-9.95a202.5,202.5,0,0,1-18.71-15c-14.62-13-21.29-30-23.73-49-1-7.36-1.24-14.81-1.57-22.23S11,65.84,14,59.23c4.36-9.8,10.09-18.56,18.53-25.36A100.48,100.48,0,0,1,53.71,21c4.68-2.15,9.48-4,14.23-6C80.8,9.6,94.13,6.92,108.13,8.16q8.55.77,17.1,1.32c9.7.65,18.21,4.36,26.35,9.44,12.13,7.55,21.69,17.67,29.95,29.12a30.38,30.38,0,0,1,5.05,12.57C188.54,71.32,190.84,81.94,190.24,92.55ZM59.88,103.83l.66,0c-.25,7.14-.59,14.28-.71,21.42a21.56,21.56,0,0,0,1,5.86,4.78,4.78,0,0,0,5,3.84c3.42-.13,7,0,10.21-.93,12.09-3.45,24.29-6.69,36-11.12,13.9-5.23,27.4-11.53,41-17.54a81.67,81.67,0,0,0,11.24-6.23,6.52,6.52,0,0,0,1.87-9.68,14.45,14.45,0,0,0-2.4-2.42c-11.91-10.47-25.55-18.24-39.51-25.53C109.73,54,93.76,50.29,78.4,45a24.9,24.9,0,0,0-5.87-1.21c-3.81-.35-5.94,1.08-7,4.71a35.75,35.75,0,0,0-1.38,6.7C62.67,71.37,61.29,87.6,59.88,103.83Z"/>

<path d="M59.88,103.83c1.41-16.23,2.79-32.46,4.26-48.68a35.75,35.75,0,0,1,1.38-6.7c1.07-3.63,3.2-5.06,7-4.71A24.9,24.9,0,0,1,78.4,45c15.36,5.34,31.33,9,45.89,16.6,14,7.29,27.6,15.06,39.51,25.53a14.45,14.45,0,0,1,2.4,2.42,6.52,6.52,0,0,1-1.87,9.68,81.67,81.67,0,0,1-11.24,6.23c-13.59,6-27.09,12.31-41,17.54-11.74,4.43-23.94,7.67-36,11.12-3.23.92-6.79.8-10.21.93a4.78,4.78,0,0,1-5-3.84,21.56,21.56,0,0,1-1-5.86c.12-7.14.46-14.28.71-21.42Zm9.21,22.67c1.64.36,2,.53,2.19.46,8.78-2.59,17.62-5,26.3-7.88,8.41-2.78,16.76-5.79,24.94-9.17,7.93-3.26,15.63-7.09,23.4-10.73a63.3,63.3,0,0,0,6.83-3.58,26.93,26.93,0,0,0,3.72-3.52c-3.11-2.56-5.69-4.81-8.4-6.89-2-1.57-4.23-2.93-6.35-4.38-18.88-12.91-40.19-20.45-61.6-27.75-3-1-6-1.83-9.34-.85-2.24,5.54-1.84,11.37-1.91,16.95C68.6,88.26,67.92,107.39,69.09,126.5Z"/>

<path class="cls-1" d="M69.09,126.5c-1.17-19.11-.49-38.24-.22-57.34.07-5.58-.33-11.41,1.91-16.95,3.36-1,6.36-.16,9.34.85,21.41,7.3,42.72,14.84,61.6,27.75,2.12,1.45,4.32,2.81,6.35,4.38,2.71,2.08,5.29,4.33,8.4,6.89a26.93,26.93,0,0,1-3.72,3.52,63.3,63.3,0,0,1-6.83,3.58c-7.77,3.64-15.47,7.47-23.4,10.73-8.18,3.38-16.53,6.39-24.94,9.17C88.9,122,80.06,124.37,71.28,127,71,127,70.73,126.86,69.09,126.5Z"/>

</g>

</g>

</svg>