<svg width="41" height="40" viewBox="0 0 41 40" fill="none" xmlns="http://www.w3.org/2000/svg">
<path d="M11.8173 29.4002C11.8111 29.3723 11.8036 29.3453 11.7975 29.3176C11.7908 29.2858 11.7849 29.2537 11.7791 29.2219L11.7754 29.2021L11.5243 27.987L12.0896 27.8659L13.2796 27.6109L33.9405 23.1806C34.3716 20.6345 34.3537 18.0201 33.8523 15.4856C33.3132 12.7626 31.8559 10.2057 29.3169 8.73465C27.9301 7.9305 26.0468 7.49942 24.2022 7.49942C22.8494 7.49942 21.5177 7.73129 20.417 8.21814C19.7797 8.50023 19.1106 8.70029 18.4253 8.8038C19.4934 3.63662 15.8271 1.65304 15.7889 1.63304C15.4839 1.47455 15.1095 1.59146 14.949 1.89587C14.7883 2.19945 14.9047 2.57724 15.2074 2.73959C15.2426 2.75857 15.5012 2.90226 15.8279 3.20053L17.3224 7.81078C17.283 8.147 17.2205 8.50164 17.129 8.87779C17.1073 8.87695 17.0855 8.87751 17.0637 8.87639C16.1429 8.83008 15.1725 8.58984 14.3324 8.21847C13.2323 7.7313 11.9002 7.49975 10.5475 7.49946C8.70267 7.49946 6.8198 7.93055 5.43257 8.73411C2.89348 10.2051 1.43619 12.7621 0.897398 15.485C-0.209182 21.0766 1.01877 27.0651 4.28721 31.8337C5.53165 33.6487 7.2088 36.0555 9.40975 36.9002C10.3543 37.2626 11.3068 37.4577 12.275 37.4577C12.8233 37.4577 13.3766 37.3927 13.936 37.2626C11.5601 34.355 11.6659 30.7835 11.8174 29.4004L11.8173 29.4002Z" fill="#D7A5AD"/>
<path d="M27.2516 0.000845721C21.6221 0.281262 20.0215 3.97688 19.5851 5.6426C19.4701 6.08066 19.7991 6.50032 20.2586 6.53297C20.5385 6.55278 20.8077 6.56226 21.0681 6.56226C26.3873 6.56226 27.6783 2.55752 27.9886 0.797435C28.0651 0.364953 27.7328 0 27.2925 0C27.2788 0 27.2651 0.000279016 27.2514 0.000837078L27.2516 0.000845721Z" fill="#D7A5AD"/>
<path d="M13.3774 33.4952C13.981 35.632 15.4776 37.9872 18.9852 39.1917C18.3465 38.8214 17.7318 38.4068 17.1503 37.9442C15.6079 36.7163 14.3297 35.1992 13.3774 33.4952Z" fill="#D7A5AD"/>
<path d="M25.2087 30.751C25.2375 30.8098 25.3491 30.9005 25.4437 30.9242C25.6669 30.9803 25.834 30.8319 25.8907 30.689C25.9384 30.5685 25.959 30.4128 25.978 30.2462C25.7609 30.2976 25.5564 30.3464 25.4066 30.4217C25.358 30.4457 25.1225 30.5752 25.2087 30.751H25.2087Z" fill="#D7A5AD"/>
<path d="M30.2087 29.501C30.2375 29.5598 30.3491 29.6505 30.4437 29.6742C30.6672 29.7312 30.834 29.5816 30.8907 29.439C30.9384 29.3185 30.959 29.1628 30.978 28.9962C30.7609 29.0476 30.5564 29.0964 30.4066 29.1717C30.358 29.1957 30.1225 29.3252 30.2087 29.501H30.2087Z" fill="#D7A5AD"/>
<path d="M40.1597 23.1252L12.9995 28.9489C13.007 28.9857 13.0126 29.0231 13.0204 29.0599C14.4222 35.5563 20.1841 40 26.5905 40C27.5588 40 28.5409 39.8987 29.5256 39.6875C37.0263 38.0789 41.7999 30.7124 40.1864 23.2345C40.1783 23.1974 40.1674 23.1617 40.1596 23.1249L40.1597 23.1252ZM27.3339 29.8247C27.3163 29.9093 27.2965 29.9813 27.2761 30.0533C27.2633 30.0985 27.248 30.1434 27.2424 30.1894L27.2268 30.3253C27.1994 30.5753 27.1679 30.8588 27.0527 31.1495C26.8026 31.7804 26.2117 32.1877 25.5474 32.1877H25.5471C25.4109 32.1877 25.2734 32.1707 25.138 32.1364C24.6924 32.0237 24.28 31.6961 24.0861 31.301C23.7239 30.5619 24.0498 29.7037 24.8445 29.3047C25.1265 29.1626 25.429 29.0912 25.6955 29.0282C25.9293 28.9729 26.1503 28.9207 26.3015 28.8356L26.4441 28.7553L26.6279 28.7503C27.001 28.7503 27.2605 29.0499 27.3437 29.3287C27.4045 29.5455 27.3587 29.7271 27.3339 29.8248L27.3339 29.8247ZM32.3339 28.5747C32.3164 28.6593 32.2966 28.7313 32.2762 28.8033C32.2633 28.8485 32.248 28.8934 32.2424 28.9394L32.2268 29.0753C32.1995 29.3253 32.1679 29.6088 32.053 29.8995C31.8027 30.5304 31.2117 30.9377 30.5474 30.9377H30.5471C30.4109 30.9377 30.2734 30.9207 30.1381 30.8864C29.6925 30.7737 29.2801 30.4461 29.0861 30.051C28.724 29.3119 29.0498 28.4537 29.8445 28.0547C30.1266 27.9126 30.429 27.8412 30.6955 27.7781C30.9293 27.7229 31.1503 27.6707 31.3015 27.5856L31.4441 27.5053L31.628 27.5002C32.001 27.5002 32.2605 27.7999 32.3437 28.0787C32.4045 28.2955 32.3588 28.4771 32.3339 28.5748L32.3339 28.5747Z" fill="#D7A5AD"/>
</svg>
