<svg width="41" height="40" viewBox="0 0 41 40" fill="none" xmlns="http://www.w3.org/2000/svg">
<path fill-rule="evenodd" clip-rule="evenodd" d="M37.9532 10.2326H33.5232C32.3698 10.2326 31.3149 9.62432 30.7324 8.65314C30.6954 8.71636 30.6543 8.77772 30.6135 8.83721C30.9819 9.36546 31.1978 10.0055 31.1978 10.6976C31.1978 12.4948 29.7392 13.9533 27.942 13.9533H24.2209C22.9037 13.9533 21.7168 13.1607 21.2125 11.9441C20.7827 10.9059 20.9222 9.73583 21.5492 8.83721C21.1808 8.30897 20.9649 7.66893 20.9649 6.97683C20.9649 5.17968 22.4235 3.72108 24.2207 3.72108H27.9418C29.0951 3.72108 30.15 4.32937 30.7325 5.29864C30.8664 5.07532 31.0302 4.86508 31.2218 4.6754L31.7631 4.1322C31.2274 3.78803 30.7994 3.29123 30.5409 2.70319C27.5901 0.984173 24.1593 0 20.4999 0C9.46133 0 0.499878 8.96225 0.499878 20C0.499878 31.0386 9.46212 40 20.4999 40C31.5384 40 40.4999 31.0378 40.4999 20C40.4999 16.4539 39.5751 13.1219 37.9531 10.2324L37.9532 10.2326ZM20.4999 23.1633C22.5541 23.1633 24.221 25.1632 24.221 27.6285C24.221 30.0937 22.5541 32.0936 20.4999 32.0936C18.4458 32.0936 16.7789 30.0937 16.7789 27.6285C16.7789 25.1632 18.4458 23.1633 20.4999 23.1633ZM29.6161 16.3706C29.2345 16.8804 28.6262 17.2096 27.9416 17.2096C27.257 17.2096 26.6487 16.8804 26.2672 16.3706C25.804 15.7548 24.9276 15.6321 24.3118 16.0933C23.6961 16.5565 23.5734 17.433 24.0346 18.0487C24.9276 19.2338 26.3454 20.0004 27.9417 20.0004C29.538 20.0004 30.9557 19.2339 31.8487 18.0487C32.31 17.4329 32.1873 16.5564 31.5715 16.0933C30.9557 15.6321 30.0792 15.7548 29.6161 16.3706H29.6161ZM14.7319 16.3706C14.3503 16.8804 13.7421 17.2096 13.0574 17.2096C12.3728 17.2096 11.7645 16.8804 11.383 16.3706C10.9199 15.7548 10.0434 15.6321 9.42765 16.0933C8.81188 16.5565 8.68917 17.433 9.15045 18.0487C10.0434 19.2338 11.4612 20.0004 13.0575 20.0004C14.6538 20.0004 16.0715 19.2339 16.9645 18.0487C17.4258 17.4329 17.3031 16.5564 16.6873 16.0933C16.0715 15.6321 15.1951 15.7548 14.7319 16.3706H14.7319Z" fill="#D7A5AD"/>
<path fill-rule="evenodd" clip-rule="evenodd" d="M33.5231 2.79073H35.7351L32.537 5.99075C32.137 6.3888 32.0178 6.98991 32.2336 7.51066C32.4494 8.03175 32.9593 8.3722 33.5231 8.3722H39.1045C39.8748 8.3722 40.4999 7.7471 40.4999 6.97684C40.4999 6.20658 39.8748 5.58147 39.1045 5.58147H36.8925L40.0906 2.38145C40.4906 1.9834 40.6098 1.38229 40.394 0.86154C40.1782 0.340454 39.6683 0 39.1045 0H33.5231C32.7528 0 32.1277 0.625109 32.1277 1.39537C32.1277 2.16563 32.7528 2.79073 33.5231 2.79073Z" fill="#D7A5AD"/>
<path fill-rule="evenodd" clip-rule="evenodd" d="M24.2212 8.3724H24.5728L23.2351 9.71203C22.8352 10.1101 22.7159 10.7112 22.9317 11.2319C23.1476 11.753 23.6574 12.0935 24.2212 12.0935H27.9423C28.7125 12.0935 29.3376 11.4684 29.3376 10.6981C29.3376 9.92786 28.7125 9.30275 27.9423 9.30275H27.5906L28.9284 7.96312C29.3283 7.56506 29.4476 6.96396 29.2317 6.4432C29.0159 5.92212 28.506 5.58167 27.9422 5.58167H24.2212C23.4509 5.58167 22.8258 6.20677 22.8258 6.97703C22.8258 7.74729 23.4509 8.3724 24.2212 8.3724Z" fill="#D7A5AD"/>
</svg>
