<svg width="40" height="40" viewBox="0 0 40 40" fill="none" xmlns="http://www.w3.org/2000/svg">
<g opacity="0.5">
<path d="M19.9998 0C14.658 0 9.63453 2.07998 5.85768 5.85779C2.08018 9.63503 0 14.6577 0 20.0002C0 25.3428 2.07994 30.3641 5.85768 34.1418C7.12885 35.4133 8.54258 36.4914 10.0602 37.364C8.76597 35.4497 8.00898 33.1437 8.00898 30.6639C8.00898 24.0516 13.3882 18.6729 19.9998 18.6729C25.1479 18.6729 29.3359 14.4844 29.3359 9.33655C29.3359 4.18892 25.1475 0.000242599 19.9998 0.000242599L19.9998 0ZM29.9404 2.63624C31.2349 4.55059 31.9909 6.85655 31.9909 9.33639C31.9909 15.9487 26.6118 21.3274 20.0002 21.3274C14.852 21.3274 10.664 25.5158 10.664 30.6637C10.664 35.8113 14.8524 40 20.0002 40C25.342 40 30.3655 37.9191 34.1423 34.1416C37.9198 30.3643 40 25.3425 40 20C40 14.6573 37.9201 9.63447 34.1423 5.85754C32.8712 4.58603 31.4584 3.50894 29.9407 2.63632L29.9404 2.63624ZM19.9998 4.0237C22.9293 4.0237 25.3124 6.40709 25.3124 9.33631C25.3124 12.2652 22.9293 14.6479 19.9998 14.6479C17.0704 14.6479 14.6873 12.2658 14.6873 9.33631C14.6873 6.40709 17.0704 4.0237 19.9998 4.0237ZM19.9998 6.67855C18.5347 6.67855 17.3425 7.87069 17.3425 9.33599C17.3425 10.8013 18.5346 11.9928 19.9998 11.9928C21.4651 11.9928 22.6572 10.8015 22.6572 9.33599C22.6572 7.87077 21.4651 6.67855 19.9998 6.67855ZM19.9998 25.3512C22.9293 25.3512 25.3124 27.7342 25.3124 30.6638C25.3124 33.5933 22.9293 35.9754 19.9998 35.9754C17.0704 35.9754 14.6873 33.5933 14.6873 30.6638C14.6873 27.7342 17.0704 25.3512 19.9998 25.3512ZM19.9998 28.006C18.5347 28.006 17.3425 29.1982 17.3425 30.6635C17.3425 32.1287 18.5346 33.3202 19.9998 33.3202C21.4651 33.3202 22.6572 32.129 22.6572 30.6635C22.6572 29.1982 21.4651 28.006 19.9998 28.006Z" fill="white"/>
<path d="M19.9998 0C14.658 0 9.63453 2.07998 5.85768 5.85779C2.08018 9.63503 0 14.6577 0 20.0002C0 25.3428 2.07994 30.3641 5.85768 34.1418C7.12885 35.4133 8.54258 36.4914 10.0602 37.364C8.76597 35.4497 8.00898 33.1437 8.00898 30.6639C8.00898 24.0516 13.3882 18.6729 19.9998 18.6729C25.1479 18.6729 29.3359 14.4844 29.3359 9.33655C29.3359 4.18892 25.1475 0.000242599 19.9998 0.000242599L19.9998 0ZM29.9404 2.63624C31.2349 4.55059 31.9909 6.85655 31.9909 9.33639C31.9909 15.9487 26.6118 21.3274 20.0002 21.3274C14.852 21.3274 10.664 25.5158 10.664 30.6637C10.664 35.8113 14.8524 40 20.0002 40C25.342 40 30.3655 37.9191 34.1423 34.1416C37.9198 30.3643 40 25.3425 40 20C40 14.6573 37.9201 9.63447 34.1423 5.85754C32.8712 4.58603 31.4584 3.50894 29.9407 2.63632L29.9404 2.63624ZM19.9998 4.0237C22.9293 4.0237 25.3124 6.40709 25.3124 9.33631C25.3124 12.2652 22.9293 14.6479 19.9998 14.6479C17.0704 14.6479 14.6873 12.2658 14.6873 9.33631C14.6873 6.40709 17.0704 4.0237 19.9998 4.0237ZM19.9998 6.67855C18.5347 6.67855 17.3425 7.87069 17.3425 9.33599C17.3425 10.8013 18.5346 11.9928 19.9998 11.9928C21.4651 11.9928 22.6572 10.8015 22.6572 9.33599C22.6572 7.87077 21.4651 6.67855 19.9998 6.67855ZM19.9998 25.3512C22.9293 25.3512 25.3124 27.7342 25.3124 30.6638C25.3124 33.5933 22.9293 35.9754 19.9998 35.9754C17.0704 35.9754 14.6873 33.5933 14.6873 30.6638C14.6873 27.7342 17.0704 25.3512 19.9998 25.3512ZM19.9998 28.006C18.5347 28.006 17.3425 29.1982 17.3425 30.6635C17.3425 32.1287 18.5346 33.3202 19.9998 33.3202C21.4651 33.3202 22.6572 32.129 22.6572 30.6635C22.6572 29.1982 21.4651 28.006 19.9998 28.006Z" fill="url(#paint0_linear_1_106)" fill-opacity="0.4"/>
</g>
<defs>
<linearGradient id="paint0_linear_1_106" x1="0" y1="0" x2="48.2815" y2="20.3989" gradientUnits="userSpaceOnUse">
<stop stop-color="#F4C5CD"/>
<stop offset="1" stop-color="#DDBEC5" stop-opacity="0.8"/>
</linearGradient>
</defs>
</svg>
