<?xml version="1.0" encoding="UTF-8"?>
<svg width="210mm" height="297mm" version="1.1" viewBox="0 0 210 297" xmlns="http://www.w3.org/2000/svg" xmlns:cc="http://creativecommons.org/ns#" xmlns:dc="http://purl.org/dc/elements/1.1/" xmlns:rdf="http://www.w3.org/1999/02/22-rdf-syntax-ns#">
 <metadata>
  <rdf:RDF>
   <cc:Work rdf:about="">
    <dc:format>image/svg+xml</dc:format>
    <dc:type rdf:resource="http://purl.org/dc/dcmitype/StillImage"/>
    <dc:title/>
   </cc:Work>
  </rdf:RDF>
 </metadata>
 <g fill="#b7c4c8">
  <path d="m83.742 103.93c1.8626 2.8965 0.17051 3.994-2.3853 5.9826-5.0607 3.935-10.713 7.1391-16.265 10.798-5.5546 3.657-10.963 7.4319-16.664 11.361-5.703 3.9308-11.435 8.9802-18.132 11.693-3.4506-3.539-7.3109-8.4768-10.252-12.012-2.9412-3.5369-4.6997-5.5992-6.2057-9.568 2.609-5.5866 11.563-9.2056 16.101-12.035 7.3817-4.6007 12.571-8.4725 19.359-12.823 3.455-2.214 6.7395-4.072 10.254-6.0921 2.279-1.3103 5.0341-3.4906 7.3485-4.1962 4.1061-1.2492 4.5668 0.59617 6.5202 3.3389 1.9534 2.7448 4.5114 5.1421 6.4006 7.9396 1.2801 1.8917 2.6887 3.6991 3.9201 5.6118m4.6554 17.697c0.67107 1.7105 1.3709 3.4252 2.0863 5.1358-5.6764-2.3214-11.446-3.9729-17.787-4.4891-0.19267-0.0149-0.42521 0.16852-0.45183 0.34969-0.60244 3.9687-0.29011 7.8153-0.15946 11.801 0.06215 1.7632 0.01318 3.5243 0.02888 5.2917 0.0157 1.7168 0.8261 4.7355 0.34548 6.3407-1.382 4.6239-6.6465-0.41286-9.3485-1.6705-2.1549-1.0006-4.5114-1.6684-6.7395-2.4942-1.3288-0.49503-3.2822-1.7779-4.6798-1.9338-3.3664-0.37918-2.6511 1.2724-2.3764 4.1478 0.3876 4.053 0.42082 8.1713 0.73087 12.237 0.10629 1.3945 0.04897 2.8586 0.26801 4.2489-0.50494-0.40868-1.0099-0.81735-1.5415-1.2639-2.8437-2.3972-5.2822-4.5691-8.4913-7.4804-1.2801-1.1607-5.1161-4.0635-5.7849-6.2754 6.5401-4.3753 12.482-9.4184 18.989-13.893 8.1348-5.595 16.09-10.758 24.519-16.347 1.65-1.0933 4.8149-2.9323 6.5446-4.3374 0.92798 3.5495 2.516 7.257 3.847 10.632m7.9554 17.152c0.77073 1.2976 1.5415 2.6269 2.31 3.9392-4.321-1.6684-8.6442-4.1457-13.187-4.0804-0.31227 4e-3 -0.52044 0.25701-0.53594 0.53718-0.17277 3.1261 0.22148 6.227 0.07525 9.3531-0.12625 2.7849 0.53156 8.264-0.95456 10.613-2.5647 4.0488-6.3674 2.1318-10.221 1.226-2.7241-0.6404-5.3508-1.5652-8.1658-1.6958-0.24139-0.0104-0.50494 0.19801-0.54481 0.42342-0.67771 3.7328-0.8261 7.5794-1.1627 11.356-0.05085 0.60036-0.18828 1.3945-0.26575 2.2182-2.2413-2.353-4.4251-4.7187-6.9565-6.8779-2.0198-1.719-3.8824-3.143-5.8868-4.7524-0.71315-3.4948-0.09524-8.2514-0.17277-11.335-0.04897-2.0644-0.3942-4.2594-0.29011-6.307 0.13291-2.6184 0.17936-2.3193 2.8925-1.462 4.0153 1.2702 8.1436 2.7406 11.78 4.7882 2.4739 1.3945 4.8149 3.0566 7.8114 2.7848 0.22369-0.0209 0.50494-0.1685 0.53376-0.41286 0.77959-6.4524-0.17051-13.32-0.47173-19.793-0.1174-2.5216-0.80838-4.9336 3.2313-5.6582 1.3909-0.25068 3.898 0.84472 5.3287 1.2386 3.3332 0.92057 6.5512 2.1613 9.7006 3.5411 1.5481 3.5748 3.218 7.0886 5.1515 10.356m12.075 20.943c-2.4251-0.99429-4.8879-1.8369-7.6076-2.0096-0.3765-0.0209-0.79289 0.31599-0.85712 0.66356-0.45183 2.4836-0.87482 4.9862-1.1561 7.4951-0.27686 2.4857 0.45403 7.7626-0.86818 9.7618-1.9733 2.9871-5.5568 0.41501-8.323-0.65725-2.4982-0.96901-4.961-1.6873-7.6431-2.0602-0.48724-0.0675-1.0099 0.15591-1.1184 0.65724-0.8859 4.0656-0.55812 8.3546-0.88147 12.5-0.04207 0.51819-0.1373 1.1986-0.22368 1.9338-3.7341-3.7012-7.5124-7.3161-11.311-10.672-1.4861-1.3124-2.8371-2.6901-4.1682-4.0741 0.14615-1.6684 0.72422-3.5243 0.9014-4.7945 0.3743-2.6711-0.30122-7.6594 3.4018-8.304 1.1539-0.20009 3.7451 1.0259 4.9876 1.3271 2.2192 0.54136 4.5225 1.2934 6.766 1.7042 1.4927 0.27385 2.4628 0.53718 3.7208-0.46976 1.5392-1.2344 1.5725-4.8851 1.7696-6.6146 0.37875-3.3305 0.44517-6.821 0.3721-10.17-0.0157-0.91846-0.86818-4.2552-0.25251-5.0831 1.7541-2.3572 4.9743 0.30542 6.8236 1.0891 2.2458 0.95428 4.589 1.7906 6.9344 2.5342 2.9478 5.0452 5.8801 10.154 8.7327 15.243m7.7738 14.215c0.81724 1.5378 1.6278 3.0124 2.4406 4.5144-1.9578-0.40026-3.9533-0.6404-5.9798-0.67831-0.29455-5e-3 -0.5426 0.21908-0.61788 0.47608-0.6622 2.3004-1.0232 4.5754-1.1428 6.9579-0.0864 1.6916 0.76188 8.7443-0.51605 9.8249-1.2912 1.0933-5.5191-0.89106-7.1736-1.3777-2.3543-0.69515-4.868-2.0623-7.3795-1.9422-0.44957 0.0209-0.72422 0.34967-0.75745 0.75414-0.24804 3.1535-0.6467 6.267-0.76408 9.431-0.0091 0.29492-0.04204 0.60879-0.07084 0.91423-4.4849-4.647-9.0893-9.4373-13.778-14.105 0.31447-2.9913 1.4374-6.4903 1.5304-8.6474 0.07527-1.8222-0.71094-4.1731 1.2425-5.1442 1.2691-0.62987 4.9677 1.622 6.1902 2.1276 2.7153 1.1228 5.3442 2.3425 8.137 3.2926 0.41635 0.13901 1.0298-0.13699 1.2004-0.5161 1.8404-4.053 1.5924-8.2661 1.8914-12.585 0.10186-1.462 0.042-3.4232 0.53156-4.8324 0.85046-2.452 1.1007-2.65 3.8891-2.1087 1.5658 0.30334 3.0741 1.0048 4.5934 1.6642 2.2413 4.0277 4.4428 8.0407 6.5335 11.98m10.5 19.182c-2.1638-0.34334-4.3453-0.31385-5.3265 1.5378-1.7696 3.3452 2.0686 13.463-2.8371 14.335-2.815 0.49926-7.8646-4.3753-10.051-0.85526-0.71315 1.1502-0.42522 3.5327-0.63341 4.8093-0.16167 0.97955-0.42082 1.8812-0.58468 2.7701-2.217-1.9949-4.4295-4.072-6.6354-6.3196-1.867-1.9022-3.7695-3.8676-5.6897-5.8562 0.09965-0.54352 0.19494-1.0828 0.26575-1.5989 0.17497-1.3061 0.23473-6.9053 1.2248-7.8006 1.3466-1.2113 5.1803 0.67832 6.3962 1.0533 2.6112 0.81101 5.2135 1.7885 7.9 2.3572 0.46068 0.099 0.9767-0.17692 1.0742-0.63195 0.84824-3.8971 0.72421-7.7921 0.78179-11.755 0.0553-3.5116-0.23473-6.0669 4.321-5.7825 0.83495 0.0549 1.6699 0.25277 2.5048 0.49503 2.4451 4.4891 4.8747 8.8644 7.2888 13.242m11.683 21.75c1.5104 2.7027 4.1083 6.1574 3.7517 9.1382-0.35659 2.9829-1.8582 3.164-3.9644 4.7376-1.227 0.91635-2.5891 1.4978-4.0286 2.4878-1.4418 0.988-3.4904 2.2435-4.919 3.4463-1.9822-1.8475-3.9622-3.5917-5.94-5.2938 0.27246-1.0217 0.52736-2.0476 0.83272-3.0629 0.29443-0.96901 0.43633-2.0096 1.402-2.5805 1.2823-0.75835 1.568-0.14964 2.9035 0.32861 1.588 0.56876 3.0453 1.0975 4.3565-0.12435 1.619-1.5083 1.3776-4.8092 1.6544-6.7683 0.17516-1.2429 0.16636-3.0355 0.66667-4.1773 0.37667-0.85527 0.83936-1.3145 1.4196-1.6052 0.58888 1.127 1.1849 2.2561 1.8648 3.4737m9.5766 20.229c1.0941 1.6642 1.9424 3.0187 2.9677 4.6407-0.28816 0.25701-0.54932 0.54769-0.84157 0.8005-1.2447-1.66-2.4916-3.6844-3.8604-5.1674-1.3709-1.483-2.5912-2.5784-3.7916-4.1099 0.73974-0.50135 1.4396-1.0575 2.135-1.6115 0.93681 1.8369 2.2944 3.7812 3.3908 5.4475m7.9841 13.589c1.9977 4.034 4.3166 7.8996 6.5956 11.811 0.75744 1.2976 1.331 2.6079 2.1306 3.9666 0.32772 0.56035 0.94346 1.3292 1.3 1.9486 0.35659 0.62144 0.70208 1.1017 0.98333 1.8116s0.46081 1.502-0.0685 2.2856c-0.52924 0.78152-1.7186 1.4282-2.5736 1.9401-2.8525-2.3614-4.5579-5.5255-6.8989-8.2745-2.8216-3.3052-6.2412-5.9658-9.2333-9.1129-2.0176-2.1213-4.0064-4.3205-6.0086-6.4608 2.4296-1.4619 4.6754-3.1177 6.8812-4.8724 0.3365 0.24434 0.54054-0.15167 0.47587-0.28441-0.0566-0.13066-0.0376-0.0317-0.0252-0.0441 0.19023-0.18326 0.37418-0.30335 0.59579-0.48028s0.60458-0.53085 0.79291-0.68253c0.18835-0.15167 0.0376-0.0117 0.21033-0.18326 0.17703-0.17275 0.59577-0.50134 0.8172-0.7099 1.4352 2.4141 2.7773 4.824 4.0242 7.3413m-9.7692-4.7988c-0.72203 0.60247-1.4928 1.146-2.2214 1.7442-2.2369-2.4288-4.4206-4.0341-7.0894-6.4018-0.40744-0.36233-2.1572-2.3699-2.8858-2.8712 0.92576-0.66355 1.9733-1.1923 2.9589-1.7906 2.9655 3.2125 6.1991 6.1743 9.2377 9.3194m1.7474-1.4662c-0.42753 0.36443-0.85714 0.72885-1.2912 1.0891-2.97-3.1893-6.1858-6.1406-9.3927-9.1171 0.91026-0.52876 1.8471-1.0196 2.7551-1.5546 2.5846 3.2399 5.2268 6.4334 7.9288 9.5827m-2.5337-6.9874c1.6057 1.7779 2.6776 3.7518 4.1505 5.5908-0.40304 0.34127-0.78845 0.68884-1.1871 1.0301-2.6754-3.1556-5.311-6.326-8.1968-9.3131 0.6622-0.40234 1.3-0.82365 1.9468-1.2534 0.77514 1.5314 2.1616 2.6985 3.2867 3.9456m-14.15 2.6564c0.72424-0.46976 1.3976-0.97744 2.1771-1.3924 0.32582 0.55612 1.9202 1.9107 2.2037 2.1698 2.8193 2.5637 5.3154 4.586 7.8624 7.1433-0.72205 0.5877-1.3886 1.2007-1.8936 1.9675-3.2845-3.4695-6.6509-6.8105-10.35-9.8881m-23.312-21.778c0.23473-1.2787 0.65113-2.5363 0.94791-3.8192 0.63563-2.7554 0.64892-4.0067 4.1349-3.5664 2.3255 0.29283 5.683 3.1451 7.9288 2.136 2.2657-1.0196 1.4241-4.9399 1.444-6.7241 0.025-1.839-0.51605-5.6392 0.13498-7.3476 0.66-1.7379 2.9545-2.4415 4.4871-2.4015 0.17265 6e-3 0.36099 0.0441 0.54682 0.0738 2.2635 4.1057 4.5114 8.224 6.7439 12.454 0.39426 0.74781 0.7619 1.4577 1.1207 2.1508-1.6411 0.5161-2.0753 2.4162-2.5359 5.0705-0.32771 1.8854-0.22162 4.2784-0.8793 6.0669-1.3709 3.7328-3.9777 1.2724-6.8236 0.50344-0.39614-0.10747-0.84376 0.11176-1.0342 0.44451-1.3289 2.3193-1.4839 4.8156-1.6588 7.3518-4.8725-4.1668-9.7272-8.0849-14.558-12.393m-28.988-123.63c-1.475-1.8179-2.8592-3.4589-4.1925-5.4623-0.6622-0.98798-1.0365-2.2182-2.248-3.025-1.2115-0.80681-2.3831-1.047-4.0308-0.56453-2.5359 0.74571-4.9455 2.5047-7.209 3.8592-4.507 2.6985-9.22 5.2074-13.561 8.0238-8.4182 5.4623-16.358 11.045-24.869 16.412-4.9566 3.124-10.916 5.4707-11.63 11.748-0.05965 0.52877 0.34774 0.70149 0.71536 0.84894 0.53815 2.1655 1.1007 3.1893 2.5447 5.1779 4.2058 5.7972 9.0871 11.774 14.447 16.882 0.57808 0.55193 1.32 0.85948 2.1195 0.62565 0.80174-0.23176 1.4197-0.72677 2.3033-0.94795 0.36544 3.5179 6.549 8.5884 8.3452 10.16 6.817 5.9678 12.296 10.556 17.567 16.684 5.2733 6.128 10.846 11.133 16.347 16.764 6.1105 6.2564 12.755 13.101 18.624 19.113 5.8691 6.0121 11.627 11.717 17.751 16.557 5.1714 4.0909 8.7748 7.255 13.379 11.413 0.34529 0.31178 0.62215 0.78364 0.90366 0.99851 0.28125 0.2191 0.0797 0.65514 0.24609 0.79628 0.16386 0.1411 0.0929 0.14964 0.14378 0.217 0.51605 0.65935 1.0919 0.84473 1.9091 0.81314 2.9966 2.9428 5.2423 5.9763 8.2765 9.0224 3.0342 3.0482 6.332 6.9032 9.375 9.9766 3.0431 3.0735 6.3652 5.7235 8.9609 8.9634 2.5957 3.2378 4.5646 6.1743 7.869 8.7864 0.6467 0.51192 1.9379 0.46976 2.6422-0.12006 2.6577-2.2266 6.5823-3.36 6.7882-7.1496 0.0779-1.4282-1.1384-2.5131-1.8781-3.6633-1.8604-2.8944-3.4772-5.7909-4.992-8.8896-2.95-6.0437-5.9732-12.035-9.6164-17.765-0.27937-0.43817-0.66221-0.83418-0.93681-1.3018-2.3477-4.0635-4.7838-8.0512-7.6342-11.83 0.48529-2.8101-0.79732-5.1105-2.1151-7.5077-6.673-12.14-33.449-62.291-40.696-73.814-3.0364-4.8303-6.0905-9.8544-8.7195-15.072-0.0157-0.099-0.05774-0.19591-0.13729-0.27807-0.48944-0.97955-0.99221-1.9528-1.4462-2.9471-2.4672-5.4012-6.0551-10.701-8.6663-16.105 1.114-1.1586 2.3365-2.3277 2.2679-3.9814-0.06864-1.6536-1.495-2.9913-2.3676-4.1541-2.3654-3.1451-4.146-6.2649-6.58-9.2646"/>
  <path d="m174.76 59.056c0.6622 3.3368-1.3289 3.7918-4.4583 4.7903-6.1991 1.978-12.675 3.0692-19.231 4.6197-6.5557 1.5504-13.02 3.2588-19.815 5.0115-6.7948 1.7526-14.037 4.5438-21.31 4.8261-1.9091-4.4722-3.6809-10.39-5.1139-14.687-1.4351-4.2974-2.31-6.8189-2.2413-11.038 4.5225-4.3458 14.243-4.7124 19.539-5.8309 8.6176-1.8158 14.912-3.6886 22.88-5.4686 4.053-0.90581 7.8181-1.5378 11.858-2.2435 2.62-0.45926 6.0064-1.5673 8.436-1.4451 4.3032 0.21276 4.0485 2.0939 4.8525 5.3169 0.80397 3.2251 2.3034 6.3281 3.0298 9.5827 0.49157 2.1992 1.1384 4.3648 1.5747 6.5661m-2.2369 18.121c-6e-3 1.8264 6e-3 3.6633 0.044 5.5044-4.445-4.0846-9.2266-7.573-14.965-10.189-0.17515-0.08008-0.46081 0.01493-0.55372 0.17485-2.0397 3.5053-3.1804 7.2086-4.5402 10.981-0.60269 1.6705-1.3022 3.301-1.9446 4.9567-0.62467 1.6115-0.99218 4.7081-2.0398 6.0479-3.0143 3.8592-6.0595-2.6269-8.1214-4.7123-1.6411-1.66-3.5946-3.0798-5.3708-4.6028-1.0608-0.91002-2.4074-2.768-3.6566-3.3852-3.0076-1.4893-2.9544 0.29702-3.7694 3.0798-1.1472 3.9182-2.6489 7.7816-3.8714 11.687-0.41874 1.3419-1.0188 2.6901-1.3333 4.0677-0.31893-0.5561-0.64004-1.108-0.96788-1.7042-1.7695-3.2019-3.238-6.0521-5.1559-9.8565-0.76631-1.5146-3.2734-5.5213-3.0763-7.8195 7.7472-1.8854 15.184-4.5986 22.934-6.5935 9.6918-2.4899 19.053-4.6386 29.018-7.0232 1.9512-0.46767 5.5944-1.1228 7.7339-1.8517-0.4539 3.6296-0.3478 7.6341-0.36099 11.238m1.0542 18.717c0.23479 1.4746 0.4608 2.9745 0.69321 4.4617-3.4218-3.0124-6.5424-6.7852-10.812-8.2556-0.29443-0.10111-0.58259 0.06321-0.70207 0.32227-1.3267 2.8628-2.1129 5.8962-3.4107 8.7696-1.1561 2.5637-2.5802 7.908-4.8459 9.6037-3.9068 2.9218-6.7505-0.15166-10.015-2.294-2.3122-1.5188-4.4206-3.2673-7.0075-4.3374-0.21909-0.0906-0.54242 0.013-0.6666 0.21066-2.0221 3.263-3.5945 6.8084-5.3132 10.229-0.27498 0.54352-0.69762 1.2386-1.0764 1.9844-1.2181-2.9576-2.3808-5.9047-3.9467-8.7759-1.2447-2.2877-2.4584-4.2468-3.7318-6.425 0.63564-3.5116 2.981-7.75 4.0619-10.663 0.71978-1.9465 1.2159-4.1141 2.073-5.9931 1.0985-2.4036 1.0342-2.1087 3.2512-0.39394 3.2823 2.5405 6.5956 5.3064 9.2333 8.4473 1.7917 2.1339 3.3642 4.4806 6.2678 5.2348 0.21911 0.05672 0.53363 0.01298 0.65335-0.20643 3.1316-5.7698 4.7993-12.513 6.9299-18.668 0.83051-2.3973 1.0786-4.8851 5.1271-4.2026 1.3953 0.23383 3.331 2.1023 4.5225 2.9534 2.7751 1.9865 5.3242 4.2279 7.7538 6.5788 0.11483 3.8655 0.36789 7.7163 0.96123 11.42m3.4926 23.657c-1.898-1.7484-3.8868-3.3663-6.3674-4.4448-0.34091-0.14743-0.85928 0.0275-1.0476 0.33284-1.3488 2.1718-2.6776 4.3669-3.8736 6.6188-1.1826 2.2329-2.465 7.413-4.4472 8.8391-2.9566 2.1255-5.3508-1.4851-7.5368-3.421-1.9733-1.7505-4.0109-3.2483-6.3829-4.5017-0.42754-0.2275-1.0011-0.19384-1.289 0.23801-2.341 3.5032-3.6322 7.6278-5.4793 11.394-0.23227 0.46977-0.5738 1.0722-0.928 1.7337-2.1151-4.7229-4.3032-9.3742-6.6044-13.792-0.90139-1.7316-1.6544-3.4737-2.3809-5.2158 0.75971-1.5104 1.9911-3.0482 2.6311-4.1773 1.3422-2.372 2.5692-7.2655 6.2722-6.6209 1.1539 0.20009 3.1184 2.2203 4.1682 2.9218 1.8737 1.2555 3.7496 2.7343 5.6941 3.8739 1.2934 0.75837 2.104 1.3314 3.6521 0.81103 1.9002-0.63407 3.2911-4.0362 4.1216-5.5887 1.5924-2.985 2.9545-6.227 4.135-9.3826 0.32332-0.86579 0.77069-4.2721 1.6544-4.8387 2.5182-1.6136 4.5403 1.9591 5.9776 3.3157 1.743 1.6494 3.6233 3.2209 5.5413 4.706 0.87704 5.7109 1.7142 11.476 2.4894 17.198m1.9778 15.913c0.18834 1.7105 0.39677 3.3642 0.60017 5.0431-1.6832-1.0364-3.4594-1.9317-5.342-2.65-0.27246-0.10527-0.58887 0.0232-0.75298 0.23802-1.475 1.9296-2.6599 3.935-3.661 6.1195-0.71319 1.5525-2.5425 8.4367-4.1394 9.016-1.6167 0.5856-4.8303-2.6922-6.1946-3.7075-1.9468-1.443-3.7872-3.5664-6.1791-4.3016-0.42942-0.13059-0.80837 0.0822-0.98999 0.45292-1.4063 2.8649-2.9412 5.6413-4.2257 8.561-0.11989 0.27384-0.26808 0.55193-0.40744 0.83209-2.465-5.8562-4.9854-11.889-7.6342-17.836 1.4086-2.6901 3.765-5.5824 4.6532-7.571 0.74853-1.6747 0.88808-4.1394 3.0762-4.3879 1.4219-0.16433 4.0419 3.1872 4.9965 4.072 2.1217 1.9654 4.1283 3.994 6.3851 5.8204 0.33651 0.27176 1.0121 0.21909 1.3156-0.0758 3.2313-3.1725 4.5668-7.196 6.4537-11.133 0.63785-1.3313 1.3156-3.1872 2.2967-4.3416 1.7098-2.0054 2.0154-2.1065 4.4207-0.65934 1.3532 0.81103 2.5004 1.9759 3.6765 3.1008 0.5983 4.5249 1.1606 9.0202 1.6522 13.408m2.6776 21.474c-1.9002-1.0512-3.9533-1.7569-5.5568-0.35601-2.9013 2.5321-3.0807 13.288-7.993 12.45-2.8171-0.47818-5.7251-6.741-9.0782-4.1857-1.0963 0.8342-1.7142 3.1598-2.3831 4.2826-0.51605 0.86157-1.0963 1.6178-1.5791 2.3972-1.3311-2.6163-2.6267-5.3043-3.8536-8.1481-1.0365-2.4057-2.0841-4.8872-3.1428-7.3919 0.29696-0.47609 0.58888-0.94794 0.8461-1.4072 0.65108-1.1628 2.7928-6.3807 4.053-6.8821 1.7098-0.67829 4.5912 2.3783 5.5878 3.1409 2.1416 1.6368 4.2102 3.4274 6.5069 4.8661 0.39614 0.24644 0.98113 0.16219 1.2447-0.22959 2.2413-3.36 3.5768-7.0422 5.1072-10.727 1.3577-3.2673 2.0398-5.7572 6.1903-3.954 0.76189 0.33075 1.4706 0.79838 2.1616 1.3061 0.61337 5.022 1.258 9.9303 1.8892 14.839m2.8216 24.276c0.40746 3.0376 1.5503 7.1433 0.10614 9.8102-1.444 2.669-2.9168 2.3341-5.4726 3.0945-1.4883 0.44236-2.9788 0.52877-4.6931 0.96901-1.7142 0.43817-4.1018 0.92267-5.8846 1.5673-1.1672-2.3951-2.3698-4.6934-3.5812-6.9516 0.63338-0.86578 1.2513-1.74 1.9201-2.5868 0.63345-0.80681 1.1517-1.7295 2.2701-1.938 1.4817-0.27808 1.5237 0.3876 2.5934 1.2829 1.2713 1.068 2.4407 2.0539 4.1194 1.3524 2.0775-0.86579 3.0785-4.0319 4.0663-5.7719 0.629-1.1038 1.2846-2.7806 2.1816-3.6801 0.66886-0.6741 1.2735-0.94584 1.9246-1.0259 0.12806 1.2534 0.26808 2.511 0.44951 3.8782m1.4241 22.142c0.40306 1.9275 0.68877 3.48 1.0476 5.3401-0.36537 0.14535-0.71977 0.33076-1.0874 0.46553-0.54681-1.9717-0.95677-4.2826-1.6877-6.1301-0.72863-1.8495-1.4617-3.2862-2.0132-5.121 0.87923-0.21908 1.7386-0.50351 2.5978-0.78996 0.19022 2.0349 0.73753 4.31 1.1428 6.2354m2.403 15.399c0.36538 4.4469 1.0963 8.8412 1.7718 13.269 0.22601 1.4704 0.26995 2.8881 0.51605 4.4259 0.0998 0.63617 0.38546 1.561 0.48717 2.2624 0.10173 0.69937 0.24798 1.266 0.2461 2.0244 0 0.75837-0.12806 1.561-0.91465 2.115-0.78625 0.55401-2.1395 0.75415-3.1273 0.94585-1.7895-3.1682-2.2058-6.7009-3.3753-10.061-1.4041-4.0404-3.6122-7.6805-5.2401-11.634-1.0963-2.6606-2.135-5.3886-3.2114-8.066 2.8171-0.5456 5.5346-1.3377 8.25-2.2372 0.22162 0.34334 0.56251 0.0376 0.55121-0.1054-0.013-0.14332-0.025-0.0424-6e-3 -0.0484 0.24799-0.10747 0.46269-0.16009 0.73528-0.25068 0.26996-0.0905 0.76411-0.29068 0.99884-0.36866 0.23039-0.0779 0.0314 1e-3 0.26368-0.10111 0.22789-0.10319 0.74199-0.26752 1.0276-0.38969 0.44324 2.7406 0.79957 5.4475 1.0277 8.2197m-7.3463-7.7774c-0.89921 0.32019-1.825 0.56877-2.7264 0.88265-1.1893-3.025-2.6311-5.2622-4.2457-8.3736-0.25048-0.48027-1.1361-2.9449-1.6322-3.6591 1.114-0.30751 2.29-0.45077 3.4328-0.67831 1.5791 4.0046 3.4993 7.8638 5.1715 11.828m2.1771-0.78152c-0.53362 0.198-1.072 0.39392-1.6101 0.58352-1.5924-3.9856-3.4993-7.828-5.3907-11.691 1.0498-0.18749 2.1084-0.33284 3.156-0.52243 1.2115 3.8971 2.4916 7.7753 3.8448 11.63m0.23481-7.3898c0.83936 2.2034 1.1074 4.4132 1.7984 6.6272-0.50287 0.1854-0.99444 0.37918-1.4928 0.56244-1.3288-3.8508-2.609-7.7037-4.1969-11.468 0.76849-0.15597 1.5215-0.33284 2.2856-0.51819 0.15757 1.6958 1.0166 3.2525 1.6057 4.7966m-14.221-2.2815c0.85267-0.19591 1.6699-0.44659 2.5514-0.56876 0.0998 0.62984 1.0852 2.4331 1.2557 2.7701 1.6832 3.3494 3.2624 6.0795 4.6909 9.3299-0.89034 0.30543-1.7452 0.65304-2.5027 1.2028-1.7829-4.35-3.6854-8.6095-5.9953-12.734m-13.694-28.221c0.69768-1.1164 1.5548-2.1508 2.3078-3.2504 1.6234-2.3635 2.0996-3.5306 5.1958-1.9422 2.0664 1.0575 4.146 4.8577 6.6199 4.6681 2.4982-0.1896 3.1737-4.1415 3.8581-5.8014 0.70427-1.7126 1.6123-5.4475 2.8592-6.8273 1.2646-1.4009 3.6743-1.2892 5.0895-0.73098 0.16134 0.0611 0.32582 0.16009 0.48717 0.25277 0.587 4.6007 1.1584 9.2077 1.6678 13.92 0.091 0.82997 0.17075 1.6178 0.2461 2.3867-1.7275-0.0716-2.8416 1.561-4.259 3.8866-1.0077 1.6515-1.8005 3.9266-3.0807 5.378-2.6732 3.0271-4.1947-0.14965-6.5689-1.8264-0.33023-0.23594-0.83052-0.18117-1.1339 0.0653-2.1062 1.7189-3.1804 4.0024-4.2878 6.3154-3.0076-5.5381-6.0861-10.84-9.0007-16.494m18.929-125.38c-0.70207-2.1971-1.3842-4.1984-1.8869-6.5198-0.25049-1.1481-0.14376-2.4267-0.97673-3.5875-0.83052-1.1607-1.8382-1.78-3.5591-1.8833-2.6466-0.158-5.5546 0.6741-8.1769 1.1776-5.2179 1.0048-10.562 1.7632-15.672 2.9365-9.9043 2.2709-19.408 4.8177-29.365 6.9685-5.8026 1.2513-12.245 1.4367-15.253 7.0696-0.25251 0.47394 0.06423 0.771 0.35432 1.0343-0.30561 2.2056-0.15726 3.3536 0.44957 5.7003 1.7762 6.8379 4.115 14.07 7.2245 20.655 0.33443 0.70991 0.91468 1.2471 1.7496 1.2976 0.83496 0.05257 1.5968-0.2001 2.5071-0.11163-0.97006 3.4147 2.9257 10.24 4.0198 12.313 4.1527 7.8764 7.5678 14.015 10.217 21.523 2.6489 7.5056 5.9953 14.065 9.0428 21.186 3.3864 7.908 7.0496 16.547 10.301 24.147 3.2491 7.5983 6.507 14.872 10.434 21.466 3.3133 5.5655 5.5036 9.7386 8.261 15.18 0.20843 0.40659 0.29254 0.93953 0.47399 1.2386 0.18142 0.29702-0.17077 0.6383-0.0684 0.82369 0.10172 0.18958 0.0314 0.17483 0.0566 0.25276 0.2373 0.79205 0.70652 1.1565 1.4817 1.4051 1.7098 3.7602 2.6776 7.3561 4.3807 11.226 1.7032 3.8718 3.351 8.5884 5.0541 12.486 1.701 3.9013 3.8204 7.4993 5.0408 11.403 1.2225 3.9034 1.9688 7.3118 4.0862 10.868 0.41623 0.69726 1.6367 1.0912 2.516 0.77941 3.3155-1.1881 7.406-0.92687 9.0096-4.4006 0.60709-1.3103-0.12625-2.7343-0.39175-4.0572-0.66002-3.3347-1.0963-6.5872-1.3577-9.9956-0.50726-6.6441-1.1029-13.269-2.3764-19.854-0.0973-0.50344-0.31201-1.0006-0.39174-1.5315-0.68211-4.5902-1.475-9.1403-2.733-13.636 1.4971-2.4647 1.1561-5.0473 0.81722-7.7332-1.7186-13.6-8.086-69.522-10.571-82.739-1.0387-5.5402-2.0265-11.268-2.5403-17.031 0.0252-0.10111 0.0188-0.20434-0.0252-0.30967-0.0929-1.0786-0.20341-2.1592-0.25676-3.242-0.29696-5.8836-1.6744-12.045-2.104-17.982 1.4706-0.70781 3.0497-1.3882 3.6034-2.9576 0.55183-1.5693-0.28314-3.3009-0.66868-4.6849-1.041-3.7349-1.5437-7.2529-2.7042-10.878"/>
  <path d="m152.64 44.516c-7.92 1.7569-15.866 3.4126-23.8 5.1252-7.0186 1.5146-14.577 2.5131-21.313 4.9525-0.0776 0.02752-0.0307 0.13268 0.0396 0.12422 7.4792-0.79206 15.043-3.0987 22.391-4.6702 7.6054-1.6263 15.195-3.322 22.759-5.1273 0.26806-0.06526 0.19461-0.46552-0.0772-0.40444"/>
  <path d="m38.809 90.597c-2.9589-6.4819-9.344-11.993-13.8-17.621-2.1749-2.7469-4.8636-8.245-8.9564-8.5989-0.05776-0.0065-0.08419 0.04413-0.05965 0.0906 2.5602 4.2868 4.868 8.6305 7.8158 12.702 3.6433 5.0368 7.6099 11.323 12.879 14.902 1.0431 0.7078 2.6931-0.21908 2.1217-1.4746"/>
  <path d="m46.081 76.407c0.29896-2.4836 0.15946-5.4054 1.0276-7.75 0.03767-0.10319-0.1218-0.1411-0.17716-0.06321-1.495 2.075-1.7275 5.1042-2.2192 7.5014-0.691 3.3557-1.1627 6.7136-1.4772 10.118-0.05337 0.56035 0.86597 0.60669 1.0055 0.09696 0.89919-3.2736 1.4352-6.5451 1.8405-9.9029"/>
  <path d="m29.464 95.522c-6.8325-1.759-13.88-1.6494-20.827-0.58561-0.22814 0.03349-0.22588 0.33493 0.013183 0.34551 6.8347 0.28859 13.594 1.186 20.385 1.9528 1.1561 0.13269 1.6079-1.4072 0.42967-1.7126"/>
  <path d="m128.39 16.72c-1.1074-4.1309-1.4728-10.086-4.9832-13.139-0.0252-0.020897-0.0666 0-0.0564 0.031645 1.4174 4.7755 1.7076 9.5764 2.5824 14.443 0.97008 5.4054 1.5769 13.187 4.6067 17.834 0.43633 0.67199 1.7541 0.63196 1.9114-0.25277 1.0653-5.9931-2.5093-13.13-4.0597-18.917"/>
  <path d="m147.26 13.177c-0.013-0.01911-0.0502-0.01493-0.044 0.01259 0.20403 2.3657-3.0851 5.5634-4.2524 7.533-1.96 3.301-5.0097 6.9769-5.466 10.788-0.11743 0.97322 1.2757 1.0638 1.7452 0.43609 2.8083-3.7602 4.29-8.8117 6.4493-13.016 0.67773-1.3208 2.7175-4.2721 1.5703-5.753"/>
  <path d="m124.67 37.909c-3.1516-4.0172-7.6121-7.6721-11.3-11.291-2.3188-2.2814-5.672-5.7698-9.1314-6.9706-0.57583-0.47818-1.1583-0.95005-1.7209-1.4451-0.89032-0.78785-2.1062 0.41286-1.3133 1.2639 3.1139 3.3368 7.147 5.8225 10.425 9.0371 0.16831 0.16433 0.35213 0.31176 0.52271 0.47185l0.0117 0.01077c3.5015 3.6296 7.4526 6.5893 11.415 9.7365 0.54053 0.52452 1.5768-0.19383 1.0919-0.81313"/>
 </g>
</svg>
