<svg width="49" height="103" viewBox="0 0 49 103" fill="none" xmlns="http://www.w3.org/2000/svg">
<path d="M29.1301 45.1626C36.2125 44.8289 41.4408 43.7145 44.6992 41.8293C48.239 39.783 49.033 35.8861 47.9879 33.0945C46.9626 30.3523 44.4029 28.9508 41.455 29.5214C38.1457 30.1635 36.8015 32.4807 36.6544 34.2697C36.4996 36.1739 37.5015 37.8632 39.1477 38.4741C39.5513 38.606 39.9902 38.5764 40.3725 38.3917C40.7549 38.207 41.0508 37.8815 41.1984 37.4834C41.346 37.0853 41.3337 36.6455 41.1642 36.2563C40.9946 35.867 40.681 35.5585 40.289 35.3954C40.0457 35.3049 39.8916 34.9442 39.9262 34.5348C39.9983 33.6608 40.8037 32.9898 42.0815 32.7416C43.9256 32.3838 44.6476 33.5286 44.9156 34.2435C45.4763 35.7433 45.0181 37.8533 43.0573 38.9882C40.3314 40.5643 35.6277 41.543 29.3139 41.8675C29.3961 41.6241 29.4395 41.3693 29.4426 41.1123L31.0966 9.73448C31.546 9.2711 31.7978 8.65116 31.7987 8.0056L31.7966 7.74892C31.7972 7.42105 31.7329 7.0963 31.6074 6.79338C31.4819 6.49047 31.2977 6.21539 31.0655 5.98398C30.8158 5.73437 30.5139 5.53709 30.1773 5.41123C30.0038 4.15838 29.4252 2.99669 28.5298 2.10338C27.7657 1.34031 26.8039 0.805419 25.7526 0.558802C24.7012 0.312185 23.6019 0.36361 22.5782 0.707301C21.5545 1.05099 20.6469 1.67333 19.9573 2.5044C19.2678 3.33548 18.8237 4.34236 18.6748 5.41193C18.1991 5.59052 17.789 5.90985 17.4994 6.32736C17.2097 6.74488 17.0541 7.24076 17.0534 7.74892L17.0548 8.00631C17.0544 8.65158 17.3053 9.27165 17.7542 9.73518L19.4074 41.1152C19.4074 41.381 19.459 41.6306 19.5368 41.8697C13.223 41.5437 8.51935 40.565 5.79204 38.9903C3.83194 37.8561 3.37515 35.7447 3.93518 34.2456C4.20176 33.5322 4.92442 32.3866 6.76785 32.7437C8.047 32.9919 8.85098 33.663 8.92382 34.5377C8.95634 34.9464 8.8029 35.3077 8.56036 35.3989C8.35835 35.4738 8.17306 35.5878 8.01509 35.7343C7.85711 35.8807 7.72954 36.0569 7.63965 36.2527C7.54976 36.4485 7.49931 36.6601 7.49119 36.8754C7.48308 37.0907 7.51744 37.3055 7.59233 37.5075C7.66722 37.7095 7.78117 37.8948 7.92767 38.0528C8.07417 38.2108 8.25034 38.3383 8.44615 38.4282C8.64195 38.5181 8.85354 38.5686 9.06883 38.5767C9.28413 38.5848 9.49891 38.5504 9.70092 38.4755C11.3485 37.8646 12.3505 36.1739 12.1942 34.2711C12.0478 32.4828 10.7029 30.1663 7.39505 29.5229C4.44642 28.9529 1.8881 30.3544 0.862092 33.0959C-0.182304 35.8868 0.611776 39.7837 4.15014 41.8315C7.40849 43.7152 12.6375 44.8303 19.7192 45.1648C18.9718 50.5183 18.1728 83.9123 24.425 102.851C30.6765 83.913 29.8761 50.519 29.1301 45.1626ZM29.297 8.62785L19.5538 8.62856C19.4707 8.62872 19.3884 8.61229 19.3117 8.58022C19.2351 8.54815 19.1656 8.5011 19.1074 8.44182C19.0491 8.38254 19.0034 8.31223 18.9727 8.23502C18.942 8.1578 18.927 8.07524 18.9287 7.99216L18.9265 7.75246C18.9271 7.62582 18.9659 7.50231 19.038 7.39818C19.1101 7.29405 19.212 7.21418 19.3303 7.16909L20.3782 6.77594L20.5303 5.6679C20.6639 4.72921 21.131 3.87002 21.8462 3.24753C22.5614 2.62504 23.4769 2.28089 24.425 2.27804C24.9413 2.27681 25.4526 2.37798 25.9295 2.5757C26.4064 2.77342 26.8393 3.06376 27.2032 3.42991C27.8156 4.04227 28.2017 4.81584 28.319 5.66861L28.4718 6.77453L29.5176 7.16697C29.6386 7.21367 29.7423 7.2966 29.8144 7.40443C29.8866 7.51226 29.9237 7.63973 29.9206 7.76943L29.9235 8.00419C29.9233 8.08628 29.907 8.16753 29.8754 8.2433C29.8438 8.31907 29.7976 8.38788 29.7394 8.4458C29.6812 8.50371 29.6122 8.5496 29.5363 8.58084C29.4604 8.61207 29.3791 8.62805 29.297 8.62785ZM27.2379 45.2319C27.8396 49.4852 28.5616 79.7347 24.961 94.2346L24.961 45.2645C25.7339 45.2595 26.499 45.251 27.2379 45.2319ZM21.6107 45.2319C22.3489 45.2517 23.1147 45.2595 23.889 45.2645L23.889 94.2346C20.287 79.7333 21.009 49.4809 21.6107 45.2319Z" fill="black"/>
</svg>
