<svg height='100px' width='100px'  fill="#000000" xmlns="http://www.w3.org/2000/svg" xmlns:xlink="http://www.w3.org/1999/xlink" version="1.1" x="0px" y="0px" viewBox="0 0 87.85 100" enable-background="new 0 0 87.85 100" xml:space="preserve"><g><path d="M13.68,26.451c2.274,0,4.124-1.85,4.124-4.124s-1.85-4.124-4.124-4.124s-4.124,1.85-4.124,4.124   S11.406,26.451,13.68,26.451z M13.68,20.83c0.826,0,1.497,0.671,1.497,1.497s-0.671,1.497-1.497,1.497s-1.497-0.671-1.497-1.497   S12.854,20.83,13.68,20.83z"></path><path d="M35.316,4.124C35.316,1.85,33.465,0,31.192,0s-4.124,1.85-4.124,4.124s1.85,4.123,4.124,4.123S35.316,6.398,35.316,4.124z    M29.694,4.124c0-0.826,0.671-1.497,1.497-1.497c0.826,0,1.497,0.671,1.497,1.497c0,0.825-0.671,1.496-1.497,1.496   C30.366,5.62,29.694,4.949,29.694,4.124z"></path><path d="M47.319,19.447c2.274,0,4.125-1.85,4.125-4.124s-1.85-4.124-4.125-4.124c-2.274,0-4.123,1.85-4.123,4.124   S45.045,19.447,47.319,19.447z M47.319,13.825c0.826,0,1.498,0.671,1.498,1.497s-0.672,1.497-1.498,1.497   c-0.824,0-1.496-0.671-1.496-1.497S46.495,13.825,47.319,13.825z"></path><path d="M69.025,8.247c2.273,0,4.123-1.849,4.123-4.123S71.298,0,69.025,0c-2.274,0-4.125,1.85-4.125,4.124   S66.751,8.247,69.025,8.247z M69.025,2.627c0.824,0,1.496,0.671,1.496,1.497c0,0.825-0.672,1.496-1.496,1.496   c-0.826,0-1.498-0.671-1.498-1.496C67.527,3.298,68.2,2.627,69.025,2.627z"></path><path d="M79.532,29.261c2.273,0,4.123-1.849,4.123-4.123s-1.85-4.124-4.123-4.124c-2.274,0-4.125,1.85-4.125,4.124   S77.258,29.261,79.532,29.261z M79.532,23.641c0.824,0,1.496,0.671,1.496,1.497c0,0.825-0.672,1.496-1.496,1.496   c-0.826,0-1.498-0.671-1.498-1.496C78.034,24.312,78.706,23.641,79.532,23.641z"></path><path d="M27.727,49.654c0-0.725-0.588-1.313-1.313-1.313S25.1,48.929,25.1,49.654c0,5.069-4.124,9.194-9.194,9.194   s-9.194-4.125-9.194-9.194c0-0.725-0.588-1.313-1.313-1.313s-1.313,0.588-1.313,1.313c0,6.073,4.606,11.087,10.507,11.743v12.89   c-2.201-3.001-5.746-4.933-9.778-4.933c-0.725,0-1.313,0.588-1.313,1.313s0.588,1.313,1.313,1.313c5.177,0,9.347,4.053,9.495,9.226   l0.004,0.15c-2.882-4.08-7.636-6.75-13.001-6.75C0.588,74.608,0,75.196,0,75.922s0.588,1.313,1.313,1.313   c6.93,0,12.639,5.337,13.229,12.116l0.05,1.754v7.582c0,0.725,0.588,1.313,1.313,1.313s1.313-0.588,1.313-1.313v-7.59v-0.583   v-2.919c0-5.069,4.124-9.194,9.194-9.194c0.725,0,1.313-0.588,1.313-1.313s-0.588-1.313-1.313-1.313   c-3.712,0-7.025,1.723-9.194,4.407V61.397C23.121,60.741,27.727,55.727,27.727,49.654z"></path><path d="M6.408,45.592l2.499-2.994l2.499,2.994c0.25,0.299,0.619,0.472,1.008,0.472c0,0,0,0,0.001,0   c0.389,0,0.758-0.174,1.008-0.473l2.492-2.991l2.492,2.991c0.499,0.599,1.519,0.599,2.018,0l2.491-2.99l2.487,2.989   c0.26,0.313,0.634,0.474,1.011,0.474c0.296,0,0.593-0.099,0.839-0.304c0.557-0.464,0.634-1.292,0.17-1.849l-3.496-4.203   c-0.25-0.3-0.619-0.474-1.01-0.474c-0.39,0-0.759,0.174-1.009,0.473l-2.492,2.991l-2.492-2.991   c-0.25-0.299-0.619-0.473-1.009-0.473c-0.39,0-0.759,0.174-1.009,0.473L12.414,42.7l-2.498-2.994c-0.499-0.599-1.517-0.599-2.016,0   l-3.507,4.203c-0.465,0.557-0.39,1.385,0.167,1.849C5.114,46.224,5.943,46.148,6.408,45.592z"></path><path d="M57.498,39.147c0-0.725-0.588-1.313-1.313-1.313s-1.313,0.588-1.313,1.313c0,5.07-4.125,9.194-9.194,9.194   s-9.194-4.124-9.194-9.194c0-0.725-0.588-1.313-1.313-1.313s-1.313,0.588-1.313,1.313c0,6.074,4.606,11.087,10.507,11.743v30.986   c-2.201-3.002-5.746-4.934-9.778-4.934c-0.725,0-1.313,0.588-1.313,1.313s0.588,1.313,1.313,1.313c5.177,0,9.347,4.053,9.495,9.228   l0.004,0.149c-2.882-4.08-7.636-6.75-13.001-6.75c-0.725,0-1.313,0.588-1.313,1.313s0.588,1.313,1.313,1.313   c6.93,0,12.639,5.336,13.229,12.116l0.051,1.785c0.003,0.094,0.039,0.177,0.06,0.265c0.018,0.074,0.02,0.152,0.05,0.22   c0.041,0.095,0.109,0.172,0.171,0.254c0.039,0.051,0.064,0.112,0.11,0.157c0.079,0.078,0.179,0.13,0.277,0.187   c0.048,0.028,0.086,0.069,0.138,0.091c0.156,0.065,0.327,0.102,0.506,0.102c0.006,0,0.013,0,0.018,0   c0.099-0.001,0.187-0.038,0.28-0.06c0.073-0.017,0.152-0.018,0.22-0.047c0.086-0.037,0.154-0.101,0.229-0.155   c0.061-0.044,0.132-0.074,0.185-0.127c0.073-0.073,0.119-0.167,0.172-0.256c0.033-0.055,0.081-0.1,0.106-0.16   c0.066-0.157,0.103-0.328,0.103-0.509v-0.585v-2.917c0-5.069,4.125-9.194,9.195-9.194c0.725,0,1.313-0.588,1.313-1.313   s-0.588-1.313-1.313-1.313c-3.713,0-7.027,1.724-9.195,4.408V50.89C52.891,50.235,57.498,45.221,57.498,39.147z"></path><path d="M34.328,35.252c0.245,0.205,0.544,0.305,0.841,0.305c0.376,0,0.749-0.161,1.009-0.472l2.499-2.994l2.499,2.994   c0.25,0.299,0.619,0.472,1.008,0.472c0,0,0,0,0.001,0c0.389,0,0.758-0.174,1.008-0.473l2.492-2.991l2.492,2.991   c0.499,0.599,1.519,0.599,2.018,0l2.492-2.99l2.488,2.989c0.465,0.56,1.295,0.631,1.849,0.17c0.557-0.464,0.634-1.292,0.169-1.85   l-3.497-4.202c-0.25-0.3-0.619-0.474-1.009-0.474s-0.759,0.174-1.009,0.473l-2.492,2.991L46.695,29.2   c-0.25-0.299-0.619-0.473-1.009-0.473c-0.39,0-0.759,0.174-1.009,0.473l-2.493,2.993l-2.498-2.994   c-0.499-0.599-1.517-0.599-2.016,0l-3.507,4.203C33.696,33.959,33.771,34.787,34.328,35.252z"></path><path d="M86.537,75.774c-3.711,0-7.025,1.723-9.194,4.408V61.397c5.901-0.656,10.507-5.67,10.507-11.743   c0-0.725-0.588-1.313-1.313-1.313s-1.313,0.588-1.313,1.313c0,5.069-4.125,9.194-9.194,9.194c-5.069,0-9.194-4.125-9.194-9.194   c0-0.725-0.588-1.313-1.313-1.313s-1.313,0.588-1.313,1.313c0,6.073,4.606,11.087,10.507,11.743v12.891   c-2.201-3.001-5.746-4.933-9.777-4.933c-0.725,0-1.313,0.588-1.313,1.313s0.588,1.313,1.313,1.313c5.175,0,9.346,4.053,9.493,9.226   l0.005,0.15c-2.883-4.08-7.636-6.75-13-6.75c-0.725,0-1.313,0.588-1.313,1.313s0.588,1.313,1.313,1.313   c6.929,0,12.638,5.337,13.228,12.116l0.051,1.784v7.552c0,0.725,0.588,1.313,1.313,1.313c0.725,0,1.313-0.588,1.313-1.313v-7.59   v-0.583v-2.919c0-5.069,4.125-9.194,9.194-9.194c0.725,0,1.313-0.588,1.313-1.313S87.262,75.774,86.537,75.774z"></path><path d="M65.523,46.064c0.375,0,0.749-0.161,1.009-0.472l2.498-2.994l2.498,2.994c0.25,0.299,0.619,0.472,1.009,0.472   s0.759-0.174,1.009-0.473l2.492-2.991l2.492,2.991c0.499,0.599,1.519,0.599,2.018,0l2.492-2.99l2.488,2.989   c0.463,0.559,1.295,0.629,1.849,0.17c0.558-0.464,0.634-1.292,0.169-1.85l-3.497-4.202c-0.25-0.3-0.619-0.474-1.009-0.474   c-0.39,0-0.759,0.174-1.009,0.473l-2.492,2.991l-2.492-2.991c-0.499-0.599-1.519-0.599-2.018,0l-2.493,2.992l-2.497-2.993   c-0.499-0.599-1.519-0.599-2.018,0l-3.507,4.203c-0.463,0.557-0.39,1.385,0.168,1.849C64.928,45.964,65.226,46.064,65.523,46.064z"></path></g></svg>