<svg xmlns="http://www.w3.org/2000/svg" xmlns:xlink="http://www.w3.org/1999/xlink" width="500" zoomAndPan="magnify" viewBox="0 0 375 374.999991" height="500" preserveAspectRatio="xMidYMid meet" version="1.0"><defs><g/><clipPath id="078bfab204"><path d="M 20 14 L 352 14 L 352 323 L 20 323 Z M 20 14 " clip-rule="nonzero"/></clipPath><clipPath id="6c9f0c77fc"><path d="M 40.675781 340.683594 L 18.570312 14.429688 L 338.089844 -7.21875 L 360.195312 319.035156 Z M 40.675781 340.683594 " clip-rule="nonzero"/></clipPath><clipPath id="2129f6587e"><path d="M 360.21875 319.03125 L 338.113281 -7.21875 L 18.59375 14.429688 L 40.699219 340.683594 Z M 360.21875 319.03125 " clip-rule="nonzero"/></clipPath><clipPath id="1ad5ba109e"><path d="M 360.21875 319.03125 L 338.113281 -7.21875 L 18.59375 14.429688 L 40.699219 340.683594 Z M 360.21875 319.03125 " clip-rule="nonzero"/></clipPath></defs><g clip-path="url(#078bfab204)"><g clip-path="url(#6c9f0c77fc)"><g clip-path="url(#2129f6587e)"><g clip-path="url(#1ad5ba109e)"><path fill="#000c55" d="M 302.953125 320.515625 C 316.964844 307.15625 328.144531 291.015625 336.015625 273.328125 C 343.871094 255.679688 348.453125 236.515625 349.289062 217.203125 C 350.121094 197.921875 347.625 177.589844 339.710938 159.851562 C 335.675781 150.804688 329.890625 142.40625 321.953125 136.367188 C 314.082031 130.378906 304.402344 127.191406 294.609375 126.410156 C 273.53125 124.730469 253.796875 134.230469 237.992188 147.515625 C 229.90625 154.316406 222.371094 162.097656 216.070312 170.589844 C 209.972656 178.8125 205.0625 188.332031 204.113281 198.667969 C 203.253906 208.0625 205.683594 218.300781 212.390625 225.207031 C 218.8125 231.820312 228.1875 234.222656 237.171875 233.320312 C 257.589844 231.265625 270.726562 213.652344 277.996094 195.976562 C 285.960938 176.613281 289 155.261719 287.523438 134.414062 C 286.039062 113.46875 279.957031 92.789062 269.460938 74.578125 C 264.492188 65.957031 258.496094 56.609375 249.109375 52.347656 C 240.402344 48.394531 230.382812 49.957031 222.03125 54.046875 C 202.707031 63.507812 194.785156 84.65625 186.054688 102.882812 C 178.128906 119.4375 166.820312 137.832031 147.816406 142.746094 C 131.164062 147.050781 113.113281 138.371094 103.824219 124.367188 C 93.890625 109.386719 95.941406 89.808594 105.636719 75.257812 C 110.519531 67.9375 117.277344 61.78125 125.257812 58.011719 C 132.554688 54.570312 141.863281 53.125 149.40625 56.625 C 158.070312 60.648438 160.648438 70.328125 159.097656 79.144531 C 157.507812 88.214844 152.273438 96.722656 145.582031 102.933594 C 138.898438 109.132812 130.410156 113.371094 121.292969 114.292969 C 112.257812 115.207031 102.871094 112.957031 95.292969 107.933594 C 76.820312 95.691406 76.972656 72 73.59375 52.453125 C 71.785156 41.988281 68.433594 31.445312 60.53125 23.953125 C 53.773438 17.546875 44.074219 14.261719 35.277344 18.464844 C 27.347656 22.253906 21.808594 30.914062 22.621094 39.789062 C 22.742188 41.128906 20.660156 41.269531 20.539062 39.929688 C 19.738281 31.210938 24.53125 22.695312 31.792969 18.03125 C 39.519531 13.070312 49.007812 13.554688 56.691406 18.347656 C 75.894531 30.328125 75.339844 54.898438 78.929688 74.617188 C 80.804688 84.925781 84.25 95.59375 92.183594 102.875 C 99.257812 109.367188 109 112.695312 118.550781 112.378906 C 128.199219 112.0625 137.386719 107.839844 144.355469 101.226562 C 151.335938 94.605469 156.878906 85.253906 157.445312 75.472656 C 157.734375 70.507812 156.554688 65.28125 152.972656 61.648438 C 149.976562 58.609375 145.863281 57.121094 141.664062 56.800781 C 132.609375 56.105469 123.808594 60.136719 116.941406 65.773438 C 102.871094 77.316406 95.136719 97.769531 101.570312 115.359375 C 107.632812 131.921875 125.847656 143.839844 143.515625 141.472656 C 163.804688 138.753906 175.996094 119.019531 184.070312 102.195312 C 192.757812 84.09375 200.558594 63.382812 219.15625 53.199219 C 227.117188 48.839844 236.640625 46.527344 245.597656 48.898438 C 255.308594 51.46875 262.125 59.160156 267.433594 67.28125 C 278.835938 84.722656 285.980469 104.863281 288.710938 125.492188 C 291.46875 146.3125 289.714844 167.8125 283.195312 187.796875 C 277.332031 205.785156 267.0625 225.234375 248.53125 232.652344 C 240.367188 235.921875 230.917969 236.6875 222.511719 233.882812 C 213.871094 231 207.34375 224.324219 204.199219 215.808594 C 196.890625 196 207.773438 176.261719 220.648438 161.660156 C 234.367188 146.105469 251.511719 131.996094 271.882812 126.527344 C 290.636719 121.492188 312.082031 124.210938 326.777344 137.679688 C 341.292969 150.984375 347.449219 171.273438 350.101562 190.222656 C 352.800781 209.472656 351.578125 229.246094 346.882812 248.09375 C 342.203125 266.890625 334.074219 284.8125 322.882812 300.628906 C 317.464844 308.289062 311.3125 315.414062 304.523438 321.890625 C 303.558594 322.8125 301.976562 321.445312 302.953125 320.515625 Z M 302.953125 320.515625 " fill-opacity="1" fill-rule="nonzero"/></g></g></g></g><g fill="#000c55" fill-opacity="1"><g transform="translate(120.538269, 337.971599)"><g><path d="M 18.226562 21.128906 L 18.789062 21.128906 C 23.871094 20.078125 27.980469 9.757812 29.515625 4.675781 C 30.078125 3.0625 30.804688 1.933594 32.015625 0.726562 C 36.851562 -4.191406 41.691406 -9.03125 46.851562 -13.546875 C 47.496094 -14.113281 48.0625 -14.597656 48.625 -15.160156 L 49.351562 -15.886719 C 49.753906 -16.449219 49.753906 -16.933594 49.351562 -17.335938 C 49.109375 -17.5 48.867188 -17.578125 48.625 -17.578125 C 48.382812 -17.578125 48.140625 -17.5 47.898438 -17.335938 C 47.738281 -17.257812 47.578125 -17.09375 47.496094 -17.015625 C 47.335938 -16.855469 47.175781 -16.691406 47.09375 -16.613281 C 42.253906 -12.339844 37.660156 -7.984375 33.144531 -3.386719 C 32.902344 -3.144531 32.660156 -2.824219 32.257812 -2.824219 L 32.015625 -2.824219 C 31.773438 -3.226562 31.851562 -3.710938 32.09375 -4.113281 C 34.109375 -12.417969 35.644531 -20.484375 37.253906 -28.867188 C 37.335938 -29.433594 37.417969 -29.757812 37.417969 -30.160156 C 37.417969 -30.644531 37.253906 -30.964844 37.015625 -31.046875 C 36.691406 -31.128906 36.449219 -31.207031 36.367188 -31.207031 C 36.207031 -31.207031 35.964844 -31.128906 35.722656 -30.964844 C 35.160156 -30.402344 34.675781 -29.835938 34.191406 -29.191406 C 32.09375 -26.773438 30 -24.351562 27.980469 -21.851562 C 25.886719 -19.355469 23.789062 -16.933594 21.691406 -14.515625 C 20.484375 -12.984375 16.371094 -8.789062 13.789062 -6.371094 C 11.046875 -3.789062 6.933594 -0.644531 4.675781 -0.644531 C 3.386719 -0.644531 2.582031 -1.695312 2.257812 -3.789062 C 2.097656 -4.355469 2.097656 -5.082031 2.175781 -5.886719 C 2.257812 -6.773438 2.339844 -7.582031 2.582031 -8.46875 C 5.160156 -19.355469 11.53125 -32.902344 20.402344 -39.835938 C 22.257812 -41.367188 24.835938 -42.820312 27.335938 -42.820312 C 28.949219 -42.820312 29.835938 -41.773438 30 -39.59375 C 30 -37.09375 29.433594 -34.996094 28.546875 -32.660156 C 27.335938 -29.835938 26.128906 -27.257812 24.59375 -24.675781 C 24.515625 -24.433594 24.351562 -24.191406 24.191406 -23.949219 C 24.03125 -23.707031 23.871094 -23.546875 23.789062 -23.304688 C 23.707031 -22.980469 23.789062 -22.742188 24.03125 -22.578125 C 24.113281 -22.5 24.351562 -22.5 24.59375 -22.5 L 24.757812 -22.5 C 27.09375 -23.546875 31.207031 -33.625 31.851562 -37.015625 C 32.015625 -37.738281 32.09375 -38.546875 32.09375 -39.351562 C 32.09375 -40.160156 31.933594 -40.964844 31.691406 -41.691406 C 31.046875 -43.867188 29.59375 -44.917969 27.417969 -44.917969 C 21.933594 -44.917969 16.53125 -39.753906 13.144531 -35.480469 C 6.773438 -27.660156 2.902344 -18.707031 0.566406 -8.949219 C 0.242188 -7.417969 -0.0820312 -6.046875 0 -4.515625 C 0.242188 -1.613281 1.53125 1.53125 4.515625 1.53125 C 4.597656 1.53125 4.757812 1.53125 4.839844 1.53125 C 4.917969 1.453125 5.082031 1.453125 5.160156 1.453125 C 10.5625 0.804688 20.804688 -10 24.273438 -14.191406 L 32.496094 -23.871094 C 32.738281 -24.113281 32.902344 -24.433594 33.144531 -24.757812 C 33.304688 -25 33.625 -25.160156 34.109375 -25.160156 C 34.351562 -24.59375 34.191406 -23.949219 34.109375 -23.386719 C 32.578125 -15.644531 30.964844 -8.144531 28.949219 -0.484375 C 28.628906 0.726562 27.980469 1.855469 27.09375 2.902344 C 24.191406 5.96875 16.53125 14.433594 16.128906 18.546875 C 15.964844 20.242188 16.691406 21.128906 18.226562 21.128906 Z M 19.03125 18.789062 C 18.871094 18.871094 18.707031 18.871094 18.546875 18.707031 C 18.464844 18.628906 18.386719 18.464844 18.386719 18.304688 C 18.464844 17.09375 19.113281 16.128906 19.757812 15.242188 C 20.402344 14.355469 21.046875 13.46875 21.773438 12.578125 C 22.5 11.691406 23.144531 10.726562 23.871094 9.839844 C 24.113281 9.433594 24.433594 9.03125 24.757812 8.789062 C 25.078125 8.46875 25.320312 8.0625 25.480469 7.660156 C 25.886719 8.0625 25.886719 8.46875 25.644531 9.03125 C 24.59375 11.855469 23.304688 14.515625 21.449219 16.855469 C 20.722656 17.742188 20 18.386719 19.03125 18.789062 Z M 19.03125 18.789062 "/></g></g></g><g fill="#000c55" fill-opacity="1"><g transform="translate(166.097985, 337.971599)"><g><path d="M 3.789062 -3.386719 C 9.355469 -3.386719 17.820312 -11.613281 21.691406 -15.726562 C 22.015625 -16.046875 22.257812 -16.289062 22.335938 -16.53125 C 22.578125 -16.933594 22.5 -17.335938 22.09375 -17.742188 C 21.933594 -17.902344 21.773438 -17.984375 21.53125 -17.984375 C 21.371094 -17.984375 21.128906 -17.902344 20.886719 -17.742188 C 20.644531 -17.5 20.402344 -17.257812 20.160156 -17.015625 C 19.917969 -16.773438 19.59375 -16.53125 19.355469 -16.289062 C 18.386719 -15.402344 17.417969 -14.515625 16.53125 -13.628906 C 15.5625 -12.742188 14.597656 -11.773438 13.628906 -10.886719 C 11.289062 -8.710938 7.582031 -6.128906 4.355469 -5.484375 C 2.824219 -5.484375 1.933594 -5.484375 1.613281 -7.339844 C 1.210938 -8.386719 1.128906 -9.273438 1.371094 -10.160156 C 1.453125 -10.5625 1.695312 -10.804688 2.015625 -10.886719 C 5.886719 -11.289062 10.96875 -16.046875 11.613281 -20 C 11.855469 -21.851562 10.804688 -22.980469 9.191406 -22.980469 C 9.113281 -22.980469 8.949219 -22.980469 8.871094 -22.980469 C 8.789062 -22.902344 8.628906 -22.902344 8.546875 -22.902344 C 4.273438 -22.257812 1.128906 -16.613281 -0.242188 -12.820312 C -0.566406 -11.613281 -0.886719 -10.484375 -0.804688 -9.113281 C -0.886719 -8.226562 -0.644531 -7.257812 -0.324219 -6.371094 C 0.242188 -4.355469 1.613281 -3.386719 3.789062 -3.386719 Z M 3.0625 -13.304688 C 2.984375 -13.226562 2.824219 -13.304688 2.582031 -13.386719 C 2.5 -13.386719 2.417969 -13.546875 2.417969 -13.789062 C 3.304688 -16.289062 6.046875 -20.320312 8.710938 -20.722656 C 9.113281 -20.804688 9.355469 -20.644531 9.433594 -20.078125 C 9.433594 -17.5 5.160156 -14.433594 3.0625 -13.304688 Z M 3.0625 -13.304688 "/></g></g></g><g fill="#000c55" fill-opacity="1"><g transform="translate(184.483146, 337.971599)"><g><path d="M -0.242188 1.371094 C 0.242188 1.371094 0.644531 1.128906 0.886719 0.726562 C 1.453125 -0.160156 1.933594 -0.886719 2.339844 -1.773438 C 3.0625 -3.144531 3.710938 -4.433594 4.355469 -5.726562 C 4.917969 -7.015625 5.5625 -8.304688 6.210938 -9.597656 C 7.175781 -11.449219 8.304688 -13.226562 9.839844 -14.757812 C 10.160156 -15.160156 10.484375 -15.5625 11.207031 -15.5625 C 11.449219 -15.242188 11.613281 -14.917969 11.773438 -14.597656 C 11.933594 -14.273438 12.175781 -13.949219 12.417969 -13.628906 C 13.304688 -12.417969 14.355469 -11.855469 15.726562 -11.855469 C 17.984375 -11.855469 21.371094 -14.515625 22.902344 -16.046875 C 23.144531 -16.289062 23.386719 -16.613281 23.628906 -17.09375 C 23.789062 -17.417969 23.707031 -17.742188 23.386719 -18.0625 C 23.144531 -18.226562 22.980469 -18.304688 22.742188 -18.304688 C 22.578125 -18.304688 22.5 -18.304688 22.417969 -18.226562 C 22.015625 -17.984375 21.691406 -17.742188 21.371094 -17.417969 C 20 -16.289062 17.175781 -13.949219 15.726562 -13.949219 C 15 -13.949219 14.355469 -14.433594 13.789062 -15.402344 C 13.628906 -15.644531 13.46875 -15.964844 13.386719 -16.371094 C 13.226562 -16.691406 13.0625 -17.015625 12.902344 -17.257812 C 12.5 -17.902344 12.015625 -18.226562 11.371094 -18.226562 C 11.046875 -18.226562 10.726562 -18.144531 10.402344 -17.984375 C 7.902344 -16.449219 5.96875 -13.707031 4.675781 -11.207031 L 1.53125 -4.839844 L 1.453125 -4.917969 L 1.53125 -4.917969 C 1.128906 -5.804688 1.371094 -6.613281 1.613281 -7.5 C 2.257812 -9.917969 3.144531 -12.417969 4.191406 -14.917969 C 4.917969 -16.53125 5.644531 -18.144531 6.289062 -19.757812 C 6.53125 -20.402344 6.691406 -20.964844 6.691406 -21.53125 C 6.773438 -21.933594 6.613281 -22.175781 6.128906 -22.335938 L 5.886719 -22.335938 C 5.5625 -22.335938 5.320312 -22.257812 5.160156 -22.09375 C 4.917969 -21.773438 4.757812 -21.371094 4.515625 -20.964844 C 1.695312 -14.515625 -0.566406 -9.191406 -1.613281 -2.015625 C -1.695312 -1.613281 -1.695312 -1.289062 -1.695312 -0.96875 C -1.613281 -0.566406 -1.613281 -0.242188 -1.613281 0.0820312 C -1.53125 0.726562 -1.210938 1.128906 -0.644531 1.289062 C -0.566406 1.289062 -0.484375 1.289062 -0.484375 1.371094 C -0.402344 1.371094 -0.324219 1.371094 -0.242188 1.371094 Z M -0.242188 1.371094 "/></g></g></g><g fill="#000c55" fill-opacity="1"><g transform="translate(204.158491, 337.971599)"><g><path d="M 13.226562 11.855469 C 13.386719 11.855469 13.546875 11.855469 13.628906 11.773438 C 14.191406 11.613281 14.433594 11.128906 14.273438 10.242188 C 14.273438 10.160156 14.191406 10 14.113281 9.757812 C 13.546875 7.582031 13.304688 5.5625 13.226562 3.546875 C 12.984375 -0.886719 13.386719 -5.082031 14.03125 -9.355469 C 15.078125 -16.613281 18.628906 -30.886719 22.660156 -37.175781 C 24.191406 -39.511719 25.402344 -42.09375 26.371094 -44.753906 C 26.691406 -45.480469 27.015625 -46.125 27.015625 -47.011719 C 26.773438 -47.898438 26.691406 -48.304688 25.804688 -48.304688 C 25.480469 -48.304688 25.242188 -48.222656 25 -47.980469 C 24.113281 -47.417969 23.707031 -46.527344 23.304688 -45.640625 C 21.773438 -43.140625 20.5625 -40.402344 19.675781 -37.496094 C 18.464844 -34.03125 16.773438 -31.046875 14.835938 -28.144531 L 11.691406 -23.546875 C 11.449219 -23.144531 11.207031 -22.660156 10.644531 -22.417969 C 10.078125 -23.628906 9.355469 -24.273438 8.628906 -24.273438 C 7.175781 -24.273438 5.082031 -22.09375 4.191406 -20.964844 C 2.660156 -18.546875 -0.804688 -12.339844 -0.804688 -9.433594 C -0.726562 -8.386719 0.0820312 -8.0625 1.046875 -8.0625 C 1.695312 -8.304688 2.097656 -8.628906 2.660156 -9.03125 C 6.53125 -12.902344 9.839844 -17.175781 12.984375 -21.691406 C 13.226562 -22.09375 13.546875 -22.5 13.789062 -22.902344 C 14.03125 -23.304688 14.355469 -23.546875 14.835938 -23.789062 L 14.835938 -23.871094 C 15.078125 -23.222656 14.917969 -22.660156 14.675781 -22.09375 C 14.113281 -19.917969 13.628906 -17.820312 13.0625 -15.644531 C 11.691406 -9.273438 10.886719 -2.984375 11.128906 3.46875 C 11.128906 5 11.613281 11.855469 13.226562 11.855469 Z M 2.417969 -11.53125 C 2.175781 -12.097656 2.097656 -12.578125 2.339844 -13.0625 C 3.226562 -15.320312 4.191406 -17.417969 5.5625 -19.59375 C 5.644531 -19.835938 5.804688 -19.917969 5.886719 -20 C 6.933594 -21.371094 8.0625 -22.417969 9.675781 -22.417969 C 10.078125 -22.417969 10.402344 -22.417969 10.644531 -22.335938 C 10.5625 -21.933594 10.402344 -21.53125 10.160156 -21.207031 C 9.917969 -20.886719 9.597656 -20.5625 9.355469 -20.160156 C 7.175781 -17.175781 4.917969 -14.433594 2.417969 -11.53125 Z M 2.417969 -11.53125 "/></g></g></g><g fill="#000c55" fill-opacity="1"><g transform="translate(227.139942, 337.971599)"><g><path d="M 0.484375 -0.804688 C 0.886719 -0.804688 1.210938 -0.96875 1.53125 -1.289062 C 2.417969 -2.015625 2.742188 -2.902344 3.304688 -3.871094 C 4.597656 -6.128906 5.886719 -8.46875 7.175781 -10.804688 C 8.226562 -12.660156 9.355469 -14.433594 10.726562 -16.046875 C 10.96875 -16.289062 11.128906 -16.613281 11.371094 -17.015625 C 11.613281 -17.335938 11.855469 -17.417969 12.175781 -17.335938 C 12.578125 -17.257812 12.820312 -16.933594 12.742188 -16.53125 C 12.660156 -16.128906 12.578125 -15.726562 12.578125 -15.402344 C 12.578125 -14.191406 12.5 -12.984375 12.417969 -11.773438 C 12.417969 -10.484375 12.417969 -9.355469 12.984375 -8.144531 C 13.386719 -7.582031 13.789062 -7.339844 14.355469 -7.339844 C 14.433594 -7.339844 14.675781 -7.417969 15 -7.5 C 15.5625 -7.742188 16.128906 -8.144531 16.53125 -8.546875 C 16.933594 -8.949219 17.417969 -9.433594 17.820312 -9.839844 C 18.386719 -10.402344 19.03125 -11.046875 19.59375 -11.613281 C 20.160156 -12.175781 20.804688 -12.742188 21.53125 -13.144531 C 21.933594 -12.902344 22.257812 -12.5 22.417969 -12.097656 C 22.5 -11.691406 22.742188 -11.289062 22.980469 -10.886719 C 23.871094 -9.515625 25 -8.871094 26.371094 -8.871094 C 27.015625 -8.871094 27.660156 -8.949219 28.222656 -9.191406 C 29.351562 -9.757812 30.320312 -10.320312 31.128906 -10.96875 L 35.964844 -15.078125 C 36.367188 -15.402344 36.773438 -15.804688 37.09375 -16.207031 C 37.660156 -16.773438 37.660156 -17.257812 37.175781 -17.742188 C 37.015625 -17.984375 36.773438 -18.144531 36.449219 -18.144531 C 36.207031 -18.144531 35.964844 -17.984375 35.5625 -17.742188 C 35.480469 -17.5 35.320312 -17.417969 35.238281 -17.335938 C 33.546875 -15.804688 31.691406 -14.191406 29.835938 -12.660156 C 29.109375 -12.097656 27.417969 -10.96875 26.371094 -10.96875 C 25.886719 -10.96875 25.402344 -11.207031 25 -11.691406 C 24.675781 -12.097656 24.433594 -12.5 24.191406 -13.0625 C 24.113281 -13.304688 24.03125 -13.546875 23.949219 -13.789062 C 23.871094 -14.03125 23.707031 -14.273438 23.546875 -14.515625 C 23.222656 -15.242188 22.660156 -15.5625 21.933594 -15.5625 C 21.851562 -15.5625 21.53125 -15.484375 21.128906 -15.402344 C 20.644531 -15.160156 20.160156 -14.835938 19.59375 -14.433594 C 19.191406 -14.03125 18.707031 -13.546875 18.304688 -13.144531 C 17.820312 -12.742188 17.335938 -12.257812 16.933594 -11.855469 L 15.402344 -10.402344 C 15.320312 -10.402344 15.320312 -10.402344 15.242188 -10.320312 C 14.835938 -10.320312 14.597656 -10.484375 14.597656 -10.804688 C 14.597656 -11.046875 14.597656 -11.371094 14.597656 -11.691406 C 14.515625 -12.015625 14.515625 -12.339844 14.515625 -12.660156 C 14.597656 -13.304688 14.597656 -13.949219 14.675781 -14.597656 C 14.757812 -15.242188 14.757812 -15.886719 14.757812 -16.613281 C 14.835938 -17.578125 14.835938 -18.546875 14.433594 -19.433594 C 14.191406 -20.160156 13.707031 -20.5625 12.984375 -20.5625 C 12.742188 -20.5625 12.417969 -20.484375 12.097656 -20.320312 C 9.917969 -18.789062 8.144531 -16.371094 6.773438 -14.191406 C 6.046875 -13.0625 5.402344 -11.933594 4.757812 -10.804688 C 4.113281 -9.597656 3.46875 -8.46875 2.824219 -7.339844 C 2.742188 -7.257812 2.660156 -7.097656 2.582031 -6.933594 C 2.5 -6.773438 2.417969 -6.691406 2.175781 -6.691406 C 2.015625 -6.691406 1.855469 -6.691406 1.773438 -6.773438 C 1.855469 -6.933594 1.855469 -7.097656 1.855469 -7.257812 C 1.773438 -7.417969 1.773438 -7.582031 1.855469 -7.820312 C 3.226562 -14.273438 5.082031 -20.722656 7.902344 -26.609375 C 8.0625 -27.015625 8.226562 -27.335938 8.46875 -27.738281 C 8.628906 -28.0625 8.628906 -28.464844 8.546875 -28.867188 C 8.46875 -29.109375 8.0625 -29.515625 7.820312 -29.515625 C 7.742188 -29.515625 7.582031 -29.433594 7.339844 -29.351562 C 5.5625 -28.464844 2.015625 -16.855469 1.371094 -14.757812 C 0.160156 -10.644531 -0.804688 -6.371094 -0.804688 -2.097656 C -0.804688 -1.453125 -0.484375 -1.046875 0.0820312 -0.886719 C 0.160156 -0.804688 0.324219 -0.804688 0.484375 -0.804688 Z M 0.484375 -0.804688 "/></g></g></g><g fill="#000c55" fill-opacity="1"><g transform="translate(260.604158, 337.971599)"><g><path d="M 0.402344 -6.933594 C 1.453125 -6.933594 2.824219 -8.0625 3.546875 -8.710938 C 5.5625 -10.5625 7.339844 -12.5 9.191406 -14.675781 C 9.433594 -14.917969 9.757812 -15.242188 10 -15.5625 C 10.242188 -15.886719 10.644531 -16.128906 11.207031 -16.371094 C 10.644531 -14.191406 10.160156 -12.097656 10.160156 -9.917969 C 10.160156 -8.386719 10.804688 -7.582031 12.175781 -7.582031 C 12.5 -7.582031 12.742188 -7.582031 12.902344 -7.660156 C 16.289062 -8.226562 22.015625 -13.628906 24.351562 -15.964844 C 24.433594 -16.046875 24.59375 -16.207031 24.675781 -16.289062 C 24.757812 -16.371094 24.757812 -16.449219 24.835938 -16.53125 C 25 -17.09375 24.917969 -17.5 24.515625 -17.742188 C 24.351562 -17.902344 24.191406 -17.984375 23.949219 -17.984375 C 23.871094 -17.984375 23.789062 -17.902344 23.546875 -17.820312 C 23.304688 -17.660156 23.0625 -17.5 22.902344 -17.335938 C 22.660156 -17.09375 22.417969 -16.933594 22.175781 -16.691406 C 21.449219 -16.128906 20.804688 -15.5625 20.242188 -15 C 19.59375 -14.433594 18.949219 -13.789062 18.226562 -13.226562 C 17.257812 -12.339844 16.207031 -11.691406 15.242188 -11.046875 C 14.515625 -10.644531 13.789062 -10.320312 13.0625 -10 C 12.984375 -9.917969 12.902344 -9.917969 12.742188 -9.917969 C 12.417969 -9.917969 12.257812 -10.160156 12.257812 -10.644531 C 12.257812 -14.113281 14.757812 -20 16.289062 -23.0625 C 16.449219 -23.464844 16.613281 -23.789062 16.855469 -24.191406 C 17.015625 -24.515625 17.175781 -24.835938 17.335938 -25.242188 C 17.578125 -25.964844 17.5 -26.53125 16.933594 -26.851562 C 16.691406 -26.933594 16.53125 -27.015625 16.449219 -27.015625 C 16.207031 -27.015625 15.886719 -26.851562 15.484375 -26.449219 C 15.242188 -26.207031 15.078125 -25.886719 14.917969 -25.644531 C 14.675781 -25.320312 14.515625 -25 14.273438 -24.757812 C 13.789062 -24.113281 13.304688 -23.464844 12.902344 -22.820312 C 12.417969 -22.175781 11.933594 -21.53125 11.449219 -20.964844 C 11.128906 -20.5625 10.886719 -20.320312 10.726562 -20.320312 C 10.644531 -20.320312 10.402344 -20.484375 10 -20.722656 C 9.191406 -21.371094 8.386719 -21.691406 7.582031 -21.691406 C 6.691406 -21.691406 5.804688 -21.371094 4.917969 -20.644531 C 4.355469 -20.242188 3.953125 -19.917969 3.710938 -19.59375 C 1.289062 -17.175781 -1.371094 -12.417969 -1.371094 -8.871094 C -1.289062 -7.582031 -0.644531 -6.933594 0.402344 -6.933594 Z M 1.128906 -9.839844 C 1.128906 -9.917969 1.128906 -9.917969 1.046875 -9.917969 L 0.96875 -10 C 1.613281 -13.46875 3.226562 -16.371094 5.726562 -18.546875 C 6.128906 -18.949219 7.097656 -19.515625 7.660156 -19.515625 C 8.0625 -19.515625 8.386719 -19.355469 8.789062 -19.113281 C 9.191406 -18.871094 9.273438 -18.464844 9.113281 -17.984375 C 9.03125 -17.742188 8.871094 -17.660156 8.789062 -17.578125 C 6.613281 -14.917969 4.433594 -12.257812 1.855469 -10.078125 C 1.695312 -9.917969 1.453125 -9.839844 1.128906 -9.839844 Z M 1.128906 -9.839844 "/></g></g></g><g fill="#000c55" fill-opacity="1"><g transform="translate(281.489052, 337.971599)"><g><path d="M -0.242188 1.371094 C 0.242188 1.371094 0.644531 1.128906 0.886719 0.726562 C 1.453125 -0.160156 1.933594 -0.886719 2.339844 -1.773438 C 3.0625 -3.144531 3.710938 -4.433594 4.355469 -5.726562 C 4.917969 -7.015625 5.5625 -8.304688 6.210938 -9.597656 C 7.175781 -11.449219 8.304688 -13.226562 9.839844 -14.757812 C 10.160156 -15.160156 10.484375 -15.5625 11.207031 -15.5625 C 11.449219 -15.242188 11.613281 -14.917969 11.773438 -14.597656 C 11.933594 -14.273438 12.175781 -13.949219 12.417969 -13.628906 C 13.304688 -12.417969 14.355469 -11.855469 15.726562 -11.855469 C 17.984375 -11.855469 21.371094 -14.515625 22.902344 -16.046875 C 23.144531 -16.289062 23.386719 -16.613281 23.628906 -17.09375 C 23.789062 -17.417969 23.707031 -17.742188 23.386719 -18.0625 C 23.144531 -18.226562 22.980469 -18.304688 22.742188 -18.304688 C 22.578125 -18.304688 22.5 -18.304688 22.417969 -18.226562 C 22.015625 -17.984375 21.691406 -17.742188 21.371094 -17.417969 C 20 -16.289062 17.175781 -13.949219 15.726562 -13.949219 C 15 -13.949219 14.355469 -14.433594 13.789062 -15.402344 C 13.628906 -15.644531 13.46875 -15.964844 13.386719 -16.371094 C 13.226562 -16.691406 13.0625 -17.015625 12.902344 -17.257812 C 12.5 -17.902344 12.015625 -18.226562 11.371094 -18.226562 C 11.046875 -18.226562 10.726562 -18.144531 10.402344 -17.984375 C 7.902344 -16.449219 5.96875 -13.707031 4.675781 -11.207031 L 1.53125 -4.839844 L 1.453125 -4.917969 L 1.53125 -4.917969 C 1.128906 -5.804688 1.371094 -6.613281 1.613281 -7.5 C 2.257812 -9.917969 3.144531 -12.417969 4.191406 -14.917969 C 4.917969 -16.53125 5.644531 -18.144531 6.289062 -19.757812 C 6.53125 -20.402344 6.691406 -20.964844 6.691406 -21.53125 C 6.773438 -21.933594 6.613281 -22.175781 6.128906 -22.335938 L 5.886719 -22.335938 C 5.5625 -22.335938 5.320312 -22.257812 5.160156 -22.09375 C 4.917969 -21.773438 4.757812 -21.371094 4.515625 -20.964844 C 1.695312 -14.515625 -0.566406 -9.191406 -1.613281 -2.015625 C -1.695312 -1.613281 -1.695312 -1.289062 -1.695312 -0.96875 C -1.613281 -0.566406 -1.613281 -0.242188 -1.613281 0.0820312 C -1.53125 0.726562 -1.210938 1.128906 -0.644531 1.289062 C -0.566406 1.289062 -0.484375 1.289062 -0.484375 1.371094 C -0.402344 1.371094 -0.324219 1.371094 -0.242188 1.371094 Z M -0.242188 1.371094 "/></g></g></g><g fill="#000c55" fill-opacity="1"><g transform="translate(30.21848, 287.035352)"><g><path d="M 19.734375 0.890625 C 17.171875 0.890625 14.707031 0.535156 12.34375 -0.171875 C 9.976562 -0.890625 7.859375 -1.890625 5.984375 -3.171875 L 5.984375 -12.125 C 7.265625 -8.820312 9.222656 -6.316406 11.859375 -4.609375 C 14.492188 -2.910156 17.242188 -2.0625 20.109375 -2.0625 C 22.960938 -2.0625 25.347656 -3.007812 27.265625 -4.90625 C 29.191406 -6.8125 30.15625 -9.164062 30.15625 -11.96875 C 30.15625 -13.84375 29.773438 -15.445312 29.015625 -16.78125 C 28.253906 -18.113281 27.035156 -19.359375 25.359375 -20.515625 C 23.679688 -21.671875 21.316406 -22.960938 18.265625 -24.390625 C 13.972656 -26.359375 10.851562 -28.414062 8.90625 -30.5625 C 6.957031 -32.707031 5.984375 -35.304688 5.984375 -38.359375 C 5.984375 -40.972656 6.609375 -43.300781 7.859375 -45.34375 C 9.117188 -47.394531 10.820312 -48.972656 12.96875 -50.078125 C 15.113281 -51.191406 17.46875 -51.75 20.03125 -51.75 C 22.25 -51.75 24.414062 -51.4375 26.53125 -50.8125 C 28.65625 -50.195312 30.628906 -49.328125 32.453125 -48.203125 L 32.453125 -40.21875 C 31.265625 -42.925781 29.472656 -45.03125 27.078125 -46.53125 C 24.691406 -48.03125 22.269531 -48.78125 19.8125 -48.78125 C 17 -48.78125 14.726562 -47.867188 13 -46.046875 C 11.28125 -44.222656 10.421875 -42.054688 10.421875 -39.546875 C 10.421875 -37.722656 10.9375 -36.15625 11.96875 -34.84375 C 13.007812 -33.539062 14.28125 -32.445312 15.78125 -31.5625 C 17.28125 -30.675781 19.390625 -29.59375 22.109375 -28.3125 C 24.867188 -26.976562 27.132812 -25.742188 28.90625 -24.609375 C 30.675781 -23.484375 32.148438 -22.007812 33.328125 -20.1875 C 34.515625 -18.363281 35.109375 -16.144531 35.109375 -13.53125 C 35.109375 -10.570312 34.40625 -8.007812 33 -5.84375 C 31.601562 -3.675781 29.734375 -2.007812 27.390625 -0.84375 C 25.046875 0.3125 22.492188 0.890625 19.734375 0.890625 Z M 19.734375 0.890625 "/></g></g></g><g fill="#000c55" fill-opacity="1"><g transform="translate(69.243082, 287.035352)"><g><path d="M 4.734375 -24.84375 C 4.734375 -30.0625 5.851562 -34.710938 8.09375 -38.796875 C 10.332031 -42.890625 13.484375 -46.070312 17.546875 -48.34375 C 21.617188 -50.613281 26.316406 -51.75 31.640625 -51.75 C 36.078125 -51.75 40.226562 -50.773438 44.09375 -48.828125 C 47.957031 -46.878906 51.0625 -43.957031 53.40625 -40.0625 C 55.75 -36.164062 56.921875 -31.484375 56.921875 -26.015625 C 56.921875 -20.796875 55.796875 -16.140625 53.546875 -12.046875 C 51.304688 -7.953125 48.15625 -4.769531 44.09375 -2.5 C 40.03125 -0.238281 35.335938 0.890625 30.015625 0.890625 C 25.578125 0.890625 21.421875 -0.0820312 17.546875 -2.03125 C 13.679688 -3.976562 10.578125 -6.894531 8.234375 -10.78125 C 5.898438 -14.675781 4.734375 -19.363281 4.734375 -24.84375 Z M 51 -24.90625 C 51 -29.394531 50.078125 -33.445312 48.234375 -37.0625 C 46.390625 -40.6875 43.851562 -43.519531 40.625 -45.5625 C 37.394531 -47.613281 33.757812 -48.640625 29.71875 -48.640625 C 26.019531 -48.640625 22.726562 -47.703125 19.84375 -45.828125 C 16.96875 -43.953125 14.710938 -41.300781 13.078125 -37.875 C 11.453125 -34.457031 10.640625 -30.484375 10.640625 -25.953125 C 10.640625 -21.460938 11.5625 -17.40625 13.40625 -13.78125 C 15.257812 -10.164062 17.800781 -7.332031 21.03125 -5.28125 C 24.257812 -3.238281 27.894531 -2.21875 31.9375 -2.21875 C 35.632812 -2.21875 38.921875 -3.148438 41.796875 -5.015625 C 44.679688 -6.890625 46.9375 -9.539062 48.5625 -12.96875 C 50.1875 -16.394531 51 -20.375 51 -24.90625 Z M 51 -24.90625 "/></g></g></g><g fill="#000c55" fill-opacity="1"><g transform="translate(129.701655, 287.035352)"><g><path d="M 14.78125 -47.90625 L 14.78125 -26.90625 L 27.578125 -26.90625 C 29.398438 -26.90625 30.617188 -27.175781 31.234375 -27.71875 C 31.847656 -28.257812 32.15625 -28.703125 32.15625 -29.046875 L 32.15625 -21.8125 C 32.15625 -21.957031 32.039062 -22.1875 31.8125 -22.5 C 31.59375 -22.820312 31.148438 -23.144531 30.484375 -23.46875 C 29.828125 -23.789062 28.859375 -23.953125 27.578125 -23.953125 L 14.78125 -23.953125 L 14.78125 -6.875 C 14.78125 -4.945312 15.023438 -3.476562 15.515625 -2.46875 C 16.015625 -1.46875 16.554688 -0.78125 17.140625 -0.40625 C 17.734375 -0.0390625 18.03125 0.09375 18.03125 0 L 6.28125 0 C 6.28125 0.09375 6.578125 -0.03125 7.171875 -0.375 C 7.765625 -0.71875 8.296875 -1.394531 8.765625 -2.40625 C 9.234375 -3.414062 9.46875 -4.90625 9.46875 -6.875 L 9.46875 -43.609375 C 9.46875 -45.628906 9.234375 -47.171875 8.765625 -48.234375 C 8.296875 -49.296875 7.765625 -50.035156 7.171875 -50.453125 C 6.578125 -50.867188 6.28125 -51.003906 6.28125 -50.859375 L 33.046875 -50.859375 L 33.046875 -43.3125 C 32.796875 -44.5 32.101562 -45.5625 30.96875 -46.5 C 29.832031 -47.4375 28.234375 -47.90625 26.171875 -47.90625 Z M 14.78125 -47.90625 "/></g></g></g><g fill="#000c55" fill-opacity="1"><g transform="translate(166.361129, 287.035352)"><g><path d="M 6.203125 0 C 6.203125 0.144531 6.5 0.0351562 7.09375 -0.328125 C 7.6875 -0.703125 8.226562 -1.394531 8.71875 -2.40625 C 9.21875 -3.414062 9.46875 -4.90625 9.46875 -6.875 L 9.46875 -43.984375 C 9.46875 -45.953125 9.234375 -47.441406 8.765625 -48.453125 C 8.296875 -49.460938 7.765625 -50.140625 7.171875 -50.484375 C 6.578125 -50.828125 6.28125 -50.953125 6.28125 -50.859375 L 18.03125 -50.859375 C 18.03125 -50.953125 17.734375 -50.828125 17.140625 -50.484375 C 16.554688 -50.140625 16.015625 -49.460938 15.515625 -48.453125 C 15.023438 -47.441406 14.78125 -45.953125 14.78125 -43.984375 L 14.78125 -6.875 C 14.78125 -4.90625 15.023438 -3.414062 15.515625 -2.40625 C 16.015625 -1.394531 16.554688 -0.71875 17.140625 -0.375 C 17.734375 -0.03125 18.03125 0.09375 18.03125 0 Z M 6.203125 0 "/></g></g></g><g fill="#000c55" fill-opacity="1"><g transform="translate(189.421121, 287.035352)"><g><path d="M 15.59375 -19.734375 L 10.859375 -7.984375 C 10.117188 -6.160156 9.75 -4.65625 9.75 -3.46875 C 9.75 -1.84375 10.488281 -0.6875 11.96875 0 L 1.40625 0 C 1.894531 0 2.609375 -0.488281 3.546875 -1.46875 C 4.484375 -2.457031 5.566406 -4.40625 6.796875 -7.3125 L 26.09375 -53.21875 L 45.234375 -7.09375 C 46.316406 -4.4375 47.363281 -2.613281 48.375 -1.625 C 49.382812 -0.632812 50.1875 -0.09375 50.78125 0 L 38.515625 0 C 39.742188 -0.59375 40.359375 -1.503906 40.359375 -2.734375 C 40.359375 -3.765625 39.960938 -5.242188 39.171875 -7.171875 L 34 -19.734375 Z M 32.828125 -22.765625 L 24.765625 -42.5 L 16.859375 -22.765625 Z M 32.828125 -22.765625 "/></g></g></g></svg>