<svg xmlns="http://www.w3.org/2000/svg" viewBox="0 0 472.4852 517.5893"><defs><style>.cls-1{fill:#7b2c6b;}.cls-2{fill:#fff;}.cls-3{fill:#4d1435;}.cls-4{fill:#c579af;}.cls-5{fill:#80217f;}.cls-6{fill:#aa398b;}.cls-7{fill:#edcfe3;}.cls-8{fill:#85175a;}.cls-9{fill:#151b37;}.cls-10{fill:#ee7cae;}.cls-11{fill:#86c164;}.cls-12{fill:#ed72a5;}.cls-13{fill:#ea5467;}.cls-14{fill:#c67319;}.cls-15{fill:#f0879d;}.cls-16{fill:#eeb96a;}.cls-17{fill:#a68ebf;}.cls-18{fill:#d12284;}</style></defs><g id="katman_2" data-name="katman 2"><g id="katman_1-2" data-name="katman 1"><path class="cls-1" d="M360.0085,265.0925a76.7624,76.7624,0,0,0,12.0153-5.771,29.29,29.29,0,0,1-2.8694-2.325c-.1488-.1488-.28-.2935-.4151-.4392-3.9481,1.9977-7.3264,3.769-10.2965,5.14-.9241.3808-1.8435.735-2.76,1.073a13.1556,13.1556,0,0,1-2.086,4.33C355.7341,266.5417,357.8714,265.8841,360.0085,265.0925Z"/><path class="cls-1" d="M450.87,288.33c-.5047,3.1588-2.6758,5.6387-6.511,7.511a34.7941,34.7941,0,0,1-8.86,11.8088,32.6176,32.6176,0,0,0-1.7484-8.7436,23.9747,23.9747,0,0,0-2.1348-4.4516,21.4106,21.4106,0,0,0-3.4546-4.2967v0a24.49,24.49,0,0,0-2.7886-2.3638,25.4006,25.4006,0,0,0-2.3021-1.5192,30.1926,30.1926,0,0,0-6.6489-2.8239q-1.0985-.3262-2.26-.5944c-1.3684-.317-2.7811-.5934-4.2813-.7935-.4421-.0553-.9059-.0972-1.361-.1445q-1.2534-.13-2.5741-.2174c-2.0654-.1363-4.2431-.199-6.5672-.1568-.6369.0116-1.2962.04-1.9532.066-2.1762.0873-4.4557.2518-6.86.5159-.9278.1018-1.88.2239-2.8433.3543h0c-.2761.0375-.54.065-.8189.1048l-26.372,5.7446a164.5528,164.5528,0,0,1-20.209,3.52,51.778,51.778,0,0,0-.9329-12.9194l0,0a12.509,12.509,0,0,0-1.1443-4.2837,23.6965,23.6965,0,0,0-2.1322-3.7268,49.9287,49.9287,0,0,0-5.8679-6.8717c-.3356-.3233-.6575-.6363-.9789-.9489q-2.3106-2.247-4.14-4.1252a61.46,61.46,0,0,1-7.1487-8.2423,32.6728,32.6728,0,0,1-2.0881-7.0492l-.4371-2.0387c13.263-3.3348,26.3033-9.5622,39.2257-18.5884q2.295-1.603,4.5851-3.3293c.9451-.71,1.8905-1.4152,2.8345-2.1548a39.33,39.33,0,0,0,14.6262-1.3055,22.8381,22.8381,0,0,0,10.9627-6.5269,28.0828,28.0828,0,0,0,6.2646-9.66c1.8369-4.7012,2.3589-8.6166,1.3146-11.7507a9.5088,9.5088,0,0,0-2.0981-3.9152l-3.3924-2.8736,4.9581-2.6105,4.9695-2.8732c1.8269-1.5659,2.3492-6.5274,1.3046-15.1433s-3.1315-14.0969-6.0032-16.9711c-.5209-.5214-2.6184-1.3046-6.0132-2.3482a13.2462,13.2462,0,0,1-7.3068-5.2223l-.0007,0-5.7418-10.7042,0-.0008c-1.8284-1.5686-3.9167-6.267-6.7866-13.8376-.5465-1.5407-1.018-2.9688-1.451-4.3392l-.115-.1006-4.661-12.0778-.0468.3268-4.4377-6.0032-4.96-6.267a41.6959,41.6959,0,0,0-8.35-7.5719l-5.4815-4.1772-.0012,0-3.9151-2.3489-.001-.0011a56.5225,56.5225,0,0,0-7.3161-3.1318,24.2846,24.2846,0,0,0-1.5674-6.5284l-1.5655-3.9172v-7.05l-2.87-9.1373-2.0878-3.9161-2.0882-3.6558-3.3941-9.1406c-1.8273-3.6548-4.4377-5.22-7.5691-4.9591-3.4022.5218-6.7962,3.9154-9.9276,10.4432a38.2651,38.2651,0,0,0-2.8718,7.8326l-2.0882,7.3108-.0006-.0007v.7863l-3.1306,2.61c-3.3943,5.4833-6.0047,10.7061-7.3092,15.6652l-.001,0,0,.0008,4.2762,4.04a2.8168,2.8168,0,0,1-.3608-1.17,30.716,30.716,0,0,1,2.6106-10.7041l4.96-8.0936A37.8973,37.8973,0,0,0,305.7,41.5916l9.6668-6.7889,0,0c1.5654,1.3051,3.1311,3.9173,4.6986,7.5718,1.8268,3.9175,2.3491,7.05,2.0882,9.4013-.5223,3.3925-4.6986,7.3108-12.79,11.2259a61.5084,61.5084,0,0,1-13.3221,4.44c-4.4007.88-7.37.9249-8.9219-.0176l3.7016,3.9358h.0007l0,0a51.9792,51.9792,0,0,0,17.2358-5.2229l14.357-8.3573c2.0868,4.7006,2.87,8.3575,2.0868,11.2284-.7823,2.61-3.9152,4.44-8.8733,5.4842l-13.5835.5214c-5.092-.2041-8.5868-1.046-10.2515-2.3974l1.3779,3.4416.0006,0,0-.0008a51.7858,51.7858,0,0,0,20.1071,1.3055h0c7.83-.7832,12.79-3.1322,14.617-6.7863,8.6236,2.8709,16.4537,8.6133,23.7609,16.97a86.2239,86.2239,0,0,1,15.41,25.8477l6.0032,13.5773a52.5926,52.5926,0,0,0,5.7418,9.9207,24.5746,24.5746,0,0,0,7.83,6.79l3.9169,1.8266a16.3632,16.3632,0,0,1,3.1309,2.3516c1.8367,2.3484,3.4024,6.7864,4.4475,13.0529,1.3041,6.5276.7817,10.9669-1.0451,13.3163-.5209.7852-1.8267,1.568-4.1861,2.8735a27.5566,27.5566,0,0,1-5.4806,2.8707l-8.6136,5.4842a20.7129,20.7129,0,0,1-11.7449,1.8269,41.4367,41.4367,0,0,1-8.6235-2.0883c1.0448-.7827,1.5657-2.3508,1.8266-4.4391q-3.9155-4.6983-6.2641,2.3487c-1.8266,4.701-1.3045,7.8356,1.5655,9.6624v-2.61c.2615-.7863.5229-1.569,1.0452-1.83,1.8268.7836,4.96,2.8713,8.8748,6.2664,4.1859,2.8709,8.101,4.1788,11.4936,4.1788l4.1758-1.0466,2.6111-2.8708.5208-5.4841c.2609-2.61.7838-4.4365,1.8283-5.4828,4.9581,1.3066,6.7851,5.2227,5.481,11.4885a21.804,21.804,0,0,1-7.3093,13.0558,25.8235,25.8235,0,0,1-13.0495,5.7446c-6.2646.7828-13.0607-.7831-20.3685-4.1787.5209,1.8291,2.6084,3.3956,6.0032,5.2224a108.7346,108.7346,0,0,1-30.5482,18.5394,96.9668,96.9668,0,0,1-42.0333,6.7869,61.3926,61.3926,0,0,1-20.6293-4.6988l0,0,0,0,.5163,4.3868.88.2062-.0843.1609,2.5615,1.0258.2914-.5383,5.4923,1.2865a90.3376,90.3376,0,0,0,38.9719.0182c.8787,8.0952,4.2517,14.4486,10.3787,19.3016,10.7965,8.4852,15.0054,18.4962,12.6285,30.5177-.2008.009-.4131.0257-.6114.0331l-6.014-.2615a42.8356,42.8356,0,0,1-11.7454-2.8731,103.244,103.244,0,0,1-9.6569-4.1788c.7823,2.6118,3.1315,4.9615,7.3078,6.7883,7.8315,3.396,18.0109,4.44,30.2882,3.396a97.0272,97.0272,0,0,0,15.9213-3.1324l16.7145-3.9174,22.1954-2.0882c8.0915,0,14.617,1.0418,20.0973,3.3929,3.394,1.829,6.0129,3.3931,7.319,5.2224,3.3928,4.1762,4.9581,9.6605,4.9581,16.71a55.4122,55.4122,0,0,1-3.6536,18.0176,50.0137,50.0137,0,0,1-9.9276,16.97l-5.7422,5.4842-7.0479,4.6977a68.3774,68.3774,0,0,1-16.9758,4.4372l-19.3141.7856a89.3415,89.3415,0,0,1-34.2125-8.6164,102.859,102.859,0,0,1-25.0573-17.7553l-6.7955-7.572-6.2641-7.8322a29.68,29.68,0,0,0,4.6989,10.1838l7.0561,8.3549,3.7064,3.5205a72.0516,72.0516,0,0,1-9.4582,7.7057,47.3582,47.3582,0,0,1-15.9213,6.7883,32.0328,32.0328,0,0,0,1.5659-10.182,65.3463,65.3463,0,0,1-6.5259,12.7925c-1.5654,2.6123-6.0127,7.3133-13.3219,14.3606-6.0031,5.48-9.6566,10.7055-11.2226,15.668-1.8269,5.7418-1.5655,12.0064,1.3045,18.7923A151.3011,151.3011,0,0,0,267.0593,424.1c9.3971,22.9791,13.3216,43.8605,12.0175,62.6617-1.0451,15.1485-9.1463,24.0236-24.0241,26.6342q-14.1079,2.74-30.5475-2.3492-16.4541-4.7-23.5033-13.3124c-2.61-3.1427-4.4372-8.3621-5.2209-15.9313a162.4386,162.4386,0,0,1-.5208-20.8908c.7823-20.8811,3.915-38.6405,8.8732-53.005,2.61-7.5689,5.2214-13.5718,7.8312-17.4877,2.8754-4.9613,7.06-9.1377,12.0178-13.0552l5.7423-4.1787,4.6981-4.4372c2.872-3.6543,4.1765-8.3553,3.9156-14.3608A106.6442,106.6442,0,0,0,235.4679,338.2c-1.8268-7.0492-2.61-12.5331-2.61-16.1893a22.7884,22.7884,0,0,1,3.0848-11.0161,22.538,22.538,0,0,1-2.0421-1.5152l-.4217-.3375-2.1859,3.73-.0006.0014-2.0882,6.0055a21.8586,21.8586,0,0,0-.5228,7.5706h0a220.1759,220.1759,0,0,0,6.0032,23.2381c1.8274,9.6592-.5223,16.19-6.5255,19.0608-3.9149-5.2228-6.0032-12.5339-6.2646-21.6712q-.0975-1.8111-.0729-3.4988-.0246,1.6873.0729,3.4991c.2614,9.1373,2.35,16.4483,6.2646,21.6711l-3.1312,2.3491h0l-5.7436,4.7c-3.1408,2.608-5.2256,4.44-6.0094,5.7452-5.42,5.4183-10.0717,14.1534-14.4627,26.4469l-.1592,7.2355-1.3041,17.748a75.5824,75.5824,0,0,1-5.7436,20.3679v11.4855l.2614,11.4954c.7835,8.09,1.5667,14.3556,2.8712,18.7913,1.8274,5.2309,7.0483,10.189,16.1829,14.8876,9.1473,4.6986,19.8491,7.3077,31.8554,7.5706,12.7994.2594,22.9791-2.35,30.0269-8.0929a20.9361,20.9361,0,0,0,6.2744-8.8748,46.9441,46.9441,0,0,0,3.1309-11.7531c10.1795,5.48,22.1954,7.5673,35.7689,5.74,13.8333-1.8273,23.5-6.524,28.7209-14.6155,2.0882-2.8711,3.1314-6.7869,2.8705-11.7561a151.5811,151.5811,0,0,0-4.1763-27.6664,136.751,136.751,0,0,0-10.45-29.5144,113.2069,113.2069,0,0,0-15.3987-24.2731,41.403,41.403,0,0,1-6.526-9.6632c-1.8266-4.4386-1.0432-9.92,2.0883-16.4483,2.615-5.42,4.2757-9.75,4.924-13.0295a105.7458,105.7458,0,0,0,33.4533,14.8563,94.358,94.358,0,0,0,26.1124,2.872c10.18-.2593,18.8025-1.5665,25.849-4.44,4.4371-1.5662,8.6137-4.4372,12.79-8.6159a52.8572,52.8572,0,0,0,9.6667-12.531,58.573,58.573,0,0,0,7.57-25.0664q.0764-1.0446.1113-2.0581c.1328-.0988.278-.1915.4091-.2912,4.4377-3.132,8.0914-8.0933,11.4855-14.8829a62.68,62.68,0,0,0,6.0032-19.58c.0654-.6676.1076-1.3262.1549-1.9867l-.9382-.104ZM295.78,43.6819a38.6936,38.6936,0,0,1,2.8717-10.7065c1.5654-4.1758,3.3923-7.3106,5.2209-9.1372,2.6184-3.1348,5.229-3.6575,7.5785-1.3055h0c2.35,1.8268,3.3929,5.2228,3.3929,9.66C308.3187,37.9368,302.0442,41.8517,295.78,43.6819Zm79.9,151.9569c-4.4374-.2609-8.875-2.6093-13.8446-7.0494h0c8.1007,2.3518,14.8876,2.09,20.1085-.7828Q383.1174,196.0323,375.68,195.6388ZM262.8828,407.6465h0c-2.87-3.3936-3.6535-7.8308-2.6089-13.5728,1.0432-5.4814,3.1312-9.1377,6.0032-11.4869l-2.0882,11.7483A49.8748,49.8748,0,0,0,262.8828,407.6465ZM311.19,359.61q-4.3071,9.0051-3.1329,14.8831a20.3259,20.3259,0,0,0,4.96,10.4428l8.0914,9.1377c10.44,14.3555,17.76,31.5919,21.934,51.4376l2.6106,15.6619c.7834,6.5241.2613,11.4948-1.3041,15.149-3.6543,8.6123-12.8,13.5718-27.6777,14.8779-14.3653.782-25.85-1.5674-34.4631-7.57a150.3971,150.3971,0,0,0-12.8-62.6631c-1.5655-2.871-2.6089-4.6979-2.87-6.0032-.7838-3.9249-.2614-10.7108,1.3043-19.8459,1.8269-10.1819,3.9151-17.2347,6.264-20.8884a34.8792,34.8792,0,0,1,5.2295-6.2646c2.3493-2.3513,4.1759-4.44,4.96-6.2665a76.9238,76.9238,0,0,0,23.7613-10.4432l8.2085-6.22q.163.1172.3264.2331C316.1761,348.2009,314.3876,352.9659,311.19,359.61Z"/><path class="cls-2" d="M353.5968,267.1005a18.2241,18.2241,0,0,1-4.0287,3.9952,14.5516,14.5516,0,0,1-11.3238,3.5512,12.509,12.509,0,0,1,1.1443,4.2837l0,0a51.778,51.778,0,0,1,.9329,12.9194,164.5528,164.5528,0,0,0,20.209-3.52l26.372-5.7446c.2789-.04.5428-.0673.8189-.1048-.0987-.401-.2036-.7809-.2968-1.2-2.088-8.6154-3.9148-14.3606-5.7418-17.2315a34.29,34.29,0,0,1-9.6592-4.7269,76.7624,76.7624,0,0,1-12.0153,5.771C357.8714,265.8841,355.7341,266.5417,353.5968,267.1005Z"/><path class="cls-2" d="M435.4993,307.6494a34.7941,34.7941,0,0,0,8.86-11.8088,39.2829,39.2829,0,0,1-10.6081,3.0652A32.6176,32.6176,0,0,1,435.4993,307.6494Z"/><path class="cls-3" d="M342.5218,236.8936l-11.2341,8.877c-3.654,3.1346-5.7423,6.2658-6.0032,9.1377a21.7518,21.7518,0,0,0-.1591,4.066q1.8343,1.88,4.14,4.1252c-.0223-.2051-.0462-.4056-.0656-.62l-.2614-3.9151a10.7172,10.7172,0,0,1,1.8268-6.7883,15.2156,15.2156,0,0,1,5.7535-4.9591l0,0q0,9.3962,7.0464,10.1793c4.4371.2629,7.3091-1.3051,8.0909-4.96,3.3945,4.96,2.3495,10.1831-3.1315,15.1445-3.9033,3.5324-8.0712,4.8017-12.4124,3.7392a23.6965,23.6965,0,0,1,2.1322,3.7268,14.5516,14.5516,0,0,0,11.3238-3.5512,18.2241,18.2241,0,0,0,4.0287-3.9952,13.1556,13.1556,0,0,0,2.086-4.33,12.1581,12.1581,0,0,0,.4108-2.3787,13.8059,13.8059,0,0,0-1.8273-8.0939l-.5223-.2614-.7818-1.0429a5.9542,5.9542,0,0,0-3.1331-1.5664c-.7819-.2614-1.0433.2614-1.3046,1.0441l-.5223,2.35v.2609l-1.8269,1.8268h-2.3494a2.9877,2.9877,0,0,1-3.3929-1.5665,8.6954,8.6954,0,0,1-1.3058-3.9148c-.26-3.3955,2.0881-7.05,7.0481-11.2284,6.0033-4.959,9.6569-8.8766,10.9628-11.4893a34.1836,34.1836,0,0,0,2.1242-6.9828q-2.29,1.72-4.5851,3.3293C352.4362,227.72,348.3853,232.3481,342.5218,236.8936Z"/><path class="cls-4" d="M325.2845,254.9083c.2609-2.8719,2.3492-6.0031,6.0032-9.1377l11.2341-8.877c5.8635-4.5455,9.9144-9.1734,12.1554-13.8379-12.9224,9.0262-25.9627,15.2536-39.2257,18.5884l.4371,2.0387a32.6728,32.6728,0,0,0,2.0881,7.0492,61.46,61.46,0,0,0,7.1487,8.2423A21.7518,21.7518,0,0,1,325.2845,254.9083Z"/><path class="cls-4" d="M348.5245,267.1809c5.481-4.9614,6.526-10.1842,3.1315-15.1445-.7818,3.6551-3.6538,5.2231-8.0909,4.96q-7.0458-.7834-7.0464-10.1793l0,0a15.2156,15.2156,0,0,0-5.7535,4.9591,10.7172,10.7172,0,0,0-1.8268,6.7883L329.2,262.48c.0194.214.0433.4145.0656.62.3214.3126.6433.6256.9789.9489a49.9287,49.9287,0,0,1,5.8679,6.8717C340.4533,271.9826,344.6212,270.7133,348.5245,267.1809Z"/><path class="cls-1" d="M136.885,291.4153c.1553-.1446.3158-.2842.4723-.4277C137.2018,291.1319,137.0394,291.27,136.885,291.4153Z"/><path class="cls-1" d="M72.0208,362.7425c.2614,2.3514,1.8269,4.1783,4.4377,5.4838a10.3258,10.3258,0,0,0,7.8334.7828,65.391,65.391,0,0,1,7.049-8.8788c6.0051-6.2645,12.0111-10.1792,17.7548-11.7482l0,0c-5.7437,1.5691-11.75,5.4838-17.7549,11.7483a65.3913,65.3913,0,0,0-7.0489,8.8788,10.3262,10.3262,0,0,1-7.8334-.7828c-2.6108-1.3055-4.1763-3.1324-4.4377-5.4838a12.3035,12.3035,0,0,1,.7339-5.5079A12.3046,12.3046,0,0,0,72.0208,362.7425Z"/><path class="cls-1" d="M22.1511,400.86c.26,2.871,1.3044,4.4375,3.1313,5.2207h6.0065c1.3046-.2614,4.1777-3.1324,8.6157-8.0915q7.4421-8.6127,10.9674-10.9622l0,0q-3.5235,2.3489-10.9673,10.9621c-4.438,4.9591-7.3111,7.83-8.6156,8.0914H25.2825c-1.8269-.7832-2.8713-2.35-3.1312-5.2206a36.654,36.654,0,0,1,.5208-4.6977v0A36.6392,36.6392,0,0,0,22.1511,400.86Z"/><path class="cls-1" d="M1.4092,415.5769c.01-.03.0221-.0609.0317-.0909C1.4312,415.516,1.4187,415.5469,1.4092,415.5769Z"/><path class="cls-1" d="M63.9265,354.6487c4.4375-2.3518,7.8315-3.3936,10.7047-2.8708.1633,0,.1225.4078-.186,1.2868.3086-.8792.3494-1.287.186-1.287-2.8731-.5228-6.2672.5189-10.7046,2.8708a36.3384,36.3384,0,0,0-9.4006,7.572,24.7,24.7,0,0,0-6.2679,9.3991l0,0a24.7,24.7,0,0,1,6.268-9.3991A36.3363,36.3363,0,0,1,63.9265,354.6487Z"/><path class="cls-1" d="M55.31,459.8674q2.742-2.74,5.4823-2.3495c.7837.2627,1.306,1.0449,2.0909,2.6123l1.566,3.913,3.3928,3.6542c1.5671,1.306,3.3954,1.5767,5.7451.7949,2.0876-.5322,3.6535-2.36,4.96-5.2307.1049-.21.2047-.4431.3017-.6917-.0969.2485-.1967.4811-.3016.6915-1.3065,2.8712-2.8725,4.6985-4.96,5.2307-2.35.7818-4.1779.5111-5.745-.795L64.449,464.043l-1.5659-3.913c-.7849-1.5674-1.3072-2.35-2.0909-2.6123q-2.7411-.39-5.4823,2.35a30.1579,30.1579,0,0,0-3.9169,5.2208,26.0588,26.0588,0,0,0-1.9584,4.6709,26.0485,26.0485,0,0,1,1.9584-4.6706A30.15,30.15,0,0,1,55.31,459.8674Z"/><path class="cls-1" d="M148,282.5849a84.8946,84.8946,0,0,0-8.6744,6.6532,84.1082,84.1082,0,0,1,8.7216-6.5618C148.0316,282.6446,148.0148,282.6167,148,282.5849Z"/><path class="cls-1" d="M21.89,395.1179c.7638-.2553,1.0273.2389.7952.9927.2321-.7538-.0313-1.2483-.7952-.9929-8.3561,1.3046-14.6221,7.0473-19.0618,16.714-.0619.1421-.1122.2807-.172.4222.06-.1414.11-.28.172-.422C7.2681,402.1652,13.5341,396.4225,21.89,395.1179Z"/><path class="cls-3" d="M198.6526,415.2254l.1592-7.2355c-.0529.148-.1063.29-.1592.4393a97.1418,97.1418,0,0,0-6.5255-23.2328,26.806,26.806,0,0,1-3.1315-6.7907c-.7881-2.8684-1.0445-7.5694-.7881-14.6191.5272-8.6166,1.8319-15.926,4.181-21.9325,3.1331-8.0938,7.83-14.0994,13.833-18.0143,6.7916-4.701,14.1073-5.2228,22.1987-1.8292l-5.2195,6.2665h0a22.5459,22.5459,0,0,0-3.6554,7.5739,39.4252,39.4252,0,0,0-1.0533,15.927,53.0129,53.0129,0,0,0,4.1864,14.6214l2.3491,4.6979,0,0h0l3.1312-2.3491c-3.9149-5.2228-6.0032-12.5338-6.2646-21.6711q-.0975-1.8112-.0729-3.4991c.1151-7.8741,2.2262-13.7,6.3375-17.1287h.5223v0a21.8586,21.8586,0,0,1,.5228-7.5706l2.0882-6.0055.0006-.0014-.0006.0011c-5.2213-9.3993-13.0513-16.1883-23.2418-20.6248a55.5577,55.5577,0,0,0-26.3731-3.9183,64.7576,64.7576,0,0,0-25.5835,7.8334,66.8924,66.8924,0,0,0-18.8011,15.6646,83.9321,83.9321,0,0,0-10.1811,15.927,76.2448,76.2448,0,0,0-6.7883,19.5831,72.4964,72.4964,0,0,0-.5223,16.9735,77.2284,77.2284,0,0,0,2.6125,16.4436l1.8269,6.2718-3.9171,3.1322-6.79,6.2636a170.0385,170.0385,0,0,1-1.3042-41.2524c1.3041-13.3159,4.1777-25.0637,8.8763-34.987,9.4553-20.442,24.1745-34.6144,43.6425-42.5512a15.6066,15.6066,0,0,0,1.0043,1.56c2.6139,3.3931,6.5289,5.4814,11.4871,6.2641a26.5314,26.5314,0,0,0,14.1059-1.8268,21.37,21.37,0,0,0,10.9612-8.3548L203.217,274c8.1458,1.7943,15.0331,4.594,20.45,8.6239-.16.4975-.321.9943-.4663,1.5278a20.4525,20.4525,0,0,0,.5208,10.4452,25.8719,25.8719,0,0,0,7.5706,12.7952l2.1867,1.75.4217.3375a22.538,22.538,0,0,0,2.0421,1.5152c5.6568,3.7579,12.5814,4.5362,21.0509,2.3309.8194-.2134,1.648-.4445,2.4966-.7137.244-.0858.4762-.176.7159-.2634.3592-.131.7226-.26,1.072-.3951q1.6984-.6549,3.243-1.369c.828-.3825,1.6141-.7811,2.3762-1.1891a34.2922,34.2922,0,0,0,5.1927-3.3731,21.6048,21.6048,0,0,0,6.2027-7.5107c9.6574-21.1483,10.18-37.0753,1.566-48.04a28.9263,28.9263,0,0,0-10.4505-8.0938l-1.8681-.7482-2.5615-1.0258-.79-.3164-.006-.0507-.5163-4.3868,0,0c-1.3047-11.49-5.7417-20.8881-13.0509-28.46-6.0129-6.0056-14.6267-11.2279-25.8493-15.4042a40.87,40.87,0,0,0,10.4408-27.9373l0-.0008v-2.6106l-1.7043-3.23c-.2936-.1448-.8017-.0475-1.69.6177l-3.6537,2.8736c-4.1763,2.3493-8.8749,1.8269-13.8411-1.8294-2.8706-2.3492-4.1812-5.4838-4.1812-9.66a15.8913,15.8913,0,0,1,3.66-10.4423v0l-1.0451-2.6122a79.1616,79.1616,0,0,0-10.9656,9.4012,23.7663,23.7663,0,0,0-4.96,14.8819,21.7847,21.7847,0,0,0,2.61,8.8775,15.7524,15.7524,0,0,0,6.0035,5.7419q7.4377,4.31,15.6729,0a27.593,27.593,0,0,0,11.4839-10.4433c0,9.14-2.6106,16.71-7.5687,22.1939-5.4822,6.0056-13.0628,8.6154-22.46,7.8322A20.8414,20.8414,0,0,1,191.3454,191.2a24.93,24.93,0,0,1-6.2693-7.57c-4.6987-9.6623-3.915-19.3215,2.3491-29.2453,5.4854-8.8765,12.793-14.6193,21.93-17.4929l1.7007.1308.6526-.652-1.0451-2.0882h0a46.1983,46.1983,0,0,0-21.9281,12.7937,33.5222,33.5222,0,0,0-9.6667,24.0208c0,11.226,4.44,19.322,13.5816,24.281,9.1361,4.9622,18.7976,4.7013,28.4628-1.0439a55.1869,55.1869,0,0,1,29.764,18.7973q9.789,11.7544,8.6138,23.5008l-43.87-3.6563C194.2151,229.5825,179.3275,221.75,171.236,210a37.15,37.15,0,0,1-6.0046-13.8379,47.63,47.63,0,0,1-1.3058-15.927c1.3058-11.49,6.2675-21.9325,15.1424-31.3307a63.8257,63.8257,0,0,1,28.72-18.2783l-.2614-2.3488h0a55.9844,55.9844,0,0,0-9.9176,3.3927v0c-.5224-14.097.5209-23.7594,3.1312-28.7185.0039.0586.0105.1211.0146.18l.7686-7.4924-3.6544,5.4833a48.6446,48.6446,0,0,0-2.8705,13.84L193.9537,129.06a10.5872,10.5872,0,0,1-3.3921,6.267l-6.2693,4.7a65.0462,65.0462,0,0,0-11.2294,11.2256,59.16,59.16,0,0,0-8.3535,13.8389c-4.9614-4.6986-8.3543-11.226-9.9217-19.5831a45.8451,45.8451,0,0,1,1.306-24.5424c3.396-9.9212,10.4424-19.059,21.4069-27.4166,4.9648-3.9149,11.2341-7.0473,19.0642-9.92a75.98,75.98,0,0,1,21.6759-4.9615l.5223.7828,1.3045,2.0883h0l0,0,2.6711,3.3523c.1542.0145.3125.0268.4624.0435l4.6967,3.1346,0,0c3.6557,2.0882,7.0483,3.1324,9.92,2.871,1.3041,8.3545,5.48,14.36,13.0589,17.7538,6.2646,2.8733,15.1392,4.4392,26.3619,4.1778q8.6295,6.6558,2.359,12.5334a10.0218,10.0218,0,0,1-6.0125,2.8718,7.6611,7.6611,0,0,1-6.0032-.7837c-.5223-.5219-.7822.2614-.7822,2.0882a12.7269,12.7269,0,0,0,.5208,3.9173c-.0264.0028-.0524.0035-.0789.0063l.6009,1.0381,1.0432,1.0441,2.0882,1.3051.0005,0c5.4823,3.3936,12.017,3.6574,19.5862,1.0463l2.0878-1.3069,1.3046-1.3045.1682.05c.0257-.1039.1464-.208.3545-.3121h0l.5217-.2606.7823-1.3055,1.3058-2.8732,2.35-1.0442.0006-.0005a49.0428,49.0428,0,0,0,5.48-9.92A24.47,24.47,0,0,0,307.014,107.65c-.7842-7.5724-4.7084-14.6216-12.2771-21.1476a36.2189,36.2189,0,0,0-1.5657-10.4444l-.0006,0-1.3779-3.4416a3.02,3.02,0,0,1-.9711-1.256h-.0007l-3.7016-3.9358a2.52,2.52,0,0,1-.8966-.9035l-4.2762-4.04,0-.0008-8.8835-4.4365a87.4363,87.4363,0,0,0-10.9619-4.44l-14.104-3.9178c-4.9595-1.8268-8.3523-4.4372-9.9195-7.57-2.87-5.4837-2.0883-10.4452,2.088-14.6239,3.9166-3.9149,9.4068-5.4832,15.9328-5.22q9.7881.78,19.5745,8.6158v0a57.0083,57.0083,0,0,1,13.5838,15.9272h0l3.1306-2.61V43.418c-3.1311-3.9147-6.7866-8.0932-10.7012-12.2694,7.3091-14.36,17.4886-21.9325,30.288-22.7177,7.83-.259,14.3555,2.0906,19.3141,7.3135h0q7.4543,7.83,7.0578,21.1459L336.5187,52.82a60.93,60.93,0,0,0-.7838,16.4491l-.0014-.0006.001.0011,3.9151,2.3489.0012,0-.0008-.0006c-.7823-1.3055-1.0437-3.9159-1.0437-8.3545l.7823-12.0121,1.3057-11.226q1.1735-14.489-6.2738-24.2807C329.2,9.216,322.1533,5.8205,313.0167,6.0814a30.99,30.99,0,0,0-20.368,7.3133c-4.4377,3.3938-8.6142,8.6137-12.79,15.6658-6.0129-4.44-11.4935-7.313-16.9758-8.6185C271.4966,9.9993,283.7736,4.2546,299.9565,2.95a65.97,65.97,0,0,1,28.4608,3.6547,64.4031,64.4031,0,0,1,21.9345,12.2718,60.6193,60.6193,0,0,1,9.3953,10.4458h0c3.1333,4.4368,5.2309,8.3541,6.2741,12.27q2.74,10.9662.7837,26.633l-3.8776,27.0862,4.661,12.0778.115.1006c-1.8421-5.8295-2.6755-10.146-2.4638-12.8957l4.1758-23.2343c1.3046-9.6629,1.566-18.279.5208-25.3285v-.7828a17.2081,17.2081,0,0,1,6.5256,2.8708l4.96,4.179a33.7716,33.7716,0,0,1,8.3529,15.1437,39.7779,39.7779,0,0,1,.7837,20.6276l-2.6111,7.31-3.6549,7.0506-5.2195,10.7037a36.834,36.834,0,0,0-3.1315,12.5334l0,0,0,.0008,5.7418,10.7042.0007,0,.0064.0015,3.3857.7812c6.5256,1.3052,11.7543-.2615,15.6714-4.4375a18.5338,18.5338,0,0,0,5.394-11.8141c.0384-.4418.045-.8976.0578-1.3507.0063-.2257.0286-.4445.0286-.673,0-.7837-1.3046-1.0441-3.6538-.5228a15.16,15.16,0,0,1-9.6685-.7828c-1.8268-.7827-3.3923-2.6105-4.4374-5.4842a12.9845,12.9845,0,0,1-.7823-8.8758l2.35-6.0061,2.0882-5.7452a44.4377,44.4377,0,0,0-2.6105-32.899l0,0h0c-4.96-9.9212-12.0064-15.9267-21.1424-18.2757-5.49-13.8389-14.3653-24.5421-26.894-31.5919C332.3323,3.7322,321.37.8615,309.1019.0788c-12.5382-.5229-23.5014,1.5652-32.6453,6.0026l-8.6137,5.2229a50.2658,50.2658,0,0,0-9.9181,7.8322l-8.0915.2614a33.2589,33.2589,0,0,0-15.6713,7.3112,68.3235,68.3235,0,0,0-10.44,11.4893c-10.7085-2.3519-21.415-.2615-32.1168,6.7883-7.8349,5.22-14.3653,12.5338-19.585,22.1915a68.1376,68.1376,0,0,0-7.8332,33.16l-4.6969,6.7883a50.9121,50.9121,0,0,0-9.1411,26.3717,31.0008,31.0008,0,0,0,.5242,8.0948,27.9907,27.9907,0,0,1,.519,7.571,60.2315,60.2315,0,0,1-1.8269,9.66l-2.87,9.1377c-2.8739,10.967-4.4406,17.7562-4.7005,20.6272a50.2982,50.2982,0,0,0,1.3057,21.15,52.3684,52.3684,0,0,0,10.9665,18.7995c3.9152,4.4371,9.138,8.8772,16.1877,13.8387,4.4372,3.1324,7.5684,5.4818,9.1344,7.3111,3.1374,3.3931,3.66,6.5245,1.8317,9.3986-4.4409,4.4391-8.3577,3.3929-12.0112-2.6127-.5224-.7828-1.5655-.2614-3.3929,1.829a15.1407,15.1407,0,0,0-2.8732,5.2228,22.0909,22.0909,0,0,0,.291,11.0272,95.71,95.71,0,0,0-15.3875,8.1229,84.1082,84.1082,0,0,0-8.7216,6.5618q-1,.86-1.9679,1.75c-.1565.1435-.317.2831-.4723.4277-14.7607,13.7537-24.0008,32.6909-27.7892,56.9665l0,0c-5.7437,1.569-11.75,5.4837-17.7548,11.7482a65.391,65.391,0,0,0-7.049,8.8788,10.3258,10.3258,0,0,1-7.8334-.7828c-2.6108-1.3055-4.1763-3.1324-4.4377-5.4838a12.3046,12.3046,0,0,1,.734-5.5081c.2285-.6609.5058-1.3464.832-2.0644.3917-.8805.6733-1.5778.8584-2.1053.3085-.879.3493-1.2868.186-1.2868-2.8732-.5228-6.2672.519-10.7047,2.8708a36.3363,36.3363,0,0,0-9.4,7.572,24.7,24.7,0,0,0-6.268,9.3991h0a17.2539,17.2539,0,0,0-.7817,8.8742,13.149,13.149,0,0,0,3.3956,6.5326l0,0q-3.5238,2.3485-10.9674,10.9622c-4.438,4.9591-7.3111,7.83-8.6157,8.0915H25.2824c-1.8269-.7832-2.8713-2.35-3.1313-5.2207a36.6392,36.6392,0,0,1,.521-4.6976v0c.006-.0179.008-.0336.0134-.0512.2321-.7538-.0314-1.248-.7952-.9927-8.3562,1.3046-14.6222,7.0473-19.0618,16.714-.0619.142-.1122.2806-.172.422-.4635,1.0946-.8738,2.1732-1.2156,3.2321-.01.03-.0222.0609-.0317.0909-2.7408,8.572-1.4835,15.9943,3.7713,22.6272a22.4815,22.4815,0,0,0,10.1809,6.2641,30.4179,30.4179,0,0,0,14.6215.5208A40.8054,40.8054,0,0,0,43.3,452.821a50.2076,50.2076,0,0,0,17.492,3.9151,61.9551,61.9551,0,0,0,19.8443-1.5674,50.8753,50.8753,0,0,1-1.7877,7.4012c-.097.2486-.1968.4813-.3017.6917-1.3065,2.8712-2.8724,4.6985-4.96,5.2307-2.35.7818-4.178.5111-5.7451-.7949l-3.3928-3.6542-1.566-3.913c-.7849-1.5674-1.3072-2.35-2.0909-2.6123q-2.7411-.39-5.4823,2.3495a30.15,30.15,0,0,0-3.9168,5.2209,26.0485,26.0485,0,0,0-1.9584,4.6706,33.408,33.408,0,0,0-1.1764,5.257,35.2174,35.2174,0,0,0,.5228,10.4412c1.83,7.307,7.05,13.0607,16.19,17.4965,9.66,4.4387,18.7981,4.4387,27.1521,0l6.2674-4.707c7.05,3.143,15.6653,3.4025,25.85,1.053,10.1824-2.3491,18.2752-6.5355,23.7594-12.5382l6.2672-1.5657c11.75-2.87,21.6681-9.3956,29.764-20.1073l7.5739-11.7469,0,0a75.5824,75.5824,0,0,0,5.7436-20.3679Zm20.3719-240.4727c-7.06,2.6111-12.803,1.567-16.7179-3.3944-3.3927-3.918-4.4372-9.3993-2.6091-15.9272q2.3488-9.0084,8.6122-12.5333h.7838c-3.654,7.5718-2.6111,13.8387,3.3973,18.8,5.75,4.9593,12.0144,5.22,19.0622.7828C230.2471,168.2259,226.0708,172.4022,219.0245,174.7527Zm171.7931-55.0919a17.0239,17.0239,0,0,0,12.538,1.0441c.2614,5.4838-2.088,9.66-7.5684,12.7936-5.49,3.1324-10.45,2.872-14.3656-.7828-2.3489-2.3508-2.8717-6.0055-1.8266-10.9669a34.3267,34.3267,0,0,1,3.9148-10.1819A22.036,22.036,0,0,0,390.8176,119.6608ZM182.204,86.502c1.0451-3.6559,3.6542-7.3127,7.8353-10.7065,4.4372-3.3926,8.8746-5.4833,13.5732-6.0054a19.4679,19.4679,0,0,1,12.5306,1.8276l1.3041,4.7005Q193.955,79.0586,182.204,86.502Zm111.7493,43.604c-1.3045,4.1763-5.2194,6.525-11.2226,6.7859-6.2742.2614-10.1891-1.5655-11.7564-5.7418,4.4372-.261,8.1026-1.8269,10.45-4.9614,2.61-2.8744,3.3939-6.7893,2.61-11.4893a13.9686,13.9686,0,0,1,8.3529,5.4828A9.8932,9.8932,0,0,1,293.9533,130.106Zm5.7431-34.2071c2.87,4.44,3.915,9.9229,3.6535,15.9294-.5222,6.5269-2.8711,10.9645-6.7863,13.838-.7835-4.9614-3.3926-8.6161-7.83-11.4893-3.1333-2.0888-7.83-3.6542-13.8432-4.437l-15.139-1.83q-17.6324-3.1325-17.2372-18.0143l31.8539-3.6569C286.9068,85.9785,295.2593,89.1125,299.6964,95.8989ZM233.9006,31.9318c-.26,8.6161,3.3943,15.1431,10.9634,19.0613,4.447,2.3485,12.0157,5.22,22.7176,8.354v0c6.5252,2.8719,11.7549,6.0036,15.1491,9.3988a27.1992,27.1992,0,0,1,7.83,16.9736,37.1711,37.1711,0,0,0-11.224-2.3521c-3.925-.2609-9.9281.5228-18.28,2.0882l-18.28,1.83q-9.7882-.3945-15.66-4.7a20.2611,20.2611,0,0,1-7.8318-14.0992c-.7919-6.2665.2613-13.3172,3.3945-20.8882C225.8094,40.548,229.4648,35.3251,233.9006,31.9318ZM176.98,64.8284A54.2573,54.2573,0,0,1,199.436,44.4652v0c6.524-3.396,14.1-4.44,22.1972-3.396A48.3356,48.3356,0,0,0,216.9268,53.08a53.3126,53.3126,0,0,0-1.5674,15.6658c-8.877-2.0883-16.7069-.7827-23.7547,3.6569a33.25,33.25,0,0,0-13.8432,16.9706A87.8338,87.8338,0,0,0,167.06,96.6841,76.0836,76.0836,0,0,1,176.98,64.8284Zm28.361,206.1971,2.1865-3.0618c4.4371,1.8267,7.5725,3.1322,9.3993,3.6564a45.5118,45.5118,0,0,0,11.7543,1.5665l-2.8717,3.9173c-.2084.4869-.4365,1.0171-.6723,1.5783A63.4424,63.4424,0,0,0,205.3408,271.0255Zm21.5134,15.2138c.5224-3.6542,1.3046-6.5251,2.6106-8.3524a8.39,8.39,0,0,1,6.7854-4.7005,7.8015,7.8015,0,0,1,6.5255,2.61c1.5655,1.8273,2.3492,3.6571,2.0883,5.4837C235.468,281.28,229.4648,282.8464,226.8542,286.2393Zm15.9214,4.1787c-3.9148-.7832-6.5254-2.61-7.3077-5.4832l8.0915-1.0442a2.9721,2.9721,0,0,0,3.1412-1.0442v0a9.3329,9.3329,0,0,0-.7923-7.5719,19.0138,19.0138,0,0,0-4.6986-4.1787c6.0031-1.3056,10.45.7827,13.5819,6.0079,3.1331,4.959,2.3494,9.1355-2.3492,12.01C249.8333,290.6789,246.7006,291.2029,242.7756,290.418ZM260.7947,305.04c-10.44,5.7451-19.585,5.7451-27.6759-.2614l-2.8717-2.6118a11.5285,11.5285,0,0,1-2.6106-4.4379c-.7823-4.4372.7837-8.0937,4.96-11.2255a15.6121,15.6121,0,0,0,19.0639,5.4837h0c4.4377-1.5686,6.7869-4.1787,7.3077-7.8355a10.2352,10.2352,0,0,0-2.87-9.9205,19.2883,19.2883,0,0,0-9.1463-4.9617c6.7969-2.3493,13.0614-2.61,18.5418-.5225,6.0032,2.0885,9.1359,6.2667,9.6567,12.2723C275.9438,291.203,271.2351,299.034,260.7947,305.04Zm-63.4462-73.3688a157.9372,157.9372,0,0,0,26.1117,5.7452l8.6137.26,8.352.2614c13.8447,1.044,24.0242,4.6985,30.5483,11.2278a29.8545,29.8545,0,0,1,7.58,12.7949,27.6237,27.6237,0,0,1,.2613,17.7538c-1.8273-5.2227-4.7086-8.8793-8.8849-11.2278-4.9595-2.872-11.7444-3.3938-20.881-1.5669-12.0156,2.3494-19.3247,3.6573-21.9339,3.3935-9.9181-.7833-18.0222-4.6986-24.2868-12.27C196.3033,250.21,194.4765,241.3307,197.3485,231.6707ZM166.536,235.85c-6.5274-5.2228-11.7483-10.4456-15.1443-15.926A46.5223,46.5223,0,0,1,144.0826,195.9h0c0-6.0031,1.3065-12.531,3.9171-20.1032,3.3921-8.0962,5.7449-14.36,7.049-18.2776q1.1761,5.09,7.8338,11.7507a51.6335,51.6335,0,0,0-2.35,19.5829,44.5682,44.5682,0,0,0,3.6537,14.6193c4.441,10.7061,14.0977,19.8435,29.2462,26.8939a39.4709,39.4709,0,0,0,1.0437,19.8437c1.8269,6.2645,4.96,11.2259,9.3975,14.6218a16.6205,16.6205,0,0,1-4.96,9.3989c.7834-9.66-2.8715-17.4953-10.7065-24.0208A219.1058,219.1058,0,0,1,166.536,235.85Zm2.6125,24.02c1.8269,3.9178,4.9595,5.2228,9.1358,4.1787,3.92-1.0464,6.2694-3.6569,6.53-7.5742a15.17,15.17,0,0,0-.7838-6.7859,26.3554,26.3554,0,0,1,7.5739,6.7859,19.412,19.412,0,0,1,4.1763,9.9238,14.26,14.26,0,0,1-2.3482,10.4419,12.5007,12.5007,0,0,1-9.14,5.4841h-7.5737a18.4807,18.4807,0,0,1-7.57-3.3934q-3.5246-3.1361-3.9171-9.4009C164.7094,264.8317,166.0166,261.6972,169.1485,259.87Zm51.18,44.1255h0c2.35,2.3521,4.1765,4.179,5.22,5.4838,2.3489,3.1324,3.6554,6.0031,3.6554,8.6156a40.8365,40.8365,0,0,0-10.7118-1.5683,25.0781,25.0781,0,0,0-8.6149,1.5683c-8.0914,3.1322-14.3555,10.4428-18.7932,21.6712a77.5888,77.5888,0,0,0-4.9648,33.4194l-8.88-12.7924c-6.5243-8.354-10.7034-14.36-12.7915-18.0164-4.9583-8.0939-7.5719-15.1435-8.0928-21.6691a26.3927,26.3927,0,0,1,4.9614-18.0173,24.1894,24.1894,0,0,1,13.8347-9.9232l25.3285.7828C208.5706,295.9018,215.3594,299.2949,220.3288,303.9953ZM112.49,405.0362c4.1782-6.0032,8.6154-10.18,13.3155-12.7891a228.3741,228.3741,0,0,0,10.183,21.1512c5.2223,9.6582,8.6149,16.7045,10.4451,21.1424a92.6275,92.6275,0,0,1,5.7419,22.9772c.7856,10.18-1.3027,18.5416-6.7864,25.0671a43.3962,43.3962,0,0,1-44.6474,12.7915l3.9149-9.3975c1.8273-6.7869,2.0883-16.705,1.0451-30.0251-1.306-15.4007-1.8268-26.1121-1.0451-31.8543v0C105.44,417.8356,108.0525,411.571,112.49,405.0362Zm-23.2366-34.983c7.3106-9.9229,13.5764-15.4044,19.06-16.1874-.5235,9.1378-.261,20.8879,1.0436,35.7708l1.306,9.9179-5.2228,8.0921a41.145,41.145,0,0,0-3.9149,22.4563c-10.1845,4.96-16.7131,11.755-19.3217,20.89-8.0948,2.8717-16.71,3.394-26.3732,1.8285q-13.7069-2.349-21.1488-9.3958A95.6942,95.6942,0,0,0,62.3594,416.008h0a165.0817,165.0817,0,0,0,10.1843-17.4972A189.13,189.13,0,0,1,89.2534,370.0532Zm-18.7981-4.9594c1.3027,4.9593,5.2191,7.3087,12.0078,7.0473l-4.4357,7.3136-8.3576-.7881-3.1326.5218h0c-3.9168-1.0441-4.9614-4.4348-3.1348-10.44,1.3079-5.4833,3.3962-8.8766,6.0065-10.1819C70.1907,358.3024,70.4553,360.3928,70.4553,365.0938Zm-16.713,2.871c3.9183-6.0055,8.6171-9.9228,14.0994-12.0106q-7.4382,11.3567-7.05,17.2311c0,1.5683,1.0446,3.9172,2.8746,6.7859-1.83.5228-5.2223,2.093-10.1857,4.9648C49.3051,380.494,49.3051,374.7536,53.7423,367.9648ZM17.71,401.1211c.7837-.2615,1.0451-.2615,1.306.5213l1.047,3.1324c1.3041,3.3931,4.4372,4.9688,9.92,4.4372-4.7005,4.4477-8.8763,6.2746-12.5337,5.23-3.131-1.0441-4.4389-3.1324-4.1761-6.0132C13.5341,405.8189,15.102,403.47,17.71,401.1211ZM5.9621,410.7882a22.9832,22.9832,0,0,1,7.8334-9.4062l-1.8288,3.6542-.7829,3.9149a7.231,7.231,0,0,0,1.3071,5.4914c1.3046,1.8266,3.6543,2.6094,6.5255,2.8708q6.2667,0,14.0994-7.0571l9.1377-9.9181a50.25,50.25,0,0,1,13.3158-12.529c7.3136-4.9614,14.1-6.5276,20.1051-4.7009-7.31,19.3178-16.187,34.205-26.8935,44.6456-5.7418,5.7418-9.92,9.3953-12.7915,10.9627-7.05,3.9249-14.0991,4.4458-20.8874,1.5753-6.79-2.88-10.7071-8.1008-11.4908-15.1485A27.0061,27.0061,0,0,1,5.9621,410.7882ZM59.7489,461.957a11.4116,11.4116,0,0,0,6.7883,8.6216c3.9182,1.8268,7.8331,1.8268,11.49-.5223a20.7829,20.7829,0,0,1-4.4406,9.6585,10.3494,10.3494,0,0,1-9.138,3.9152C51.9154,482.8478,50.35,475.5386,59.7489,461.957Zm-7.5725,9.9262c0,7.0482,3.1333,11.4855,9.1379,13.0515,6.0066,1.8266,10.968,0,14.8829-5.22,2.35-2.8716,3.9182-7.3093,5.2228-12.8l2.872-11.4835h0c3.6549-12.0063,9.3968-18.8046,16.9692-20.3687a32.9166,32.9166,0,0,1,1.3072,8.3624l.5228,8.8729c1.0431,11.4855,1.0431,20.63-.2614,27.6777-1.5686,9.396-5.2229,15.9215-11.2286,19.585-3.9152,2.61-8.6157,3.6554-14.0994,3.3926A32.01,32.01,0,0,1,62.62,498.5177C51.6541,491.9821,48.2582,483.1073,52.1764,471.8832Zm140.2119-31.33c-2.3492,9.9183-7.3125,18.7913-14.8879,26.894A51.8368,51.8368,0,0,1,150.61,482.3255l3.1346-8.0934q4.6971-13.7159-3.9183-36.82c-2.088-5.7432-5.4809-13.0509-9.9195-22.1867-5.2228-10.1891-8.6176-17.4978-10.4457-21.9349a83.68,83.68,0,0,1-5.7436-18.0167,71.1167,71.1167,0,0,1-1.0432-21.1472c.7837-10.4447,4.96-21.6706,12.5306-33.419a66.4856,66.4856,0,0,1,10.4437-12.5331,44.3122,44.3122,0,0,1,13.58-9.14l1.0433-.5228a34.4851,34.4851,0,0,0-6.2661,12.7948,33.8608,33.8608,0,0,0,.2614,16.9712c2.3478,7.5739,8.0929,17.2339,17.2306,29.5064h0c9.3974,12.5311,15.4054,22.1878,17.7543,28.9823a86.0012,86.0012,0,0,1,5.4857,26.1108A81.27,81.27,0,0,1,192.3883,440.5532Z"/><path class="cls-2" d="M279.8584,250.4712c8.6137,10.9647,8.0914,26.8917-1.566,48.04a21.6048,21.6048,0,0,1-6.2027,7.5107c.2361-.0681.4658-.1426.7129-.2a8.2388,8.2388,0,0,1,8.3621,2.3521c1.8267,1.8266,2.87,3.6535,2.6089,5.7417-.2614,3.396-1.8266,5.4838-4.9581,6.267-3.4041.7835-5.4921-.5219-6.013-4.1765-.2609-1.0442-.2609-1.8269.5209-2.3508a2.6592,2.6592,0,0,1,2.62-.7828c1.0444.26,1.5652.7828,1.2945,1.8267-.25,1.3069-.7818,1.8268-1.8268,1.8268l-1.3046-.2591c1.0432,2.8716,2.8814,3.3939,5.49,1.3056,2.6106-2.0907,3.1333-4.1782,1.3065-6.5278-1.3065-1.8269-3.3947-2.3488-6.2746-2.0883a8.33,8.33,0,0,0-6.5255,3.6547c-.0386.0541-.0726.1155-.11.1709a9.5563,9.5563,0,0,1,1.1534,1.3972,17.6068,17.6068,0,0,1,2.611,9.9217l-1.5659,9.1372-1.306,5.4832-1.3044-1.3045c-1.0158-.61-2.9966-1.0641-6.0354-1.6043l-.49,1.6043a20.8613,20.8613,0,0,1-6.0035,7.8324,11.6523,11.6523,0,0,1-6.0032,2.8711,7.9942,7.9942,0,0,1-6.0124-1.3042,9.24,9.24,0,0,1-3.6542-4.9624,6.5943,6.5943,0,0,1,.2614-5.4832,7.2132,7.2132,0,0,1,5.22-3.3933,4.9188,4.9188,0,0,1,5.2307,2.8734,2.1015,2.1015,0,0,1-.7837,2.8708c-.7835.7837-1.8271.7837-2.61-.5218-.5324-1.0463-.2714-1.8291,1.0446-2.09a4.244,4.244,0,0,0-2.62-1.0437c-3.1315.5214-4.4375,2.3514-3.6538,5.4838.5223,3.1322,2.6106,4.7,6.0128,4.9614,2.87,0,5.4809-1.8292,7.83-5.2228a13.5053,13.5053,0,0,0,1.8274-4.701l.0819-.5182c-4.6528-.8858-7.823-2.5986-9.4777-4.9627a7.1761,7.1761,0,0,1-.5323-5.2223,4.6421,4.6421,0,0,1,3.4025-3.1349l4.9595-.2588a12.9717,12.9717,0,0,1,.2614-5.4838,8.2347,8.2347,0,0,1,1.1569-2.6812c-8.4695,2.2053-15.3941,1.427-21.0509-2.3309a22.7884,22.7884,0,0,0-3.0848,11.0161c0,3.6562.7835,9.14,2.61,16.1893a106.6442,106.6442,0,0,1,2.8705,16.1874c.2609,6.0055-1.0436,10.7065-3.9156,14.3608l-4.6981,4.4372-5.7423,4.1787c-4.9581,3.9175-9.1424,8.0939-12.0178,13.0552-2.61,3.9159-5.2208,9.9188-7.8312,17.4877-4.9582,14.3645-8.0909,32.1239-8.8732,53.005a162.4386,162.4386,0,0,0,.5208,20.8908c.7837,7.5692,2.6106,12.7886,5.2209,15.9313q7.0479,8.6127,23.5033,13.3124,16.4439,5.088,30.5475,2.3492c14.8778-2.6106,22.979-11.4857,24.0241-26.6342,1.3041-18.8012-2.62-39.6826-12.0175-62.6617a151.3011,151.3011,0,0,1-8.0915-16.1926c-2.87-6.7859-3.1314-13.05-1.3045-18.7923,1.566-4.9625,5.2195-10.1876,11.2226-15.668,7.3092-7.0473,11.7565-11.7483,13.3219-14.3606a65.3463,65.3463,0,0,0,6.5259-12.7925,32.0328,32.0328,0,0,1-1.5659,10.182,47.3582,47.3582,0,0,0,15.9213-6.7883,72.0516,72.0516,0,0,0,9.4582-7.7057l-3.7064-3.5205-7.0561-8.3549a29.68,29.68,0,0,1-4.6989-10.1838l6.2641,7.8322,6.7955,7.572a102.859,102.859,0,0,0,25.0573,17.7553,89.3415,89.3415,0,0,0,34.2125,8.6164l19.3141-.7856a68.3774,68.3774,0,0,0,16.9758-4.4372l7.0479-4.6977,5.7422-5.4842a50.0137,50.0137,0,0,0,9.9276-16.97,55.4122,55.4122,0,0,0,3.6536-18.0176c0-7.0492-1.5653-12.5335-4.9581-16.71-1.3061-1.8293-3.925-3.3934-7.319-5.2224-5.48-2.3511-12.0058-3.3929-20.0973-3.3929l-22.1954,2.0882-16.7145,3.9174a97.0272,97.0272,0,0,1-15.9213,3.1324c-12.2773,1.0441-22.4567,0-30.2882-3.396-4.1763-1.8268-6.5255-4.1765-7.3078-6.7883a103.244,103.244,0,0,0,9.6569,4.1788,42.8356,42.8356,0,0,0,11.7454,2.8731l6.014.2615c.1983-.0074.4106-.0241.6114-.0331,2.3769-12.0215-1.832-22.0325-12.6285-30.5177-6.127-4.853-9.5-11.2064-10.3787-19.3016a90.3376,90.3376,0,0,1-38.9719-.0182l-5.4923-1.2865-.2914.5383,1.8681.7482A28.9263,28.9263,0,0,1,279.8584,250.4712Zm-40.2141,72.8463c.7817-.26,1.0431-1.0442.5208-2.0907l.5223,0c.2614,1.0465,1.0451,1.3075,1.8269.7837l.2613.2628v.2609a1.3487,1.3487,0,0,0-.7822,1.8269,1.75,1.75,0,0,0-2.0882-.7828h-.2609Zm-.2614,6.2641c1.3046-.7827,1.3046-2.0882.2614-3.9149l.2609-.2614h.26c1.306,1.8276,2.6105,2.0881,3.9166,1.0439h.2594v.5228c-1.5655.7828-1.8269,2.0883-.7818,3.6537v.525h-.2614l-1.8268-1.5691c-.5223-.258-1.0451,0-1.8269.5247l-.5225-.2633Zm40.2144-3.9149c-1.8269.5219-2.0883,1.8266-1.3046,3.6568l-.2609.5194-.5228-.2614c-.7818-1.8268-1.8366-2.61-3.4022-1.8268l-.522-.2614.2609-.5214a2.6351,2.6351,0,0,0,1.5657-3.9149v-.5227l.5324.2613c.7834,2.0883,1.8266,2.8711,3.3925,2.3492l.5223.26Z"/><path class="cls-2" d="M265.8453,311.1331a9.7146,9.7146,0,0,1,1.0517-1.7381c-.7621.408-1.5482.8066-2.3762,1.1891.2351.0583.4711.12.7116.2005C265.4457,310.8912,265.6418,311.0163,265.8453,311.1331Z"/><path class="cls-5" d="M231.2919,307.3916a25.8719,25.8719,0,0,1-7.5706-12.7952,20.4525,20.4525,0,0,1-.5208-10.4452c.1453-.5335.3063-1.03.4663-1.5278-5.4167-4.03-12.304-6.83-20.45-8.6239l-.9106,1.2751a21.37,21.37,0,0,1-10.9612,8.3548,26.5314,26.5314,0,0,1-14.1059,1.8268c-4.9582-.7827-8.8732-2.871-11.4871-6.2641a15.6066,15.6066,0,0,1-1.0043-1.56c-19.468,7.9368-34.1872,22.1092-43.6425,42.5512-4.6986,9.9233-7.5722,21.6711-8.8763,34.987a170.0385,170.0385,0,0,0,1.3042,41.2524l6.79-6.2636,3.9171-3.1322-1.8269-6.2718a77.2284,77.2284,0,0,1-2.6125-16.4436,72.4964,72.4964,0,0,1,.5223-16.9735,76.2448,76.2448,0,0,1,6.7883-19.5831,83.9321,83.9321,0,0,1,10.1811-15.927,66.8924,66.8924,0,0,1,18.8011-15.6646,64.7576,64.7576,0,0,1,25.5835-7.8334A55.5577,55.5577,0,0,1,208.05,292.248c10.1905,4.4365,18.0205,11.2255,23.2418,20.6248l.0006-.0011,2.1859-3.73Z"/><path class="cls-6" d="M175.1512,292.7669a24.1894,24.1894,0,0,0-13.8347,9.9232,26.3927,26.3927,0,0,0-4.9614,18.0173c.5209,6.5256,3.1345,13.5752,8.0928,21.6691,2.0881,3.6563,6.2672,9.6624,12.7915,18.0164l8.88,12.7924a77.5888,77.5888,0,0,1,4.9648-33.4194c4.4377-11.2284,10.7018-18.539,18.7932-21.6712a25.0781,25.0781,0,0,1,8.6149-1.5683,40.8365,40.8365,0,0,1,10.7118,1.5683c0-2.6125-1.3065-5.4832-3.6554-8.6156-1.0432-1.3048-2.87-3.1317-5.22-5.4838h0c-4.9694-4.7-11.7582-8.0935-19.8491-10.4456Z"/><path class="cls-6" d="M189.2516,386.7658c-2.3489-6.7945-8.3569-16.4512-17.7543-28.9823h0c-9.1377-12.2725-14.8828-21.9325-17.2306-29.5064a33.8608,33.8608,0,0,1-.2614-16.9712,34.4851,34.4851,0,0,1,6.2661-12.7948l-1.0433.5228a44.3122,44.3122,0,0,0-13.58,9.14,66.4856,66.4856,0,0,0-10.4437,12.5331c-7.5706,11.7484-11.7469,22.9743-12.5306,33.419a71.1167,71.1167,0,0,0,1.0432,21.1472A83.68,83.68,0,0,0,129.461,393.29c1.8281,4.4371,5.2229,11.7458,10.4457,21.9349,4.4386,9.1358,7.8315,16.4435,9.92,22.1867q8.6176,23.1135,3.9183,36.82l-3.1346,8.0934A51.8368,51.8368,0,0,0,177.5,467.4472c7.5754-8.1027,12.5387-16.9757,14.8879-26.894a81.27,81.27,0,0,0,2.349-27.6766A86.0012,86.0012,0,0,0,189.2516,386.7658Z"/><path class="cls-4" d="M222.6785,366.3994a53.0129,53.0129,0,0,1-4.1864-14.6214,39.4252,39.4252,0,0,1,1.0533-15.927,22.5459,22.5459,0,0,1,3.6554-7.5739h0l5.2195-6.2665c-8.0914-3.3936-15.4071-2.8718-22.1987,1.8292-6.0033,3.9149-10.7,9.92-13.833,18.0143-2.3491,6.0065-3.6538,13.3159-4.181,21.9325-.2564,7.05,0,11.7507.7881,14.6191a26.806,26.806,0,0,0,3.1315,6.7907,97.1418,97.1418,0,0,1,6.5255,23.2328c.0529-.1491.1063-.2913.1592-.4393,4.391-12.2935,9.0424-21.0286,14.4627-26.4469.7838-1.3055,2.8686-3.1372,6.0094-5.7452l5.7436-4.7,0,0Z"/><path class="cls-2" d="M308.0572,351.2551a76.9238,76.9238,0,0,1-23.7613,10.4432c-.7837,1.8269-2.61,3.9152-4.96,6.2665a34.8792,34.8792,0,0,0-5.2295,6.2646c-2.3489,3.6537-4.4371,10.7065-6.264,20.8884-1.5657,9.1351-2.0881,15.921-1.3043,19.8459.2609,1.3053,1.3043,3.1322,2.87,6.0032a150.3971,150.3971,0,0,1,12.8,62.6631c8.6135,6.0027,20.0978,8.3521,34.4631,7.57,14.8776-1.3061,24.0234-6.2656,27.6777-14.8779,1.5654-3.6542,2.0875-8.6249,1.3041-15.149l-2.6106-15.6619c-4.1744-19.8457-11.4936-37.0821-21.934-51.4376l-8.0914-9.1377a20.3259,20.3259,0,0,1-4.96-10.4428q-1.1733-5.8767,3.1329-14.8831c3.1975-6.6442,4.986-11.4092,5.402-14.3417q-.1632-.1162-.3264-.2331Z"/><path class="cls-5" d="M62.3594,416.008h0a95.6942,95.6942,0,0,1-27.6777,27.4172q7.4423,7.0458,21.1488,9.3958c9.6634,1.5655,18.2784,1.0432,26.3732-1.8285,2.6086-9.1346,9.1372-15.93,19.3217-20.89a41.145,41.145,0,0,1,3.9149-22.4563l5.2228-8.0921-1.306-9.9179c-1.3046-14.8829-1.5671-26.633-1.0436-35.7708-5.4837.783-11.75,6.2645-19.06,16.1874a189.13,189.13,0,0,0-16.71,28.4576A165.0817,165.0817,0,0,1,62.3594,416.008Z"/><path class="cls-4" d="M63.6666,379.9712c-1.83-2.8687-2.8746-5.2176-2.8746-6.7859q-.3893-5.8723,7.05-17.2311c-5.4823,2.0878-10.1811,6.0051-14.0994,12.0106-4.4372,6.7888-4.4372,12.5292-.2614,16.9712C58.4443,382.0642,61.8366,380.494,63.6666,379.9712Z"/><path class="cls-4" d="M63.4023,368.7481c-1.8266,6.0055-.782,9.3962,3.1348,10.44h0l3.1326-.5218,8.3576.7881,4.4357-7.3136c-6.7887.2614-10.7051-2.088-12.0078-7.0473,0-4.701-.2646-6.7914-1.0465-6.5276C66.7985,359.8715,64.71,363.2648,63.4023,368.7481Z"/><path class="cls-5" d="M15.102,440.2918c6.7883,2.87,13.8377,2.35,20.8874-1.5753,2.8715-1.5674,7.05-5.2209,12.7915-10.9627,10.7065-10.4406,19.5831-25.3278,26.8935-44.6456-6.0046-1.8267-12.7915-.2605-20.1051,4.7009a50.25,50.25,0,0,0-13.3158,12.529l-9.1377,9.9181q-7.8313,7.0616-14.0994,7.0571c-2.8712-.2614-5.2209-1.0442-6.5255-2.8708a7.231,7.231,0,0,1-1.3071-5.4914l.7829-3.9149,1.8288-3.6542a22.9832,22.9832,0,0,0-7.8334,9.4062,27.0061,27.0061,0,0,0-2.3509,14.3551C4.3949,432.191,8.3117,437.4119,15.102,440.2918Z"/><path class="cls-6" d="M104.6566,424.1c-.7817,5.7422-.2609,16.4536,1.0451,31.8543,1.0432,13.32.7822,23.2382-1.0451,30.0251l-3.9149,9.3975a43.3962,43.3962,0,0,0,44.6474-12.7915c5.4837-6.5255,7.572-14.8876,6.7864-25.0671a92.6275,92.6275,0,0,0-5.7419-22.9772c-1.83-4.4379-5.2228-11.4842-10.4451-21.1424a228.3741,228.3741,0,0,1-10.183-21.1512c-4.7,2.6094-9.1373,6.7859-13.3155,12.7891-4.4375,6.5348-7.05,12.7994-7.8334,19.0635Z"/><path class="cls-5" d="M17.4492,414.4424c3.6574,1.0442,7.8332-.7827,12.5337-5.23-5.4823.5316-8.6154-1.0441-9.9195-4.4372l-1.047-3.1324c-.2609-.7828-.5223-.7828-1.306-.5213-2.6084,2.3491-4.1763,4.6978-4.4373,7.3081C13.01,411.31,14.3182,413.3983,17.4492,414.4424Z"/><path class="cls-6" d="M62.62,498.5177a32.01,32.01,0,0,0,14.8814,4.4358c5.4837.2628,10.1842-.7822,14.0994-3.3926,6.0057-3.6635,9.66-10.189,11.2286-19.585,1.3045-7.0478,1.3045-16.1922.2614-27.6777l-.5228-8.8729a32.9166,32.9166,0,0,0-1.3072-8.3624c-7.5724,1.5641-13.3143,8.3624-16.9692,20.3687h0L81.42,466.9151c-1.3046,5.49-2.8732,9.9282-5.2228,12.8-3.9149,5.22-8.8763,7.0464-14.8829,5.22-6.0046-1.566-9.1379-6.0033-9.1379-13.0515C48.2582,483.1073,51.6541,491.9821,62.62,498.5177Z"/><path class="cls-6" d="M64.4488,483.63a10.3494,10.3494,0,0,0,9.138-3.9152,20.7829,20.7829,0,0,0,4.4406-9.6585c-3.6571,2.3491-7.572,2.3491-11.49.5223a11.4116,11.4116,0,0,1-6.7883-8.6216C50.35,475.5386,51.9154,482.8478,64.4488,483.63Z"/><path class="cls-7" d="M257.223,335.069l-.0819.5182a13.5053,13.5053,0,0,1-1.8274,4.701c-2.3489,3.3936-4.96,5.2228-7.83,5.2228-3.4022-.2614-5.49-1.8292-6.0128-4.9614-.7837-3.1324.5223-4.9624,3.6538-5.4838a4.244,4.244,0,0,1,2.62,1.0437c-1.316.2614-1.577,1.0442-1.0446,2.09.7832,1.3055,1.8268,1.3055,2.61.5218a2.1015,2.1015,0,0,0,.7837-2.8708,4.9188,4.9188,0,0,0-5.2307-2.8734,7.2132,7.2132,0,0,0-5.22,3.3933,6.5943,6.5943,0,0,0-.2614,5.4832,9.24,9.24,0,0,0,3.6542,4.9624,7.9942,7.9942,0,0,0,6.0124,1.3042,11.6523,11.6523,0,0,0,6.0032-2.8711,20.8613,20.8613,0,0,0,6.0035-7.8324l.49-1.6043c-.8639-.1536-1.8-.3129-2.84-.4862C258.1905,335.253,257.7066,335.161,257.223,335.069Z"/><path class="cls-7" d="M267.9935,312.7824c.0377-.0554.0717-.1168.11-.1709a8.33,8.33,0,0,1,6.5255-3.6547c2.88-.26,4.9681.2614,6.2746,2.0883,1.8268,2.35,1.3041,4.4371-1.3065,6.5278-2.6091,2.0883-4.4473,1.566-5.49-1.3056l1.3046.2591c1.045,0,1.5767-.52,1.8268-1.8268.2707-1.0439-.25-1.5662-1.2945-1.8267a2.6592,2.6592,0,0,0-2.62.7828c-.7818.5239-.7818,1.3066-.5209,2.3508.5209,3.6546,2.6089,4.96,6.013,4.1765,3.1315-.7832,4.6967-2.871,4.9581-6.267.261-2.0882-.7822-3.9151-2.6089-5.7417a8.2388,8.2388,0,0,0-8.3621-2.3521c-.2471.0571-.4768.1316-.7129.2a34.2922,34.2922,0,0,1-5.1927,3.3731,9.7146,9.7146,0,0,0-1.0517,1.7381A9.8151,9.8151,0,0,1,267.9935,312.7824Z"/><path class="cls-7" d="M275.9438,322.7956l-.5324-.2613v.5227a2.6351,2.6351,0,0,1-1.5657,3.9149l-.2609.5214.522.2614c1.5656-.7828,2.62,0,3.4022,1.8268l.5228.2614.2609-.5194c-.7837-1.83-.5223-3.1349,1.3046-3.6568l.2613-.2615-.5223-.26C277.77,325.6667,276.7272,324.8839,275.9438,322.7956Z"/><path class="cls-7" d="M241.4711,329.5816l1.8268,1.5691h.2614v-.525c-1.0451-1.5654-.7837-2.8709.7818-3.6537v-.5228h-.2594c-1.3061,1.0442-2.6106.7837-3.9166-1.0439h-.26l-.2609.2614c1.0432,1.8267,1.0432,3.1322-.2614,3.9149l-.2612.2614.5225.2633C240.426,329.5816,240.9488,329.3236,241.4711,329.5816Z"/><path class="cls-7" d="M241.9934,324.3612a1.3487,1.3487,0,0,1,.7822-1.8269v-.2609l-.2613-.2628c-.7818.5238-1.5655.2628-1.8269-.7837l-.5223,0c.5223,1.0465.2609,1.83-.5208,2.0907v.2609h.2609A1.75,1.75,0,0,1,241.9934,324.3612Z"/><path class="cls-8" d="M255.575,321.49l-4.9595.2588a4.6421,4.6421,0,0,0-3.4025,3.1349,7.1761,7.1761,0,0,0,.5323,5.2223c1.6547,2.3641,4.8249,4.0769,9.4777,4.9627.4836.092.9675.184,1.4835.2577,1.04.1733,1.9758.3326,2.84.4862,3.0388.54,5.02.9942,6.0354,1.6043l1.3044,1.3045,1.306-5.4832,1.5659-9.1372a17.6068,17.6068,0,0,0-2.611-9.9217,9.5563,9.5563,0,0,0-1.1534-1.3972,9.8151,9.8151,0,0,0-2.1482-1.6493c-.2035-.1168-.4-.2419-.6129-.3485-.24-.08-.4765-.1422-.7116-.2005q-1.5452.7139-3.243,1.369a4.8481,4.8481,0,0,1,1.0841-.1254,9.6007,9.6007,0,0,1,4.1766,1.3055,6.674,6.674,0,0,1,2.6084,3.393c1.3065,3.3962,1.5679,8.3576.5228,14.6243l-1.0436,3.9152-.2609,1.829c-.7836-.7854-4.6986-2.09-11.4855-3.3959-5.48-1.0431-8.3522-3.1312-8.3522-6.5269-.2614-1.827.7835-3.1321,2.8718-3.9149l6.0031.26c-1.3045-5.4832-.5227-8.8792,2.3492-10.7061v0c.1505-.1.3021-.1821.4542-.2631-.24.0874-.4719.1776-.7159.2634-.8486.2692-1.6772.5-2.4966.7137a8.2347,8.2347,0,0,0-1.1569,2.6812A12.9717,12.9717,0,0,0,255.575,321.49Z"/><path class="cls-2" d="M259.7516,312.6114c-2.8719,1.8269-3.6537,5.2229-2.3492,10.7061l-6.0031-.26c-2.0883.7828-3.1332,2.0879-2.8718,3.9149,0,3.3957,2.8718,5.4838,8.3522,6.5269,6.7869,1.3055,10.7019,2.6105,11.4855,3.3959l.2609-1.829,1.0436-3.9152c1.0451-6.2667.7837-11.2281-.5228-14.6243a6.674,6.674,0,0,0-2.6084-3.393,9.6007,9.6007,0,0,0-4.1766-1.3055,4.8481,4.8481,0,0,0-1.0841.1254c-.3494.1347-.7128.2641-1.072.3951-.1521.081-.3037.1629-.4542.2631Z"/><path class="cls-1" d="M385.0755,137.1538l-3.3857-.7812c7.3041,2.3452,13.3152,1.5642,18.2737-2.6126a18.2354,18.2354,0,0,0,6.1774-12.8578,18.5338,18.5338,0,0,1-5.394,11.8141C396.83,136.8923,391.6011,138.459,385.0755,137.1538Z"/><path class="cls-1" d="M392.1232,91.4616l-2.0882,5.7452-2.35,6.0061a12.9845,12.9845,0,0,0,.7823,8.8758c1.0451,2.8737,2.6106,4.7015,4.4374,5.4842a15.16,15.16,0,0,0,9.6685.7828c2.3492-.5213,3.6538-.2609,3.6538.5228,0,.2285-.0223.4473-.0286.673.0056-.2269.0288-.4429.0288-.6734,0-.7837-1.3045-1.0441-3.6538-.5228a15.159,15.159,0,0,1-9.6683-.7828c-1.8269-.7827-3.3924-2.6105-4.4375-5.4841a12.9842,12.9842,0,0,1-.7822-8.8759l2.35-6.0061,2.0883-5.7451a44.4389,44.4389,0,0,0-2.6106-32.8991l0,0A44.4377,44.4377,0,0,1,392.1232,91.4616Z"/><path class="cls-1" d="M216.143,140.5492c1.0545-.2637,1.3042-.5223,1.0545-1.3079a102.5457,102.5457,0,0,1-7.8428-16.9711,85.969,85.969,0,0,1-4.4376-19.0577,48.8982,48.8982,0,0,1,.2614-8.619c.5221-3.6535,1.3038-6.0031,2.61-7.3082.7818-1.0463,2.8746-1.83,6.5289-2.09a35.6578,35.6578,0,0,1,8.4206-.304l-2.6711-3.3523,0,0c-7.0544,0-12.2784,1.0464-15.15,2.8732-1.3046.7832-2.0883,2.6105-2.6105,4.9618l-.7823,6.2642-.0005.0008-.7686,7.4924a68.5748,68.5748,0,0,0,2.5964,13.9192,57.3259,57.3259,0,0,0,4.1759,11.2265l-.0005,0h0l.2614,2.3488,0,0,2.8746,3.6568-.0006,0h0l1.0451,2.0882-.6526.652,1.6963.13-.0005,0,1.0451,2.6122v0l0,0A2.228,2.228,0,0,0,216.143,140.5492Z"/><path class="cls-9" d="M242.5142,164.5691l5.7517-1.5659q.3923,23.1071,17.2274,34.4626c-3.3929,1.8307-5.48,3.9182-5.7419,6.267q5.8725-4.6983,18.0189-6.267L297.6082,195.9c9.4058-.7832,15.9312-3.6545,19.3236-9.1377a29.8494,29.8494,0,0,0,4.1763-10.1819,37.8917,37.8917,0,0,0-4.1763-26.6329,34.8227,34.8227,0,0,0-18.28-15.9269c1.827-.2609,4.1759.2614,7.0478,1.0442l6.5334,2.35c-2.6084-3.3938-6.785-6.0032-12.7975-7.8334l0,0-.0006.0005-2.35,1.0442-1.3058,2.8732-.7823,1.3055-.5217.2606q10.5717,1.9582,18.0188,12.5338c5.2211,7.0474,7.57,14.36,7.0482,22.454a29.1374,29.1374,0,0,1-3.1332,12.0087,18.44,18.44,0,0,1-8.3523,8.3574q7.4394-10.5745,6.2641-25.85a32.943,32.943,0,0,0-6.7849-17.4929,44.7222,44.7222,0,0,0-12.7994-11.2284c-.4714-.1569-.6547-.3136-.6159-.4706l-.1682-.05-1.3046,1.3045-2.0878,1.3069h0l2.3492.78,6.0031,3.3961a33.3153,33.3153,0,0,1,12.5385,19.0616c2.35,9.9207.2609,20.1025-6.7966,30.5477l-1.3046.5219a38.3833,38.3833,0,0,1-8.3521.2609l4.1763-7.0492a55.234,55.234,0,0,0,2.87-7.5725c1.5734-8.9873-.5372-16.6172-6.3086-23.0637a8.8159,8.8159,0,0,1-3.087,6.0915,9.4729,9.4729,0,0,1-6.7869,2.8731,8.54,8.54,0,0,1-7.0464-2.61,9.7586,9.7586,0,0,1-3.1431-7.05,9.6506,9.6506,0,0,1,2.8818-7.05,10.3723,10.3723,0,0,1,1.9855-1.5454,26.8218,26.8218,0,0,0-15.5685,1.5454,62.1426,62.1426,0,0,0-7.5687,3.6545,26.9534,26.9534,0,0,1,13.5714-13.8385l-2.0882-1.3051-1.0432-1.0441-.6009-1.0381a31.4247,31.4247,0,0,1-14.538-1.8353,82.5358,82.5358,0,0,1-10.9709-6.0032,16.5256,16.5256,0,0,0,6.5336,8.8763,26.0307,26.0307,0,0,0,10.9632,4.96c-2.8706,3.1343-8.0915,4.4389-15.4085,3.6561a50.5842,50.5842,0,0,1-14.0961-3.3933c1.8283,3.3933,5.4823,6.0037,10.7013,7.8334q6.6569,2.74,11.7569,2.349c-.5228,1.8269-2.0884,4.178-4.97,6.5274a19.5774,19.5774,0,0,1-12.006,4.9614l-1.5659-3.1345a.5206.5206,0,0,0-.1387-.0954l1.7043,3.23v2.6106l0,.0008v-.0008Zm45.1746,17.4925c1.0451-1.0442,2.088-1.3046,3.1326-.5219l1.566,1.3055v0a3.1472,3.1472,0,0,1,3.1328-2.0883c1.5657,0,2.3475.7828,2.0881,2.6123-.2609,2.6105-2.349,4.9592-5.7433,7.05l-3.1311-3.1345C286.907,184.9357,286.6455,183.3693,287.6888,182.0616Z"/><path class="cls-10" d="M366.0211,41.5916c-1.0432-3.9156-3.1408-7.8329-6.2741-12.27h0a60.6193,60.6193,0,0,0-9.3953-10.4458A64.4031,64.4031,0,0,0,328.4173,6.6043,65.97,65.97,0,0,0,299.9565,2.95c-16.1829,1.305-28.46,7.05-37.0737,17.4924,5.4823,1.3055,10.9629,4.1787,16.9758,8.6185,4.1759-7.0521,8.3524-12.272,12.79-15.6658a30.99,30.99,0,0,1,20.368-7.3133c9.1366-.2609,16.1829,3.1346,21.4038,9.663q7.4522,9.79,6.2738,24.2807l-1.3057,11.226-.7823,12.0121c0,4.4386.2614,7.049,1.0437,8.3545l.0008.0006,5.4815,4.1772a41.6959,41.6959,0,0,1,8.35,7.5719l4.96,6.267,4.4377,6.0032.0468-.3268,3.8776-27.0862Q368.7617,52.5562,366.0211,41.5916Z"/><path class="cls-10" d="M336.5187,52.82,338.3455,36.89q.3913-13.3145-7.0578-21.1459h0c-4.9586-5.2229-11.4841-7.5725-19.3141-7.3135-12.7994.7852-22.9789,8.3576-30.288,22.7177,3.9146,4.1762,7.57,8.3547,10.7012,12.2694l.0006.0007,2.0882-7.3108a38.2651,38.2651,0,0,1,2.8718-7.8326c3.1314-6.5278,6.5254-9.9214,9.9276-10.4432,3.1314-.2609,5.7418,1.3043,7.5691,4.9591l3.3941,9.1406,2.0882,3.6558,2.0878,3.9161,2.87,9.1373v7.05l1.5655,3.9172a24.2846,24.2846,0,0,1,1.5674,6.5284,56.5225,56.5225,0,0,1,7.3161,3.1318l.0014.0006A60.93,60.93,0,0,1,336.5187,52.82Z"/><path class="cls-2" d="M311.4512,22.5327h0c-2.3495-2.352-4.96-1.8293-7.5785,1.3055-1.8286,1.8266-3.6555,4.9614-5.2209,9.1372A38.6936,38.6936,0,0,0,295.78,43.6819c6.264-1.83,12.5385-5.7451,19.0639-11.4892C314.8441,27.7555,313.8009,24.36,311.4512,22.5327Z"/><path class="cls-10" d="M275.6724,30.8872v0q-9.7882-7.8335-19.5745-8.6158c-6.526-.2628-12.0162,1.3055-15.9328,5.22-4.1763,4.1787-4.9581,9.14-2.088,14.6239,1.5672,3.1324,4.96,5.7428,9.92,7.57l14.104,3.9178a87.4363,87.4363,0,0,1,10.9619,4.44l8.8835,4.4365.001,0c1.3045-4.9591,3.9149-10.1819,7.3092-15.6652h0A57.0083,57.0083,0,0,0,275.6724,30.8872Z"/><path class="cls-10" d="M219.2839,68.4856a20.2611,20.2611,0,0,0,7.8318,14.0992q5.8726,4.3063,15.66,4.7l18.28-1.83c8.3522-1.5654,14.3553-2.3491,18.28-2.0882a37.1711,37.1711,0,0,1,11.224,2.3521,27.1992,27.1992,0,0,0-7.83-16.9736c-3.3942-3.3952-8.6239-6.5269-15.1491-9.3988v0c-10.7019-3.1345-18.2706-6.0055-22.7176-8.354-7.5691-3.9182-11.2229-10.4452-10.9634-19.0613-4.4358,3.3933-8.0912,8.6162-11.2222,15.6656C219.5452,55.1684,218.492,62.2191,219.2839,68.4856Z"/><path class="cls-2" d="M287.1193,67.4238c1.5515.9425,4.5212.8974,8.9219.0176a61.5084,61.5084,0,0,0,13.3221-4.44c8.0915-3.9151,12.2678-7.8334,12.79-11.2259.2609-2.3516-.2614-5.4838-2.0882-9.4013-1.5675-3.6545-3.1332-6.2667-4.6986-7.5718l0,0L305.7,41.5916a37.8973,37.8973,0,0,1-12.2673,4.9614l-4.96,8.0936a30.716,30.716,0,0,0-2.6106,10.7041,2.8168,2.8168,0,0,0,.3608,1.17A2.52,2.52,0,0,0,287.1193,67.4238Z"/><path class="cls-4" d="M191.6047,72.4029c7.0478-4.44,14.8777-5.7452,23.7547-3.6569A53.3126,53.3126,0,0,1,216.9268,53.08a48.3356,48.3356,0,0,1,4.7064-12.0109c-8.0974-1.0441-15.6732,0-22.1972,3.396v0A54.2573,54.2573,0,0,0,176.98,64.8284a76.0836,76.0836,0,0,0-9.92,31.8557,87.8338,87.8338,0,0,1,10.7013-7.3106A33.25,33.25,0,0,1,191.6047,72.4029Z"/><path class="cls-10" d="M379.0726,113.1329l5.2195-10.7037,3.6549-7.0506,2.6111-7.31a39.7779,39.7779,0,0,0-.7837-20.6276,33.7716,33.7716,0,0,0-8.3529-15.1437l-4.96-4.179a17.2081,17.2081,0,0,0-6.5256-2.8708v.7828c1.0452,7.0495.7838,15.6656-.5208,25.3285l-4.1758,23.2343c-.2117,2.75.6217,7.0662,2.4638,12.8957.433,1.37.9045,2.7985,1.451,4.3392,2.87,7.5706,4.9582,12.269,6.7866,13.8376l0,0A36.834,36.834,0,0,1,379.0726,113.1329Z"/><path class="cls-2" d="M291.7927,72.6156c1.6647,1.3514,5.1595,2.1933,10.2515,2.3974l13.5835-.5214c4.9581-1.0446,8.091-2.8738,8.8733-5.4842.7835-2.8709,0-6.5278-2.0868-11.2284l-14.357,8.3573a51.9792,51.9792,0,0,1-17.2358,5.2229l0,0A3.02,3.02,0,0,0,291.7927,72.6156Z"/><path class="cls-4" d="M203.6125,69.79c-4.6986.5221-9.136,2.6128-13.5732,6.0054-4.1811,3.3938-6.79,7.0506-7.8353,10.7065q11.7529-7.4454,35.2432-10.1838l-1.3041-4.7005A19.4679,19.4679,0,0,0,203.6125,69.79Z"/><path class="cls-2" d="M307.014,107.65a24.47,24.47,0,0,1-2.0981,12.0112,49.0428,49.0428,0,0,1-5.48,9.92l0,0c6.0125,1.83,10.1891,4.44,12.7975,7.8334l-6.5334-2.35c-2.8719-.7828-5.2208-1.3051-7.0478-1.0442a34.8227,34.8227,0,0,1,18.28,15.9269,37.8917,37.8917,0,0,1,4.1763,26.6329,29.8494,29.8494,0,0,1-4.1763,10.1819c-3.3924,5.4832-9.9178,8.3545-19.3236,9.1377L277.77,197.4658q-12.1512,1.57-18.0189,6.267c.2615-2.3488,2.349-4.4363,5.7419-6.267q-16.834-11.3529-17.2274-34.4626l-5.7517,1.5659-7.3073-.5218v.0008a40.87,40.87,0,0,1-10.4408,27.9373c11.2226,4.1763,19.8364,9.3986,25.8493,15.4042,7.3092,7.5715,11.7462,16.97,13.0509,28.46l0,0a61.3926,61.3926,0,0,0,20.6293,4.6988,96.9668,96.9668,0,0,0,42.0333-6.7869,108.7346,108.7346,0,0,0,30.5482-18.5394c-3.3948-1.8268-5.4823-3.3933-6.0032-5.2224,7.3078,3.3956,14.1039,4.9615,20.3685,4.1787a25.8235,25.8235,0,0,0,13.0495-5.7446,21.804,21.804,0,0,0,7.3093-13.0558c1.3041-6.2658-.5229-10.1819-5.481-11.4885-1.0445,1.0463-1.5674,2.8732-1.8283,5.4828l-.5208,5.4841-2.6111,2.8708-4.1758,1.0466c-3.3926,0-7.3077-1.3079-11.4936-4.1788-3.9149-3.3951-7.048-5.4828-8.8748-6.2664-.5223.2609-.7837,1.0436-1.0452,1.83v2.61c-2.87-1.8268-3.3921-4.9614-1.5655-9.6624q2.3482-7.0467,6.2641-2.3487c-.2609,2.0883-.7818,3.6564-1.8266,4.4391a41.4367,41.4367,0,0,0,8.6235,2.0883,20.7129,20.7129,0,0,0,11.7449-1.8269l8.6136-5.4842a27.5566,27.5566,0,0,0,5.4806-2.8707c2.3594-1.3055,3.6652-2.0883,4.1861-2.8735,1.8268-2.3494,2.3492-6.7887,1.0451-13.3163-1.0451-6.2665-2.6108-10.7045-4.4475-13.0529a16.3632,16.3632,0,0,0-3.1309-2.3516l-3.9169-1.8266a24.5746,24.5746,0,0,1-7.83-6.79,52.5926,52.5926,0,0,1-5.7418-9.9207l-6.0032-13.5773a86.2239,86.2239,0,0,0-15.41-25.8477c-7.3072-8.3568-15.1373-14.0992-23.7609-16.97-1.8268,3.6541-6.7869,6.0031-14.617,6.7863h0a51.7858,51.7858,0,0,1-20.1071-1.3055l0,.0008a36.2189,36.2189,0,0,1,1.5657,10.4444C302.3056,93.028,306.23,100.0772,307.014,107.65Zm71.275,36.292v0c1.5674,2.3519,4.1758,4.7015,8.0928,7.05q2.74,1.9569.7818,3.1339c-1.3045.7835-3.3923-.2605-5.742-2.612C379.0727,149.1644,378.0291,146.5547,378.289,143.9416Zm-11.2227,4.44c1.5652,2.61,4.1762,4.959,7.83,7.3109,2.0883,1.305,2.35,2.0878.7838,2.871-1.3063.7828-3.3941,0-5.7438-2.35A9.8735,9.8735,0,0,1,367.0663,148.3816Z"/><path class="cls-6" d="M202.3066,89.3735c.5222-2.3513,1.3059-4.1786,2.6105-4.9618,2.8716-1.8268,8.0956-2.8732,15.15-2.8732h0L218.763,79.45l-.5223-.7828a75.98,75.98,0,0,0-21.6759,4.9615c-7.83,2.8731-14.0994,6.0055-19.0642,9.92-10.9645,8.3576-18.0109,17.4954-21.4069,27.4166a45.8451,45.8451,0,0,0-1.306,24.5424c1.5674,8.3571,4.96,14.8845,9.9217,19.5831a59.16,59.16,0,0,1,8.3535-13.8389,65.0462,65.0462,0,0,1,11.2294-11.2256l6.2693-4.7a10.5872,10.5872,0,0,0,3.3921-6.267l1.0452-14.0975a48.6446,48.6446,0,0,1,2.8705-13.84l3.6544-5.4833.0005-.0008Z"/><path class="cls-2" d="M235.207,161.4366a19.5774,19.5774,0,0,0,12.006-4.9614c2.8816-2.3494,4.4472-4.7005,4.97-6.5274q-5.0922.3906-11.7569-2.349c-5.219-1.83-8.873-4.44-10.7013-7.8334a50.5842,50.5842,0,0,0,14.0961,3.3933c7.317.7828,12.5379-.5218,15.4085-3.6561a26.0307,26.0307,0,0,1-10.9632-4.96,16.5256,16.5256,0,0,1-6.5336-8.8763,82.5358,82.5358,0,0,0,10.9709,6.0032,31.4247,31.4247,0,0,0,14.538,1.8353c.0265-.0028.0525-.0035.0789-.0063a12.7269,12.7269,0,0,1-.5208-3.9173c0-1.8268.26-2.61.7822-2.0882a7.6611,7.6611,0,0,0,6.0032.7837,10.0218,10.0218,0,0,0,6.0125-2.8718q6.2644-5.8761-2.359-12.5334c-11.2227.2614-20.0973-1.3045-26.3619-4.1778-7.5785-3.3938-11.7548-9.3993-13.0589-17.7538-2.8719.2614-6.2645-.7828-9.92-2.871l0,0-4.6967-3.1346c-.15-.0167-.3082-.029-.4624-.0435a35.6578,35.6578,0,0,0-8.4206.304c-3.6543.2608-5.7471,1.0441-6.5289,2.09-1.3065,1.3051-2.0882,3.6547-2.61,7.3082a48.8982,48.8982,0,0,0-.2614,8.619,85.969,85.969,0,0,0,4.4376,19.0577,102.5457,102.5457,0,0,0,7.8428,16.9711c.25.7856,0,1.0442-1.0545,1.3079a2.228,2.228,0,0,1-2.3462-.7837l0,0a15.8913,15.8913,0,0,0-3.66,10.4423c0,4.1765,1.3106,7.3111,4.1812,9.66,4.9662,3.6563,9.6648,4.1787,13.8411,1.8294l3.6537-2.8736c.8882-.6652,1.3963-.7625,1.69-.6177a.5206.5206,0,0,1,.1387.0954Zm-19.3252-65.799a39.6348,39.6348,0,0,0,4.9693,10.9679l6.0031,8.0939,3.1315,3.9172c1.3065,2.0883,1.0451,3.3932-1.0432,3.6536v0c-1.8268.2615-4.6986-2.8707-8.0914-9.1372C217.1975,106.6055,215.62,100.599,215.8818,95.6376Z"/><path class="cls-10" d="M274.3682,86.2389l-31.8539,3.6569q-.3913,14.8808,17.2372,18.0143l15.139,1.83c6.0132.7828,10.71,2.3482,13.8432,4.437,4.4373,2.8732,7.0464,6.5279,7.83,11.4893,3.9152-2.8735,6.2641-7.3111,6.7863-13.838.2615-6.0065-.7834-11.49-3.6535-15.9294C295.2593,89.1125,286.9068,85.9785,274.3682,86.2389Z"/><path class="cls-6" d="M203.3516,117.05a68.5748,68.5748,0,0,1-2.5964-13.9192c-.0041-.0589-.0107-.1214-.0146-.18-2.61,4.9591-3.6536,14.6215-3.1312,28.7185v0a55.9844,55.9844,0,0,1,9.9176-3.3927l.0005,0A57.3259,57.3259,0,0,1,203.3516,117.05Z"/><path class="cls-10" d="M379.595,121.7488c-1.0451,4.9614-.5223,8.6161,1.8266,10.9669,3.9152,3.6548,8.8751,3.9152,14.3656.7828,5.48-3.1336,7.83-7.31,7.5684-12.7936a17.0239,17.0239,0,0,1-12.538-1.0441,22.036,22.036,0,0,1-7.3078-8.0939A34.3267,34.3267,0,0,0,379.595,121.7488Z"/><path class="cls-10" d="M284.0345,114.6994c.7841,4.7,0,8.6149-2.61,11.4893-2.3478,3.1345-6.0132,4.7-10.45,4.9614,1.5673,4.1763,5.4822,6.0032,11.7564,5.7418,6.0032-.2609,9.9181-2.61,11.2226-6.7859a9.8932,9.8932,0,0,0-1.5659-9.9238A13.9686,13.9686,0,0,0,284.0345,114.6994Z"/><path class="cls-5" d="M207.7888,130.6254l0,0a63.8257,63.8257,0,0,0-28.72,18.2783c-8.8749,9.3982-13.8366,19.8409-15.1424,31.3307a47.63,47.63,0,0,0,1.3058,15.927A37.15,37.15,0,0,0,171.236,210c8.0915,11.7507,22.9791,19.583,44.3843,22.9763l43.87,3.6563q1.1755-11.7481-8.6138-23.5008a55.1869,55.1869,0,0,0-29.764-18.7973c-9.6652,5.7452-19.3267,6.0061-28.4628,1.0439-9.1411-4.959-13.5816-13.055-13.5816-24.281a33.5222,33.5222,0,0,1,9.6667-24.0208,46.1983,46.1983,0,0,1,21.9281-12.7937l.0006,0Z"/><path class="cls-2" d="M294.737,135.8477a44.7222,44.7222,0,0,1,12.7994,11.2284,32.943,32.943,0,0,1,6.7849,17.4929q1.1755,15.2757-6.2641,25.85a18.44,18.44,0,0,0,8.3523-8.3574,29.1374,29.1374,0,0,0,3.1332-12.0087c.5223-8.0938-1.8271-15.4066-7.0482-22.454q-7.4371-10.5744-18.0188-12.5338h0c-.2081.1041-.3288.2082-.3545.3121C294.0823,135.5341,294.2656,135.6908,294.737,135.8477Z"/><path class="cls-5" d="M211.0555,137.0226l-1.7007-.1308c-9.1366,2.8736-16.4442,8.6164-21.93,17.4929-6.2641,9.9238-7.0478,19.583-2.3491,29.2453a24.93,24.93,0,0,0,6.2693,7.57,20.8414,20.8414,0,0,0,11.2226,4.4391c9.3968.7832,16.9774-1.8266,22.46-7.8322,4.9581-5.4837,7.5687-13.0538,7.5687-22.1939a27.593,27.593,0,0,1-11.4839,10.4433q-8.2382,4.31-15.6729,0a15.7524,15.7524,0,0,1-6.0035-5.7419,21.7847,21.7847,0,0,1-2.61-8.8775,23.7663,23.7663,0,0,1,4.96-14.8819,79.1616,79.1616,0,0,1,10.9656-9.4012l.0005,0Z"/><path class="cls-11" d="M257.4024,150.7306a62.1426,62.1426,0,0,1,7.5687-3.6545,26.8218,26.8218,0,0,1,15.5685-1.5454,11.7018,11.7018,0,0,1,5.0608-1.5891,9.6292,9.6292,0,0,1,7.0482,2.8742,9.7361,9.7361,0,0,1,3.1315,7.05l0,0c0,.3261-.0176.6434-.0445.9559,5.7714,6.4465,7.882,14.0764,6.3086,23.0637a55.234,55.234,0,0,1-2.87,7.5725l-4.1763,7.0492a38.3833,38.3833,0,0,0,8.3521-.2609l1.3046-.5219c7.0575-10.4452,9.1463-20.627,6.7966-30.5477a33.3153,33.3153,0,0,0-12.5385-19.0616l-6.0031-3.3961-2.3492-.78h0c-7.5692,2.6111-14.1039,2.3473-19.5862-1.0463l-.0005,0A26.9534,26.9534,0,0,0,257.4024,150.7306Z"/><path class="cls-5" d="M212.4908,161.6979c-6.0084-4.9614-7.0513-11.2283-3.3973-18.8H208.31q-6.2644,3.5271-8.6122,12.5333c-1.8281,6.5279-.7836,12.0092,2.6091,15.9272,3.9149,4.9614,9.6582,6.0055,16.7179,3.3944,7.0463-2.3505,11.2226-6.5268,12.5285-12.272C224.5052,166.9179,218.2407,166.6572,212.4908,161.6979Z"/><path class="cls-6" d="M198.9139,274.2306a16.6205,16.6205,0,0,0,4.96-9.3989c-4.4379-3.3959-7.5706-8.3573-9.3975-14.6218a39.4709,39.4709,0,0,1-1.0437-19.8437c-15.1485-7.05-24.8052-16.1878-29.2462-26.8939a44.5682,44.5682,0,0,1-3.6537-14.6193,51.6335,51.6335,0,0,1,2.35-19.5829q-6.6565-6.66-7.8338-11.7507c-1.3041,3.9173-3.6569,10.1814-7.049,18.2776-2.6106,7.5722-3.9171,14.1-3.9171,20.1032h0a46.5223,46.5223,0,0,0,7.3091,24.0233c3.396,5.48,8.6169,10.7032,15.1443,15.926a219.1058,219.1058,0,0,0,21.6714,14.36C196.0424,256.7353,199.6973,264.57,198.9139,274.2306Z"/><path class="cls-5" d="M202.8288,258.0429c6.2646,7.5715,14.3687,11.4868,24.2868,12.27,2.6092.2638,9.9183-1.0441,21.9339-3.3935,9.1366-1.8269,15.9215-1.3051,20.881,1.5669,4.1763,2.3485,7.0576,6.0051,8.8849,11.2278a27.6237,27.6237,0,0,0-.2613-17.7538,29.8545,29.8545,0,0,0-7.58-12.7949c-6.5241-6.5293-16.7036-10.1838-30.5483-11.2278l-8.352-.2614-8.6137-.26a157.9372,157.9372,0,0,1-26.1117-5.7452C194.4765,241.3307,196.3033,250.21,202.8288,258.0429Z"/><path class="cls-6" d="M169.1485,278.9307a18.4807,18.4807,0,0,0,7.57,3.3934h7.5737a12.5007,12.5007,0,0,0,9.14-5.4841,14.26,14.26,0,0,0,2.3482-10.4419,19.412,19.412,0,0,0-4.1763-9.9238,26.3554,26.3554,0,0,0-7.5739-6.7859,15.17,15.17,0,0,1,.7838,6.7859c-.2609,3.9173-2.6106,6.5278-6.53,7.5742-4.1763,1.0441-7.3089-.2609-9.1358-4.1787-3.1319,1.8274-4.4391,4.9619-3.9171,9.66Q165.6235,275.7968,169.1485,278.9307Z"/><path class="cls-5" d="M265.4933,268.7464c-5.48-2.0878-11.7449-1.8268-18.5418.5225a19.2883,19.2883,0,0,1,9.1463,4.9617,10.2352,10.2352,0,0,1,2.87,9.9205c-.5208,3.6568-2.87,6.2669-7.3077,7.8355h0a15.6121,15.6121,0,0,1-19.0639-5.4837c-4.1761,3.1318-5.7421,6.7883-4.96,11.2255a11.5285,11.5285,0,0,0,2.6106,4.4379l2.8717,2.6118c8.0909,6.0065,17.2354,6.0065,27.6759.2614,10.44-6.0055,15.1491-13.8365,14.3553-24.0208C274.6292,275.0131,271.4965,270.8349,265.4933,268.7464Z"/><path class="cls-5" d="M252.4424,289.1135c4.6986-2.8742,5.4823-7.0507,2.3492-12.01-3.1315-5.2252-7.5788-7.3135-13.5819-6.0079a19.0138,19.0138,0,0,1,4.6986,4.1787,9.3329,9.3329,0,0,1,.7923,7.5719v0a2.9721,2.9721,0,0,1-3.1412,1.0442l-8.0915,1.0442c.7823,2.8732,3.3929,4.7,7.3077,5.4832C246.7006,291.2029,249.8333,290.6789,252.4424,289.1135Z"/><path class="cls-5" d="M244.864,281.28c.2609-1.8266-.5228-3.6564-2.0883-5.4837a7.8015,7.8015,0,0,0-6.5255-2.61,8.39,8.39,0,0,0-6.7854,4.7005c-1.306,1.8273-2.0882,4.6982-2.6106,8.3524C229.4648,282.8464,235.468,281.28,244.864,281.28Z"/><path class="cls-1" d="M228.9425,122.27v0c2.0883-.26,2.35-1.5653,1.0432-3.6536l-3.1315-3.9172-6.0031-8.0939a39.6348,39.6348,0,0,1-4.9693-10.9679c-.2615,4.9614,1.3157,10.9679,4.9693,17.4953C224.2439,119.3994,227.1157,122.5316,228.9425,122.27Z"/><path class="cls-1" d="M387.1636,154.1258q1.9565-1.1778-.7818-3.1339c-3.917-2.3489-6.5254-4.6985-8.0928-7.05v0c-.26,2.6131.7837,5.2228,3.1326,7.5722C383.7713,153.8653,385.8591,154.9093,387.1636,154.1258Z"/><path class="cls-1" d="M375.68,158.5635c1.5659-.7832,1.3045-1.566-.7838-2.871-3.6536-2.3519-6.2646-4.7006-7.83-7.3109a9.8735,9.8735,0,0,0,2.87,7.8323C372.2858,158.5635,374.3736,159.3463,375.68,158.5635Z"/><path class="cls-2" d="M295.78,153.8654a9.7361,9.7361,0,0,0-3.1315-7.05,9.6292,9.6292,0,0,0-7.0482-2.8742,11.7018,11.7018,0,0,0-5.0608,1.5891,10.3723,10.3723,0,0,0-1.9855,1.5454,9.6506,9.6506,0,0,0-2.8818,7.05,9.7586,9.7586,0,0,0,3.1431,7.05,8.54,8.54,0,0,0,7.0464,2.61,9.4729,9.4729,0,0,0,6.7869-2.8731,8.8159,8.8159,0,0,0,3.087-6.0915c.0269-.3125.0445-.63.0445-.9559Z"/><path class="cls-4" d="M291.865,190.419c3.3943-2.0905,5.4824-4.4392,5.7433-7.05.2594-1.8295-.5224-2.6123-2.0881-2.6123a3.1472,3.1472,0,0,0-3.1328,2.0883v0l-1.566-1.3055c-1.0446-.7827-2.0875-.5223-3.1326.5219-1.0433,1.3077-.7818,2.8741,1.0451,5.2229Z"/><path class="cls-12" d="M361.8354,188.5894h0c4.97,4.44,9.4072,6.7885,13.8446,7.0494q7.4373.3921,6.264-7.8322C376.723,190.68,369.9361,190.9412,361.8354,188.5894Z"/><path class="cls-13" d="M470.977,233.7614a37.123,37.123,0,0,0-7.3077-10.7056,24.0746,24.0746,0,0,0-5.7418-3.6552c-2.6106-1.3077-4.4472-2.6118-5.231-4.1786a15.5167,15.5167,0,0,1-1.3045-6.0051l.2612-4.962c-.2614-5.4814-1.8266-9.921-4.6986-13.0553-2.8716-3.3931-7.0463-4.9595-12.2672-5.22a31.2354,31.2354,0,0,0-12.0063,2.61c-4.7087,1.8295-6.7969,3.9173-6.0132,6.2669q.3923,1.566,3.1315,2.35c1.8274.7827,2.8818,1.3069,3.1427,2.0906a3.0776,3.0776,0,0,1-.5324,2.8708l-1.8266,2.3491c-2.6106,2.3509-6.2641,3.6559-11.2241,3.6559-.4409,0-.8509.0089-1.27.0151a2.9465,2.9465,0,0,1,.2271.5078l-.2614,2.0883-.077.0642a68.0571,68.0571,0,0,1,7.1253-.5871c8.883,0,14.8863-.5213,17.7574-1.8268a20.209,20.209,0,0,0,6.2646-4.1787c2.0883-2.0877,2.8719-4.1758,2.0883-6.5278a12.8075,12.8075,0,0,0-4.6986-6.5275,14.8087,14.8087,0,0,0-6.7869-3.1292c9.1358-1.0466,14.8776,1.8266,17.2272,8.8739,2.3493,6.2693,1.566,12.0111-2.35,16.9726-4.9581,6.2664-14.3553,10.4427-28.1981,12.7924l-31.8539,3.6568c.4024-1.0059.8046-1.9406,1.2068-2.813l-.4231-.061c-.7837-.2581-1.0446-.7828-1.3046-1.5656a2.8834,2.8834,0,0,1,0-2.0882l1.566-1.3053,2.0875.2614.3712.4453q.5975-.955,1.1948-1.7509a21.1428,21.1428,0,0,1,7.84-7.3106,24.2288,24.2288,0,0,1,7.0215-2.6375l-1.0184-1.0189a2.7733,2.7733,0,0,1,.2609-2.0882l.0114-.0094a20.021,20.021,0,0,0-6.0145,1.3148c-3.9144,1.8269-8.623,6.5269-13.5811,13.5766l-3.9149,7.05-3.3947,2.0907c-2.87,2.3463-5.7419,6.525-8.3522,12.53a17.5629,17.5629,0,0,0-1.8268,6.79,8.4778,8.4778,0,0,0,2.4566,4.781c.1352.1457.2663.29.4151.4392a29.29,29.29,0,0,0,2.8694,2.325,34.29,34.29,0,0,0,9.6592,4.7269c1.827,2.8709,3.6538,8.6161,5.7418,17.2315.0932.42.1981.7994.2968,1.2h0c-.0986-.401-.2036-.7809-.2967-1.2-2.088-8.6154-3.9149-14.3606-5.7418-17.2315l-2.088-5.2229,1.3045-1.5662.7835-1.0465h.2606a6.2454,6.2454,0,0,1,5.4809-2.61v0l0,0h2.872l0,0a15.241,15.241,0,0,1,6.7944.7828l5.4822,2.3491,0,0,0,0,2.87,1.5681,0,0c2.3495.7836,5.2207,2.0882,8.8748,3.6569v0l0,0,2.349,1.0417v0l9.6665.524v0l0,0,2.3494-.2625h0c2.349-.7838,3.6536-1.3032,3.6536-2.0883l-1.3046-3.9158h0c-.5221-1.5679.2614-2.8734,2.35-4.178a11.4277,11.4277,0,0,1,4.9581-1.8275v0l0-.0005h2.6106c.5223-.7828,1.5659-1.307,3.3925-1.0442A5.9989,5.9989,0,0,1,448,251.2539l2.349.7825a5.4218,5.4218,0,0,1,4.1844,2.611v0l2.0941,3.0263.7778-2.7655c-1.8269-4.9614-7.3176-7.0493-16.1922-6.0032-8.8751,1.0418-13.3124,3.9154-13.0514,8.6154-.261,3.1324-2.87,4.44-7.3171,3.9152-4.1766-.5218-9.136-2.3488-14.617-5.4833a37.4338,37.4338,0,0,0-17.2373-4.959q-7.437-.3921-11.7444,3.1312c-.2614.2614-.2614,1.0442.5223,1.8278a3.3142,3.3142,0,0,1,1.8268,2.8733,15.5855,15.5855,0,0,1-7.0482-2.6128c-2.6106-1.5655-3.6537-2.871-2.87-4.1765,2.6092-4.4363,10.7-7.3095,24.0124-8.0931l22.9789,1.0436c9.6667.7837,16.9764.7837,22.4568,0a47.5289,47.5289,0,0,0,10.702-3.1343l0,0c4.4469-1.5657,7.8392-2.61,10.45-2.8708l3.9152-.5218c2.3489,0,3.9149.7827,4.4371,2.0882.5209,1.044-1.045,4.1787-4.6985,9.14-3.6537,5.48-5.4823,9.3986-5.2209,12.272a21.4236,21.4236,0,0,0,.7832,4.6981c.2612,2.0878.2612,3.6545-.5223,4.4372a3.739,3.739,0,0,1-2.87,1.3079l-2.62-.525-.7837,3.9177v0l.9382.104,3.77.4182a5.4722,5.4722,0,0,0,3.6535-1.8271q1.1755-1.1757.7837-4.7012l-.5222-6.0027a16.4906,16.4906,0,0,1,1.3045-5.7447,29.1808,29.1808,0,0,1,4.1758-6.5276l4.438-6.0055C473.0651,242.3772,472.8051,238.46,470.977,233.7614Zm-36.0286-41.776c2.8717,1.8268,4.4377,3.9148,4.6986,6.7883.2614,3.1322-1.8269,5.4814-6.0027,7.3108a39.09,39.09,0,0,1-11.7469,2.3492c.2514-1.8268,1.5574-3.3931,3.6535-5.22a5.6277,5.6277,0,0,0,1.4539-2.3684l-1.7133-.245a2.0023,2.0023,0,0,1-1.3058-1.5678,2.8786,2.8786,0,0,1,0-2.0883l.9594-.6856c-.0626-.0287-.1108-.0709-.1759-.097l-4.1861-1.3054c0-2.6105,2.0981-4.1764,6.2744-4.6978A12.8056,12.8056,0,0,1,434.9484,191.9854Zm4.1763,28.9822c4.1765-2.3521,7.3077-4.44,9.1346-6.5284a12.7315,12.7315,0,0,0,.8474,1.9312l1.2422-.887,1.8368.2613L453.48,217.31v2.09l-1.4693,1.05c.3888.4391.7909.8746,1.2176,1.3a39.4719,39.4719,0,0,1-12.5379,3.9149l-12.5292,1.0441Zm15.4085,17.7529-15.1471,4.6985-16.7049.5243-14.3654-1.307-14.6266-.52-7.83.52A49.8886,49.8886,0,0,0,370.9813,247.6a45.569,45.569,0,0,1,3.9148-8.6183,15.0981,15.0981,0,0,1,9.1361-6.525,150.8355,150.8355,0,0,1,23.7613-2.8743l9.985-.5374a3.1718,3.1718,0,0,1,.194-1.028l1.566-1.3079h2.0883l1.3153,1.8293v.2287l9.1343-.4915,7.8319-.7837,7.0463-1.0441,6.5256-2.3488,5.49-.7834h0c2.6107.7835,5.7437,5.4842,9.6585,13.8387Q463.5382,235.98,454.5332,238.7205Z"/><path class="cls-14" d="M408.52,281.9183c-.1269-1.5483-.28-3.15-.4655-4.8146l-2.6106-18.8,0,0,0,0-2.87-1.5681,0,0a168.2224,168.2224,0,0,1,3.372,24.9652Q407.2668,281.7881,408.52,281.9183Z"/><path class="cls-14" d="M397.4255,281.61c.657-.0264,1.3163-.0544,1.9532-.066a133.4551,133.4551,0,0,0-9.082-27.9407v0h0l0,0h-2.872l0,0q4.3078,7.05,7.84,18.8C396.1831,275.62,396.8888,278.6754,397.4255,281.61Z"/><path class="cls-14" d="M387.9472,272.1423a82.8881,82.8881,0,0,0-6.0033-15.9294h0l0,0h-.2606l-.7835,1.0465-1.3045,1.5662,2.088,5.2229c1.8269,2.8709,3.6538,8.6161,5.7418,17.2315.0931.42.1981.7994.2967,1.2.963-.13,1.9155-.2525,2.8433-.3543Z"/><path class="cls-14" d="M414.1623,282.8563q1.16.2687,2.26.5944c.2938-5.9607.3913-12.76.246-20.4485h0v0l-2.349-1.0417,0,0v17.2314C414.2684,280.4557,414.2166,281.6688,414.1623,282.8563Z"/><path class="cls-14" d="M433.7509,298.9058a39.2829,39.2829,0,0,0,10.6081-3.0652c3.8352-1.8723,6.0063-4.3522,6.511-7.511l1.8269-12.5333v0l.7837-3.9177,0,0a80.5782,80.5782,0,0,1,1.5752-8.6149l1.5719-5.59-2.0941-3.0263a92.2106,92.2106,0,0,0-3.9247,16.1874l-2.87,16.4507a4.1693,4.1693,0,0,1-3.9152,3.3933,109.14,109.14,0,0,1,2.0883-19.844c.7818-4.1763,2.0883-10.4433,4.4372-18.7985h0L448,251.2539,443.8234,271.36c-1.3058,7.5711-2.3494,14.6215-2.8717,20.8885-.261.7827-1.5656,1.5654-3.3929,2.0873h-3.394a135.2643,135.2643,0,0,1,2.0882-22.193c1.045-5.4838,2.61-12.5334,4.6986-20.8884h-2.6105l0,.0005c-3.8235,19.6355-5.9011,34.0252-6.7248,43.2A23.9747,23.9747,0,0,1,433.7509,298.9058Z"/><path class="cls-14" d="M425.3729,287.7938a240.3512,240.3512,0,0,1,3.3113-24.53l-2.3494.2625,0,0q-2.3052,12.5544-3.2638,22.7483A25.4006,25.4006,0,0,1,425.3729,287.7938Z"/><path class="cls-15" d="M426.8575,190.1585c-4.1763.5214-6.2744,2.0873-6.2744,4.6978l4.1861,1.3054c.0651.0261.1133.0683.1759.097l.8672-.62,1.8269.2614,1.5674,1.5655a2.9475,2.9475,0,0,1-.2614,2.0906,3.0208,3.0208,0,0,1-1.8268,1.3053l-.1136-.0162a5.6277,5.6277,0,0,1-1.4539,2.3684c-2.0961,1.8268-3.4021,3.3931-3.6535,5.22a39.09,39.09,0,0,0,11.7469-2.3492c4.1758-1.8294,6.2641-4.1786,6.0027-7.3108-.2609-2.8735-1.8269-4.9615-4.6986-6.7883A12.8056,12.8056,0,0,0,426.8575,190.1585Z"/><path class="cls-15" d="M404.4006,211.8286l-.2876-.2879a24.2288,24.2288,0,0,0-7.0215,2.6375,21.1428,21.1428,0,0,0-7.84,7.3106q-.5974.7967-1.1948,1.7509l.9333,1.12a2.8775,2.8775,0,0,1,0,2.0883l-1.8266,1.3079-1.4037-.2028c-.4022.8724-.8044,1.8071-1.2068,2.813l31.8539-3.6568c13.8428-2.35,23.24-6.526,28.1981-12.7924,3.9156-4.9615,4.6989-10.7033,2.35-16.9726-2.35-7.0473-8.0914-9.9205-17.2272-8.8739a14.8087,14.8087,0,0,1,6.7869,3.1292,12.8075,12.8075,0,0,1,4.6986,6.5275c.7836,2.352,0,4.44-2.0883,6.5278a20.209,20.209,0,0,1-6.2646,4.1787c-2.8711,1.3055-8.8744,1.8268-17.7574,1.8268a68.0571,68.0571,0,0,0-7.1253.5871l-1.4885,1.24Zm37.596-11.4885,1.5656-1.3075,2.088.2638,1.3045,1.5652a2.9427,2.9427,0,0,1-.2613,2.0884l-1.5656,1.305-2.088-.2585c-.7837-.2638-1.0432-.7827-1.3046-1.5684Zm-5.7437,9.92c.2614-.7827.7837-1.0436,1.5672-1.305h2.0882c.7823.2614,1.0432.7837,1.3046,1.5664h0a2.9506,2.9506,0,0,1-.2615,2.0905l-1.5655,1.3045h-2.088c-.7837-.2605-1.0451-1.0432-1.3065-1.8291Zm-19.585,5.2229,1.566-1.3051,1.8268.2609,1.5661,1.566a2.8983,2.8983,0,0,1-.26,2.0877l-1.5674,1.3077-2.0882-.2608-1.3042-1.5682Zm-8.6134,6.2669-.2609,1.8266-1.566,1.3055h-1.8268c-.7838-.2614-1.0451-.7832-1.3061-1.5666a2.8806,2.8806,0,0,1,0-2.0879c.261-.7832.7838-1.0446,1.5675-1.3045H406.75Z"/><path class="cls-15" d="M458.9707,223.3158h0l-5.49.7834-6.5256,2.3488-7.0463,1.0441-7.8319.7837-9.1343.4915v1.5989l-1.8362,1.3045h-1.8268a3.0217,3.0217,0,0,1-1.3066-1.8269,1.7667,1.7667,0,0,1-.194-.7986l-9.985.5374a150.8355,150.8355,0,0,0-23.7613,2.8743,15.0981,15.0981,0,0,0-9.1361,6.525,45.569,45.569,0,0,0-3.9148,8.6183,49.8886,49.8886,0,0,1,14.8778-4.9639l7.83-.52,14.6266.52,14.3654,1.307,16.7049-.5243,15.1471-4.6985q9.0069-2.74,14.096-1.566C464.7144,228.8,461.5814,224.0993,458.9707,223.3158Zm-71.285,15.666-1.5653,1.3051h-2.0882c-.7837-.2614-1.0446-.7828-1.306-1.5665l.2614-2.0883,1.5655-1.3045,2.0882.2605,1.3057,1.3055A2.7705,2.7705,0,0,1,387.6857,238.9818Zm44.13,1.5665-1.3044-1.5665a2.8783,2.8783,0,0,1,0-2.0882l1.8267-1.3055,1.8268.2614c.7837.2614,1.0451.7827,1.3065,1.5664v1.8268l-1.5674,1.5657Zm22.7175-8.8776-1.3045,1.3051-2.0981-.2609c-.7818-.258-1.0429-.7832-1.3038-1.5659a2.8786,2.8786,0,0,1,0-2.0883c.2609-.7849.7818-1.0435,1.5652-1.3048l2.0883.2613,1.3143,1.5653A2.9438,2.9438,0,0,1,454.5331,231.6707Z"/><path class="cls-15" d="M453.2286,221.75c-.4267-.4251-.8288-.8606-1.2176-1.3l-.3576.2556-1.8266-.2615c-.7837-.2614-1.0451-.7851-1.306-1.5678a2.878,2.878,0,0,1,0-2.0881l.5859-.4184a12.7315,12.7315,0,0,1-.8474-1.9312c-1.8269,2.0883-4.9581,4.1763-9.1346,6.5284l-10.9632,5.7417,12.5292-1.0441A39.4719,39.4719,0,0,0,453.2286,221.75Z"/><path class="cls-15" d="M453.48,271.8784l0,0,2.62.525a3.739,3.739,0,0,0,2.87-1.3079c.7835-.7827.7835-2.3494.5223-4.4372a21.4236,21.4236,0,0,1-.7832-4.6981c-.2614-2.8734,1.5672-6.7916,5.2209-12.272,3.6535-4.9615,5.2194-8.0962,4.6985-9.14-.5222-1.3055-2.0882-2.0882-4.4371-2.0882l-3.9152.5218c-2.6109.2609-6.0032,1.3051-10.45,2.8708l0,0a47.5289,47.5289,0,0,1-10.702,3.1343c-5.48.7837-12.79.7837-22.4568,0l-22.9789-1.0436c-13.3123.7836-21.4032,3.6568-24.0124,8.0931-.7836,1.3055.26,2.611,2.87,4.1765a15.5855,15.5855,0,0,0,7.0482,2.6128,3.3142,3.3142,0,0,0-1.8268-2.8733c-.7837-.7836-.7837-1.5664-.5223-1.8278q4.305-3.5223,11.7444-3.1312a37.4338,37.4338,0,0,1,17.2373,4.959c5.481,3.1345,10.44,4.9615,14.617,5.4833,4.447.5247,7.0561-.7828,7.3171-3.9152-.261-4.7,4.1763-7.5736,13.0514-8.6154,8.8746-1.0461,14.3653,1.0418,16.1922,6.0032l-.7778,2.7655-1.5719,5.59A80.5782,80.5782,0,0,0,453.48,271.8784Zm-39.4227-20.6245-1.5656,1.3052-2.0882-.2614-1.3045-1.5657.26-1.8268a2.3567,2.3567,0,0,1,1.5672-1.5688l2.0882.2638c.7823.2589,1.0432.7827,1.3046,1.5655v0A2.9455,2.9455,0,0,1,414.0576,251.2539Z"/><path class="cls-16" d="M381.9439,256.2129a82.8881,82.8881,0,0,1,6.0033,15.9294l2.6179,9.9837c2.4047-.2641,4.6842-.4286,6.86-.5159-.5367-2.9347-1.2424-5.9906-2.1606-9.2064q-3.5393-11.75-7.84-18.8v0a6.2454,6.2454,0,0,0-5.4809,2.61l0,0Z"/><path class="cls-16" d="M399.3787,281.5441c2.3241-.0422,4.5018.02,6.5672.1568a168.2224,168.2224,0,0,0-3.372-24.9652l0,0-5.4822-2.3491a15.241,15.241,0,0,0-6.7944-.7828h0A133.4551,133.4551,0,0,1,399.3787,281.5441Z"/><path class="cls-16" d="M408.0545,277.1037c.1851,1.6646.3386,3.2663.4655,4.8146.4551.0473.9189.0892,1.361.1445,1.5.2,2.9129.4765,4.2813.7935.0543-1.1875.1061-2.4006.1567-3.6644V261.96c-3.6541-1.5687-6.5253-2.8733-8.8748-3.6569l0,0Z"/><path class="cls-16" d="M428.1615,290.1576v0a21.4106,21.4106,0,0,1,3.4546,4.2967c.8237-9.1746,2.9013-23.5643,6.7248-43.2v0a11.4277,11.4277,0,0,0-4.9581,1.8275c-2.0882,1.3046-2.8717,2.61-2.35,4.178h0l1.3046,3.9158c0,.7851-1.3046,1.3045-3.6536,2.0883h0a240.3512,240.3512,0,0,0-3.3113,24.53A24.49,24.49,0,0,1,428.1615,290.1576Z"/><path class="cls-16" d="M434.1648,294.3353h3.394c1.8273-.5219,3.1319-1.3046,3.3929-2.0873.5223-6.267,1.5659-13.3174,2.8717-20.8885L448,251.2539a5.9989,5.9989,0,0,0-3.6557-1.0442c-1.8266-.2628-2.87.2614-3.3925,1.0442h0c-2.0882,8.355-3.6536,15.4046-4.6986,20.8884A135.2643,135.2643,0,0,0,434.1648,294.3353Z"/><path class="cls-16" d="M445.9116,270.8349a109.14,109.14,0,0,0-2.0883,19.844,4.1693,4.1693,0,0,0,3.9152-3.3933l2.87-16.4507a92.2106,92.2106,0,0,1,3.9247-16.1874v0a5.4218,5.4218,0,0,0-4.1844-2.611h0C448,260.3916,446.6934,266.6586,445.9116,270.8349Z"/><path class="cls-16" d="M416.4219,283.4507a30.1926,30.1926,0,0,1,6.6489,2.8239q.9688-10.2089,3.2638-22.7483v0l-9.6665-.524h0C416.8132,270.6906,416.7157,277.49,416.4219,283.4507Z"/><path class="cls-17" d="M386.6413,235.5881l-2.0882-.2605-1.5655,1.3045-.2614,2.0883c.2614.7837.5223,1.3051,1.306,1.5665H386.12l1.5653-1.3051a2.7705,2.7705,0,0,0,.2613-2.0882Z"/><path class="cls-17" d="M414.319,249.1657c-.2614-.7828-.5223-1.3066-1.3046-1.5655l-2.0882-.2638a2.3567,2.3567,0,0,0-1.5672,1.5688l-.26,1.8268,1.3045,1.5657,2.0882.2614,1.5656-1.3052a2.9455,2.9455,0,0,0,.2614-2.0883Z"/><path class="cls-17" d="M435.4712,239.2427v-1.8268c-.2614-.7837-.5228-1.305-1.3065-1.5664l-1.8268-.2614-1.8267,1.3055a2.8783,2.8783,0,0,0,0,2.0882l1.3044,1.5665,2.0882.26Z"/><path class="cls-18" d="M453.48,228.0172l-2.0883-.2613c-.7834.2613-1.3043.52-1.5652,1.3048a2.8786,2.8786,0,0,0,0,2.0883c.2609.7827.522,1.3079,1.3038,1.5659l2.0981.2609,1.3045-1.3051a2.9438,2.9438,0,0,0,.2614-2.0882Z"/><path class="cls-18" d="M419.7994,219.4006l1.5674-1.3077a2.8983,2.8983,0,0,0,.26-2.0877l-1.5661-1.566-1.8268-.2609-1.566,1.3051-.2609,2.0882,1.3042,1.5682Z"/><path class="cls-17" d="M428.9452,199.5563a2.9475,2.9475,0,0,0,.2614-2.0906L427.6392,195.9l-1.8269-.2614-.8672.62-.9594.6856a2.8786,2.8786,0,0,0,0,2.0883,2.0023,2.0023,0,0,0,1.3058,1.5678l1.7133.245.1136.0162A3.0208,3.0208,0,0,0,428.9452,199.5563Z"/><path class="cls-18" d="M437.298,213.9169h2.088l1.5655-1.3045a2.9506,2.9506,0,0,0,.2615-2.0905h0c-.2614-.7827-.5223-1.305-1.3046-1.5664H437.82c-.7835.2614-1.3058.5223-1.5672,1.305l-.2614,1.8273C436.2529,212.8737,436.5143,213.6564,437.298,213.9169Z"/><path class="cls-17" d="M443.04,203.9965l2.088.2585,1.5656-1.305a2.9427,2.9427,0,0,0,.2613-2.0884l-1.3045-1.5652-2.088-.2638-1.5656,1.3075-.2614,2.088C441.9966,203.2138,442.2561,203.7327,443.04,203.9965Z"/><path class="cls-18" d="M448.5208,218.8769c.2609.7827.5223,1.3064,1.306,1.5678l1.8266.2615.3576-.2556,1.4693-1.05v-2.09l-1.2946-1.5655-1.8368-.2613-1.2422.887-.5859.4184A2.878,2.878,0,0,0,448.5208,218.8769Z"/><path class="cls-18" d="M388.99,226.448a2.8775,2.8775,0,0,0,0-2.0883l-.9333-1.12-.3712-.4453-2.0875-.2614-1.566,1.3053a2.8834,2.8834,0,0,0,0,2.0882c.26.7828.5209,1.3075,1.3046,1.5656l.4231.061,1.4037.2028Z"/><path class="cls-17" d="M403.0947,221.2279a2.8806,2.8806,0,0,0,0,2.0879c.261.7834.5223,1.3052,1.3061,1.5666h1.8268l1.566-1.3055.2609-1.8266-1.3041-1.8269h-2.0882C403.8785,220.1833,403.3557,220.4447,403.0947,221.2279Z"/><path class="cls-18" d="M403.0946,210.5218l1.0184,1.0189.2876.2879,2.0883.2592,1.4885-1.24.077-.0642.2614-2.0883a2.9465,2.9465,0,0,0-.2271-.5078,2.5886,2.5886,0,0,0-1.0789-1.0586h-2.0869l-1.556,1.2956-.0114.0094A2.7733,2.7733,0,0,0,403.0946,210.5218Z"/><path class="cls-18" d="M419.2791,231.6707h1.8268l1.8362-1.3045v-1.8276l-1.3153-1.8293h-2.0883l-1.566,1.3079a3.1718,3.1718,0,0,0-.194,1.028,1.7667,1.7667,0,0,0,.194.7986A3.0217,3.0217,0,0,0,419.2791,231.6707Z"/></g></g></svg>