<svg id="Layer_2" data-name="Layer 2" xmlns="http://www.w3.org/2000/svg" viewBox="0 0 1440.47 895.49"><defs><style>.cls-1{fill:#f3e0f0;}.cls-2{fill:#f9494b;}.cls-3{fill:#fff;}.cls-4{fill:#c6d9fa;}.cls-5{fill:#707bfb;}.cls-6{fill:#6c79d9;}</style></defs><path d="M980.18,392.69l-.2-.1.1-.2s-2.5-3.9,1.3-18.1c1.6-6.5,3.7-16.6,7.5-22.1,7-9.8,16.4-8.8,19.5-8.8a14.87,14.87,0,0,1,3.4.6c.2.1.5.1.7.3,4.9,2.7,7.6,9.6,7.1,22.9-.6,15.5-6.8,37.9-11.7,47.8C1008,414.89,988.88,396.79,980.18,392.69Z"/><path d="M990.58,265.09H847.38l122.5-74.2a39.91,39.91,0,0,1,59,22.8h0A39.9,39.9,0,0,1,990.58,265.09Z"/><path class="cls-1" d="M1096.88,577.69h-1.7c-40.4-.5-89.4-34.9-123.4-63.6a697.71,697.71,0,0,1-64.8-62.8l-.1-.1,69.1-60.8h.1c15.1,5,35.6,19.2,62.8,43.2,6.3,5.6,11.7,10.5,16.6,14.8,21.4,19.2,29.3,26.3,36.5,26.3a4.87,4.87,0,0,0,1.2-.1c8.2-.9,31.1-25.3,51.3-46.9,15.2-16.2,29.5-31.6,36.9-36.4a13.78,13.78,0,0,1,7.3-2c18.6,0,46.8,31,47.1,31.3l50,63.3-22.9,36.7h-.1c-14.3,5-29.9,12.4-46.5,20.2C1179.78,558.19,1138.38,577.69,1096.88,577.69Z"/><path class="cls-1" d="M1018.18,773.89c-.1-2-.2-3.2-.2-3.2,0-.2-2-21.4-4.1-33.6-7.3,3.2-13.9,7.6-20.8,12.3-8.3,5.6-17.8,12-30.4,17.4a60.11,60.11,0,0,1-23.5,4.3,106,106,0,0,1-26.8-3.7h-.1v-.1c-.2-30.8-9.2-74-17.1-112.2-2.9-13.7-5.5-26.6-7.7-38.3-17.3-93.5-30.7-181-30.8-181.9v-.2l87.8-21.7v.3c0,1.2-.4,121.1,55.5,202.3,46.4,67.5,70.6,107.9,72,120.3.1.2,1.4,5.4-4.5,12.7-9.8,12.2-32,20.7-48.9,25.6l-.2.1Z"/><path d="M1018.18,773.89c-.1-2-.2-3.2-.2-3.2l-4.1-34,.1-.1c11.3-5.3,22.3-8.1,32.5-8.1,16.3,0,25.2,7,25.3,7.1h0v.1c.1.2,1.4,5.4-4.5,12.7-9.8,12.2-32,20.7-48.9,25.6l-.2.1Z"/><path d="M953.18,499.59a2,2,0,0,1-1.4-.6l-22.4-21.5a2,2,0,0,1,2.7-2.9l22.4,21.5a2,2,0,0,1,.1,2.8A1.75,1.75,0,0,1,953.18,499.59Z"/><path d="M1199.58,437.69c-12.3-13.9-17.3-25.6-18.9-33.1-1.7-8.2.2-13.1.2-13.1v-.1h.1a13.53,13.53,0,0,1,7.3-2c18.6,0,46.8,31,47.1,31.3l-5.5,18.2C1230,438.89,1230.48,442.39,1199.58,437.69Z"/><path d="M1422.38,570.79a2.09,2.09,0,0,1-1.6-.8,2.07,2.07,0,0,1,.5-2.8,35.76,35.76,0,0,0,8.5-49.9l-120.6-170a2,2,0,1,1,3.3-2.3l120.6,170a39.79,39.79,0,0,1-9.4,55.5A3.45,3.45,0,0,1,1422.38,570.79Z"/><path d="M1328.18,429.49a2.09,2.09,0,0,1-1.6-.8,2.07,2.07,0,0,1,.5-2.8l26.8-19a2,2,0,1,1,2.3,3.3l-26.8,19A2.66,2.66,0,0,1,1328.18,429.49Z"/><path d="M1374,494.09a2.09,2.09,0,0,1-1.6-.8,2.07,2.07,0,0,1,.5-2.8l26.8-19.1a2,2,0,0,1,2.3,3.3l-26.8,19.1A2.66,2.66,0,0,1,1374,494.09Z"/><path d="M1294.78,646.39A25.09,25.09,0,0,1,1270,621a21,21,0,0,1,.7-5.6l24.4-100.5a2,2,0,0,1,2-1.5,2,2,0,0,1,1.9,1.6l20.7,101.3a25.18,25.18,0,0,1-19.6,29.6A36.1,36.1,0,0,1,1294.78,646.39Zm2-121.8-22.3,91.8a18.31,18.31,0,0,0-.5,4.7,21,21,0,0,0,20.8,21.3,18.76,18.76,0,0,0,4.5-.5,21.08,21.08,0,0,0,16.4-24.8Z"/><path d="M1353.88,588.49a16.91,16.91,0,0,1-11.7-4.6,14.76,14.76,0,0,1-2.5-3l-44-64.4a2.09,2.09,0,0,1,.2-2.5,2,2,0,0,1,2.5-.3l65,43.2a17.34,17.34,0,0,1,4.8,23.9c-.6.8-1.1,1.4-1.6,2.1a17.39,17.39,0,0,1-12,5.6Zm-49.1-65.8,38.2,55.9a.1.1,0,0,0,.1.1,13.27,13.27,0,0,0,20.6,1.5c.4-.5.9-1.1,1.3-1.7a13.23,13.23,0,0,0-3.7-18.3Z"/><path d="M1248,573.29a37.21,37.21,0,0,1-11.4-1.8,2,2,0,0,1,1.2-3.8c4.8,1.5,14.1,3.3,22.7-1.5,7.1-4,12.2-11.7,15.1-23,6.5-25.5,20.5-29.6,21.1-29.7a2,2,0,0,1,2.5,1.4,1.86,1.86,0,0,1-1.4,2.4c-.2.1-12.4,3.9-18.3,26.9-3.2,12.4-8.9,21-17,25.5A29.87,29.87,0,0,1,1248,573.29Z"/><path d="M1058.08,895.49H849.58a39.9,39.9,0,0,1-39.8-39.8,2,2,0,0,1,4,0,35.89,35.89,0,0,0,35.8,35.8h208.5a2,2,0,0,1,0,4Z"/><path d="M981.58,895.49a2,2,0,0,1-2-2v-32.9a2,2,0,0,1,4,0v32.9A2,2,0,0,1,981.58,895.49Z"/><path d="M902.38,895.49a2,2,0,0,1-2-2v-32.9a2,2,0,0,1,4,0v32.9A2,2,0,0,1,902.38,895.49Z"/><path class="cls-2" d="M861.68,862.39v-.2c0-14.9,9.2-23.1,19.8-32.5,9.3-8.2,19.8-17.6,26.4-33.3,2.9-6.9,4.3-16.5,4.3-29.2v-.3l.3.1a105.72,105.72,0,0,0,26.7,3.7q13.5,0,23.4-4.2c12.6-5.4,22-11.7,30.3-17.4,7-4.7,13.6-9.2,21.1-12.4l.2-.1v.3c2,12.2,4.1,33.7,4.1,33.9,0,.5,4.3,50.8-.4,91.5v.2l-156.2-.1Z"/><path class="cls-2" d="M1374.58,526.69c-9.5,0-20.1-2.3-32.3-4.9s-26.3-5.7-43.1-7.3c-1.6-.1-3.2-.2-4.8-.2-8.8,0-19.1,2.1-31.5,6.4l-.2.1v-.2c-.1-.2-5.3-25-18.3-42.6-8.4-11.4-18.9-19.2-28.2-26.2-6.6-4.9-12.4-9.2-16.2-13.9l-.2-.2,35.9-17.1c49.1-20.8,71-27.2,71.2-27.2h.1l88.7,128.4-.2.1a43.52,43.52,0,0,1-20.9,4.8Z"/><path d="M905.78,805.39a2.92,2.92,0,0,1-.9-.2L811.28,756a25.05,25.05,0,0,1-10.5-34,15.55,15.55,0,0,1,3-4.4,25.34,25.34,0,0,1,35.3-3.3,29.25,29.25,0,0,1,3.9,4l64.4,83.9a2,2,0,0,1-.1,2.5A1.8,1.8,0,0,1,905.78,805.39Zm-82.7-92.8a21.41,21.41,0,0,0-16.4,7.6,11.35,11.35,0,0,0-2.4,3.6,20.84,20.84,0,0,0-1.5,16.2,21.17,21.17,0,0,0,10.3,12.4l85.5,45-58.9-76.7a21,21,0,0,0-3.3-3.4A20.62,20.62,0,0,0,823.08,712.59Z"/><path d="M842.08,823.69a16,16,0,0,1-15.3-11.6,20.46,20.46,0,0,1-.6-2.8,16,16,0,0,1,14.4-17.4,17,17,0,0,1,4,.1l61.6,10.1a2.13,2.13,0,0,1,1.7,1.9,1.86,1.86,0,0,1-1.4,2l-60,17.1A17.23,17.23,0,0,1,842.08,823.69Zm.2-27.9a6.15,6.15,0,0,0-1.3.1,12,12,0,0,0-10.8,13.1c.1.5.2,1.3.4,2.2a11.93,11.93,0,0,0,14.7,8.2l51.4-14.6-52.8-8.7A3.81,3.81,0,0,0,842.28,795.79Z"/><path d="M903.28,803.69a1.88,1.88,0,0,1-.8-.2l-.1-.1c-15.1-7-35.8-16.5-23.7-48.1,9-23.5-.4-33.5-.8-33.9a2,2,0,0,1,2.8-2.8c.5.5,11.6,12,1.7,38.1-10.7,28.1,5.7,35.7,21.7,43l.1.1a2.14,2.14,0,0,1,1,2.7A2.06,2.06,0,0,1,903.28,803.69Z"/><path d="M1025.58,734.69a2.05,2.05,0,0,1-1.9-1.3c-13.8-38.1-28.1-61.4-41.8-84-21.3-34.9-43.3-71-65.1-161.8a2,2,0,0,1,3.9-.9c21.7,90.2,43.5,126,64.7,160.7,13.9,22.7,28.2,46.2,42.2,84.7a2.08,2.08,0,0,1-1.2,2.6Z"/><path d="M962.88,768.59a2.11,2.11,0,0,1-2-1.6c-10.5-47.4-17.8-70.1-27.8-101.5-2.8-8.9-5.8-18.1-9.1-28.8-14.9-47.8-23.3-84.5-33-131.7a2,2,0,1,1,4-.8c9.6,47.1,18,83.6,32.9,131.3,3.3,10.7,6.3,19.9,9.1,28.8,10.1,31.5,17.4,54.3,27.9,101.9a2,2,0,0,1-1.5,2.4Z"/><path d="M1093.88,514.89c-20.7,0-46.8-21.7-82.3-51.1-13.9-11.5-29.7-24.6-46.8-37.8a2,2,0,0,1,2.4-3.2c17.2,13.2,33,26.3,47,37.9,36.4,30.2,62.6,52,82.1,50.1,22.7-2.2,40.2-14.3,72.1-36.2,12-8.2,25.6-17.6,42.1-28.2a2,2,0,1,1,2.2,3.4c-16.5,10.6-30.1,19.9-42,28.2-31.3,21.5-50.2,34.5-74,36.8A27.15,27.15,0,0,1,1093.88,514.89Z"/><path d="M1101.28,548.69c-39.4,0-88.7-40-140.8-82.2-4.4-3.6-8.8-7.1-13.2-10.7a2,2,0,0,1,2.5-3.1c4.4,3.6,8.9,7.2,13.2,10.7,52.1,42.3,101.4,82.2,139.6,81.3,32.8-.8,86.2-28.3,121.5-46.6,9.4-4.8,17.5-9,23.6-11.9a2,2,0,1,1,1.7,3.7c-6,2.8-14.1,7-23.4,11.8-35.7,18.4-89.5,46.2-123.3,47Z"/><path d="M1277,518.39a2.11,2.11,0,0,1-2-1.6l-4.8-21.5a2,2,0,0,1,3.9-.9l4.8,21.5a2,2,0,0,1-1.5,2.4A.6.6,0,0,1,1277,518.39Z"/><path d="M1297.38,517.19h0a2,2,0,0,1-2-2l.4-22.5a2,2,0,0,1,2-2h0a2,2,0,0,1,2,2l-.4,22.5A2,2,0,0,1,1297.38,517.19Z"/><path d="M1318.28,518.79a1.27,1.27,0,0,1-.6-.1,2.07,2.07,0,0,1-1.3-2.5l6.1-18.4a2,2,0,1,1,3.8,1.2l-6.1,18.4A2,2,0,0,1,1318.28,518.79Z"/><path d="M923.58,814.79a2.35,2.35,0,0,1-.8-.2l-20.6-9.2a1.93,1.93,0,0,1-1-2.6,1.9,1.9,0,0,1,2.6-1l20.6,9.2a1.93,1.93,0,0,1,1,2.6A1.83,1.83,0,0,1,923.58,814.79Z"/><path d="M931.78,792.19h-.3l-20.9-2.7a2,2,0,0,1,.5-3.9l20.9,2.7a1.88,1.88,0,0,1,1.7,2.2A1.8,1.8,0,0,1,931.78,792.19Z"/><path d="M908.18,833.29a1.9,1.9,0,0,1-1.3-.5L892.68,820a2,2,0,0,1,2.7-2.9l14.2,12.8a1.93,1.93,0,0,1,.1,2.8A2.2,2.2,0,0,1,908.18,833.29Z"/><path d="M1313.18,445.49a61.87,61.87,0,0,1-20.9-3.7c-16.2-5.7-30.8-17.7-36.3-29.9a1.9,1.9,0,0,1,1-2.6,2,2,0,0,1,2.6,1c5,11.3,18.7,22.4,33.9,27.7,10.5,3.7,26.4,6.3,42.4-2a2,2,0,0,1,1.8,3.6A52.44,52.44,0,0,1,1313.18,445.49Z"/><path d="M967.18,864.19H967a1.88,1.88,0,0,1-1.7-2.2c4.1-33.9,30.2-49.1,54.2-49.1a2,2,0,0,1,0,4c-22.3,0-46.4,14.1-50.2,45.5A2.13,2.13,0,0,1,967.18,864.19Z"/><path class="cls-3" d="M726.38,587.19a14.36,14.36,0,0,1-6-1.8l-1.1-.7-1.1.7a9.84,9.84,0,0,1-5.1,1.8c-3.8,0-5.7-3.7-6-4.5l-.8-1.6-2.9,1a17.75,17.75,0,0,1-3,.4c-7,0-7.9-7.5-8-9.8l-.1-2.6-2.5.8a8.08,8.08,0,0,1-2.2.3,4.9,4.9,0,0,1-4-1.8c-1.9-2.2-3.6-7.5-1.4-20.2,4.7-27.2,23.3-49,51.2-79.2l4.1-2.1,62.8,31-3.8,3.3-21.6,19.2-3.3,2.9c-7,6.1-12.5,10.9-15.4,14.1-15.5,16.6-18.2,26.5-21.9,40.3l-.1.5C732.58,584.49,730,587.19,726.38,587.19Z"/><path d="M737.38,470l59.1,29.3-1.5,1.3h0l-21.5,19.2-3.3,2.9c-7,6.1-12.6,11-15.5,14.2-15.9,16.9-18.7,27.6-22.3,41.2l-.1.5c-1.7,6.6-4.8,6.6-5.7,6.6a11.35,11.35,0,0,1-4.9-1.5l-2.1-1.3-2.1,1.3a8.37,8.37,0,0,1-4,1.4c-2.6,0-4.1-3-4.2-3.3l-1.5-3.2-3.4,1.1-1.1.4a11.34,11.34,0,0,1-2.5.3c-5.1,0-5.9-5.5-6-7.8l-.2-5.2-5,1.6a4,4,0,0,1-1.6.3,3.1,3.1,0,0,1-2.5-1.1c-3.1-3.7-1.7-14.2-1-18.6,4.6-26.6,22.9-48.1,50.5-77.9l2.4-1.7m0-4.5-5.3,2.7c-28.3,30.5-47.2,52.6-52,80.4-1.9,10.8-1.3,18.2,1.8,21.9a6.89,6.89,0,0,0,5.6,2.5,13.21,13.21,0,0,0,2.9-.4c.1,1.8,1,11.7,10,11.7a15.86,15.86,0,0,0,3.6-.4l1.3-.4c.5,1,2.9,5.6,7.9,5.6a11.77,11.77,0,0,0,6.2-2.1,14,14,0,0,0,7,2.2c3.2,0,7.5-1.7,9.6-9.5l.1-.5c3.6-13.5,6.2-23.3,21.4-39.5,2.9-3,8.3-7.8,15.3-13.9l3.3-2.9,21.5-19.2,6.1-5.3-66.3-32.9Z"/><path class="cls-2" d="M809.38,534c-11.8,0-26.8-6.5-33.6-11.1l-.2-.1,21.5-19.1c-1.3-.6-8-3.5-33.6-13.2-21.4-8.1-31.3-21.7-31.4-21.8l-.1-.1.1-.1c2.9-3.1,5.9-6.3,9-9.7,2.9-3.1,5.9-6.3,9-9.7,37.3-40.3,64.1-106.2,73.3-150.4v-.1l30.6-19.2,25.9,17.6v.1c.1.6,5.4,57.1-11.3,117.2-10.2,36.8-43.6,114.6-50.5,118.3a25.6,25.6,0,0,1-8.7,1.4Z"/><path d="M809.38,534c-11.8,0-26.8-6.5-33.6-11.1l-.2-.1,21.5-19.1s14.9,6.2,20,14.4,1.1,14.3,1.1,14.4v.1h-.1a25.6,25.6,0,0,1-8.7,1.4Z"/><path class="cls-2" d="M869,516.19c-8-47.4-13.1-81.1-13.2-81.5l12.4-152.5.3.3c.3.3,36.2,33.2,143.8,61.6h0s-14.3-4.6-21.6,17.3c-5.9,17.4-10,30.7-10,30.7-16.4,51-45.9,82.5-67.7,99.4-23.6,18.4-43.5,24.8-43.7,24.8l-.2.1Z"/><path class="cls-3" d="M867.18,294a17.6,17.6,0,1,1,17.6-17.6A17.63,17.63,0,0,1,867.18,294Z"/><path d="M867.18,260.69a15.6,15.6,0,1,1-15.6,15.6,15.62,15.62,0,0,1,15.6-15.6m0-4a19.6,19.6,0,1,0,19.6,19.6,19.63,19.63,0,0,0-19.6-19.6Z"/><path class="cls-3" d="M828.28,308.69c-13.7,0-27.4-13.6-34.2-34-8.8-26.3-5.7-50.8,7.1-57a36.09,36.09,0,0,1,16-3.6c17,0,31.5,10.8,31.7,10.9,8.8,6.9,13.2,14.1,14,23.5.9,10.5-2.6,23.7-11.1,41.6C846.08,302.09,837.78,308.69,828.28,308.69Z"/><path d="M817.28,212.09v4h0c16,0,29.8,10,30.4,10.4,14.4,11.3,19.8,25.7,2.3,62.6-5.4,11.3-13.1,17.6-21.7,17.6-12.8,0-25.8-13.1-32.3-32.6-8.3-24.9-5.6-48.9,6.1-54.6a33.75,33.75,0,0,1,15.1-3.4l.1-4m0,0a39.05,39.05,0,0,0-16.9,3.8c-13.6,6.6-17.4,31.7-8.2,59.5,7.3,21.9,22,35.3,36.1,35.3,9.5,0,18.8-6.1,25.3-19.9,17.6-37,13.7-54.1-3.5-67.5.1.1-14.9-11.2-32.8-11.2Z"/><path d="M809.78,273.29a2.92,2.92,0,0,1-.9-.2,10.43,10.43,0,0,1-3.9-3.9c-1.2-2.6-1.3-6.8-.2-15.6a2,2,0,1,1,3.9.5c-.6,5.1-1.2,11.2-.2,13.3a5.81,5.81,0,0,0,2.2,2.2,2,2,0,0,1,.8,2.7A1.94,1.94,0,0,1,809.78,273.29Z"/><path d="M820,261a2,2,0,0,1-2-2v-2.1a2,2,0,1,1,4,0V259A2,2,0,0,1,820,261Z"/><path d="M797.38,255.79a2,2,0,0,1-2-2v-2a2,2,0,0,1,4,0v2A2,2,0,0,1,797.38,255.79Z"/><path d="M816.48,283.69h-.4a3.81,3.81,0,0,1-1.6-.3,2,2,0,1,1,.9-3.9,2.49,2.49,0,0,0,.8.1,4.62,4.62,0,0,0,4.9-4.4,2,2,0,0,1,4,.2A8.74,8.74,0,0,1,816.48,283.69Z"/><path d="M720.28,586.69a1.92,1.92,0,0,1-2-1.9c-1-23.9,12-48.3,12.5-49.3a2,2,0,1,1,3.5,1.9c-.1.2-13,24.5-12.1,47.3a1.86,1.86,0,0,1-1.9,2Z"/><path d="M704.88,583.59a2,2,0,0,1-2-1.8c-2.1-26.1,15-53.5,15.7-54.6a2,2,0,1,1,3.4,2.2c-.2.3-17.1,27.5-15.1,52.2a2,2,0,0,1-1.8,2.2C705,583.59,705,583.59,704.88,583.59Z"/><path d="M692.58,573.39h-.1a2.08,2.08,0,0,1-1.9-2.1c2.1-31,15.2-50.6,15.7-51.4a2,2,0,1,1,3.3,2.3c-.1.2-13,19.6-15.1,49.4A1.88,1.88,0,0,1,692.58,573.39Z"/><path d="M870.38,280.49a1.27,1.27,0,0,1-.6-.1l-9.3-3.1a2,2,0,0,1,1.2-3.8l9.3,3.1a2.07,2.07,0,0,1,1.3,2.5A2,2,0,0,1,870.38,280.49Z"/><path d="M789.18,235.29c24.7,10.3,51.4-6.2,51.4-6.2-3.1,16.4-3.1,39,15.4,55.5,0,0,7-13,8.2-33.9s-21.9-33.3-36-36S795.38,210.69,789.18,235.29Z"/><path d="M857.68,447.89a1.7,1.7,0,0,1-.7-.1,2,2,0,0,1-1.2-2.6c4.9-13.3,8.4-23.7,10.5-31.6a317.94,317.94,0,0,0,9.4-48.4,2,2,0,0,1,4,.4,326.17,326.17,0,0,1-9.6,49c-2.2,8.1-5.7,18.5-10.7,32A1.64,1.64,0,0,1,857.68,447.89Z"/><path d="M846.68,475.89a2.35,2.35,0,0,1-.8-.2,39.08,39.08,0,0,1-4.1-69.9,38.36,38.36,0,0,1,29.6-3.7,2,2,0,1,1-1.1,3.9,34.8,34.8,0,0,0-26.6,3.3,34.34,34.34,0,0,0-16.4,21.2,35.2,35.2,0,0,0,20.2,41.5,2,2,0,0,1,1.1,2.6A2.16,2.16,0,0,1,846.68,475.89Z"/><g id="heart"><path class="cls-1" d="M722.18,22c-7.7-35.4-57.8-26.4-40.5,15.1,16,33.3,36.3,71.5,40.2,78.9a3.33,3.33,0,0,0,.3.6l.3-.6c3.9-7.3,24.2-45.5,40.2-78.9C780-4.41,729.88-13.41,722.18,22Z"/><path class="cls-2" d="M722.18,153.29c-4.7-21.6-35.3-16.1-24.8,9.2,9.7,20.4,22.2,43.7,24.5,48.2.1.1.1.3.2.4.1-.1.1-.2.2-.4,2.4-4.5,14.8-27.8,24.5-48.2C757.48,137.19,726.88,131.69,722.18,153.29Z"/></g><path d="M288.78,303.09a1.9,1.9,0,0,1-1.3-.5c-11.7-10.7-20-19-20.1-19.1a2,2,0,0,1,2.8-2.8c.1.1,8.3,8.3,19.9,18.9a1.93,1.93,0,0,1,.1,2.8A1.62,1.62,0,0,1,288.78,303.09Z"/><path d="M300.08,284.59a2.39,2.39,0,0,1-1.4-.5c-11.7-10.7-20-19-20.1-19.1a2,2,0,0,1,2.8-2.8c.1.1,8.3,8.3,19.9,18.9a1.93,1.93,0,0,1,.1,2.8A1.36,1.36,0,0,1,300.08,284.59Z"/><path d="M319.58,244.49a1.9,1.9,0,0,1-1.3-.5c-11.7-10.7-20-19-20.1-19.1a2,2,0,0,1,2.8-2.8c.1.1,8.3,8.3,19.9,18.9a1.93,1.93,0,0,1,.1,2.8A1.62,1.62,0,0,1,319.58,244.49Z"/><path d="M309.78,264.59a1.9,1.9,0,0,1-1.3-.5c-11.7-10.7-20-19-20.1-19.1a2,2,0,1,1,2.8-2.8c.1.1,8.3,8.3,19.9,18.9a1.93,1.93,0,0,1,.1,2.8A1.62,1.62,0,0,1,309.78,264.59Z"/><path d="M329.38,228.59a2,2,0,0,1-1.4-.6l-19.5-19.5a2,2,0,0,1,2.8-2.8l19.5,19.5a1.93,1.93,0,0,1,0,2.8A2,2,0,0,1,329.38,228.59Z"/><path class="cls-4" d="M606.28,262.09c-50.7-37-99.7-39-142.8-21.6-48.3,19.5-85.9,34.9-135.6-18.5l-42.1,79.1s45.2,46.2,94.5,49.3c68.9,4.3,100.7-54.5,165.4-32.9Z"/><path d="M314.18,327.39a2.92,2.92,0,0,1-.9-.2,2,2,0,0,1-.8-2.7l42.1-79.1a2,2,0,0,1,3.5,1.9L316,326.39A2.23,2.23,0,0,1,314.18,327.39Z"/><path d="M284.88,302.19a2.92,2.92,0,0,1-.9-.2,2,2,0,0,1-.8-2.7l42.1-79.1a2,2,0,1,1,3.5,1.9l-42.1,79.1A2.23,2.23,0,0,1,284.88,302.19Z"/><path class="cls-4" d="M368.68,735.69c1.4-12.3,25.6-52.8,72-120.3,55.8-81.2,55.5-201.1,55.5-202.3v-.3l87.8,21.7v.2c-.1.9-13.6,88.4-30.8,181.9-2.2,11.7-4.9,24.6-7.7,38.3-7.9,38.1-17,81.4-17.1,112.2v.1h-.1a106,106,0,0,1-26.8,3.7c-9,0-16.9-1.4-23.5-4.3-12.6-5.4-22-11.8-30.4-17.4-6.9-4.7-13.4-9.1-20.8-12.3C426.58,737.09,368.68,735.89,368.68,735.69Z"/><path d="M422,774.09c-16.9-4.9-39.1-13.4-48.9-25.6-5.9-7.4-4.5-12.5-4.5-12.7v-.1h0c.1-.1,9-7.1,25.3-7.1,10.2,0,21.2,2.7,32.5,8.1l.1.1-4.1,34.1s-.1,1.1-.2,3.1v.2Z"/><path d="M590.78,895.49H382.28a2,2,0,0,1,0-4h208.5a35.89,35.89,0,0,0,35.8-35.8,2,2,0,0,1,4,0A39.9,39.9,0,0,1,590.78,895.49Z"/><path d="M458.78,895.49a2,2,0,0,1-2-2v-32.9a2,2,0,1,1,4,0v32.9A2,2,0,0,1,458.78,895.49Z"/><path d="M538,895.49a2,2,0,0,1-2-2v-32.9a2,2,0,0,1,4,0v32.9A2,2,0,0,1,538,895.49Z"/><path class="cls-5" d="M422.48,862.39v-.2c-4.7-40.7-.4-91-.4-91.5,0-.2,2.1-21.7,4.1-33.9v-.3l.2.1c7.5,3.3,14.1,7.7,21.1,12.4,8.3,5.6,17.8,12,30.3,17.4q9.9,4.2,23.4,4.2a106.73,106.73,0,0,0,26.7-3.7l.3-.1v.3c-.1,12.5,1.4,22.4,4.3,29.2,6.7,15.8,17.2,25.1,26.4,33.3,10.6,9.4,19.8,17.6,19.8,32.5v.2l-156.2.1Z"/><path d="M535.78,806a1.8,1.8,0,0,1-1.5-.7,2.1,2.1,0,0,1-.1-2.5l64.5-83.9a29.25,29.25,0,0,1,3.9-4,25.46,25.46,0,0,1,35.4,3.3,21.2,21.2,0,0,1,3,4.4,25,25,0,0,1-10.5,33.9l-93.7,49.2A2.24,2.24,0,0,1,535.78,806Zm82.8-92.8a21.18,21.18,0,0,0-13.4,4.8,26.31,26.31,0,0,0-3.3,3.4L543,798.09l85.6-45a21.08,21.08,0,0,0,8.9-28.6,16.12,16.12,0,0,0-2.4-3.6A21.53,21.53,0,0,0,618.58,713.19Z"/><path d="M599.48,824.19a15.93,15.93,0,0,1-4.3-.6l-60-17.1a1.93,1.93,0,0,1-1.4-2,2.12,2.12,0,0,1,1.7-1.9l61.6-10.1a17.19,17.19,0,0,1,4-.1,15.63,15.63,0,0,1,10.8,5.7,16,16,0,0,1,3.6,11.7,20.46,20.46,0,0,1-.6,2.8A16.2,16.2,0,0,1,599.48,824.19Zm-54.7-19.1,51.4,14.6a11.93,11.93,0,0,0,14.7-8.2,11.53,11.53,0,0,0,.4-2.2,12.09,12.09,0,0,0-2.7-8.7,11.66,11.66,0,0,0-8.1-4.3,9.7,9.7,0,0,0-3,.1Z"/><path d="M538.28,804.19a1.83,1.83,0,0,1-1.8-1.2,2,2,0,0,1,1-2.7l.1-.1c15.9-7.3,32.4-14.9,21.7-43-9.9-26.1,1.2-37.6,1.7-38.1a2,2,0,0,1,2.8,2.8c-.4.4-9.7,10.4-.7,33.9,12,31.6-8.6,41.1-23.7,48.1l-.1.1A4.4,4.4,0,0,1,538.28,804.19Z"/><path class="cls-4" d="M343.48,577.69c-41.5,0-83-19.6-119.5-36.8-16.5-7.8-32.1-15.2-46.5-20.2l-.2-.1v-.2c.2-.9,4.6-23,17.6-40.7,8.5-11.5,19.3-20.1,28.9-27.6,6.6-5.2,12.3-9.7,16.1-14.3l-24.2-11.5,43-35,.1.1c7.4,4.8,21.8,20.1,37,36.3,20.2,21.5,43.1,46,51.3,46.9.4,0,.8.1,1.2.1,7.2,0,15.2-7.2,36.5-26.3,4.8-4.3,10.3-9.2,16.6-14.8,27.1-24,47.7-38.2,62.8-43.2h.1l69.1,60.8-.1.1a682.88,682.88,0,0,1-64.8,62.8c-61.6,52.1-101.1,63.3-123.4,63.6Z"/><path d="M145.68,473.69l59-53.1c.3-.3,28.5-31.3,47.1-31.3a13.53,13.53,0,0,1,7.3,2h.1v.1s1.3,5-.4,13.2c-1.5,7.5-5.9,19.4-18.2,33.2-33.4,18.6-48.7,40.1-55.7,54.8-7.5,16-7.1,27.7-7.1,27.8v.7Z"/><path d="M501.48,738.79h-.4a2,2,0,0,1-1.6-1.8l-3.9-46.3-43.2,3.9a2.08,2.08,0,0,1-2.1-1.3,2,2,0,0,1,.7-2.3l31.2-21.5-19.5-31.3a2.13,2.13,0,0,1,.1-2.3,2.05,2.05,0,0,1,2.2-.7l37.5,11.9,21.8-38.7a2,2,0,0,1,2.2-1,1.9,1.9,0,0,1,1.5,1.8l2,37.4,17.1-6.3a2,2,0,0,1,1.4,3.8l-19.6,7.2a2.25,2.25,0,0,1-1.8-.2,1.89,1.89,0,0,1-.9-1.6l-1.7-33.2-19.3,34.2a2,2,0,0,1-2.3.9l-33.8-10.8,17.6,28.3a2,2,0,0,1-.6,2.7l-26.5,18.3,37.6-3.4a2.1,2.1,0,0,1,1.5.5,1.75,1.75,0,0,1,.7,1.4l3.5,41.2,19.4-38.8a2.09,2.09,0,0,1,1.6-1.1,2.06,2.06,0,0,1,1.8.8l10.8,15a2,2,0,1,1-3.3,2.3l-8.9-12.3-21.1,42.2A1.85,1.85,0,0,1,501.48,738.79Z"/><path d="M482,616.49a2.09,2.09,0,0,1-1.6-.8l-22.8-30.8a2,2,0,1,1,3.2-2.4l19.5,26.3,1.9-37.5a1.94,1.94,0,0,1,1.7-1.9l33.7-4.4-31.5-17a2.07,2.07,0,0,1-1-1.4,2.16,2.16,0,0,1,.5-1.7l17.7-19-23,3.4a2,2,0,1,1-.6-4l28.6-4.2a2.18,2.18,0,0,1,2.1,1,2,2,0,0,1-.3,2.3l-19.8,21.3,34.7,18.7a1.88,1.88,0,0,1,1,2.1,1.91,1.91,0,0,1-1.7,1.6l-38.2,5-2.1,41.4a1.92,1.92,0,0,1-1.4,1.8A.73.73,0,0,1,482,616.49Z"/><path d="M399.28,680a2,2,0,0,1-.3-4l37.3-5.4-24.9-10.8a2,2,0,0,1,1.6-3.6l31.4,13.6a2.09,2.09,0,0,1,1.2,2.1,1.92,1.92,0,0,1-1.7,1.7l-44.3,6.4Z"/><path d="M469.58,764.69a2,2,0,0,1-2-1.8l-4.4-40.4L448,749.19a2,2,0,1,1-3.4-2l18.3-32.1a2,2,0,0,1,2.1-1,2.14,2.14,0,0,1,1.6,1.7l5.1,46.5a2,2,0,0,1-1.8,2.2C469.68,764.69,469.68,764.69,469.58,764.69Z"/><path d="M375.08,542.49a2.09,2.09,0,0,1-1.6-.8l-28.6-38.4-36.4,26.5a2.11,2.11,0,0,1-2.4,0,2,2,0,0,1-.7-2.3l12.6-34.2-31.2-13.6a2,2,0,0,1-1.2-2,2.05,2.05,0,0,1,1.4-1.8l26.3-7.7-1.6-21.3a2,2,0,0,1,3.9-.3l1.7,22.9a2,2,0,0,1-1.4,2.1l-22.5,6.6,27.9,12.2a2,2,0,0,1,1.1,2.5l-11,29.8,32.7-23.8a2,2,0,0,1,2.8.4l25.3,33.9-5.3-42.8a2.07,2.07,0,0,1,1.6-2.2l29.8-6.1-30.4-17.5a2,2,0,0,1,2-3.4l35,20.1a2.1,2.1,0,0,1,1,2.1,1.91,1.91,0,0,1-1.6,1.6l-33.2,6.8,6,48.5a2,2,0,0,1-1.2,2.1A2.49,2.49,0,0,1,375.08,542.49Z"/><path d="M223.58,542.49a1.92,1.92,0,0,1-2-1.9l-.6-16.4a2.2,2.2,0,0,1,.6-1.5,2,2,0,0,1,1.4-.6h39.4l-32.6-21a2,2,0,0,1-.6-2.8l23-33.2-37.6,16.6a2.21,2.21,0,0,1-1.6,0,2.16,2.16,0,0,1-1.1-1.2l-5.2-15.4a2,2,0,1,1,3.8-1.2l4.5,13.3,42.1-18.6a2,2,0,0,1,2.4.6,2,2,0,0,1,.1,2.4l-25.8,37.3,36.6,23.6a2,2,0,0,1,.8,2.2,1.92,1.92,0,0,1-1.9,1.4h-44.1l.5,14.3a2.18,2.18,0,0,1-2.1,2.1Z"/><path d="M330.38,578.89h-.3a2,2,0,0,1-1.6-2.3l5.6-33.8-27.9,30.9a2,2,0,0,1-2.9-2.7l32.5-36a2.16,2.16,0,0,1,2.4-.5,2.09,2.09,0,0,1,1.1,2.1l-6.7,40.5A2.41,2.41,0,0,1,330.38,578.89Z"/><path d="M465,518.89a2,2,0,0,1-1.9-1.4l-4.7-15.4L421,516.69a2,2,0,0,1-2.3-.6,2.1,2.1,0,0,1-.1-2.4l26.5-39.8-27.8-12.8a2,2,0,0,1-1.1-2.2,1.91,1.91,0,0,1,1.8-1.6l33.1-2.8-.9-29a2,2,0,0,1,4-.2l1,30.9a2.07,2.07,0,0,1-1.8,2.1l-27.5,2.4,23,10.6a2.07,2.07,0,0,1,1.1,1.3,1.75,1.75,0,0,1-.3,1.7l-24.3,36.4,33.5-13.1a1.81,1.81,0,0,1,1.6.1,1.72,1.72,0,0,1,1,1.2l5.3,17.5a2,2,0,0,1-1.3,2.5Z"/><path d="M18,570.79a1.92,1.92,0,0,1-1.2-.4,39.79,39.79,0,0,1-9.4-55.5l120.6-170a2,2,0,1,1,3.3,2.3l-120.6,170a35.76,35.76,0,0,0,8.5,49.9,2,2,0,0,1,.5,2.8A2.23,2.23,0,0,1,18,570.79Z"/><path d="M112.18,429.49a1.92,1.92,0,0,1-1.2-.4l-26.8-19a2,2,0,1,1,2.3-3.3l26.8,19a2,2,0,0,1,.5,2.8A1.92,1.92,0,0,1,112.18,429.49Z"/><path d="M66.38,494.09a1.92,1.92,0,0,1-1.2-.4l-26.8-19.1a2,2,0,1,1,2.3-3.3l26.8,19.1a2,2,0,0,1,.5,2.8A1.92,1.92,0,0,1,66.38,494.09Z"/><path class="cls-6" d="M423,415.59l.2-.1c16.9-13.3,30.4-21.5,41.2-25.1h.1l31.6,27.8c.1-3.2.1-4.9.1-5v-.3l87.8,21.7v.2c-.1.4-7,45.4-17.1,104.9l-.1.3Z"/><path class="cls-6" d="M583.58,499a28.37,28.37,0,0,1-18.8-7.1l-108.6-95a28.55,28.55,0,0,1-2.7-40.3l1-1.2a28.46,28.46,0,0,1,40.3-2.7l108.6,95a28.52,28.52,0,0,1,2.7,40.3l-1,1.2A28.63,28.63,0,0,1,583.58,499Z"/><path class="cls-6" d="M614.48,453a28.37,28.37,0,0,1-18.8-7.1l-101.8-89a28.52,28.52,0,0,1-2.7-40.3l1-1.2a28.46,28.46,0,0,1,40.3-2.7l101.8,89A28.55,28.55,0,0,1,637,442l-1,1.2A28.29,28.29,0,0,1,614.48,453Z"/><path class="cls-6" d="M580.68,355.29a28.37,28.37,0,0,1-18.8-7.1l-25.6-22.4a28.52,28.52,0,0,1-2.7-40.3l1-1.2a28.46,28.46,0,0,1,40.3-2.7l25.6,22.4a28.52,28.52,0,0,1,2.7,40.3l-1,1.2A28.47,28.47,0,0,1,580.68,355.29Z"/><path d="M145.58,646.39a34.9,34.9,0,0,1-5.3-.5,25.18,25.18,0,0,1-19.6-29.6L141.38,515a2,2,0,0,1,1.9-1.6,2,2,0,0,1,2,1.5l24.4,100.5a26.94,26.94,0,0,1,.7,5.7,24.93,24.93,0,0,1-24.8,25.3Zm-2-121.8-18.9,92.5a21,21,0,0,0,16.4,24.8,25.76,25.76,0,0,0,4.5.5,21,21,0,0,0,20.8-21.2,25.2,25.2,0,0,0-.5-4.8Z"/><path d="M86.48,588.49h-.7a17.1,17.1,0,0,1-12-5.5c-.6-.7-1.1-1.3-1.7-2.1a17.22,17.22,0,0,1,4.7-23.9l65-43.2a2,2,0,0,1,2.5.3,1.85,1.85,0,0,1,.2,2.5l-44,64.4a11.91,11.91,0,0,1-2.5,2.9A16.7,16.7,0,0,1,86.48,588.49Zm49.1-65.8-56.5,37.5a13.12,13.12,0,0,0-3.6,18.3,21,21,0,0,0,1.4,1.7,12.89,12.89,0,0,0,9.1,4.1,13.36,13.36,0,0,0,9.5-3.5,9.16,9.16,0,0,0,1.8-2.2.1.1,0,0,1,.1-.1Z"/><path d="M578,428.39a2.11,2.11,0,0,1-1.3-.5l-89.9-78a2,2,0,0,1,2.6-3l89.9,78a2,2,0,0,1,.2,2.8A1.8,1.8,0,0,1,578,428.39Z"/><path d="M557,337.19a2.11,2.11,0,0,1-1.3-.5l-29.8-25.9a2,2,0,1,1,2.6-3l29.8,25.9a2,2,0,0,1,.2,2.8A1.8,1.8,0,0,1,557,337.19Z"/><path d="M192.38,573.29a29.51,29.51,0,0,1-14.4-3.6c-8.1-4.5-13.8-13.1-17-25.5-3.1-12.1-7.9-18.8-11.4-22.2-3.8-3.7-6.8-4.6-6.9-4.6a2,2,0,0,1-1.4-2.5,1.94,1.94,0,0,1,2.4-1.4c.6.2,14.6,4.2,21.1,29.7,2.9,11.3,7.9,19,15.1,23,8.6,4.8,17.9,3,22.7,1.5a2,2,0,1,1,1.2,3.8A37.21,37.21,0,0,1,192.38,573.29Z"/><path d="M574.38,499.49a2.11,2.11,0,0,1-1.3-.5L453,394.89a2,2,0,1,1,2.6-3L575.68,496a2,2,0,0,1,.2,2.8A1.8,1.8,0,0,1,574.38,499.49Z"/><path d="M438.18,430.49a2.09,2.09,0,0,1-1.6-.8,2,2,0,0,1,.4-2.8l29.4-22.6a2,2,0,0,1,2.4,3.2l-29.4,22.6A1.75,1.75,0,0,1,438.18,430.49Z"/><path d="M462.38,451.09a2.2,2.2,0,0,1-1.5-.6,1.93,1.93,0,0,1,.1-2.8l26.7-24.7a2,2,0,1,1,2.7,2.9l-26.7,24.7A1.9,1.9,0,0,1,462.38,451.09Z"/><path d="M486.08,471.59a2.39,2.39,0,0,1-1.4-.5,1.93,1.93,0,0,1-.1-2.8l24.6-26.8a2,2,0,0,1,2.9,2.7l-24.6,26.7A1.62,1.62,0,0,1,486.08,471.59Z"/><path d="M512.18,494.19a1.69,1.69,0,0,1-1-.3,2.18,2.18,0,0,1-.7-2.8l19.4-31.6a2,2,0,0,1,3.5,2.1L514,493.19A2.12,2.12,0,0,1,512.18,494.19Z"/><path d="M535.28,514.19a1.7,1.7,0,0,1-.7-.1,2,2,0,0,1-1.2-2.6l13.4-36.4a2,2,0,0,1,3.8,1.4l-13.4,36.4A2.05,2.05,0,0,1,535.28,514.19Z"/><path d="M555.88,532.29h-.4a2.05,2.05,0,0,1-1.6-2.4l8.3-40.1a2,2,0,0,1,4,.8l-8.3,40.1A2,2,0,0,1,555.88,532.29Z"/><path d="M566.18,541.49a2.11,2.11,0,0,1-1.3-.5L422.08,417a2,2,0,0,1,2.6-3l142.8,124a2,2,0,0,1,.2,2.8A1.8,1.8,0,0,1,566.18,541.49Z"/><path class="cls-3" d="M713.18,588c-3.6,0-6.1-4.9-7.6-9-.8-2.1-1.4-4.2-2.1-6.2-3.6-11-6.7-20.4-19.9-34.5-2.9-3.1-8.4-8-15.4-14.1l-3.1-2.7-3.2-5,39.4-50.5,4.8,3.6c28,30.3,46.8,52.2,51.4,79.4,2.2,12.7.5,18-1.4,20.2a5,5,0,0,1-4,1.8,7.43,7.43,0,0,1-2.2-.3l-2.5-.8-.1,2.6a15.36,15.36,0,0,1-1.1,5,7.08,7.08,0,0,1-7,4.8,11.28,11.28,0,0,1-3-.4l-1.5-.3-.7,1.3c-.4.8-2.8,4.6-7.2,4.6a12.28,12.28,0,0,1-6.5-2.2l-1.4-.9-1.1,1.2A6.53,6.53,0,0,1,713.18,588Z"/><path d="M701.78,468.79l3.1,2.3c27.7,30,46.2,51.6,50.8,78.3.8,4.4,2.2,14.9-1,18.6a2.84,2.84,0,0,1-2.5,1.1,10.77,10.77,0,0,1-1.6-.2l-5-1.6-.2,5.3a15.16,15.16,0,0,1-.9,4.3c-1.3,3.1-3.4,3.5-5.1,3.5a11.34,11.34,0,0,1-2.5-.3l-2.9-.6-1.5,2.6c-.2.4-2.1,3.6-5.5,3.6a10.09,10.09,0,0,1-5.4-1.9l-2.7-1.7-2.3,2.3a5.51,5.51,0,0,1-3.3,1.7c-1.9,0-4-2.9-5.7-7.7-.7-2.1-1.4-4.2-2.1-6.1-3.5-10.7-6.8-20.8-20.3-35.3-3-3.2-8.5-8.1-15.6-14.2l-2.8-2.5-2.3-3.6,37.3-47.9m-.8-5.6-41.5,53.2,4.1,6.4,3.3,2.9c7,6.1,12.4,10.9,15.3,13.9,12.9,13.8,16,23.1,19.4,33.8.7,2,1.3,4.1,2.1,6.2,2.4,6.9,5.6,10.3,9.4,10.3,3.1,0,5.6-2.4,6.2-2.9a13.93,13.93,0,0,0,7.5,2.5c5.6,0,8.5-4.7,9-5.6a14.24,14.24,0,0,0,3.4.4,9.06,9.06,0,0,0,8.8-6,16.66,16.66,0,0,0,1.2-5.7,8.53,8.53,0,0,0,2.9.4h0a7.2,7.2,0,0,0,5.6-2.5q4.65-5.55,1.8-21.9c-4.8-27.8-23.7-49.9-52.1-80.6l-6.4-4.8Z"/><path class="cls-5" d="M663.58,522.79c-22.8-20-70.1-61.5-90.4-106.6-25.6-56.9-13.5-118.7-13.4-119.3v-.1l25.9-17.6,30.6,19.2v.1c9.1,44.2,36,110.1,73.3,150.4,3.1,3.3,6,6.5,8.9,9.6,3.1,3.3,6.1,6.5,9,9.7l.1.1L663.68,523Z"/><path d="M612.38,475.09a1.93,1.93,0,0,1-1.5-.7c-18-20.1-31.2-39.4-39.3-57.4-16.2-36-17.7-73.4-16.1-98.5a2,2,0,1,1,4,.2c-1.6,24.6-.2,61.3,15.7,96.5,8,17.7,21,36.6,38.7,56.4a1.94,1.94,0,0,1-.2,2.8A1.46,1.46,0,0,1,612.38,475.09Z"/><path class="cls-5" d="M65.78,526.69a42.89,42.89,0,0,1-20.8-4.9l-.2-.1,88.7-128.4h.1c.2.1,22.2,6.4,71.2,27.2l35.9,17.1-.2.2c-3.8,4.7-9.6,9.3-16.4,14.6-9.6,7.5-20.4,16.1-28.8,27.6-13,17.6-17.5,40.3-17.6,40.6v.2l-.2-.1c-12.4-4.3-22.7-6.4-31.5-6.4-1.7,0-3.3.1-4.8.2-16.8,1.6-30.8,4.6-43.1,7.3S75.28,526.69,65.78,526.69Z"/><path class="cls-3" d="M572.48,294a17.6,17.6,0,1,1,17.6-17.6A17.63,17.63,0,0,1,572.48,294Z"/><path d="M572.48,260.69a15.6,15.6,0,1,1-15.6,15.6,15.62,15.62,0,0,1,15.6-15.6m0-4a19.6,19.6,0,1,0,19.6,19.6,19.63,19.63,0,0,0-19.6-19.6Z"/><path class="cls-3" d="M611.28,308.69c-9.4,0-17.8-6.6-23.5-18.7-18.1-38.1-12.3-53.2,2.9-65,.1-.1,14.7-10.8,31.6-10.8a36.09,36.09,0,0,1,16,3.6c12.8,6.2,15.9,30.7,7.1,57-6.7,20.3-20.4,33.9-34.1,33.9Z"/><path d="M622.28,216.09a33.45,33.45,0,0,1,15.1,3.4c11.7,5.7,14.4,29.7,6.1,54.6-6.5,19.5-19.5,32.6-32.3,32.6-8.6,0-16.3-6.2-21.7-17.6-17.5-36.9-12.2-51.3,2.3-62.6.7-.4,14.5-10.4,30.5-10.4m0-4c-17.9,0-32.9,11.3-32.9,11.3-17.2,13.4-21,30.5-3.5,67.5,6.5,13.7,15.8,19.9,25.3,19.9,14.1,0,28.8-13.4,36.1-35.3,9.2-27.7,5.4-52.9-8.2-59.5a36.84,36.84,0,0,0-16.8-3.9Z"/><path d="M639.18,216c-24.2-11.8-49.8,7.5-49.8,7.5-10.7,8.3-16.2,18.1-14.6,33.3l74.9-27.6C647.58,222.89,644,218.29,639.18,216Z"/><circle cx="592.18" cy="202.59" r="17.2"/><path d="M630.88,273.29a2.11,2.11,0,0,1-1.8-1.1,2,2,0,0,1,.8-2.7,5.12,5.12,0,0,0,2.3-2.3c1-2,.4-8.1-.2-13.2a2,2,0,0,1,3.9-.5c1.1,8.8,1,13-.2,15.5a9.64,9.64,0,0,1-4,4A1.14,1.14,0,0,1,630.88,273.29Z"/><path d="M620.68,261a2,2,0,0,1-2-2v-2.1a2,2,0,0,1,4,0V259A2,2,0,0,1,620.68,261Z"/><path d="M643.28,255.79a2,2,0,0,1-2-2v-2a2,2,0,1,1,4,0v2A2,2,0,0,1,643.28,255.79Z"/><path d="M624.18,283.69a8.59,8.59,0,0,1-8.6-8.2,2,2,0,0,1,4-.2,4.56,4.56,0,0,0,4.9,4.4c.2,0,.5-.1.8-.1a2,2,0,1,1,.9,3.9,6.52,6.52,0,0,1-1.6.3C624.48,283.69,624.38,283.69,624.18,283.69Z"/><path d="M568.28,280.49a2,2,0,0,1-1.9-1.4,2,2,0,0,1,1.3-2.5l12.3-4.1a2,2,0,0,1,1.2,3.8l-12.3,4.1A1.27,1.27,0,0,1,568.28,280.49Z"/><path d="M636.48,500.49a1.75,1.75,0,0,1-1.2-.4,1.94,1.94,0,0,1-.3-2.8l46-57.4a2,2,0,0,1,3.1,2.5l-46,57.4A2.36,2.36,0,0,1,636.48,500.49Z"/><path d="M719.28,586.69h0a2,2,0,0,1-2-2.1c1-22.8-11.9-47-12.1-47.3a2,2,0,0,1,3.5-1.9c.6,1,13.5,25.5,12.5,49.3A1.81,1.81,0,0,1,719.28,586.69Z"/><path d="M734.68,583.59h-.2a2,2,0,0,1-1.8-2.2c2-24.7-14.9-51.9-15.1-52.2A2,2,0,0,1,721,527c.7,1.2,17.8,28.6,15.7,54.6A2.07,2.07,0,0,1,734.68,583.59Z"/><path d="M747.38,573.29a2.05,2.05,0,0,1-2-1.9c-2-29.8-14.9-49.2-15.1-49.4a2,2,0,1,1,3.3-2.3c.6.8,13.6,20.4,15.7,51.4a2,2,0,0,1-1.9,2.1C747.48,573.29,747.48,573.29,747.38,573.29Z"/><path d="M163.58,518.39h-.4a1.92,1.92,0,0,1-1.5-2.4l4.8-21.5a2,2,0,0,1,3.9.9l-4.8,21.5A2.13,2.13,0,0,1,163.58,518.39Z"/><path d="M143.18,517.19a2,2,0,0,1-2-2l-.4-22.5a2,2,0,0,1,2-2h0a2,2,0,0,1,2,2l.4,22.5a2,2,0,0,1-2,2Z"/><path d="M122.28,518.79a2,2,0,0,1-1.9-1.4l-6.2-18.4a2,2,0,1,1,3.8-1.2l6.2,18.4a1.91,1.91,0,0,1-1.3,2.5A1.27,1.27,0,0,1,122.28,518.79Z"/><path d="M516.88,814.79a1.83,1.83,0,0,1-1.8-1.2,1.9,1.9,0,0,1,1-2.6l20.5-9.2a2,2,0,1,1,1.6,3.6l-20.5,9.2A1.88,1.88,0,0,1,516.88,814.79Z"/><path d="M508.68,792.19a2,2,0,0,1-.3-3.9l20.9-2.7a2,2,0,0,1,.5,3.9l-20.9,2.7Z"/><path d="M532.28,833.29a1.93,1.93,0,0,1-1.5-.7,2,2,0,0,1,.1-2.8l14.2-12.8a2,2,0,0,1,2.7,2.9l-14.2,12.8A1.61,1.61,0,0,1,532.28,833.29Z"/><path d="M472.68,864.19a2,2,0,0,1-2-1.8c-3.8-31.5-28-45.5-50.2-45.5a2,2,0,1,1,0-4c24,0,50.1,15.2,54.2,49.1a1.94,1.94,0,0,1-1.7,2.2Z"/><path d="M126.48,445.49a53.85,53.85,0,0,1-24.7-5.9,2,2,0,0,1,1.8-3.6c16,8.3,31.9,5.7,42.4,2,15.3-5.3,28.9-16.5,33.9-27.7a1.9,1.9,0,0,1,2.6-1,1.93,1.93,0,0,1,1,2.6c-5.4,12.2-20,24.2-36.3,29.9A61.92,61.92,0,0,1,126.48,445.49Z"/><path d="M487.18,499.59a2.2,2.2,0,0,1-1.5-.6,1.93,1.93,0,0,1,.1-2.8l13.5-12.8a1.93,1.93,0,0,1,2.8.1,2,2,0,0,1-.1,2.8l-13.5,12.8A1.9,1.9,0,0,1,487.18,499.59Z"/></svg>