<svg id="Layer_2" data-name="Layer 2" xmlns="http://www.w3.org/2000/svg" viewBox="0 0 1122.5 893.85"><defs><style>.cls-1{fill:#c6d9fa;}.cls-2{fill:#707bfb;}.cls-3{fill:#f3e0f0;}.cls-4{fill:#f9494b;}.cls-5{fill:#6c79d9;}.cls-6{fill:#fff;}</style></defs><g id="box"><rect x="572.4" y="672.75" width="169.6" height="169.6"/><g id="cat"><path class="cls-1" d="M516.9,842.55v-.3c-1.4-8.7,2.6-15.4,12.3-20.8,19.5-10.7,80.1-30.3,80.7-30.5.8-.3,85.9-29.8,160.1-29.8,3.8,0,7.5.1,11.2.2,18.9.8,32.8,7.2,41.2,18.9,16.9,23.7,5.9,61.6,5.8,62v.1H516.9Z"/><path class="cls-1" d="M645.5,813.25a57.4,57.4,0,0,1-7.1-.4c-30.8-3.1-34.1-28.4-33.4-43.1,1.4-28.1,18.7-60.5,28.9-60.5h.5c7.7.9,12.5,26,12.9,28.5h34.2c1.6-1.5,23.5-22.5,33-22.5a4,4,0,0,1,2.7.9c5,4.2,3.8,21.6-2.7,39.7-4.8,13.4-24.2,57.4-69,57.4Z"/><path d="M645.7,815.05a62.28,62.28,0,0,1-7.4-.4c-15.8-1.6-26.9-9.3-31.9-22.3a2,2,0,1,1,3.7-1.5c4.5,11.6,14.1,18.3,28.5,19.7,17,1.7,48.5-1.8,69.4-45.1a2,2,0,1,1,3.6,1.8c-7,14.6-16.5,26.6-27.4,34.7A62.25,62.25,0,0,1,645.7,815.05Z"/><path d="M653.8,773.35H642.4a2,2,0,0,1,0-4h11.4a2,2,0,0,1,0,4Z"/><path d="M645.4,787.05H645a2,2,0,0,1-1.6-2.3l2.7-13.7a2,2,0,0,1,3.9.7l-2.7,13.7A1.93,1.93,0,0,1,645.4,787.05Z"/><path d="M646.3,788.15c-5.2,0-10.1-1.9-13.2-5.7a2,2,0,0,1,3.1-2.5c4.9,5.9,14.9,5.1,20.9.7a2,2,0,1,1,2.4,3.2A23.32,23.32,0,0,1,646.3,788.15Z"/><path d="M675.9,768.45a2.92,2.92,0,0,1-.9-.2,2,2,0,0,1-.9-2.7l1-2a2,2,0,1,1,3.6,1.8l-1,2A2.11,2.11,0,0,1,675.9,768.45Z"/><path d="M700.5,745.75a1.93,1.93,0,0,1-1-.3,2,2,0,0,1-.8-2.7l4.9-8.8a2,2,0,1,1,3.5,1.9l-4.9,8.8A1.85,1.85,0,0,1,700.5,745.75Z"/><path d="M630.6,743.85a2,2,0,0,1-2-2V732a2,2,0,0,1,4,0v9.9A2,2,0,0,1,630.6,743.85Z"/><path d="M627.7,768.45a2.92,2.92,0,0,1-.9-.2,2,2,0,0,1-.9-2.7l1-2a2,2,0,1,1,3.6,1.8l-1,2A2.11,2.11,0,0,1,627.7,768.45Z"/><path d="M585.9,843.25a2,2,0,0,1-2-1.7c-1.5-9.5,2.8-17,13.2-22.8,5.3-3,14.3-6.9,26.7-11.6a2,2,0,1,1,1.4,3.8c-12.2,4.7-21,8.5-26.1,11.4-8.9,4.9-12.5,10.9-11.2,18.6a2,2,0,0,1-1.7,2.3Z"/><path d="M677.8,843.15a2,2,0,0,1-2-1.7c-1.8-11.2,3.6-18.5,17-22.9,8.4-2.8,14.9-3.8,25.8-4.9,2.4-6.5,14.6-34.8,49.5-37.5a2,2,0,0,1,.4,4c-36.6,2.9-46.3,35.6-46.4,36a1.81,1.81,0,0,1-1.7,1.4c-11.4,1-17.9,2-26.2,4.8-14.5,4.8-15.4,12-14.4,18.5a2,2,0,0,1-1.7,2.3Z"/><path d="M529.8,843.15a1.93,1.93,0,0,1-1.9-1.5,12.61,12.61,0,0,1,2.8-11.6,2,2,0,0,1,3,2.6,8.72,8.72,0,0,0-2,8,1.93,1.93,0,0,1-1.4,2.4A.9.9,0,0,1,529.8,843.15Z"/><path d="M540.7,843.15a1.93,1.93,0,0,1-1.9-1.5,12.61,12.61,0,0,1,2.8-11.6,2,2,0,0,1,3,2.6,8.72,8.72,0,0,0-2,8,1.93,1.93,0,0,1-1.4,2.4A.9.9,0,0,1,540.7,843.15Z"/><path d="M598.7,843.15a1.93,1.93,0,0,1-1.9-1.5,12.61,12.61,0,0,1,2.8-11.6,2,2,0,0,1,3,2.6,8.72,8.72,0,0,0-2,8,1.93,1.93,0,0,1-1.4,2.4A.9.9,0,0,1,598.7,843.15Z"/><path d="M690.2,843.15a1.93,1.93,0,0,1-1.9-1.5,12.61,12.61,0,0,1,2.8-11.6,2,2,0,0,1,3,2.6,8.72,8.72,0,0,0-2,8,1.93,1.93,0,0,1-1.4,2.4A.9.9,0,0,1,690.2,843.15Z"/></g><rect class="cls-2" x="741.6" y="672.75" width="251.3" height="169.6"/><path d="M992.7,844.15a2,2,0,0,1-1.1-.3L740.7,674.65a2,2,0,1,1,2.3-3.3l250.9,169.2a2,2,0,0,1,.5,2.8A2.29,2.29,0,0,1,992.7,844.15Z"/><path d="M741.8,844.15a2.09,2.09,0,0,1-1.7-.9,2,2,0,0,1,.5-2.8l250.9-169.2a2,2,0,1,1,2.3,3.3L742.9,843.75A1.5,1.5,0,0,1,741.8,844.15Z"/></g><g id="box-2" data-name="box"><rect class="cls-3" x="436.8" y="319.75" width="173.2" height="226.3"/><rect class="cls-3" x="346.3" y="319.75" width="90.5" height="226.3"/><polygon class="cls-4" points="459.2 277.35 436.8 319.75 610 319.75 632.4 277.35 459.2 277.35"/><polygon class="cls-4" points="323.8 277.35 346.3 319.75 436.8 319.75 414.3 277.35 323.8 277.35"/><path d="M552.2,499.15a2,2,0,0,1-1.1-.3,2.08,2.08,0,0,1-.9-1.9l4.3-31.4-29-12.9a2,2,0,0,1-1.2-1.7,2,2,0,0,1,1-1.8l83.7-46.5a2,2,0,0,1,1.9,3.5l-80.2,44.6,26.7,11.9a2.09,2.09,0,0,1,1.2,2.1l-4,28.9,54.3-30.2a2,2,0,1,1,1.9,3.5L553,499.05C552.9,499.05,552.5,499.15,552.2,499.15Z"/><path d="M436.8,549a2,2,0,0,1-2-2V319.75a2,2,0,0,1,4,0V547A2,2,0,0,1,436.8,549Z"/></g><path d="M142,842.35c-34.4-.9-33.5-57.4-33.5-58v-.2l.2.1c.1,0,13.4,3,34.2,9.5h.1v.1c.1.2,6.6,17,6.6,30.7.1,16.6-7.2,17.8-7.6,17.8Z"/><path d="M432.2,700.45h0c9.2-2.7,18.5-5.1,28.1-5.2,11.7,0,16.2,2.6,17.9,4.4.8.9,2,5,2,5-3.8,28.8-52.7,33.3-53.2,33.3h-.3Z"/><path class="cls-2" d="M2.2,817.25a15.74,15.74,0,0,1-2-.1H0l25.3-166h.2a576.39,576.39,0,0,1,93.4,13.7l.1.1v.1c.1.9,13.9,90,24,128.8l.1.3-.3-.1c-20.8-6.5-34-9.4-34.2-9.5-7.2-1.5-16.1-3.4-25.7-3.4-16.8,0-31.5,6-45.1,18.5C20.5,815.55,7.2,817.25,2.2,817.25Z"/><path class="cls-1" d="M142,842.35c14.4-10.4.6-48.8.6-48.8-2.9-8.7-6.4-17.1-10.2-26.1-5.3-12.8-10.8-26-14.7-40.4-10.7-40,.8-61.9.9-62.1l.1-.1h.1c57.5,13.2,101.4,31.6,122.8,41.6-3.6-6.9-41.9-79.6-68.9-128.9l-.1-.2,173.8-30.6v.2c.2.8,15.9,79.9,23.6,140.7,6.1,48.2,9.8,107.2-15.7,136.2-10.8,12.3-26.5,18.5-46.5,18.5Z"/><path d="M17.2,708a1.92,1.92,0,0,1-2-1.9,2.08,2.08,0,0,1,1.9-2.1c29-1.1,53.2-21.4,56.3-47.2a2,2,0,0,1,3.9.5C74.1,685,48.2,706.75,17.2,708Z"/><path d="M312.2,775.55a24.33,24.33,0,0,1-3.8-.3l-185.5-30.2a2,2,0,0,1,.6-4L309,771.25a21.42,21.42,0,0,0,12.2-1.8,20.23,20.23,0,0,0,9.2-27.1L253,585.25a2,2,0,1,1,3.6-1.8L334,740.55a23.81,23.81,0,0,1,1.2,18.5,24.12,24.12,0,0,1-12.2,14A25.84,25.84,0,0,1,312.2,775.55Z"/><path class="cls-5" d="M149,486.15l.1-.3c2-6.9,4.5-15.1,8-26.6v-.1H280.4l3,27Z"/><path class="cls-2" d="M304.8,842.35v-.2a489.82,489.82,0,0,1-1.6-93v-.1l133.9-74.6-4.5,26.1-5.4,37.2c-1.9,18.9-4.5,44.9,22.7,68.7,11.6,10.2,16.9,19.3,19.2,25.2,2.5,6.4,2.3,10.3,2.3,10.4v.2l-166.6.1Z"/><path class="cls-1" d="M313.5,750.15a61.56,61.56,0,0,1-10.1-.7h-.2v-.2c6.6-84.2,33.3-141.1,35.5-145.7H219.5c-28.3,0-50.3-8-63.7-23.1-12.8-14.5-17.7-34.8-14.5-60.2,1.1-9,3.5-19.3,7.8-34.3v-.1H283.2c.6,0,63.4,1,96.4,4.9,26.8,3.2,43.8,8.3,56.7,17.2,15.6,10.7,24.9,26.9,29.1,50.9,5.6,31.5,14,113.6,14.8,145.8-8.4-17.6-47.6-3.8-47.6-3.8-14.7,5.9-19.6,8.7-31,15.5-7,4.2-16.5,9.9-32.7,18.8C346.7,747.55,326.5,750.15,313.5,750.15Z"/><path d="M303.4,751.25h-.2a2,2,0,0,1-1.8-2.2c6.9-87.7,35.5-146.1,35.8-146.6a2,2,0,1,1,3.6,1.8c-.3.6-28.6,58.3-35.4,145.2A2,2,0,0,1,303.4,751.25Z"/><path class="cls-6" d="M208.6,320.55a19.2,19.2,0,1,1,19.2-19.2A19.2,19.2,0,0,1,208.6,320.55Z"/><path d="M208.6,284.15a17.2,17.2,0,1,1-17.2,17.2,17.2,17.2,0,0,1,17.2-17.2m0-4a21.2,21.2,0,1,0,21.2,21.2,21.21,21.21,0,0,0-21.2-21.2Z"/><path d="M206,306.55a2.09,2.09,0,0,1-1.7-.9,2,2,0,0,1,.6-2.8l12.5-8.3a2,2,0,0,1,2.2,3.4l-12.5,8.3A2,2,0,0,1,206,306.55Z"/><path class="cls-6" d="M246.9,320.05c-9,0-17.5-5.6-24.6-16.2-25.2-37.3-21.5-54.1-7.4-69,.1-.1,17-17,37.8-17a38.65,38.65,0,0,1,11.3,1.7c14.6,4.5,21.8,29.8,16.7,59C276.5,303,262.6,320.05,246.9,320.05Z"/><path d="M252.7,219.85a34.67,34.67,0,0,1,10.7,1.6c13.4,4.1,20.1,29,15.3,56.7-2,11.8-6.5,22.2-12.6,29.5-5.7,6.7-12.5,10.4-19.2,10.4-8.3,0-16.2-5.3-23-15.3-24.5-36.2-21.1-52.3-7.6-66.5.6-.7,16.6-16.4,36.4-16.4m0-4c-22,0-39.3,17.6-39.3,17.6-15.9,16.8-17.2,35.4,7.2,71.5,8,11.9,17.3,17.1,26.3,17.1,16.2,0,31.3-17.1,35.8-43.2,5.3-30.7-2.8-56.5-18.1-61.2a39.12,39.12,0,0,0-11.9-1.8Z"/><path d="M213.4,233.45c-13.8,14.6-16.6,30.6-1.1,58.1,26.3-17.1,17.5-56.5,17.5-56.5,27.5,13.8,52.7,7.6,52.7,7.6-2.9-13.1-9.3-22.4-17.9-25C237.2,209.15,213.4,233.45,213.4,233.45Z"/><path d="M263.7,279.25a2.09,2.09,0,0,1-1.6-.8,2,2,0,0,1,.4-2.8,5.82,5.82,0,0,0,2-2.7c.8-2.2-.7-8.3-2.3-13.9a2,2,0,1,1,3.9-1.1c2.6,9.3,3.2,13.6,2.3,16.3a9.17,9.17,0,0,1-3.4,4.6A2.42,2.42,0,0,1,263.7,279.25Z"/><path d="M250.8,268.05a2,2,0,0,1-2-1.7l-.3-2.2a2,2,0,0,1,4-.6l.3,2.2a2.1,2.1,0,0,1-1.7,2.3Z"/><path d="M273.8,259a2,2,0,0,1-2-1.7l-.3-2.1a2,2,0,1,1,4-.6l.3,2.1a2,2,0,0,1-1.7,2.3Z"/><path d="M257.3,291.45a9.19,9.19,0,0,1-9-7.3,2,2,0,1,1,3.9-.9,5.26,5.26,0,0,0,6,4.1h.1c.2-.1.5-.1.7-.2a2,2,0,1,1,1.8,3.6,5.27,5.27,0,0,1-1.5.5H259A5.24,5.24,0,0,1,257.3,291.45Z"/><path class="cls-6" d="M312.3,502.15c-39.7,0-60.9-41.8-61.8-43.6a387.17,387.17,0,0,1-17.3-38.4l-7.8-24.8,68.9-33.9,13.7,25.1c6.9,14.6,10.8,23.5,11.4,25a2,2,0,0,0,1.1,1.1,1.7,1.7,0,0,0,.7.1,1.88,1.88,0,0,0,.8-.2l2.2-1c112.4-51.8,133.5-59.9,136-60.1h.3a3.22,3.22,0,0,1,2.3,1.9c.8,2.1-.3,5.4-3.1,9.2a2.13,2.13,0,0,0-.1,2.3,2,2,0,0,0,1.7.9.6.6,0,0,0,.4-.1l.8-.2c14.9-3.4,26.1-5.4,33.4-5.8h1q4.8,0,6.9,2.4a7,7,0,0,1,1.4,5.4,2,2,0,0,0,1.3,2.1c2.2.9,3.5,2,3.9,3.5.7,2.4-1.1,5.6-2.2,6.9a2,2,0,0,0-.4,1.5,2.22,2.22,0,0,0,.8,1.3,4,4,0,0,1,1.7,3.3c-.2,2.4-2.4,5-6,6.7-3.3,1.6-8.8,3.1-14.7,4.7-4.2,1-15.1,4.2-19,5.4a2.09,2.09,0,0,0-1.4,2.2,2,2,0,0,0,2,1.7h5.6c25.1,0,27.4,3.1,27.5,4,.4,3.7-3.5,4.7-14.8,6.5l-.6.1c-11.3,1.8-26.8,4.3-43.4,13.7-12,6.8-25.1,16-37.8,24.9-28.6,20-60.9,42.7-89.5,45.7A27.05,27.05,0,0,1,312.3,502.15Z"/><path d="M460.4,353.45a1.44,1.44,0,0,1,.7.6c.4,1-.1,3.5-2.9,7.2a4.07,4.07,0,0,0-.2,4.6,3.81,3.81,0,0,0,3.4,1.8,2.77,2.77,0,0,0,.9-.1l.8-.2c14.8-3.4,25.9-5.3,33-5.7h1c3.9,0,5,1.3,5.4,1.7a6.08,6.08,0,0,1,1,3.9,4,4,0,0,0,2.5,4.2c1.5.6,2.5,1.3,2.7,2.1.4,1.5-.9,3.9-1.8,5.2a3.75,3.75,0,0,0-.8,3,4.69,4.69,0,0,0,1.6,2.7,1.66,1.66,0,0,1,.8,1.5c-.1,1.4-1.6,3.5-4.8,5h-.1c-3.1,1.5-8.7,3-14.2,4.5-4.3,1.1-15.3,4.2-19.1,5.5a4,4,0,0,0-2.7,4.4,4.08,4.08,0,0,0,4,3.4h5.6c4.7,0,10.8.1,16.1.6,6.6.7,8.8,1.7,9.5,2.2,0,.4-.3.8-1.6,1.3-2.4,1-6.7,1.7-11.6,2.5h-.2l-.4.1c-11.4,1.8-27.1,4.4-44.1,13.9-12.1,6.9-25.2,16.1-37.9,25-28.3,19.9-60.4,42.4-88.5,45.4-2.1.2-4.1.3-6.1.3-38.5,0-59.2-40.7-60-42.5v-.1a381.23,381.23,0,0,1-17.2-38.1l-7.2-23.1L293.7,364l12.7,23.3c6.8,14.5,10.8,23.4,11.4,24.8a4,4,0,0,0,2.2,2.2,4,4,0,0,0,1.5.3,3.53,3.53,0,0,0,1.7-.4l2.2-1c108.3-49.8,131.3-58.9,135-59.7m.1-4.1c-.1.1-.1.1-.2.1-6,0-116.4,50.9-139,61.3-.7-1.7-4.8-10.9-11.5-25.1l-14.6-26.8L223,394.35l8.3,26.5a392.68,392.68,0,0,0,17.4,38.6c.2.4,22,44.7,63.6,44.7,2.1,0,4.3-.1,6.5-.3,29.1-3.1,61.6-25.9,90.4-46.1,13.4-9.4,26-18.2,37.6-24.8,16.5-9.3,31.9-11.7,43.1-13.5,10.8-1.7,17.4-2.7,16.7-8.7-.6-5.5-18.9-5.8-29.5-5.8h-5.6c4-1.3,14.8-4.4,18.9-5.4,6-1.6,11.6-3.1,15-4.8,4.2-2,6.9-5.2,7.1-8.4a5.66,5.66,0,0,0-2.5-5c.7-.9,3.5-5,2.5-8.7q-.9-3.15-5.1-4.8a9.4,9.4,0,0,0-1.9-7c-1.8-2.1-4.6-3.1-8.4-3.1H496c-11.8.6-31.1,5.2-34.6,6,3.3-4.4,4.5-8.3,3.4-11.1a5.35,5.35,0,0,0-4.3-3.3Z"/><path class="cls-2" d="M157.2,459.65h0a48.6,48.6,0,0,1-18.8-38.6c0-16.9,9.1-36.8,27.2-59.2l1.1-1.4c23.2-28.7,45.1-55.9,72-55.9a26.2,26.2,0,0,1,2.8.1c19.3,1.3,33.1,11.1,43.5,30.6,9.5,18,17,33.9,23,46.7l1.8,3.8-78.5,34.7a410.64,410.64,0,0,0,17.3,38.9l.2.3Z"/><path d="M250.8,461.45H157.4a2,2,0,0,1,0-4h93.4a2,2,0,0,1,0,4Z"/><path d="M271.5,488h-122a2,2,0,0,1,0-4h122a2,2,0,0,1,0,4Z"/><path d="M233.6,423a2.16,2.16,0,0,1-1.9-1.3l-1.7-4.1c-3.5-8.8-8.4-20.8-10.7-27.3a2,2,0,1,1,3.8-1.4c2.3,6.4,7.1,18.4,10.6,27.2l1.7,4.1a2,2,0,0,1-1.1,2.6A1,1,0,0,1,233.6,423Z"/><path d="M165.5,488h-.3a2,2,0,0,1-1.6-2.3l4.6-26.5a2,2,0,0,1,3.9.7l-4.6,26.5A2,2,0,0,1,165.5,488Z"/><path d="M192.1,488H192a2.08,2.08,0,0,1-1.9-2.1l1.7-26.5a2,2,0,1,1,4,.2l-1.7,26.5A2.05,2.05,0,0,1,192.1,488Z"/><path d="M217.7,488h0a2,2,0,0,1-2-2.1l.7-26.5a2,2,0,1,1,4,.2l-.7,26.5A2,2,0,0,1,217.7,488Z"/><path d="M245.2,488a2,2,0,0,1-2-1.9l-1.3-26.5a2,2,0,0,1,1.9-2.1,2.08,2.08,0,0,1,2.1,1.9l1.3,26.5a2,2,0,0,1-2,2.1Z"/><path d="M365.9,605.35H219.5c-14.1,0-26.7-1.9-37.5-5.7a2,2,0,1,1,1.4-3.8c10.3,3.6,22.5,5.5,36.1,5.5H365.9a2,2,0,0,1,0,4Z"/><path d="M357.5,844.15a2,2,0,0,1-2-1.7c-4.5-28.6-27.6-50.2-53.6-50.2a2,2,0,0,1,0-4c28,0,52.8,23,57.6,53.6a2,2,0,0,1-1.7,2.3Z"/><path d="M369,736.85h-.4a1.92,1.92,0,0,1-1.5-2.4l34.2-156.3a22.65,22.65,0,0,0,.6-5.3A25,25,0,0,0,377,548H223.4a28.56,28.56,0,0,1-5.8-.6,26.52,26.52,0,0,1-19.8-31.6l6.9-30.2a2,2,0,0,1,3.9.9l-6.9,30.2a22.53,22.53,0,0,0,16.8,26.8,20.4,20.4,0,0,0,4.9.5H376.9a29,29,0,0,1,28.9,28.9,30.05,30.05,0,0,1-.6,6.1L371,735.25A2.11,2.11,0,0,1,369,736.85Z"/><path d="M267.5,720.25a2.92,2.92,0,0,1-.9-.2c-7.7-3.9-25-11.2-25.2-11.2a2,2,0,0,1,1.5-3.7c.7.3,17.6,7.4,25.4,11.4a2,2,0,0,1,.9,2.7A1.94,1.94,0,0,1,267.5,720.25Z"/><path d="M399.4,781.15a2.13,2.13,0,0,1-2-1.6,2,2,0,0,1,1.6-2.3l28.8-5.6a2,2,0,0,1,.7,3.9l-28.8,5.6Z"/><path d="M415.1,811.65a2.09,2.09,0,0,1-1.6-.8,2.07,2.07,0,0,1,.5-2.8L436.6,792a2,2,0,0,1,2.3,3.3l-22.6,16.1A2.66,2.66,0,0,1,415.1,811.65Z"/><path d="M425.3,775.65a2,2,0,0,1-1.1-3.7l75.2-48.7a25.68,25.68,0,0,1,4.4-2.2,22.17,22.17,0,0,1,28.4,13.2,27.08,27.08,0,0,1,1.2,4.7,22.21,22.21,0,0,1-19.1,24.9l-88.8,11.7C425.5,775.65,425.4,775.65,425.3,775.65Zm86.1-51.9a18.83,18.83,0,0,0-6.2,1.1,24,24,0,0,0-3.6,1.8l-67.7,43.9,80-10.5a18.43,18.43,0,0,0,12.1-7,18.12,18.12,0,0,0,3.6-13.5,24.93,24.93,0,0,0-1-3.9A18.38,18.38,0,0,0,511.4,723.75Z"/><path d="M492.9,814.65a2.13,2.13,0,0,1-2-1.6c-7.5-39.1-64.9-37.2-65.5-37.2a2,2,0,1,1-.2-4,110.25,110.25,0,0,1,31.4,4c21.6,6.2,34.7,18.8,38.1,36.4a2,2,0,0,1-1.6,2.3C493.1,814.65,493,814.65,492.9,814.65Z"/><path d="M87.8,893.85H86.5a21.71,21.71,0,0,1-15.2-7.2,22.06,22.06,0,0,1-5.7-16.1l4.7-89.5a2,2,0,0,1,1.7-1.9,2,2,0,0,1,2.2,1.2l34.2,82.8a27.46,27.46,0,0,1,1.3,4.7,22.12,22.12,0,0,1-3.7,16.6,22.51,22.51,0,0,1-14.4,9.1A24.33,24.33,0,0,1,87.8,893.85Zm-14-103.8-4.2,80.7a18.13,18.13,0,0,0,17.2,19.1,13.27,13.27,0,0,0,4-.3,18,18,0,0,0,11.8-7.4,18.28,18.28,0,0,0,3.1-13.6,34.5,34.5,0,0,0-1.1-4Z"/><path d="M21.7,842.45a2,2,0,0,1,0-4c38.4-.2,47.7-53.2,48.4-57.3L66.8,754a2,2,0,1,1,3.9-.5L74,781v.5a110.25,110.25,0,0,1-9.6,30.2c-9.9,20.1-24.7,30.7-42.7,30.8Z"/><path d="M54.3,789.85a2,2,0,0,1-1.7-.9l-14-22.4a2,2,0,1,1,3.4-2.2l14,22.4a2.07,2.07,0,0,1-.6,2.8A2.28,2.28,0,0,1,54.3,789.85Z"/><path d="M437.8,374.85a2,2,0,0,1-1.9-1.4,2,2,0,0,1,1.3-2.5c11.7-3.9,24.2-7.1,24.3-7.1a2,2,0,0,1,1,3.8c-.1,0-12.5,3.2-24.1,7.1A1.27,1.27,0,0,1,437.8,374.85Z"/><path d="M453.5,383.75a2,2,0,0,1-1.9-1.4,2,2,0,0,1,1.4-2.5c23.5-6.8,51.1-12.8,51.3-12.8a2,2,0,1,1,.9,3.9c-.3.1-27.7,6-51.1,12.8Z"/><path d="M458.4,396.45a2,2,0,0,1-1.9-1.4,2,2,0,0,1,1.3-2.5,396.19,396.19,0,0,1,49.2-12.9,2,2,0,0,1,.7,3.9,386.38,386.38,0,0,0-48.6,12.7A1.08,1.08,0,0,1,458.4,396.45Z"/><g id="clothes"><path class="cls-3" d="M647.3,112.05H787a35.4,35.4,0,0,1,35.4,35.4h0a35.4,35.4,0,0,1-35.4,35.4H647.3a35.4,35.4,0,0,1-35.4-35.4h0A35.47,35.47,0,0,1,647.3,112.05Z"/><path class="cls-3" d="M647.3,182.85H787a35.4,35.4,0,0,1,35.4,35.4h0a35.4,35.4,0,0,1-35.4,35.4H647.3a35.4,35.4,0,0,1-35.4-35.4h0A35.4,35.4,0,0,1,647.3,182.85Z"/><path d="M717.2,255.75a2,2,0,0,1-2-2V112.05a2,2,0,1,1,4,0v141.7A2,2,0,0,1,717.2,255.75Z"/><path d="M717,115.85h-.2a2,2,0,0,1-1.8-1.7l-13.1-88.6a16.08,16.08,0,0,1-.2-5A22.19,22.19,0,0,1,730.3,1a21.56,21.56,0,0,1,13.1,10.7,21.87,21.87,0,0,1,1.6,17l-26.2,85.7A1.75,1.75,0,0,1,717,115.85Zm6.9-111.8a18.46,18.46,0,0,0-18.3,16.8,11.94,11.94,0,0,0,.2,3.9v.1l11.8,79.8,23.6-77.2a18.09,18.09,0,0,0-12-22.7,19.79,19.79,0,0,0-4-.7A5.63,5.63,0,0,1,723.9,4.05Z"/><path d="M717.1,114.45a2.92,2.92,0,0,1-.9-.2L653.2,83a21.65,21.65,0,0,1-3.2-2.1,18,18,0,0,1-2.7-25.1,13.22,13.22,0,0,1,2.9-2.9,18.34,18.34,0,0,1,13.2-3.7,18,18,0,0,1,11.9,6.7l43.4,55.3a2,2,0,0,1,0,2.5A2.09,2.09,0,0,1,717.1,114.45Zm-55.9-61.4a13.18,13.18,0,0,0-8.5,3,8.36,8.36,0,0,0-2.1,2.1l-.1.1a13.91,13.91,0,0,0,2,19.5c1,.7,1.8,1.3,2.5,1.7l55.1,27.4-38-48.5a13.74,13.74,0,0,0-9.3-5.2C662.3,53.15,661.7,53.05,661.2,53.05Z"/><path d="M717.6,114.35a2.11,2.11,0,0,1-1.3-.5,2,2,0,0,1-.2-2.8A109.17,109.17,0,0,1,740.7,91c19.3-11.4,37.6-12.3,52.7-2.5a2,2,0,1,1-2.2,3.4c-33.6-21.6-71.7,21.4-72.1,21.8A1.8,1.8,0,0,1,717.6,114.35Z"/></g><path d="M793.8,673.15l-7.7-41.3.1-.1c18.5-21.2,41.4-29.6,56.6-30.5h.2v.2a477.8,477.8,0,0,1-8.5,71.5v.2Z"/><path d="M721.1,568.85c-.5,0-51-2.5-51-31,6.8-12.5,26-14.4,36.8-14.4,4.1,0,6.9.3,7,.3h.1v.1s.7,3.6,1.1,5.6c2.2,10.9,5,26.5,6.1,39.1v.2Z"/><path d="M1080.1,744.75c-.1-.3-5.9-27.1-11.4-44.9v-.2l.1-.1c.1-.1,14.6-8.3,29.2-10.2a35.63,35.63,0,0,1,5.5-.4c13.9,0,17.3,8.3,17.4,8.4s5.4,21.1-40.4,47.5l-.2.1Z"/><path d="M1022,281.25h0c.2-.2,2.8-2.8,17.8-13.9,6.6-4.9,12.9-7.4,18.6-7.4,6.6,0,10.1,3.4,10.2,3.5s4,8.1,1.8,19.5c-3.7,19-21.2,32.7-35.3,40.8l-.2.1Z"/><path class="cls-4" d="M927.6,842.35v-.2c0-.1-.8-13.1,14.8-29.7,13.7-14.6,26.9-33.5,20.6-63.8v-.1l104.6-53.3.1.2c5.8,17.5,12.7,48.9,12.8,49.2,0,.1,2.1,10.6,4.5,25.8v.2h-.2c-15.3,3.7-52.7,18.1-70.3,71.5v.1l-86.9.1Z"/><path d="M1085,770.45h0l-.2-.1c-18.6,4.5-34.7,14.7-47.8,30.3l-.1.1,13.8,41.6v-.1h39.6v-.2C1090.3,823.85,1088.2,790.65,1085,770.45Z"/><path class="cls-3" d="M968.6,749.25a41.1,41.1,0,0,1-5.5-.3H963v-.1c-2.5-12.3-11.1-33.2-22-59.5-13.9-33.8-31.3-75.9-41.9-115.6-9.7-36.1-14.2-92-16.4-132.5-2.3-43.9-2.3-79.7-2.3-80.1V361l141.1,11.8v.2c-.2,20.5-.8,38.8-1.5,56.6-2.5,70.8-4.1,117.6,29,161.7,11.8,15.7,21.9,28.4,30.8,39.5,22.1,27.6,36.1,48.9,41.1,66.7.1.2-10-18.6-52.2,2.7a340.55,340.55,0,0,0-31.4,19.8c-10,6.9-19.4,13.4-32.7,20C988.6,748.05,975.2,749.25,968.6,749.25Z"/><path d="M987.8,777.25H963.7a2,2,0,0,1,0-4h24.1a2,2,0,0,1,0,4Z"/><path d="M979.9,803.85a1.88,1.88,0,0,1-.8-.2l-21.9-10.1a2,2,0,1,1,1.7-3.7L980.8,800a2.14,2.14,0,0,1,1,2.7A2.06,2.06,0,0,1,979.9,803.85Z"/><path d="M1010.5,738.75a1.93,1.93,0,0,1-1.9-1.5l-12.9-53a2.51,2.51,0,0,1,.2-1.5,1.76,1.76,0,0,1,1.3-.9l57.2-12.5-57.3-13.1a1.89,1.89,0,0,1-1.4-1.2,1.91,1.91,0,0,1,.2-1.8l27.4-43.7L973,637.35a2.24,2.24,0,0,1-1.8.1,1.63,1.63,0,0,1-1.1-1.3L954,572.65l-9.5,76.1a1.94,1.94,0,0,1-.9,1.4,2.49,2.49,0,0,1-1.7.3l-20.6-5.9a2,2,0,0,1,1.1-3.9l18.4,5.3,10.5-84.3a1.86,1.86,0,0,1,1.9-1.7,2,2,0,0,1,2.1,1.5l18.1,71.3,54.8-30.2a2,2,0,0,1,2.6,2.8l-30,47.8,63.3,14.5a2,2,0,0,1,1.6,2,1.93,1.93,0,0,1-1.6,1.9l-64,14,12.4,51a1.92,1.92,0,0,1-1.5,2.4A.55.55,0,0,0,1010.5,738.75Z"/><path d="M997.5,745a2.36,2.36,0,0,1-1.6-.7l-27.8-34.6-11.4,15.4a2,2,0,0,1-3.2-2.4l12.9-17.5a1.94,1.94,0,0,1,1.6-.8,2.36,2.36,0,0,1,1.6.7l29.4,36.6a1.94,1.94,0,0,1-.3,2.8A1.46,1.46,0,0,1,997.5,745Z"/><path d="M900.7,580.85a2.11,2.11,0,0,1-1.3-.5,2,2,0,0,1-.3-2.8L938.6,530l-47,6.1a2,2,0,1,1-.5-3.9l52.1-6.8a2,2,0,0,1,2,1,2,2,0,0,1-.2,2.2l-42.8,51.5A1.66,1.66,0,0,1,900.7,580.85Z"/><path d="M992.7,563.75h-.3a2,2,0,0,1-1.7-1.8l-5.8-67.2L913.8,491a2,2,0,0,1-.8-3.8L978.1,457l-24.2-20.6a2,2,0,0,1,2.6-3L983.1,456a2,2,0,0,1,.7,1.8,1.78,1.78,0,0,1-1.1,1.5l-60.6,28.1,64.8,3.5a2,2,0,0,1,1.9,1.8l5.2,60.8,23.5-55.6a2,2,0,1,1,3.7,1.5l-26.6,63A2.1,2.1,0,0,1,992.7,563.75Z"/><path class="cls-4" d="M667.8,673.15V673c0-.1-.7-15.1,26.6-35.6,27-20.3,28.5-46.1,26.5-68.7-1.1-12.6-4-28.2-6.1-39.1-.4-2.1-.8-4-1.1-5.6v-.1l57.7-61.8,72.1,113.4v.1c.1,8.5-.1,17.2-.5,25.9v.2h-.2c-13.7.8-29.2,7.1-42.3,17.2-16.7,12.9-29.5,31.6-36.9,54.2v.1Z"/><circle cx="1007.7" cy="101.95" r="38.6"/><circle cx="1083.9" cy="101.95" r="38.6"/><path class="cls-6" d="M970.5,150.35a19.2,19.2,0,1,1,19.2-19.2A19.2,19.2,0,0,1,970.5,150.35Z"/><path d="M970.5,114a17.2,17.2,0,1,1-17.2,17.2A17.2,17.2,0,0,1,970.5,114m0-4a21.2,21.2,0,1,0,21.2,21.2A21.21,21.21,0,0,0,970.5,110Z"/><path d="M973.2,136.35a2,2,0,0,1-1.1-.3l-12.6-8.3a2,2,0,1,1,2.2-3.4l12.6,8.3a2.05,2.05,0,0,1,.6,2.8A2.09,2.09,0,0,1,973.2,136.35Z"/><path class="cls-6" d="M932.3,149.85c-15.7,0-29.6-17.1-33.8-41.5-5-29.1,2.2-54.4,16.7-59a38.65,38.65,0,0,1,11.3-1.7c18.4,0,33.5,12.9,37.7,16.9l.2.2c8.2,8.7,11.6,17,10.9,26.9-.7,11.2-6.6,24.5-18.4,42C949.8,144.25,941.3,149.85,932.3,149.85Z"/><path d="M926.5,49.65c17.7,0,32.3,12.5,36.3,16.3l.2.2c13.4,14.2,16.7,30.3-7.7,66.4-6.7,10-14.7,15.3-23,15.3-6.7,0-13.6-3.7-19.2-10.4-6.1-7.2-10.6-17.7-12.6-29.5-2.4-14.1-2-27.8,1.2-38.4,3-9.8,8-16.3,14.2-18.3a33.59,33.59,0,0,1,10.6-1.6m0-4a39.12,39.12,0,0,0-11.9,1.8c-15.4,4.8-23.4,30.6-18.1,61.2,4.5,26.1,19.6,43.2,35.8,43.2,9,0,18.3-5.2,26.3-17.1,24.4-36.1,23.1-54.7,7.2-71.5-.1,0-17.3-17.6-39.3-17.6Z"/><path d="M965.7,63.25c13.8,14.6,16.6,30.6,1.1,58.1-26.3-17.1-17.5-56.5-17.5-56.5-27.5,13.8-52.7,7.6-52.7,7.6,2.9-13.1,9.3-22.4,17.9-25C941.9,39,965.7,63.25,965.7,63.25Z"/><path d="M915.5,109.05a1.92,1.92,0,0,1-1.2-.4,9.42,9.42,0,0,1-3.4-4.7c-.9-2.7-.4-7,2.3-16.3a2,2,0,0,1,3.9,1.1c-1.6,5.6-3.1,11.7-2.3,13.9a6.29,6.29,0,0,0,2,2.8,2,2,0,0,1,.4,2.8A2.46,2.46,0,0,1,915.5,109.05Z"/><path d="M928.3,97.75H928a2,2,0,0,1-1.7-2.3l.3-2.1a2,2,0,1,1,4,.6l-.3,2.1A2,2,0,0,1,928.3,97.75Z"/><path d="M905.4,88.75h-.3a2,2,0,0,1-1.7-2.3l.3-2.2a2,2,0,1,1,4,.6l-.3,2.2A2,2,0,0,1,905.4,88.75Z"/><path d="M921.8,121.25a5,5,0,0,1-1.7-.2h-.3a5.27,5.27,0,0,1-1.5-.5,2,2,0,0,1,1.8-3.6c.1.1.4.1.7.2h.1a5.13,5.13,0,0,0,6-4.1,2,2,0,1,1,3.9.9A9.09,9.09,0,0,1,921.8,121.25Z"/><path class="cls-3" d="M1041.2,351.05c-1.9-15.5-7.4-33-18.3-67.9-1.4-4.6-2.9-9.4-4.5-14.6l-.1-.2-118.2,39.4c-.6.1-65.4,5-110.2,12.8-24.8,4.4-40.8,10-53.5,18.9-13.8,9.6-23.7,23.3-32.2,44.2-9.5,23.4-18.2,69.7-26,110.6-2.6,13.9-7,33.4-8.1,43.6,10.6-16.4,38.7-14.4,44.1-13.7,25.2,4.9,43.9,16.6,60.3,27,8.4,5.3,16.5,10.4,24.3,13.7,22.8,9.7,35.5,11.1,41,11.1a22.1,22.1,0,0,0,3.5-.2h.2v-.2c-.7-80.8-21.4-136.8-23.1-141.2H963c28.3,0,50.3-8,63.7-23.1C1039.5,396.75,1044.4,376.55,1041.2,351.05Z"/><path class="cls-6" d="M867.7,335c-1.5,0-3.1-.1-4.8-.2-33.2-2.8-64.2-34.7-91.5-62.8l-.3-.3c-11.3-11.6-21.9-22.5-32.2-31-15-12.4-30.4-17.4-41.6-21l-.2-.1c-10.9-3.5-14.6-5-13.6-8.5.2-.8,2.3-2,8.8-2,7.3,0,17.3,1.9,20.6,2.5a6.37,6.37,0,0,1,.9.2h.3a2,2,0,0,0,1.9-1.4,2,2,0,0,0-1-2.4l-1-.5-.5-.2c-5.4-2.6-22-10.6-26.8-13.9-3.2-2.4-5-5.3-4.7-7.7a3.54,3.54,0,0,1,2.2-2.9,2,2,0,0,0,1.1-1.1,1.81,1.81,0,0,0-.1-1.6c-.4-.7-2.2-4.6-.9-7.2.5-.9,1.4-2.2,4.5-2.8a2,2,0,0,0,1.6-1.8c.2-2,1.2-6.6,7-6.6a18.08,18.08,0,0,1,3.6.5c12.5,2.9,32.4,11.9,32.6,12a2.35,2.35,0,0,0,.8.2,2.2,2.2,0,0,0,1.5-.6,2,2,0,0,0,.3-2.3c-2.1-4.1-2.7-7.6-1.5-9.5a3.37,3.37,0,0,1,2.9-1.5c6.5,2.1,83.5,55.5,120,81.2a2.14,2.14,0,0,0,1.2.4.75.75,0,0,0,.5-.1,2.07,2.07,0,0,0,1.3-1.1c.6-1.5,4.2-9.6,11.6-25.3l14.4-25.9,71.8,34.2-7,23.9c-14.4,37.2-33.3,61.4-33.7,61.9l-.2.2C917.6,309.75,897.9,335,867.7,335Z"/><path d="M737.4,162.15c9,4,85.1,56.9,119.2,80.8a3.89,3.89,0,0,0,2.3.7,2.15,2.15,0,0,0,1.1-.2,4,4,0,0,0,2.6-2.3c.6-1.5,4.2-9.6,11.6-25.1l13.5-24.2,68.6,32.7-6.5,22.2c-14.2,36.8-32.8,60.6-33.4,61.3l-.2.2A69.42,69.42,0,0,1,902.4,321c-11.1,7.9-22.7,11.9-34.7,11.9-1.4,0-3-.1-4.6-.2-32.5-2.8-63.2-34.4-90.2-62.2l-.3-.3c-11.3-11.6-22-22.6-32.4-31.1-15.3-12.6-30.9-17.7-42.3-21.4h-.2c-4.7-1.5-8.8-2.8-11-4.2-1.2-.7-1.4-1.1-1.3-1.5.5-.3,2.3-.9,6.9-.9,7.1,0,17,1.9,20.2,2.5a6.37,6.37,0,0,1,.9.2c.2,0,.5.1.7.1a4.09,4.09,0,0,0,3.8-2.7,4,4,0,0,0-2-4.8l-1-.5h-.1l-.5-.2c-5.4-2.6-21.8-10.5-26.4-13.7-2.6-1.9-4-4.1-3.9-5.8a1.33,1.33,0,0,1,1-1.3,4.14,4.14,0,0,0,2.2-2.3,4,4,0,0,0-.2-3.2c-.9-1.7-1.5-4.2-.9-5.4.2-.3.6-1.3,3.1-1.8a3.94,3.94,0,0,0,3.2-3.6c.3-3.1,1.9-4.7,5-4.7a17,17,0,0,1,3.1.4c12.3,2.9,32,11.7,32.2,11.8a4.71,4.71,0,0,0,1.7.4,4,4,0,0,0,2.9-1.2,3.93,3.93,0,0,0,.6-4.6c-2.1-4-2.1-6.6-1.6-7.5a1.82,1.82,0,0,1,1.1-1m.5-4a5.42,5.42,0,0,0-4.8,2.5c-1.6,2.6-1.1,6.7,1.4,11.5-3.3-1.5-21.4-9.4-33-12.1a19.86,19.86,0,0,0-4-.5c-8.1,0-8.9,7.2-9,8.4-3,.6-4.9,1.9-5.9,3.9-1.7,3.5.4,8,.9,9a5.53,5.53,0,0,0-3.4,4.5c-.4,3.3,1.7,6.8,5.5,9.6,5,3.5,22.1,11.7,27.5,14.3l1,.5c-1.7-.3-13.4-2.7-21.8-2.7-6.5,0-10.1,1.2-10.7,3.5-1.6,5.7,4.7,7.7,15,11,11.1,3.6,26.3,8.5,41.1,20.7,10.3,8.5,21,19.5,32.3,31.1,27.6,28.4,58.9,60.5,92.8,63.4,1.6.1,3.3.2,4.9.2,31.3,0,51.5-26,51.7-26.3s19.5-24.7,34.1-62.6l7.5-25.6-75.1-35.7-15.3,27.6c-7.6,15.9-11.1,24-11.7,25.4-7.1-5-116.2-81.6-121-81.6Z"/><path d="M741.8,614.05a1.27,1.27,0,0,1-.6-.1l-23.3-7.4a2,2,0,1,1,1.2-3.8l23.3,7.4a2,2,0,0,1,1.3,2.5A2,2,0,0,1,741.8,614.05Z"/><path d="M728,639.55a1.75,1.75,0,0,1-1.2-.4l-18.3-14.4a2,2,0,1,1,2.5-3.1l18.3,14.4a1.94,1.94,0,0,1,.3,2.8A2.36,2.36,0,0,1,728,639.55Z"/><path d="M781,557.05a1.94,1.94,0,0,1-1.7-1,2,2,0,0,1,.8-2.7l16.2-9L764.8,487a2,2,0,0,1,.4-2.4,2.15,2.15,0,0,1,2.4-.3l51.1,31.3L832.2,484a2,2,0,1,1,3.7,1.5l-14.4,33.7a2.16,2.16,0,0,1-1.2,1.1,2,2,0,0,1-1.7-.2l-46.7-28.6L800.8,544a2,2,0,0,1-.8,2.7l-17.9,10A1.86,1.86,0,0,1,781,557.05Z"/><path d="M732,511.55a2.05,2.05,0,0,1-1.9-1.3l-19.7-52.5-27.7,21.4a2,2,0,1,1-2.4-3.2l29.8-23.1a2,2,0,0,1,3.1.9l17.4,46.1,3.4-61.3a1.65,1.65,0,0,1,.9-1.5,1.75,1.75,0,0,1,1.7-.3L788.5,453l-39.1-37.4a2.18,2.18,0,0,1,0-3l42.7-39.3-61.4,19.1a1.84,1.84,0,0,1-1.6-.2,2.21,2.21,0,0,1-1-1.3l-8.9-36.4a2,2,0,0,1,3.9-.9l8.4,34.3,67.9-21.1a1.91,1.91,0,0,1,2.3.9,2,2,0,0,1-.4,2.5l-47.6,43.9,43.7,41.8a2,2,0,0,1-2,3.4l-57.5-17.9-3.8,68.2a2.24,2.24,0,0,1-1.7,1.9A.76.76,0,0,1,732,511.55Z"/><path d="M861.8,409.25a1.69,1.69,0,0,1-1-.3,2.09,2.09,0,0,1-.9-2.3l15.1-52.8-66.5-6.7a2.12,2.12,0,0,1-1.8-1.7,1.89,1.89,0,0,1,1.2-2.1l34.6-15a2,2,0,1,1,1.6,3.6l-27.5,11.9,61.2,6.1a2.37,2.37,0,0,1,1.5.9,2,2,0,0,1,.3,1.7l-13.7,47.8,45.8-44.9a1.93,1.93,0,0,1,2.8,0l40.2,38.4-14-54.2a2.22,2.22,0,0,1,.3-1.6,1.94,1.94,0,0,1,1.4-.9l52.5-7.2-28.2-16.7a2,2,0,0,1,2-3.4l33.1,19.6a2,2,0,0,1,.9,2.1,2,2,0,0,1-1.7,1.6l-56,7.7,15.2,58.8a2,2,0,0,1-.9,2.2,2,2,0,0,1-2.4-.3l-43.9-42-49.8,48.8A1.54,1.54,0,0,1,861.8,409.25Z"/><path d="M1040.9,380.75a1.7,1.7,0,0,1-.7-.1l-37.4-14.8a2.25,2.25,0,0,1-1.3-1.8,2.06,2.06,0,0,1,1.2-1.9l37.4-16.7a2,2,0,0,1,2.6,1,1.9,1.9,0,0,1-1,2.6l-33.1,14.8,33,13.1a2,2,0,0,1,1.1,2.6A2,2,0,0,1,1040.9,380.75Z"/><path d="M963.2,436.15H882.5a2,2,0,0,1,0-4h80.7c23.7,0,42.5-5.5,55.7-16.3a2,2,0,0,1,2.5,3.1C1007.5,430.35,987.9,436.15,963.2,436.15Z"/><path class="cls-4" d="M1022.1,281.65c-3.3,2.8-39.9,33.8-78.2,33.8a61.27,61.27,0,0,1-24.3-4.8l-.1-.1.2-.2c.2-.2,18.7-23.7,33.6-62.3l-82.7-33.5.1-.2c6.5-13.6,14.2-29.1,22.7-46.2,10.8-21.6,26.1-33.2,45.4-34.5a26.2,26.2,0,0,1,2.8-.1c27.3,0,49.5,27.8,73.1,57.2,31.1,38.9,53.9,72.5,54.1,72.8C1054.6,251.35,1022.1,281.65,1022.1,281.65Z"/><path d="M820.1,436.15H798.9a2,2,0,0,1,0-4h21.2a2,2,0,0,1,0,4Z"/><path d="M950.4,251.85a1.2,1.2,0,0,1-.8-.2,2,2,0,0,1-1.1-2.6c.1-.2,6.9-16.8,12.8-33.4A2,2,0,1,1,965,217c-5.8,16.7-12.8,33.4-12.8,33.6A1.92,1.92,0,0,1,950.4,251.85Z"/><path d="M738.8,191.85a2.92,2.92,0,0,1-.9-.2c-.2-.1-24.8-11.8-47-19.6a2,2,0,0,1,1.3-3.7c22.4,7.8,47.2,19.7,47.4,19.8a2,2,0,0,1,.9,2.7A1.82,1.82,0,0,1,738.8,191.85Z"/><path d="M732.9,203.65a2.92,2.92,0,0,1-.9-.2c-21-10.1-36.5-16.7-45.9-19.6a1.88,1.88,0,0,1-1.3-2.5,1.94,1.94,0,0,1,2.5-1.3c9.6,2.9,25.3,9.6,46.5,19.8a2,2,0,0,1-.9,3.8Z"/><path d="M754.6,186a2.92,2.92,0,0,1-.9-.2l-20.3-9.6a2,2,0,1,1,1.7-3.7l20.3,9.6a2.14,2.14,0,0,1,1,2.7A1.92,1.92,0,0,1,754.6,186Z"/></svg>