<?xml version="1.0" encoding="iso-8859-1"?>
<!-- Generator: Adobe Illustrator 19.0.0, SVG Export Plug-In . SVG Version: 6.00 Build 0)  -->
<svg version="1.1" id="Capa_1" xmlns="http://www.w3.org/2000/svg" xmlns:xlink="http://www.w3.org/1999/xlink" x="0px" y="0px"
	 viewBox="0 0 512 512" style="enable-background:new 0 0 512 512;" xml:space="preserve">
<path style="fill:#EDA751;" d="M382.253,469.034h-81.541c-13.18,0-23.865-10.684-23.865-23.865s10.685-23.865,23.865-23.865h81.541
	c13.18,0,23.865,10.685,23.865,23.865C406.118,458.351,395.434,469.034,382.253,469.034z"/>
<path style="opacity:0.2;fill:#A35F00;enable-background:new    ;" d="M382.253,469.034h-81.541
	c-13.18,0-23.865-10.684-23.865-23.865s10.685-23.865,23.865-23.865h81.541c13.18,0,23.865,10.685,23.865,23.865
	C406.118,458.351,395.434,469.034,382.253,469.034z"/>
<path style="fill:#EDA751;" d="M98.203,461.628c-11.19,0-20.628-3.724-27.832-8.073c-22.54-13.609-27.779-35.772-32.402-55.324
	c-4.779-20.213-8.438-33.01-22.842-41.087c-7.185-4.028-9.743-13.12-5.713-20.305c4.027-7.184,13.115-9.746,20.305-5.713
	c26.56,14.893,32.504,40.038,37.28,60.243c4.327,18.301,7.55,29.863,18.79,36.648c6.977,4.211,16.145,7.102,31.257-3.378
	c12.717-8.821,24.629-23.517,35.14-36.483c1.232-1.52,2.437-3.005,3.613-4.447c5.215-6.38,14.611-7.324,20.988-2.115
	c6.38,5.212,7.326,14.609,2.115,20.988c-1.155,1.413-2.335,2.87-3.542,4.359c-11.183,13.796-25.101,30.965-41.311,42.208
	C120.814,458.331,108.733,461.628,98.203,461.628z"/>
<path style="opacity:0.2;fill:#C18F00;enable-background:new    ;" d="M176.788,381.596c-6.376-5.209-15.773-4.265-20.988,2.115
	c-1.177,1.441-2.382,2.927-3.614,4.447c-10.511,12.966-22.423,27.662-35.14,36.483c-2.446,1.697-4.735,3.038-6.886,4.085
	c5.397,8.536,11.87,16.403,19.247,23.432c1.531-0.925,3.077-1.921,4.641-3.006c16.21-11.244,30.128-28.413,41.311-42.208
	c1.207-1.489,2.388-2.946,3.542-4.359C184.114,396.204,183.168,386.808,176.788,381.596z"/>
<path style="fill:#FCD79D;" d="M29.72,331.125c-7.19-4.033-16.278-1.471-20.305,5.713c-4.03,7.185-1.472,16.277,5.713,20.305
	c3.421,1.918,6.23,4.107,8.598,6.594c6.687-4.373,14.254-12.124,18.346-23.739C38.535,336.773,34.461,333.783,29.72,331.125z"/>
<ellipse style="fill:#FCD690;" cx="221.556" cy="366.757" rx="110.068" ry="102.279"/>
<path style="opacity:0.1;fill:#C18F00;enable-background:new    ;" d="M205.483,467.945
	c-50.299-33.024-34.711-100.708-26.173-130.308V272.28c-39.823,15.395-67.826,51.892-67.826,94.472
	C111.485,418.167,152.312,460.716,205.483,467.945z"/>
<path style="fill:#EDA751;" d="M154.571,189.397c21.539-18.073,35.92-48.412,5.539-93.263
	c-30.621-45.204-76.209-56.535-111.8-52.342c-8.775,1.034-16.137,7.212-18.679,15.674c-10.31,34.323-7.067,81.187,32.134,119.191
	C100.657,216.364,133.032,207.47,154.571,189.397z"/>
<path style="fill:#FF91AB;" d="M28.198,64.718c-8.452,33.747-3.673,77.836,33.566,113.939c33.712,32.684,62.52,30.348,83.626,17.379
	C130.873,97.497,67.465,71.368,28.198,64.718z"/>
<path style="fill:#EDA751;" d="M288.542,189.397c-21.539-18.073-35.919-48.412-5.539-93.263
	c30.621-45.204,76.209-56.535,111.8-52.342c8.775,1.034,16.137,7.212,18.679,15.674c10.31,34.323,7.067,81.187-32.134,119.191
	C342.456,216.364,310.081,207.47,288.542,189.397z"/>
<path style="fill:#FF91AB;" d="M414.915,64.718c8.452,33.747,3.673,77.836-33.566,113.939
	c-33.712,32.684-62.52,30.348-83.626,17.379C312.24,97.497,375.648,71.368,414.915,64.718z"/>
<path style="fill:#FCD690;" d="M408.953,216.675c0,85.683-83.9,123.21-187.396,123.21S34.161,302.358,34.161,216.675
	s83.9-155.143,187.396-155.143S408.953,130.992,408.953,216.675z"/>
<path style="opacity:0.1;fill:#C18F00;enable-background:new    ;" d="M121.496,85.487c-52.482,27.494-87.336,75.969-87.336,131.189
	c0,73.656,62,111.725,145.15,120.962C59.95,266.341,75.517,170.439,121.496,85.487z"/>
<g>
	<ellipse style="fill:#FF91AB;" cx="142.727" cy="221.479" rx="33.931" ry="27.02"/>
	<ellipse style="fill:#FF91AB;" cx="326.635" cy="221.479" rx="33.931" ry="27.02"/>
</g>
<g>
	<path style="fill:#EDA751;" d="M303.099,469.034h-81.542c-13.18,0-23.865-10.684-23.865-23.865s10.685-23.865,23.865-23.865h81.542
		c13.181,0,23.865,10.685,23.865,23.865C326.964,458.351,316.279,469.034,303.099,469.034z"/>
	<path style="fill:#EDA751;" d="M127.282,379.65c-2.548-0.461-5.063-1.349-7.447-2.69c-11.488-6.461-15.562-21.012-9.099-32.5
		c10.941-19.451,38.6-33.357,65.768-33.067c27.334,0.296,50.606,14.676,63.86,39.461c6.215,11.623,1.831,26.083-9.792,32.298
		c-11.622,6.216-26.083,1.832-32.298-9.792c-4.907-9.176-11.559-13.693-20.932-14.197c-12.065-0.656-22.983,5.836-25.065,8.796
		C147.14,376.997,136.978,381.406,127.282,379.65z M152.334,367.86c0,0.002-0.002,0.004-0.004,0.007
		C152.332,367.864,152.334,367.862,152.334,367.86z"/>
</g>
<path style="fill:#DEE2E5;" d="M504.499,380.834H223.314V234.357c0-10.459,8.479-18.937,18.937-18.937h243.312
	c10.459,0,18.937,8.479,18.937,18.937L504.499,380.834L504.499,380.834z"/>
<g>
	<path style="fill:#7694E4;" d="M504.499,380.834H223.314v42.919h268.229c7.156,0,12.956-5.801,12.956-12.956V380.834z"/>
	<path style="fill:#7694E4;" d="M124.464,380.834h98.85v42.919h-98.85c-7.156,0-12.956-5.801-12.956-12.956V393.79
		C111.509,386.635,117.31,380.834,124.464,380.834z"/>
</g>
<path style="opacity:0.1;enable-background:new    ;" d="M124.464,380.834h98.85v42.919h-98.85c-7.156,0-12.956-5.801-12.956-12.956
	V393.79C111.509,386.635,117.31,380.834,124.464,380.834z"/>
<circle style="fill:#FFFFFF;" cx="363.904" cy="298.128" r="28.972"/>
<path d="M139.482,233.963c-10.569,2.807-30.512,12.824-38.253,18.54c-3.333,2.461-4.04,7.156-1.58,10.488
	c1.471,1.992,3.74,3.047,6.04,3.047c1.548,0,3.108-0.477,4.448-1.467c6.376-4.707,24.62-13.834,33.195-16.11
	c4.003-1.063,6.387-5.17,5.324-9.174C147.593,235.284,143.486,232.901,139.482,233.963z M314.364,194.527v-11.982
	c0-4.143-3.357-7.5-7.5-7.5s-7.5,3.357-7.5,7.5v11.982c0,4.143,3.357,7.5,7.5,7.5S314.364,198.67,314.364,194.527z M170,194.527
	v-11.982c0-4.143-3.357-7.5-7.5-7.5s-7.5,3.357-7.5,7.5v11.982c0,4.143,3.357,7.5,7.5,7.5C166.643,202.027,170,198.67,170,194.527z
	 M485.563,207.92h-69.407c-1.004-15.909-4.738-31.383-11.002-46.049c20.62-30.81,26.296-68.662,15.512-104.563
	c-3.409-11.348-13.216-19.577-24.984-20.964c-35.767-4.221-70.977,6.969-97.377,30.744c-23.946-8.553-49.944-13.055-76.748-13.055
	c-26.817,0-52.813,4.5-76.753,13.051c-26.4-23.772-61.602-34.953-97.372-30.74c-11.769,1.387-21.575,9.616-24.984,20.965
	C11.668,93.2,17.338,131.04,37.945,161.846c-7.416,17.354-11.283,35.837-11.283,54.83c0,37.316,14.757,67.671,43.858,90.219
	c1.367,1.059,2.983,1.572,4.589,1.571c2.239,0,4.456-0.999,5.934-2.906c2.537-3.274,1.939-7.985-1.335-10.523
	c-25.246-19.559-38.046-45.924-38.046-78.361c0-81.41,80.701-147.643,179.897-147.643c26.363,0,51.856,4.64,75.119,13.432
	c0.451,0.224,0.918,0.399,1.397,0.526c14.77,5.71,28.618,13.107,41.19,22.07c0.057,0.041,0.113,0.085,0.171,0.124
	c3.205,2.291,6.331,4.679,9.364,7.171c18.062,14.844,31.809,32.307,40.72,51.333c0.124,0.338,0.279,0.665,0.451,0.984
	c6.3,13.744,10.09,28.289,11.154,43.246H248.99c3.91-1.903,7.452-4.577,10.378-7.934c2.722-3.123,2.395-7.86-0.727-10.582
	c-3.125-2.722-7.862-2.396-10.582,0.727c-3.377,3.875-8.253,6.098-13.377,6.098s-9.999-2.223-13.376-6.098
	c-2.723-3.122-7.46-3.447-10.582-0.727c-3.122,2.722-3.448,7.459-0.727,10.582c5.209,5.977,12.359,9.81,20.094,10.907
	c-8.474,4.409-14.278,13.268-14.278,23.464v80.114c-11.695-6.794-25.013-10.424-39.229-10.578
	c-18.089-0.18-36.411,5.479-50.748,14.809c-6.006-2.003-11.787-4.219-17.196-6.634c-3.782-1.688-8.217,0.009-9.905,3.792
	c-1.688,3.782,0.009,8.217,3.792,9.905c3.176,1.417,6.472,2.766,9.845,4.056c-3.229,3.421-5.995,7.089-8.172,10.959
	c-4.107,7.303-5.126,15.768-2.867,23.835c0.671,2.396,1.612,4.667,2.787,6.79c0.214,4.751,0.757,9.497,1.623,14.175
	c-1.107,2.516-1.733,5.29-1.733,8.21v17.007c0,4.056,1.201,7.83,3.245,11.013c-8.551,4.317-13.383,2.324-17.587-0.212
	c-8.253-4.983-11.021-13.564-15.368-31.955c-4.844-20.491-11.479-48.555-40.909-65.059c-5.226-2.932-11.275-3.651-17.041-2.028
	c-5.762,1.622-10.548,5.392-13.476,10.614c-2.928,5.222-3.648,11.272-2.026,17.036c1.621,5.764,5.391,10.551,10.613,13.479
	c11.152,6.254,14.273,15.383,19.211,36.273c4.718,19.951,10.588,44.779,35.825,60.017c10.061,6.073,20.729,9.152,31.708,9.152
	c13.407,0,26.905-4.648,40.119-13.814c2.257-1.565,4.513-3.282,6.801-5.143c21.048,16.821,48.033,26.364,76.434,26.364h160.696
	c17.295,0,31.365-14.07,31.365-31.364c0-4.952-1.152-9.683-3.242-13.918h81.168c11.279,0,20.456-9.177,20.456-20.456V234.357
	C511.999,219.779,500.14,207.92,485.563,207.92z M84.265,101.195c-16.015,13.259-28.919,28.427-38.427,44.893
	c-15.745-27.959-14.96-55.284-11.84-72.601c15.685,3.463,35.46,10.57,53.528,25.073C86.429,99.428,85.341,100.304,84.265,101.195z
	 M100.055,89.464C79.24,71.673,56.135,63.101,37.899,58.992c2.232-4.231,6.417-7.177,11.287-7.752
	c28.934-3.403,57.437,4.627,79.869,22.187C118.894,78.007,109.192,83.366,100.055,89.464z M343.055,89.466
	c-9.137-6.097-18.842-11.452-29.006-16.033c22.434-17.565,50.938-25.598,79.877-22.192c4.871,0.575,9.056,3.52,11.288,7.752
	C386.977,63.101,363.871,71.673,343.055,89.466z M397.272,146.096c-9.614-16.656-22.704-31.977-38.95-45.328
	c-0.905-0.744-1.823-1.473-2.743-2.2c18.072-14.508,37.849-21.616,53.537-25.08C412.237,90.807,413.02,118.135,397.272,146.096z
	 M117.274,348.136c9.427-16.76,34.439-29.247,58.416-29.247c0.244,0,0.49,0.001,0.733,0.004
	c14.764,0.159,28.309,4.884,39.391,13.686v40.754h-8.376c-0.992-1.05-1.857-2.215-2.549-3.511
	c-6.184-11.563-15.063-17.499-27.139-18.148c-14.398-0.77-27.818,6.582-31.607,11.972c-0.138,0.195-0.266,0.398-0.384,0.606
	c-3.429,6.03-10.313,9.254-17.14,8.018c-1.785-0.323-3.504-0.945-5.108-1.849c-2.357-1.325-4.304-3.171-5.728-5.381
	c-0.033-0.05-0.062-0.104-0.096-0.153c-0.831-1.322-1.479-2.77-1.911-4.315C114.598,356.363,115.13,351.946,117.274,348.136z
	 M189.447,373.334h-31.694c0.219-0.334,0.45-0.658,0.657-1.002c1.689-1.539,9.532-6.173,18.531-5.679
	C182.397,366.946,186.228,368.94,189.447,373.334z M129.774,442.989c-10.656,7.392-21.278,11.14-31.571,11.14
	c-8.208,0-16.268-2.353-23.955-6.994c-19.843-11.98-24.488-31.628-28.98-50.629c-4.542-19.213-8.465-35.807-26.473-45.903
	c-1.726-0.968-2.974-2.552-3.51-4.458c-0.537-1.907-0.299-3.909,0.671-5.638c0.969-1.728,2.552-2.975,4.457-3.512
	c1.904-0.536,3.907-0.299,5.638,0.673c23.688,13.282,28.981,35.673,33.65,55.427c4.133,17.483,7.702,32.583,22.213,41.344
	c7.81,4.713,20.357,9.463,39.184-3.487c1.098,0.183,2.217,0.301,3.366,0.301h1.947c2.355,3.026,4.864,5.914,7.504,8.671
	C132.524,441.007,131.145,442.038,129.774,442.989z M124.464,416.253c-3.009,0-5.456-2.447-5.456-5.456V393.79
	c0-1.079,0.319-2.083,0.862-2.931c0.026-0.039,0.048-0.08,0.073-0.12c0.982-1.451,2.642-2.406,4.521-2.406h91.349v27.92
	L124.464,416.253L124.464,416.253z M303.099,461.534h-81.542c-26.927,0-52.36-9.709-71.3-26.647
	c-0.066-0.063-0.133-0.124-0.201-0.184c-1.245-1.119-2.463-2.269-3.65-3.451h165.287c4.826,2.973,7.771,8.169,7.771,13.918
	C319.464,454.194,312.122,461.534,303.099,461.534z M382.253,461.534h-52.409c2.928-4.767,4.62-10.371,4.62-16.364
	c0-4.952-1.152-9.683-3.242-13.918h59.626c4.826,2.973,7.771,8.169,7.771,13.918C398.618,454.194,391.277,461.534,382.253,461.534z
	 M496.999,373.334h-19.667c-4.143,0-7.5,3.357-7.5,7.5s3.357,7.5,7.5,7.5h19.667v22.464c0,3.009-2.447,5.456-5.456,5.456H230.814
	v-27.92h211.638c4.143,0,7.5-3.357,7.5-7.5s-3.357-7.5-7.5-7.5H230.814V234.357c0-6.307,5.131-11.438,11.438-11.438h243.311
	c6.307,0,11.438,5.131,11.438,11.438v138.977H496.999z M135.5,208.49c-10.838-1.43-33.095,0.232-42.433,2.565
	c-4.019,1.005-6.461,5.077-5.457,9.096c0.853,3.407,3.91,5.683,7.271,5.683c0.603,0,1.215-0.073,1.825-0.226
	c7.688-1.923,28.032-3.41,36.829-2.247c4.092,0.541,7.875-2.345,8.418-6.453C142.496,212.802,139.607,209.033,135.5,208.49z"/>
<g>
</g>
<g>
</g>
<g>
</g>
<g>
</g>
<g>
</g>
<g>
</g>
<g>
</g>
<g>
</g>
<g>
</g>
<g>
</g>
<g>
</g>
<g>
</g>
<g>
</g>
<g>
</g>
<g>
</g>
</svg>
