<svg xmlns="http://www.w3.org/2000/svg" height="511pt" version="1.1" viewBox="-28 0 511 511.99975" width="511pt">
<g id="surface1">
<path d="M 264.652344 468.390625 C 253.089844 468.390625 243.71875 459.019531 243.71875 447.457031 C 243.71875 435.898438 253.089844 426.527344 264.652344 426.527344 C 324.53125 426.527344 330.574219 401.300781 341.539062 355.511719 C 351.492188 313.964844 363.875 262.261719 426.675781 231.234375 C 437.035156 226.117188 449.589844 230.363281 454.710938 240.730469 C 459.832031 251.09375 455.582031 263.648438 445.21875 268.769531 C 400.015625 291.101562 391.386719 327.125 382.25 365.265625 C 376.386719 389.746094 370.324219 415.0625 353.789062 434.796875 C 334.847656 457.402344 305.691406 468.390625 264.652344 468.390625 Z M 264.652344 468.390625 " style=" stroke:none;fill-rule:nonzero;fill:rgb(65.098039%,42.745098%,76.078431%);fill-opacity:1;" />
<path d="M 332.808594 387.367188 C 323.636719 412.851562 308.738281 426.527344 264.652344 426.527344 C 253.089844 426.527344 243.71875 435.898438 243.71875 447.457031 C 243.71875 459.019531 253.089844 468.390625 264.652344 468.390625 C 292.535156 468.390625 314.925781 463.3125 332.363281 452.96875 C 339.449219 428.304688 337.871094 406.472656 332.808594 387.367188 Z M 332.808594 387.367188 " style=" stroke:none;fill-rule:nonzero;fill:rgb(56.470588%,37.254902%,65.882353%);fill-opacity:1;" />
<path d="M 269.289062 294.5625 L 108.617188 294.5625 C 116.421875 355.332031 22.660156 399.582031 106.953125 499.53125 C 113.660156 507.484375 123.59375 512 134 512 L 243.90625 512 C 254.3125 512 264.246094 507.484375 270.953125 499.53125 C 355.246094 399.582031 261.484375 355.332031 269.289062 294.5625 Z M 269.289062 294.5625 " style=" stroke:none;fill-rule:nonzero;fill:rgb(65.098039%,42.745098%,76.078431%);fill-opacity:1;" />
<path d="M 269.289062 29.089844 C 269.289062 29.089844 300.121094 -5.207031 356.371094 0.679688 C 364.800781 1.5625 371.777344 7.671875 373.578125 15.957031 C 378.621094 39.179688 383.996094 89.570312 352.09375 137.351562 Z M 269.289062 29.089844 " style=" stroke:none;fill-rule:nonzero;fill:rgb(56.470588%,37.254902%,65.882353%);fill-opacity:1;" />
<path d="M 325.980469 119.914062 C 347.726562 87.347656 347.765625 53.113281 344.503906 31.414062 C 344.246094 31.414062 343.984375 31.410156 343.726562 31.410156 C 311.007812 31.410156 292.824219 49.875 292.640625 50.082031 Z M 325.980469 119.914062 " style=" stroke:none;fill-rule:nonzero;fill:rgb(99.215686%,60.392157%,78.431373%);fill-opacity:1;" />
<path d="M 108.617188 29.089844 C 108.617188 29.089844 77.785156 -5.207031 21.539062 0.679688 C 13.105469 1.5625 6.128906 7.671875 4.332031 15.957031 C -0.710938 39.179688 -6.089844 89.570312 25.8125 137.351562 Z M 108.617188 29.089844 " style=" stroke:none;fill-rule:nonzero;fill:rgb(56.470588%,37.254902%,65.882353%);fill-opacity:1;" />
<path d="M 51.925781 119.914062 C 30.179688 87.347656 30.140625 53.113281 33.402344 31.414062 C 33.664062 31.414062 33.921875 31.410156 34.183594 31.410156 C 66.898438 31.410156 85.085938 49.875 85.269531 50.082031 Z M 51.925781 119.914062 " style=" stroke:none;fill-rule:nonzero;fill:rgb(99.215686%,60.392157%,78.431373%);fill-opacity:1;" />
<path d="M 108.617188 294.566406 C 110.425781 308.644531 106.78125 321.835938 101.160156 335.042969 C 125.585938 340.839844 154.425781 343.621094 188.953125 343.621094 C 223.484375 343.621094 252.320312 340.839844 276.746094 335.039062 C 271.128906 321.835938 267.480469 308.644531 269.289062 294.566406 Z M 108.617188 294.566406 " style=" stroke:none;fill-rule:nonzero;fill:rgb(56.470588%,37.254902%,65.882353%);fill-opacity:1;" />
<path d="M 188.953125 312.714844 C 277.136719 312.714844 359.199219 294.308594 359.199219 196.097656 C 359.199219 68.683594 270.65625 8.933594 188.953125 8.933594 C 107.25 8.933594 18.707031 68.683594 18.707031 196.097656 C 18.707031 294.308594 100.769531 312.714844 188.953125 312.714844 Z M 188.953125 312.714844 " style=" stroke:none;fill-rule:nonzero;fill:rgb(65.098039%,42.745098%,76.078431%);fill-opacity:1;" />
<path d="M 266.5625 187.390625 C 262.296875 187.390625 258.835938 183.929688 258.835938 179.664062 L 258.835938 164.574219 C 258.835938 160.304688 262.296875 156.847656 266.5625 156.847656 C 270.832031 156.847656 274.289062 160.304688 274.289062 164.574219 L 274.289062 179.664062 C 274.289062 183.929688 270.832031 187.390625 266.5625 187.390625 Z M 266.5625 187.390625 " style=" stroke:none;fill-rule:nonzero;fill:rgb(22.745098%,28.235294%,29.019608%);fill-opacity:1;" />
<path d="M 276.839844 209.570312 L 256.289062 209.570312 C 252.019531 209.570312 248.5625 206.109375 248.5625 201.84375 C 248.5625 197.578125 252.019531 194.117188 256.289062 194.117188 L 276.839844 194.117188 C 281.109375 194.117188 284.566406 197.578125 284.566406 201.84375 C 284.566406 206.109375 281.109375 209.570312 276.839844 209.570312 Z M 276.839844 209.570312 " style=" stroke:none;fill-rule:nonzero;fill:rgb(99.215686%,60.392157%,78.431373%);fill-opacity:1;" />
<path d="M 111.34375 187.390625 C 107.074219 187.390625 103.617188 183.929688 103.617188 179.664062 L 103.617188 164.574219 C 103.617188 160.304688 107.074219 156.847656 111.34375 156.847656 C 115.609375 156.847656 119.070312 160.304688 119.070312 164.574219 L 119.070312 179.664062 C 119.070312 183.929688 115.609375 187.390625 111.34375 187.390625 Z M 111.34375 187.390625 " style=" stroke:none;fill-rule:nonzero;fill:rgb(22.745098%,28.235294%,29.019608%);fill-opacity:1;" />
<path d="M 121.621094 209.570312 L 101.066406 209.570312 C 96.800781 209.570312 93.339844 206.109375 93.339844 201.84375 C 93.339844 197.578125 96.800781 194.117188 101.066406 194.117188 L 121.621094 194.117188 C 125.886719 194.117188 129.347656 197.578125 129.347656 201.84375 C 129.347656 206.109375 125.886719 209.570312 121.621094 209.570312 Z M 121.621094 209.570312 " style=" stroke:none;fill-rule:nonzero;fill:rgb(99.215686%,60.392157%,78.431373%);fill-opacity:1;" />
<path d="M 188.953125 208.71875 C 181.3125 208.71875 174.132812 205.519531 169.253906 199.933594 C 166.445312 196.722656 166.773438 191.839844 169.988281 189.03125 C 173.199219 186.222656 178.082031 186.550781 180.890625 189.765625 C 182.832031 191.988281 185.773438 193.265625 188.953125 193.265625 C 192.136719 193.265625 195.074219 191.992188 197.019531 189.765625 C 199.828125 186.550781 204.707031 186.222656 207.921875 189.03125 C 211.132812 191.839844 211.460938 196.722656 208.652344 199.933594 C 203.773438 205.515625 196.59375 208.71875 188.953125 208.71875 Z M 188.953125 208.71875 " style=" stroke:none;fill-rule:nonzero;fill:rgb(22.745098%,28.235294%,29.019608%);fill-opacity:1;" />
<path d="M 188.953125 397.519531 C 184.6875 397.519531 181.226562 400.980469 181.226562 405.246094 L 181.226562 512 L 196.679688 512 L 196.679688 405.246094 C 196.679688 400.980469 193.222656 397.519531 188.953125 397.519531 Z M 188.953125 397.519531 " style=" stroke:none;fill-rule:nonzero;fill:rgb(56.470588%,37.254902%,65.882353%);fill-opacity:1;" />
<path d="M 133.847656 397.570312 C 129.609375 397.078125 125.777344 400.121094 125.285156 404.359375 C 124.984375 406.972656 118.382812 467.140625 143.375 512 L 160.039062 512 C 160.042969 510.617188 159.679688 509.21875 158.90625 507.953125 C 134.007812 467.433594 140.546875 406.921875 140.636719 406.132812 C 141.125 401.894531 138.085938 398.0625 133.847656 397.570312 Z M 133.847656 397.570312 " style=" stroke:none;fill-rule:nonzero;fill:rgb(56.470588%,37.254902%,65.882353%);fill-opacity:1;" />
<path d="M 217.867188 512 L 234.53125 512 C 259.523438 467.144531 252.925781 406.972656 252.621094 404.359375 C 252.128906 400.121094 248.292969 397.082031 244.058594 397.574219 C 239.820312 398.0625 236.78125 401.898438 237.269531 406.136719 C 237.339844 406.742188 244 467.269531 219.003906 507.957031 C 218.226562 509.21875 217.863281 510.617188 217.867188 512 Z M 217.867188 512 " style=" stroke:none;fill-rule:nonzero;fill:rgb(56.470588%,37.254902%,65.882353%);fill-opacity:1;" />
</g>
</svg>