<svg id="Capa_1" enable-background="new 0 0 512 512" height="512" viewBox="0 0 512 512" width="512" xmlns="http://www.w3.org/2000/svg"><g><path d="m431.445 89.313v-74.313c0-5.612-3.132-10.754-8.119-13.329-4.985-2.574-10.993-2.15-15.567 1.1l-68.026 48.323c-26.866-8.886-54.993-13.386-83.733-13.386-29.165 0-57.684 4.63-84.899 13.774l-66.713-48.606c-4.561-3.323-10.603-3.804-15.634-1.246-5.03 2.559-8.199 7.726-8.199 13.37v113.674c0 42.106 18.662 82.499 51.201 110.821l14.817 12.897h-131.573c-8.284 0-15 6.716-15 15 0 65.475 26.721 126.992 75.241 173.218 48.321 46.036 112.515 71.39 180.759 71.39s132.439-25.354 180.759-71.391c48.52-46.226 75.241-107.742 75.241-173.217 0-67.446-29.292-131.936-80.555-178.079zm-320.89 39.361v-84.186l49.261 35.891c4.061 2.96 9.334 3.688 14.046 1.941 26.158-9.696 53.793-14.612 82.138-14.612 27.918 0 55.162 4.772 80.977 14.185 4.635 1.69 9.804.993 13.825-1.864l50.644-35.975v84.624c0 33.422-14.904 65.565-40.891 88.187l-89.555 77.959v-5.2c0-8.284-6.716-15-15-15s-15 6.716-15 15v5.186l-89.548-77.944c-25.991-22.623-40.897-54.767-40.897-88.192zm-25.935 153.718h.63c-4.403 23.817-20.977 43.991-43.596 53.04-5.948-16.854-9.764-34.628-11.109-53.04zm171.38 199.608c-88.504 0-165.275-48.566-202.346-119.101 33.375-13.735 57.313-44.588 61.925-80.508h65.46l65.122 56.684c2.823 2.457 6.335 3.685 9.848 3.685s7.026-1.229 9.849-3.686l114.394-99.581c31.648-27.551 50.161-66.522 51.146-107.38 32.468 37.999 50.602 85.758 50.602 135.279 0 118.335-101.383 214.608-226 214.608z"/><path d="m296.29 187.64c1.276 6.149 6.276 10.967 12.505 11.909 6.19.937 12.486-2.253 15.425-7.769 2.953-5.541 2.098-12.473-2.104-17.141-4.182-4.645-11.094-6.177-16.856-3.779-6.576 2.737-10.28 9.819-8.97 16.78z"/><path d="m186.29 187.64c1.276 6.149 6.276 10.967 12.505 11.909 6.189.937 12.486-2.254 15.425-7.769 2.954-5.543 2.1-12.472-2.104-17.141-4.181-4.645-11.096-6.178-16.856-3.779-6.575 2.739-10.28 9.817-8.97 16.78z"/></g></svg>