<svg id="Capa_1" enable-background="new 0 0 512 512" height="512" viewBox="0 0 512 512" width="512" xmlns="http://www.w3.org/2000/svg"><g><path d="m172 93c-8.284 0-15 6.716-15 15v30c0 8.284 6.716 15 15 15s15-6.716 15-15v-30c0-8.284-6.716-15-15-15z"/><path d="m340 153c8.284 0 15-6.716 15-15v-30c0-8.284-6.716-15-15-15s-15 6.716-15 15v30c0 8.284 6.716 15 15 15z"/><path d="m492.836 361.012c-.08-24.904-8.15-48.816-22.942-68.523.574-1.589.903-3.295.903-5.082v-106.337c0-17.03-2.685-33.972-7.861-50.135l15.375-15.368c12.796-12.79 19.843-29.795 19.842-47.882 0-18.088-7.047-35.093-19.843-47.882-26.414-26.403-69.393-26.403-95.807 0l-10.585 10.58c-20.588-8.951-42.838-13.632-65.513-13.632h-100.84c-22.675 0-44.926 4.681-65.513 13.632l-10.585-10.58c-26.414-26.403-69.394-26.403-95.808 0-26.415 26.402-26.415 69.363 0 95.765l15.375 15.367c-5.176 16.163-7.861 33.105-7.861 50.135v106.337c0 1.787.329 3.493.903 5.082-14.792 19.707-22.862 43.619-22.942 68.523 0 .029-.004.057-.004.086 0 .018.003.036.003.054 0 .078-.003.155-.003.233v35.666c0 63.383 51.589 114.949 115 114.949h243.71c63.411 0 115-51.566 115-114.949v-35.666c0-.078-.003-.155-.003-.233 0-.018.003-.036.003-.054 0-.028-.004-.057-.004-.086zm-358.708 121.001c-46.869 0-85-38.114-85-84.962v-20.959h36.006v21.681c0 17.448 14.202 31.643 31.658 31.643h59.595c17.456 0 31.657-14.195 31.657-31.643v-21.681h95.88v21.681c0 17.448 14.201 31.643 31.657 31.643h59.595c17.456 0 31.658-14.195 31.658-31.643v-21.681h36.006v20.959c0 46.848-38.131 84.962-85 84.962zm-25.875-441.007 4.469 4.467c-21.008 14.38-38.515 33.584-50.884 55.854l-6.967-6.964c-7.129-7.126-11.055-16.601-11.055-26.679s3.926-19.553 11.056-26.679c14.718-14.709 38.664-14.71 53.381.001zm348.844 0c14.717 14.711 14.717 38.647 0 53.358l-6.967 6.964c-12.369-22.271-29.876-41.474-50.884-55.854l4.469-4.467c14.718-14.711 38.664-14.711 53.382-.001zm-123.173 335.086h62.91v21.681c0 .914-.744 1.656-1.658 1.656h-59.595c-.914 0-1.657-.743-1.657-1.656zm-283.409-29.987c2.872-15.787 10.162-30.487 21.245-42.443 14.518-15.661 34.188-25.233 55.385-26.952 4.236-.343 8.128-2.467 10.708-5.844 2.58-3.376 3.605-7.688 2.822-11.864-.409-2.177-.616-4.367-.616-6.508 0-19.29 15.701-34.984 35-34.984s35 15.694 35 34.984c0 2.053-.193 4.163-.574 6.271-.79 4.372.401 8.869 3.251 12.278s7.065 5.379 11.51 5.379h63.474c4.445 0 8.66-1.97 11.51-5.379s4.041-7.906 3.251-12.278c-.381-2.108-.574-4.218-.574-6.271 0-19.29 15.701-34.984 35-34.984s35 15.694 35 34.984c0 2.141-.207 4.331-.616 6.508-.783 4.175.242 8.487 2.822 11.864 2.58 3.376 6.472 5.5 10.708 5.844 21.198 1.719 40.867 11.291 55.385 26.952 11.082 11.955 18.373 26.656 21.245 42.443zm64.62 29.987h62.91v21.681c0 .914-.744 1.656-1.657 1.656h-59.595c-.914 0-1.658-.743-1.658-1.656zm263.349-308.399c39.018 24.784 62.312 67.168 62.312 113.377v84.123c-11.856-7.768-25.049-13.295-38.983-16.248-1.852-34.18-30.255-61.421-64.904-61.421-33.798 0-61.654 25.917-64.72 58.913h-32.409c-3.066-32.996-30.922-58.913-64.72-58.913-34.649 0-63.053 27.242-64.904 61.421-13.934 2.953-27.127 8.48-38.983 16.248v-84.123c0-46.209 23.294-88.593 62.312-113.377 21.583-13.71 46.508-20.956 72.08-20.956h100.839c25.572 0 50.496 7.246 72.08 20.956z"/><circle cx="174.311" cy="249" r="15"/><circle cx="338" cy="249" r="15"/></g></svg>