<?xml version="1.0" standalone="no"?>
<!DOCTYPE svg PUBLIC "-//W3C//DTD SVG 20010904//EN"
 "http://www.w3.org/TR/2001/REC-SVG-20010904/DTD/svg10.dtd">
<svg version="1.0" xmlns="http://www.w3.org/2000/svg"
 width="700.000000pt" height="700.000000pt" viewBox="0 0 700.000000 700.000000"
 preserveAspectRatio="xMidYMid meet">
<metadata>
Created by potrace 1.16, written by Peter Selinger 2001-2019
</metadata>
<g transform="translate(0.000000,700.000000) scale(0.100000,-0.100000)"
fill="#000000" stroke="none">
<path d="M998 6893 c-16 -2 -28 -9 -28 -14 0 -5 -7 -9 -14 -9 -61 0 -330 -121
-371 -166 -5 -6 -26 -21 -45 -34 -39 -26 -220 -210 -220 -223 0 -5 -14 -26
-30 -47 -17 -22 -45 -69 -62 -107 -16 -37 -33 -70 -37 -73 -15 -12 -52 -144
-71 -255 -8 -52 -10 -676 -8 -2495 l3 -2425 24 -90 c23 -89 125 -315 142 -315
5 0 9 -5 9 -11 0 -14 60 -92 119 -154 68 -72 128 -123 191 -163 30 -20 57 -38
60 -42 6 -9 145 -70 158 -70 6 0 12 -4 14 -10 2 -5 48 -22 103 -37 l100 -28
2415 -3 c1748 -2 2436 0 2490 8 98 15 230 50 230 61 0 5 5 9 11 9 16 0 153 61
160 71 3 5 30 24 60 42 60 37 119 87 190 162 59 62 119 140 119 154 0 6 4 11
9 11 10 0 86 150 83 162 -1 5 2 8 7 8 10 0 47 121 66 223 13 69 15 390 15
2482 0 1623 -3 2421 -10 2457 -24 118 -58 237 -71 248 -4 3 -21 36 -37 73 -17
38 -45 85 -62 107 -16 21 -30 42 -30 47 0 13 -181 197 -220 223 -19 13 -39 28
-45 34 -40 45 -310 166 -370 166 -7 0 -15 6 -17 13 -4 9 -514 12 -2504 13
-1374 1 -2511 -1 -2526 -3z m4918 -584 c77 -24 190 -95 245 -153 66 -69 135
-209 149 -301 12 -88 13 -4594 1 -4681 -8 -54 -23 -94 -77 -209 -15 -32 -100
-125 -149 -163 -44 -35 -96 -60 -151 -73 -27 -7 -55 -17 -63 -23 -20 -16
-4722 -16 -4742 0 -8 6 -36 16 -63 23 -55 13 -107 38 -151 73 -52 40 -134 132
-151 168 -9 19 -27 57 -40 84 -14 27 -29 78 -34 115 -13 88 -13 4580 0 4679
12 92 71 220 135 293 52 59 177 142 240 160 22 6 63 15 90 19 28 4 1098 7
2380 6 2105 -1 2335 -3 2381 -17z"/>
<path d="M5215 5769 c-21 -5 -42 -13 -45 -18 -3 -4 -32 -22 -65 -40 -57 -32
-119 -96 -154 -160 -53 -97 -55 -302 -3 -397 59 -108 176 -201 281 -224 100
-21 296 2 321 39 3 4 23 19 44 34 58 39 121 121 142 185 10 31 22 61 26 67 11
13 10 183 -1 190 -5 3 -13 20 -16 38 -20 88 -103 192 -191 237 -27 14 -51 28
-54 31 -20 26 -201 37 -285 18z"/>
<path d="M3260 5200 c-91 -13 -264 -51 -270 -59 -3 -4 -42 -20 -87 -35 -116
-39 -339 -159 -430 -232 -139 -112 -324 -301 -344 -353 -4 -9 -19 -27 -33 -40
-14 -14 -26 -30 -26 -36 0 -6 -15 -33 -34 -60 -19 -26 -49 -82 -67 -124 -18
-42 -36 -78 -40 -81 -4 -3 -21 -52 -39 -110 -17 -58 -36 -113 -41 -122 -46
-87 -62 -566 -25 -763 10 -55 22 -102 26 -105 4 -3 11 -21 15 -40 12 -57 53
-177 69 -202 8 -13 26 -52 41 -88 15 -36 35 -74 44 -85 10 -11 30 -42 46 -70
102 -179 383 -453 554 -539 27 -14 55 -31 62 -39 8 -7 50 -28 94 -46 44 -18
85 -37 91 -42 15 -12 153 -53 230 -69 32 -7 64 -16 69 -20 47 -38 641 -38 665
0 3 4 25 11 50 15 70 11 211 53 255 75 22 11 69 33 105 50 279 129 562 383
706 633 21 37 42 67 46 67 4 0 8 5 8 10 0 6 20 52 44 103 53 111 69 155 86
227 7 30 16 57 20 60 4 3 16 50 26 105 26 139 27 518 2 651 -10 50 -24 104
-33 120 -8 16 -15 36 -15 44 0 20 -51 174 -60 180 -3 3 -19 36 -35 73 -28 67
-91 173 -137 231 -13 16 -25 35 -28 42 -6 14 -75 95 -145 169 -81 85 -206 190
-287 241 -107 67 -261 143 -341 170 -45 15 -84 31 -87 35 -3 4 -62 20 -130 34
-108 23 -155 27 -340 30 -118 2 -244 0 -280 -5z m410 -581 c8 -4 44 -13 80
-19 68 -12 211 -56 220 -68 3 -4 31 -19 62 -34 78 -38 214 -141 272 -207 12
-13 33 -35 47 -50 38 -38 133 -187 160 -251 13 -30 27 -58 31 -61 15 -10 57
-199 68 -306 16 -154 -2 -315 -56 -500 -3 -13 -10 -23 -14 -23 -4 0 -11 -11
-14 -25 -8 -33 -64 -147 -75 -154 -4 -4 -21 -26 -36 -51 -65 -104 -209 -241
-320 -305 -28 -16 -52 -32 -55 -36 -3 -4 -41 -22 -85 -39 -44 -17 -93 -38
-110 -45 -140 -63 -552 -63 -690 0 -16 8 -67 28 -112 45 -46 17 -83 35 -83 39
0 4 -19 16 -42 28 -52 25 -156 108 -219 174 -62 63 -119 134 -119 146 0 5 -10
20 -21 32 -22 23 -70 115 -84 161 -4 14 -12 28 -17 31 -18 11 -58 191 -68 305
-8 79 -8 143 0 218 11 106 53 295 68 305 4 3 18 31 31 61 27 64 122 213 160
251 14 15 35 37 46 50 54 63 194 169 273 207 31 15 59 30 62 34 9 11 152 56
220 68 36 6 74 16 85 21 42 18 298 18 335 -2z"/>
</g>
</svg>
