<?xml version="1.0"?>
<svg xmlns:rdf="http://www.w3.org/1999/02/22-rdf-syntax-ns#" xmlns="http://www.w3.org/2000/svg" xmlns:cc="http://creativecommons.org/ns#" xmlns:dc="http://purl.org/dc/elements/1.1/" xmlns:svg="http://www.w3.org/2000/svg" id="svg2" viewBox="0 0 306.77 354.4" version="1.1">
  <g id="layer1" transform="translate(-134.38 -367.11)">
    <g id="g2844" stroke="#fff">
      <path id="path2830" stroke-width="3" fill="#e5b380" d="m139.65 687.44c13.64 8.5251 28.465 15.134 44.208 18.55 26.359 6.8282 53.551-0.38181 80.3 1.5058 13.819-1.4779 26.241 5.3691 39.689 6.1935 14.694 0.3496 29.575-1.2672 43.997 2.464 16.997 3.257 35.34 7.0121 51.78-0.60546 14.888-5.4115 27.406-16.018 38.159-27.338 7.0398-12.22-7.3407-22.319-17.257-26.485-20.264-11.809-43.043-18.259-64.677-27.023-21.374-7.9775-43.842-12.543-64.929-21.278-16.514-6.2532-34.585-3.5371-51.513-0.75466-26.744 5.5535-49.839 21.176-71.507 37.075-13.252 6.3779-29.947 14.227-32.014 30.554-0.0831 2.8232 1.24 5.7272 3.7651 7.1413z"/>
      <path id="path2836" stroke-width="4.0942" transform="matrix(1.4269 0 0 1.197 -60.487 -118.63)" fill="#f3f98f" d="m266.68 671.03c-1.2084 1.6228-7.9105-2.9428-9.842-2.3402-1.9315 0.60254-4.8489 8.169-6.7657 7.5211-1.9168-0.64783 0.35426-8.4327-0.81565-10.083-1.1699-1.6508-9.2676-2.0872-9.2437-4.1104 0.0238-2.0231 8.1295-2.2689 9.3379-3.8917s-0.87873-9.459 1.0528-10.062c1.9315-0.60254 4.67 7.0305 6.5868 7.6783 1.9168 0.64784 8.7245-3.7587 9.8944-2.1079s-5.2432 6.614-5.2671 8.6371c-0.0238 2.0232 6.2708 7.136 5.0623 8.7587z"/>
      <path id="path2838" stroke-width="3.75" fill="#9c6434" d="m233.87 644.75c-16.974-88.192 10.812-164.61 79.888-222.81 8.3506-0.6941 7.2658 7.6222 1.203 12.283-55.149 60.433-66.026 137.2-58.867 216.09-6.5822-5.3196-13.304-10.051-22.223-5.5558z"/>
      <path id="path2854-1" stroke-width="3.75" fill="#026333" d="m320.75 428.03c13.42 12.895 23.644 27.857 33.441 43.499 2.0715-3.4692 4.143-6.9384 6.2145-10.408l3.3195 13.159c20.373 8.2433 40.746 16.487 61.12 24.73-12.023-18.944-24.045-37.888-36.068-56.833-5.5428 0.41601-11.086 0.83201-16.628 1.248 0.0801-3.0896 1.1959-7.9138 1.2759-11.003-15.402-7.5037-31.348-13.708-48.572-10.261-1.4153 0.46189-3.6934 0.27803-4.6035 1.118 0.1672 1.5834 0.33441 3.1669 0.50162 4.7503z"/>
      <path id="path2854-4" stroke-width="3.75" fill="#026333" d="m312.71 428.49c-16.092 9.3507-29.567 21.467-42.789 34.345-1.1913-3.861-2.3825-7.722-3.5738-11.583-2.1136 3.9997-4.2271 7.9994-6.3407 11.999-21.746 3.1855-43.491 6.371-65.237 9.5565 16.166-15.559 32.332-31.118 48.498-46.678 5.2867 1.7165 10.573 3.433 15.86 5.1494 0.65371-3.0207 0.71178-7.972 1.3655-10.993 16.741-3.6439 33.702-5.8961 49.621 1.5309 1.2657 0.78386 3.5226 1.1446 4.208 2.1762-0.53734 1.4988-1.0747 2.9977-1.612 4.4965z"/>
      <path id="path2854" stroke-width="3.9928" fill="#026333" d="m315.14 429.34c-4.4623 19.307-12.56 36.821-21.511 54.316h12.907l-10.218 10.218c3.5852 23.125 7.1704 46.249 10.756 69.374 10.756-21.332 21.511-42.664 32.267-63.996-3.4059-4.84-6.8119-9.68-10.218-14.52 2.8682-1.6133 7.8874-3.2267 10.756-4.84-1.5477-18.176-4.5806-36.14-17.134-50.005-1.1948-1.0417-2.2703-3.2247-3.535-3.5982l-4.0688 3.0516z"/>
      <path id="path2854-9" stroke-width="3.3861" fill="#026333" d="m312.88 425.14c-15.78-5.7803-31.97-8.1472-48.544-9.8999 1.9942-3.0553 3.9883-6.1106 5.9825-9.1658-3.9975 0.84005-7.995 1.6801-11.992 2.5202-14.76-13.265-29.521-26.529-44.281-39.794 20.134 2.2495 40.269 4.499 60.403 6.7486 1.8585 4.6622 3.717 9.3244 5.5754 13.987 2.4752-1.289 5.9474-4.1057 8.4226-5.3948 12.191 9.524 23.542 20.004 27.569 35.346 0.18594 1.3314 1.2377 3.107 0.91673 4.1782-1.351 0.49167-2.7021 0.98335-4.0531 1.475z"/>
      <path id="path2854-1-4" stroke-width="3.1733" fill="#026333" d="m319.32 423.28c15.052-4.6352 30.32-6.0558 45.917-6.8826-1.7163-2.9573-3.4327-5.9145-5.149-8.8718 3.6999 0.98237 7.3999 1.9648 11.1 2.9472 14.465-11.69 28.93-23.38 43.395-35.069l-56.862 3.3513-5.9044 12.816c-2.2532-1.3279-5.3646-4.1344-7.6178-5.4622-11.876 8.3151-23.014 17.566-27.537 31.727-0.23938 1.2369-1.3109 2.847-1.063 3.8653 1.2403 0.52647 2.4806 1.0529 3.7208 1.5794z"/>
    </g>
  </g>
  <metadata>
    <rdf:RDF>
      <cc:Work>
        <dc:format>image/svg+xml</dc:format>
        <dc:type rdf:resource="http://purl.org/dc/dcmitype/StillImage"/>
        <cc:license rdf:resource="http://creativecommons.org/licenses/publicdomain/"/>
        <dc:publisher>
          <cc:Agent rdf:about="http://openclipart.org/">
            <dc:title>Openclipart</dc:title>
          </cc:Agent>
        </dc:publisher>
        <dc:title>Simple island</dc:title>
        <dc:date>2010-06-08T07:07:40</dc:date>
        <dc:description>An island with a starfish and a coconut tree.</dc:description>
        <dc:source>http://openclipart.org/detail/64999/simple-island-by-laobc</dc:source>
        <dc:creator>
          <cc:Agent>
            <dc:title>laobc</dc:title>
          </cc:Agent>
        </dc:creator>
        <dc:subject>
          <rdf:Bag>
            <rdf:li>clip art</rdf:li>
            <rdf:li>clipart</rdf:li>
            <rdf:li>coconut</rdf:li>
            <rdf:li>island</rdf:li>
            <rdf:li>starfish</rdf:li>
            <rdf:li>summer</rdf:li>
            <rdf:li>summer2010</rdf:li>
            <rdf:li>tree</rdf:li>
          </rdf:Bag>
        </dc:subject>
      </cc:Work>
      <cc:License rdf:about="http://creativecommons.org/licenses/publicdomain/">
        <cc:permits rdf:resource="http://creativecommons.org/ns#Reproduction"/>
        <cc:permits rdf:resource="http://creativecommons.org/ns#Distribution"/>
        <cc:permits rdf:resource="http://creativecommons.org/ns#DerivativeWorks"/>
      </cc:License>
    </rdf:RDF>
  </metadata>
</svg>
