<?xml version="1.0" standalone="no"?>
<!DOCTYPE svg PUBLIC "-//W3C//DTD SVG 20010904//EN"
 "http://www.w3.org/TR/2001/REC-SVG-20010904/DTD/svg10.dtd">
<svg version="1.0" xmlns="http://www.w3.org/2000/svg"
 width="700.000000pt" height="700.000000pt" viewBox="0 0 700.000000 700.000000"
 preserveAspectRatio="xMidYMid meet">
<metadata>
Created by potrace 1.16, written by Peter Selinger 2001-2019
</metadata>
<g transform="translate(0.000000,700.000000) scale(0.100000,-0.100000)"
fill="#000000" stroke="none">
<path d="M270 6875 c-7 -9 -15 -13 -17 -11 -3 3 -14 -4 -26 -15 -11 -10 -28
-19 -36 -20 -9 0 -29 -26 -46 -57 l-30 -57 -3 -3190 c-2 -2285 0 -3201 8
-3230 11 -41 93 -149 104 -138 3 4 6 2 6 -4 0 -6 20 -16 44 -22 63 -16 6384
-16 6441 0 22 6 45 19 52 28 10 13 13 14 13 1 1 -9 5 -6 10 8 5 12 16 22 25
22 8 0 15 5 15 12 0 6 11 34 25 62 l25 51 -2 3200 -3 3200 -34 57 c-19 32 -37
56 -39 53 -2 -2 -26 12 -53 31 l-49 34 -3209 0 c-2860 0 -3210 -2 -3221 -15z
m1547 -995 c16 -6 41 -25 54 -43 l24 -32 3 -363 c3 -355 2 -364 -18 -398 -12
-19 -26 -32 -31 -28 -5 3 -9 -2 -9 -10 0 -9 -13 -18 -35 -22 -19 -3 -35 -10
-35 -15 0 -12 -727 -12 -734 0 -3 5 -21 12 -41 15 -34 7 -73 46 -89 90 -4 10
-7 174 -7 363 l0 344 26 44 c19 31 31 42 42 38 11 -4 14 -2 9 5 -5 8 0 12 13
12 12 0 21 3 21 8 0 11 772 4 807 -8z m3083 -1361 c0 -8 22 -10 70 -7 39 3 73
1 76 -3 3 -5 23 -9 45 -9 21 0 39 -5 39 -11 0 -7 11 -8 30 -4 20 4 30 3 30 -5
0 -7 8 -9 19 -5 11 3 22 1 26 -5 3 -5 17 -10 31 -10 13 0 24 -5 24 -11 0 -6 9
-8 20 -4 11 3 20 2 20 -3 0 -5 16 -13 35 -16 19 -4 35 -11 35 -17 0 -5 6 -9
13 -8 18 2 57 -12 53 -20 -2 -3 8 -7 22 -8 15 0 28 -6 30 -12 2 -6 10 -11 18
-11 9 0 12 -5 8 -12 -5 -7 -2 -9 9 -5 8 3 21 -1 27 -9 7 -8 19 -14 27 -14 8 0
11 -4 8 -10 -3 -5 1 -10 9 -10 9 0 25 -9 35 -19 11 -11 21 -17 24 -15 2 3 18
-11 36 -31 17 -20 31 -33 31 -30 0 9 100 -99 100 -108 0 -5 13 -25 29 -45 64
-81 168 -333 156 -379 -3 -13 -1 -23 4 -23 11 0 23 -68 23 -132 -1 -27 4 -48
10 -48 7 0 8 -31 3 -92 -4 -65 -3 -88 4 -78 15 22 17 -121 11 -1137 -5 -897
-5 -902 -26 -930 -12 -15 -26 -28 -33 -28 -6 0 -15 -5 -19 -11 -4 -6 -16 -14
-26 -18 -31 -11 -780 -7 -813 5 -50 18 -81 71 -88 152 -3 40 -8 446 -10 902
-6 1035 -5 965 -16 965 -5 0 -9 16 -9 36 0 57 -43 181 -96 273 -10 19 -43 58
-71 88 -29 30 -53 58 -53 63 0 5 -6 7 -14 4 -7 -3 -16 2 -20 11 -3 9 -10 14
-15 11 -5 -4 -16 0 -24 8 -8 8 -17 12 -21 9 -3 -4 -6 -1 -6 5 0 7 -9 12 -21
12 -13 0 -18 4 -13 11 5 9 -1 10 -20 5 -16 -4 -26 -2 -26 5 0 6 -7 8 -16 5 -9
-4 -22 -2 -29 4 -9 7 -64 9 -162 6 -168 -5 -198 -8 -209 -18 -4 -4 -18 -5 -32
-1 -17 4 -23 2 -18 -6 4 -6 1 -11 -7 -11 -8 0 -44 -16 -80 -35 -44 -23 -67
-31 -68 -23 0 7 -5 3 -11 -10 -6 -13 -17 -21 -24 -18 -7 3 -20 -6 -28 -20 -9
-13 -20 -23 -24 -22 -8 2 -132 -121 -132 -132 0 -3 -8 -15 -18 -26 -20 -21
-82 -144 -82 -162 0 -7 -4 -12 -10 -12 -5 0 -10 -12 -10 -26 0 -14 -4 -23 -8
-20 -5 3 -6 -8 -4 -25 2 -16 0 -29 -4 -29 -5 0 -10 -12 -11 -27 -7 -82 -16
-133 -23 -133 -4 0 -8 -28 -9 -62 0 -35 -3 -99 -6 -143 -3 -44 -8 -405 -11
-802 l-6 -722 -29 -41 c-17 -23 -36 -43 -44 -45 -8 -3 -22 -7 -31 -10 -32 -10
-779 -6 -809 5 -18 6 -41 28 -58 54 l-27 43 0 1534 0 1534 25 37 c41 61 58 63
445 63 245 0 353 -3 372 -12 14 -6 39 -29 55 -49 28 -37 28 -40 33 -203 5
-170 15 -211 49 -211 8 0 57 43 108 95 52 52 97 94 101 92 4 -1 22 14 40 33
20 22 32 29 32 20 0 -9 5 -5 13 9 6 13 21 29 31 35 24 13 33 20 65 46 13 11
28 17 32 14 5 -3 9 0 9 5 0 6 5 11 11 11 6 0 17 7 25 15 9 8 27 18 42 22 15 3
29 9 32 13 10 13 73 40 81 34 5 -3 9 0 9 6 0 6 4 9 9 6 5 -3 14 1 21 9 6 7 18
11 26 8 8 -3 14 0 14 6 0 6 7 8 15 5 8 -4 15 -2 15 4 0 10 47 23 88 24 12 0
22 4 22 9 0 5 11 7 25 3 15 -4 25 -2 25 5 0 6 17 11 39 11 22 0 42 4 45 9 3 4
39 6 81 3 52 -3 75 -1 75 7 0 7 30 11 90 11 60 0 90 -4 90 -11z m-3099 -95 c6
-8 15 -11 20 -8 11 6 59 -44 59 -62 0 -7 5 -14 11 -16 14 -5 14 -3055 0 -3090
-5 -13 -23 -36 -41 -53 l-31 -30 -401 -5 c-220 -3 -402 -2 -405 3 -2 4 -11 7
-20 7 -20 0 -71 52 -83 86 -11 28 -14 3042 -4 3082 4 12 10 22 14 22 4 0 12
12 19 26 7 16 17 24 26 21 7 -3 15 -1 17 5 7 21 91 26 445 26 295 0 365 -3
374 -14z"/>
</g>
</svg>
