<?xml version="1.0" standalone="no"?>
<!DOCTYPE svg PUBLIC "-//W3C//DTD SVG 20010904//EN"
 "http://www.w3.org/TR/2001/REC-SVG-20010904/DTD/svg10.dtd">
<svg version="1.0" xmlns="http://www.w3.org/2000/svg"
 width="700.000000pt" height="700.000000pt" viewBox="0 0 700.000000 700.000000"
 preserveAspectRatio="xMidYMid meet">
<metadata>
Created by potrace 1.16, written by Peter Selinger 2001-2019
</metadata>
<g transform="translate(0.000000,700.000000) scale(0.100000,-0.100000)"
fill="#000000" stroke="none">
<path d="M100 3505 l0 -3395 3395 0 3395 0 0 3395 0 3395 -3395 0 -3395 0 0
-3395z m2959 762 c277 -607 507 -1110 512 -1118 5 -9 11 -10 17 -4 5 6 208
508 453 1118 l443 1107 628 0 628 0 0 -37 c0 -36 -9 -47 -202 -234 l-203 -196
-3 -1319 c-2 -915 0 -1330 8 -1356 8 -29 52 -77 200 -220 181 -174 190 -184
190 -220 l0 -38 -890 0 -890 0 0 38 c0 35 10 47 200 232 l201 195 -1 1065 c-1
915 -3 1061 -15 1040 -7 -14 -238 -595 -512 -1292 l-498 -1268 -70 0 -70 0
-589 1286 c-324 706 -593 1287 -598 1290 -4 3 -8 -403 -8 -903 0 -861 1 -910
19 -948 10 -22 134 -179 275 -350 218 -264 256 -315 256 -342 l0 -33 -680 0
-680 0 0 35 c0 31 29 70 253 340 138 168 260 323 269 343 16 34 17 116 18
1125 0 966 -2 1091 -16 1118 -8 17 -116 151 -240 299 -210 253 -224 272 -224
310 l0 40 658 0 658 0 503 -1103z"/>
</g>
</svg>
