<svg xmlns="http://www.w3.org/2000/svg" viewBox="0 0 518.8024 501.1242"><defs><style>.cls-1{fill:#009bc8;}.cls-2{fill:#fff;}.cls-3{fill:#fad8e5;}.cls-4{fill:#00abbe;}.cls-5{fill:#00657f;}.cls-6{fill:#a2dae1;}.cls-7{fill:#ec6ca4;}.cls-8{fill:#e6b9d6;}.cls-9{fill:#f5b6ce;}.cls-10{fill:#0d1d3d;}.cls-11{fill:#59c3df;}.cls-12{fill:#58bddc;}.cls-13{fill:#f199bd;}</style></defs><g id="katman_2" data-name="katman 2"><g id="katman_1-2" data-name="katman 1"><path class="cls-1" d="M515.1694,228.8921c-3.86-4.9592-8.268-6.0619-13.2272-4.4076-4.9592,2.2064-7.7128,5.5107-8.2641,9.3671l3.8564-.5471c1.6544.5471,2.7571,1.0984,2.7571,2.2012,1.1029,2.2023.5514,3.3049-2.2058,3.8564-1.6489.5514-3.3047-.5515-5.51-3.3051-2.7537-2.7525-6.0574-4.9583-9.9137-5.51q2.4741-15.7038-4.9592-28.1l-9.9186-14.3257c-1.654-3.3051-.5513-6.058,2.7536-7.712,3.8564-1.6552,7.165-.5518,10.47,3.3042a12.5306,12.5306,0,0,1,2.7521,9.9184c-.5514,3.8564-2.2008,6.6092-4.4079,8.2638,5.5118,2.2061,11.574,1.1034,17.6311-3.8561v0c7.1651-4.9592,9.9184-12.6711,8.2678-22.59-1.1026-8.8155-6.0619-15.4291-15.4291-20.3883-12.6705-6.0575-26.4455-7.1606-41.3233-2.753-13.7736,3.8562-23.1406,11.5685-28.0995,24.2443q-8.2665-8.266-19.837-3.3041c-8.2631,2.7528-11.5678,8.8147-9.9137,17.0785.5514-2.7571,3.305-4.4073,7.16-4.4073s6.615,1.65,7.1664,4.9591c1.0977,5.5059-2.2075,9.918-10.47,13.2229-7.7179,3.8558-17.08,4.9548-27.55,4.4079a139.921,139.921,0,0,0-16.7206-9.0906c-1.2169.4619-2.4137.9332-3.6665,1.3777a19.7189,19.7189,0,0,1,4.2017,4.6076,42.8584,42.8584,0,0,1,6.82,3.6521c14.3253,8.2683,24.7914,11.5729,31.9565,9.9181-6.6138-.5472-11.5727-2.7529-14.8778-5.5064,17.0782-.5513,28.6524-5.5107,33.6105-13.7741,3.3046-4.9592,3.3046-9.9187.5513-14.3257-2.7571-3.3052-5.5094-4.9592-9.3657-4.9592,3.8562-2.758,7.7113-3.8565,12.6708-2.2022,4.4078,1.65,6.6134,4.4034,6.6134,7.1614-1.1029,11.0164-6.6132,19.8319-15.9808,26.4454a29.1076,29.1076,0,0,0,13.7752-13.2226l7.1611-16.5279c6.0622-13.7743,17.0835-22.59,34.1623-26.4506-7.16,2.758-12.12,8.2641-15.9807,15.9806q-2.4741,5.7846-6.6088,23.1416c-.0554.2376-.1285.47-.1871.7068a27.9566,27.9566,0,0,0-9.18,8.1087,34.1963,34.1963,0,0,0-6.0622,14.3257l-.5513,2.2019-1.6506-1.6506c-1.654-1.6544-3.8563-2.7573-7.165-3.8556l-8.8155.547a13.9963,13.9963,0,0,0-7.16,4.9592l-1.1026,4.407v4.4077c.5513,1.6545,1.1026,2.758,2.2055,3.3094l4.408,1.1031c1.0978-2.758,2.2-3.8607,3.8561-3.8607a1.67,1.67,0,0,1,2.2009,0l.5513,1.6549-.5513,2.2058-1.9919,1.6589c-.922.6-1.8773,1.1871-2.8383,1.7727-2.6225.8887-6.1217.596-11.1454-1.23-4.9592-1.6541-8.2641-3.3043-11.0214-6.0619l-9.3669-11.0171a51.1145,51.1145,0,0,0-14.8777-10.47c-1.2226-.6584-2.4232-1.2286-3.6138-1.7586a10.8176,10.8176,0,0,1,1.39,5.5455,59.7812,59.7812,0,0,1,14.3483,9.4366q10.7419,10.7471,23.142,34.7136c-2.7573-2.2061-8.2642-9.3712-17.631-21.491q-10.6489-13.31-24.5207-12.6778a41.2232,41.2232,0,0,1-4.7514,4.5546c.7568-.23,1.4839-.4865,2.27-.6915l0,0c7.166-1.6553,14.3258.5514,21.491,7.7164l9.9186,11.5683c-21.4914-10.47-37.4669-11.0213-49.04-.5517l-7.7128,6.0581.5515,1.1026,2.2017-1.1025,0,0a83.4587,83.4587,0,0,1,18.734-9.3626h8.8144c9.3668,1.1034,18.1826,4.4078,27.55,9.9182l12.6755,9.9188a86.4775,86.4775,0,0,1-15.4292-4.4125L359.79,250.9348c-12.6707-4.4121-23.14-3.8564-31.4046,1.0984,0,.5514,1.1029.5514,3.8565-.5513a25.22,25.22,0,0,1,11.0213-1.1027c7.16.5556,15.4293,2.7571,25.8942,6.0619l24.7961,8.268a130.1678,130.1678,0,0,0,13.2218,13.7748c-3.3035,3.3042-9.3668,4.9591-18.7324,5.5064-8.2641.5514-17.6314-2.7536-26.9983-10.4656-11.568-9.3711-19.2845-14.8778-24.2437-16.5318l-3.8562-.5518c-1.6545-.547-2.202,0-2.7537,1.6545,8.2642,1.6541,18.7342,7.712,31.9575,18.7334,12.12,10.47,23.6922,15.9762,34.7087,17.0793,4.959.5515,11.0213-1.65,17.08-6.0622h0c6.0623-3.8558,10.47-4.4031,14.3263-2.753-2.7537,6.0624-10.4664,11.0214-22.5905,15.9806a60.1464,60.1464,0,0,1-20.3834,1.65c-7.1649-1.1031-13.7747-3.3051-19.2854-7.1607a36.6578,36.6578,0,0,1-11.0214-8.8156l-9.9182-10.47c-8.2632-8.2635-17.0787-12.1239-25.3429-10.47l3.3048,2.758,4.408,1.65q-4.9575-.8208-13.2236,4.9589c-4.9591,3.8565-9.3669,4.96-12.6705,4.4083h0l-3.3048-1.6554c-1.1028-1.0983-1.1028-2.7529.5513-4.4027l3.8564-5.5108c3.3051-7.16,3.8564-13.7747,1.6494-18.7331l-3.9282-5.3331c-.7164.12-1.4.2631-2.129.3736a29.9387,29.9387,0,0,1-2.0932,5.9127l.99,1.7993,2.201,3.3051v.5556l.5524.5472.5514,1.6545V259.75l-.5514,6.0579-.5524.5521v1.1027l-3.8553,6.6094v.5557l-2.202,1.65-.5513.5514,0,0,3.3046,1.6549h1.103l.0023.0015,4.9568,3.3027.5511.5511,0,0,.5515.5475,1.6494,1.6548,1.1043.5516,0,0,.5512.5511v.5511l0,0,1.1026.5517.5514,1.0985.5466.5562v-1.6547l.5515-1.6545.5513-1.1028,3.8563-4.4076,9.3671-5.511c3.3089-1.0984,6.0622-1.65,7.7166-1.0984a13.1563,13.1563,0,0,1,7.7125,2.7529l4.96,4.4078L359.79,294.46a47.8386,47.8386,0,0,0,18.183,9.367,42.5637,42.5637,0,0,0,21.6936,2.4089c.8513.3021,1.714.63,2.5495.8961,15.9808,4.4071,28.6525,4.9584,38.5711,1.6542a48.1691,48.1691,0,0,0,27.5487-26.4464,11.5362,11.5362,0,0,1,11.0162-2.2053c4.4079.5513,6.6147,2.7528,6.0634,6.0619,3.3037-1.6543,4.9577-4.4079,4.9577-8.8149,0-6.6143-4.4063-11.5735-13.2218-14.3263,3.8566-6.0619,8.8155-9.3669,14.8775-9.3669l7.7116.5513h7.1611c6.0622-1.6546,9.9186-5.51,11.0214-11.0207C519.5773,237.708,519.0259,232.7483,515.1694,228.8921ZM496.983,168.8356a23.2193,23.2193,0,0,1,2.7573,15.98c-1.6543,7.1658-6.0622,11.5685-13.7736,13.7751a12.5313,12.5313,0,0,0,2.7524-9.9186,16.28,16.28,0,0,0-7.16-11.5683,17.7573,17.7573,0,0,0-12.672-3.3088,14.0116,14.0116,0,0,0-7.165,4.9585c-.5513-4.4071.5513-7.1607,2.2056-8.8149,2.7536-3.305,6.61-4.4077,11.0177-2.7537,3.3084,1.6509,6.0623,3.3052,7.7163,6.0631-2.2059-7.1658-7.7163-9.9186-16.5318-9.3717,2.7571-3.8563,7.165-6.6088,13.222-7.7122A28.5694,28.5694,0,0,1,496.983,168.8356Zm-25.894-13.2237c-8.8156,4.96-13.2232,11.0215-12.6719,19.2856,0,7.165,3.3049,14.8772,9.3668,22.0379a48.199,48.199,0,0,1,9.9186,19.8369c1.6494,7.712,1.6494,14.3264-.5513,20.3888a39.3652,39.3652,0,0,1-16.284,21.303,29.1313,29.1313,0,0,0-.6831-4.5716c.7138-.7836,1.4136-1.5846,2.0893-2.4106,5.5105-6.0574,8.8156-12.6713,9.9184-19.28A53.7174,53.7174,0,0,1,459.5455,251.57c-.01-.0294-.016-.0586-.0258-.0881a22.0806,22.0806,0,0,0-5.51-9.9183,19.0254,19.0254,0,0,0-11.5729-5.5066l-3.3039-.5513-1.6551,1.0984v.5568c4.9589,2.2012,8.2687,5.5055,8.82,9.3618v4.9592c-.5513,4.412-3.3095,7.7163-7.165,10.47l-1.6551.5514v-1.65c0-3.31-1.0981-7.7172-3.3041-13.7751l-2.7532-7.7163c-.5518-2.2012-.5518-4.9592,0-8.8157a23.5757,23.5757,0,0,1,3.3046-9.3662c4.9595-7.1656,11.5728-9.9185,19.8358-7.7128l2.2019,1.1036a2.942,2.942,0,0,1,1.6546,2.2012c.5513.5518,0,1.6545-.5514,2.2015l-4.4078.5564-4.4079-1.1035h-.5518l1.1033,2.7536.5525,1.65c1.6494,4.9592,5.5057,7.7163,10.4649,9.3712q4.963,1.6546,9.9186-3.3093a15.6351,15.6351,0,0,0,4.9592-9.3619c.5513-2.7579,1.1027-5.5155.5513-8.2685-1.1027-2.7528-3.3046-5.5061-6.6132-9.3668a48.3908,48.3908,0,0,0-9.3634-7.7125c-2.7573-1.6541-5.5109-2.2011-9.3661-2.2011l0,0c-3.7548-.5413-8.0313.4923-12.8244,2.0707.4314-1.7138.8532-3.4858,1.2517-5.38C444.0922,166.082,454.5607,155.0606,471.089,155.6119Zm-44.0769,84.853,3.8563,10.47c1.6544,4.9591,2.7536,8.8149,2.2023,11.5685-3.3049,2.753-4.9595,2.753-5.5069.5514Zm41.3235-34.1624h.5513c3.3048,3.3091,4.4079,7.7122,2.7533,12.6714h0c-1.6541,4.9589-4.959,8.2683-11.0214,10.47-2.7532.5513-6.0584-2.7529-10.4649-8.8151,2.7525,2.2015,6.0571,2.7572,9.9175,1.103C466.13,219.53,468.887,214.5711,468.3356,206.3025Zm-38.0185-.5469a28.9509,28.9509,0,0,1,15.4291-9.9187c6.6086-1.6545,12.12-.5558,16.5272,4.4034,2.2059,3.3094,2.7533,6.0622,1.6543,8.8155-4.4079-5.5061-9.9184-7.7128-16.5321-6.0575-2.7521.5514-4.4076,1.1027-4.4076,2.2012l2.7582.5561,3.8555-.5561c5.5118.5561,9.9182,2.7573,12.6718,6.6136,1.1028,1.6544.5513,2.758-1.1027,3.8563-2.7536-3.8563-6.0573-6.0578-10.4653-6.6136h0c-8.82-1.65-15.4291,2.7573-20.3883,12.1245a18.4807,18.4807,0,0,0-3.3049,8.8148C423.1561,221.7316,424.2553,214.0147,430.3171,205.7556Zm-31.4046,25.3431c-1.6555-1.6549-1.6555-4.4078-.5515-8.8157,1.6545-2.7529,4.4062-2.2057,8.2628,2.7531C403.8717,225.0361,401.1132,227.2422,398.9125,231.0987Zm4.052,4.7941-.1973.1642a7.7747,7.7747,0,0,1-1.2153.5814C402.0329,236.3928,402.4924,236.1409,402.9645,235.8928Zm-13.419,11.1856-5.5109-9.9175c10.47,4.4027,17.63,4.4027,22.5891.547,3.8562-2.7537,5.5109-6.0578,5.5109-8.8159.5513-4.4077-1.6546-7.7117-6.0622-9.9181,2.7571-1.0985,7.165,0,12.6755,3.3091,1.6509,1.65,3.3049,4.9592,4.408,8.8157h0c1.0992,6.0624-1.6544,11.5677-7.7168,16.5269C409.9286,251.4819,401.1131,250.9348,389.5455,247.0784Zm2.7533,4.4035c12.1246,3.8564,22.0378,2.206,30.3055-5.5061,2.2023,3.8563,1.6509,7.1605-1.1027,9.9181-6.0623,4.4032-12.1192,6.0581-18.7344,5.5066C398.361,260.8536,395.0559,257.5442,392.2988,251.4819Zm29.7541,7.165c0,6.0622-3.3049,7.7128-9.9183,5.5067-1.1031-.5475-1.1031-.5475-.5518-.5475C414.3366,263.6061,418.1966,261.952,422.0529,258.6469Zm-23.6919,6.0622c8.2627,3.3049,16.5269,4.9592,24.795,4.4035q14.05-.82,23.1415-9.9144a14.0464,14.0464,0,0,0,2.7525-8.819c.5515-3.8565,0-6.6093-1.103-8.2592-.5514-1.6551-2.2009-3.3094-3.8549-4.9589l0,0c6.0619,1.65,9.9171,8.2635,12.67,18.733,1.1033,7.1609.5517,11.5685-1.6491,13.7744a29.15,29.15,0,0,1-17.636,9.3627c-8.2631,1.1031-17.63-.5471-26.9974-4.9592A41.7828,41.7828,0,0,1,398.361,264.7091Zm14.8764,19.8326c-3.3087,4.4071-8.8141,6.6138-17.0834,6.0618-7.16-.5513-12.1194-1.6547-15.9755-4.4076,10.47,2.2066,20.3833,0,29.75-6.0618C412.6861,280.1341,413.7888,281.7881,413.2374,284.5417Zm5.5106,19.2849c-2.0209-.2247-4.0781-.565-6.1568-.9727l6.7045-2.3316,9.3672-6.0627,5.5105-6.6135.1319-.2636c1.23.3054,2.47.5845,3.7235.82,8.2687,1.65,15.4291,1.0984,21.491-2.2065C450.7054,299.97,436.9307,306.033,418.748,303.8266Zm65.5631-27.5491c-5.5109-3.8556-13.7736-1.65-25.3427,6.0619-4.9592,3.3052-10.47,4.4082-17.0834,3.8565a34.9323,34.9323,0,0,1-6.1132-1.5421l1.1589-2.3144h.5467l12.1241-3.8555c4.959-2.7577,7.7126-5.5106,9.3669-8.2685l1.6505-4.9592c.0333-.2325.0574-.4811.0864-.7213a24.2477,24.2477,0,0,1,14.24,1.8248C482.11,269.1125,484.8637,272.4219,484.3111,276.2775ZM471.089,261.952h-9.3669c11.5729-8.2642,18.1824-16.5276,20.3883-25.895,2.7533,0,4.9592,1.651,7.16,4.4079,2.7583,3.8563,4.959,6.6136,6.6147,7.1607C484.8637,246.5227,476.6,251.4819,471.089,261.952Zm41.3233-19.832c-1.6546,4.4027-3.8564,6.609-7.7128,6.609-3.8564.5517-7.7165-1.1034-10.47-4.9592,4.9595,1.6546,8.8159.5514,11.0214-3.3049,2.2023-4.9592,1.0993-8.2635-3.8563-9.9184,2.7536-1.6545,6.0585-1.1027,8.8155,1.6549C512.9636,234.9544,514.0664,238.2593,512.4123,242.12Z"/><path class="cls-2" d="M501.3945,230.5465c4.9556,1.6549,6.0586,4.9592,3.8563,9.9184-2.2055,3.8563-6.0619,4.9595-11.0214,3.3049,2.7536,3.8558,6.6137,5.5109,10.47,4.9592,3.8564,0,6.0582-2.2063,7.7128-6.609,1.6541-3.8607.5513-7.1656-2.2023-9.9186C507.453,229.4438,504.1481,228.892,501.3945,230.5465Z"/><path class="cls-2" d="M489.27,240.4649c-2.2008-2.7569-4.4067-4.4079-7.16-4.4079-2.2059,9.3674-8.8154,17.6308-20.3883,25.895h9.3669c5.51-10.47,13.7747-15.4293,24.7961-14.3264C494.2294,247.0785,492.0287,244.3212,489.27,240.4649Z"/><path class="cls-3" d="M466.13,163.8761c8.8155-.5469,14.3259,2.2059,16.5318,9.3717-1.654-2.7579-4.4079-4.4122-7.7163-6.0631-4.4078-1.654-8.2641-.5513-11.0177,2.7537-1.6543,1.6542-2.7569,4.4078-2.2056,8.8149a14.0116,14.0116,0,0,1,7.165-4.9585,17.7573,17.7573,0,0,1,12.672,3.3088,16.28,16.28,0,0,1,7.16,11.5683,12.5313,12.5313,0,0,1-2.7524,9.9186c7.7114-2.2066,12.1193-6.6093,13.7736-13.7751a23.2193,23.2193,0,0,0-2.7573-15.98,28.5694,28.5694,0,0,0-17.6311-12.6717C473.2949,157.2673,468.887,160.02,466.13,163.8761Z"/><path class="cls-2" d="M460.7053,264.5349c-.029.24-.0531.4888-.0864.7213l-1.6505,4.9592c-1.6543,2.7579-4.4079,5.5108-9.3669,8.2685l-12.1241,3.8555h-.5467l-1.1589,2.3144a34.9323,34.9323,0,0,0,6.1132,1.5421c6.6133.5517,12.1242-.5513,17.0834-3.8565,11.5691-7.7119,19.8318-9.9175,25.3427-6.0619.5526-3.8556-2.2007-7.165-9.3657-9.9178A24.2477,24.2477,0,0,0,460.7053,264.5349Z"/><path class="cls-3" d="M354.8308,207.9568a51.1145,51.1145,0,0,1,14.8777,10.47l9.3669,11.0171c2.7573,2.7576,6.0622,4.4078,11.0214,6.0619,5.0237,1.8264,8.5229,2.1191,11.1454,1.23.961-.5856,1.9163-1.1732,2.8383-1.7727l1.9919-1.6589.5513-2.2058-.5513-1.6549a1.67,1.67,0,0,0-2.2009,0c-1.6557,0-2.7583,1.1027-3.8561,3.8607l-4.408-1.1031c-1.1029-.5514-1.6542-1.6549-2.2055-3.3094v-4.4077l1.1026-4.407a13.9963,13.9963,0,0,1,7.16-4.9592l8.8155-.547c3.3087,1.0983,5.511,2.2012,7.165,3.8556l1.6506,1.6506.5513-2.2019a34.1963,34.1963,0,0,1,6.0622-14.3257,27.9566,27.9566,0,0,1,9.18-8.1087c.0586-.2367.1317-.4692.1871-.7068q4.1287-17.3592,6.6088-23.1416c3.8611-7.7165,8.82-13.2226,15.9807-15.9806-17.0788,3.8607-28.1,12.6763-34.1623,26.4506l-7.1611,16.5279a29.1076,29.1076,0,0,1-13.7752,13.2226c9.3676-6.6135,14.8779-15.429,15.9808-26.4454,0-2.758-2.2056-5.5109-6.6134-7.1614-4.9595-1.6543-8.8146-.5558-12.6708,2.2022,3.8563,0,6.6086,1.654,9.3657,4.9592,2.7533,4.407,2.7533,9.3665-.5513,14.3257-4.9581,8.2634-16.5323,13.2228-33.61,13.7741,3.3051,2.7535,8.264,4.9592,14.8778,5.5064-7.1651,1.6548-17.6312-1.65-31.9565-9.9181a42.8584,42.8584,0,0,0-6.82-3.6521c.1665.2633.3036.5293.4475.7945C352.4076,206.7282,353.6082,207.2984,354.8308,207.9568Z"/><path class="cls-3" d="M402.9645,235.8928c-.4721.2481-.9316.5-1.4126.7456a7.7747,7.7747,0,0,0,1.2153-.5814Z"/><path class="cls-3" d="M450.7054,191.9813l0,0c3.8552,0,6.6088.547,9.3661,2.2011a48.3908,48.3908,0,0,1,9.3634,7.7125c3.3086,3.8607,5.5105,6.614,6.6132,9.3668.5514,2.753,0,5.5106-.5513,8.2685a15.6351,15.6351,0,0,1-4.9592,9.3619q-4.9575,4.964-9.9186,3.3093c-4.9592-1.6549-8.8155-4.412-10.4649-9.3712l-.5525-1.65-1.1033-2.7536h.5518l4.4079,1.1035,4.4078-.5564c.5514-.547,1.1027-1.65.5514-2.2015a2.942,2.942,0,0,0-1.6546-2.2012l-2.2019-1.1036c-8.263-2.2057-14.8763.5472-19.8358,7.7128a23.5757,23.5757,0,0,0-3.3046,9.3662c-.5518,3.8565-.5518,6.6145,0,8.8157l2.7532,7.7163c2.206,6.0579,3.3041,10.4656,3.3041,13.7751v1.65l1.6551-.5514c3.8555-2.7537,6.6137-6.058,7.165-10.47v-4.9592c-.5514-3.8563-3.8612-7.1606-8.82-9.3618v-.5568l1.6551-1.0984,3.3039.5513a19.0254,19.0254,0,0,1,11.5729,5.5066,22.0806,22.0806,0,0,1,5.51,9.9183c.01.03.0162.0587.0258.0881a53.7174,53.7174,0,0,0,12.6463-19.3686c-1.1028,6.6092-4.4079,13.2231-9.9184,19.28-.6757.826-1.3755,1.627-2.0893,2.4106a29.1313,29.1313,0,0,1,.6831,4.5716,39.3652,39.3652,0,0,0,16.284-21.303c2.2007-6.0624,2.2007-12.6768.5513-20.3888a48.199,48.199,0,0,0-9.9186-19.8369c-6.0619-7.1607-9.3668-14.8729-9.3668-22.0379-.5513-8.2641,3.8563-14.326,12.6719-19.2856-16.5283-.5513-26.9968,10.47-31.9563,33.06-.3985,1.8943-.82,3.6663-1.2517,5.38C442.6741,192.4736,446.9506,191.44,450.7054,191.9813Z"/><path class="cls-2" d="M438.0288,288.4025c-1.254-.2355-2.4933-.5146-3.7235-.82l-.1319.2636-5.5105,6.6135-9.3672,6.0627-6.7045,2.3316c2.0787.4077,4.1359.748,6.1568.9727,18.1827,2.2064,31.9574-3.8563,40.7718-17.6306C453.4579,289.5009,446.2975,290.0522,438.0288,288.4025Z"/><polygon class="cls-4" points="122.872 151.756 122.872 152.582 122.872 152.582 122.872 151.756 122.635 151.046 122.635 151.047 122.872 151.756"/><polygon class="cls-4" points="122.516 147.578 122.516 147.578 122.32 146.797 122.516 147.578"/><polygon class="cls-4" points="122.775 148.615 122.775 148.615 122.872 149.003 122.675 149.003 122.675 149.003 122.872 149.003 122.775 148.615"/><path class="cls-4" d="M116.8137,130.8209c-2.7574-6.062-4.96-9.9186-5.5145-12.6711a18.7236,18.7236,0,0,1,2.2058-14.3309,22.2221,22.2221,0,0,1,7.165-7.16l5.5056-3.3045.4046-.0468c-.1609-4.331-.4732-8.37-.9511-12.0779-2.7573-15.9755-7.7164-22.0377-14.8778-18.7336-.555,18.1872-2.206,34.1628-6.0623,46.8389,4.96-34.7147,4.4083-58.4073-1.1027-71.0786l0,0c-3.8565-9.3673-9.3668-11.5683-16.5272-7.165q4.1287,19.84,0,42.9775c1.65-28.1005-2.7532-47.937-12.672-59.5054-3.8563-4.4078-7.7163-7.165-12.1242-7.7121C58.4066,5.7476,55.0979,6.3,52.3447,9.0527c-1.65,1.6542-2.2015,5.5105-1.1031,11.0214l5.5151,22.0381q9.9141,42.1511,3.3,97.5245a114.3269,114.3269,0,0,0,5.6566,49.0778l8.6738-2.7955a22.0405,22.0405,0,0,0,7.5447-6.5276A130.7893,130.7893,0,0,1,75.49,147.3486a193.7763,193.7763,0,0,0,7.7264,29.7172l4.389-12.0865,3.86-7.712c3.8565-4.96,8.2641-8.2643,13.7751-9.3673l5.781-.5985a65.2372,65.2372,0,0,0-4.6818-20.8926c-2.2022-4.9545-4.404-7.7119-7.1613-7.1606-2.7572,0-5.5107,4.4076-8.2643,12.6755-1.1027-12.6755-3.3086-18.7335-7.165-18.1865-2.7521.5518-4.9591,3.8564-6.6086,9.3717.5516-6.6136,3.3052-10.4743,7.1651-11.5728l0,0c3.8564-1.6552,6.6084,2.2012,7.7126,11.5729,4.4029-9.3717,9.3619-10.4743,14.3215-3.3094,4.2134,6.0881,6.4314,14.9689,6.6673,27.2963l8.21-.85h1.103v-1.65Z"/><path class="cls-1" d="M194.5006,215.1181a2.6821,2.6821,0,0,1-1.1026-1.3256v4.6342l-1.103,4.4035-.5515,1.6543v1.1037l-.5515,2.2012v.5556l-1.1026,1.0988v.5515l.5512.5512a150.4337,150.4337,0,0,1,11.0214,24.2448l1.1311,2.8282c.4825-2.7488,1.0137-5.524,1.6222-8.3388.0559-.24.1238-.4724.18-.7121-3.5234-6.1972-5.1358-10.0881-5.1358-11.9645,0-1.65,2.2023-2.7525,6.0587-3.3a24.0333,24.0333,0,0,0,3.4768-.7513c.2257-.7139.4685-1.4153.7012-2.1244a34.109,34.109,0,0,0-5.2811,1.2213q-9.0873,2.4816-9.9148-4.9592c.5479-3.3049,4.4042-5.5106,11.5692-6.0622l6.9749.4364c.651-1.6911,1.2971-3.386,1.9913-5.0441a25.4855,25.4855,0,0,0-8.42,1.303l-12.6708,4.4076c.5552-2.7577,3.8562-6.6135,9.9186-10.47,5.4659-3.2786,10.6856-4.8587,15.35-4.4476.3723-.7632.7739-1.503,1.1566-2.258a49.5385,49.5385,0,0,0-9.8929,1.7464C204.4153,208.5089,198.9048,211.2617,194.5006,215.1181Z"/><path class="cls-1" d="M206.07,170.49v.5513l.1887.19c-.0148-.2314-.0266-.4772-.0343-.7417Z"/><path class="cls-1" d="M126.1756,93.354,120.67,96.6585a22.2221,22.2221,0,0,0-7.165,7.16,18.7236,18.7236,0,0,0-2.2058,14.3309c.5548,2.7525,2.7571,6.6091,5.5145,12.6711l5.5067,13.7747v2.2015l.1953.7812.2592,1.0369.097.388h-.5513l.3147,2.0432.2366.71v.826l.5516,3.5815c-.5515,2.7532-1.1029,4.959-1.6543,5.51s-.5516.5521.5515,1.1037l18.1814-2.2064q10.7419-.8274,18.1828,3.3046c.2179.2179.397.4392.5944.6584l1.6109-1.2053,1.1031-1.1029,2.2019-1.6548.2536-.3821c-2.5244,1.4682-3.58,1.4635-4.11.9335,3.3051-6.0622,4.4077-11.5683,3.8564-15.9805l3.305,1.1035L164.8265,159.62l.4664-.7031,1.1031-.5471,1.6555-1.1026.5514-.5518,1.3891-1.0421c-1.013.67-2.0262,1.373-3.04,2.1452l1.65-7.1607c.5515-2.7578,1.6491-4.4121,4.4078-3.8608,4.9581,0,11.0163-3.3049,18.1812-9.3671,6.0622-1.1028,9.9184,0,12.1242,2.7536h0l7.1614,12.1241c4.4078,7.165,8.8155,11.0215,12.6709,12.6717,5.51,2.7528,10.47,2.2053,15.4291-1.1033l4.9591-4.959,2.7534-3.3051a10.3857,10.3857,0,0,1,1.1031,4.4078,17.9272,17.9272,0,0,1-3.8565,9.3672q-2.4817,2.4814-4.9591,1.6543l-4.9595-2.2057c-10.47-3.8562-18.7327-2.2022-25.3427,4.4122h-1.6592v2.201l.5564,9.9189-.5564,6.0571-1.0977,5.5106-2.7442,5.4851a41.09,41.09,0,0,1,3.8419-2.18c6.1543-2.56,11.8117-3.1792,16.5638-1.0416q1.6033-2.8923,3.308-5.7011c-5.6376-1.5184-12.05-1.2715-19.3154.6848-.5564.5518-.5564,0-.5564-2.2011l.5564-3.8607c8.92-2.8382,16.3437-2.68,22.501.45.5851-.8793,1.1366-1.7869,1.739-2.6513.2931-.4232.5973-.8271.8934-1.2453A20.7277,20.7277,0,0,0,223.7,180.96c-6.0622-.5513-11.5682.5471-15.4246,3.8557a4.186,4.186,0,0,1-1.1026-2.753l.5466-2.2058c8.269-7.7124,17.6312-9.3668,27.55-4.9592,1.1291.5266,2.196,1.0906,3.2222,1.679a127.5266,127.5266,0,0,1,10.132-10.9517,29.5188,29.5188,0,0,0,1.5234-6.1521,28.8943,28.8943,0,0,0-1.6506-13.7738,29.1312,29.1312,0,0,0-5.5106-7.7173l-6.0623-3.8556,1.103,1.1028c2.7536,2.7529,4.4076,4.4079,4.9594,6.0575l.5513,4.4126-1.1031,2.7525-3.3086,2.2065c-4.9589.5471-9.3631-.5563-12.6718-4.4121l-3.3045-6.0622L214.3341,119.8a32.347,32.347,0,0,0-9.9186-11.0216h0a37.2346,37.2346,0,0,0-14.326-4.9592,25.783,25.783,0,0,0-17.0786,2.7582h-.5528l-.5464-.5518c-5.5154-7.7121-15.98-12.6713-31.41-14.326l-10.0033,1.1554-3.9184.4525Zm31.9612,61.7066-4.4117,2.2067c-3.3046,0-5.5069-.5518-7.1609-1.6554a44.6182,44.6182,0,0,0,3.8562-26.9968c.5514,2.7529,2.757,6.6137,6.0582,10.47,2.7573,2.7532,4.4116,6.0573,4.4116,9.3664C161.4379,150.6579,160.3387,152.859,158.1368,155.0606Zm-17.6349-44.0758q8.2657,14.0493,6.6136,21.486l-4.4117-10.4646C141.0532,118.15,139.9506,114.2891,140.5019,110.9848Zm54.5467-2.7536a31.9548,31.9548,0,0,1,14.8778,10.4658l4.9591,10.47,3.8552,11.5728c3.856,8.2639,9.9182,13.2185,17.0844,13.7743l7.16-1.6546c-.5518,4.4083-4.4077,7.7125-11.5726,10.47-4.96,1.65-10.4652-2.2064-16.5273-10.47L206.07,137.43c-2.2058-3.304-6.0623-4.9593-12.1243-4.4078q1.6546-6.6106,0-8.2633c-2.7535,3.3049-5.5071,3.8562-9.3619,2.2064l-2.207-1.6551c.5513-2.2012,2.7532-4.4079,6.61-7.16a26.7107,26.7107,0,0,1,8.2681-1.1031l4.9592-.5513c0-1.1036-2.2061-1.655-6.0623-1.655a26.6557,26.6557,0,0,0-9.9183,1.655l-6.0622,4.4069c-1.6491-.5513-3.3052-3.8556-4.4027-9.9175C181.2735,107.1284,187.8871,106.0253,195.0486,108.2312ZM167.5,106.5771l2.7517,6.0576,2.7588,7.7163c2.7573,6.6143,7.16,10.47,12.119,11.017-5.5054,1.1028-10.4646-.5471-14.8778-4.4027-1.6491-1.6551-4.4027-6.6143-7.16-14.3306-3.3051-7.7121-6.6138-13.2185-9.915-15.9762C159.236,97.7611,163.6439,101.0661,167.5,106.5771Zm-19.8371-4.96,6.0619,7.7173c1.6546.5462,1.6546-1.1035-.5476-4.9593a91.0786,91.0786,0,0,0-8.2678-9.3712c7.1651,1.6543,12.672,8.2678,16.5283,19.2849,3.3087,11.0211,8.2678,17.6347,15.4276,19.2852q5.7922,1.6547,9.9188,0-.8271,4.9628-9.9188,6.6093h0c-4.954,1.6546-9.3653.5557-14.3249-3.3008-1.1027-1.1027-4.959-8.2677-12.12-21.491-6.0572-11.0163-12.6759-18.182-19.2856-20.9349C137.1968,92.8027,142.7038,95.56,147.6632,101.6174Zm-18.1777,0c.5463-1.654,1.6494-1.654,3.8564,0,2.7521,3.8565,4.4027,6.0623,3.8548,6.6138h0c-.5515,4.4035,2.207,11.5684,7.1665,22.0384q6.604,13.2233,0,24.791c-.5565,1.1033-1.66,1.1033-2.7588.5513,2.2023-7.16.5518-16.5268-5.5105-26.9968C130.0318,117.0467,127.8309,108.2312,129.4855,101.6174Zm2.2009,25.3479c4.9589,12.12,6.0582,21.4861,3.8562,28.6466l-7.7117,1.1036a41.8928,41.8928,0,0,0-2.7584-19.2855l-8.259-16.5277a17.95,17.95,0,0,1-1.6592-13.2226,17.3376,17.3376,0,0,1,7.166-10.47c1.65-.5513,3.3087,0,5.5106,1.65C125.6291,105.4739,126.7283,114.84,131.6864,126.9653Z"/><path class="cls-1" d="M317.9153,244.8728a44.961,44.961,0,0,1,5.6885-7.0856c-2.5012,1.0077-5.1222,1.8993-7.8242,2.7162A17.4915,17.4915,0,0,0,317.9153,244.8728Z"/><polygon class="cls-5" points="122.635 151.047 122.872 152.582 122.872 151.756 122.635 151.047"/><path class="cls-5" d="M308.0016,286.7476l-1.1026-.5517,0,0-.5512-1.1022,0,0-1.1043-.5516-1.6494-1.6548-.5515-.5475,0,0-5.5079-3.8538-.0023-.0015h-1.103l-3.3046-1.6549,0,0-.5517-.5514a36.4649,36.4649,0,0,0-14.8773-4.4073l-6.3662-.2834c12.9562-5.76,21.1883-12.8743,25.2126-21.3529a29.9387,29.9387,0,0,0,2.0932-5.9127c.7288-.1105,1.4126-.2541,2.129-.3736a120.1267,120.1267,0,0,0,15.0158-3.4442c2.702-.8169,5.323-1.7085,7.8242-2.7162a73.9,73.9,0,0,0,19.1074-11.0963c.17-.1375.317-.2739.4826-.4112a41.2232,41.2232,0,0,0,4.7514-4.5546c2.993-3.4281,4.5652-6.7647,4.6614-9.9814a10.8176,10.8176,0,0,0-1.39-5.5455c-.1439-.2652-.281-.5312-.4475-.7945a19.7189,19.7189,0,0,0-4.2017-4.6076c1.2528-.4445,2.45-.9158,3.6665-1.3777,15.3782-5.8362,27.9176-13.003,37.1053-20.6651,11.5729-9.9177,13.7736-18.7335,6.0623-26.4456,13.7732-7.1654,21.486-15.4249,23.6918-24.2439,1.6543-7.7128-.5513-13.2234-7.7113-16.5276,9.3656-9.3669,13.7736-19.2856,12.6705-29.7506-1.1027-9.9186-5.5106-15.98-13.7747-18.7333-2.7573-1.655-7.165,0-12.6708,4.9586L375.2192,86.74c-24.7962,22.5946-53.9953,40.7716-87.6059,53.9993a117.3257,117.3257,0,0,0-38.99,24.8854,127.5266,127.5266,0,0,0-10.132,10.9517q-3.1936,3.8769-6.1852,8.0973c-.2961.4182-.6.8221-.8934,1.2453-.6024.8644-1.1539,1.772-1.739,2.6513-1.0818,1.6257-2.1626,3.2519-3.1856,4.9272q-1.7115,2.8027-3.308,5.7011c-.9734,1.756-1.8951,3.5535-2.81,5.3574-.3827.755-.7843,1.4948-1.1566,2.258q-2.203,4.5141-4.1779,9.2069c-.6942,1.6581-1.34,3.353-1.9913,5.0441-1.1826,3.0719-2.3059,6.188-3.3482,9.3637-.2327.7091-.4755,1.4105-.7012,2.1244q-2.472,7.8166-4.4,16.0154c-.0565.24-.1244.4719-.18.7121-.6085,2.8148-1.14,5.59-1.6222,8.3388-3.0126,17.1611-3.5838,32.9885-1.6827,46.7584q3.3085,23.9643,13.2235,21.4872c4.4068-.5513,8.2627-5.511,11.0165-13.7751,3.86-11.5677,7.7163-19.8318,11.5726-24.2439,2.2019-2.7528,6.6136-4.9592,13.2233-7.712l8.4058-3.3616c20.4851-2.7572,35.1351,1.2375,43.939,11.0736,9.9184,11.5728,11.0163,29.7549,2.7522,53.4481q-2.4744,6.6108,4.9592,9.9177l6.0622,1.1038c7.1611.547,12.12,2.2011,14.326,4.9584h0c14.8731,20.3839,29.7505,33.607,45.7313,40.7679,4.9592,2.2059,8.8156,4.4117,10.4646,7.1649,4.9592,7.7128,6.6151,20.3838,3.8614,38.57-3.8615,18.1774-8.8155,29.75-14.326,34.1578-4.4079,3.3087-14.3265,1.1031-29.2031-6.0619q-14.05-7.4388-26.4465-23.1367c-4.9592-6.0623-11.0214-16.5321-18.7328-30.8573l-14.3265-23.6933c-8.2641-12.1192-19.2856-18.7339-34.1582-19.2808a9.0544,9.0544,0,0,0-5.51.5469h1.65a4.6577,4.6577,0,0,1,3.3087,1.1036c.5513,0,.5513.5513.5513,1.1026-.5513,1.65-3.3087,3.8556-8.2678,6.0616-13.7745,4.9592-26.9983,6.61-39.1175,4.9592h-1.1031l.5518-.555c3.3047-2.7536,4.9592-4.4042,4.9592-6.0573v-.5529l-2.7585,1.6557a65.96,65.96,0,0,1-9.362,5.51q-23.144,9.0877-33.0642,18.1787c-9.3619,8.2681-15.4242,19.29-18.1774,33.6109-4.4117,20.3883-12.671,35.261-24.2437,45.1793-10.47,8.2681-27.55,8.2681-50.1388-1.1026-8.2641-3.8566-12.12-6.61-12.12-9.3633.547-13.7738,4.9592-27.002,12.6712-39.673,4.9592-7.7124,13.7747-18.1823,26.4455-30.8532,12.6719-14.326,21.4875-24.7918,25.3427-31.4053,2.7585-4.9591,9.372-8.2635,18.7342-9.9186,11.0215-2.2012,18.7337-5.5106,23.1456-10.469v-.547h-.5564l-5.5058,2.2012a106.88,106.88,0,0,1-15.9806,4.4077l-.5463.5513v-.5513c-5.5156-6.0619-7.1665-20.384-4.96-42.4263.5467-8.8152,1.0981-14.3215.5467-15.976v-.552l.5514-.5514c11.0177-2.7573,19.8368-9.3667,26.9983-18.7335,7.1649-9.3669,11.0214-20.9357,12.1241-34.71V242.12c-.5565-4.412,0-6.6143,1.6491-6.6143,1.6544,0,3.31-1.1028,4.9595-2.7574l3.8564-2.7531,0,0v-.5515l1.1026-1.0988v-.5556l.5515-2.2012v-1.1039l.5515-1.6541,1.103-4.4035v-4.6342c-.3471-.9735.01-2.18,1.1026-3.6335a29.6626,29.6626,0,0,1,8.2737-7.7385l2.7442-5.4853,1.0977-5.51.5564-6.0571-.5564-9.9189v-2.201a6.1,6.1,0,0,1-.3577-2.0162l-.1887-.19V170.49h.1544a74.6044,74.6044,0,0,1,.392-8.2636c.5564-4.959-1.6495-8.8155-5.5058-10.47-10.0557-4.5247-20.5667-3.0658-31.1184,3.9171l-1.3891,1.0421-.5514.5518L166.396,158.37l-1.1031.5471-.4664.7031-.08.4c-.107.0642-.1955.11-.2977.1695l-.2536.3821-2.2019,1.6548-1.1031,1.1029-1.6109,1.2053a7.0775,7.0775,0,0,1,2.1588,4.8525c4.9581-6.0578,10.4736-11.017,17.0837-13.775,7.7114-3.8556,14.321-3.8556,20.3832-1.0983,1.6542,1.0983,3.3087,2.2019,3.8565,3.305h0v12.12l.5549,12.1241c0,9.9187-3.3087,17.0793-9.9183,22.0385-.5553.5513-1.6544-.5513-4.4117-4.4076-3.8564-6.0623-4.9592-13.7744-2.7532-22.59l2.7532-7.7164,1.1031-4.4077c-1.1031-1.65-3.8563-.5475-7.7128,2.2054a19.4035,19.4035,0,0,0-9.3657,11.5686v1.1034c17.0785,20.3836,20.3871,37.4673,9.3657,51.242a4.76,4.76,0,0,1-3.3087,1.65l-1.6506.5562c-.5516,13.7739-2.752,24.791-6.6083,32.5031-3.8563,8.2641-10.47,16.5318-19.837,24.2446-9.3673,7.1652-22.0427,7.7121-37.4669,1.65-6.61-2.7536-15.9808-9.9143-28.6528-21.4869l3.31-1.103c-9.372-1.65-15.9805-2.7528-19.29-4.4034a35.8672,35.8672,0,0,1-12.1156-6.0623c-3.8607-3.3087-6.6135-7.1649-7.1649-11.0212-.5513-2.2012,0-3.3045.5514-3.3045s1.0984,1.1033,1.6544,2.7573l2.7532,4.4035c4.9589,6.6136,11.5686,8.2678,20.3837,5.5108,1.6548-.5516,6.0627-3.3049,14.33-8.2637.5468.5517,1.0981,1.103.5468,2.2058-.5468.5471,0,1.0984.5513,1.65,2.7585-.5513,3.8566-2.2053,2.202-5.5061-1.0993-2.7573-3.3-4.412-6.6087-3.86l-.5525,1.6543v1.103l-15.9756.5469a36.141,36.141,0,0,1-15.4294-6.0578c-7.7162-6.062-11.0162-12.12-9.366-18.1819a43.9525,43.9525,0,0,1,6.0619-8.2684,16.3988,16.3988,0,0,0,3.3043-12.12c0-2.7531,3.8564-5.511,12.1206-7.7125,9.3709-2.7576,15.4291-5.5106,18.1865-9.367,1.65-2.2058,4.4027-7.712,7.7125-17.0832,2.5674-7.1941,5.638-11.96,10.0618-14.36a8.2886,8.2886,0,0,1,3.7117-1.6162c.0787,0,.1367.0218.2136.0236a69.4159,69.4159,0,0,1,16.3149-2.7769v0h.3548v0h.1964l-.0969-.3876v0l-.2592-1.0369v0l-.1953-.7813v-.5513h-1.103l-8.21.85c-.2359-12.3274-2.4539-21.2082-6.6673-27.2963-4.96-7.1649-9.9186-6.0623-14.3215,3.3094-1.1042-9.3717-3.8562-13.2281-7.7126-11.5729l0,0c-3.86,1.0985-6.6135,4.9592-7.1651,11.5728,1.65-5.5153,3.8565-8.82,6.6086-9.3717,3.8564-.547,6.0623,5.511,7.165,18.1865,2.7536-8.2679,5.5071-12.6755,8.2643-12.6755,2.7573-.5513,4.9591,2.2061,7.1613,7.1606a65.2372,65.2372,0,0,1,4.6818,20.8926l-5.781.5985c-5.511,1.103-9.9186,4.4076-13.7751,9.3673l-3.86,7.712-4.389,12.0865A193.7763,193.7763,0,0,1,75.49,147.3486a130.7893,130.7893,0,0,0,6.4415,32.0428,22.0405,22.0405,0,0,1-7.5447,6.5276l-8.6738,2.7955a114.3269,114.3269,0,0,1-5.6566-49.0778q6.6183-55.374-3.3-97.5245L51.2416,20.0741c-1.0984-5.5109-.5471-9.3672,1.1031-11.0214,2.7532-2.753,6.0619-3.3051,9.9181-2.2016,4.4079.5471,8.2679,3.3043,12.1242,7.7121,9.9188,11.5684,14.3215,31.4049,12.672,59.5054q4.1287-23.1426,0-42.9775c7.16-4.4033,12.6707-2.2023,16.5272,7.165l0,0c5.511,12.6713,6.0623,36.3639,1.1027,71.0786,3.8563-12.6761,5.5073-28.6517,6.0623-46.8389,7.1614-3.3041,12.12,2.7581,14.8778,18.7336.4779,3.7082.79,7.7469.9511,12.0779l3.9184-.4525a106.39,106.39,0,0,0-1.57-18.7861c-2.7537-14.877-8.8156-20.3877-18.1778-17.6307,0-14.8772-2.7573-24.7954-8.2678-30.3064-4.9594-4.9589-11.0178-4.9589-17.08-.5469C82.6467,13.46,76.5894,5.7476,67.2221,1.8918,58.958-1.4174,51.7977-.3143,46.2824,4.645q-3.3017,2.4821-1.65,11.5684l6.6089,23.1453c7.165,29.7507,8.2681,63.362,3.8564,101.3806a113.6993,113.6993,0,0,0,4.9326,49.8066l-2.7267.8789-5.5064,3.3094L47.942,200.24a7.57,7.57,0,0,0,0,4.9592l-.5568,5.5109-6.0619,7.7163-.547,4.4034,1.65,8.82a15.712,15.712,0,0,0,4.9591,7.712l.5568.5513v.5515a28.6494,28.6494,0,0,0-.5568,11.5683q4.137,9.92,14.8778,14.8778a38.674,38.674,0,0,0,19.2855,3.3044H82.1l.5467.5514a61.6786,61.6786,0,0,0,23.1455,21.4913,60.255,60.255,0,0,0,30.8532,8.2642h.5515l.5478.5514-.5478,13.2229c-.5515,7.1606-1.1028,12.6711-2.7522,16.5277a2.9555,2.9555,0,0,1-1.654,2.2015h-3.8615l-3.8565-.5471-8.8144-1.1031-9.3632-.5513c-7.1651.5513-13.2271,3.8555-18.7328,8.8147-2.2059,2.2065-6.6136,4.408-13.2276,6.0623l-18.1778,3.3049L43.53,350.66l-12.12,3.3052c-9.3668,2.7529-16.5318,6.0623-21.491,9.3662C3.3094,367.1879,0,372.6988,0,378.7606c.5558,9.9181,3.8607,20.3844,10.4744,31.9571a116.3877,116.3877,0,0,0,25.8948,28.6476c2.7525,2.2058,6.0569,3.3086,8.8148,2.7571l15.9762-4.959,1.6541-.5513-.5513,1.6541a125.85,125.85,0,0,0-7.7122,20.9349,90.1139,90.1139,0,0,0-2.2061,20.94l2.7533,6.0582,7.165,4.4079,12.1241,4.9594a109.9734,109.9734,0,0,0,19.2808,4.9592c18.1861,2.2058,31.9612-1.6505,40.7767-12.12A94.5821,94.5821,0,0,0,146.0124,467.47l11.5692-40.777c1.6544-7.1609,6.0622-13.2232,12.67-18.1824q5.7921-4.1287,19.8373-11.568l9.9182-6.0619H201.11c11.568,2.7571,22.0381,3.3046,32.5077,1.1027a66.2215,66.2215,0,0,0,28.1012-13.2229l.5516-.5514.5464.5514c7.7163,3.3057,14.3261,9.363,19.8369,17.6306l17.0787,31.9565q9.0948,14.8775,16.5318,24.7911c12.672,17.0835,26.9983,28.1046,41.8758,33.06l11.568,2.7574c3.8564.5476,7.165.5476,9.9183-1.103,4.9595-2.7536,9.3672-8.2641,13.2238-17.0834l5.51-18.7288c4.9591-26.9973,3.3036-43.53-5.51-50.6906l-7.1615-4.4077-16.5319-7.1651L363.1,385.9216l-1.6555-1.0993-.5513-.555,2.7583.555c9.9135,3.8566,21.4864,5.5073,35.2611,4.9556a91.1273,91.1273,0,0,0,36.3638-7.1609,4.9631,4.9631,0,0,0,3.3039-3.3086,4.2731,4.2731,0,0,0,1.1042-4.4035c-.5517-6.0623-2.7536-12.1245-6.0622-18.1865-2.7537-4.4027-7.1613-9.9187-13.2232-17.0793l-11.0165-10.47c-3.8615-2.753-7.1665-4.9591-11.0213-5.5058L363.1,324.21c-7.1664-.5467-13.775-1.0988-19.8369-2.7531a22.141,22.141,0,0,0-13.7749,2.7531l0,0-11.0214,7.1654-2.7532,1.1031-1.6546-.5518v-1.1027c3.8565-14.8735,2.2059-28.1-4.4076-40.7721v-.5513l-.5515-.5521v-.5463l0,0-.5466-.5562Zm-68.8767-4.9595a44.5347,44.5347,0,0,0-14.3212,20.3887c-4.9592-46.8385,12.1193-89.2606,50.6891-127.2793-28.6511,25.8986-45.731,57.8508-51.24,95.318q-.8287,7.4383-3.3047,34.7138c-.5564,9.9187-2.2069,15.425-4.9594,17.0793-6.0619,2.7577-9.9184-2.7571-11.5729-17.0793-1.654-14.8771-.5513-31.9559,4.4079-51.2414,4.9594-23.6927,13.7734-44.0763,25.898-61.7066,14.8738-21.4914,33.0552-36.3693,54.5465-45.1842,36.9153-15.4291,66.6658-33.6068,89.8078-55.0978l17.63-17.0793c4.4078-3.8556,8.2693-5.5106,11.0215-4.4071,3.8559,1.6541,6.0619,4.4071,7.7124,8.2633,1.6544,4.9593,1.1031,9.9188-1.1027,15.9807-6.0584,15.9766-22.5906,30.302-49.5872,43.5247,16.532-6.0578,29.7552-13.7743,40.2253-23.1412,7.7114,4.9593,8.2627,11.5685,1.6491,20.3884-8.8155,11.5683-30.8533,24.2439-65.5666,38.019,13.7736-2.7579,29.2028-9.3717,46.8337-18.7342,7.165,5.5062,3.8551,13.7745-9.9181,24.24-14.8729,11.573-38.0148,22.59-69.42,33.6111,5.5058-1.1027,16.5272-4.4076,33.607-9.9181,13.2223,15.4291-6.61,30.302-60.0572,44.6322l11.5728-2.2055c-4.4078,10.4653-13.2238,18.7331-26.4454,24.24l-15.4293,6.0618C245.7386,277.3811,241.8822,279.5827,239.1249,281.7881Zm-182.3681-34.71,1.65.5472c10.4657,3.3092,18.734,4.4076,24.24,2.7536l-1.0981,1.1027a21.2925,21.2925,0,0,1-11.0178,4.412,12.46,12.46,0,0,1-11.5728-4.412l-2.2012-3.3049ZM37.467,432.7557c-15.9755-11.0216-26.4457-26.9973-30.8491-48.4885v0c-1.6587-6.0579,2.7534-12.12,12.672-18.1776v-.5558c7.7122-4.9592,19.8318-8.8155,36.9111-12.12,18.1861-3.8564,31.4047-8.8156,39.1212-14.8734q6.6116-4.964,24.7913-3.3093l11.5729.5521h1.1042c.5513.5516.5513,1.1031,0,2.2015v1.1028c0,6.6137,2.2007,13.228,6.6132,20.3882l.5467,1.0988h-1.1028c-7.1614-.547-14.8778,5.515-22.59,18.1861l-5.5068,7.1607c-8.2678,10.47-20.94,22.5894-36.92,37.4672h-.5471l-1.1026.5526C57.304,431.6529,45.7354,434.4062,37.467,432.7557Zm276.04-94.2151h.5514c3.8565,0,7.7165-2.2056,12.1242-6.0618,4.9595-4.4079,8.8159-6.6137,12.672-6.6137,11.568,1.654,28.1,2.7573,49.5877,2.2058h4.9592a9.9024,9.9024,0,0,1,6.0619,1.6549,109.6423,109.6423,0,0,1,24.24,23.6882c6.0622,8.2636,9.3671,15.4286,8.8193,20.3876-.5513,2.2015-1.1027,3.8565-2.7571,4.4078-12.672,6.6129-27.55,8.8151-45.1794,6.6129l-3.3049-.555a158.5808,158.5808,0,0,1-24.7962-4.4035c-4.9581-3.3084-10.47-9.3714-17.0786-18.7333l-7.7166-8.8148a14.4877,14.4877,0,0,0-8.2642-3.8607Q312.6842,346.8067,313.5074,338.5406Z"/><path class="cls-2" d="M150.4205,115.3918c7.1611,13.2233,11.0174,20.3883,12.12,21.491,4.96,3.8565,9.3709,4.9554,14.3249,3.3008h0q9.0934-1.6478,9.9188-6.6093-4.1361,1.6547-9.9188,0c-7.16-1.65-12.1189-8.2641-15.4276-19.2852-3.8563-11.0171-9.3632-17.6306-16.5283-19.2849a91.0786,91.0786,0,0,1,8.2678,9.3712c2.2022,3.8558,2.2022,5.5055.5476,4.9593l-6.0619-7.7173c-4.9594-6.0574-10.4664-8.8147-16.5283-7.16C137.7446,97.21,144.3633,104.3755,150.4205,115.3918Z"/><path class="cls-2" d="M163.0925,112.6347c2.7568,7.7163,5.51,12.6755,7.16,14.3306,4.4132,3.8556,9.3724,5.5055,14.8778,4.4027-4.959-.5471-9.3617-4.4027-12.119-11.017l-2.7588-7.7163L167.5,106.5771c-3.8564-5.511-8.2643-8.816-14.3228-9.9186C156.4787,99.4162,159.7874,104.9226,163.0925,112.6347Z"/><path class="cls-2" d="M122.32,97.21a17.3376,17.3376,0,0,0-7.166,10.47,17.95,17.95,0,0,0,1.6592,13.2226l8.259,16.5277a41.8928,41.8928,0,0,1,2.7584,19.2855l7.7117-1.1036c2.202-7.16,1.1027-16.5268-3.8562-28.6466-4.9581-12.1249-6.0573-21.4914-3.8555-28.1053C125.629,97.21,123.97,96.6585,122.32,97.21Z"/><path class="cls-3" d="M180.1708,120.9023l6.0622-4.4069a26.6557,26.6557,0,0,1,9.9183-1.655c3.8562,0,6.0623.5514,6.0623,1.655l-4.9592.5513a26.7107,26.7107,0,0,0-8.2681,1.1031c-3.8565,2.7525-6.0584,4.9592-6.61,7.16l2.207,1.6551c3.8548,1.65,6.6084,1.0985,9.3619-2.2064q1.6546,1.6545,0,8.2633c6.062-.5515,9.9185,1.1038,12.1243,4.4078l8.8157,15.429c6.0621,8.2638,11.5676,12.12,16.5273,10.47,7.1649-2.7577,11.0208-6.0619,11.5726-10.47l-7.16,1.6546c-7.1662-.5558-13.2284-5.51-17.0844-13.7743l-3.8552-11.5728-4.9591-10.47a31.9548,31.9548,0,0,0-14.8778-10.4658c-7.1615-2.2059-13.7751-1.1028-19.28,2.7536C176.8656,117.0467,178.5217,120.351,180.1708,120.9023Z"/><path class="cls-2" d="M136.094,128.6151c6.0623,10.47,7.7128,19.8363,5.5105,26.9968,1.0993.552,2.2023.552,2.7588-.5513q6.604-11.5683,0-24.791c-4.96-10.47-7.718-17.6349-7.1665-22.0384h0c.5479-.5515-1.1027-2.7573-3.8548-6.6138-2.207-1.654-3.31-1.654-3.8564,0C127.8309,108.2312,130.0318,117.0467,136.094,128.6151Z"/><path class="cls-3" d="M147.1155,132.4708q1.654-7.4386-6.6136-21.486c-.5513,3.3043.5513,7.165,2.2019,11.0214Z"/><path class="cls-6" d="M233.6181,168.8356l4.9595,2.2057q2.4759.8269,4.9591-1.6543a17.9272,17.9272,0,0,0,3.8565-9.3672,10.3857,10.3857,0,0,0-1.1031-4.4078l-2.7534,3.3051-4.9591,4.959c-4.9595,3.3086-9.9187,3.8561-15.4291,1.1033-3.8554-1.65-8.2631-5.5067-12.6709-12.6717l-7.1614-12.1241h0c-2.2058-2.7536-6.062-3.8564-12.1242-2.7536-7.1649,6.0622-13.2231,9.3671-18.1812,9.3671-2.7587-.5513-3.8563,1.103-4.4078,3.8608l-1.65,7.1607c1.0134-.7722,2.0266-1.4749,3.04-2.1452,10.5517-6.9829,21.0627-8.4418,31.1184-3.9171,3.8563,1.6545,6.0622,5.511,5.5058,10.47a74.6044,74.6044,0,0,0-.392,8.2636c.0077.2645.0195.51.0343.7417a6.1,6.1,0,0,0,.3577,2.0162h1.6592C214.8854,166.6334,223.1485,164.9794,233.6181,168.8356Z"/><path class="cls-3" d="M156.4786,139.085c-3.3012-3.8562-5.5068-7.717-6.0582-10.47a44.6182,44.6182,0,0,1-3.8562,26.9968c1.654,1.1036,3.8563,1.6554,7.1609,1.6554l4.4117-2.2067c2.2019-2.2016,3.3011-4.4027,2.7534-6.6092C160.89,145.1423,159.2359,141.8382,156.4786,139.085Z"/><path class="cls-3" d="M164.1952,145.1423c.5513,4.4122-.5513,9.9183-3.8564,15.9805.53.53,1.5856.5347,4.11-.9335.1022-.0594.1907-.1053.2977-.1695l.08-.4L167.5,146.2458Z"/><path class="cls-2" d="M140.5021,160.5714l-18.1814,2.2064c-1.1031-.5516-1.1031-.5516-.5515-1.1037s1.1028-2.7571,1.6543-5.51l-.5516-3.5815,0-.0008-.2364-1.5349,0,0-.3147-2.0432v0a69.4159,69.4159,0,0,0-16.3149,2.7769,5.4945,5.4945,0,0,1,5.2934,3.2807c3.3085-3.3043,6.6137-3.8556,9.9183-1.1028l1.103,2.2061a4.6682,4.6682,0,0,1-1.103,3.3087h0c-1.6506,1.65-3.3046,2.2016-4.9592,1.0989a2.8453,2.8453,0,0,1-1.6505-3.856l2.7537-.5516,1.1027,1.1034c-1.6505-.5518-2.206,0-1.6505,1.1027a2.5967,2.5967,0,0,0,3.3-.5514c1.1038-1.6547.5564-2.2067-1.6494-2.758-2.7536-1.1028-4.9592-.547-6.0622,1.1033q.8269,4.13-1.6506,6.6139a10.89,10.89,0,0,1-6.0622,3.3042c-2.7533.5513-3.8561,1.65-4.4077,2.7536-1.1029,2.757-.5515,4.9592,1.6544,6.0619,1.65,1.1031,2.7533,1.1031,3.8563,0a2.5879,2.5879,0,0,0,.5478-3.3049l-2.2023-.5514c-.5513,1.1031,0,1.65,1.1031,1.65-1.1031,1.1034-2.2008,1.1034-2.7573,0l.5565-2.753a2.5862,2.5862,0,0,1,3.3-.5515q3.3083,1.6545,1.6541,4.9593c-.5513,3.86-2.7532,4.4071-6.6136,2.2057-2.2018-1.6544-3.3-3.3042-3.3-6.062s2.201-4.9592,6.0573-6.6138c3.305-1.0983,5.511-2.7533,6.0586-4.9591.555-1.65.555-3.3051-1.099-4.4034q-3.3033-2.4819-6.6138,1.65c-1.65,2.2061-1.1031,3.3087.5565,3.8559a2.4512,2.4512,0,0,0,2.7521,0c.5478-.5472.5478-1.1028.5478-2.2012q0-1.6547-1.6509,0c.5517-1.6547,1.6509-2.2067,2.7537-1.6547,1.6546.5516,1.6546,1.6547.5513,3.8559-1.6541,2.758-3.305,2.758-6.0582,1.103a5.2811,5.2811,0,0,1-1.6544-5.5109,6.6012,6.6012,0,0,1,1.799-2.2394c-4.4238,2.3993-7.4944,7.1656-10.0618,14.36-3.31,9.3712-6.0622,14.8774-7.7125,17.0832-2.7574,3.8564-8.8156,6.6094-18.1865,9.367-8.2642,2.2015-12.1206,4.9594-12.1206,7.7125a16.3988,16.3988,0,0,1-3.3043,12.12,43.9525,43.9525,0,0,0-6.0619,8.2684c-1.65,6.062,1.65,12.12,9.366,18.1819a36.141,36.141,0,0,0,15.4294,6.0578l15.9756-.5469v-1.103l.5525-1.6543c3.3087-.5521,5.5094,1.1026,6.6087,3.86,1.6546,3.3008.5565,4.9548-2.202,5.5061-.5513-.5513-1.0981-1.1026-.5513-1.65.5513-1.1028,0-1.6541-.5468-2.2058-8.2676,4.9588-12.6755,7.7121-14.33,8.2637-8.8151,2.757-15.4248,1.1028-20.3837-5.5108l-2.7532-4.4035c-.556-1.654-1.1031-2.7573-1.6544-2.7573s-1.1027,1.1033-.5514,3.3045c.5514,3.8563,3.3042,7.7125,7.1649,11.0212a35.8672,35.8672,0,0,0,12.1156,6.0623c3.3094,1.6506,9.9179,2.7532,19.29,4.4034l-3.31,1.103c12.672,11.5726,22.0429,18.7333,28.6528,21.4869,15.4242,6.0619,28.1,5.515,37.4669-1.65,9.3669-7.7128,15.9807-15.9805,19.837-24.2446,3.8563-7.7121,6.0567-18.7292,6.6083-32.5031l1.6506-.5562a4.76,4.76,0,0,0,3.3087-1.65c11.0214-13.7747,7.7128-30.8584-9.3657-51.242v-1.1034a19.4035,19.4035,0,0,1,9.3657-11.5686c3.8565-2.7529,6.61-3.8555,7.7128-2.2054l-1.1031,4.4077-2.7532,7.7164c-2.206,8.8156-1.1032,16.5277,2.7532,22.59,2.7573,3.8563,3.8564,4.9589,4.4117,4.4076,6.61-4.9592,9.9183-12.12,9.9183-22.0385l-.5549-12.1241v-12.12h0c-.5478-1.1031-2.2023-2.2067-3.8565-3.305-6.0622-2.7573-12.6718-2.7573-20.3832,1.0983-6.61,2.758-12.1256,7.7172-17.0837,13.775a7.0775,7.0775,0,0,0-2.1588-4.8525c-.1974-.2192-.3765-.4405-.5944-.6584Q151.2455,159.7462,140.5021,160.5714Zm-29.2029,4.9593a2.6071,2.6071,0,0,1,3.3084-.5513q1.6545.827,1.6506,3.3087c2.2059,0,3.8554.5475,4.4117,2.2018.5475,1.1027,0,2.2015-1.1031,3.3049-1.654,1.654-4.4123,1.654-8.2676-.547C109.0973,170.49,109.0973,167.7322,111.2992,165.5307Zm-1.6506,11.0213c2.7532-1.103,4.4076-.5514,5.5057,1.6542a2.58,2.58,0,0,1-.5467,3.3007,1.3673,1.3673,0,0,1-2.2058.5556c-1.65-.5556-1.65-1.1027-.5478-2.2058.5478.5518.5478,1.1031,1.0992.5518v-2.2023a2.5866,2.5866,0,0,0-3.3046.5471c-1.1032,1.1034-1.1032,2.2065-.5513,3.8564,1.099,2.2057,3.3045,2.758,6.057,1.6543,1.6592-.5513,2.7585-2.2015,4.4125-4.9586,1.6506-2.7534,2.7536-4.4079,4.4031-4.9592a8.371,8.371,0,0,1,7.165-1.6548c3.31-1.65,4.4078-3.3044,3.31-6.058-1.654-2.2015-2.7582-2.7573-4.4128-1.654a2.5905,2.5905,0,0,0-.5462,3.3087c1.1027.5475,1.6493,0,2.2008-1.6547,1.6555,1.6547,1.6555,2.7536,0,3.8565-1.6546,1.6544-3.304,1.1027-4.4068-1.6543-1.6505-1.6509-1.1042-3.8562,1.1028-5.5064,2.7525-1.655,4.96-1.1029,7.16,1.65,1.6541,3.3087,1.1026,6.0619-2.7521,8.2684a7.8145,7.8145,0,0,1,4.4062,4.9584q.8217,4.13-3.3086,6.6092c-3.3,1.65-6.0573,1.65-7.7128-1.1027-1.649-3.3042-1.1028-5.5065,1.6555-7.1607,1.6546-1.103,3.304-.5514,4.4079,1.6542.5517,1.0992.5517,2.2023-1.1039,2.7536.5515-1.6544,0-2.2065-1.6494-2.2065l-1.6546,1.1034-.5513,2.2058c1.65,2.753,3.3087,2.753,5.511,1.0988q4.1281-2.4816,1.654-6.6093c-1.654-2.2058-3.31-2.7571-5.5155-2.2058-2.7537.5513-4.9592,2.2058-6.6087,6.0623s-4.4076,6.0575-7.7128,6.6132a7.1984,7.1984,0,0,1-6.6136-3.86Q105.5129,178.2043,109.6486,176.552Zm-8.08,5.1423,2.5688-1.2858-1.4332,2.8627,3.0877.4415-3.088.4415,1.4335,2.8675-2.57-1.2863-.7346,2.9365-.3759-3.0036-7.8923,6.3129,6.313-7.8927-3.0043-.3758,2.9369-.7349-1.2864-2.5693,2.8672,1.4332.4418-3.0884ZM80.9972,210.71a3.0955,3.0955,0,0,1,3.3086-.5513l-1.1028,1.654c-1.1031.5513-1.1031,1.1031-.5564,1.6544a4.3375,4.3375,0,0,0,4.4125-.5513c.5466,1.6549-.5514,3.3048-4.4125,3.8561-2.7536.5518-4.403-.5513-4.403-2.7576C78.2436,212.3644,79.3466,211.2617,80.9972,210.71ZM61.716,203.55c-1.6592-1.1034-1.6592-2.7536.547-5.5109a4.6629,4.6629,0,0,1,3.3093-1.1034h0c-1.6549,1.6551-2.7581,2.758-2.2062,3.3049l3.8559-.5469,1.65,1.1027-1.0985,1.65C66.1194,205.2,63.9175,205.2,61.716,203.55Zm98.6227,2.7528q.8273,0-1.6541,3.3091c-1.6509,1.65-2.2059,3.3046-1.6509,4.4031.5479,1.1034,2.2022,1.1034,4.4042-.5472,2.7573-1.6544,3.855-2.7571,4.4114-2.2058.5467.5514,0,2.2058-1.6541,3.8564-2.2019,1.6542-2.7573,3.3086-2.2019,4.4121.5473,1.65,2.2019,1.65,4.4027.5471,2.2069-1.1034,3.31-1.6506,3.31-1.1034,1.6495,1.6548-.5513,3.8563-5.5105,6.6143-.5514,6.0619,1.0977,12.6711,6.0568,19.8363l-15.4236.5513c-6.0623-.5513-9.3674-.5513-11.0214,0-.5469,0-.5469,1.1027-1.1031,3.8563,0,2.7525-.5475,3.8557-1.6506,3.8557-.5514,0-1.1027-1.6546-1.1027-4.4071-.5467-2.758-1.1028-4.4079-2.2059-4.4079-.5478-.5516-1.65.5516-2.202,3.3042-.5513,2.7578-1.6543,3.8562-2.7521,3.8562v-4.9547c.5514-3.86,0-6.0619-1.6557-7.7164a15.1754,15.1754,0,0,1-6.0623-14.326,14.7484,14.7484,0,0,1,7.1663-11.5686c-7.1663.5472-11.5689,4.4079-14.3261,12.1207l-1.0991,1.1027v-1.1027c2.2018-9.3673,7.7128-14.8778,15.9769-16.5324a29.9477,29.9477,0,0,1,9.9133,0l8.8157,1.1033c1.1028,0,2.7568-1.1033,4.9591-2.7538C158.1368,206.3025,159.7874,205.7556,160.3387,206.3025Z"/><path class="cls-6" d="M427.0122,229.9951a18.4807,18.4807,0,0,1,3.3049-8.8148c4.9592-9.3672,11.568-13.775,20.3883-12.1245h0c4.408.5558,7.7117,2.7573,10.4653,6.6136,1.654-1.0983,2.2055-2.2019,1.1027-3.8563-2.7536-3.8563-7.16-6.0575-12.6718-6.6136l-3.8555.5561L442.988,205.2c0-1.0985,1.6555-1.65,4.4076-2.2012,6.6137-1.6553,12.1242.5514,16.5321,6.0575,1.099-2.7533.5516-5.5061-1.6543-8.8155-4.4076-4.9592-9.9186-6.0579-16.5272-4.4034a28.9509,28.9509,0,0,0-15.4291,9.9187C424.2553,214.0147,423.1561,221.7316,427.0122,229.9951Z"/><path class="cls-2" d="M207.1726,188.1206l-.5564,3.8607c0,2.2011,0,2.7529.5564,2.2011,7.2653-1.9563,13.6778-2.2032,19.3154-.6848,1.023-1.6753,2.1038-3.3015,3.1856-4.9272C223.5163,185.4405,216.0929,185.2824,207.1726,188.1206Z"/><path class="cls-2" d="M207.7192,179.8567l-.5466,2.2058a4.186,4.186,0,0,0,1.1026,2.753c3.8564-3.3086,9.3624-4.407,15.4246-3.8557a20.7277,20.7277,0,0,1,8.6062,3.714q2.99-4.2231,6.1852-8.0973c-1.0262-.5884-2.0931-1.1524-3.2222-1.679C225.35,170.49,215.9882,172.1443,207.7192,179.8567Z"/><path class="cls-6" d="M460.0715,221.7317c-3.86,1.6542-7.165,1.0985-9.9175-1.103,4.4065,6.0622,7.7117,9.3664,10.4649,8.8151,6.0624-2.2016,9.3673-5.511,11.0214-10.47h0c1.6546-4.9592.5515-9.3623-2.7533-12.6714h-.5513C468.887,214.5711,466.13,219.53,460.0715,221.7317Z"/><path class="cls-2" d="M372.4659,234.4029c9.3668,12.12,14.8737,19.2849,17.631,21.491q-12.3963-23.9706-23.142-34.7136a59.7812,59.7812,0,0,0-14.3483-9.4366c-.0962,3.2167-1.6684,6.5533-4.6614,9.9814Q361.8145,221.1031,372.4659,234.4029Z"/><path class="cls-3" d="M415.4392,247.6256c6.0624-4.9592,8.816-10.4645,7.7168-16.5269h0c-1.1031-3.8565-2.7571-7.1659-4.408-8.8157-5.5105-3.3091-9.9184-4.4076-12.6755-3.3091,4.4076,2.2064,6.6135,5.51,6.0622,9.9181,0,2.7581-1.6547,6.0622-5.5109,8.8159-4.9592,3.8557-12.1192,3.8557-22.5891-.547l5.5109,9.9175C401.1131,250.9348,409.9286,251.4819,415.4392,247.6256Z"/><path class="cls-3" d="M398.361,222.283c-1.104,4.4079-1.104,7.1608.5515,8.8157,2.2007-3.8565,4.9592-6.0626,7.7113-6.0626C402.7672,220.0773,400.0155,219.53,398.361,222.283Z"/><path class="cls-3" d="M206.6162,200.24a41.09,41.09,0,0,0-3.8419,2.18h0a29.6626,29.6626,0,0,0-8.2737,7.7385c-1.0925,1.4531-1.45,2.66-1.1026,3.6335a2.6821,2.6821,0,0,0,1.1026,1.3256c4.4042-3.8564,9.9147-6.6092,15.977-8.8156a49.5385,49.5385,0,0,1,9.8929-1.7464c.9144-1.8039,1.8361-3.6014,2.81-5.3574C218.4279,197.0611,212.7705,197.6806,206.6162,200.24Z"/><path class="cls-3" d="M323.6038,237.7872a44.961,44.961,0,0,0-5.6885,7.0856,17.4915,17.4915,0,0,1-2.1357-4.3694,120.1267,120.1267,0,0,1-15.0158,3.4442l3.9282,5.3331c2.207,4.9584,1.6557,11.5728-1.6494,18.7331l-3.8564,5.5108c-1.6541,1.65-1.6541,3.3044-.5513,4.4027l3.3048,1.6554c12.1188-17.63,19.2839-27.5491,20.9346-29.2034l-2.2017,1.1025-.5515-1.1026,7.7128-6.0581c11.5728-10.47,27.5483-9.9182,49.04.5517l-9.9186-11.5683c-7.1652-7.165-14.325-9.3717-21.491-7.7164l0,0c-.7862.205-1.5133.461-2.27.6915-.1656.1373-.3125.2737-.4826.4112A73.9,73.9,0,0,1,323.6038,237.7872Z"/><path class="cls-6" d="M301.94,279.5827h0c3.3036.5513,7.7114-.5518,12.6705-4.4083q8.2662-5.7839,13.2236-4.9589l-4.408-1.65-3.3048-2.758c8.2642-1.654,17.08,2.2064,25.3429,10.47l9.9182,10.47a36.6578,36.6578,0,0,0,11.0214,8.8156c5.5107,3.8556,12.12,6.0576,19.2854,7.1607a60.1464,60.1464,0,0,0,20.3834-1.65c12.1241-4.9592,19.8368-9.9182,22.5905-15.9806-3.8564-1.65-8.264-1.1028-14.3263,2.753h0c-6.0584,4.4121-12.1207,6.6137-17.08,6.0622-11.0165-1.1031-22.5892-6.6092-34.7087-17.0793-13.2233-11.0214-23.6933-17.0793-31.9575-18.7334.5517-1.6545,1.0992-2.2015,2.7537-1.6545l3.8562.5518c4.9592,1.654,12.6757,7.1607,24.2437,16.5318,9.3669,7.712,18.7342,11.017,26.9983,10.4656,9.3656-.5473,15.4289-2.2022,18.7324-5.5064a130.1678,130.1678,0,0,1-13.2218-13.7748l-24.7961-8.268c-10.4649-3.3048-18.7342-5.5063-25.8942-6.0619a25.22,25.22,0,0,0-11.0213,1.1027c-2.7536,1.1027-3.8565,1.1027-3.8565.5513,8.2642-4.9548,18.7339-5.5105,31.4046-1.0984l15.4293,5.5063a86.4775,86.4775,0,0,0,15.4292,4.4125l-12.6755-9.9188c-9.3672-5.51-18.183-8.8148-27.55-9.9182h-8.8144a83.4587,83.4587,0,0,0-18.734,9.3626l0,0C321.2236,252.0336,314.0585,261.9524,301.94,279.5827Z"/><path class="cls-3" d="M203.864,211.2617c-6.0624,3.8564-9.3634,7.7122-9.9186,10.47l12.6708-4.4076a25.4855,25.4855,0,0,1,8.42-1.303q1.9672-4.6984,4.1779-9.2069C214.55,206.403,209.33,207.9831,203.864,211.2617Z"/><path class="cls-2" d="M437.4774,279.031a29.15,29.15,0,0,0,17.636-9.3627c2.2008-2.2059,2.7524-6.6135,1.6491-13.7744-2.7532-10.47-6.6084-17.0833-12.67-18.733l0,0c1.654,1.6495,3.3035,3.3038,3.8549,4.9589,1.103,1.65,1.6545,4.4027,1.103,8.2592a14.0464,14.0464,0,0,1-2.7525,8.819q-9.0929,9.0872-23.1415,9.9144c-8.2681.5557-16.5323-1.0986-24.795-4.4035a41.7828,41.7828,0,0,0,12.119,9.3627C419.8469,278.4839,429.2143,280.1341,437.4774,279.031Z"/><path class="cls-6" d="M433.0707,262.5033c.5513-2.7536-.5479-6.6094-2.2023-11.5685l-3.8563-10.47.5517,22.59C428.1112,265.2563,429.7658,265.2563,433.0707,262.5033Z"/><path class="cls-5" d="M67.7739,202.4463l1.0985-1.65-1.65-1.1027-3.8559.5469c-.5519-.5469.5513-1.65,2.2062-3.3049h0a4.6629,4.6629,0,0,0-3.3093,1.1034c-2.2062,2.7573-2.2062,4.4075-.547,5.5109C63.9175,205.2,66.1194,205.2,67.7739,202.4463Z"/><path class="cls-3" d="M421.5016,255.8939c2.7536-2.7576,3.305-6.0618,1.1027-9.9181-8.2677,7.7121-18.1809,9.3625-30.3055,5.5061,2.7571,6.0623,6.0622,9.3717,10.4684,9.9186C409.3824,261.952,415.4393,260.2971,421.5016,255.8939Z"/><path class="cls-6" d="M199.46,236.6041c0,1.8764,1.6124,5.7673,5.1358,11.9645q1.9323-8.1918,4.4-16.0154a24.0333,24.0333,0,0,1-3.4768.7513C201.6621,233.8516,199.46,234.9544,199.46,236.6041Z"/><path class="cls-6" d="M194.5006,226.6909q.822,7.4388,9.9148,4.9592a34.109,34.109,0,0,1,5.2811-1.2213c1.0423-3.1757,2.1656-6.2918,3.3482-9.3637l-6.9749-.4364C198.9048,221.18,195.0485,223.386,194.5006,226.6909Z"/><path class="cls-5" d="M82.6466,216.7723c3.8611-.5513,4.9591-2.2012,4.4125-3.8561a4.3375,4.3375,0,0,1-4.4125.5513c-.5467-.5513-.5467-1.1031.5564-1.6544l1.1028-1.654a3.0955,3.0955,0,0,0-3.3086.5513c-1.6506.5513-2.7536,1.654-2.7536,3.3043C78.2436,216.221,79.893,217.3241,82.6466,216.7723Z"/><path class="cls-6" d="M412.1346,264.1536c6.6134,2.2061,9.9183.5555,9.9183-5.5067-3.8563,3.3051-7.7163,4.9592-10.47,4.9592C411.0315,263.6061,411.0315,263.6061,412.1346,264.1536Z"/><path class="cls-6" d="M409.9287,280.1341c-9.3669,6.0618-19.2805,8.2684-29.75,6.0618,3.8561,2.7529,8.8155,3.8563,15.9755,4.4076,8.2693.552,13.7747-1.6547,17.0834-6.0618C413.7888,281.7881,412.6861,280.1341,409.9287,280.1341Z"/><path class="cls-7" d="M70.5308,255.8939a21.2925,21.2925,0,0,0,11.0178-4.412l1.0981-1.1027c-5.506,1.654-13.7743.5556-24.24-2.7536l-1.65-.5472v1.0986l2.2012,3.3049A12.46,12.46,0,0,0,70.5308,255.8939Z"/><path class="cls-2" d="M323.4258,348.455a14.4877,14.4877,0,0,1,8.2642,3.8607l7.7166,8.8148c6.6087,9.3619,12.12,15.4249,17.0786,18.7333a158.5808,158.5808,0,0,0,24.7962,4.4035l3.3049.555c17.63,2.2022,32.5074,0,45.1794-6.6129,1.6544-.5513,2.2058-2.2063,2.7571-4.4078.5478-4.959-2.7571-12.124-8.8193-20.3876a109.6423,109.6423,0,0,0-24.24-23.6882,9.9024,9.9024,0,0,0-6.0619-1.6549h-4.9592c-21.4877.5515-38.02-.5518-49.5877-2.2058-3.8561,0-7.7125,2.2058-12.672,6.6137-4.4077,3.8562-8.2677,6.0618-12.1242,6.0618h-.5514Q312.6883,346.8,323.4258,348.455Z"/><path class="cls-2" d="M73.2844,423.3887h.5471c15.98-14.8778,28.652-26.9973,36.92-37.4672l5.5068-7.1607c7.7118-12.6711,15.4282-18.7331,22.59-18.1861h1.1028l-.5467-1.0988c-4.4125-7.16-6.6132-13.7745-6.6132-20.3882v-1.1028c.5513-1.0984.5513-1.65,0-2.2015h-1.1042l-11.5729-.5521q-18.1793-1.6542-24.7913,3.3093c-7.7165,6.0578-20.9351,11.017-39.1212,14.8734-17.0793,3.3044-29.1989,7.1607-36.9111,12.12v.5558c-9.9186,6.0578-14.3307,12.12-12.672,18.1776v0c4.4034,21.4912,14.8736,37.4669,30.8491,48.4885,8.2684,1.6505,19.837-1.1028,34.7148-8.8144Zm-30.4621,5.73c-.8095.7408-2.11.4255-3.7006-.7709v-.5515c3.8608-4.4077,2.7581-12.1244-3.8562-23.1409a160.3735,160.3735,0,0,0-19.2849-25.3474c1.1031-1.65,2.7529-1.65,4.4121,0,1.2189,1.1181,2.4621,2.4113,3.7154,3.7882q7.1077,5.7118,15.5653,21.5592a58.9209,58.9209,0,0,1,3.0032,6.2957,21.52,21.52,0,0,1,2.5081,9.69C45.6656,424.9833,44.8769,428.0578,42.8223,429.1189Z"/><path class="cls-5" d="M42.6766,410.9513a58.9209,58.9209,0,0,0-3.0032-6.2957q-8.46-15.8666-15.5653-21.5592c-1.2533-1.3769-2.4965-2.67-3.7154-3.7882-1.6592-1.65-3.309-1.65-4.4121,0a160.3735,160.3735,0,0,1,19.2849,25.3474c6.6143,11.0165,7.717,18.7332,3.8562,23.1409v.5515c1.5909,1.1964,2.8911,1.5117,3.7006.7709,2.0546-1.0611,2.8433-4.1356,2.3624-8.4776A21.52,21.52,0,0,0,42.6766,410.9513ZM41.88,429.447v0Z"/><path class="cls-2" d="M273.9,307.4579c.1633.2583.3276.5065.49.7766l.4413-.6622-.4413-.4408Z"/><polygon class="cls-2" points="275.493 306.58 275.493 306.579 275.493 306.579 275.493 306.58"/><path class="cls-2" d="M190.6406,230.5465l-.5512-.5512,0,0-3.8564,2.7531c-1.6494,1.6546-3.3051,2.7574-4.9595,2.7574-1.6491,0-2.2056,2.2023-1.6491,6.6143v3.8558c-1.1027,13.7739-4.9592,25.3427-12.1241,34.71-7.1615,9.3668-15.9806,15.9762-26.9983,18.7335l-.5514.5514v.552c.5514,1.6545,0,7.1608-.5467,15.976-2.207,22.0423-.5561,36.3644,4.96,42.4263v.5513l.5463-.5513a106.88,106.88,0,0,0,15.9806-4.4077l5.5058-2.2012h.5564v.547c-4.4119,4.9584-12.1241,8.2678-23.1456,10.469-9.3622,1.6551-15.9757,4.9595-18.7342,9.9186-3.8552,6.6135-12.6708,17.0793-25.3427,31.4053-12.6708,12.6709-21.4863,23.1408-26.4455,30.8532-7.712,12.671-12.1242,25.8992-12.6712,39.673,0,2.7531,3.8558,5.5067,12.12,9.3633,22.5891,9.3707,39.6689,9.3707,50.1388,1.1026,11.5727-9.9183,19.832-24.791,24.2437-45.1793,2.7532-14.3212,8.8155-25.3428,18.1774-33.6109q9.9277-9.0875,33.0642-18.1787a65.96,65.96,0,0,0,9.362-5.51l2.7585-1.6557v.5529c0,1.6531-1.6545,3.3037-4.9592,6.0573l-.5518.555H206.07c12.1192,1.6507,25.343,0,39.1175-4.9592,4.9591-2.206,7.7165-4.4114,8.2678-6.0616,0-.5513,0-1.1026-.5513-1.1026a4.6577,4.6577,0,0,0-3.3087-1.1036h-1.65a9.0544,9.0544,0,0,1,5.51-.5469c14.8726.5469,25.8941,7.1616,34.1582,19.2808L301.94,417.879c7.7114,14.3252,13.7736,24.795,18.7328,30.8573q12.3961,15.6973,26.4465,23.1367c14.8766,7.165,24.7952,9.3706,29.2031,6.0619,5.51-4.4077,10.4645-15.98,14.326-34.1578,2.7537-18.1864,1.0978-30.8574-3.8614-38.57-1.649-2.7532-5.5054-4.959-10.4646-7.1649-15.9808-7.1609-30.8582-20.384-45.7313-40.7679h0c-2.2055-2.7573-7.1649-4.4114-14.326-4.9584l-6.0622-1.1038q-7.4388-3.3084-4.9592-9.9177c8.2641-23.6932,7.1662-41.8753-2.7522-53.4481-8.8039-9.8361-23.4539-13.8308-43.939-11.0736l-8.4058,3.3616c-6.61,2.7528-11.0214,4.9592-13.2233,7.712-3.8563,4.4121-7.7127,12.6762-11.5726,24.2439-2.7538,8.2641-6.61,13.2238-11.0165,13.7751q-9.9222,2.481-13.2235-21.4872c-1.9011-13.77-1.33-29.5973,1.6827-46.7584l-1.1311-2.8282A150.4337,150.4337,0,0,0,190.6406,230.5465Zm-84.8485,240.78c-.5514,3.3037-3.3086,6.057-7.7118,8.8143a22.3713,22.3713,0,0,1-6.6147,2.2019l-4.4066-4.9592c-2.7532-3.8564-4.4124-7.161-3.8561-9.9132.5463-3.8615,2.2008-5.5159,4.9592-6.0622l0,0,3.8563,1.1031c1.6494.5464,2.7523,1.0978,3.3037,2.2,1.6555-1.1026,3.3049-1.654,4.9592-1.1026C104.689,464.16,106.34,466.9138,105.7921,471.3266ZM340.47,441.9133l-1.0636,4.617-.7766-5.0448-4.7343,2.8393,2.3945-5.2685-5.1477-.79,5.1468-.7926-2.3936-5.2692,4.8779,2.9249,1.1844-5.1258.7541,4.912,4.7518-2.16-2.8032,4.6751,5.01.8354-4.8861.812,10.3966,13.5144Zm32.5434,22.7983c-1.0993,1.6557-2.7536,2.2022-4.4081,1.1043a2.8439,2.8439,0,0,1-1.6506,3.8549,3.6886,3.6886,0,0,1-4.4067-1.654c-1.6551-2.7524-2.2068-6.0623-.5525-11.0215,4.9592,0,8.8156,1.1027,10.47,3.31A4.3145,4.3145,0,0,1,373.0136,464.7116Zm-11.5692-41.8731c1.1039-2.7536,2.207-4.4093,3.8564-5.512a3.36,3.36,0,0,1,4.4077,0h0c1.654,1.6555,1.654,2.7584,0,4.4076,2.2056-.5465,3.3049,0,3.8562,2.2072a3.6934,3.6934,0,0,1-1.6506,4.4067c-2.7571,1.6555-6.0622,1.0989-11.0212-1.1033Zm-36.9155-34.16a2.8431,2.8431,0,0,1,3.8563,1.6508h0c.5515-2.2058,1.6541-3.305,3.3047-2.7537a4.8259,4.8259,0,0,1,3.3089,3.8565c.5515,2.7533-1.1031,6.0619-4.408,9.9183l-3.856-2.7533a11.2781,11.2781,0,0,1-3.86-5.5144A3.6914,3.6914,0,0,1,324.5289,388.6788Zm-13.7751,18.7341q.8293-4.9631,4.96-6.6137c3.8562-1.6542,7.1611-.5513,9.9182,2.2024a9.7128,9.7128,0,0,1,3.3051,7.1649c.5514-4.96,3.8564-7.1649,9.3669-6.0623a8.8033,8.8033,0,0,1,4.9594,3.8565,9.5721,9.5721,0,0,1,1.6541,7.7114,4.9752,4.9752,0,0,1-3.3086,3.31,5.3561,5.3561,0,0,1-4.9592-.5528c-1.099-1.6541-1.6506-2.7572-1.099-4.4067l2.2019-1.65a3.24,3.24,0,0,0,1.1027,2.7536c1.6544.5465,2.2023,0,2.7536-1.6555.5514-1.6531-.5513-3.3037-2.7536-4.9592-2.2056-1.6534-4.4078-1.6534-6.062,1.1028-1.103,1.6555-1.103,4.4088,0,7.1614a10.8338,10.8338,0,0,0,4.9592,7.166c6.6137,3.8553,12.6708,3.3036,17.63-1.6555,1.6545-2.2007,2.7584-4.4067,2.2069-6.0573a3.6735,3.6735,0,0,0-3.8564-2.7582c-1.654.5524-2.7583,1.6555-2.2055,3.3049.5515,1.6541,1.6542,1.6541,3.3037.5515.5514,1.6555,0,2.7583-1.0982,3.3049q-.8269.8342-3.31,0a5.6308,5.6308,0,0,1-2.7522-3.3049c-.5516-1.6545,0-3.304,1.1028-4.9545,1.6494-1.6543,3.3051-2.7583,5.51-2.2056,2.7524.5513,4.9544,1.6506,5.5057,4.4064q1.6549,4.9592-4.9589,11.5744c-2.7522,4.4026-2.7522,9.3616-1.0982,14.3212,1.6495,4.9591,4.4078,8.2678,9.3672,9.9182,5.5056,1.6546,8.8144,0,9.9137-3.8563.5513-2.7532,0-5.5105-1.651-7.1649-1.6541-1.6506-3.8563-2.7533-6.0619-2.202-2.2008.5514-2.7525,2.202-1.6495,4.4077a3.8723,3.8723,0,0,0,2.7524,2.206c-1.1029,1.099-2.7524.5476-4.9592-1.1031-2.206-2.2055-2.206-4.4078-.5514-7.1652,1.6552-2.2018,3.3046-3.3046,6.0619-2.7531a9.6212,9.6212,0,0,1,7.7128,3.8564,10.5348,10.5348,0,0,1,2.2058,8.264,13.4011,13.4011,0,0,1-4.9592,7.7165q-9.0933,5.7844-18.1816-3.3086c-6.0619-6.61-6.6136-13.7751-2.7584-20.936-3.8552,2.2019-8.263,2.2019-13.2221.5524-6.0622-2.7532-9.367-7.1662-8.8155-13.2283-.5515-3.855-1.6546-6.6086-3.8565-8.8145-2.7521-2.7533-4.9591-3.3062-7.7113-2.202q-4.9652,2.4819-3.31,6.6137c1.1032,2.7534,2.7583,3.3037,5.5109,1.6505,1.1029-.5477,1.1029-1.6505-.5517-2.7533l-1.1026-1.103,1.6543-.5525c2.2056-.55,3.3049.5525,3.8562,2.2068a4.38,4.38,0,0,1-1.0977,4.9543c-2.7585,3.31-6.0634,2.7571-9.3668-1.0993A8.1385,8.1385,0,0,1,310.7538,407.4129ZM251.25,320.9059l-.5516,2.2056.5516-2.7574h-2.2058l1.654-.547V317.601l1.1031,2.2061,1.6543-.5556-1.6542,1.1026,1.6542,2.2061Zm7.16,12.12v1.1027l-.5468-.5471-.5513,1.0984v-1.654H256.76l.5514-.547v-.5518l.5513.5518h1.0981Zm4.4078,1.1027v1.1028l-.5464-.5515h-.5517l.5517-.5513-.5517-.5471h.5517l.5464-.5556Zm3.8613,4.4121-.5518-.5557-1.1026.5557.5513-1.1026-1.1042-.5515h1.1042v-1.1031l.5515,1.1031H267.23l-1.1033.5515ZM274.39,345.15l-1.1027-1.65-1.6494-.5561h1.6494v-1.65l.5514,1.65h1.6542l-1.6543.5561Zm2.7535,1.65-.5515.5565V346.8h-.5462l.5462-.5469v-.5513l.5515.5513h.5517Zm0-4.954v-.5514l.5517,1.1027Zm1.1031,2.2015-.5513,1.1029v-1.1029l1.1026-.5469Zm3.3048,5.51-1.1,1.1027.552-1.1027L279.9,348.455l1.651.5513h2.2055Zm-1.6508-2.758.5514-.5469v-.5513l.5519.5513v1.1034l-.5519-.5565Zm4.96-15.4239,1.0992.5513.5513,1.0988-.5513-.547H284.86l.5514-.5518Zm1.6505,8.8151-1.0992.5513-.5513,1.1035v-1.1035h-.5518l.5518-.5513v-.5518l.5513.5518Zm-.5513,4.4076-1.0992,1.103.5513,1.6547-1.1031-1.1034-1.1026,1.1034v-1.6548l-1.103-.5513h1.6543V343.5l.5513,1.65ZM284.86,350.109v.5513H283.757l.5514-.5514-.5514-.5513h.5514l.5517-.5513v1.1026h.5514Zm1.6505-3.3094.5513-.5469V346.8h.5514l-.5514.5565v.5471l-.5513-.5471h-.5514Zm.5514,7.7173v.5513l-.5514-.5513-.5513.5513v-1.1027h.5514v-.5515l1.1026,1.1029Zm.5513-1.6542-.5514-.547-.5513.547.5513-1.1039-1.1026-.5469h2.2054l-1.1028.5469Zm3.305,3.8557-1.099,1.1027.5477-1.1027-.5477-.5471h1.099Zm1.6542,2.2062-.5514,1.1031v-1.1031l-.5515-.5514h.5515v-.5521l.5514.5521h1.1031Zm4.9594-41.3237-.5517.5521v-.5521l-.5513-.5513h2.2059Zm0-3.8557-.5517.5515v-.5515h-1.1026l1.1026-.5518v-.5513l.5517.5513h.5516Zm-.5517-5.5107.5517-1.103v2.206l-.5517-.5517h-.5513Zm-1.1027,2.2015.5514-1.0986V312.09l-.5514-1.0984-.256.254a13.5851,13.5851,0,0,1-.5162,2.6637l.7722.3874h-.8785c-.0646.2021-.1467.409-.2207.6137v1.04l-.1843-.5531a21.762,21.762,0,0,1-.9184,2.0435v1.2632l1.6506.5471-1.6506.5556v2.2015l-1.6545-1.6545-.1519.1013c-.4462.6643-.92,1.3369-1.444,2.0247l.4931,1.73,3.3087-1.0988-2.7573,1.6548,2.2059,3.3046-2.7573-2.7571-1.099,3.8555.5477-3.8555-1.9481-.3227c-.2759.344-.5475.683-.8056,1.0057v.971l-.4308-.4307c-.2717.341-.5291.666-.7785.982h.1066l-.1771.0889c-.2144.2718-.4107.5254-.608.7791l.2338.2353h3.3084l-1.6544.5469-.5514,1.655v-1.655l-1.1026-.5469-.2995-.15c-.8879,1.1441-1.61,2.117-2.1234,2.9036h.7719l-1.1027,1.1031.5514,1.65-1.1028-1.1026h0a15.4782,15.4782,0,0,0-1.5389,4.6534l1.5389.3056.5515-2.7536v2.7536h2.2058l-2.2058.5557.5513,2.7536-1.1028-2.7536-1.5316,2.0428a7.535,7.535,0,0,0,.5974,1.8971l.9342.4636h-.7314a7.461,7.461,0,0,0,.7314,1.103l-1.1028-.636v.636l-.5476-.5469-.5519.5469v-1.103l-.4024-.3994-7.1778-4.14-.1361.1361,1.103,1.65-1.6545-1.1031-1.6505,1.6544.5529-2.2015-1.6555-1.1026h1.7652l-2.8685-1.6546c-.3046-.2495-.5934-.5072-.8923-.7595l-.7568.7595.4173-1.0484a55.7126,55.7126,0,0,1-5.928-5.825v1.3627h1.103l-.5516.5516v1.1027l-.5514-.5513-1.1029.5513.5516-1.1027-1.1044-.5516h1.1044l.482-1.4429q-1.0446-1.21-1.99-2.4874l-.1482.074v1.1027l-.5514-.5513-1.0981.5513.5514-1.654-1.1027-.5513h1.1027l.3028-.3033c-.3076-.4565-.6087-.9177-.8959-1.3887l-.51-.51-1.1026-.5513h.9992a33.5911,33.5911,0,0,1-2.1023-4.4071,21.2123,21.2123,0,0,1-1.964-6.4054l-1.3408.8944,1.1028,1.6545-1.1028-.5515-1.1031,1.1029v-1.6546l-1.1027-.5513,1.1027-.5521v-1.654l1.1031,1.654,1.3283-.4428a10.5841,10.5841,0,0,1,1.012-6.17h-.1347l.31-.31c.0787-.14.1517-.2826.2375-.42v-.3691l.146.146a13.2926,13.2926,0,0,1,3.4561-3.45h-.2936l1.0981-.5514h0a9.6537,9.6537,0,0,1,2.74-1.1312l-1.0843-1.6268-1.6555,1.6546,1.1027-2.2015-1.6495-1.1029,1.6495.5471.5528-2.2018v2.2018h1.6542l-1.1026.5558.5436,2.1709a8.5167,8.5167,0,0,1,7.1675,1.7084V299.97l-.5513-.5514h1.1028v-1.1028l.5518.5513h1.1026l-1.1026.5515.5513,1.6549-1.1031-.5515-.3565.71a17.1005,17.1005,0,0,1,2.2282,2.0429h.3356l-.2326.1161a27.6023,27.6023,0,0,1,2.6143,3.381l.37-.7394-1.103-1.1037H274.39l1.103-1.654v2.2015l.6291.1588,1.5731-2.36c.1114-.1433.2231-.2466.3346-.3826l-1.4378-.716,1.696.4207c.3341-.3906.6685-.78,1.0035-1.1058l.6091-1.5213v.9955a7.7193,7.7193,0,0,1,4.53-2.0372l-.1223-.0612h1.651l.5513-1.1031v1.1031l1.6541.5515-.3181.106a12.5846,12.5846,0,0,1,1.9727.9974v0a18.6648,18.6648,0,0,1,2.5815,2.2014h.1717l.5518-.5471v.5471h.5513l-.5513.5514v.27a10.301,10.301,0,0,1,2.5116,7.3734Zm-2.7533-14.8728.5514,1.6542,1.6506,0-1.0993,1.0987.5514,2.2063-1.654-1.1034-1.6546,1.6548.5515-2.2063-1.1029-1.1031h1.6542Zm-39.6691,5.51V299.97l.5477,1.1034h.5515l-.5515.5471v1.1031l-.5476-1.1031-.5514.5559v-.5559l-.5513-1.0985Zm-3.86,2.7529v-2.7529l1.1026,2.7529,2.7574-1.1027-2.7574,1.654,2.2061,2.7536-2.2061-2.2023-1.1026,2.7539v-2.7539l-2.7532-.5513Zm-44.6284,25.8992c3.8566-1.6549,8.2683-.5565,12.1246,3.3,3.3,3.3092,6.6087,4.9591,10.465,4.4122,2.7532-.5514,4.4078-2.7581,4.9592-5.511,1.1027-3.3046-.5513-5.5105-4.4079-7.1607-3.8552-.556-5.5109,1.0988-6.0571,3.8561a2.542,2.542,0,0,0,1.6495,2.7533h2.7531c1.6545-.5514,1.6545-1.65.5564-2.7533h1.6494a2.4168,2.4168,0,0,1,.5516,2.7533c-.5516,2.7528-1.6543,3.8556-4.4068,3.3041-1.6552,0-3.31-.5513-3.8561-2.201l-.5563-4.4079c.5563-4.4073,3.3087-6.0623,7.7163-5.5107,3.8565.5513,6.6136,2.7536,7.1614,5.5107q.8341,4.13-3.3049,8.2642c5.5105.5515,7.7163,3.304,7.1609,8.2634-.5473,1.6542-1.099,3.3047-2.7533,4.4078-1.65.5514-3.3049,1.1027-4.9589.5514-2.7539-1.1027-4.4033-2.7581-3.8566-5.5106.5514-3.3049,2.2056-4.408,4.9592-3.8563,2.2058.5514,2.7536,2.2061,1.1027,3.8563-1.1027-1.65-2.2055-1.65-2.7522-.5469-1.6554,1.65-.5565,2.7525,2.2008,3.2994,2.2023.5566,3.3049-1.0982,3.8563-3.8555.5516-3.305-1.6541-4.9592-6.0572-5.5061-3.31,1.65-6.6135,2.7528-9.372,2.2011a23.3242,23.3242,0,0,1-7.16-3.8557,23.33,23.33,0,0,0-7.1613-3.8564c-3.8564,0-6.0622,1.6545-6.0622,4.96a3.4844,3.4844,0,0,0,2.2058,4.4077,2.304,2.304,0,0,0,3.3-1.6552,1.0283,1.0283,0,0,0,0-1.6542c-1.0978-.5469-1.6495,0-1.6495,1.1028-1.65-.547-2.2053-1.65-1.1027-3.3043,1.1027-1.1035,2.7522-1.1035,4.4114-.5521,1.0992.5521,1.651,2.2067,1.651,3.8564-.5518,2.7579-2.7537,3.8564-5.511,4.4125-4.4079,0-6.0582-2.206-5.5106-6.6137C199.46,333.5814,201.6621,331.3757,204.9667,329.7258Z"/><path class="cls-2" d="M281.0837,338.03a9.34,9.34,0,0,0,.0259,2.5l.9931-1.9893Z"/><path class="cls-2" d="M290.1679,322.8086c-.46.5744-.9075,1.1327-1.33,1.6588l1.5287-.2571Z"/><path class="cls-4" d="M259.5122,211.2617c-4.9579,1.6545-6.6084,3.8564-4.9579,5.5106a8.6855,8.6855,0,0,0,7.165-1.1029l4.4077-3.305C265.0242,210.71,262.8173,210.71,259.5122,211.2617Z"/><path class="cls-4" d="M267.23,269.1126c13.2216-5.5065,22.0376-13.7743,26.4454-24.24l-11.5728,2.2055c53.4476-14.33,73.2795-29.2031,60.0572-44.6322-17.08,5.51-28.1012,8.8154-33.607,9.9181,31.4051-11.0214,54.547-22.0381,69.42-33.6111,13.7732-10.4652,17.0831-18.7335,9.9181-24.24-17.6309,9.3625-33.06,15.9763-46.8337,18.7342,34.7133-13.7751,56.7511-26.4507,65.5666-38.019,6.6136-8.82,6.0623-15.4291-1.6491-20.3884-10.47,9.3669-23.6933,17.0834-40.2253,23.1412,26.9966-13.2227,43.5288-27.5481,49.5872-43.5247,2.2058-6.0619,2.7571-11.0214,1.1027-15.9807-1.6505-3.8562-3.8565-6.6092-7.7124-8.2633-2.7522-1.1035-6.6137.5515-11.0215,4.4071l-17.63,17.0793c-23.142,21.491-52.8925,39.6687-89.8078,55.0978-21.4913,8.8149-39.6727,23.6928-54.5465,45.1842-12.1246,17.63-20.9386,38.0139-25.898,61.7066-4.9592,19.2855-6.0619,36.3643-4.4079,51.2414,1.6545,14.3222,5.511,19.837,11.5729,17.0793,2.7525-1.6543,4.403-7.1606,4.9594-17.0793q2.4735-27.2726,3.3047-34.7138c5.51-37.4672,22.5894-69.4194,51.2405-95.318-38.57,38.0187-55.6483,80.4408-50.6891,127.2793a44.5347,44.5347,0,0,1,14.3212-20.3887c2.7573-2.2054,6.6137-4.407,12.6759-6.6137Zm34.1583-52.34c2.7522-3.8561,3.3036-6.6132,2.2055-8.2634-1.6541-2.2064-4.9591-2.7533-9.9183-2.2064a63.2062,63.2062,0,0,0,17.0782-8.815,90.0028,90.0028,0,0,0,14.8778-13.2235c3.8565-4.9586,4.9591-8.2634,3.3051-11.0162q-2.4819-4.1369-16.5272-1.6552c11.568-7.7165,15.9757-13.2226,13.2221-15.9806-1.6541-2.2012-6.062-2.753-12.1242-1.6542,7.1652-2.7528,12.1242-2.2015,14.8778,1.1028,2.7573,2.758.5515,7.1657-7.1613,13.2275,11.5692-.5559,14.8778,3.3045,10.4661,12.12q-6.6118,12.3951-28.0961,24.791c3.8564.5561,4.4077,3.8563,2.2022,9.3716q-3.3033,9.0864-19.8368,18.1772c3.3084,3.3087-.5479,9.3717-12.1207,17.6309-11.5677,8.2677-23.1409,13.7744-34.7136,15.98,9.3709-2.2061,20.3873-8.8155,34.1623-19.2812,13.7747-10.4744,14.326-15.4284,2.2056-13.774C287.062,231.0987,295.8775,225.5882,301.3884,216.7723Zm-47.9333,20.9356c-4.4114,1.6542-7.165,1.1027-8.8193-1.6509-1.0991-2.7525,1.1028-5.5106,6.0619-7.7122,4.96-1.654,8.2631-1.1026,10.47,1.65a25.5177,25.5177,0,0,0,6.6085-12.6711v-2.7529c-1.6494,1.65-3.3051,3.3043-4.9591,3.8556-3.8565,2.2019-7.16,2.7536-9.3622,1.1034-1.1028-.5562-1.6543-1.6547-1.1028-3.3092.5515-2.7534,2.7537-4.9592,7.16-6.6094,3.8565-1.1026,6.6148-1.1026,8.8155.5475l.5515-.5475c2.2073-2.7577,3.3049-5.5105,2.7586-7.7166-1.1042-4.4076-5.511-3.8561-12.677,1.1034,4.9592-4.9595,9.3669-6.6144,12.677-5.511,1.6494.5515,2.2008,2.2061,2.2008,4.4076,0,2.7574-1.103,5.51-2.7521,8.8154l-1.1042,1.654a7.6433,7.6433,0,0,1,0,4.96,23.8979,23.8979,0,0,1-7.165,15.4243c.5513,2.7573-.5465,5.5109-3.8566,8.8153-4.958,6.6133-12.6706,9.3712-22.0377,7.7171,8.2641-.5517,15.4293-3.305,20.3883-9.3673a11.3353,11.3353,0,0,0,2.7536-4.9592A18.3216,18.3216,0,0,1,253.4551,237.7079Z"/><path class="cls-4" d="M250.6977,229.9951c-3.8558,1.655-5.51,3.8565-3.8558,5.5106l5.51-.5515a12.5388,12.5388,0,0,0,6.6085-3.3041Q256.4867,227.513,250.6977,229.9951Z"/><path class="cls-5" d="M273.2873,247.0785c-13.775,10.4657-24.7914,17.0751-34.1623,19.2812,11.5727-2.2061,23.1459-7.7128,34.7136-15.98,11.5728-8.2592,15.4291-14.3222,12.1207-17.6309q16.5314-9.0861,19.8368-18.1772c2.2055-5.5153,1.6542-8.8155-2.2022-9.3716q21.4821-12.3962,28.0961-24.791c4.4117-8.8159,1.1031-12.6763-10.4661-12.12,7.7128-6.0618,9.9186-10.4695,7.1613-13.2275-2.7536-3.3043-7.7126-3.8556-14.8778-1.1028,6.0622-1.0988,10.47-.547,12.1242,1.6542,2.7536,2.758-1.6541,8.2641-13.2221,15.9806q14.0487-2.4813,16.5272,1.6552c1.654,2.7528.5514,6.0576-3.3051,11.0162a90.0028,90.0028,0,0,1-14.8778,13.2235,63.2062,63.2062,0,0,1-17.0782,8.815c4.9592-.5469,8.2642,0,9.9183,2.2064,1.0981,1.65.5467,4.4073-2.2055,8.2634-5.5109,8.8159-14.3264,14.3264-25.8955,16.5322C287.6133,231.65,287.062,236.6041,273.2873,247.0785Z"/><path class="cls-5" d="M236.923,249.2807c9.3671,1.6541,17.08-1.1038,22.0377-7.7171,3.31-3.3044,4.4079-6.058,3.8566-8.8153a23.8979,23.8979,0,0,0,7.165-15.4243,7.6433,7.6433,0,0,0,0-4.96l1.1042-1.654c1.6491-3.3051,2.7521-6.058,2.7521-8.8154,0-2.2015-.5514-3.8561-2.2008-4.4076-3.31-1.1034-7.7178.5515-12.677,5.511,7.166-4.9595,11.5728-5.511,12.677-1.1034.5463,2.2061-.5513,4.9589-2.7586,7.7166l-.5515.5475c-2.2007-1.65-4.959-1.65-8.8155-.5475-4.4062,1.65-6.6084,3.856-7.16,6.6094-.5515,1.6545,0,2.753,1.1028,3.3092,2.2022,1.65,5.5057,1.0985,9.3622-1.1034,1.654-.5513,3.31-2.2058,4.9591-3.8556v2.7529a25.5177,25.5177,0,0,1-6.6085,12.6711c-2.2071-2.7529-5.51-3.3043-10.47-1.65-4.9591,2.2016-7.161,4.96-6.0619,7.7122,1.6543,2.7536,4.4079,3.3051,8.8193,1.6509a18.3216,18.3216,0,0,0,6.61-2.7537,11.3353,11.3353,0,0,1-2.7536,4.9592C252.3523,245.9757,245.1871,248.729,236.923,249.2807Zm24.7963-33.6113a8.6855,8.6855,0,0,1-7.165,1.1029c-1.6505-1.6542,0-3.8561,4.9579-5.5106,3.3051-.5513,5.512-.5513,6.6148,1.1027Zm-9.367,19.2848-5.51.5515c-1.6546-1.6541,0-3.8556,3.8558-5.5106q5.7849-2.4752,8.2631,1.655A12.5388,12.5388,0,0,1,252.3523,234.9542Z"/><path class="cls-8" d="M326.7349,398.5974l3.856,2.7533c3.3049-3.8564,4.96-7.165,4.408-9.9183a4.8259,4.8259,0,0,0-3.3089-3.8565c-1.6506-.5513-2.7532.5479-3.3047,2.7537h0a2.8431,2.8431,0,0,0-3.8563-1.6508,3.6914,3.6914,0,0,0-1.6544,4.4042A11.2781,11.2781,0,0,0,326.7349,398.5974Z"/><polygon class="cls-8" points="347.671 438.266 342.661 437.431 345.464 432.756 340.712 434.915 339.958 430.004 338.774 435.129 333.896 432.204 336.289 437.474 331.143 438.266 336.29 439.056 333.896 444.325 338.63 441.486 339.407 446.53 340.47 441.913 353.181 452.593 342.785 439.078 347.671 438.266"/><path class="cls-8" d="M322.3281,415.6721a4.38,4.38,0,0,0,1.0977-4.9543c-.5513-1.6543-1.6506-2.7571-3.8562-2.2068l-1.6543.5525,1.1026,1.103c1.6546,1.1028,1.6546,2.2056.5517,2.7533-2.7526,1.6532-4.4077,1.1029-5.5109-1.6505q-1.6464-4.1374,3.31-6.6137c2.7522-1.1042,4.9592-.5513,7.7113,2.202,2.2019,2.2059,3.305,4.9595,3.8565,8.8145-.5515,6.0621,2.7533,10.4751,8.8155,13.2283,4.9591,1.6495,9.3669,1.6495,13.2221-.5524-3.8552,7.1609-3.3035,14.326,2.7584,20.936q9.0856,9.0933,18.1816,3.3086a13.4011,13.4011,0,0,0,4.9592-7.7165,10.5348,10.5348,0,0,0-2.2058-8.264,9.6212,9.6212,0,0,0-7.7128-3.8564c-2.7573-.5515-4.4067.5513-6.0619,2.7531-1.6546,2.7574-1.6546,4.96.5514,7.1652,2.2068,1.6507,3.8563,2.2021,4.9592,1.1031a3.8723,3.8723,0,0,1-2.7524-2.206c-1.103-2.2057-.5513-3.8563,1.6495-4.4077,2.2056-.5513,4.4078.5514,6.0619,2.202,1.651,1.6544,2.2023,4.4117,1.651,7.1649-1.0993,3.8563-4.4081,5.5109-9.9137,3.8563-4.9594-1.65-7.7177-4.9591-9.3672-9.9182-1.654-4.96-1.654-9.9186,1.0982-14.3212q6.6114-6.62,4.9589-11.5744c-.5513-2.7558-2.7533-3.8551-5.5057-4.4064-2.2054-.5527-3.8611.5513-5.51,2.2056-1.1028,1.65-1.6544,3.3-1.1028,4.9545a5.6308,5.6308,0,0,0,2.7522,3.3049q2.4835.8342,3.31,0c1.0982-.5466,1.65-1.6494,1.0982-3.3049-1.6495,1.1026-2.7522,1.1026-3.3037-.5515-.5528-1.6494.5515-2.7525,2.2055-3.3049a3.6735,3.6735,0,0,1,3.8564,2.7582c.5515,1.6506-.5524,3.8566-2.2069,6.0573-4.9592,4.9591-11.0163,5.5108-17.63,1.6555a10.8338,10.8338,0,0,1-4.9592-7.166c-1.103-2.7526-1.103-5.5059,0-7.1614,1.6542-2.7562,3.8564-2.7562,6.062-1.1028,2.2023,1.6555,3.305,3.3061,2.7536,4.9592-.5513,1.6555-1.0992,2.202-2.7536,1.6555a3.24,3.24,0,0,1-1.1027-2.7536l-2.2019,1.65c-.5516,1.65,0,2.7526,1.099,4.4067a5.3561,5.3561,0,0,0,4.9592.5528,4.9752,4.9752,0,0,0,3.3086-3.31,9.5721,9.5721,0,0,0-1.6541-7.7114,8.8033,8.8033,0,0,0-4.9594-3.8565c-5.5105-1.1026-8.8155,1.1027-9.3669,6.0623a9.7128,9.7128,0,0,0-3.3051-7.1649c-2.7571-2.7537-6.062-3.8566-9.9182-2.2024q-4.1282,1.649-4.96,6.6137a8.1385,8.1385,0,0,0,2.2075,7.16C316.2647,418.4292,319.57,418.982,322.3281,415.6721Z"/><path class="cls-8" d="M361.9957,456.9953c-1.6543,4.9592-1.1026,8.2691.5525,11.0215a3.6886,3.6886,0,0,0,4.4067,1.654,2.8439,2.8439,0,0,0,1.6506-3.8549c1.6545,1.0979,3.3088.5514,4.4081-1.1043a4.3145,4.3145,0,0,0-.5477-4.4062C370.8113,458.098,366.9549,456.9953,361.9957,456.9953Z"/><path class="cls-8" d="M371.9143,428.348a3.6934,3.6934,0,0,0,1.6506-4.4067c-.5513-2.2072-1.6506-2.7537-3.8562-2.2072,1.654-1.6492,1.654-2.7521,0-4.4076h0a3.36,3.36,0,0,0-4.4077,0c-1.6494,1.1027-2.7525,2.7584-3.8564,5.512l-.5513,4.4062C365.8521,429.4469,369.1572,430.0035,371.9143,428.348Z"/><path class="cls-8" d="M204.4154,343.5c2.7573-.5561,4.9592-1.6546,5.511-4.4125,0-1.65-.5518-3.3043-1.651-3.8564-1.6592-.5514-3.3087-.5514-4.4114.5521-1.1026,1.6546-.5478,2.7573,1.1027,3.3043,0-1.1028.5517-1.65,1.6495-1.1028a1.0283,1.0283,0,0,1,0,1.6542,2.304,2.304,0,0,1-3.3,1.6552,3.4844,3.4844,0,0,1-2.2058-4.4077c0-3.3051,2.2058-4.96,6.0622-4.96a23.33,23.33,0,0,1,7.1613,3.8564,23.3242,23.3242,0,0,0,7.16,3.8557c2.7585.5517,6.0623-.5514,9.372-2.2011,4.4031.5469,6.6088,2.2011,6.0572,5.5061-.5514,2.7573-1.654,4.4121-3.8563,3.8555-2.7573-.5469-3.8562-1.6495-2.2008-3.2994.5467-1.1033,1.6495-1.1033,2.7522.5469,1.6509-1.65,1.1031-3.3049-1.1027-3.8563-2.7536-.5517-4.4078.5514-4.9592,3.8563-.5467,2.7525,1.1027,4.4079,3.8566,5.5106,1.654.5513,3.3084,0,4.9589-.5514,1.6543-1.1031,2.206-2.7536,2.7533-4.4078.5554-4.9594-1.65-7.7119-7.1609-8.2634q4.1357-4.13,3.3049-8.2642c-.5478-2.7571-3.3049-4.9594-7.1614-5.5107-4.4076-.5516-7.16,1.1034-7.7163,5.5107l.5563,4.4079c.5463,1.65,2.2009,2.201,3.8561,2.201,2.7525.5515,3.8552-.5513,4.4068-3.3041a2.4168,2.4168,0,0,0-.5516-2.7533H227.01c1.0981,1.1034,1.0981,2.2019-.5564,2.7533H223.7a2.542,2.542,0,0,1-1.6495-2.7533c.5462-2.7573,2.2019-4.4121,6.0571-3.8561,3.8566,1.65,5.5106,3.8561,4.4079,7.1607-.5514,2.7529-2.206,4.96-4.9592,5.511-3.8563.5469-7.165-1.103-10.465-4.4122-3.8563-3.8565-8.268-4.9549-12.1246-3.3-3.3046,1.65-5.5068,3.8556-6.0619,7.1607C198.3572,341.2942,200.0075,343.5,204.4154,343.5Z"/><path class="cls-8" d="M114.6076,187.0217c3.3052-.5557,6.0623-2.7577,7.7128-6.6132s3.855-5.511,6.6087-6.0623c2.2058-.5513,3.8615,0,5.5155,2.2058q2.4741,4.13-1.654,6.6093c-2.2023,1.6542-3.8615,1.6542-5.511-1.0988l.5513-2.2058,1.6546-1.1034c1.6494,0,2.2009.5521,1.6494,2.2065,1.6556-.5513,1.6556-1.6544,1.1039-2.7536-1.1039-2.2056-2.7533-2.7572-4.4079-1.6542-2.7583,1.6542-3.3045,3.8565-1.6555,7.1607,1.6555,2.7532,4.4129,2.7532,7.7128,1.1027q4.1356-2.4812,3.3086-6.6092a7.8145,7.8145,0,0,0-4.4062-4.9584c3.8547-2.2065,4.4062-4.96,2.7521-8.2684-2.2008-2.7531-4.4078-3.3052-7.16-1.65-2.207,1.65-2.7533,3.8555-1.1028,5.5064,1.1028,2.757,2.7522,3.3087,4.4068,1.6543,1.6555-1.1029,1.6555-2.2018,0-3.8565-.5515,1.6547-1.0981,2.2022-2.2008,1.6547a2.5905,2.5905,0,0,1,.5462-3.3087c1.6546-1.1033,2.7588-.5475,4.4128,1.654,1.0981,2.7536,0,4.4078-3.31,6.058a8.371,8.371,0,0,0-7.165,1.6548c-1.6495.5513-2.7525,2.2058-4.4031,4.9592-1.654,2.7571-2.7533,4.4073-4.4125,4.9586-2.7525,1.1037-4.958.5514-6.057-1.6543-.5519-1.65-.5519-2.753.5513-3.8564a2.5866,2.5866,0,0,1,3.3046-.5471v2.2023c-.5514.5513-.5514,0-1.0992-.5518-1.1027,1.1031-1.1027,1.65.5478,2.2058a1.3673,1.3673,0,0,0,2.2058-.5556,2.58,2.58,0,0,0,.5467-3.3007c-1.0981-2.2056-2.7525-2.7572-5.5057-1.6542q-4.13,1.6478-1.6546,6.6094A7.1984,7.1984,0,0,0,114.6076,187.0217Z"/><path class="cls-8" d="M100.2814,155.6119a5.2811,5.2811,0,0,0,1.6544,5.5109c2.7532,1.655,4.4041,1.655,6.0582-1.103,1.1033-2.2012,1.1033-3.3043-.5513-3.8559-1.1028-.552-2.202,0-2.7537,1.6547q1.6547-1.6547,1.6509,0c0,1.0984,0,1.654-.5478,2.2012a2.4512,2.4512,0,0,1-2.7521,0c-1.66-.5472-2.2069-1.65-.5565-3.8559q3.3082-4.13,6.6138-1.65c1.654,1.0983,1.654,2.7537,1.099,4.4034-.5476,2.2058-2.7536,3.8608-6.0586,4.9591-3.8563,1.6546-6.0573,3.8561-6.0573,6.6138s1.0982,4.4076,3.3,6.062c3.86,2.2014,6.0623,1.6543,6.6136-2.2057q1.655-3.3029-1.6541-4.9593a2.5862,2.5862,0,0,0-3.3.5515l-.5565,2.753c.5565,1.1034,1.6542,1.1034,2.7573,0-1.1031,0-1.6544-.5471-1.1031-1.65l2.2023.5514a2.5879,2.5879,0,0,1-.5478,3.3049c-1.103,1.1031-2.2058,1.1031-3.8563,0-2.2059-1.1027-2.7573-3.3049-1.6544-6.0619.5516-1.1034,1.6544-2.2023,4.4077-2.7536a10.89,10.89,0,0,0,6.0622-3.3042q2.4759-2.4825,1.6506-6.6139c1.103-1.65,3.3086-2.2061,6.0622-1.1033,2.2058.5513,2.7532,1.1033,1.6494,2.758a2.5967,2.5967,0,0,1-3.3.5514c-.5555-1.1027,0-1.6545,1.6505-1.1027l-1.1027-1.1034-2.7537.5516a2.8453,2.8453,0,0,0,1.6505,3.856c1.6546,1.1027,3.3086.5513,4.9592-1.0989h0a4.6682,4.6682,0,0,0,1.103-3.3087l-1.103-2.2061c-3.3046-2.7528-6.61-2.2015-9.9183,1.1028a5.4945,5.4945,0,0,0-5.2934-3.2807c-.0769-.0018-.1349-.0236-.2136-.0236a8.2886,8.2886,0,0,0-3.7117,1.6162A6.6012,6.6012,0,0,0,100.2814,155.6119Z"/><path class="cls-8" d="M119.5668,173.7948c1.1031-1.1034,1.6506-2.2022,1.1031-3.3049-.5563-1.6543-2.2058-2.2018-4.4117-2.2018q0-2.482-1.6506-3.3087a2.6071,2.6071,0,0,0-3.3084.5513c-2.2019,2.2015-2.2019,4.9592,0,7.7171C115.1545,175.4488,117.9128,175.4488,119.5668,173.7948Z"/><polygon class="cls-8" points="100.391 181.842 97.524 180.408 98.81 182.978 95.874 183.713 98.878 184.088 92.565 191.981 100.457 185.668 100.833 188.672 101.568 185.735 104.138 187.022 102.704 184.154 105.792 183.713 102.704 183.271 104.138 180.408 101.569 181.694 100.833 178.753 100.391 181.842"/><path class="cls-9" d="M100.2814,463.6089c-1.6543-.5514-3.3037,0-4.9592,1.1026-.5514-1.1026-1.6543-1.654-3.3037-2.2l-3.8563-1.1031,0,0c-2.7584.5463-4.4129,2.2007-4.9592,6.0622-.5563,2.7522,1.1029,6.0568,3.8561,9.9132l4.4066,4.9592a22.3713,22.3713,0,0,0,6.6147-2.2019c4.4032-2.7573,7.16-5.5106,7.7118-8.8143C106.34,466.9138,104.689,464.16,100.2814,463.6089Z"/><path class="cls-10" d="M151.52,210.1591l-8.8157-1.1033a29.9477,29.9477,0,0,0-9.9133,0c-8.2641,1.6546-13.7751,7.1651-15.9769,16.5324v1.1027l1.0991-1.1027c2.7572-7.7128,7.16-11.5735,14.3261-12.1207a14.7484,14.7484,0,0,0-7.1663,11.5686,15.1754,15.1754,0,0,0,6.0623,14.326c1.6557,1.6545,2.2071,3.8564,1.6557,7.7164v4.9547c1.0978,0,2.2008-1.0984,2.7521-3.8562.5515-2.7526,1.6542-3.8558,2.202-3.3042,1.1031,0,1.6592,1.65,2.2059,4.4079,0,2.7525.5513,4.4071,1.1027,4.4071,1.1031,0,1.6506-1.1032,1.6506-3.8557.5562-2.7536.5562-3.8563,1.1031-3.8563,1.654-.5513,4.9591-.5513,11.0214,0l15.4236-.5513c-4.9591-7.1652-6.6082-13.7744-6.0568-19.8363,4.9592-2.758,7.16-4.9595,5.5105-6.6143,0-.5472-1.1028,0-3.31,1.1034-2.2008,1.103-3.8554,1.103-4.4027-.5471-.5554-1.1035,0-2.7579,2.2019-4.4121,1.6541-1.6506,2.2008-3.305,1.6541-3.8564-.5564-.5513-1.6541.5514-4.4114,2.2058-2.202,1.6506-3.8563,1.6506-4.4042.5472-.555-1.0985,0-2.753,1.6509-4.4031q2.4812-3.3094,1.6541-3.3091c-.5513-.5469-2.2019,0-3.86,1.1028C154.2764,209.0558,152.6224,210.1591,151.52,210.1591Zm-24.24,19.836c-1.1042-3.3042-.5513-6.6092,1.65-10.465,2.7573-4.959,7.7162-7.1657,13.7747-6.0626-3.8561.5472-7.1611,3.3048-9.9132,7.1611a19.1434,19.1434,0,0,0-1.1042,16.5323A12.2842,12.2842,0,0,1,127.28,229.9951Zm12.1242-4.4069c-1.85,4.065-2.171,7.8761-.8793,11.4453l.3233-.9765-.5466-1.6541h1.1026l1.6494-1.0984v2.2012l1.6506.5513-1.6506.5471v2.2065l-1.6494-1.65-.6964.3454a15.8713,15.8713,0,0,0,2.8972,4.6137c-4.4078-.5564-7.16-3.3094-8.814-7.7171-1.1042-3.8564-1.1042-7.1607.5514-10.47h0a17.9035,17.9035,0,0,1,7.16-7.16q5.7921-2.4813,9.9186,0C145.4609,216.7723,142.1563,219.53,139.4038,225.5882Zm22.59,12.12v0h0l0,0a7.9178,7.9178,0,0,0,3.3,5.51l-7.1561-.5521A12.0187,12.0187,0,0,0,161.9933,237.7081Zm-3.8565-8.8161q-.8328,5.7844-6.6172,4.96c-3.8564-.5471-5.5072-2.2015-4.9554-6.0622.5513-3.8566,2.7531-6.0578,6.6132-5.5064Q158.9617,223.1038,158.1368,228.892Z"/><path class="cls-2" d="M132.7906,220.6286c2.7521-3.8563,6.0571-6.6139,9.9132-7.1611-6.0585-1.1031-11.0174,1.1036-13.7747,6.0626-2.2008,3.8558-2.7537,7.1608-1.65,10.465a12.2842,12.2842,0,0,0,4.4068,7.1658A19.1434,19.1434,0,0,1,132.7906,220.6286Z"/><path class="cls-11" d="M150.4205,216.7723q-4.136-2.4813-9.9186,0a17.9035,17.9035,0,0,0-7.16,7.16h0c-1.6556,3.3094-1.6556,6.6137-.5514,10.47,1.654,4.4077,4.4062,7.1607,8.814,7.7171a15.8713,15.8713,0,0,1-2.8972-4.6137l-.4062.2016.2233-.6744c-1.2917-3.5692-.97-7.38.8793-11.4453C142.1563,219.53,145.4609,216.7723,150.4205,216.7723Z"/><path class="cls-2" d="M165.2929,243.2185a7.9178,7.9178,0,0,1-3.3-5.51,12.0187,12.0187,0,0,1-3.8565,4.9583Z"/><polygon class="cls-2" points="161.993 237.708 161.993 237.708 161.993 237.708 161.993 237.708"/><path class="cls-2" d="M146.5642,227.7894c-.5518,3.8607,1.099,5.5151,4.9554,6.0622q5.79.8269,6.6172-4.96.8217-5.7838-4.9594-6.609C149.3173,221.7316,147.1155,223.9328,146.5642,227.7894Z"/><path class="cls-9" d="M279.2914,301.4916c-.335.326-.6694.7152-1.0035,1.1058l.51.1265Z"/><path class="cls-9" d="M254.0028,304.747c-.0858.1371-.1588.28-.2375.42l.2375-.2374Z"/><path class="cls-9" d="M285.7255,328.3871c.1973-.2537.3936-.5073.608-.7791l-.922.4629Z"/><path class="cls-9" d="M294.7783,314.91c.074-.2047.1561-.4116.2207-.6137h-.2207Z"/><path class="cls-9" d="M293.1243,303.5458v.2808l-.5518-.5513-.5513.5513v-1.1027h.38a18.6648,18.6648,0,0,0-2.5815-2.2014v0a12.5846,12.5846,0,0,0-1.9727-.9974l-1.336.4454v1.65l-.5514-1.0985-1.0991.5515.5513-1.6549-.9808-.49a7.7193,7.7193,0,0,0-4.53,2.0372v1.7581h2.2022l-2.2022.5513.5514,2.7576-1.1027-2.7576-1.654,2.2015,1.1026-2.2015-.7681-.3825c-.1115.136-.2232.2393-.3346.3826l-1.5731,2.36,1.5731.3972-2.2021.5466,0,0,.5528,2.2063-1.2145-1.2135-.4413.6622c-.162-.27-.3263-.5183-.49-.7766l-1.1647.7766.7326-1.4621a27.6023,27.6023,0,0,0-2.6143-3.381l-.8716.4352v1.1027l-.5513-1.1027-.5518,1.1027v-1.1027l-.5515-1.1027,1.1033.5513v-1.0985l.5513,1.0986h.7686a17.1005,17.1005,0,0,0-2.2282-2.0429l-.195.3884v-.5241a8.5167,8.5167,0,0,0-7.1675-1.7084l.0077.0306-.0186-.0278a9.6537,9.6537,0,0,0-2.74,1.1312h.5513v.5514h1.1042l.5516-1.1034v1.1034l.5513,1.103-.5513-.5559-.5516.5559v-.5559l-1.1042-.5471v.5471l-.5514-.5471h-.8045a13.2926,13.2926,0,0,0-3.4561,3.45l.4055.4054h.5517l-.5517.5475-.5515.5562v-.5562h-.413a10.5841,10.5841,0,0,0-1.012,6.17l.3259-.1086-.3134.2091a21.2123,21.2123,0,0,0,1.964,6.4054,33.5911,33.5911,0,0,0,2.1023,4.4071h.1034v-1.103l.5514,1.103h.5513l-.5513.5513v.5521l-.0418-.0418c.2872.471.5883.9322.8959,1.3887l.2439-.2442v.5475l1.6556.5513-.956.4773q.9431,1.2783,1.99,2.4874l.0693-.2074v.2876a55.7126,55.7126,0,0,0,5.928,5.825l.6805-1.7092-1.6494-1.0988,2.2007.5518.5515-2.2061v2.7531h2.2073l-2.2073.5556.5518,2.7536-1.1033-2.2065-.8923.8954c.2989.2523.5877.51.8923.7595l2.8685,1.6546h.4416v-2.2067l1.0978,2.2067,1.6543-.5515-1.5182,1.518,7.1778,4.14-.149-.1478h1.1032v-.5513l.5477.5513.1686.0836a7.535,7.535,0,0,1-.5974-1.8971l-.1189.1587.1059-.2122a9.34,9.34,0,0,1-.0259-2.5l-1.1832-.5924,1.2148.2413a15.4782,15.4782,0,0,1,1.5389-4.6534h0l0,0-1.1026,1.1027v-1.65l-1.0995-.5518h1.0995l.5513-1.6543,1.103,1.103h.3307c.5131-.7866,1.2355-1.76,2.1234-2.9036l-.8-.4012-.5517,1.0984v-1.0984l-.5514-.5518H284.86v-1.1027l.5514,1.1027h.9925c.2494-.316.5068-.641.7785-.982l-.1206-.1206-.5513.5513.5513-1.1027.5514-.5513v.683c.2581-.3227.53-.6617.8056-1.0057l-1.357-.2248,1.7764-.2989c.4221-.5261.87-1.0844,1.33-1.6588l-.3486-2.4545.6059,2.126c.5239-.6878.9978-1.36,1.444-2.0247l-1.5022,1.0018,1.1026-2.2057-1.1026-1.6505,1.6541.5521,1.6545-1.6548v.9429a21.762,21.762,0,0,0,.9184-2.0435l-.367-1.101-1.6545.5513,1.1031-1.1028-.5513-1.1031,1.1026.5513.5514-.5513v1.1031l.327.1641a13.5851,13.5851,0,0,0,.5162-2.6637l-.2953.293.31-.6194A10.301,10.301,0,0,0,293.1243,303.5458Zm-10.47-3.0235.5515-1.1034v1.6548h-.5515Zm-8.8156,9.3666v-.5514l.5513.5514.5516.5471H274.39l-.5513.5556Zm-2.7521-4.4121h1.0976l-.5463.5562v.5464l-.5513-.5464-1.1042-.5562Zm-7.1665-3.856v-2.2019l1.1042,1.6548h1.6544l-1.1031,1.103,1.1031,2.2012-2.2073-1.1027-1.1027,2.2015.5514-2.7528-2.2008-.5472Zm1.6555,4.4122-.5513.5464v.5521l-.5529-.5521-.5513-.5464h.5513l.5529-.5562v.5562Zm-4.9589-2.2064v-1.1027l.5513.5514h.5513l-.5513.5513.5513,1.1027h-1.1026l-.5516.5475v-1.0989l-.5528-.5513Zm-1.1044,15.98-1.1028-2.2061-1.0981,2.2061.5514-2.7574-2.2054-.5513h2.2054l.5467-2.2016V317.05Zm-2.2008-7.1649H256.76v-1.1034l.5514.5513h.5513Zm-1.1027-8.8155.5513-1.65v1.65l.5513,1.65-.5513-1.0989-1.1027,1.0989Zm-2.7536,7.712,1.0992-1.65-1.6505-1.1031,1.6505.5517.5517-1.6544.5514,1.6544h1.654l-1.654.5514.5513,2.2011-1.1026-1.654Zm1.6509,1.6548.5514-.5513v.5513l1.1026.5518h-1.1026v.5515l-.5514-.5515-.5517-.5518Zm0,4.96h.5514v-.5521l.5513.5521.5514-.5521v1.65l-.5514-.547-.5513.547v-.547Zm5.5106,5.5106-.5516.5467v-1.0988h-1.1042l1.1042-.5513.5516-1.103v1.103h1.1027l-.5514.5513V324.21Zm1.1026,2.7528-.5513,1.1027.5513-1.654.5517,1.1027Zm3.305-1.1026.5513,2.7571-.5513-2.2058-2.2069,2.2058,1.654-2.7571-2.2-1.1035,2.2.556.5529-2.2061v2.2061l2.7522.5475Zm22.0377-9.363-1.1026-.5558h2.2054Zm.5514-8.8193V306.033h-.5514l.5514-.5562v-.5475l.5514.5475h.5514l-.5514.5562Zm2.7537,8.8193v.5475l-.5477-.5475-1.1032-.5558h1.1032v-.547l.5477.547.5513.5558Zm.5513-11.0216-1.099-1.1026-1.6546,1.1026.5514-1.654-1.1028-1.0985h1.1028l.5516-1.103.5516,1.103h1.65l-1.1026,1.0985Zm2.206,2.2023-1.1031,1.6543.5513-1.6543-1.1028-.5521h1.6546l1.654.5521Z"/><path class="cls-9" d="M281.5514,343.4111l1.1028.636a7.461,7.461,0,0,1-.7314-1.103h-.3714Z"/><polygon class="cls-12" points="277.695 305.477 279.349 303.275 280.452 306.033 279.901 303.275 282.103 302.724 279.901 302.724 279.901 300.966 279.901 299.97 279.291 301.492 278.798 302.724 278.288 302.597 276.592 302.177 278.03 302.893 278.798 303.275 277.695 305.477"/><polygon class="cls-12" points="290.168 322.809 290.367 324.21 288.838 324.467 287.062 324.766 288.419 324.991 290.367 325.314 289.819 329.169 290.918 325.314 293.676 328.071 291.47 324.766 294.227 323.111 290.918 324.21 290.425 322.48 289.819 320.354 290.168 322.809"/><polygon class="cls-12" points="281.084 338.03 282.103 338.541 281.11 340.53 281.004 340.742 281.123 340.583 282.654 338.541 283.757 341.294 283.206 338.541 285.411 337.985 283.206 337.985 283.206 335.231 282.654 337.985 281.115 337.679 279.901 337.438 281.084 338.03"/><polygon class="cls-12" points="290.367 356.718 289.819 357.821 290.918 356.718 290.918 356.171 289.819 356.171 290.367 356.718"/><polygon class="cls-12" points="279.9 348.455 281.004 349.558 280.452 350.66 281.551 349.558 283.757 349.006 281.551 349.006 279.9 348.455"/><polygon class="cls-12" points="287.062 330.824 287.613 329.169 289.268 328.622 287.613 328.622 285.959 328.622 287.062 329.169 287.062 330.824"/><polygon class="cls-12" points="257.311 305.477 256.76 303.827 256.76 302.177 256.209 303.827 255.657 305.477 256.76 304.378 257.311 305.477"/><polygon class="cls-12" points="257.863 316.498 255.657 316.498 257.863 317.05 257.311 319.807 258.409 317.601 259.512 319.807 258.409 317.05 258.409 314.297 257.863 316.498"/><polygon class="cls-12" points="251.801 320.354 253.455 319.252 251.801 319.807 250.698 317.601 250.698 319.807 249.044 320.354 251.25 320.354 250.698 323.111 251.25 320.906 253.455 322.56 251.801 320.354"/><polygon class="cls-12" points="249.595 307.683 250.698 304.929 252.904 307.132 250.698 304.378 253.455 302.724 250.698 303.827 249.595 301.074 249.595 303.827 246.842 304.378 249.595 304.929 249.595 307.683"/><polygon class="cls-12" points="269.431 336.335 268.879 333.581 271.086 333.026 268.879 333.026 268.879 330.273 268.328 332.479 266.127 331.927 267.776 333.026 267.096 334.735 266.679 335.783 267.435 335.024 268.328 334.129 269.431 336.335"/><polygon class="cls-12" points="265.024 322.56 264.471 324.766 262.271 324.21 264.471 325.314 262.817 328.071 265.024 325.865 265.576 328.071 265.024 325.314 267.776 325.314 265.024 324.766 265.024 322.56"/><polygon class="cls-12" points="273.839 342.944 273.287 341.294 273.287 342.944 271.638 342.944 273.287 343.5 274.39 345.15 273.839 343.5 275.493 342.944 273.839 342.944"/><polygon class="cls-12" points="260.065 302.177 260.617 301.621 261.168 302.177 260.617 301.074 260.617 299.97 260.065 301.074 258.961 301.074 260.065 301.621 260.065 302.177"/><polygon class="cls-12" points="287.062 351.212 285.959 351.212 287.062 351.759 288.165 351.212 287.062 351.212"/><polygon class="cls-12" points="287.062 352.316 287.613 352.863 287.062 351.759 286.511 352.863 287.062 352.316"/><polygon class="cls-12" points="292.021 357.821 292.021 358.373 291.47 358.373 292.021 358.925 292.021 360.028 292.573 358.925 293.676 358.373 292.573 358.373 292.021 357.821"/><polygon class="cls-12" points="296.429 317.05 296.98 317.601 296.98 318.153 297.532 317.601 298.635 317.05 297.532 317.05 296.429 317.05"/><polygon class="cls-12" points="285.959 315.395 287.062 315.951 288.165 315.395 287.062 315.395 285.959 315.395"/><polygon class="cls-12" points="284.86 339.639 284.86 340.191 284.308 340.742 284.86 340.742 284.86 341.846 285.411 340.742 286.511 340.191 285.411 340.191 284.86 339.639"/><polygon class="cls-12" points="261.168 327.519 261.719 326.416 262.271 326.968 261.719 325.865 261.168 327.519"/><polygon class="cls-12" points="264.471 306.033 263.92 306.033 264.471 306.579 265.024 307.132 265.024 306.579 265.576 306.033 265.024 306.033 265.024 305.477 264.471 306.033"/><polygon class="cls-12" points="261.16 299.388 260.617 297.217 261.719 296.662 260.065 296.662 260.065 294.46 259.512 296.662 257.863 296.114 259.512 297.217 258.41 299.419 260.065 297.764 261.149 299.391 261.168 299.419 261.16 299.388"/><polygon class="cls-12" points="277.143 341.846 277.695 342.397 277.143 341.294 277.143 341.846"/><polygon class="cls-12" points="277.695 345.15 278.247 344.047 278.798 343.5 277.695 344.047 277.695 345.15"/><polygon class="cls-12" points="288.165 305.477 287.613 304.929 287.613 305.477 287.062 306.033 287.613 306.033 287.613 307.132 288.165 306.033 288.716 305.477 288.165 305.477"/><polygon class="cls-12" points="295.622 311.246 295.877 310.992 296.429 312.09 296.429 309.337 295.877 310.436 295.636 310.919 295.326 311.539 295.622 311.246"/><polygon class="cls-12" points="291.47 306.579 292.573 307.132 292.021 308.786 293.124 307.132 294.778 307.132 293.124 306.579 291.47 306.579"/><polygon class="cls-12" points="272.736 337.438 271.638 335.231 271.638 337.438 271.196 337.438 269.431 337.438 271.086 338.541 270.534 340.742 272.184 339.088 273.839 340.191 272.736 338.541 272.872 338.404 274.39 336.887 272.736 337.438"/><polygon class="cls-12" points="273.9 307.458 274.39 307.132 274.831 307.572 276.046 308.786 275.493 306.58 275.493 306.579 275.493 306.579 277.695 306.033 276.122 305.636 275.493 305.477 275.493 303.275 274.39 304.929 272.736 304.929 273.839 306.033 273.468 306.772 272.736 308.234 273.9 307.458"/><polygon class="cls-12" points="261.099 328.83 260.617 330.273 259.512 330.273 260.617 330.824 260.065 331.927 261.168 331.376 261.719 331.927 261.719 330.824 262.271 330.273 261.168 330.273 261.168 328.91 261.168 328.622 261.099 328.83"/><polygon class="cls-12" points="260.065 305.477 260.617 304.929 261.719 304.929 261.168 303.827 261.719 303.275 261.168 303.275 260.617 302.724 260.617 303.827 259.512 303.827 260.065 304.378 260.065 305.477"/><polygon class="cls-12" points="261.168 323.111 261.719 322.56 260.617 322.56 260.617 321.457 260.065 322.56 258.961 323.111 260.065 323.111 260.065 324.21 260.617 323.664 261.168 324.21 261.168 323.111"/><polygon class="cls-12" points="257.311 331.927 257.311 332.479 256.76 333.026 257.311 333.026 257.311 334.68 257.863 333.581 258.41 334.129 258.41 333.026 258.961 332.479 257.863 332.479 257.311 331.927"/><polygon class="cls-12" points="268.523 301.232 268.879 300.522 269.982 301.074 269.431 299.419 270.534 298.867 269.431 298.867 268.879 298.316 268.879 299.419 267.776 299.419 268.328 299.97 268.328 301.097 268.328 301.621 268.523 301.232"/><polygon class="cls-12" points="269.431 302.177 269.431 303.275 268.328 302.724 268.879 303.827 268.879 304.929 269.431 303.827 269.982 304.929 269.982 303.827 270.854 303.391 271.086 303.275 270.751 303.275 269.982 303.275 269.431 302.177"/><polygon class="cls-12" points="252.578 311.647 251.25 312.09 250.146 310.436 250.146 312.09 249.044 312.642 250.146 313.193 250.146 314.848 251.25 313.745 252.352 314.297 251.25 312.642 252.59 311.748 252.904 311.539 252.578 311.647"/><polygon class="cls-12" points="294.778 312.642 294.227 313.193 293.124 312.642 293.676 313.745 292.573 314.848 294.227 314.297 294.594 315.398 294.778 315.951 294.778 314.91 294.778 314.297 294.999 314.297 295.877 314.297 295.105 313.909 294.778 313.745 294.778 312.642"/><polygon class="cls-12" points="289.819 302.177 289.268 301.074 288.716 302.177 287.613 302.177 288.716 303.275 288.165 304.929 289.819 303.827 290.918 304.929 290.367 303.275 291.47 302.177 289.819 302.177"/><polygon class="cls-12" points="258.409 325.314 258.409 324.766 258.166 325.011 257.863 325.314 256.76 325.314 257.863 325.865 257.311 327.519 258.409 326.968 258.961 327.519 258.961 326.416 259.109 326.342 260.065 325.865 258.409 325.314"/><polygon class="cls-12" points="292.021 318.153 290.367 317.601 291.47 319.252 290.367 321.457 291.869 320.455 292.021 320.354 293.676 322.009 293.676 319.807 295.326 319.252 293.676 318.704 293.676 317.441 293.676 316.498 292.021 318.153"/><polygon class="cls-12" points="282.103 330.273 281.551 331.927 280.452 331.927 281.551 332.479 281.551 334.129 282.654 333.026 282.654 333.026 283.757 334.129 283.206 332.479 284.308 331.376 283.536 331.376 283.206 331.376 282.103 330.273"/><polygon class="cls-12" points="266.127 336.887 265.576 335.783 265.576 336.887 264.471 336.887 265.576 337.438 265.024 338.541 266.127 337.985 266.679 338.541 266.127 337.438 267.23 336.887 266.127 336.887"/><polygon class="cls-12" points="292.021 298.867 291.47 301.074 293.124 299.419 294.778 300.522 294.227 298.316 295.326 297.217 293.676 297.217 293.124 295.563 292.573 297.764 290.918 297.764 292.021 298.867"/><polygon class="cls-12" points="281.004 341.846 281.004 342.397 279.901 342.397 280.049 342.545 280.452 342.944 280.452 344.047 281.004 343.5 281.551 344.047 281.551 343.411 281.551 342.944 281.923 342.944 282.654 342.944 281.72 342.481 281.551 342.397 281.004 341.846"/><polygon class="cls-12" points="256.209 312.09 255.657 309.889 257.311 309.338 255.657 309.338 255.106 307.683 254.554 309.338 252.904 308.786 254.554 309.889 253.455 311.539 255.106 310.436 256.209 312.09"/><polygon class="cls-12" points="276.592 345.701 276.592 346.253 276.046 346.8 276.592 346.8 276.592 347.356 277.143 346.8 277.695 346.253 277.143 346.253 276.592 345.701"/><polygon class="cls-12" points="256.209 318.704 256.76 319.251 256.76 317.601 256.209 318.153 255.657 317.601 255.657 318.153 255.106 318.153 255.657 318.704 255.657 319.251 256.209 318.704"/><polygon class="cls-12" points="258.961 301.621 258.961 301.074 258.961 300.522 258.41 300.522 258.409 300.522 257.311 301.074 257.605 301.074 258.409 301.074 258.961 301.621"/><polygon class="cls-12" points="274.941 310.436 274.39 309.889 273.839 309.338 273.839 309.889 273.839 310.992 274.39 310.436 274.941 310.436"/><polygon class="cls-12" points="292.021 303.827 292.573 303.275 293.124 303.827 293.124 303.546 293.124 303.275 293.676 302.724 293.124 302.724 293.124 302.177 292.573 302.724 292.401 302.724 292.021 302.724 292.021 303.827"/><polygon class="cls-12" points="283.206 300.522 283.206 299.419 282.654 300.522 282.654 301.074 283.206 301.074 283.206 300.522"/><polygon class="cls-12" points="297.532 309.338 297.532 308.234 297.532 307.132 296.98 308.234 296.429 308.786 296.98 308.786 297.532 309.338"/><polygon class="cls-12" points="256.76 311.539 256.76 312.642 257.311 312.642 257.863 312.09 257.311 312.09 256.76 311.539"/><polygon class="cls-12" points="296.98 312.642 296.98 313.193 295.878 313.745 296.98 313.745 296.98 314.297 297.532 313.745 298.083 313.193 297.532 313.193 296.98 312.642"/><polygon class="cls-12" points="255.657 314.297 255.657 313.745 256.76 313.745 255.657 313.193 255.657 312.642 255.106 313.193 254.554 313.193 255.106 313.745 255.657 314.297"/><polygon class="cls-12" points="257.311 323.111 257.863 322.56 257.311 322.56 256.76 321.457 256.76 322.56 256.657 322.56 255.657 322.56 256.76 323.111 257.27 323.622 257.311 323.664 257.311 323.111"/><polygon class="cls-12" points="261.719 333.581 262.271 334.129 261.719 334.68 262.271 334.68 262.817 335.231 262.817 334.129 262.817 333.026 262.271 333.581 261.719 333.581"/><polygon class="cls-12" points="287.062 347.903 287.062 347.356 287.613 346.8 287.062 346.8 287.062 346.253 286.511 346.8 285.959 347.356 286.511 347.356 287.062 347.903"/><polygon class="cls-12" points="286.511 353.965 285.959 353.965 285.959 355.068 286.511 354.517 287.062 355.068 287.062 354.517 287.613 354.517 286.511 353.414 286.511 353.965"/><polygon class="cls-12" points="254.003 306.033 254.554 305.477 255.106 304.929 254.554 304.929 254.149 304.524 254.003 304.378 254.003 304.747 254.003 304.929 253.765 305.167 253.455 305.477 253.59 305.477 254.003 305.477 254.003 306.033"/><polygon class="cls-12" points="289.819 314.848 289.819 315.395 288.716 315.395 289.819 315.951 290.367 316.498 290.367 315.951 290.918 315.951 290.367 315.395 289.819 314.848"/><polygon class="cls-12" points="284.86 349.006 284.308 349.558 283.757 349.558 284.308 350.109 283.757 350.66 284.86 350.66 284.86 350.109 285.411 350.109 284.86 350.109 284.86 349.006"/><polygon class="cls-12" points="271.638 306.579 271.638 306.033 272.184 305.477 271.086 305.477 269.982 305.477 271.086 306.033 271.638 306.579"/><polygon class="cls-12" points="285.959 332.479 286.511 333.026 285.959 331.927 284.86 331.376 285.411 331.927 284.86 332.479 285.959 332.479"/><polygon class="cls-12" points="252.904 302.177 253.455 301.621 254.003 302.724 254.003 301.621 254.554 301.074 254.003 301.074 253.455 299.97 253.455 301.074 252.352 300.522 252.904 301.621 252.904 302.177"/><polygon class="cls-12" points="263.369 305.477 264.471 303.275 266.679 304.378 265.576 302.177 266.679 301.074 265.024 301.074 263.92 299.419 263.92 301.621 261.719 302.177 263.92 302.724 263.369 305.477"/><polygon class="cls-12" points="287.613 325.314 287.062 325.865 286.511 326.968 287.062 326.417 287.183 326.537 287.613 326.968 287.613 325.997 287.613 325.865 287.613 325.314"/><polygon class="cls-12" points="281.004 346.253 280.452 345.701 280.452 346.253 279.901 346.8 280.452 346.8 281.004 347.356 281.004 346.253"/><polygon class="cls-12" points="284.86 326.416 284.86 327.519 283.757 327.519 284.308 328.071 284.308 329.169 284.86 328.071 285.66 328.472 285.959 328.622 285.726 328.387 285.411 328.071 286.333 327.608 286.511 327.519 286.404 327.519 285.411 327.519 284.86 326.416"/><polygon class="cls-12" points="283.757 343.5 283.757 345.15 282.103 345.15 283.206 345.701 283.206 347.356 284.308 346.253 285.411 347.356 284.86 345.701 285.959 344.598 284.308 345.15 283.757 343.5"/><polygon class="cls-12" points="284.86 301.074 285.959 300.522 286.511 301.621 286.511 299.97 287.847 299.525 288.165 299.419 286.511 298.867 286.511 297.764 285.959 298.867 284.308 298.867 284.431 298.929 285.411 299.419 284.86 301.074"/><polygon class="cls-13" points="138.707 237.506 139.404 237.161 141.053 238.811 141.053 236.604 142.704 236.057 141.053 235.506 141.053 233.304 139.404 234.403 138.301 234.403 138.848 236.057 138.525 237.033 138.301 237.708 138.707 237.506"/></g></g></svg>