<svg height="512pt" viewBox="-90 0 512 512.00002" width="512pt" xmlns="http://www.w3.org/2000/svg"><path d="m208.160156 512v-74.414062h-42.523437l-20.015625 37.207031 20.015625 37.207031zm0 0" fill="#00aa95"/><path d="m165.636719 0-20.015625 46.121094 20.015625 38.859375c44.476562 0 80.660156 36.179687 80.660156 80.65625 0 44.476562-36.183594 80.660156-80.660156 80.660156l-20.015625 63.75 20.015625 63.75h42.523437v-48.042969c70.871094-18.773437 123.113282-83.339844 123.113282-160.117187 0-91.480469-74.15625-165.636719-165.636719-165.636719zm0 0" fill="#00aa95"/><g fill="#00ee8a"><path d="m123.113281 437.585938h42.523438v74.414062h-42.523438zm0 0"/><path d="m123.113281 246.296875h42.523438v127.5h-42.523438zm0 0"/><path d="m0 165.636719h84.980469c0-44.476563 36.179687-80.65625 80.65625-80.65625v-84.980469c-91.480469 0-165.636719 74.15625-165.636719 165.636719zm0 0"/></g></svg>