<svg xmlns="http://www.w3.org/2000/svg" xmlns:xlink="http://www.w3.org/1999/xlink" version="1.1" x="0px" y="0px" viewBox="0 0 100 125" style="enable-background:new 0 0 100 100;" xml:space="preserve"><path d="M88.1,23.9l-34.6-20c-2.2-1.3-5-1.3-7.2,0l-34.6,20C9.4,25.2,8,27.6,8,30.1v40c0,2.6,1.4,5,3.6,6.2l34.6,20  c1.1,0.6,2.3,1,3.6,1s2.5-0.3,3.6-1l34.6-20c2.2-1.3,3.6-3.7,3.6-6.2v-40C91.7,27.6,90.3,25.2,88.1,23.9z M53,67.5h-6.4V62H53V67.5z   M53.1,54.8V58h-6.4v-9.1h3.2c2.7,0,4.8-2.2,4.8-4.8s-2.2-4.8-4.8-4.8S45,41.4,45,44h-6.4c0-6.2,5.1-11.3,11.3-11.3  S61.1,37.8,61.1,44C61.1,49.1,57.7,53.4,53.1,54.8z"/></svg>