<svg id="Capa_1" enable-background="new 0 0 510.304 510.304" height="512" viewBox="0 0 510.304 510.304" width="512" xmlns="http://www.w3.org/2000/svg"><g id="XMLID_208_"><path id="XMLID_306_" d="m398.195 404.938h-7.217v-44.899c0-93.557-79.624-137.695-122.401-161.408-2.718-1.506-4.383-4.341-4.346-7.404.005-.392.007-.784.007-1.176 0-17.691-4.888-35.087-13.947-50.158 4.448-4.77 7.381-9.088 12.659-20.001 23.132-47.824 4.85-103.119 4.061-105.449l-4.894-14.443-14.36 5.13c-2.316.828-57.016 20.824-80.146 68.647-4.407 9.11-5.771 14.136-6.339 19.116-23.701 1.344-48.304 11.138-67.667 26.967-22.007 17.989-34.146 41.123-34.18 65.138-.051 35.662 21.652 51.371 37.499 62.841 4.634 3.354 9.011 6.522 12.32 9.756 6.056 5.916 7.824 15.243 4.399 23.211-7.725 17.981-11.643 37.092-11.643 56.801 0 28.166 5.36 51.499 16.617 71.416-22.394 5.543-39.043 25.809-39.043 49.891 0 28.336 23.054 51.39 51.39 51.39h267.231c29.05 0 52.684-23.633 52.684-52.683s-23.634-52.683-52.684-52.683zm-267.232 75.366c-11.794 0-21.39-9.595-21.39-21.39s9.596-21.39 21.39-21.39h78.605l-2.954-17.497c-.763-4.513-1.099-9.128-1.001-13.717.247-11.582 3.184-22.612 8.728-32.785l-26.341-14.356c-7.753 14.226-12.033 30.305-12.38 46.502-.013.617-.021 1.235-.022 1.853h-21.64c-15.13-18.103-21.958-40.067-21.958-69.917 0-15.614 3.098-30.739 9.207-44.957 8.287-19.282 3.867-41.994-10.997-56.515-4.893-4.779-10.384-8.754-15.694-12.598-14.034-10.158-25.118-18.182-25.09-38.497.047-33.124 39.976-60.654 74.293-62.235 3.101-.14 6.339-.058 9.617.251l13.65 1.288 2.505-13.48c1.031-5.545 1.239-9.25 1.392-11.956.2-3.579.275-4.917 3.735-12.069 11.1-22.95 32.967-38.075 47.844-46.204 2.865 16.717 4.582 43.244-6.518 66.192-4.734 9.787-5.704 10.761-9.783 14.858-1.638 1.645-3.676 3.691-6.294 6.565l-8.674 9.518 8.096 10.015c9.779 12.099 14.949 26.715 14.949 42.266l-.005.82c-.17 14.108 7.417 27.136 19.799 33.999 39.999 22.173 106.946 59.284 106.946 135.169v104.295c0 8.806-7.164 15.97-15.97 15.97h-214.045zm267.232 0h-10.082c1.85-4.977 2.865-10.357 2.865-15.97v-29.396h7.217c12.508 0 22.684 10.176 22.684 22.683s-10.176 22.683-22.684 22.683z"/><path id="XMLID_308_" d="m151.872 159.144c-7.846 0-15.363 6.899-15 15 .364 8.127 6.591 15 15 15 7.846 0 15.363-6.899 15-15-.364-8.128-6.591-15-15-15z"/></g></svg>