<?xml version="1.0" encoding="iso-8859-1"?>
<!-- Generator: Adobe Illustrator 19.0.0, SVG Export Plug-In . SVG Version: 6.00 Build 0)  -->
<svg version="1.1" id="Capa_1" xmlns="http://www.w3.org/2000/svg" xmlns:xlink="http://www.w3.org/1999/xlink" x="0px" y="0px"
	 viewBox="0 0 512 512" style="enable-background:new 0 0 512 512;" xml:space="preserve">
<g>
	<g>
		<circle cx="316" cy="256" r="15"/>
	</g>
</g>
<g>
	<g>
		<circle cx="196" cy="256" r="15"/>
	</g>
</g>
<g>
	<g>
		<path d="M226,421c-8.284,0-15,6.716-15,15s6.716,16,15,16s15-7.716,15-16S234.284,421,226,421z"/>
	</g>
</g>
<g>
	<g>
		<path d="M286,421c-8.284,0-15,6.716-15,15s6.716,16,15,16s15-7.716,15-16S294.284,421,286,421z"/>
	</g>
</g>
<g>
	<g>
		<path d="M502.152,38.116c-0.769-6.985-6.283-12.499-13.268-13.268c-40.985-4.519-81.188,9.603-110.311,38.726
			c-9.229,9.229-16.935,19.521-23.058,30.742c-11.008-8.334-23.047-15.255-35.912-20.614l3.929-19.876
			C329.106,25.956,307.779,0,279.406,0h-46.812c-28.438,0-49.685,26.032-44.133,53.792l3.936,19.91
			c-12.866,5.358-24.904,12.279-35.912,20.614c-6.124-11.221-13.83-21.514-23.059-30.742C104.304,34.451,64.1,20.333,23.116,24.848
			c-6.985,0.769-12.499,6.283-13.268,13.268c-4.513,40.98,9.603,81.188,38.726,110.311c13.951,13.95,30.667,24.582,48.983,31.293
			C93.226,194.595,91,210.129,91,226v14.583c0,56.535,25.404,88.064,47.404,121.063C146.645,374.008,151,388.394,151,403.25V436
			c0,41.463,33.535,76,75,76h60c41.464,0,75-34.535,75-76v-32.75c0-14.856,4.355-29.242,12.596-41.602
			C395.68,328.522,421,297.075,421,240.584V226c0-15.871-2.226-31.405-6.557-46.28c18.317-6.712,35.032-17.343,48.983-31.294
			C492.549,119.303,506.664,79.096,502.152,38.116z M232.594,30h46.812c9.435,0,16.573,8.618,14.702,17.975l-16.933,85.666
			C275.163,143.699,266.258,151,256,151c-10.258,0-19.163-7.301-21.168-17.326l-16.947-85.732C216.028,38.653,223.137,30,232.594,30
			z M69.787,127.213c-19.649-19.649-30.514-45.789-30.758-73.185c27.396,0.244,53.536,11.109,73.185,30.758
			c8.992,8.992,16.131,19.268,21.305,30.633c-9.779,10.859-18.215,23.062-24.949,36.388
			C94.061,146.606,80.817,138.243,69.787,127.213z M331,436c0,24.935-20.608,46-45,46h-60c-24.393,0-45-21.065-45-46v-23.787
			l0.754-0.754c19.832-19.832,46.2-30.754,74.246-30.754c28.047,0,54.415,10.922,74.247,30.754l0.754,0.754L331,436z M391,240.584
			c0,0.139-0.007,0.277-0.008,0.416H376c-8.284,0-15,6.716-15,15s6.716,14.9,15,14.9h11.533c-2.395,10.378-6.025,20.537-10.82,30.1
			H316c-8.284,0-15,6.716-15,15s6.716,15,15,15h41.972l-9.338,14.006c-6.375,9.563-11.08,19.994-14.023,30.921
			c-22.77-16.379-50.009-25.222-78.612-25.222c-28.602,0-55.842,8.843-78.612,25.222c-2.942-10.927-7.648-21.359-14.023-30.922
			L154.028,331H196c8.284,0,15-6.716,15-15s-6.716-15-15-15h-60.712c-4.795-9.563-8.425-19.622-10.821-30H136
			c8.284,0,15-6.716,15-15s-6.716-15-15-15h-14.992c0-0.139-0.008-0.277-0.008-0.417V226c0-5.06,0.298-10.062,0.843-15h71.251
			c8.284,0,15-6.716,15-15s-6.716-15-15-15h-64.413c12.092-34.371,37.391-61.942,69.68-77.127l7.047,35.651
			C210.214,163.557,231.491,181,256,181c24.508,0,45.785-17.443,50.599-41.509l7.04-35.618
			c31.942,15.022,57.454,42.377,69.68,77.127H317.01c-8.284,0-15,6.716-15,15s6.716,15,15,15h73.147
			c0.545,4.938,0.843,9.94,0.843,15V240.584z M403.432,151.808c-6.775-13.408-15.229-25.594-24.949-36.388
			c5.172-11.365,12.312-21.641,21.304-30.633c19.65-19.65,45.787-30.515,73.185-30.758c-0.244,27.396-11.109,53.536-30.758,73.185
			C431.183,138.244,417.941,146.607,403.432,151.808z"/>
	</g>
</g>
<g>
</g>
<g>
</g>
<g>
</g>
<g>
</g>
<g>
</g>
<g>
</g>
<g>
</g>
<g>
</g>
<g>
</g>
<g>
</g>
<g>
</g>
<g>
</g>
<g>
</g>
<g>
</g>
<g>
</g>
</svg>
