<?xml version="1.0" encoding="iso-8859-1"?>
<!-- Generator: Adobe Illustrator 19.0.0, SVG Export Plug-In . SVG Version: 6.00 Build 0)  -->
<svg version="1.1" id="Layer_1" xmlns="http://www.w3.org/2000/svg" xmlns:xlink="http://www.w3.org/1999/xlink" x="0px" y="0px"
	 viewBox="0 0 488 488" style="enable-background:new 0 0 488 488;" xml:space="preserve">
<path style="fill:#7D8B8C;" d="M454.4,290.4c-11.2,0-20-8.8-20-20c0-104-84.8-189.6-189.6-189.6c-104,0-189.6,84.8-189.6,189.6
	c0,11.2-8.8,20-20,20s-20-8.8-20-20C15.2,144,118.4,40.8,244.8,40.8S474.4,144,474.4,270.4C474.4,281.6,465.6,290.4,454.4,290.4z"/>
<path style="fill:#536060;" d="M244.8,80C128.8,80,32,167.2,17.6,279.2c3.2,6.4,10.4,11.2,18.4,11.2c11.2,0,20-8.8,20-20
	c0-104,84.8-189.6,189.6-189.6c104,0,189.6,84.8,189.6,189.6c0,11.2,8.8,20,20,20c8,0,14.4-4.8,18.4-11.2
	C457.6,166.4,360.8,80,244.8,80z"/>
<path style="fill:#394444;" d="M413.6,399.2c0,20,16.8,36.8,36.8,36.8h0.8c20,0,36.8-16.8,36.8-36.8v-80.8c0-20-16.8-36.8-36.8-36.8
	h-0.8c-20,0-36.8,16.8-36.8,36.8V399.2z"/>
<path style="fill:#2B3535;" d="M413.6,318.4v80.8c0,20,16.8,36.8,36.8,36.8h0.8c20,0,36.8-16.8,36.8-36.8v-80.8"/>
<path style="fill:#DB3B5E;" d="M368,413.6c0,18.4,15.2,33.6,33.6,33.6h31.2c18.4,0,33.6-15.2,33.6-33.6V284
	c0-18.4-15.2-33.6-33.6-33.6h-31.2c-18.4,0-33.6,15.2-33.6,33.6V413.6z"/>
<path style="fill:#C42C54;" d="M432.8,250.4h-31.2c-18.4,0-33.6,15.2-33.6,33.6v129.6c0,18.4,15.2,33.6,33.6,33.6h31.2
	c18.4,0,33.6-15.2,33.6-33.6"/>
<path style="fill:#394444;" d="M432.8,250.4h-31.2c-18.4,0-33.6,15.2-33.6,33.6v129.6c0,18.4,15.2,33.6,33.6,33.6h31.2"/>
<path style="fill:#2B3535;" d="M432.8,250.4h-40c-18.4,0-24.8,15.2-24.8,33.6v129.6c0,18.4,15.2,33.6,33.6,33.6"/>
<path style="fill:#394444;" d="M74.4,399.2c0,20-16.8,36.8-36.8,36.8h-0.8C16.8,436,0,419.2,0,399.2v-80.8c0-20,16.8-36.8,36.8-36.8
	h0.8c20,0,36.8,16.8,36.8,36.8C74.4,318.4,74.4,399.2,74.4,399.2z"/>
<path style="fill:#2B3535;" d="M74.4,318.4v80.8c0,20-16.8,36.8-36.8,36.8h-0.8C16.8,436,0,419.2,0,399.2v-80.8"/>
<path style="fill:#DB3B5E;" d="M120,413.6c0,18.4-15.2,33.6-33.6,33.6H55.2c-18.4,0-33.6-15.2-33.6-33.6V284
	c0-18.4,15.2-33.6,33.6-33.6h31.2c18.4,0,33.6,15.2,33.6,33.6V413.6z"/>
<path style="fill:#C42C54;" d="M55.2,250.4h31.2c18.4,0,33.6,15.2,33.6,33.6v129.6c0,18.4-15.2,33.6-33.6,33.6H55.2
	c-18.4,0-33.6-15.2-33.6-33.6"/>
<path style="fill:#394444;" d="M55.2,250.4h31.2c18.4,0,33.6,15.2,33.6,33.6v129.6c0,18.4-15.2,33.6-33.6,33.6H55.2"/>
<path style="fill:#2B3535;" d="M55.2,250.4h40c18.4,0,24.8,15.2,24.8,33.6v129.6c0,18.4-15.2,33.6-33.6,33.6"/>
<g>
</g>
<g>
</g>
<g>
</g>
<g>
</g>
<g>
</g>
<g>
</g>
<g>
</g>
<g>
</g>
<g>
</g>
<g>
</g>
<g>
</g>
<g>
</g>
<g>
</g>
<g>
</g>
<g>
</g>
</svg>
