<svg id="Layer_1" data-name="Layer 1" xmlns="http://www.w3.org/2000/svg" viewBox="0 0 622.92 158.38"><defs><style>.cls-1{fill:#3fa9f5;stroke:#3fa9f5;stroke-miterlimit:10;stroke-width:25px;}.cls-2{fill:#fff;}.cls-3{fill:#999;}</style></defs><path class="cls-1" d="M69.48,29.48a179.07,179.07,0,0,1-45,20c0,19.5,10.5,70.5,45,80,35.5-10.5,45-60.5,45-80A179,179,0,0,1,69.48,29.48Z"/><path class="cls-2" d="M114.47,49.48a114,114,0,0,1-3.27,25,122.27,122.27,0,0,1-4.57,15H59.84q-.5-1.07-.93-2.1a105.71,105.71,0,0,1-4.44-12.9H95.73c.31-1.14.6-2.3.88-3.47,1-4.08,1.61-7.75,2-10.88A188.66,188.66,0,0,1,69.47,46.84c-5.52,3.08-11,5.8-16.47,8.23-4.15,1.83-8.34,3.5-12.65,5a115.26,115.26,0,0,0,7.49,27.27c4,9.47,10.89,21.16,21.53,26.13,6.46-3,11.53-8.23,15.45-14H102.2c-7,13.61-17.43,25.48-32.73,30-34.5-9.5-45-60.5-45-80a179,179,0,0,0,22.46-8.12A194.44,194.44,0,0,0,69.47,29.48,179.17,179.17,0,0,0,114.47,49.48Z"/><path class="cls-3" d="M613.72,41.08l-16.85,101.6H114.47c9.12-9.45,16.74-21.29,22.62-35.32,8.92-21.29,12.1-43.86,12.1-57.87V41.08Z"/><path class="cls-2" d="M181.42,97.64a20.78,20.78,0,0,1-10.86-10.86,20.71,20.71,0,0,1,0-16,20.78,20.78,0,0,1,10.86-10.86,19.87,19.87,0,0,1,8-1.61h93.46a7.39,7.39,0,1,1,0,14.78H189.12A5.86,5.86,0,0,0,185,74.7a5.28,5.28,0,0,0-1.77,4.08,5.35,5.35,0,0,0,1.77,4,5.72,5.72,0,0,0,4.08,1.69h85.15a20.25,20.25,0,0,1,8.08,1.62A20.38,20.38,0,0,1,293.29,97a20.29,20.29,0,0,1,1.61,8.09,19.69,19.69,0,0,1-1.61,8,20.87,20.87,0,0,1-4.39,6.47,19.5,19.5,0,0,1-6.55,4.31,21.1,21.1,0,0,1-8.08,1.54H181a7.39,7.39,0,1,1,0-14.78h93.93a5.59,5.59,0,0,0,4-1.62,5.19,5.19,0,0,0,1.69-3.92,5.66,5.66,0,0,0-1.69-4.16,5.46,5.46,0,0,0-4-1.69H189.43A19.7,19.7,0,0,1,181.42,97.64Z"/><path class="cls-2" d="M342,73.08a17.26,17.26,0,0,0-8.7,1.92,16.05,16.05,0,0,0-5.23,4.7,16.39,16.39,0,0,0-2.62,6.08,27.18,27.18,0,0,0,0,12.17,16.32,16.32,0,0,0,2.62,6.08,16.05,16.05,0,0,0,5.23,4.7,17.26,17.26,0,0,0,8.7,1.92h84.85a7.39,7.39,0,1,1,0,14.78H337.1a20.72,20.72,0,0,1-11.25-3.08,29.3,29.3,0,0,1-8.39-7.93,37.41,37.41,0,0,1-5.31-10.85,39.81,39.81,0,0,1-1.85-11.7,37.78,37.78,0,0,1,1.93-11.78,35.63,35.63,0,0,1,5.62-10.78,30.51,30.51,0,0,1,8.93-7.93,22.87,22.87,0,0,1,11.86-3.08h88.23a7.39,7.39,0,1,1,0,14.78Zm83.61,13.55a7.4,7.4,0,0,1-5.23,12.63H343.72a7.4,7.4,0,1,1,0-14.79H420.4A7.1,7.1,0,0,1,425.63,86.63Z"/><path class="cls-2" d="M445.81,91.87a38.05,38.05,0,0,1,1.92-11.78,35.86,35.86,0,0,1,5.62-10.78,30.63,30.63,0,0,1,8.93-7.93,22.9,22.9,0,0,1,11.86-3.08h89.77a7.39,7.39,0,1,1,0,14.78H477.37a17.26,17.26,0,0,0-8.7,1.92,16.05,16.05,0,0,0-5.23,4.7,16.39,16.39,0,0,0-2.62,6.08,27.18,27.18,0,0,0,0,12.17,16.32,16.32,0,0,0,2.62,6.08,16.05,16.05,0,0,0,5.23,4.7,17.26,17.26,0,0,0,8.7,1.92h86.54a7.39,7.39,0,1,1,0,14.78H472.6a20.69,20.69,0,0,1-11.24-3.08,29.17,29.17,0,0,1-8.39-7.93,37.41,37.41,0,0,1-5.31-10.85A39.49,39.49,0,0,1,445.81,91.87Z"/></svg>