<?xml version="1.0" standalone="no"?>
<!DOCTYPE svg PUBLIC "-//W3C//DTD SVG 20010904//EN"
 "http://www.w3.org/TR/2001/REC-SVG-20010904/DTD/svg10.dtd">
<svg version="1.0" xmlns="http://www.w3.org/2000/svg"
 width="1280.000000pt" height="1207.000000pt" viewBox="0 0 1280.000000 1207.000000"
 preserveAspectRatio="xMidYMid meet">
<metadata>
Created by potrace 1.16, written by Peter Selinger 2001-2019
</metadata>
<g transform="translate(0.000000,1207.000000) scale(0.100000,-0.100000)"
fill="#ffffff" stroke="none">
<path d="M5925 10888 c-369 -41 -743 -177 -1041 -376 -125 -84 -298 -231 -353
-300 l-32 -41 58 -27 c209 -98 357 -441 268 -620 -33 -66 -71 -88 -140 -81
-103 11 -215 85 -383 253 -62 63 -114 114 -117 114 -2 0 10 -30 28 -67 55
-119 47 -233 -22 -282 -96 -68 -204 -27 -303 117 -36 52 -47 49 -20 -5 32 -62
70 -196 81 -280 18 -146 -17 -281 -90 -347 -105 -96 -232 -34 -328 160 -45 91
-85 246 -106 405 l-6 47 -67 -15 c-119 -26 -331 -102 -448 -159 -516 -255
-965 -757 -1149 -1285 -39 -114 -65 -238 -65 -316 l0 -55 48 36 c76 58 223
143 305 176 181 72 388 94 542 56 160 -40 312 -143 401 -272 l39 -56 20 28
c186 257 363 374 567 374 135 0 251 -42 373 -134 33 -25 63 -46 68 -46 4 0 7
14 7 30 0 75 90 175 208 231 74 35 235 79 289 79 37 0 126 -40 200 -92 67 -45
222 -197 310 -301 40 -48 73 -85 73 -81 0 4 -20 64 -44 133 -54 154 -85 294
-93 415 -9 143 -2 157 140 300 103 104 134 129 200 161 93 46 176 57 228 31
18 -9 33 -16 35 -16 1 0 0 55 -3 123 -6 142 8 220 58 319 38 75 132 172 209
215 86 49 227 92 345 105 58 7 105 16 105 20 0 5 -11 30 -24 56 -43 85 -60
160 -60 267 -2 353 243 649 694 842 24 10 21 13 -60 52 -175 84 -392 122 -683
120 -100 -1 -218 -6 -262 -11z"/>
<path d="M8755 8654 c-22 -2 -96 -9 -165 -14 -837 -72 -1665 -382 -2293 -858
-154 -116 -288 -235 -442 -392 l-140 -143 50 -17 c153 -52 289 -156 404 -311
156 -207 251 -494 238 -719 -10 -180 -68 -294 -173 -346 -138 -67 -331 -8
-581 180 -109 82 -377 337 -473 450 -30 36 -58 65 -62 65 -4 1 16 -46 43 -103
144 -302 109 -515 -100 -618 -35 -18 -63 -23 -121 -23 -65 0 -85 4 -144 34
-85 41 -190 144 -265 259 -57 87 -77 103 -41 32 70 -136 146 -383 170 -548 18
-123 8 -357 -20 -452 -65 -223 -213 -361 -373 -347 -156 14 -318 166 -429 404
-84 180 -157 457 -192 732 -9 69 -18 127 -21 129 -7 7 -241 -48 -375 -88 -913
-274 -1730 -885 -2327 -1740 -319 -457 -553 -989 -617 -1400 -17 -112 -31
-290 -22 -290 3 0 50 33 103 74 54 40 139 99 188 130 114 73 363 195 479 235
714 249 1392 69 1748 -464 33 -49 63 -91 67 -92 3 -2 24 25 46 59 169 262 422
498 659 613 241 118 466 139 715 69 129 -36 327 -139 457 -237 l111 -85 6 65
c15 191 207 377 502 486 112 41 207 68 353 97 136 27 137 27 190 9 92 -32 243
-117 357 -201 141 -105 456 -419 590 -590 55 -69 102 -125 103 -123 2 2 -19
63 -46 137 -110 294 -173 528 -207 773 -16 110 -19 359 -6 417 11 46 146 213
286 353 282 282 566 410 776 349 30 -9 65 -22 77 -31 13 -8 26 -12 29 -9 3 3
-1 45 -8 93 -18 127 -16 359 5 467 99 511 505 829 1166 912 63 8 138 14 167
14 29 0 53 2 53 4 0 3 -18 37 -39 78 -48 89 -92 214 -117 328 -14 64 -18 126
-18 250 0 142 4 181 26 276 118 502 485 930 1043 1214 72 37 169 82 217 101
49 19 87 38 85 44 -5 15 -178 100 -274 135 -198 71 -436 125 -683 155 -127 15
-638 29 -735 19z m-3105 -3060 c11 -36 20 -74 20 -84 0 -46 -81 -95 -194 -115
l-38 -8 34 54 c88 137 144 219 150 219 4 0 16 -30 28 -66z m-369 -323 c-40
-50 -104 -107 -129 -115 -10 -4 -31 -2 -46 3 -31 13 -116 89 -116 105 0 11
192 40 293 45 l29 1 -31 -39z"/>
<path d="M11682 6389 c-194 -16 -426 -81 -593 -164 -106 -54 -243 -151 -334
-237 -47 -44 -85 -84 -85 -88 0 -4 19 -15 41 -26 177 -79 268 -406 130 -464
-63 -26 -155 25 -293 160 -49 47 -88 83 -88 79 0 -4 9 -26 20 -50 24 -54 26
-126 4 -158 -22 -30 -72 -51 -108 -44 -28 6 -95 64 -130 113 -19 28 -19 28 22
-85 21 -57 26 -88 27 -170 0 -89 -3 -105 -25 -143 -44 -78 -114 -94 -175 -41
-65 57 -115 167 -135 298 -20 121 -16 114 -58 106 -206 -38 -474 -179 -662
-347 -190 -171 -367 -434 -439 -655 -22 -69 -47 -220 -38 -230 4 -3 20 6 37
21 92 77 260 149 382 164 186 23 372 -52 455 -183 15 -24 30 -44 33 -45 3 0
27 30 54 66 110 149 267 228 405 202 58 -10 144 -50 200 -92 l35 -26 18 46 c9
26 27 58 40 71 49 53 239 120 307 109 52 -8 150 -78 242 -173 47 -49 95 -101
107 -117 12 -16 24 -27 27 -25 2 3 -7 35 -20 71 -63 173 -88 342 -61 400 24
51 161 180 225 212 53 27 118 32 161 13 13 -6 15 9 15 106 0 107 2 116 33 179
67 136 177 198 413 233 l36 5 -25 63 c-103 254 45 539 358 691 47 22 87 42 89
44 9 5 -36 31 -87 51 -133 52 -366 76 -560 60z"/>
</g>
</svg>
