<?xml version="1.0" standalone="no"?>
<!DOCTYPE svg PUBLIC "-//W3C//DTD SVG 20010904//EN"
 "http://www.w3.org/TR/2001/REC-SVG-20010904/DTD/svg10.dtd">
<svg version="1.0" xmlns="http://www.w3.org/2000/svg"
 width="1280.000000pt" height="1233.000000pt" viewBox="0 0 1280.000000 1233.000000"
 preserveAspectRatio="xMidYMid meet">
<metadata>
Created by potrace 1.16, written by Peter Selinger 2001-2019
</metadata>
<g transform="translate(0.000000,1233.000000) scale(0.100000,-0.100000)"
fill="#ffffff" stroke="none">
<path d="M2320 10783 c-507 -54 -964 -268 -1336 -626 -471 -453 -715 -1057
-691 -1711 21 -573 230 -1059 640 -1492 299 -316 726 -553 1149 -638 195 -40
327 -50 552 -42 111 4 219 9 241 12 l40 5 155 -176 c85 -96 174 -189 197 -205
149 -107 346 -127 508 -51 52 24 162 111 281 223 l32 30 803 -899 c442 -494
818 -914 836 -934 l32 -36 -711 -794 c-391 -437 -742 -829 -780 -872 -61 -69
-68 -81 -68 -120 0 -23 8 -54 18 -69 15 -23 485 -451 556 -506 21 -16 42 -22
77 -22 42 0 54 5 83 32 19 18 357 392 751 831 l718 799 27 -29 c15 -15 335
-372 710 -793 375 -421 700 -782 721 -802 34 -34 44 -38 88 -38 39 0 56 6 83
27 94 78 527 460 551 486 38 44 38 112 0 159 -16 18 -364 408 -776 866 -473
527 -745 837 -740 845 7 12 1584 1789 1629 1836 l23 24 66 -59 c186 -165 237
-196 368 -222 101 -20 210 -7 304 37 89 42 120 70 288 261 l150 170 80 -7 c44
-5 184 -8 310 -7 255 0 384 17 593 75 878 247 1539 1034 1633 1946 15 146 7
462 -16 593 -80 475 -286 882 -618 1219 -357 362 -785 581 -1297 662 -129 21
-547 18 -675 -4 -418 -73 -766 -230 -1090 -490 -109 -88 -287 -272 -372 -387
-396 -529 -542 -1221 -392 -1858 10 -46 16 -89 12 -96 -5 -7 -75 -88 -157
-180 -82 -91 -162 -185 -178 -209 -61 -91 -88 -228 -68 -344 23 -141 70 -207
272 -389 l77 -69 -795 -885 c-437 -487 -798 -888 -802 -892 -7 -7 -1603 1763
-1604 1777 0 4 53 55 119 114 127 115 169 169 203 259 27 71 36 189 21 265
-23 108 -69 179 -246 376 -105 117 -163 191 -160 200 12 40 44 205 56 286 20
131 17 472 -4 610 -102 660 -446 1201 -992 1561 -295 194 -612 312 -968 359
-108 14 -417 19 -517 8z m411 -233 c226 -23 464 -86 654 -173 443 -203 785
-532 990 -952 143 -293 205 -559 205 -885 0 -188 -16 -321 -61 -499 -19 -77
-28 -136 -25 -155 4 -22 63 -95 198 -246 105 -118 199 -233 209 -255 24 -53
24 -147 0 -200 -23 -51 -36 -64 -666 -625 -294 -262 -548 -481 -570 -491 -58
-27 -147 -25 -210 5 -41 19 -83 60 -238 233 -109 122 -200 216 -217 223 -23
10 -51 9 -147 -6 -160 -25 -446 -25 -598 0 -428 69 -784 244 -1088 536 -293
281 -489 609 -581 978 -79 313 -79 670 0 983 172 686 701 1241 1379 1450 127
39 236 59 440 83 68 7 229 5 326 -4z m7851 -19 c264 -46 501 -133 718 -265
493 -301 832 -777 945 -1328 116 -570 -10 -1137 -358 -1608 -82 -111 -260
-296 -367 -383 -439 -354 -1000 -506 -1565 -422 -80 12 -115 13 -139 5 -23 -7
-85 -69 -220 -221 -157 -176 -197 -215 -240 -235 -69 -32 -153 -32 -222 0 -36
17 -198 156 -570 491 -621 560 -639 577 -660 632 -20 52 -15 142 10 194 9 20
103 132 207 249 104 117 192 224 195 236 8 31 2 70 -24 169 -38 142 -54 256
-59 431 -8 258 21 456 102 701 250 750 920 1282 1730 1373 121 13 383 4 517
-19z m-4107 -6004 c1012 -1128 1840 -2056 1840 -2063 0 -7 -49 -57 -110 -110
-60 -53 -140 -123 -177 -156 l-66 -59 -719 803 c-395 441 -738 826 -763 854
-25 29 -522 585 -1105 1235 -583 651 -1070 1195 -1082 1210 l-22 26 172 156
c95 86 177 156 182 156 6 0 838 -923 1850 -2052z m1894 1894 c147 -133 169
-156 159 -170 -31 -38 -1622 -1826 -1627 -1829 -4 -1 -80 79 -170 178 -146
161 -161 182 -149 198 37 51 1601 1783 1608 1780 5 -2 85 -72 179 -157z
m-2275 -2555 c81 -88 145 -163 144 -167 -2 -4 -317 -356 -701 -783 l-698 -775
-175 157 c-96 86 -172 162 -170 169 3 7 323 368 713 802 667 745 709 790 724
773 10 -9 83 -89 163 -176z"/>
<path d="M2934 9729 c-105 -13 -203 -90 -252 -197 -32 -70 -35 -172 -9 -249
24 -69 93 -145 165 -180 50 -24 69 -28 147 -28 74 0 98 4 137 23 74 37 134 96
169 168 28 57 33 76 33 142 -1 212 -167 349 -390 321z m133 -264 c32 -36 29
-77 -7 -119 -38 -42 -71 -51 -114 -31 -65 31 -74 99 -21 152 32 32 39 35 78
30 28 -4 49 -14 64 -32z"/>
<path d="M1561 8515 c-71 -20 -110 -45 -165 -106 -155 -172 -92 -449 119 -528
78 -30 196 -26 268 9 66 31 133 100 165 168 23 48 27 71 27 142 0 73 -4 93
-28 141 -32 66 -100 132 -162 160 -61 27 -157 33 -224 14z m141 -236 c11 -6
26 -26 34 -45 12 -30 12 -39 0 -69 -31 -72 -113 -93 -165 -40 -37 37 -34 86 9
130 36 37 81 46 122 24z"/>
<path d="M2710 8333 c-67 -46 -69 -74 -20 -273 23 -91 59 -246 80 -345 35
-166 40 -181 69 -207 34 -31 94 -38 134 -16 33 17 524 456 531 474 12 30 6 95
-11 121 -9 14 -33 32 -53 41 -98 41 -646 222 -673 222 -18 0 -44 -8 -57 -17z
m353 -324 c53 -18 97 -36 96 -39 -1 -7 -163 -149 -167 -145 -3 2 -52 214 -52
223 0 2 6 2 13 0 6 -3 56 -20 110 -39z"/>
<path d="M4307 7560 c-40 -35 -51 -76 -34 -124 11 -33 210 -262 283 -325 28
-25 44 -31 80 -31 39 0 51 5 80 34 29 29 34 41 34 80 0 51 8 40 -173 241 -59
66 -120 128 -135 137 -43 28 -95 23 -135 -12z"/>
<path d="M4093 7366 c-54 -25 -80 -86 -60 -144 7 -18 75 -102 151 -187 154
-171 178 -187 248 -166 64 20 98 103 66 164 -12 23 -213 250 -270 305 -41 38
-89 48 -135 28z"/>
<path d="M3825 7118 c-19 -18 -35 -44 -36 -58 -5 -69 0 -78 140 -233 77 -85
150 -162 163 -171 12 -9 42 -16 66 -16 37 0 50 6 78 34 45 45 48 106 7 158
-73 90 -267 297 -289 307 -47 21 -92 14 -129 -21z"/>
<path d="M3605 6930 c-54 -22 -87 -97 -67 -150 5 -14 73 -96 151 -182 155
-171 182 -189 245 -168 72 24 105 103 69 167 -28 49 -283 323 -310 334 -29 11
-61 11 -88 -1z"/>
<path d="M3344 6691 c-42 -26 -61 -80 -45 -130 11 -37 263 -324 305 -348 30
-17 98 -16 124 3 51 35 66 107 33 159 -27 43 -269 308 -294 322 -33 18 -88 15
-123 -6z"/>
<path d="M9768 9728 c-170 -22 -278 -147 -278 -323 0 -139 60 -239 178 -297
60 -30 75 -33 157 -33 81 0 95 3 143 29 66 37 116 92 151 165 35 75 37 201 4
272 -62 136 -197 207 -355 187z m106 -249 c39 -30 49 -63 32 -102 -29 -69 -90
-90 -144 -50 -54 41 -54 120 1 153 42 26 78 25 111 -1z"/>
<path d="M11071 8515 c-69 -19 -109 -45 -156 -96 -60 -66 -79 -120 -79 -219 0
-66 5 -96 21 -132 29 -63 106 -144 168 -176 44 -24 61 -27 150 -27 85 0 106 3
143 23 63 33 114 84 148 144 27 49 29 61 29 153 0 89 -3 106 -27 150 -32 62
-114 140 -173 166 -61 27 -157 33 -224 14z m145 -241 c29 -19 54 -63 54 -95 0
-11 -15 -36 -34 -55 -19 -19 -44 -34 -55 -34 -32 0 -76 25 -95 54 -56 87 43
186 130 130z"/>
<path d="M9685 8240 c-170 -60 -321 -115 -333 -122 -53 -28 -68 -113 -29 -166
21 -30 456 -420 507 -455 52 -36 147 -13 169 40 10 27 38 152 117 536 31 151
33 171 20 200 -19 47 -49 69 -98 73 -35 3 -104 -18 -353 -106z m181 -207 c-2
-10 -12 -56 -21 -103 -9 -47 -18 -91 -21 -98 -2 -9 -34 14 -90 64 l-85 78 103
37 c121 44 121 44 114 22z"/>
<path d="M8360 7576 c-27 -15 -266 -291 -289 -333 -21 -41 -8 -103 29 -135 36
-33 100 -38 142 -10 15 9 86 86 158 171 129 152 130 154 130 203 0 43 -4 54
-34 84 -27 27 -42 34 -72 34 -22 -1 -50 -7 -64 -14z"/>
<path d="M8619 7366 c-29 -17 -289 -298 -307 -333 -44 -81 34 -185 124 -168
43 8 62 25 218 199 126 141 143 170 131 225 -14 67 -107 110 -166 77z"/>
<path d="M8853 7137 c-28 -16 -280 -293 -300 -331 -39 -74 16 -166 100 -166
66 1 57 -7 279 241 98 110 111 143 83 203 -28 59 -106 84 -162 53z"/>
<path d="M9100 6928 c-14 -8 -87 -85 -162 -173 -153 -177 -165 -202 -132 -265
11 -21 35 -43 57 -54 33 -16 45 -17 78 -7 32 10 62 38 170 164 147 170 165
199 155 249 -13 71 -105 118 -166 86z"/>
<path d="M9337 6690 c-63 -50 -295 -318 -302 -349 -9 -41 10 -96 42 -121 30
-23 95 -26 131 -6 13 7 86 82 163 167 142 157 159 187 145 243 -12 49 -48 78
-102 83 -40 4 -54 1 -77 -17z"/>
</g>
</svg>
