<?xml version="1.0" standalone="no"?>
<!DOCTYPE svg PUBLIC "-//W3C//DTD SVG 20010904//EN"
 "http://www.w3.org/TR/2001/REC-SVG-20010904/DTD/svg10.dtd">
<svg version="1.0" xmlns="http://www.w3.org/2000/svg"
 width="1268.000000pt" height="1383.000000pt" viewBox="0 0 1268.000000 1383.000000"
 preserveAspectRatio="xMidYMid meet">
<metadata>
Created by potrace 1.16, written by Peter Selinger 2001-2019
</metadata>
<g transform="translate(0.000000,1383.000000) scale(0.100000,-0.100000)"
fill="#ffffff" stroke="none">
<path d="M5795 13504 c-22 -2 -92 -9 -155 -15 -557 -53 -1076 -223 -1521 -499
-230 -143 -536 -409 -717 -625 -523 -623 -857 -1449 -1007 -2488 -56 -393 -77
-699 -78 -1158 l-1 -346 -266 88 c-160 53 -297 93 -345 100 -311 43 -633 -122
-779 -400 -28 -53 -445 -1263 -523 -1516 -28 -94 -26 -315 5 -415 42 -133 97
-226 192 -321 96 -97 185 -154 306 -195 114 -39 303 -46 424 -15 110 27 228
86 310 154 154 127 204 225 356 690 21 64 41 117 44 117 3 0 71 -22 150 -48
l145 -49 0 -1339 c0 -1306 0 -1341 -20 -1419 -19 -77 -20 -113 -20 -880 0
-859 0 -855 52 -1015 74 -225 243 -431 446 -544 252 -141 574 -148 832 -19
101 51 150 86 243 177 l82 80 67 -73 c125 -138 288 -237 463 -282 120 -31 310
-31 430 0 168 44 335 143 451 269 l56 60 54 -55 c109 -111 268 -203 424 -244
103 -27 307 -30 407 -6 180 44 329 128 458 258 l76 77 46 -57 c179 -224 496
-354 787 -322 221 24 407 116 564 280 l69 71 26 -33 c240 -299 630 -406 969
-265 292 121 506 411 558 758 13 80 15 417 15 2205 l0 2110 92 33 c50 18 92
31 94 29 2 -1 41 -116 88 -254 47 -139 97 -276 112 -305 94 -188 246 -319 454
-389 87 -30 105 -33 225 -33 143 -1 221 14 332 64 206 93 367 285 424 508 25
97 28 269 6 362 -28 118 -486 1453 -526 1535 -74 148 -192 265 -346 340 -118
57 -181 70 -345 70 l-145 -1 -218 -73 c-120 -40 -220 -71 -222 -69 -2 2 5 80
15 173 123 1100 11 2170 -311 2990 -182 465 -423 846 -738 1169 -552 565
-1242 876 -2178 982 -130 15 -784 28 -888 18z m615 -424 c1288 -79 2156 -605
2663 -1615 226 -450 366 -976 432 -1625 22 -212 31 -811 16 -1055 -13 -209
-44 -503 -66 -635 -20 -113 -22 -580 -2 -580 6 0 226 73 487 162 442 150 480
161 550 162 61 0 86 -5 132 -26 70 -32 141 -96 167 -151 11 -23 127 -355 257
-737 234 -686 237 -696 238 -780 1 -74 -3 -93 -27 -142 -34 -69 -94 -131 -162
-166 -44 -24 -61 -27 -150 -27 -89 0 -106 3 -150 27 -49 25 -131 103 -153 145
-6 11 -79 222 -163 469 -84 247 -153 450 -154 452 -1 1 -200 -65 -441 -146
l-439 -149 -5 -2299 -5 -2299 -23 -65 c-130 -361 -484 -467 -720 -216 -63 68
-101 137 -147 269 l-27 77 -211 -2 -210 -3 -36 -90 c-64 -159 -120 -236 -222
-304 -194 -129 -429 -103 -600 68 -68 68 -103 126 -154 259 l-28 72 -219 0
c-142 0 -218 -4 -218 -10 0 -31 -104 -222 -147 -270 -126 -140 -307 -199 -478
-155 -84 22 -150 61 -222 132 -52 52 -73 83 -120 183 l-58 120 -190 0 -191 0
-34 -92 c-64 -170 -150 -272 -289 -341 -84 -42 -85 -42 -195 -42 -91 1 -120 5
-165 23 -149 63 -253 179 -321 360 l-34 92 -217 0 -217 0 -38 -90 c-94 -222
-248 -344 -450 -357 -139 -9 -257 38 -365 146 -45 46 -77 89 -102 141 -70 143
-68 111 -65 976 l3 779 23 59 22 59 0 1512 0 1512 -496 168 c-283 96 -499 164
-504 159 -5 -5 -75 -205 -156 -444 -80 -239 -153 -448 -161 -463 -8 -16 -31
-47 -51 -69 -125 -139 -325 -155 -472 -38 -81 64 -139 203 -125 298 10 68 480
1455 508 1499 33 53 101 111 156 136 28 12 75 22 121 25 l75 4 564 -191 c310
-105 566 -189 568 -187 3 3 -5 91 -16 198 -104 965 -6 2032 264 2853 233 711
588 1260 1061 1641 194 156 503 332 734 417 466 172 995 242 1570 207z"/>
<path d="M3317 9870 c-21 -6 -65 -28 -97 -50 -64 -44 -64 -44 -94 -190 -39
-194 -43 -401 -10 -592 89 -525 499 -904 1113 -1028 232 -46 523 -51 717 -11
340 70 738 285 949 513 117 126 166 231 167 356 0 63 -5 83 -32 138 -55 112
-156 173 -491 297 -567 211 -1457 470 -1879 547 -135 24 -289 33 -343 20z
m433 -476 c323 -70 803 -208 1270 -363 248 -82 553 -194 569 -208 12 -9 -104
-111 -198 -174 -166 -112 -361 -197 -536 -234 -83 -17 -327 -20 -442 -4 -477
65 -798 315 -873 681 -20 93 -28 326 -13 342 8 8 10 7 223 -40z"/>
<path d="M8780 9865 c-541 -85 -1875 -486 -2252 -676 -180 -91 -251 -256 -189
-435 75 -214 390 -477 758 -635 210 -90 373 -128 583 -136 506 -19 954 132
1246 422 234 231 344 514 344 885 0 148 -15 274 -47 412 -18 76 -20 78 -76
118 -32 22 -77 45 -100 50 -57 13 -164 11 -267 -5z m66 -491 c25 -238 -52
-484 -202 -643 -200 -213 -503 -323 -889 -323 -160 0 -235 12 -373 57 -101 34
-278 121 -372 183 -99 66 -222 171 -217 185 10 31 620 239 1117 382 349 101
840 222 907 224 19 1 22 -6 29 -65z"/>
<path d="M5935 7939 c-140 -13 -275 -51 -410 -118 -386 -191 -653 -555 -757
-1031 -20 -93 -23 -132 -22 -340 0 -205 3 -248 22 -336 48 -222 155 -463 276
-625 161 -214 394 -388 620 -464 139 -47 212 -58 376 -59 168 0 264 15 395 61
247 89 475 265 634 488 71 102 166 290 205 410 157 485 87 1028 -185 1435 -80
120 -234 280 -346 359 -238 170 -518 246 -808 220z m256 -434 c426 -90 739
-534 739 -1049 0 -590 -395 -1067 -884 -1066 -125 0 -205 19 -321 74 -625 297
-759 1286 -245 1804 202 203 462 289 711 237z"/>
</g>
</svg>
