<svg xmlns="http://www.w3.org/2000/svg" xmlns:xlink="http://www.w3.org/1999/xlink" version="1.1" x="0px" y="0px" viewBox="0 0 100 125" enable-background="new 0 0 100 100" xml:space="preserve"><g><path fill="none" stroke="#000000" stroke-width="3.2445" stroke-miterlimit="10" d="M90.028,58.21l-3.574-10.565   c-0.771-2.28-3.245-3.503-5.526-2.732c-0.103,0.035-0.2,0.077-0.299,0.118c-0.103,0.028-0.206,0.053-0.309,0.087l-4.493,1.52   v-1.545c0,0,7.685-40.99-27.645-40.957c-32.123-0.024-27.909,40.17-27.83,40.9l-5.415-1.832c-0.102-0.035-0.206-0.06-0.309-0.087   c-0.098-0.041-0.196-0.083-0.299-0.118c-2.28-0.771-4.754,0.452-5.526,2.732L5.231,56.296c-0.771,2.28,0.452,4.754,2.732,5.526   s4.754-0.452,5.526-2.732l1.766-5.222l5.1,1.725v22.126c-0.249,0.686-0.391,1.431-0.391,2.212v10.583   c0,3.36,2.53,6.083,5.652,6.083c2.286,0,4.25-1.464,5.14-3.565l1.076,0c0.839,2.229,2.866,3.802,5.237,3.802   c2.371,0,4.397-1.573,5.237-3.801l0.695,0c0.891,2.101,2.854,3.564,5.139,3.564c2.285,0,4.248-1.462,5.139-3.562l1.078,0   c0.839,2.227,2.866,3.799,5.236,3.799c2.37,0,4.396-1.572,5.235-3.798l0.909,0c0.77,2.244,2.657,3.832,4.866,3.831   c2.891-0.002,5.233-2.722,5.23-6.074l-0.004-5.281v-28.32l4.176-1.413l1.766,5.222c0.771,2.28,3.245,3.503,5.526,2.732   C89.576,62.964,90.799,60.49,90.028,58.21z M26.224,35.88c-0.045-1.133,0.075-2.231,0.334-3.268   c1.018-0.807,17.433,4.171,19.222,5.519c1.789,1.349-3.947,5.796-8.457,5.974C31.846,44.322,26.459,41.82,26.224,35.88z    M47.63,67.631c-4.74,0-8.583-4.477-8.583-10s3.843-10,8.583-10c4.74,0,8.583,4.477,8.583,10S52.37,67.631,47.63,67.631z    M60.175,44.03c-4.492-0.209-10.231-4.695-8.458-6.032c1.773-1.337,18.086-6.203,19.105-5.388c0.264,1.039,0.39,2.138,0.353,3.27   C70.978,41.818,65.63,44.284,60.175,44.03z"/><path fill="none" stroke="#000000" stroke-width="3.2445" stroke-miterlimit="10" d="M45.78,38.132   c-1.789-1.349-18.204-6.327-19.222-5.519c-0.259,1.037-0.378,2.135-0.334,3.268c0.235,5.94,5.621,8.442,11.099,8.226   C41.834,43.928,47.569,39.48,45.78,38.132z"/><path fill="none" stroke="#000000" stroke-width="3.2445" stroke-miterlimit="10" d="M51.716,37.998   c-1.773,1.337,3.966,5.823,8.458,6.032c5.455,0.254,10.803-2.212,10.999-8.15c0.037-1.133-0.088-2.231-0.353-3.27   C69.802,31.795,53.489,36.662,51.716,37.998z"/><ellipse fill="none" stroke="#000000" stroke-width="3.2445" stroke-miterlimit="10" cx="47.63" cy="57.631" rx="8.583" ry="10"/></g><text x="0" y="115" fill="#000000" font-size="5px" font-weight="bold" font-family="'Helvetica Neue', Helvetica, Arial-Unicode, Arial, Sans-serif">Created by Manuel Nilsson</text><text x="0" y="120" fill="#000000" font-size="5px" font-weight="bold" font-family="'Helvetica Neue', Helvetica, Arial-Unicode, Arial, Sans-serif">from the Noun Project</text></svg>