<?xml version="1.0" standalone="no"?>
<!DOCTYPE svg PUBLIC "-//W3C//DTD SVG 20010904//EN"
 "http://www.w3.org/TR/2001/REC-SVG-20010904/DTD/svg10.dtd">
<svg version="1.0" xmlns="http://www.w3.org/2000/svg"
 width="1280.000000pt" height="1296.000000pt" viewBox="0 0 1280.000000 1296.000000"
 preserveAspectRatio="xMidYMid meet">
<metadata>
Created by potrace 1.16, written by Peter Selinger 2001-2019
</metadata>
<g transform="translate(0.000000,1296.000000) scale(0.100000,-0.100000)"
fill="#fffffff" stroke="none">
<path d="M6413 12945 c-172 -47 -314 -174 -380 -340 l-28 -70 -5 -1990 c-6
-2203 0 -2023 -70 -2093 -41 -42 -77 -60 -140 -72 -100 -19 -208 28 -249 108
-17 33 -308 1223 -376 1538 -41 189 -54 330 -80 899 -29 644 -29 648 -61 743
-41 124 -108 211 -218 283 -204 134 -513 105 -688 -63 -93 -90 -154 -220 -164
-352 -6 -72 67 -1271 86 -1421 13 -97 -5 -1 199 -1055 148 -759 172 -900 186
-1065 30 -346 -2 -551 -105 -669 -38 -42 -148 -110 -226 -137 -80 -29 -197
-29 -279 0 -209 74 -407 319 -475 587 -10 43 -47 192 -81 329 -34 138 -74 278
-90 313 -70 155 -217 318 -360 399 -98 56 -234 100 -345 112 -120 14 -327 0
-386 -27 -63 -28 -124 -99 -144 -168 l-16 -58 76 -590 c84 -647 100 -737 145
-850 17 -42 177 -334 356 -649 l325 -574 83 -79 c354 -339 1056 -1038 1096
-1091 95 -128 164 -285 198 -452 10 -51 17 -171 22 -367 l6 -290 216 46 c118
26 220 49 226 51 9 3 138 252 218 421 9 21 31 46 49 57 17 10 151 58 297 105
233 74 270 84 301 76 82 -23 123 -122 79 -193 -26 -43 -55 -55 -315 -138
l-199 -63 -116 -236 c-110 -222 -118 -236 -156 -255 -22 -11 -167 -47 -322
-80 l-283 -60 0 -426 0 -426 104 -11 c249 -27 485 -98 746 -225 69 -34 128
-63 131 -64 4 -2 26 31 49 74 60 112 122 195 222 299 192 199 420 317 692 361
153 24 446 14 581 -20 346 -88 636 -318 811 -642 20 -38 39 -72 40 -74 2 -2
28 11 58 28 76 43 243 117 354 157 263 96 545 133 780 104 73 -9 241 -48 283
-65 15 -6 17 27 22 342 7 435 16 488 122 739 109 256 140 495 99 755 -12 75
-15 142 -11 253 6 195 27 273 148 556 210 492 391 990 484 1330 20 74 50 178
66 231 16 53 29 101 29 107 0 5 -106 -17 -237 -51 l-238 -61 -300 -419 c-165
-230 -315 -432 -332 -447 -18 -16 -51 -35 -73 -41 -83 -25 -197 38 -220 120
-20 72 -24 63 116 258 57 80 104 149 104 154 0 9 -14 12 -248 49 -107 17 -202
35 -212 40 -10 5 -30 23 -44 41 -51 60 -24 164 51 195 38 16 85 11 613 -75 63
-11 118 -17 121 -15 4 2 62 80 128 174 67 94 134 178 148 187 14 10 184 58
377 108 l351 91 35 70 c20 38 74 130 121 204 138 218 378 626 420 714 66 137
84 232 123 652 50 536 49 519 37 625 -14 127 -142 594 -184 674 -91 172 -298
281 -496 261 -198 -21 -358 -136 -421 -303 -44 -118 -42 -294 6 -427 51 -141
63 -198 63 -300 1 -57 -5 -122 -14 -157 -9 -32 -72 -213 -141 -401 -139 -381
-246 -603 -329 -684 -165 -161 -484 -41 -502 188 -5 59 1 81 80 323 56 168 90
291 98 347 16 119 -5 1396 -26 1524 -21 132 -59 230 -183 479 -108 215 -120
235 -186 301 -137 137 -317 185 -507 136 -179 -47 -333 -214 -370 -400 -21
-110 -8 -196 61 -396 109 -320 103 -261 95 -941 -8 -718 -10 -729 -126 -1006
-59 -138 -104 -195 -187 -236 -50 -24 -69 -28 -147 -28 -78 0 -98 4 -151 28
-73 34 -135 94 -166 162 l-23 50 -5 1955 c-4 1593 -8 1962 -19 1995 -63 189
-219 336 -402 380 -79 18 -207 18 -276 0z m-1125 -5999 c15 -8 43 -30 61 -50
19 -20 40 -36 45 -36 6 0 32 21 59 48 45 44 51 47 102 47 61 0 97 -25 122 -84
21 -49 8 -87 -50 -148 l-51 -54 51 -52 c28 -29 56 -62 62 -74 27 -54 3 -130
-52 -163 -62 -38 -113 -24 -193 52 l-55 52 -76 -77 -77 -76 52 -55 c76 -80 90
-131 52 -193 -24 -41 -67 -63 -120 -63 -37 0 -48 6 -106 62 l-64 61 -53 -50
c-66 -63 -101 -72 -161 -44 -56 28 -81 72 -73 131 4 33 16 53 51 89 25 26 46
51 46 57 0 5 -16 26 -36 45 -45 43 -64 79 -64 122 0 74 79 137 153 123 20 -4
56 -26 89 -55 l55 -50 71 72 c40 40 72 76 72 81 0 4 -20 30 -45 58 -26 29 -47
63 -51 84 -19 103 92 188 184 140z m2760 -2040 c15 -8 45 -33 66 -55 l40 -41
51 50 c78 73 133 78 200 18 63 -54 57 -133 -15 -203 -22 -22 -40 -44 -40 -50
0 -6 23 -33 50 -60 66 -65 79 -109 51 -168 -39 -80 -125 -101 -197 -48 -21 16
-52 43 -69 60 l-29 31 -78 -77 -78 -77 44 -46 c62 -64 76 -89 76 -133 0 -53
-26 -94 -78 -119 -59 -28 -101 -15 -167 52 -27 27 -54 50 -60 50 -6 0 -28 -18
-50 -40 -68 -70 -146 -77 -204 -18 -58 59 -51 135 19 203 22 22 40 44 40 50 0
6 -16 27 -36 46 -68 65 -81 121 -41 180 12 19 40 42 61 53 51 25 97 11 163
-49 l50 -44 76 77 77 78 -36 34 c-50 48 -77 105 -70 143 18 90 111 141 184
103z"/>
<path d="M662 12671 c-107 -19 -156 -147 -87 -229 35 -42 65 -50 205 -55 174
-7 295 -44 433 -133 135 -88 223 -188 315 -361 67 -126 92 -148 165 -148 73 0
100 22 149 119 122 244 290 402 508 478 94 33 187 48 291 48 71 0 109 5 130
15 93 49 91 201 -3 252 -27 14 -56 17 -153 16 -336 -2 -659 -159 -866 -420
l-57 -72 -40 52 c-160 211 -409 365 -677 421 -87 18 -255 27 -313 17z"/>
<path d="M10085 12671 c-22 -4 -50 -13 -63 -20 -59 -32 -81 -135 -42 -198 30
-50 66 -63 174 -63 353 0 633 -183 804 -526 49 -97 76 -119 149 -119 73 0 98
22 165 148 67 127 126 205 210 282 155 140 355 215 576 215 86 0 103 3 133 23
90 60 88 172 -5 241 -24 19 -41 21 -149 20 -184 -1 -338 -38 -502 -122 -150
-76 -291 -191 -385 -316 l-42 -55 -59 74 c-165 204 -409 351 -666 401 -91 17
-245 25 -298 15z"/>
<path d="M886 9869 c-108 -26 -226 -122 -272 -224 -118 -256 33 -540 312 -588
176 -30 354 64 437 232 30 62 32 72 32 176 0 103 -2 114 -32 177 -85 179 -282
273 -477 227z"/>
<path d="M12009 7036 c-207 -58 -339 -264 -300 -473 25 -136 110 -245 239
-306 61 -29 76 -32 162 -32 113 0 177 19 251 75 116 87 176 216 167 358 -7
109 -37 180 -108 256 -109 116 -264 162 -411 122z"/>
<path d="M1556 4599 c-20 -17 -40 -47 -46 -67 -15 -54 -12 -707 3 -752 9 -25
77 -95 260 -264 l247 -229 0 -418 0 -418 -32 14 c-18 8 -132 59 -253 113
l-220 100 -5 298 c-5 327 -6 329 -68 370 -36 24 -118 24 -154 0 -63 -42 -63
-38 -66 -416 -2 -220 0 -358 7 -380 6 -20 23 -47 38 -62 16 -14 191 -99 391
-189 l362 -163 0 -402 0 -402 -42 -17 c-284 -113 -473 -412 -504 -797 l-6 -78
-679 0 c-749 0 -730 2 -769 -62 -44 -72 -20 -167 50 -203 26 -13 786 -15 6330
-15 5544 0 6304 2 6330 15 70 36 94 131 50 203 -39 64 -20 62 -770 62 l-680 0
0 49 c0 146 -57 356 -133 491 -26 46 -76 109 -129 165 l-88 90 0 530 1 530
285 345 c158 190 293 359 300 377 11 25 14 103 14 361 0 181 -3 344 -6 362 -4
17 -21 47 -38 65 -59 63 -161 57 -213 -12 l-28 -36 -3 -320 -3 -319 -152 -185
-152 -184 -5 273 c-4 193 -9 279 -18 295 -6 12 -120 122 -252 244 l-240 221 0
315 c0 289 -2 317 -19 351 -25 49 -67 72 -131 72 -47 0 -56 -4 -90 -38 -50
-50 -52 -69 -48 -477 2 -272 6 -334 18 -353 8 -13 124 -125 258 -248 l242
-225 0 -419 0 -419 -177 81 c-98 44 -212 95 -253 113 l-75 34 -5 300 c-5 283
-6 301 -26 328 -25 35 -79 63 -119 63 -43 0 -97 -32 -120 -71 -19 -32 -20 -55
-23 -349 -4 -362 0 -408 34 -449 18 -21 122 -73 394 -196 l370 -168 0 -332 0
-332 -82 19 c-113 25 -343 34 -491 19 -159 -17 -168 -12 -251 131 -93 162
-169 261 -306 399 -285 286 -578 413 -955 412 -281 0 -528 -65 -849 -224 -85
-42 -151 -69 -171 -69 -54 0 -96 37 -146 131 -153 290 -390 489 -681 573 -206
59 -493 62 -713 6 -101 -26 -280 -113 -365 -178 -138 -104 -284 -283 -355
-434 -31 -66 -73 -98 -127 -98 -23 0 -74 19 -144 55 -320 162 -603 238 -894
238 -222 1 -383 -34 -565 -123 -249 -121 -506 -372 -654 -641 -28 -52 -58
-105 -66 -119 -30 -54 -59 -65 -153 -60 -48 3 -165 5 -260 5 l-172 0 0 500 0
500 281 340 c155 187 289 351 298 365 14 21 16 68 16 385 0 342 -1 362 -20
394 -57 96 -196 91 -247 -10 -16 -30 -18 -68 -18 -341 l0 -308 -152 -185 -153
-185 -5 273 c-3 149 -9 280 -14 290 -4 9 -118 119 -252 243 l-244 225 0 302
c0 174 -4 318 -10 339 -6 20 -26 50 -46 67 -30 27 -43 31 -89 31 -46 0 -59 -4
-89 -31z"/>
</g>
</svg>
