<?xml version="1.0" encoding="UTF-8"?><svg id="Layer_2" xmlns="http://www.w3.org/2000/svg" viewBox="0 0 401.15 221.02"><defs><style>.cls-1{fill:#c5baaa;}</style></defs><path class="cls-1" d="m129.18,69.46c10.88,2.2,21.75,4.39,32.63,6.59,5.36,1.08,10.71,2.16,16.07,3.25s10.73,2.33,16.16,3.06,10.72.46,16.11.21,10.6-.61,15.89-1.02c4.46-.34,8.8-.82,13.14-1.94,4.05-1.05,8.02-2.43,11.74-4.36,6.31-3.27,11.87-7.5,15.76-13.52,1.73-2.68,3.12-5.56,4.5-8.43,2.02-4.18,4.03-8.37,6.06-12.55,4.5-9.24,9.07-18.45,14.05-27.43,1.01-1.82,2.02-3.56,3.49-5.04.65-.65,1.24-1.17,2.01-1.63s1.45-.71,2.01-.72c.71-.02.97.07,1.64.48.09.05.43.35.08.05.14.12.27.26.4.39.08.09.31.44.04.04.13.19.23.39.35.59.23.4-.13-.4.03.05.06.18.12.36.17.54s.09.37.13.56c.02.07.1.67.06.33s.01.28.02.35c0,.21.02.41.02.62,0,.47-.02.95-.06,1.42-.05.62-.03.31,0,.17-.03.22-.07.43-.11.65-.08.43-.17.86-.27,1.29-.23.95-.51,1.89-.84,2.81-.85,2.38-1.84,4.71-2.76,7.07-2.01,5.12-4.03,10.24-6.04,15.35-.97,2.47-1.98,4.92-2.9,7.41s-1.48,4.98-1.07,7.56c.64,4.03,3.91,6.63,7.97,6.25,2.25-.21,4.37-.93,6.46-1.78,1.5-.61,2.56-2,2.1-3.69-.39-1.42-2.18-2.71-3.69-2.1-1.06.43-2.13.84-3.23,1.16-.45.13-.91.25-1.37.34-.2.04-.42.09-.62.11.58-.07-.29,0-.34,0-.3,0-1.09-.19-.42,0-.14-.04-.29-.07-.43-.11-.31-.1-.15-.2.13.06-.05-.05-.2-.14-.26-.16-.35-.12.4.35.13.09-.07-.07-.37-.41-.11-.09.28.35-.1-.16-.13-.25-.78-1.82-.03-3.84.6-5.61.9-2.48,1.92-4.92,2.89-7.38,1.98-5.04,3.97-10.08,5.95-15.13,1.59-4.05,3.55-8.09,4.19-12.43.56-3.81.27-8.25-2.92-10.91-3.93-3.28-8.87-2.25-12.6.73s-5.73,7.25-7.9,11.29c-2.42,4.5-4.76,9.05-7.04,13.62-4.17,8.34-8.1,16.79-12.26,25.14-1.35,2.72-2.81,5.37-4.61,7.83-.27.37.28-.34,0,.01-.11.14-.22.27-.33.41-.22.27-.45.54-.68.8-.51.57-1.03,1.12-1.58,1.65s-1.1,1.03-1.68,1.51c-.09.08-.87.7-.56.46-.37.28-.75.56-1.13.82-6.62,4.66-13.78,7.3-21.84,8.65-.22.04-1.16.17-.83.13-.4.05-.8.09-1.2.12-1.34.12-2.68.21-4.03.32-2.64.2-5.28.4-7.92.57-5.28.35-10.57.62-15.87.73s-10.15-.72-15.23-1.74c-5.44-1.1-10.88-2.2-16.31-3.3-10.71-2.16-21.43-4.33-32.14-6.49l-8.04-1.62c-1.59-.32-3.24.46-3.69,2.1-.41,1.48.5,3.37,2.1,3.69h0Z"/><path class="cls-1" d="m301.42,58.34c13.49-6.34,27.32-11.56,41.43-16.35,5.87-2,11.75-3.98,17.59-6.08,4.83-1.73,9.71-3.45,14.71-4.59.55-.13,1.11-.24,1.67-.35.26-.05.52-.09.78-.14.11-.02.21-.03.32-.05.39-.06-.64.05-.08.01.43-.03.86-.08,1.29-.09.19,0,.38.02.56.01.63-.03-.66-.15-.1-.02.05.01.41.07.41.11,0,.03-.66-.3-.47-.2.12.07.38.16-.1-.1s-.13-.1.01.02c.29.23.59.46.88.68.47.35-.26-.27-.15-.12.09.12.27.22.38.33s.25.33.38.39c.2.1-.17-.22-.21-.28.07.13.18.24.25.37.11.2.22.4.32.61-.26-.56-.05-.06.03.24.04.14.2.96.12.39.06.42.07.85.08,1.27,0,.37,0,.74-.03,1.11-.02.26-.07.55-.07.81,0,.61-.42.73.24-.47-.17.31.52-.46.13-.17-.2.16-.38.38-.57.56-.44.4-.9.77-1.37,1.14.41-.33-.27.2-.38.29-.32.24-.64.48-.96.71-.83.6-1.66,1.2-2.49,1.8-7.18,5.16-15.13,9.03-23,12.98-4,2.01-8.02,4.03-11.86,6.32-1.86,1.11-3.47,2.56-3.76,4.82-.26,2.02.75,3.88,2.47,4.94,3.43,2.12,7.55.98,11.19.25,4.62-.93,9.22-1.94,13.8-3.03s8.99-2.23,13.45-3.46c3.74-1.03,7.55-2.3,11.48-2.17,1.65.05,3.18.44,4.64,1.31,3.33,1.98,6.35-3.21,3.03-5.18-7.78-4.62-17.28-.62-25.22,1.47-4.55,1.2-9.13,2.32-13.73,3.35-2.3.52-4.6,1.02-6.91,1.49-1.19.25-2.39.49-3.58.72-.48.09-.96.19-1.43.28-.32.06-.64.13-.96.18.45-.08.02,0-.2.02-.35.02-.7,0-1.06,0-.01,0-.51-.04-.2,0,.34.04-.27-.05-.34-.07-.17-.04-.99-.32-.48-.09-.12-.05-.23-.12-.34-.18-.28-.15.26.35-.05-.06.28.35.33.59.35,1.02.02.31-.35.38.07.08.46-.33,1.53-.93,2.25-1.34,3.94-2.24,7.99-4.28,12.05-6.31,7.73-3.86,15.33-7.81,22.35-12.87,1.99-1.44,4.18-2.81,5.88-4.59,2.15-2.23,2.02-6.68,1.03-9.47-.45-1.25-1.09-2.38-2.04-3.32-.38-.38-.83-.7-1.25-1.02-.12-.09-.23-.18-.35-.26-.46-.33.58.47.17.13-1.7-1.39-3.72-1.55-5.84-1.3-5.28.62-10.41,2.38-15.42,4.11s-10.39,3.67-15.61,5.45c-14.23,4.85-28.37,9.77-42.1,15.96-2.05.92-4.09,1.87-6.12,2.82-1.47.69-1.84,2.8-1.08,4.1.88,1.5,2.63,1.77,4.1,1.08h0Z"/><path class="cls-1" d="m394.72,62.72c.18.32.33.64.41.87.11.32.06.08.04-.02.02.15,0,.3.01.44.01.34.02,0,.04-.07-.03.19-.09.39-.14.58-.1.36-.24.7-.37,1.05-.54,1.35-.97,2.89-1.85,3.9-1.05,1.2-2.45,2.01-3.84,2.78-1.78.99-3.61,1.92-5.45,2.79-7.34,3.48-15.08,6.03-22.87,8.27-4.55,1.31-9.13,2.51-13.71,3.71-3.73.98-2.15,6.77,1.6,5.79,8.78-2.3,17.58-4.61,26.12-7.68,4.39-1.58,8.72-3.35,12.91-5.4,3.75-1.83,7.89-3.74,10.42-7.19.73-1,1.15-2.12,1.6-3.28.36-.95.82-1.88,1.14-2.85.77-2.34.31-4.61-.88-6.71-1.89-3.37-7.08-.35-5.18,3.03h0Z"/><path class="cls-1" d="m358.78,90.2c6.47-1.05,12.95-2.08,19.43-3.07,2.93-.45,6.44-1.07,9.01-1.34,1.11-.12,2.23-.18,3.34-.12.82.04,1.84.28,2.47.59,1.39.69,1.71,2.26,1.05,3.92-.84,2.1-3.05,3.41-5.16,4.34-2.62,1.15-5.39,1.99-8.09,2.94-3.06,1.07-6.13,2.12-9.23,3.09-6.65,2.09-13.46,3.89-20.39,4.74-1.48.18-2.76,1-2.95,2.6-.16,1.34.66,3.05,2.15,3.29,14,2.27,27.99,4.55,41.99,6.82,1.6.26,3.23-.41,3.69-2.1.39-1.43-.49-3.43-2.1-3.69-14-2.27-27.99-4.55-41.99-6.82l-.8,5.89c7.26-.89,14.33-2.58,21.31-4.74,3.4-1.05,6.77-2.2,10.13-3.38s6.7-2.2,9.86-3.72c2.79-1.34,5.4-3.4,6.76-6.25s1.65-6.68-.34-9.48c-3.9-5.5-11.31-4.04-16.98-3.18-8.27,1.24-16.52,2.54-24.77,3.88-1.6.26-2.49,2.25-2.1,3.69.47,1.7,2.09,2.36,3.69,2.1h0Z"/><path class="cls-1" d="m391.79,117.8c-.64-.48.08.24-.14-.07s.15.32.23.45c-.28-.49,0,.03.09.3.04.12.07.24.1.37.02.08.16.78.09.37-.05-.31.03.54.03.66,0,.27-.01.54-.03.81.04-.62-.05.21-.1.38s-.1.33-.16.5c-.14.41.22-.37-.01,0-.14.21-.56.68-.19.33-.13.12-.23.25-.37.35.05-.04.36-.25.07-.09-.89.48-1.83.89-2.75,1.3-1.7.77-3.45,1.26-5.3,1.49-4.69.57-9.4.93-14.12,1.07s-9.23-.08-13.84.03-9.16.77-13.59,2.07-8.38,2.91-12.54,4.46c-8.42,3.14-16.92,6.09-25.58,8.46-9.61,2.64-19.42,4.55-29.38,5.17-1.62.1-3,1.31-3,3,0,1.55,1.37,3.1,3,3,19.3-1.19,37.87-6.9,55.89-13.6,4.45-1.66,8.86-3.46,13.43-4.77s9.18-1.81,13.95-1.82,9.89.12,14.84-.13c2.52-.13,5.04-.31,7.55-.56s4.99-.39,7.36-1.01,4.86-1.7,7-2.91c1.78-1,3.01-2.78,3.53-4.74.96-3.58-.02-7.78-3.04-10.06-1.29-.98-3.35-.21-4.1,1.08-.9,1.54-.22,3.13,1.08,4.1h0Z"/><path class="cls-1" d="m274.31,146.21c-20.14,0-40.33.48-60.43-.86-8.98-.6-17.77-1.59-26.58-3.15-9.65-1.71-19.12-4.13-28.1-8.1-10.23-4.52-19.77-10.55-28.16-17.95-1.21-1.07-3.05-1.2-4.24,0-1.09,1.09-1.22,3.17,0,4.24,15.51,13.68,34.37,22.81,54.63,26.8,18.58,3.66,37.46,4.79,56.36,5.02,12.17.14,24.35.02,36.52.02,3.86,0,3.87-6,0-6h0Z"/><path class="cls-1" d="m131.03,116.02c-4.83-10.59-6.59-22.28-8.93-33.59-1.19-5.75-2.51-11.48-4.44-17.03-.98-2.83-2.11-5.62-3.42-8.32-1.24-2.55-2.59-5.16-4.52-7.27-2.11-2.31-5.05-3.61-8.19-3.12-2.91.46-5.22,2.49-6.88,4.81-3.61,5.06-3.89,12.07-3.58,18.05.35,6.77,1.2,13.54,2.25,20.23.52,3.34,1.21,6.65,1.8,9.98-.12-.67,0,.23.01.33,0,.19,0,.4-.03.58l.02-.24c-.11.34-.1.34.03,0,.62-.47.78-1.15,1.91-.75.9.32.34.17-.01-.2-.21-.21-.4-.43-.6-.64-.6-.65-1.2-1.3-1.79-1.95-9.29-10.32-17.03-21.97-23.1-34.45-.71-1.46-2.78-1.85-4.1-1.08-1.49.87-1.79,2.64-1.08,4.1,5.49,11.29,12.38,21.86,20.43,31.5,1.98,2.37,3.99,4.89,6.24,7.01,1.26,1.18,2.84,1.95,4.6,1.52,1.58-.38,2.74-1.69,3.2-3.21.86-2.84-.33-6.05-.85-8.86-.59-3.22-1.11-6.45-1.54-9.7-.86-6.42-1.76-13.08-1.41-19.57.14-2.7.64-5.8,1.82-8.06.54-1.03,1.09-1.84,1.95-2.6.63-.56,1.54-1,2.2-.95s1.39.43,1.96.98c.91.88,1.52,1.82,2.16,2.93,1.39,2.38,2.59,4.89,3.61,7.45,2.13,5.38,3.59,11,4.84,16.65,2.87,13,4.7,26.27,10.27,38.49.67,1.47,2.81,1.84,4.1,1.08,1.52-.89,1.75-2.62,1.08-4.1h0Z"/><path class="cls-1" d="m71.1,61.57c-3.56-6.02-7.41-11.95-12.17-17.1-1.17-1.26-2.39-2.47-3.67-3.61-1.41-1.26-2.85-2.48-4.76-2.82-3.74-.67-7.2,1.71-9.18,4.71-3.88,5.86-1.97,13.2,1.09,18.92,1.69,3.17,3.64,6.2,5.36,9.35s3.47,6.65,5.06,10.04c3.55,7.56,6.67,15.3,9.78,23.04.6,1.5,2,2.56,3.69,2.1,1.43-.39,2.7-2.18,2.1-3.69-5.14-12.77-10.29-25.61-17.16-37.58-2.78-4.85-6.8-10.13-6.01-15.78.25-1.79,1.23-4.01,2.95-4.9.76-.39,1.18-.45,1.9.03,1.37.92,2.6,2.33,3.74,3.51,4.83,5,8.59,10.87,12.11,16.83,1.96,3.32,7.15.31,5.18-3.03h0Z"/><path class="cls-1" d="m55.4,120.49c-4.43-5.79-8.84-11.58-13.28-17.36-1.95-2.54-3.97-4.83-6.37-6.94-1.82-1.6-3.83-3.3-4.52-5.39-.5-1.54-2.07-2.54-3.69-2.1-1.51.41-2.6,2.14-2.1,3.69.95,2.9,2.85,5.16,5.09,7.18s4.44,4.05,6.32,6.49c4.48,5.8,8.9,11.64,13.35,17.46.98,1.28,2.58,1.97,4.1,1.08,1.26-.74,2.07-2.81,1.08-4.1h0Z"/><path class="cls-1" d="m30.4,89.05l-6.56-11.73c-2.08-3.71-4.3-7.38-6.2-11.19-.75-1.5-1.41-3.15-1.44-4.85-.02-1.17.36-2.32,1.17-3.17.39-.41.6-.57,1.03-.72.37-.14.82-.14,1.44.14.86.4,2.03,1.77,2.83,2.76,5.47,6.84,10.72,13.87,16.07,20.8s10.45,13.97,15.98,20.68c1.74,2.11,3.97,4.32,6.45,5.55,1.44.71,3.04,1.12,4.58.44,1.84-.81,2.52-2.64,2.57-4.54.1-3.86-5.9-3.86-6,0,0,.38,0,.1.02.1,0,0-.03.03.07-.15.22-.4.06-.11,0-.05.26-.36.33-.41.76-.66.64-.37.62-.33.35-.25.09-.03.82-.17.97-.01-.03-.03-.83-.27-.37-.08.42.17-.33-.19-.44-.25-.22-.13-.43-.26-.64-.41-.15-.1-.29-.2-.43-.31.05.03.33.26.06.04s-.52-.42-.77-.64c-2.42-2.13-4.05-4.43-6-6.96-5.51-7.14-11.03-14.28-16.54-21.42-2.73-3.54-5.46-7.07-8.19-10.61-1.38-1.79-2.75-3.59-4.15-5.37-1.11-1.41-2.37-2.75-3.92-3.68-3.48-2.09-7.87-1.28-10.42,1.87s-3.02,7.35-1.72,11.26c1.53,4.58,4.38,8.78,6.72,12.97l7.53,13.47c1.88,3.37,7.07.35,5.18-3.03h0Z"/><path class="cls-1" d="m52.43,116.09c-6.45-6.93-12.59-14.15-18.74-21.35-2.96-3.46-5.9-6.94-8.85-10.41-3.33-3.93-6.81-8.52-12.13-9.7-2.83-.63-5.98-.37-8.41,1.34-2.19,1.55-3.61,3.91-4.07,6.55-.92,5.27,1,10.46,3.1,15.21,4.09,9.22,10.67,17.11,17.23,24.66,3.64,4.19,7.36,8.33,10.84,12.66,1.58,1.98,3.14,4.06,4.61,6.26.7,1.06,1.38,2.13,2.03,3.23s.99,1.49.36,2.57c-1.94,3.34,3.24,6.37,5.18,3.03.78-1.35,1.24-2.9,1.15-4.47s-.75-2.84-1.52-4.15c-1.12-1.9-2.34-3.74-3.63-5.54-2.84-3.95-5.95-7.68-9.13-11.35-6.27-7.25-12.83-14.24-17.9-22.37-2.49-3.99-4.5-8.02-5.84-12.46-.6-2.01-.99-4.26-.64-6.02s1.03-2.99,2.89-3.4c4.29-.94,7.91,3.8,10.51,6.87,2.76,3.25,5.52,6.51,8.28,9.76,6.7,7.86,13.38,15.76,20.42,23.32,2.64,2.83,6.87-1.42,4.24-4.24h0Z"/><path class="cls-1" d="m38.42,149.01c-.41-1.37.89-3.25,2.64-3.29-.43,0,.9.32.22.01-.18-.08-.39-.14-.58-.21,1.04.35-.18-.11-.45-.25-1.64-.85-3.2-1.85-4.74-2.88-3.98-2.66-7.09-4.96-10.6-8.2-4.01-3.7-7.12-8.38-12-11.08-2.72-1.5-7.19-3.25-9.71-.53s-2.26,7.21-1.17,10.39c1.16,3.38,3.21,6.25,5.4,9.04,2.33,2.98,4.87,5.79,7.41,8.6,5,5.53,10.01,11.05,15.21,16.39,9.58,9.81,19.97,19.26,32.11,25.81,6.86,3.7,14.15,6.27,21.81,7.64,8.47,1.52,17.09,1.98,25.54,3.64,1.59.31,3.24-.45,3.69-2.1.41-1.47-.5-3.38-2.1-3.69-14.03-2.77-28.61-2.49-41.81-8.62-12.05-5.59-22.29-14.29-31.66-23.56-5.19-5.13-10.14-10.49-15.05-15.89-2.45-2.69-4.91-5.37-7.3-8.11-2.22-2.55-4.47-5.15-6.18-8.08-.72-1.22-1.3-2.47-1.64-3.85-.16-.66-.24-1.26-.2-1.95.02-.44.3-1.18.29-1.49l.16-.29c-.43.7-.86.91-1.27.63.17.14.87.18,1.1.24.53.14,1.15.35,1.52.53,1.23.57,2.41,1.35,3.41,2.2,2.26,1.91,4.16,4.18,6.16,6.34,1.34,1.44,2.81,2.75,4.32,4.02,3.91,3.28,8.06,6.37,12.45,8.99,1.38.82,2.9,1.75,4.48,2.14,2.58.64,5.16-1.38,4.33-4.16-1.1-3.69-6.89-2.12-5.79,1.6h0Z"/><path class="cls-1" d="m109.51,204.1c10.47,3.93,21.36,6.62,32.38,8.47s23.11,2.88,34.7,3.87c11.81,1.01,23.63,1.91,35.46,2.7,10.47.7,20.96,1.43,31.45,1.77,8.26.27,16.49.01,24.73-.7,10.48-.9,20.95-2.16,31.19-4.66,6.61-1.62,13-3.62,18.8-7.23,7.78-4.84,15.54-10.02,22.06-16.52,5.87-5.86,10.1-12.7,13.35-20.29,4.27-9.97,7.35-20.41,11.67-30.36,1.05-2.41,2.17-4.79,3.39-7.12,1.79-3.42-3.39-6.46-5.18-3.03-5.01,9.58-8.33,19.89-12.11,29.99-1.72,4.58-3.51,9.18-5.76,13.53-1.69,3.25-3.79,6.46-5.92,9.02-5.27,6.32-11.79,11.27-18.59,15.79-3.25,2.16-6.53,4.54-10.07,6.2-.27.13-.55.25-.82.37-.38.17.51-.21.12-.05-.14.06-.28.12-.42.17-.69.28-1.4.54-2.1.8-1.6.57-3.22,1.09-4.85,1.56-9.32,2.73-18.92,4.24-28.57,5.24-8.62.89-17.26,1.5-25.93,1.4-9.45-.11-18.89-.77-28.32-1.36-11.66-.73-23.32-1.57-34.96-2.51-22.35-1.81-44.87-3.4-66.38-10.18-2.6-.82-5.17-1.71-7.72-2.66-1.52-.57-3.29.63-3.69,2.1-.46,1.68.57,3.12,2.1,3.69h0Z"/></svg>