<svg id="Capa_1" enable-background="new 0 0 512 512" height="512" viewBox="0 0 512 512" width="512" xmlns="http://www.w3.org/2000/svg"><g><g><path d="m271.308 349.796h119.875v119.245h-119.875z" fill="#c18053" transform="matrix(.707 -.707 .707 .707 -192.483 354.142)"/></g><g><path d="m430.197 395.32-84.853-84.853c-7.81-7.81-20.474-7.81-28.284 0-7.81 7.81-7.81 20.474 0 28.284l84.853 84.853c7.81 7.81 20.474 7.81 28.284 0 7.81-7.81 7.81-20.474 0-28.284z" fill="#d2996f"/></g><g><circle cx="401.108" cy="251.131" fill="#ffbf9e" r="36.081"/></g><g><circle cx="110.85" cy="251.131" fill="#f7ab8b" r="36.081"/></g><g><path d="m156.885 504.5c-12.566 0-22.098-11.469-19.643-23.793 11.054-55.475 60.014-97.282 118.738-97.282s107.684 41.808 118.738 97.282c2.456 12.324-7.076 23.793-19.643 23.793z" fill="#89d47f"/></g><g><path d="m280.974 386.03c-8.065-1.705-16.426-2.605-24.993-2.605-58.6 0-107.629 41.885-118.724 97.271-2.469 12.326 7.069 23.804 19.64 23.804h28.008c.001-58.166 41.276-106.909 96.069-118.47z" fill="#5ec783"/></g><g><path d="m219.631 388.981c-25.152 7.907-46.767 23.798-61.868 44.707l68.562 70.812h105.155z" fill="#d2996f"/></g><g><path d="m219.65 389.001c-25.118 7.923-46.731 23.831-61.843 44.733l32.839 33.917c8.07-25.18 24.178-46.801 45.288-61.831z" fill="#c18053"/></g><g><path d="m222.981 432.78-15.174-58.167h96.335l-15.161 58.167z" fill="#f7ab8b"/></g><g><path d="m287.566 459.581c27.323-23.708 32.64-62.417 32.726-84.968h-16.15l-48.167 58.167 16.663 24.867c3.366 5.026 10.359 5.898 14.928 1.934z" fill="#fcf2d0"/></g><g><path d="m224.383 459.581c-27.323-23.708-32.64-62.417-32.726-84.968h16.15l48.167 58.167-16.663 24.867c-3.366 5.026-10.359 5.898-14.928 1.934z" fill="#fcf2d0"/></g><g><g><circle cx="255.981" cy="251.128" fill="#ffd4be" r="145"/></g></g><g><g><path d="m160.981 251.128c0-71.555 51.833-130.998 120-142.846-8.122-1.412-16.474-2.154-25-2.154-80.081 0-145 64.919-145 145s64.919 145 145 145c8.526 0 16.878-.743 25-2.154-68.167-11.848-120-71.29-120-142.846z" fill="#ffbf9e"/></g></g><g><path d="m255.981 7.5c-28.825 0-145.13 90.238-145.13 207.55h145.13 145.131c-.001-117.312-116.306-207.55-145.131-207.55z" fill="#5ec783"/></g><g><path d="m225.684 20.413c-44.847 28.931-114.834 103.631-114.834 194.637h130.162v-31.55c-35.346-23.993-60.271-132.852-15.328-163.087z" fill="#49b76b"/></g><g><g><path d="m382.352 111.734c-11.766 28.407-10.546 59.03.929 85.553 2.193 5.069 8.142 7.534 13.278 5.5 26.869-10.64 49.385-31.431 61.152-59.838s10.546-59.03-.929-85.553c-2.193-5.069-8.142-7.534-13.278-5.5-26.869 10.64-49.386 31.431-61.152 59.838z" fill="#f7ef87"/></g></g><g><path d="m445.981 223.5h-380c-11.046 0-20-8.954-20-20 0-11.046 8.954-20 20-20h380c11.046 0 20 8.954 20 20 0 11.046-8.955 20-20 20z" fill="#89d47f"/></g><g><path d="m221.013 203.5c0-11.046 8.954-20 20-20h-175.032c-11.046 0-20 8.954-20 20s8.954 20 20 20h175.032c-11.046 0-20-8.954-20-20z" fill="#5ec783"/></g><g><g><g><ellipse cx="176.336" cy="300.096" fill="#eda1ab" rx="29.387" ry="23.403"/></g><g><ellipse cx="335.626" cy="300.096" fill="#eda1ab" rx="29.387" ry="23.403"/></g><g><path d="m279.674 282.115c0-14.643-10.608-16.019-23.694-16.019-13.085 0-23.693 1.376-23.693 16.019s10.608 26.513 23.693 26.513c13.086 0 23.694-11.87 23.694-26.513z" fill="#4e5660"/></g></g><g><path d="m181.248 279.656c-4.143 0-7.5-3.358-7.5-7.5v-12c0-4.142 3.357-7.5 7.5-7.5s7.5 3.358 7.5 7.5v12c0 4.142-3.357 7.5-7.5 7.5z"/></g><g><path d="m255.981 316.128c-17.2 0-31.193-15.258-31.193-34.013 0-23.519 21.859-23.519 31.193-23.519s31.193 0 31.193 23.519c0 18.755-13.993 34.013-31.193 34.013zm0-42.532c-15.538 0-16.193 2.611-16.193 8.519 0 10.484 7.265 19.013 16.193 19.013 8.929 0 16.193-8.529 16.193-19.013 0-5.907-.655-8.519-16.193-8.519z"/></g><g><path d="m330.713 279.656c-4.143 0-7.5-3.358-7.5-7.5v-12c0-4.142 3.357-7.5 7.5-7.5s7.5 3.358 7.5 7.5v12c0 4.142-3.357 7.5-7.5 7.5z"/></g></g><path d="m473.481 203.5c0-15.042-12.142-27.296-27.138-27.491 7.578-9.012 13.71-19.114 18.298-30.19 12.166-29.37 11.819-61.83-.975-91.401-3.783-8.743-14.065-13.002-22.923-9.495-28.944 11.462-51.577 33.051-64.047 60.989-6.599-11.159-14.134-22.092-22.545-32.636-2.584-3.238-7.304-3.769-10.54-1.187-3.238 2.583-3.77 7.302-1.187 10.54 10.822 13.567 20.118 27.786 27.687 42.283-4.236 16.68-4.682 33.99-1.272 51.088h-246.041c11.993-53.05 45.475-93.943 64.895-114.024 29.639-30.651 58.703-46.976 68.288-46.976 8.927 0 36.287 14.4 66.665 45.31 2.902 2.954 7.652 2.996 10.605.092 2.954-2.903 2.996-7.652.092-10.606-28.814-29.319-60.627-49.796-77.362-49.796-16.933 0-50.188 21.679-79.071 51.548-20.93 21.643-57.317 66.223-69.461 124.452h-41.468c-15.163 0-27.5 12.336-27.5 27.5s12.337 27.5 27.5 27.5h6.218c-3.201 6.143-4.93 13.028-4.93 20.131 0 23.699 19.018 43.027 42.592 43.556 5.7 19.116 15.11 37.08 27.819 52.684 1.482 1.82 3.642 2.764 5.82 2.764 1.664 0 3.34-.552 4.731-1.685 3.212-2.616 3.694-7.34 1.079-10.552-19.881-24.41-30.83-55.225-30.83-86.77 0-6.742.499-13.493 1.47-20.128h272.06c.972 6.634 1.471 13.383 1.471 20.128 0 75.818-61.683 137.5-137.5 137.5-31.55 0-62.369-10.952-86.78-30.839-3.211-2.616-7.936-2.133-10.552 1.078s-2.134 7.936 1.077 10.552c7.757 6.319 16.098 11.82 24.873 16.46.245 3.312.621 6.974 1.181 10.887-28.877 18.857-49.167 48.726-55.893 82.475-1.604 8.047.471 16.312 5.691 22.675 5.257 6.408 13.022 10.083 21.307 10.083h198.191c8.284 0 16.05-3.675 21.307-10.083 5.221-6.364 7.295-14.628 5.691-22.675-1.365-6.847-3.294-13.53-5.731-19.996l25.968-25.967c4.237 2.444 8.989 3.67 13.743 3.67 7.043 0 14.085-2.681 19.446-8.042 10.722-10.722 10.722-28.169 0-38.891l-8.839-8.839 37.123-37.123c2.929-2.929 2.929-7.678 0-10.606-2.93-2.929-7.678-2.929-10.607 0l-37.123 37.123-11.515-11.514 37.123-37.123c2.929-2.929 2.929-7.678 0-10.606s-7.677-2.93-10.607 0l-37.123 37.122-11.772-11.771c8.674-12.753 15.461-26.886 19.971-41.992 23.557-.548 42.556-19.868 42.556-43.555 0-7.092-1.726-13.983-4.929-20.131h6.221c15.165 0 27.502-12.336 27.502-27.5zm-84.2-88.896c10.599-25.586 30.836-45.38 56.985-55.735 1.384-.549 3.044.144 3.632 1.505 11.169 25.813 11.482 54.119.885 79.704-5.724 13.817-14.202 25.892-25.197 35.922h-17.592l20.303-49.017c1.586-3.827-.231-8.214-4.059-9.799-3.823-1.583-8.214.232-9.799 4.059l-22.68 54.757h-7.591c-4.74-20.682-2.999-41.813 5.113-61.396zm-335.8 88.896c0-6.893 5.607-12.5 12.5-12.5h380c6.893 0 12.5 5.607 12.5 12.5s-5.607 12.5-12.5 12.5h-380c-6.893 0-12.5-5.607-12.5-12.5zm52.647 75.815c-13.52-2.258-23.86-14.033-23.86-28.184 0-7.585 3.006-14.792 8.308-20.131h14.224c-.876 6.652-1.319 13.396-1.319 20.128 0 9.498.902 18.934 2.647 28.187zm176.523 174.602c-.785.682-1.632.687-2.062.627-.503-.067-1.21-.308-1.722-1.071l-13.547-20.219 28.459-34.369c6.071-1.554 11.997-3.474 17.754-5.733-2.448 18.588-9.466 43.917-28.882 60.765zm-11.662-51.027-15.014 18.132-15.029-18.149c4.983.496 10 .756 15.035.756 5.064-.001 10.069-.255 15.008-.739zm-52.865-4.059 28.505 34.423-13.548 20.219c-.512.764-1.219 1.004-1.722 1.071-.433.061-1.276.054-2.062-.627-19.429-16.859-26.443-42.207-28.888-60.799 5.782 2.259 11.698 4.169 17.715 5.713zm-29.16 13.969c4.599 17.867 13.483 37.677 30.504 52.446 3.229 2.802 7.342 4.32 11.556 4.32.772 0 1.549-.051 2.323-.154 4.963-.664 9.408-3.43 12.195-7.59l10.432-15.569 10.432 15.569c2.787 4.16 7.232 6.926 12.195 7.59.774.104 1.551.154 2.323.154 1.857 0 3.688-.311 5.439-.881l27.416 28.315h-84.275l-61.844-63.874c6.159-7.62 13.31-14.469 21.304-20.326zm-41.789 79.603c-2.36-2.876-3.3-6.605-2.577-10.229 2.593-13.013 7.48-25.37 14.278-36.554l49.748 51.38h-51.739c-3.774 0-7.313-1.675-9.71-4.597zm217.611 0c-2.396 2.922-5.936 4.597-9.71 4.597h-20.419l-36.256-37.445c13.215-13.946 20.552-31.095 24.584-46.759 22.851 16.733 38.832 41.546 44.378 69.378.723 3.623-.216 7.352-2.577 10.229zm-38.616-95.639c.561-3.92.938-7.587 1.182-10.903 5.628-2.994 11.05-6.326 16.233-9.977l47.454 47.453-21.279 21.279c-10.142-19.218-25.105-35.784-43.59-47.852zm98.723 3.859c4.874 4.874 4.874 12.804.001 17.678-4.873 4.873-12.803 4.875-17.678 0l-51.715-51.715c6.317-5.453 12.18-11.417 17.532-17.823zm4.796-149.492c0 14.14-10.324 25.908-23.829 28.179 1.714-9.137 2.621-18.554 2.621-28.181 0-6.735-.447-13.477-1.323-20.128h14.225c5.298 5.338 8.306 12.558 8.306 20.13z"/></g></svg>