<?xml version="1.0" encoding="iso-8859-1"?>
<!-- Generator: Adobe Illustrator 19.0.0, SVG Export Plug-In . SVG Version: 6.00 Build 0)  -->
<svg version="1.1" id="Capa_1" xmlns="http://www.w3.org/2000/svg" xmlns:xlink="http://www.w3.org/1999/xlink" x="0px" y="0px"
	 viewBox="0 0 512.001 512.001" style="enable-background:new 0 0 512.001 512.001;" xml:space="preserve">
<path style="fill:#ACABB1;" d="M209.324,36.775c-8.484-6.676-16.41-15.413-23.308-26.773c0,0-61.059,33.91-61.053,93.769
	c-0.006,59.859,61.053,93.769,61.053,93.769c6.883-11.335,14.834-20.059,23.347-26.73"/>
<path style="fill:#C6C5CA;" d="M261.595,56.889c-20.248,0-32.029-4.187-52.271-20.114c-14.504,15.877-28.35,38.492-28.347,66.997
	c-0.003,28.531,13.867,51.161,28.386,67.04c20.374-15.964,32.327-20.157,52.232-20.157h5.48v-93.77L261.595,56.889z"/>
<rect x="267.078" y="54.081" style="fill:#2C7B7E;" width="61.673" height="103"/>
<g>
	<rect x="280.578" y="21.548" style="fill:#C6C5CA;" width="34.673" height="32.531"/>
	<rect x="280.578" y="157.081" style="fill:#C6C5CA;" width="34.673" height="129.94"/>
</g>
<rect x="262.078" y="287.021" style="fill:#A84926;" width="71.67" height="214.98"/>
<path d="M297.908,331.321c-0.65,0-1.31-0.06-1.95-0.189c-0.64-0.13-1.27-0.32-1.87-0.57c-0.61-0.25-1.19-0.56-1.73-0.92
	c-0.55-0.37-1.06-0.78-1.52-1.24c-0.46-0.47-0.88-0.979-1.24-1.529c-0.36-0.54-0.67-1.12-0.92-1.721
	c-0.25-0.609-0.44-1.229-0.57-1.869c-0.13-0.65-0.2-1.301-0.2-1.961c0-0.649,0.07-1.3,0.2-1.949c0.13-0.641,0.32-1.271,0.57-1.87
	c0.25-0.601,0.56-1.19,0.92-1.73c0.36-0.54,0.78-1.06,1.24-1.52s0.97-0.88,1.52-1.24c0.54-0.36,1.12-0.67,1.73-0.92
	c0.6-0.25,1.23-0.44,1.87-0.57c1.29-0.26,2.62-0.26,3.91,0c0.63,0.13,1.26,0.32,1.87,0.57c0.6,0.25,1.18,0.56,1.72,0.92
	c0.55,0.36,1.06,0.78,1.53,1.24c0.46,0.46,0.87,0.979,1.24,1.52c0.36,0.54,0.67,1.13,0.92,1.73s0.44,1.229,0.57,1.87
	c0.13,0.649,0.19,1.3,0.19,1.949c0,0.66-0.06,1.311-0.19,1.961c-0.13,0.64-0.32,1.26-0.57,1.869c-0.25,0.601-0.56,1.181-0.92,1.721
	c-0.37,0.55-0.79,1.06-1.25,1.529c-0.46,0.46-0.97,0.87-1.52,1.24c-0.54,0.36-1.12,0.67-1.72,0.92c-0.61,0.25-1.24,0.44-1.87,0.57
	C299.218,331.262,298.559,331.321,297.908,331.321z"/>
<polygon style="fill:#ACABB1;" points="387.034,103.771 328.748,132.597 328.748,74.945 "/>
<path d="M391.468,94.808l-52.72-26.073V54.079c0-5.522-4.477-10-10-10h-3.5V21.548c0-5.522-4.477-10-10-10h-34.673
	c-5.523,0-10,4.478-10,10v22.531h-3.5c-2.696,0-5.143,1.068-6.941,2.802c-16.245-0.16-25.787-3.146-44.609-17.952
	c-0.006-0.005-0.011-0.009-0.017-0.014c-8.015-6.307-15.062-14.416-20.945-24.104c-2.789-4.592-8.707-6.159-13.402-3.552
	c-2.704,1.501-66.205,37.515-66.198,102.511c-0.006,64.998,63.495,101.012,66.198,102.513c1.536,0.854,3.202,1.26,4.847,1.26
	c3.385-0.001,6.679-1.722,8.556-4.812c5.846-9.627,12.886-17.707,20.923-24.014c0.015-0.012,0.03-0.023,0.045-0.035
	c18.204-14.265,28.119-17.537,42.222-17.974c1.452,3.73,5.078,6.374,9.322,6.374h3.5v109.94h-8.5c-5.523,0-10,4.478-10,10v214.979
	c0,5.522,4.477,10,10,10h71.674c5.523,0,10-4.478,10-10V287.023c0-5.522-4.477-10-10-10h-8.5v-109.94h3.5c5.523,0,10-4.478,10-10
	v-18.274l52.72-26.073c3.409-1.687,5.567-5.16,5.567-8.964S394.877,96.494,391.468,94.808z M277.075,147.082V64.079h41.673v83.003
	H277.075z M290.575,31.548h14.673v12.531h-14.673V31.548z M210.89,157.186c-13.222-16.762-19.915-34.694-19.913-53.415
	c-0.002-18.694,6.673-36.604,19.861-53.347c16.159,11.518,28.481,15.805,46.236,16.393v73.914
	C239.625,141.35,227.013,145.773,210.89,157.186z M183.171,183.797c-15.334-10.847-48.213-38.903-48.209-80.026
	c-0.004-40.936,32.892-69.101,48.22-80c3.735,5.116,7.795,9.802,12.154,14.032c-15.974,20.272-24.362,42.899-24.36,65.968
	c-0.002,23.083,8.393,45.72,24.383,65.999C190.981,174.002,186.909,178.687,183.171,183.797z M323.748,492.002h-15.837V361.326
	c0-5.522-4.477-10-10-10s-10,4.478-10,10v130.676h-15.837V297.023h51.674V492.002z M305.248,277.023h-14.673v-109.94h14.673V277.023
	z M338.748,116.496V91.047l25.729,12.725L338.748,116.496z"/>
<g>
</g>
<g>
</g>
<g>
</g>
<g>
</g>
<g>
</g>
<g>
</g>
<g>
</g>
<g>
</g>
<g>
</g>
<g>
</g>
<g>
</g>
<g>
</g>
<g>
</g>
<g>
</g>
<g>
</g>
</svg>
