<?xml version="1.0" encoding="iso-8859-1"?>
<!-- Generator: Adobe Illustrator 19.0.0, SVG Export Plug-In . SVG Version: 6.00 Build 0)  -->
<svg version="1.1" id="Capa_1" xmlns="http://www.w3.org/2000/svg" xmlns:xlink="http://www.w3.org/1999/xlink" x="0px" y="0px"
	 viewBox="0 0 512 512" style="enable-background:new 0 0 512 512;" xml:space="preserve">
<path style="fill:#F24141;" d="M256,118.608V502l0,0c20.189,0,37.742-11.281,46.701-27.884h180.886V118.608H256z"/>
<path style="fill:#FF6243;" d="M28.413,118.608v355.508h180.886C218.258,490.719,235.811,502,256,502V118.608H28.413z"/>
<polygon style="fill:#F6DAB9;" points="400.364,83.364 348.915,83.364 348.915,112.807 279.933,112.807 279.933,217.746 
	232.067,217.746 232.067,112.807 163.085,112.807 163.085,83.364 111.636,83.364 111.386,83.473 111.386,387.554 400.614,387.554 
	400.614,83.473 "/>
<path d="M256,335.59c-0.65,0-1.311-0.07-1.95-0.2c-0.64-0.13-1.27-0.32-1.87-0.57c-0.61-0.25-1.189-0.56-1.729-0.92
	c-0.551-0.36-1.061-0.78-1.521-1.24c-1.86-1.86-2.93-4.44-2.93-7.07c0-0.65,0.069-1.31,0.2-1.96c0.119-0.63,0.319-1.26,0.569-1.87
	c0.25-0.6,0.55-1.18,0.92-1.72c0.36-0.55,0.78-1.06,1.24-1.52s0.97-0.88,1.521-1.25c0.54-0.36,1.119-0.67,1.729-0.92
	c0.601-0.25,1.23-0.44,1.87-0.57c1.29-0.25,2.61-0.25,3.9,0c0.64,0.13,1.27,0.32,1.88,0.57c0.6,0.25,1.18,0.56,1.72,0.92
	c0.55,0.37,1.06,0.79,1.52,1.25c0.461,0.46,0.881,0.97,1.24,1.52c0.36,0.54,0.67,1.12,0.92,1.72c0.25,0.61,0.45,1.24,0.58,1.87
	c0.13,0.65,0.19,1.31,0.19,1.96c0,2.63-1.07,5.21-2.931,7.07c-0.46,0.46-0.97,0.88-1.52,1.24c-0.54,0.36-1.12,0.67-1.72,0.92
	c-0.61,0.25-1.24,0.44-1.88,0.57C257.31,335.52,256.649,335.59,256,335.59z"/>
<path style="fill:#FF9929;" d="M294.723,387.554c-7.428-13.766-21.983-23.121-38.723-23.121s-31.295,9.354-38.723,23.121H74.907
	v42.709h142.371c7.428,13.766,21.983,23.121,38.723,23.121s31.295-9.354,38.723-23.121h142.371v-42.709L294.723,387.554
	L294.723,387.554z"/>
<g>
	<polyline style="fill:#FFC477;" points="111.386,83.473 74.907,122.356 74.907,387.554 111.386,387.554 	"/>
	<polyline style="fill:#FFC477;" points="400.614,387.554 437.093,387.554 437.093,122.356 400.614,83.473 	"/>
</g>
<polygon style="fill:#2C7B7E;" points="232.067,217.746 232.067,112.807 163.085,112.807 163.085,64.94 232.067,64.94 232.067,10 
	279.933,10 279.933,64.94 348.915,64.94 348.915,112.807 279.933,112.807 279.933,217.746 "/>
<path d="M483.587,108.608h-45.679L407.907,76.63c-0.007-0.008-0.014-0.015-0.022-0.022c-0.05-0.053-0.1-0.105-0.151-0.157
	c-0.013-0.013-0.026-0.025-0.038-0.038c-0.038-0.038-0.077-0.077-0.116-0.115c-0.025-0.024-0.049-0.048-0.074-0.071
	c-0.027-0.025-0.053-0.05-0.08-0.075c-0.114-0.106-0.229-0.209-0.346-0.308c-0.002-0.002-0.005-0.004-0.007-0.006
	c-0.814-0.69-1.713-1.23-2.662-1.619l-0.068-0.029c-1.257-0.545-2.611-0.826-3.98-0.826h-41.448V64.94c0-5.523-4.478-10-10-10
	h-58.981V10c0-5.523-4.478-10-10-10h-47.867c-5.522,0-10,4.477-10,10v44.94h-58.981c-5.522,0-10,4.477-10,10v8.424h-41.448
	c-1.369,0-2.724,0.281-3.98,0.826l-0.083,0.036c-0.936,0.385-1.824,0.918-2.628,1.597c-0.015,0.012-0.029,0.025-0.044,0.037
	c-0.035,0.03-0.071,0.06-0.105,0.091c-0.037,0.033-0.074,0.065-0.11,0.099c-0.03,0.027-0.059,0.054-0.089,0.081
	c-0.037,0.035-0.074,0.069-0.111,0.104c-0.02,0.019-0.039,0.038-0.059,0.057c-0.046,0.045-0.092,0.09-0.137,0.135
	c-0.007,0.007-0.014,0.014-0.021,0.021c-0.052,0.053-0.103,0.106-0.154,0.16c-0.007,0.007-0.014,0.015-0.021,0.022l-30.001,31.978
	H28.413c-5.522,0-10,4.477-10,10v355.508c0,5.523,4.478,10,10,10h175.255C215.314,501.455,234.853,512,256,512
	s40.686-10.545,52.332-27.884h175.255c5.522,0,10-4.477,10-10V118.608C493.587,113.085,489.109,108.608,483.587,108.608z
	 M410.614,108.747l15.702,16.736c0.009,0.009,0.018,0.019,0.027,0.028l0.751,0.8v251.242h-16.479V108.747H410.614z M173.085,74.94
	h58.981c5.522,0,10-4.477,10-10V20h27.867v44.94c0,5.523,4.478,10,10,10h58.981v27.867h-58.981c-5.522,0-10,4.477-10,10v94.939
	h-27.867v-94.939c0-5.523-4.478-10-10-10h-58.981V74.94z M121.386,93.364h31.699v19.443c0,5.523,4.478,10,10,10h58.981v94.939
	c0,5.523,4.478,10,10,10H246v57.843c0,5.523,4.478,10,10,10s10-4.477,10-10v-57.843h13.934c5.522,0,10-4.477,10-10v-94.939h58.981
	c5.522,0,10-4.477,10-10V93.364h31.699v284.19h-90.321c-10.026-14.397-26.493-23.12-44.293-23.12s-34.267,8.724-44.293,23.121
	h-90.321V93.364z M84.906,126.312l0.751-0.8c0.009-0.009,0.018-0.019,0.027-0.028l15.702-16.736v268.807h-16.48V126.312z
	 M246,490.826c-11.777-2.809-21.99-10.506-27.9-21.459c-1.746-3.234-5.125-5.251-8.801-5.251H38.413V128.608h26.493v301.655
	c0,5.523,4.478,10,10,10h136.801c8.115,11.652,20.449,19.588,34.293,22.19V490.826z M226.078,425.515
	c-1.745-3.235-5.125-5.251-8.801-5.251H84.906v-22.709h132.371c3.676,0,7.056-2.017,8.801-5.251
	c5.947-11.022,17.412-17.869,29.922-17.869c12.51,0,23.975,6.847,29.922,17.869c1.745,3.235,5.125,5.251,8.801,5.251h132.371v22.709
	H294.723c-3.676,0-7.056,2.017-8.801,5.251c-5.947,11.022-17.412,17.869-29.922,17.869S232.025,436.537,226.078,425.515z
	 M473.587,464.116H302.701c-3.676,0-7.055,2.017-8.801,5.251c-5.91,10.953-16.123,18.651-27.9,21.459v-28.373
	c13.844-2.603,26.178-10.538,34.293-22.19h136.801c5.522,0,10-4.477,10-10V128.608h26.493V464.116z"/>
<g>
</g>
<g>
</g>
<g>
</g>
<g>
</g>
<g>
</g>
<g>
</g>
<g>
</g>
<g>
</g>
<g>
</g>
<g>
</g>
<g>
</g>
<g>
</g>
<g>
</g>
<g>
</g>
<g>
</g>
</svg>
