<?xml version="1.0" encoding="utf-8"?>
<!-- Generator: Adobe Illustrator 19.0.0, SVG Export Plug-In . SVG Version: 6.00 Build 0)  -->
<svg version="1.1" id="Layer_1" xmlns="http://www.w3.org/2000/svg" xmlns:xlink="http://www.w3.org/1999/xlink" x="0px" y="0px"
	 width="1400px" height="1400px" viewBox="0 0 1400 1400" enable-background="new 0 0 1400 1400" xml:space="preserve">
<g id="XMLID_5181_">
	<defs>
		<rect id="XMLID_5180_" width="1400" height="1400"/>
	</defs>
	<clipPath id="XMLID_2_">
		<use xlink:href="#XMLID_5180_"  overflow="visible"/>
	</clipPath>
	<g id="XMLID_5162_" clip-path="url(#XMLID_2_)">
		<rect id="XMLID_4996_" fill-rule="evenodd" clip-rule="evenodd" fill="#003763" width="1400" height="1400"/>
		<path id="XMLID_5160_" fill-rule="evenodd" clip-rule="evenodd" fill="#004575" d="M1284,525.3c-53.9,8.2-79.6-4.4-122.4-32.2
			c-39.6-25.7-105.3-42.6-151.3-30.8c-29.9,7.6-55.4,26.9-84.2,38.1c-19.7,7.6-40.8,11.3-61.6,15c-40.6,7.1-81.2,14.2-121.8,21.3
			c-18.1,3.2-37.4,6.9-50.4,19.9c35,6.2,70.8,8.1,106.2,5.6c8.5-0.6,17.4-1.4,25.4,1.7c7.9,3.1,13.8,9.6,21,14
			c29.6,18.2,66.7-3,100.9-8.9c47.4-8.2,94.1,14.3,141.4,23.6c38.6,7.6,78.8,6.2,116.8-4c34.3-9.2,67.1-25.5,102.5-27.5
			c35.3-2,75.7,8.9,102.7-13.9c1.9-1.6,3.8-3.5,4.4-6c1.2-5.2-3.9-9.6-8.7-12.2C1368.6,509.5,1324.6,519.2,1284,525.3z"/>
		<path id="XMLID_5158_" fill-rule="evenodd" clip-rule="evenodd" fill="#004575" d="M-26.1,171.5c35.4-36.9,100.5-23.9,137.7,11.2
			c13.1,12.4,24.8,27.5,41.7,34c31.1,12.1,66.2-9.5,99-3.1c20.9,4,37,18.8,56.7,25.8c18.4,6.6,37.9,5.4,57.1,6.8
			c38.5,2.9,61,1.8,85.8,32.8c15.1,18.9,43.5,17.9,67.6,16.2c24.1-1.7,53.3,0.4,64.9,21.6c-39.3,18.8-87.3,3.8-128.7,17.4
			c-23.9,7.8-43.6,24.6-64.6,38.5c-21,13.9-45.7,25.6-70.5,21.3c-20.1-3.5-37.3-17.1-57.4-20.8c-32.5-6.1-63.2,14.3-94.4,25.2
			c-36.4,12.7-75.2,12.1-113.2,9.5c-34.3-2.3-68.6,0.1-103.3-2.1L-26.1,171.5z"/>
		<path id="XMLID_5159_" fill-rule="evenodd" clip-rule="evenodd" fill="#002C56" d="M477.5,966.8C479.7,981,704.4,911,787.3,851
			S955,717.6,996.9,731.2c41.9,13.6,161.1,100.4,175.1,107.2c14,6.8,330.9,212.6,347.9,236.5c17,23.9,118.3,136.5,49.2,162.8
			c-69,26.4-389.5,123.3-581.4,58.2S477.5,966.8,477.5,966.8z"/>
		<path id="XMLID_5157_" fill-rule="evenodd" clip-rule="evenodd" fill="#002C56" d="M-33.9,898.3C67.2,863.2,167.5,825,262.9,776.5
			C374,720.1,480.8,649,603.1,625.5c5.6-1.1,11.5-2.1,17.1-0.8c7.6,1.7,13.7,7.4,19.4,12.6c149.9,138.1,356.2,198,518.2,321.7
			c5.8,4.5,12,9.5,13.7,16.6c3,11.9-7.3,22.7-17.1,30c-39.6,29.3-87.1,45.4-134,60.5c-137,44-279.8,83.5-422.9,68.1L-33.9,898.3z"/>
		<path id="XMLID_5155_" fill-rule="evenodd" clip-rule="evenodd" fill="#00264F" d="M-50.8,803.8c69.3-58.2,182-55.7,248.6,5.7
			c23.6,21.7,42,49.8,70.1,65.2c50.2,27.6,113.2,6.3,169.1,18.5c57.4,12.5,104,59.5,162.5,66c52.5,5.8,102.8-22.6,143.8-56
			s77.6-73.2,124.5-97.4c60.7-31.3,136-32.6,197.8-3.4c19.4,9.2,37.5,21.1,57.3,29.2c49.9,20.3,106,14.2,159.9,11.8
			c53.8-2.3,112.4,1,153.9,35.3c46.3,38.2,58.5,104.8,52.9,164.5c-2.8,29.9-9.7,60.4-27.2,84.7c-29.9,41.7-83.9,57.3-134.1,67.9
			c-203.2,42.9-413.8,48.3-619.8,22.3c-92.1-11.6-183.8-29.5-276.6-30.5c-68.3-0.7-137.3,7.6-204.5-4.6
			c-57.7-10.5-112.1-35.9-170.1-44.5c-50.4-7.5-111.4-6.8-139-49.6L-50.8,803.8z"/>
		<path id="XMLID_5156_" fill-rule="evenodd" clip-rule="evenodd" fill="#00264F" d="M1361.6,638.8c2.2,72.8-35.3,137-53.3,206.2
			c-22.3,86-14.3,179.2-4.7,268.8c-17.8-2.7-36-1.6-53.5,3.3c2.6-53.9,5.2-107.7,7.9-161.6c1.2-25.6,2.5-51.4-0.2-76.9
			c-2.9-27.5-10.4-53.9-17.7-80c-12.4-43.9-24.8-87.8-37.3-131.8c1.8-11.4,15.6-13.1,22.5-5.3c6.9,7.8,8.6,20.2,10.5,31.6
			c6,37.7,17,74.2,32.3,107.5c11.6-49.2,20.9-99.4,27.7-150c8.7-1.3,17.2-4.9,24.7-10.5c-9.5,46.4-16,93.8-19.6,141.5
			c13.9-45,27.8-90.1,41.7-135.1c2-6.5,0.1-18-4.9-14.8L1361.6,638.8z"/>
		<path id="XMLID_5154_" fill-rule="evenodd" clip-rule="evenodd" fill="#00264F" d="M1309.4,430.8c-27.3-9.5-55.2-18-83.5-25.3
			c1,5.1,2.1,10.2,3.1,15.2c-8.7-0.6-17.3-1.3-26-1.9c-8,13.5-12.8,28.3-14.2,43.4c-9.2-1.9-18.4-3.9-27.6-5.8
			c-3.9,4.3-4.3,10.6-1,15.3c-12-1.6-24.7,0.4-35.1,5.7c3,4.6,8.1,8.1,14,9.7c-16.6-1.5-33.5-0.9-49.9,2
			c5.3,7.4,12.7,13.7,21.5,18.2c-11.8-0.7-23.7-1.4-35.5-2.1c3.4,6.5,9.7,11.9,17.4,14.9c-22.3-2-45.3,2.4-64.2,12.4
			c11.2,1.3,22.3,2.5,33.5,3.8c-15.8,7.2-31.7,14.4-47.5,21.6c10.1,4.3,21.8,5.8,32.9,4.3c-4,5.9-11.2,10.1-19.1,11.3
			c8.7,4.5,17.4,9,26.1,13.6c-36.4,1.9-72.7,3.7-109.1,5.6c4.9,5.4,9.7,10.9,14.6,16.3c-5.9,0.6-11.7,1.1-17.6,1.7
			c11.5,14.1,34.2,21,53.8,16.6c-7.9,4.1-15.9,8.3-23.8,12.4c13.3,0.2,26.6-1.9,38.9-6.1c-5,8.4-10.1,16.8-15.1,25.1
			c12-0.2,23.9-2.3,35-6c-4.6,6.3-7.4,13.6-7.8,20.9c12.3-3.3,24.7-6.6,37-9.9c0.6,7.5,1.3,15.1,1.9,22.6
			c10.5-2.6,19.8-8.5,25.6-16.3c3.9,6.6,7.7,13.3,11.6,19.9c12.5-2.2,23.6-9.8,28.7-19.6c1.3,6,2.6,12,3.9,18
			c9.9-4.8,19.9-9.7,29.8-14.5c-5.9,9.2-4.2,21.4,4.1,29.2c-7.7,9.6-15.4,19.2-23,28.7c12.1-5.4,24.1-10.9,36.2-16.3
			c-4.5,6.5-6.2,14.3-4.9,21.8c15.8-6,30.6-13.7,43.9-23c3,5.3,6,10.6,9,15.9c14.3-2.1,26.3-12.6,28.1-24.7
			c4.6,5.3,9.2,10.5,13.7,15.8c7.4-5.2,13.6-11.6,18.1-18.7c5.1,3.8,10.2,7.6,15.3,11.4c7.8-5.7,13.7-13.2,16.9-21.4
			c2.7,4.5,5.4,9,8.1,13.5c7.8-7.7,14.5-16.1,19.9-25.2c6.7,4.5,13.3,9,20,13.5c9.9-11,17.8-23.3,23.3-36.3
			c12.7,12.7,37.5,15.3,53.6,5.6c16.1-9.7,20.9-30.2,10.5-44.3L1309.4,430.8z"/>
		<path id="XMLID_5151_" fill-rule="evenodd" clip-rule="evenodd" fill="#003159" d="M1133.2,1129.1c-13.4-6.2-273.2-47.7-650.3-111
			S-6.8,966.8-6.8,966.8s-67.6,417.2,0,417.2s778.7-135.2,805.7-135.2C825.8,1248.9,1133.2,1129.1,1133.2,1129.1z"/>
		<path id="XMLID_5153_" fill-rule="evenodd" clip-rule="evenodd" fill="#051E42" d="M-45,951.5c7.4-14.8,20.8-26.6,36.4-32.1
			c-0.9,12.5,0.1,25.2,2.9,37.5c7.1-1,13.9-4.4,19.1-9.4c4.6,14.4,1.5,31.1-8,42.8c9.7-7.6,19.3-15.2,29-22.8
			c5.8,14.4,6.2,30.9,1.1,45.5c4.7-10.9,17.6-17.5,29.1-14.9c11.5,2.6,20.4,14,20.1,25.8c7.3-3.2,14.7-6.5,22-9.7
			c2.8,6.1,5.5,12.2,8.3,18.4c7.1-15,18.4-28,32.4-37.2c4,8.7,4.4,19,1.1,28c8.2-8.1,18.4-14.3,29.4-17.8c3,12.9,2.3,26.7-2,39.3
			c5.7-3.9,11.5-7.9,17.2-11.8c-0.3,12.9-4.6,25.7-12.3,36.1c8.9-11.4,20.3-21,33.2-27.7c-2.8,9.1-5.5,18.3-8.3,27.4
			c11.6-11,23.1-22.1,34.7-33.1c0.3,7.9,0.5,15.9,0.8,23.8c6.8-8.7,15.5-15.9,25.3-21c1.5,15.5-1.2,31.3-7.6,45.5
			c7.6-12.2,18.9-22.1,32-28c2.6,13.1-0.4,27.2-8,38.1c14.5-6.1,30.8-7.7,46.2-4.5c-5.2,9.2-10.3,18.3-15.5,27.5
			c13.1-10.3,30.2-15.4,46.8-14.1c-3.3,11.6-9.2,22.4-17.2,31.3c14.2-6.6,35.7-10.5,41.2,4.1c2.4,6.2,0.2,13.1-2.4,19.2
			c-27,63.9-96.2,98.7-162.8,118.2c-58.2,17.1-120.1,26.6-179.7,15.3c-59.6-11.4-116.8-46.2-144.4-100.3L-45,951.5z"/>
		<path id="XMLID_3194_" fill-rule="evenodd" clip-rule="evenodd" fill="#002751" d="M1400,1083.9C541,1070.6,0,1245,0,1245v155
			h1400V1083.9z"/>
		<g id="XMLID_3174_">
			<polygon id="XMLID_3179_" fill-rule="evenodd" clip-rule="evenodd" fill="#FFFFFF" points="537,1168.5 529.1,1168.5 526.9,1140 
				539.2,1140 			"/>
			<g id="XMLID_4779_">
				<polygon id="XMLID_4798_" fill-rule="evenodd" clip-rule="evenodd" fill="#EE7D27" points="776.4,798.3 1088.6,798.3 
					1338.1,1168.5 1026,1168.5 870.6,981.4 				"/>
				<polygon id="XMLID_4796_" fill-rule="evenodd" clip-rule="evenodd" fill="#C54726" points="776.4,1168.7 1026,1168.7 
					776.4,798.3 526.9,1168.7 				"/>
				<path id="XMLID_4795_" fill-rule="evenodd" clip-rule="evenodd" fill="#FFFFFF" d="M967.7,1169.8l-0.6-1.1l-50-83.9
					c1.5-0.5,2.6-0.8,3.2-1l49.9,83.8l-1.3,1.1L967.7,1169.8z"/>
				<path id="XMLID_4792_" fill-rule="evenodd" clip-rule="evenodd" fill="#FFFFFF" d="M585.2,1169.8l0.6-1.1l50-83.9
					c-1.5-0.5-2.6-0.8-3.2-1l-49.9,83.8l1.2,1.1L585.2,1169.8z"/>
				<polygon id="XMLID_4788_" fill-rule="evenodd" clip-rule="evenodd" fill="#982000" points="776.4,798.3 699.5,1083.6 
					699.5,1168.7 852.9,1168.7 863.5,1076 				"/>
				<path id="XMLID_4787_" fill-rule="evenodd" clip-rule="evenodd" fill="#EE7E27" d="M776.4,798.3l144.3,285.4
					c0,0-50.6,10.7-67.9,85L776.4,798.3z"/>
				<path id="XMLID_4786_" fill-rule="evenodd" clip-rule="evenodd" fill="#EE7E27" d="M776.4,798.3l-144.3,285.4
					c0,0,50.6,10.7,67.9,85L776.4,798.3z"/>
			</g>
			<polygon id="XMLID_3172_" fill-rule="evenodd" clip-rule="evenodd" fill="#FFFFFF" points="1340.4,1168.5 1332.5,1168.5 
				1330.3,1140 1342.6,1140 			"/>
			<polygon id="XMLID_3175_" fill-rule="evenodd" clip-rule="evenodd" fill="#FFFFFF" points="1036.1,1168.5 1028.2,1168.5 
				1026,1140 1038.3,1140 			"/>
			<path id="XMLID_5026_" fill-rule="evenodd" clip-rule="evenodd" fill="#002343" d="M526.9,1168.7c0,0,390.2,71.4,390.2,72.8
				c-0.1,1.4,703.9,0,703.9,0l-280.6-73.1L526.9,1168.7z"/>
		</g>
		<g id="XMLID_3195_">
			<path id="XMLID_4928_" fill-rule="evenodd" clip-rule="evenodd" fill="#0072BF" d="M1190.9,1103.2h-7.7v80.8h12.1
				c6.2,0,11.2-7.6,11.2-16.9l0-14.9v-32.2c0-9.3-5-16.9-11.2-16.9H1190.9z"/>
			<path id="XMLID_4868_" fill-rule="evenodd" clip-rule="evenodd" fill="#0072BF" d="M1027.3,1103.2h7.9v80.8h-12.3
				c-6.3,0-11.4-7.6-11.4-16.9l0-14.9v-32.2c0-9.3,5.1-16.9,11.4-16.9H1027.3z"/>
			<path id="XMLID_4867_" fill-rule="evenodd" clip-rule="evenodd" fill="#004084" d="M1165.6,1199.5h-112.9
				c-9.7,0-17.5-7.9-17.5-17.5l0-173.2c0-16.1,13.1-29.2,29.2-29.2h89.5c16.1,0,29.2,13.1,29.2,29.2l0,173.2
				C1183.1,1191.6,1175.3,1199.5,1165.6,1199.5"/>
			<path id="XMLID_4832_" fill-rule="evenodd" clip-rule="evenodd" fill="#0072BF" d="M1153.9,979.5h-89.5
				c-16.1,0-29.2,13.1-29.2,29.2l0,26c0,17.4,14.1,31.5,31.5,31.5h84.9c17.4,0,31.5-14.1,31.5-31.5l0-26
				C1183.1,992.6,1170.1,979.5,1153.9,979.5"/>
			<path id="XMLID_4801_" fill-rule="evenodd" clip-rule="evenodd" fill="#CEB286" d="M1183.1,1040.3v-5.3c0-0.1,0-0.2,0-0.2l0,5.3
				C1183.1,1040.1,1183.1,1040.2,1183.1,1040.3"/>
			<path id="XMLID_4800_" fill-rule="evenodd" clip-rule="evenodd" fill="#0072BF" d="M1154.8,1182.5h-91.2c-6,0-10.9-4.9-10.9-10.9
				v-75.4c0-6,4.9-10.9,10.9-10.9h91.2c6,0,10.9,4.9,10.9,10.9l0,75.4C1165.6,1177.6,1160.8,1182.5,1154.8,1182.5"/>
			<path id="XMLID_4714_" fill-rule="evenodd" clip-rule="evenodd" fill="#B7BB5A" d="M1057.4,1087.2c1.7-1.2,3.9-1.9,6.1-1.9h0
				C1061.3,1085.3,1059.2,1086,1057.4,1087.2 M1077.2,1182.5h-13.6c-6,0-10.9-4.9-10.9-10.9c0,6,4.9,10.9,10.9,10.9H1077.2z"/>
			<path id="XMLID_4713_" fill-rule="evenodd" clip-rule="evenodd" fill="#878A24" d="M1159.3,1086.3c-1.4-0.6-2.9-1-4.5-1h0
				C1156.4,1085.3,1157.9,1085.7,1159.3,1086.3"/>
			<path id="XMLID_4709_" fill-rule="evenodd" clip-rule="evenodd" fill="#CEB286" d="M1183.1,1174.2v-71h0v70.8
				C1183.1,1174.1,1183.1,1174.2,1183.1,1174.2 M1190.7,1184h-7.5v-1.9c0-0.1,0-0.1,0-0.2l0,2.1H1190.7z"/>
			<polygon id="XMLID_4708_" fill-rule="evenodd" clip-rule="evenodd" fill="#878A24" points="1035.2,1182 1035.2,1182 
				1035.2,1110.4 1035.2,1174 			"/>
			<path id="XMLID_4707_" fill-rule="evenodd" clip-rule="evenodd" fill="#F7DFBB" d="M1035.7,1003.1c2.6-13.4,14.5-23.6,28.7-23.6
				h0C1050.2,979.5,1038.3,989.7,1035.7,1003.1"/>
			
				<rect id="XMLID_3196_" x="1026.5" y="969.4" fill-rule="evenodd" clip-rule="evenodd" fill="#051E42" width="165.4" height="37.7"/>
			<path id="XMLID_3645_" fill-rule="evenodd" clip-rule="evenodd" fill="#0B2F55" d="M1076.2,1199.5h-7.3c-1.4,0-2.6-1.2-2.6-2.6
				V969.4c0-1.4,1.2-2.6,2.6-2.6h7.3c1.4,0,2.6,1.2,2.6,2.6l0,227.5C1078.8,1198.3,1077.6,1199.5,1076.2,1199.5"/>
			<path id="XMLID_3644_" fill-rule="evenodd" clip-rule="evenodd" fill="#0B2F55" d="M1149.4,1199.5h-7.3c-1.4,0-2.6-1.2-2.6-2.6
				l0-227.5c0-1.4,1.2-2.6,2.6-2.6h7.3c1.4,0,2.6,1.2,2.6,2.6l0,227.5C1152,1198.3,1150.8,1199.5,1149.4,1199.5"/>
			<path id="XMLID_3639_" fill-rule="evenodd" clip-rule="evenodd" fill="#FFFFFF" d="M1064.6,1106.9h15.9v21.7h-15.9V1106.9z
				 M1064.1,1102.5h16.9c2.2,0,3.9,1.8,3.9,3.9v22.7c0,2.2-1.8,3.9-3.9,3.9h-16.9c-2.2,0-3.9-1.8-3.9-3.9v-22.7
				C1060.2,1104.2,1061.9,1102.5,1064.1,1102.5z"/>
			<path id="XMLID_3636_" fill-rule="evenodd" clip-rule="evenodd" fill="#FFFFFF" d="M1137.7,1106.9h15.9v21.7h-15.9V1106.9z
				 M1137.2,1102.5h16.9c2.2,0,3.9,1.8,3.9,3.9v22.7c0,2.2-1.8,3.9-3.9,3.9h-16.9c-2.2,0-3.9-1.8-3.9-3.9v-22.7
				C1133.2,1104.2,1135,1102.5,1137.2,1102.5z"/>
			<path id="XMLID_3633_" fill-rule="evenodd" clip-rule="evenodd" fill="#FFFFFF" d="M1064.6,1022.6h15.9v21.7h-15.9V1022.6z
				 M1064.1,1018.1h16.9c2.2,0,3.9,1.8,3.9,3.9v22.7c0,2.2-1.8,3.9-3.9,3.9h-16.9c-2.2,0-3.9-1.8-3.9-3.9v-22.7
				C1060.2,1019.9,1061.9,1018.1,1064.1,1018.1z"/>
			<path id="XMLID_3630_" fill-rule="evenodd" clip-rule="evenodd" fill="#FFFFFF" d="M1137.7,1022.6h15.9v21.7h-15.9V1022.6z
				 M1137.2,1018.1h16.9c2.2,0,3.9,1.8,3.9,3.9v22.7c0,2.2-1.8,3.9-3.9,3.9h-16.9c-2.2,0-3.9-1.8-3.9-3.9v-22.7
				C1133.2,1019.9,1135,1018.1,1137.2,1018.1z"/>
			<path id="XMLID_3198_" fill-rule="evenodd" clip-rule="evenodd" fill="#FFFFFF" d="M1098.3,1071.9v-15.9h21.7v15.9H1098.3z
				 M1093.9,1072.3v-16.9c0-2.2,1.8-3.9,3.9-3.9h22.7c2.2,0,3.9,1.8,3.9,3.9v16.9c0,2.2-1.8,3.9-3.9,3.9h-22.7
				C1095.7,1076.3,1093.9,1074.5,1093.9,1072.3z"/>
		</g>
		<path id="XMLID_4937_" fill-rule="evenodd" clip-rule="evenodd" fill="#002E57" d="M1342.2,541.3c0-1.1-0.1-2.2-0.2-3.3
			C1342.1,539.1,1342.1,540.2,1342.2,541.3z"/>
		<path id="XMLID_4938_" fill-rule="evenodd" clip-rule="evenodd" fill="#002E57" d="M1342.2,541.3c0,1.7,0,3.4,0,5
			C1342.2,544.6,1342.2,542.9,1342.2,541.3z"/>
		<path id="XMLID_4935_" fill-rule="evenodd" clip-rule="evenodd" fill="#002E57" d="M1380.9,1115.7c0.1-0.6,0.1-1.2,0.1-1.7
			C1381,1114.6,1380.9,1115.2,1380.9,1115.7z"/>
		<path id="XMLID_4934_" fill-rule="evenodd" clip-rule="evenodd" fill="#002E57" d="M1463.3,1414.4c1.1-1.3,1-2.6,0.2-3.8
			C1463.4,1411.9,1463.4,1413.2,1463.3,1414.4z"/>
		<g id="XMLID_4927_">
			<path id="XMLID_4887_" fill-rule="evenodd" clip-rule="evenodd" fill="#002954" d="M462.9-28.2c-19.5,12.9-38.3,26.8-56.3,41.6
				c15,3.6,31.1,2.5,45.6-3c-10.7,9.5-18.3,22.5-21.3,36.4c12.7,0.4,25.4-2.9,36.4-9.3C461.6,49.8,456,62,450.4,74.1
				c16.6-5.6,31.6-15.7,43.2-28.7c-6.6,7.3-3.6,20.7,5.5,24.5c9,3.8,20.7-3.6,21.3-13.4c-8.7,8.5,3.4,24.6,15.4,22.9
				c12-1.7,20-13.3,24.6-24.6c-7.6,12.4-0.8,31.2,13,35.8c13.8,4.7,30.6-6.2,32-20.7c-10.4,17.5-20.9,35-31.3,52.6
				c-2.7,4.5-5.1,11-1,14.4c2.2,1.8,5.4,1.6,8.2,1.3c17.2-2.4,33.6-10.3,46.2-22.2c-4.5,4.7-9.3,9.9-10.3,16.4
				c-1,6.5,3.8,14.2,10.3,13.6c3.9-0.4,6.9-3.5,9.4-6.4c5.8-6.8,11-14.1,15.6-21.7c0.6,11.1,1.2,22.3,1.8,33.4
				c11.8-5.9,19.4-19.3,18.5-32.4c3.8,9.8,7.6,19.5,11.4,29.3c15.7-4,27.3-20.4,25.9-36.6c1.8,12.3,6.8,24.2,14.3,34.2
				c8.6-8.9,14.8-20.2,17.5-32.2c-6.3,11,8.2,24.8,20.5,21.7c12.3-3.1,19.4-16.2,21.2-28.8c-2.6,15.9,19.9,26.2,34.4,18.9
				c14.4-7.3,21.2-23.8,26.4-39.1c7.3-21.6,13.8-43.9,13.3-66.6c-0.4-22.8-8.7-46.3-26.4-60.7L462.9-28.2z"/>
			<path id="XMLID_3197_" fill-rule="evenodd" clip-rule="evenodd" fill="#051E42" d="M789-13c-21.7,3.8-42.6,12.2-60.9,24.4
				c17.6,7.9,37.2,11.1,56.4,9C761.6,33,740.4,48.8,721.7,67c17.9-1.5,35.4-7.2,50.8-16.6c-10.5,11-17.9,24.7-21.5,39.5
				c11.7-6.6,22.9-14.2,33.3-22.7c0.3,5.8-4.3,10.4-6.9,15.6c-2.7,5.1-1.7,13.5,4,14.1c2.4,0.2,4.6-1.1,6.5-2.4
				c9.4-6.4,17.8-14.2,24.9-23.1c-7.6,22.7-15.3,45.4-22.9,68c15.1-5.7,29-14.7,40.5-26.1c-5,5-8.4,11.5-9.7,18.4
				c7.7,0.9,15.4,1.8,23.1,2.7c-18.2,16.5-36.4,33-54.5,49.5c20.4-7.6,40.8-15.1,61.2-22.7c-12.8,9.1-21.1,24.3-21.7,40
				c16.3-4.1,31.4-12.6,43.4-24.3c-4.4,12-8.8,24-13.1,35.9c19-7.6,35.6-20.9,47.1-37.8c-1.8,10.9-3.6,21.7-5.3,32.6
				c12.7-12,22.8-26.7,29.3-42.9c0.7,11.4,1.5,22.8,2.2,34.2c14.5-7,25-21.7,27-37.7c-1.7,6.6-3.3,13.6-1.7,20.2
				c1.7,6.6,7.9,12.6,14.6,11.5c3.3-0.5,6.1-2.6,8.7-4.8c7.4-6.4,13.6-14.2,18.1-22.9c1.5,24.3-4,49-15.7,70.3
				c-3.1,5.6-6.2,13.4-1.4,17.5c2.9,2.5,7.3,2,11.1,1.2c14.9-3.3,29.1-9.4,41.8-17.9c-8.4,5.1-15,13.3-18.2,22.6
				c4.6,1.4,9.2,2.8,13.9,4.2c-9.5,11.5-17.5,24.4-23.6,38c26.5-8.6,50-26.2,65.7-49.1c-11.6,12.9-17.9,30.5-17.2,47.8
				c18.1-6.9,32.5-22.6,37.8-41.2c-2.1,12.4-0.7,25.5,4.2,37.1c19.2-11,32.8-31.2,35.8-53.1c-0.1,7.7-0.3,15.4-0.4,23.1
				c0,2.7,0,5.7,2,7.5c12,11.3,29.1-52.1,30-58.5c3.2,9.9,4.7,20.3,4.5,30.7c11.2-6.9,19.9-17.7,24.5-30.1c0.4,12.4-0.6,24.8-3,36.9
				c15.5-7.8,29.3-18.9,40.3-32.3c0,11.6-0.5,23.4,0.4,34.9c31.7-10.4,40.6-24.3,31.4,17c9-2.2,46.1-21.9,43.8-34.8
				c1.9,10.5,3.7,21.1,5.6,31.6c8.1-9.2,14.6-19.9,18.9-31.4c0.6,11.6,6.2,22.9,15,30.4c5-16.3,8.4-33,10.3-49.9
				c8.8,9.6,17.7,19.2,26.5,28.8c-1.4-14.7-0.3-29.6,3.3-43.9c11.1,10.5,26.3,21.8,40.3,15.6c6.7-3,11.1-9.4,14.9-15.6
				c47.9-79,44.1-186.3-9.3-261.6L789-13z"/>
			<path id="XMLID_4941_" fill-rule="evenodd" clip-rule="evenodd" fill="#051E42" d="M1378,1132c2,69-18,136-47,199
				c-13.7,30.2-21.8,62.4-33.3,93.1c12.3-1,24.6-2.6,37-4.4c29.2-100.4,41.4-201.7,46.3-304C1380.4,1121.2,1378,1126.6,1378,1132z"
				/>
			<path id="XMLID_4947_" fill-rule="evenodd" clip-rule="evenodd" fill="#002E57" d="M1400,560.4V1400h-59.8
				c25.3-94,36.2-188.7,40.8-284.3c-0.5,5.4-2.9,10.8-2.9,16.3c2,69-18,136-47,199c-10.2,22.4-17.3,45.8-24.9,69
				c-2.7,8.1-5.4,16.2-8.4,24.1c-25.8,2.2-51.4,1.8-76.8-4.3c2.9-6.6,5.7-13.2,8.6-19.8c12.5-29.1,24.8-58.4,36.7-87.7
				c22.1-54.3,43.3-109.4,54.8-166.9c12.5-62.3,13.6-126.2,18.1-189.5c3.9-56.1,10.6-112.1,10.8-168.4c0.3-70.3-10-142.8-28.6-212.4
				c2.6,1.7,6.3,2.4,7.8,0.9c9.7-7.2,12.8-18.4,13.2-29.7c0,8.1,0.6,15.8,11.8,21.7c3-10,3-20,3-30c0,11,7,21,13,25
				c12,7,14-19,14-31C1391.1,540.6,1393.8,552.3,1400,560.4z"/>
			<path id="XMLID_4945_" fill-rule="evenodd" clip-rule="evenodd" fill="#00274D" d="M1400,306.1v254.2c-6.2-8-8.9-19.7-16-28.4
				c0,12-2,38-14,31c-6-4-13-14-13-25c0,10,0,20-3,30c-11.2-6-11.8-13.6-11.8-21.7c0.1-1.7,0-3.3,0-5c0-1.1-0.1-2.2-0.2-3.3
				c0.1,1.1,0.1,2.2,0.2,3.3c0,1.7,0,3.4,0,5c-0.4,11.4-3.5,22.5-13.2,29.7c-1.5,1.5-5.2,0.8-7.8-0.9
				c-10.4-38.7-23.4-76.5-38.6-112.6c-28.9-68.2-82.6-122.1-130.5-178.6c-39.6-46.7-77.1-99.1-91.7-157.6
				c10.3-8.3,19-18.4,30.7-25.4c-5,15-1,29,2,44c6.4-4.2,11.6-9.6,16.2-15.5c37.2,93.4,103.5,175.2,187.8,230.1
				c-5.5-46.6-11.1-93.1-16.6-139.7c-3.1-26-6.2-52-7.2-78.1c-1.1-27.8,0.2-55.6,2.9-83.2c3.3,10,5,20.5,12.9,28.4c4-10,5-21,8-32
				c4,10,0,25,7,30c11.8,7.4,16.5-10.8,23-25.2c-3.1,95.2,12.4,191.9,33.2,285.4C1373.4,332.2,1386.7,319.2,1400,306.1z"/>
			<path id="XMLID_4936_" fill-rule="evenodd" clip-rule="evenodd" fill="#002E57" d="M1055.2,97.5c0.4,3.9,1,7.8,1.6,11.6
				c2-5.2,3.8-10.5,4.2-16.1C1059.1,94.5,1057.1,96,1055.2,97.5z"/>
			<path id="XMLID_4886_" fill-rule="evenodd" clip-rule="evenodd" fill="none" d="M507.5-11.8c-17.8,7.9-34.1,19.5-47.4,33.7
				c16.4-4.1,32.7-8.2,49.1-12.4C497.9,18.3,489,30,483.4,43.2c17.8-3.8,34.9-10.2,50.8-19c-11.2,10.5-20.3,23.2-26.7,37.2
				c15-4.8,29.3-12.1,42-21.4c-2,9.1-2.5,18.5-1.3,27.7c12.6-3.1,23.6-12.2,28.9-24.1c-1.7,9-1,18.5,2.1,27.1
				c9.2-2.5,17.1-9.2,21.2-17.8c-2.6,8.1,3.1,17.8,11.4,19.5c8.3,1.7,17.4-4.9,18.2-13.4c-5.8,15.1-11.6,30.3-17.3,45.4
				c15.6-4.8,31-10.3,46.2-16.5c-14.3,11.7-24.8,27.8-29.9,45.5c20.2-1.8,39.8-9.5,55.8-22c-6.8,10-9.8,22.6-8.3,34.6
				c13.4-5,24.9-15,31.8-27.6c-0.7,13.2,0.2,26.5,2.6,39.5c12.3-5.9,22.2-16.7,26.9-29.5c-3.6,14.1-3.1,34.8,11.3,36.8
				c13,1.9,20.2-14.5,22.7-27.4c4.2,7.8,8.4,15.6,12.6,23.4c10.3-15.3,18.3-32.2,23.6-49.9c-0.4,13.1,18.3,19.5,29.5,12.6
				c11.2-6.8,15.7-20.6,18.4-33.4c7-32.4,8.4-65.8,8.6-99c0.1-7.7-0.1-15.8-4-22.4s-13-10.7-19.5-6.6"/>
		</g>
		<g id="XMLID_4987_">
			<path id="XMLID_4949_" fill-rule="evenodd" clip-rule="evenodd" fill="#752000" d="M563.6,1212.7c4.9,0.4,10.6,1.3,13.3,5.5
				c2,3.2,1.7,7.3,3.3,10.7c3.3,7.1,12.8,8.1,20.7,8.3c26.2,0.9,52.2,4.9,77.4,12c4.2,1.2,9.1,3.3,9.5,7.6c0.5,5.6-6.8,8.2-12.4,8.9
				c-32,3.7-64,7.4-95.9,11.1c4.8,3.6,3.7,11.6-0.6,15.8c-4.3,4.1-10.6,5.4-16.5,6.5c-21.1,3.8-38.2,10.2-59.8,9.8
				c-26.5-0.4-53-1.3-79.5-1.3c-6.4-0.1-13-0.2-18.9-2.8c-4-1.8-7.5-4.6-11.5-6.5c-6.6-3.1-14-3.4-21.3-3.7
				c-11.2-0.4-22.4-0.8-33.7-1.2c-2-0.1-4.3-0.2-5.7-1.7c-1.2-1.3-1.4-3.1-2-4.7c-2.4-5.7-10-6.7-16.2-6.9c-25-0.5-50-0.9-75-1.4
				c-1.6,0-3.4-0.1-4.7-1.1c-4.1-3.1,0.8-9.3,5.5-11.6c23.6-11.3,50-14.8,75.4-20.9c2.1-0.5,4.3-1.1,5.6-2.8
				c1.6-2.1,1.1-5.1,1.9-7.7c1.8-5.6,8.7-7.3,14.5-8.1c38.7-5.2,77.6-8.7,116.6-10.5C490.3,1214.6,526.7,1209.4,563.6,1212.7z"/>
			<g id="XMLID_4948_">
				<g id="XMLID_4943_">
					<path id="XMLID_3163_" fill-rule="evenodd" clip-rule="evenodd" fill="#982000" d="M476.6,1187.7c3.2-5.3-2.6-12.4-8.8-12.8
						s-11.8,3.3-17,6.7c-23.7,15.8-48.7,29.2-73.1,43.8c-12.2,7.3-24.2,14.7-35.8,22.9c-7.5,5.3-22.2,14.5-12,24.1
						c10.4,9.9,34.4-13,44-19.1C408.2,1231.5,442.4,1209.6,476.6,1187.7z"/>
					<path id="XMLID_4929_" fill-rule="evenodd" clip-rule="evenodd" fill="#C54726" d="M582.9,1263.1c3,15.7-22.9,9.2-29.5,5.4
						c-10.5-5.9-18.1-15.6-27.8-22.6c-22.3-16-44.7-31.9-67-47.9c-2.2-1.6-4.6-3.7-4.2-6.3c0.7-4,6.4-3.9,10.2-2.7
						c13.4,4.4,26.1,10.7,37.7,18.6c-1.3-5.9-0.4-12.3,2.5-17.6c1.4,13.9,14,23.6,25.4,31.5c13.9,9.7,27.9,19.3,41.8,29
						C576.8,1253.8,581.8,1257.6,582.9,1263.1z"/>
					<path id="XMLID_4940_" fill-rule="evenodd" clip-rule="evenodd" fill="#C54726" d="M459.8,1197.1c-3.8-7.7-13-5.8-17.1,0.6
						c-6.2,9.8-8.2,24-12.5,34.9c-4.6,11.5-8.2,24.4-9.3,36.8c-0.5,5.5,0.6,12.6,6,14c4.8,1.2,9-3.4,11.7-7.6
						c12.3-19.6,19.1-42.2,22.3-65.1C461.3,1206.1,461.8,1201.2,459.8,1197.1z"/>
					<path id="XMLID_4942_" fill-rule="evenodd" clip-rule="evenodd" fill="#982000" d="M505.2,1264.7c0.2,4.5-0.1,9.8-3.8,12.3
						c-4.1,2.7-9.9,0.1-12.6-4c-2.6-4.1-3-9.3-3.7-14.1c-3.5-23.9-17-45.8-18.1-70c-0.3-6.2,0.8-19.4,8.3-21.9
						C497.7,1159.5,504.6,1251.3,505.2,1264.7z"/>
					<path id="XMLID_4932_" fill-rule="evenodd" clip-rule="evenodd" fill="#982000" d="M472.6,1164.8c-10.4,1.2-15.2,14-20.7,21.4
						c-7.5,10.1-15.5,19.8-23.7,29.3c-16,18.6-32.7,36.5-47.9,55.8c-1.9,2.4-4,5.5-3,8.4c0.7,2,2.6,3.4,4.6,4.2
						c6.3,2.5,13.8,0.5,19.4-3.4c5.6-4,9.7-9.6,13.6-15.2c21.4-29.9,42.9-59.8,64.3-89.7c0.7-1,1.4-2,1.7-3.2
						C482,1168.1,477,1164.3,472.6,1164.8z"/>
					<path id="XMLID_4939_" fill-rule="evenodd" clip-rule="evenodd" fill="#EE7E27" d="M469.3,1185.9c15.3,16.9,30.8,34,42.9,53.4
						c4.2,6.8,15.5,21.7,14.8,30c-1,11.1-11.5,7.6-17.6,2c-14.2-13.2-24-28.1-34.1-44.6c-6.4-10.3-12.5-21.1-14.7-33.1
						c-0.4-2.3-0.7-4.8,0.3-6.9c0.9-2.2,3.4-3.8,5.6-3.1C467.5,1184,468.4,1185,469.3,1185.9z"/>
					<path id="XMLID_4933_" fill-rule="evenodd" clip-rule="evenodd" fill="#982000" d="M477.2,1263.2c2.2,9.5,2.6,38.9-16.2,26.2
						c-5.5-3.7-8.5-10.5-9-16.9c-2.4-33-4.8-66-7.2-98.9c-0.3-3.7-0.5-7.7,1.4-11c1.9-3.2,6.8-5,9.5-2.3c1.4,1.3,1.8,3.4,2.2,5.3
						c3,16.8,6.1,33.7,9.1,50.5c3.7-0.2,5.2-4.8,6.1-8.4c0.9-3.6,3.4-8,7-7c4.2,1.1,3.2,7.3,1.5,11.3
						C474.8,1228.1,473.3,1246.2,477.2,1263.2z"/>
				</g>
				<path id="XMLID_4944_" fill-rule="evenodd" clip-rule="evenodd" fill="#EE7C00" d="M432.6,1232.2c4.8,8.8,17.2,9.9,26.8,6.9
					c9.6-3,18.2-8.9,28.1-10.3c7.6-1.1,15.3,0.5,23,0.3c7.7-0.1,16.1-2.5,20-9.1c5.8-9.8-1.2-22.1-0.2-33.4
					c0.9-9.4,7.3-15.9,11.6-23.8c5.1-9.4,3.7-14.1,3.6-24.1c-0.1-9.6,2.5-20.8,5.4-30c1.3-4,9.6-28.6,14.5-28.6
					c-10.4,0-20.5,5.9-25.6,14.9c-4,7.2-4.9,15.6-7.7,23.4c-0.7,1.9-1.7,4-3.6,4.9c-3.2,1.5-6.8-1.5-8.4-4.7
					c-3.6-7.5-0.8-15.1,0-22.8c0.6-5.8-0.7-12.2-5.1-16.1c-2.1-1.9-4.8-3-6.8-5c-2.6-2.6-3.8-6.3-4.4-9.9
					c-2.6-14.1,1.3-29.2,10.4-40.3c-9.8,0-19,7.6-20.9,17.2c-0.6,3.2-0.5,6.6-1.7,9.6s-4.1,5.8-7.3,5.2c-3.1-0.6-4.8-3.8-5.7-6.8
					c-7.3-23.5,11.4-46.1,0.9-68.8c-6.5-14-22.3-24.4-22.3-39.8c-5.4,23.9,11.4,48.7,6.3,72.7c-1.2,5.8-4.5,12-10.2,13.3
					c-6.6,1.5-13.1-4.5-14.5-11.2c-1.4-6.6,0.7-13.5,2.8-19.9c-19.6,18.6-25.6,46.8-13,70.7c3.2,6.1,7.4,11.6,10.4,17.9
					s4.5,13.6,2,20c-2.5,6.4-10,11.1-16.5,8.7c-7.1-2.7-9.2-11.6-9.8-19.1c-0.7-8.1-0.8-16.3-0.5-24.4c-4.9,8.8-7.3,16.6-6.9,26.6
					c0.2,5,1,10.1,0,15c-1,4.9-4.5,9.8-9.5,10.3c-7.4,0.8-12.2-7.6-13.9-14.8c-4.4-18.8-1.4-39.1,8.1-55.8
					c-11.8,3.4-17.4,16.7-20.4,28.6c-4.3,17-6.1,35.9,2.2,51.3c7.4,13.8,22.1,23.8,23.9,40.2c1.3,12-4.6,33.6,7.7,41.5
					c4.1,2.7,10.1,1.1,14.6,3C428.7,1219.4,428.6,1224.9,432.6,1232.2z"/>
				<path id="XMLID_4946_" fill-rule="evenodd" clip-rule="evenodd" fill="#FFA427" d="M508.2,1222.6c-8.4,20.7-37,30.7-57.6,24.4
					c-17.5-5.3-37.2-28.2-29.3-47.6c1.8-4.4,5.3-8.7,4.4-13.4c-0.5-3-2.7-5.4-4.4-7.8c-10.8-15.1-6.4-38.8,9.1-49.1
					c-2.5,5.5-5.1,11.3-4.9,17.3c0.3,6.1,4.5,12.4,10.6,12.8c8,0.6,13.1-8.8,13.5-16.8c0.4-8-1.8-16.4,1-23.9
					c2.9-7.7,10.6-13.1,12.4-21.2c2.5-11-7.2-22.1-4.9-33.2c5.3,6.5,10.7,13.2,12.9,21.3c6.6,23.7-16.4,48.8-8.5,72.1
					c0.6,1.7,1.4,3.4,2.9,4.4c3.6,2.3,8.2-1.1,10.2-4.8c4.5-8.1,3.9-18,5-27.2c1.1-9.2,5.3-19.5,14.2-22.1c-5.3,5.2-5.1,13.9-3,21.1
					c2,7.2,5.4,14.2,5,21.7c-0.9,17.9-22.3,28.4-26.8,45.8c-0.8,3-1,6.4,0.3,9.2c3.8,8.4,17.3,6.5,22.9-0.8c5.6-7.3,6.2-17.1,8.7-26
					c2.5-8.9,8.9-18.3,18.1-18.2c-5.5,2.9-6.6,10.1-6.8,16.3C512.8,1192.3,514,1208.3,508.2,1222.6z"/>
			</g>
		</g>
		<g id="XMLID_4984_">
			<path id="XMLID_4930_" fill-rule="evenodd" clip-rule="evenodd" fill="#EE7E27" d="M133.6,992.4c-1.1-0.9-2.3-1.7-3.7-2.2
				c-4.4-1.8-9.5-0.9-14.1,0.4c-22.4,6.1-42.5,20.7-55.1,40.2c-9.8,15.1-15.4,33-27.9,45.9c-10.4,10.8-25.1,17.5-33.2,30.2
				c-11.3,17.6-6.7,41.2-14.8,60.5c-6.5,15.5-20.4,26.4-30.9,39.5c-25.7,32.5-28.7,88.5-8.7,124.6c7.4,13.3,18,25.2,31.7,31.6
				c5.4,2.5,10.8,4.2,16.3,5.1c9.3-103.8,38.6-205.7,89.6-299.1C97.3,1042.2,112.9,1014.8,133.6,992.4z"/>
			<path id="XMLID_4931_" fill-rule="evenodd" clip-rule="evenodd" fill="#EE6618" d="M146.2,1129.7c-2.9-8.6-9.1-15.8-12.7-24.1
				c-13-30.3,11.1-64.4,7.2-97.2c-0.7-5.9-2.8-12.3-7.2-16.1c-20.7,22.4-36.3,49.8-50.8,76.7c-51,93.4-80.2,195.3-89.6,299.1
				c36.1,6,73.4-20.2,96.8-44.4c16.1-16.6,32.1-36.4,32.5-59.6c0.2-14.1-5.4-27.9-4.5-41.9C119.9,1189.3,156.6,1161.1,146.2,1129.7z
				"/>
			<path id="XMLID_4885_" fill-rule="evenodd" clip-rule="evenodd" fill="#003763" d="M266,1350c45.2-34.3,108.5-70.1,167.4-62.4
				c-85.7-17.8-175.2-15.9-254.5,23.9c-26.8,13.4-52.6,29.6-73.7,50.8c-9.5,9.6-18.3,20.5-22.4,33.5c-4.1,12.9-3,28.1,5.7,38.5
				c9,10.8,24.5,14.6,38.4,12.6c13.9-2,26.6-9.1,38.4-16.8C201.3,1406.7,231.9,1375.9,266,1350z"/>
			<path id="XMLID_3646_" fill-rule="evenodd" clip-rule="evenodd" fill="#002E57" d="M39.2,1384.7c-3.5,0.4-1.6-5.5,1.4-7.3
				c63.4-39.2,137.4-65.3,211.7-59.5s148.2,47.5,179.5,115.1c-78.2-67-199.3-78.2-288.5-26.7c-18.6,10.7-36.3,24-57.1,29.2
				c-20.8,5.2-46.6-0.8-56.1-20L39.2,1384.7z"/>
			<path id="XMLID_4888_" fill-rule="evenodd" clip-rule="evenodd" fill="#B42000" d="M272.7,1110.1c-3.3-2.2-7.7-2.8-11.8-2.9
				c-21.5-0.7-43.3,6.7-59.9,20.4c-16.4,13.5-29.3,33.6-50,38.2c-10.7,2.4-22,0.2-32.8,2c-38.4,6.7-51.5,58.2-86.7,75.1
				c-12.9,6.2-28,7.2-40.1,14.8c-25.6,16.1-26.6,52.3-24.8,82.5l-9.1,39.3c1.9,18,13.5,33.8,28.5,44.1
				c13.4-29.2,29.6-56.6,50.9-82.6C108.7,1252.7,178.8,1167.8,272.7,1110.1z"/>
			<path id="XMLID_4889_" fill-rule="evenodd" clip-rule="evenodd" fill="#982000" d="M272.7,1110.1
				c-93.9,57.7-164,142.6-235.8,230.9c-21.4,26-37.5,53.4-50.9,82.6c1.5,1.1,3.1,2.1,4.7,3c17.2,10.1,37.3,14.1,57.1,16.1
				c28.6,3,64.3-1.8,75.1-28.5c4-9.9,3.7-21.4,9.5-30.3c9.5-14.5,31.1-16.5,41.3-30.5c10.4-14.4,4.6-35.2,12-51.3
				c9.5-20.6,37.4-27.6,47.1-48.1c8.1-17,0.8-37.6,5.2-55.9c6.7-27.6,38.4-45.5,40-73.8c0.3-4.5-0.4-9.4-3.6-12.7
				C274,1111.1,273.4,1110.6,272.7,1110.1z"/>
		</g>
		<g id="XMLID_4990_">
			<path id="XMLID_5020_" fill-rule="evenodd" clip-rule="evenodd" fill="#EE7E27" d="M1379.5,1007.3c1.1-0.9,2.3-1.7,3.7-2.2
				c4.4-1.8,9.5-0.9,14.1,0.4c22.4,6.1,42.5,20.7,55.1,40.2c9.8,15.1,15.4,33,27.9,45.9c10.4,10.8,25.1,17.5,33.2,30.2
				c11.3,17.6,6.7,41.2,14.8,60.5c6.5,15.5,20.4,26.4,30.9,39.5c25.7,32.5,28.7,88.5,8.7,124.6c-7.4,13.3-18,25.2-31.7,31.6
				c-5.4,2.5-10.8,4.2-16.3,5.1c-9.3-103.8-38.6-205.7-89.6-299.1C1415.8,1057.1,1400.2,1029.7,1379.5,1007.3z"/>
			<path id="XMLID_5014_" fill-rule="evenodd" clip-rule="evenodd" fill="#EE6618" d="M1366.9,1144.7c2.9-8.6,9.1-15.8,12.7-24.1
				c13-30.3-11.1-64.4-7.2-97.2c0.7-5.9,2.8-12.3,7.2-16.1c20.7,22.4,36.3,49.8,50.8,76.7c51,93.4,80.2,195.3,89.6,299.1
				c-36.1,6-73.4-20.2-96.8-44.4c-16.1-16.6-32.1-36.4-32.5-59.6c-0.2-14.1,5.4-27.9,4.5-41.9
				C1393.2,1204.2,1356.5,1176,1366.9,1144.7z"/>
			<path id="XMLID_5011_" fill-rule="evenodd" clip-rule="evenodd" fill="#003763" d="M1247.1,1365
				c-45.2-34.3-108.5-70.1-167.4-62.4c85.7-17.8,175.2-15.9,254.5,23.9c26.8,13.4,52.6,29.6,73.7,50.8c9.5,9.6,18.3,20.5,22.4,33.5
				c4.1,12.9,3,28.1-5.7,38.5c-9,10.8-24.5,14.6-38.4,12.6c-13.9-2-26.6-9.1-38.4-16.8C1311.8,1421.6,1281.2,1390.9,1247.1,1365z"/>
			<path id="XMLID_5008_" fill-rule="evenodd" clip-rule="evenodd" fill="#002E57" d="M1473.9,1399.7c3.5,0.4,1.6-5.5-1.4-7.3
				c-63.4-39.2-137.4-65.3-211.7-59.5c-74.3,5.7-148.2,47.5-179.5,115.1c78.2-67,199.3-78.2,288.5-26.7c18.6,10.7,36.3,24,57.1,29.2
				c20.8,5.2,46.6-0.8,56.1-20L1473.9,1399.7z"/>
			<path id="XMLID_5002_" fill-rule="evenodd" clip-rule="evenodd" fill="#B42000" d="M1240.4,1125.1c3.3-2.2,7.7-2.8,11.8-2.9
				c21.5-0.7,43.3,6.7,59.9,20.4c16.4,13.5,29.3,33.6,50,38.2c10.7,2.4,22,0.2,32.8,2c38.4,6.7,51.5,58.2,86.7,75.1
				c12.9,6.2,28,7.2,40.1,14.8c25.6,16.1,26.6,52.3,24.8,82.5l9.1,39.3c-1.9,18-13.5,33.8-28.5,44.1c-13.4-29.2-29.6-56.6-50.9-82.6
				C1404.4,1267.7,1334.3,1182.7,1240.4,1125.1z"/>
			<path id="XMLID_4999_" fill-rule="evenodd" clip-rule="evenodd" fill="#982000" d="M1240.4,1125.1
				c93.9,57.7,164,142.6,235.8,230.9c21.4,26,37.5,53.4,50.9,82.6c-1.5,1.1-3.1,2.1-4.7,3c-17.2,10.1-37.3,14.1-57.1,16.1
				c-28.6,3-64.3-1.8-75.1-28.5c-4-9.9-3.7-21.4-9.5-30.3c-9.5-14.5-31.1-16.5-41.3-30.5c-10.4-14.4-4.6-35.2-12-51.3
				c-9.5-20.6-37.4-27.6-47.1-48.1c-8.1-17-0.8-37.6-5.2-55.9c-6.7-27.6-38.4-45.5-40-73.8c-0.3-4.5,0.4-9.4,3.6-12.7
				C1239.1,1126,1239.7,1125.5,1240.4,1125.1z"/>
		</g>
		<g id="XMLID_5023_">
			
				<rect id="XMLID_5150_" x="1019.4" y="927.4" transform="matrix(0.2862 -0.9582 0.9582 0.2862 -167.3758 1645.2832)" fill="#734D28" width="2.3" height="15.1"/>
			
				<rect id="XMLID_5149_" x="938.4" y="1071.8" transform="matrix(0.9062 0.4228 -0.4228 0.9062 547.5562 -296.516)" fill-rule="evenodd" clip-rule="evenodd" fill="#734D28" width="7.6" height="28.7"/>
			
				<rect id="XMLID_5148_" x="1048.2" y="894.7" transform="matrix(0.9582 0.2862 -0.2862 0.9582 300.1046 -262.9572)" fill-rule="evenodd" clip-rule="evenodd" fill="#888888" width="2.5" height="0.6"/>
			
				<rect id="XMLID_5147_" x="1048.2" y="894.7" transform="matrix(0.9582 0.2862 -0.2862 0.9582 300.0667 -262.9748)" fill-rule="evenodd" clip-rule="evenodd" fill="#9E9E9F" width="2.5" height="0.3"/>
			<path id="XMLID_5146_" fill-rule="evenodd" clip-rule="evenodd" fill="#FFFFFF" d="M1054.4,892.9l-2.3-0.7
				c-0.5-0.2-1.1,0.1-1.2,0.7l-1.4,4.6c-0.2,0.5,0.1,1.1,0.7,1.2l2.3,0.7c0.5,0.2,1.1-0.1,1.2-0.7l1.4-4.6
				C1055.2,893.6,1054.9,893,1054.4,892.9"/>
			
				<rect id="XMLID_5145_" x="1044.5" y="907" transform="matrix(0.9582 0.2862 -0.2862 0.9582 303.3855 -261.339)" fill-rule="evenodd" clip-rule="evenodd" fill="#888888" width="2.5" height="0.6"/>
			
				<rect id="XMLID_5144_" x="1044.6" y="907" transform="matrix(0.9582 0.2862 -0.2862 0.9582 303.3477 -261.3566)" fill-rule="evenodd" clip-rule="evenodd" fill="#9E9E9F" width="2.5" height="0.3"/>
			<path id="XMLID_5143_" fill-rule="evenodd" clip-rule="evenodd" fill="#FFFFFF" d="M1050.7,905.2l-2.3-0.7
				c-0.5-0.2-1.1,0.1-1.2,0.7l-1.4,4.6c-0.2,0.5,0.1,1.1,0.7,1.2l2.3,0.7c0.5,0.2,1.1-0.1,1.2-0.7l1.4-4.6
				C1051.5,905.9,1051.2,905.3,1050.7,905.2"/>
			
				<rect id="XMLID_5142_" x="1042.4" y="918.7" transform="matrix(0.9582 0.2862 -0.2862 0.9582 306.6496 -260.2251)" fill-rule="evenodd" clip-rule="evenodd" fill="#888888" width="2.5" height="0.6"/>
			
				<rect id="XMLID_5141_" x="1042.4" y="918.7" transform="matrix(0.9582 0.2862 -0.2862 0.9582 306.6118 -260.2427)" fill-rule="evenodd" clip-rule="evenodd" fill="#9E9E9F" width="2.5" height="0.3"/>
			<path id="XMLID_5140_" fill-rule="evenodd" clip-rule="evenodd" fill="#FFFFFF" d="M1048.5,916.9l-2.3-0.7
				c-0.5-0.2-1.1,0.1-1.2,0.7l-1.4,4.6c-0.2,0.5,0.1,1.1,0.7,1.2l2.3,0.7c0.5,0.2,1.1-0.1,1.2-0.7l1.4-4.6
				C1049.3,917.6,1049,917.1,1048.5,916.9"/>
			
				<rect id="XMLID_5139_" x="1017.2" y="885.5" transform="matrix(-0.9582 -0.2862 0.2862 -0.9582 1740.9552 2025.9185)" fill-rule="evenodd" clip-rule="evenodd" fill="#888888" width="2.5" height="0.6"/>
			
				<rect id="XMLID_5138_" x="1017.3" y="885.5" transform="matrix(-0.9582 -0.2862 0.2862 -0.9582 1741.0759 2025.6597)" fill-rule="evenodd" clip-rule="evenodd" fill="#9E9E9F" width="2.5" height="0.3"/>
			<path id="XMLID_5137_" fill-rule="evenodd" clip-rule="evenodd" fill="#FFFFFF" d="M1015.6,881.3l2.3,0.7
				c0.5,0.2,0.8,0.7,0.7,1.2l-1.4,4.6c-0.2,0.5-0.7,0.8-1.2,0.7l-2.3-0.7c-0.5-0.2-0.8-0.7-0.7-1.2l1.4-4.6
				C1014.5,881.4,1015.1,881.1,1015.6,881.3"/>
			
				<rect id="XMLID_5136_" x="1013.6" y="897.8" transform="matrix(-0.9582 -0.2862 0.2862 -0.9582 1730.2061 2048.9617)" fill-rule="evenodd" clip-rule="evenodd" fill="#888888" width="2.5" height="0.6"/>
			
				<rect id="XMLID_5135_" x="1013.6" y="897.8" transform="matrix(-0.9582 -0.2862 0.2862 -0.9582 1730.3264 2048.7029)" fill-rule="evenodd" clip-rule="evenodd" fill="#9E9E9F" width="2.5" height="0.3"/>
			<path id="XMLID_5134_" fill-rule="evenodd" clip-rule="evenodd" fill="#FFFFFF" d="M1011.9,893.6l2.3,0.7
				c0.5,0.2,0.8,0.7,0.7,1.2l-1.4,4.6c-0.2,0.5-0.7,0.8-1.2,0.7l-2.3-0.7c-0.5-0.2-0.8-0.7-0.7-1.2l1.4-4.6
				C1010.8,893.7,1011.4,893.4,1011.9,893.6"/>
			
				<rect id="XMLID_5133_" x="1009" y="908.7" transform="matrix(-0.9582 -0.2862 0.2862 -0.9582 1718.0229 2069.1873)" fill-rule="evenodd" clip-rule="evenodd" fill="#888888" width="2.5" height="0.6"/>
			
				<rect id="XMLID_5132_" x="1009" y="908.8" transform="matrix(-0.9582 -0.2862 0.2862 -0.9582 1718.1432 2068.9282)" fill-rule="evenodd" clip-rule="evenodd" fill="#9E9E9F" width="2.5" height="0.3"/>
			<path id="XMLID_5131_" fill-rule="evenodd" clip-rule="evenodd" fill="#FFFFFF" d="M1007.3,904.6l2.3,0.7
				c0.5,0.2,0.8,0.7,0.7,1.2l-1.4,4.6c-0.2,0.5-0.7,0.8-1.2,0.7l-2.3-0.7c-0.5-0.2-0.8-0.7-0.7-1.2l1.4-4.6
				C1006.2,904.7,1006.8,904.4,1007.3,904.6"/>
			<path id="XMLID_5130_" fill-rule="evenodd" clip-rule="evenodd" fill="#FFAF00" d="M937,1226.8c-0.7-0.2-1.4-0.4-2.1-0.6
				l-0.7-0.2c-0.4-0.1-0.9-0.3-1.4-0.4l-0.5-0.1c-3.3-1-6.4-1.9-11.1-4.1c-3.3-1.5-7.3-3.5-12.4-6.3c-1.4-0.8-2.7-1.6-4-2.3
				c-4.5-2.7-8.4-5.7-11.7-8.7c-3.4-3.2-6.2-6.6-8.5-10.3c-4.2-7-6.3-14.7-6.4-23.7c0-2.6,0.1-5.4,0.5-8.3
				c0.6-5.2,2.7-10.7,6.2-16.6c4.1-6.8,10-13.9,18.1-21.8c3.3-3.2,6.4-6.1,9-8.3c1.6-1.4,2.9-2.6,3.8-3.5c1.8-1.7,3.1-3.3,4.3-5.1
				c3.2-5,3.8-9.9,3.6-16.3c0-0.7-0.1-1.7-0.2-2.8l0-0.8c-0.4-4.6-0.8-11.6,0.5-18.7c0.8-4.4,2.3-8.4,4.3-11.8
				c2.1-3.7,5-6.9,8.6-9.4c0.7-0.5,1.5-1.1,2.4-1.6c4-2.4,8.5-4.1,13.5-5c5.5-1.1,11.6-1.3,18.1-0.6c6.7,0.7,12.1,2.1,14.8,2.9
				l0.1,0c0.9,0.3,1.4,0.4,1.6,0.5c0.1,0,0.8,0.2,1.8,0.5c0.3,0.1,0.6,0.2,0.9,0.3c1.8,0.6,4.7,1.6,8.1,3.1
				c3.9,1.7,7.5,3.6,10.8,5.7c4.1,2.7,7.8,5.7,10.7,8.9c2.8,3.1,5.1,6.4,6.7,9.8c0.4,0.9,0.8,1.7,1.1,2.6c1.6,4,2.3,8.2,2.1,12.5
				c-0.2,3.9-1.1,8-2.9,12.2c-2.8,6.7-7,12.3-9.9,16l-0.4,0.6c-0.7,1-1.3,1.7-1.7,2.3c-3.6,5.2-5.8,9.6-5.9,15.5
				c-0.1,2.1,0.2,4.3,0.8,6.8c0.3,1.3,0.8,3.1,1.3,5.1c0.8,3.2,1.9,7.2,2.9,11.7c2.5,11,3.5,20.2,3.2,28c-0.3,6.9-1.6,12.8-3.9,17.5
				c-1.2,2.5-2.6,4.8-4,7c-4.9,7.3-10.9,12.6-18.5,16c-4,1.8-8.4,3.2-13.3,4c-4.9,0.9-10.4,1.3-16.4,1.2c-0.7,0-1.5,0-2.2,0
				c-5.3-0.2-9.7-0.6-13.5-1.2C941.7,1228.1,939.1,1227.4,937,1226.8"/>
			<path id="XMLID_5129_" fill-rule="evenodd" clip-rule="evenodd" fill="#5E2B0F" d="M963,1126.1c-14-4.2-21.9-18.9-17.7-32.9
				c4.2-14,18.9-21.9,32.9-17.7c14,4.2,21.9,18.9,17.7,32.9C991.7,1122.3,977,1130.2,963,1126.1"/>
			<path id="XMLID_5128_" fill-rule="evenodd" clip-rule="evenodd" fill="#883F16" d="M963.3,1125.2c-13.5-4-21.2-18.3-17.1-31.7
				c4-13.5,18.3-21.2,31.7-17.1c13.5,4,21.2,18.3,17.1,31.7C991,1121.5,976.7,1129.2,963.3,1125.2"/>
			<path id="XMLID_5127_" fill-rule="evenodd" clip-rule="evenodd" fill="#F6B959" d="M963.5,1124.3c-13-3.9-20.4-17.6-16.5-30.6
				c3.9-13,17.6-20.4,30.6-16.5c13,3.9,20.4,17.6,16.5,30.6C990.2,1120.8,976.5,1128.2,963.5,1124.3"/>
			<path id="XMLID_5126_" fill-rule="evenodd" clip-rule="evenodd" fill="#883F16" d="M963.7,1123.8c-12.6-3.8-19.9-17.1-16.1-29.8
				c3.8-12.6,17.1-19.9,29.8-16.1c12.6,3.8,19.9,17.1,16.1,29.8S976.4,1127.5,963.7,1123.8"/>
			<path id="XMLID_5125_" fill-rule="evenodd" clip-rule="evenodd" fill="#F6B959" d="M964.8,1120c-10.6-3.2-16.6-14.4-13.5-25
				c3.2-10.6,14.4-16.6,25-13.5c10.6,3.2,16.6,14.4,13.5,25C986.6,1117.1,975.4,1123.2,964.8,1120"/>
			<path id="XMLID_5124_" fill-rule="evenodd" clip-rule="evenodd" fill="#8B3E0D" d="M965.1,1119.2c-10.1-3-15.9-13.7-12.9-23.8
				c3-10.1,13.7-15.9,23.8-12.9c10.1,3,15.9,13.7,12.9,23.8C985.9,1116.4,975.2,1122.2,965.1,1119.2"/>
			<path id="XMLID_5123_" fill-rule="evenodd" clip-rule="evenodd" fill="#DA8235" d="M965.4,1118c-9.5-2.8-14.9-12.9-12.1-22.3
				c2.8-9.5,12.9-14.9,22.3-12.1c9.5,2.8,14.9,12.9,12.1,22.3C984.9,1115.4,974.9,1120.8,965.4,1118"/>
			<path id="XMLID_5122_" fill-rule="evenodd" clip-rule="evenodd" fill="#3E220D" d="M966,1116.1c-8.5-2.5-13.2-11.4-10.7-19.8
				c2.5-8.5,11.4-13.2,19.8-10.7c8.5,2.5,13.2,11.4,10.7,19.8C983.3,1113.8,974.4,1118.6,966,1116.1"/>
			<path id="XMLID_5121_" fill-rule="evenodd" clip-rule="evenodd" fill="#3E220D" d="M931.1,1163.7l37.7,11.3
				c0.9,0.3,1.4,1.2,1.1,2.1l-2.5,8.5c-0.3,0.9-1.2,1.4-2.1,1.1l-37.7-11.3c-0.9-0.3-1.4-1.2-1.1-2.1l2.5-8.5
				C929.3,1164,930.2,1163.5,931.1,1163.7"/>
			<path id="XMLID_5120_" fill-rule="evenodd" clip-rule="evenodd" fill="#66391A" d="M1045.6,905.7c1.6-5.3,5.8-19,6.9-20.6
				c0,0-2.1,0.3-2.9-1.3c-3.7-7.5-17.8-11.1-24.6-7.2c-1.7,1-3-0.6-3-0.6s-3.6,14-6,20.9c-2.6,7.2-6.1,15.6-6.1,15.6s4.8,7,4.8,11.3
				c0,4.3-1,8.1-1,8.1l14.2,4.5c0,0,1.5-4.7,4-7.3c2.5-2.6,10.4-6.8,10.4-6.8S1044,911,1045.6,905.7"/>
			<path id="XMLID_5119_" fill-rule="evenodd" clip-rule="evenodd" fill="#3E220D" d="M1013,933.9L965.8,1084
				c-0.1,0.5,0.1,0.9,0.6,1.1l16.1,4.8c0.5,0.1,0.9-0.1,1.1-0.6l43.9-151L1013,933.9z"/>
			<polygon id="XMLID_5118_" fill-rule="evenodd" clip-rule="evenodd" fill="#FFFFF3" points="1024,950.2 1009.3,945.8 
				1009.4,945.2 1024.1,949.6 			"/>
			<polygon id="XMLID_5117_" fill-rule="evenodd" clip-rule="evenodd" fill="#FFFFF3" points="1020.7,961.4 1005.8,956.9 
				1005.9,956.3 1020.9,960.8 			"/>
			<path id="XMLID_5116_" fill-rule="evenodd" clip-rule="evenodd" fill="#FFFFF3" d="M1017.6,971.9l-15-4.5c-0.1,0-0.1,0-0.1-0.1
				l0.2-0.5c0,0,0.1,0,0.1,0l15,4.5L1017.6,971.9z"/>
			<path id="XMLID_5115_" fill-rule="evenodd" clip-rule="evenodd" fill="#FFFFF3" d="M1014.8,981.8l-15.1-4.5
				c-0.1,0-0.2-0.1-0.2-0.2l0.1-0.3c0.1-0.1,0.2-0.1,0.3-0.1l15.1,4.5L1014.8,981.8z"/>
			<polygon id="XMLID_5114_" fill-rule="evenodd" clip-rule="evenodd" fill="#FFFFF3" points="1012.1,991 996.5,986.3 996.7,985.7 
				1012.3,990.4 			"/>
			<path id="XMLID_5113_" fill-rule="evenodd" clip-rule="evenodd" fill="#FFFFF3" d="M1009.6,999.6l-15.2-4.5
				c-0.2-0.1-0.3-0.2-0.3-0.4c0-0.1,0.2-0.2,0.4-0.2l15.2,4.5L1009.6,999.6z"/>
			<path id="XMLID_5112_" fill-rule="evenodd" clip-rule="evenodd" fill="#FFFFF3" d="M1007.2,1007.9l-15.9-4.8c0,0,0,0,0,0l0.2-0.6
				c0,0,0,0,0,0l15.9,4.8L1007.2,1007.9z"/>
			<polygon id="XMLID_5111_" fill-rule="evenodd" clip-rule="evenodd" fill="#FFFFF3" points="1004.9,1015.7 988.8,1010.9 
				989,1010.4 1005.1,1015.2 			"/>
			<polygon id="XMLID_5110_" fill-rule="evenodd" clip-rule="evenodd" fill="#FFFFF3" points="1002.8,1022.9 986.5,1018 
				986.7,1017.5 1003,1022.3 			"/>
			<polygon id="XMLID_5109_" fill-rule="evenodd" clip-rule="evenodd" fill="#FFFFF3" points="1000.8,1029.8 984.4,1024.9 
				984.6,1024.3 1001,1029.2 			"/>
			<polygon id="XMLID_5108_" fill-rule="evenodd" clip-rule="evenodd" fill="#FFFFF3" points="998.9,1036.5 982.3,1031.6 
				982.5,1031 999,1035.9 			"/>
			<polygon id="XMLID_5107_" fill-rule="evenodd" clip-rule="evenodd" fill="#FFFFF3" points="997.1,1042.6 980.4,1037.7 
				980.6,1037.1 997.2,1042.1 			"/>
			<polygon id="XMLID_5106_" fill-rule="evenodd" clip-rule="evenodd" fill="#FFFFF3" points="995.4,1048.4 978.6,1043.4 
				978.8,1042.8 995.6,1047.8 			"/>
			<polygon id="XMLID_5105_" fill-rule="evenodd" clip-rule="evenodd" fill="#FFFFF3" points="993.8,1053.8 976.9,1048.8 
				977.1,1048.2 994,1053.2 			"/>
			<polygon id="XMLID_5104_" fill-rule="evenodd" clip-rule="evenodd" fill="#FFFFF3" points="992.3,1059.1 975.2,1054.1 
				975.4,1053.5 992.5,1058.6 			"/>
			<polygon id="XMLID_5103_" fill-rule="evenodd" clip-rule="evenodd" fill="#FFFFF3" points="990.9,1063.9 973.7,1058.8 
				973.9,1058.2 991.1,1063.3 			"/>
			<polygon id="XMLID_5102_" fill-rule="evenodd" clip-rule="evenodd" fill="#FFFFF3" points="989.6,1068.5 972.3,1063.3 
				972.5,1062.8 989.7,1067.9 			"/>
			<polygon id="XMLID_5101_" fill-rule="evenodd" clip-rule="evenodd" fill="#FFFFF3" points="988.3,1072.8 970.9,1067.7 
				971.1,1067.1 988.5,1072.3 			"/>
			<polygon id="XMLID_5100_" fill-rule="evenodd" clip-rule="evenodd" fill="#FFFFF3" points="987.1,1077 969.7,1071.7 
				969.8,1071.2 987.3,1076.4 			"/>
			<polygon id="XMLID_5099_" fill-rule="evenodd" clip-rule="evenodd" fill="#FFFFF3" points="986,1080.8 968.5,1075.5 968.6,1075 
				986.2,1080.2 			"/>
			<polygon id="XMLID_5098_" fill-rule="evenodd" clip-rule="evenodd" fill="#FFFFF3" points="984.9,1084.5 967.3,1079.2 
				967.5,1078.7 985.1,1083.9 			"/>
			<polygon id="XMLID_5097_" fill-rule="evenodd" clip-rule="evenodd" fill="#FFFFF3" points="983.9,1087.9 966.2,1082.6 
				966.4,1082 984.1,1087.3 			"/>
			<polygon id="XMLID_5096_" fill-rule="evenodd" clip-rule="evenodd" fill="#FFFFFF" points="955.8,1179.4 1026.2,937.9 
				1037.3,917.4 1037.5,917.5 1026.3,938 955.9,1179.4 			"/>
			<polygon id="XMLID_5095_" fill-rule="evenodd" clip-rule="evenodd" fill="#FFFFFF" points="952.6,1178.4 1024.1,936.5 
				1039.1,905.7 1039.2,905.8 1024.2,936.5 952.7,1178.5 			"/>
			<polygon id="XMLID_5094_" fill-rule="evenodd" clip-rule="evenodd" fill="#FFFFFF" points="949.2,1177.4 949.1,1177.4 
				1021.3,936.3 1042.5,894.5 1042.6,894.5 1021.4,936.3 			"/>
			<polygon id="XMLID_5093_" fill-rule="evenodd" clip-rule="evenodd" fill="#FFFFFF" points="940.8,1174.9 940.7,1174.9 
				1014.3,934.4 1016.2,911.1 1016.3,911.1 1014.4,934.4 			"/>
			<polygon id="XMLID_5092_" fill-rule="evenodd" clip-rule="evenodd" fill="#FFFFFF" points="944,1175.9 943.8,1175.8 
				1016.8,934.3 1021.1,900.4 1021.2,900.4 1017,934.3 			"/>
			<polygon id="XMLID_5091_" fill-rule="evenodd" clip-rule="evenodd" fill="#FFFFFF" points="947.4,1176.9 1019.3,935.6 
				1024.4,889.1 1024.6,889.2 1019.4,935.7 947.5,1176.9 			"/>
			<path id="XMLID_5090_" fill-rule="evenodd" clip-rule="evenodd" fill="#8C8C8C" d="M1025.2,886.2c1,0.3,1.5,1.3,1.2,2.3
				c-0.3,1-1.3,1.5-2.3,1.2c-1-0.3-1.5-1.3-1.2-2.3C1023.3,886.5,1024.3,885.9,1025.2,886.2"/>
			<path id="XMLID_5089_" fill-rule="evenodd" clip-rule="evenodd" fill="#B0B0B0" d="M1025.1,886.6c0.7,0.2,1.2,1,0.9,1.7
				c-0.2,0.7-1,1.2-1.7,0.9c-0.7-0.2-1.2-1-0.9-1.7C1023.6,886.8,1024.4,886.4,1025.1,886.6"/>
			<path id="XMLID_5088_" fill-rule="evenodd" clip-rule="evenodd" fill="#7F7F7F" d="M1025,886.8c0.6,0.2,1,0.8,0.8,1.4
				c-0.2,0.6-0.8,1-1.4,0.8c-0.6-0.2-1-0.8-0.8-1.4C1023.8,887,1024.4,886.6,1025,886.8"/>
			<path id="XMLID_5087_" fill-rule="evenodd" clip-rule="evenodd" fill="#8C8C8C" d="M1021.5,898.6c1,0.3,1.5,1.3,1.2,2.3
				c-0.3,1-1.3,1.5-2.3,1.2c-1-0.3-1.5-1.3-1.2-2.3C1019.6,898.8,1020.6,898.3,1021.5,898.6"/>
			<path id="XMLID_5086_" fill-rule="evenodd" clip-rule="evenodd" fill="#B0B0B0" d="M1021.4,899c0.7,0.2,1.2,1,0.9,1.7
				c-0.2,0.7-1,1.2-1.7,0.9c-0.7-0.2-1.2-1-0.9-1.7C1019.9,899.2,1020.7,898.7,1021.4,899"/>
			<path id="XMLID_5085_" fill-rule="evenodd" clip-rule="evenodd" fill="#7F7F7F" d="M1021.4,899.2c0.6,0.2,1,0.8,0.8,1.4
				s-0.8,1-1.4,0.8c-0.6-0.2-1-0.8-0.8-1.4C1020.1,899.4,1020.7,899,1021.4,899.2"/>
			<path id="XMLID_5084_" fill-rule="evenodd" clip-rule="evenodd" fill="#8C8C8C" d="M1016.9,909.4c1,0.3,1.5,1.3,1.2,2.3
				c-0.3,1-1.3,1.5-2.3,1.2c-1-0.3-1.5-1.3-1.2-2.3C1014.9,909.6,1015.9,909.1,1016.9,909.4"/>
			<path id="XMLID_5083_" fill-rule="evenodd" clip-rule="evenodd" fill="#B0B0B0" d="M1016.7,909.8c0.7,0.2,1.2,1,0.9,1.7
				c-0.2,0.7-1,1.2-1.7,0.9c-0.7-0.2-1.2-1-0.9-1.7C1015.2,910,1016,909.5,1016.7,909.8"/>
			<path id="XMLID_5082_" fill-rule="evenodd" clip-rule="evenodd" fill="#7F7F7F" d="M1016.7,910c0.6,0.2,1,0.8,0.8,1.4
				c-0.2,0.6-0.8,1-1.4,0.8c-0.6-0.2-1-0.8-0.8-1.4C1015.4,910.2,1016.1,909.8,1016.7,910"/>
			<path id="XMLID_5081_" fill-rule="evenodd" clip-rule="evenodd" fill="#8C8C8C" d="M1043.4,891.6c-1-0.3-2,0.3-2.3,1.2
				c-0.3,1,0.3,2,1.2,2.3c1,0.3,2-0.3,2.3-1.2C1044.9,892.9,1044.3,891.9,1043.4,891.6"/>
			<path id="XMLID_5080_" fill-rule="evenodd" clip-rule="evenodd" fill="#B0B0B0" d="M1043.2,892c-0.7-0.2-1.5,0.2-1.7,0.9
				c-0.2,0.7,0.2,1.5,0.9,1.7c0.7,0.2,1.5-0.2,1.7-0.9C1044.4,893,1044,892.2,1043.2,892"/>
			<path id="XMLID_5079_" fill-rule="evenodd" clip-rule="evenodd" fill="#7F7F7F" d="M1043.2,892.2c-0.6-0.2-1.3,0.2-1.4,0.8
				c-0.2,0.6,0.2,1.3,0.8,1.4c0.6,0.2,1.3-0.2,1.4-0.8C1044.1,893.1,1043.8,892.4,1043.2,892.2"/>
			<path id="XMLID_5078_" fill-rule="evenodd" clip-rule="evenodd" fill="#8C8C8C" d="M1039.7,904c-1-0.3-2,0.3-2.3,1.2
				c-0.3,1,0.3,2,1.2,2.3c1,0.3,2-0.3,2.3-1.2C1041.2,905.3,1040.6,904.3,1039.7,904"/>
			<path id="XMLID_5077_" fill-rule="evenodd" clip-rule="evenodd" fill="#B0B0B0" d="M1039.5,904.4c-0.7-0.2-1.5,0.2-1.7,0.9
				c-0.2,0.7,0.2,1.5,0.9,1.7c0.7,0.2,1.5-0.2,1.7-0.9C1040.7,905.4,1040.3,904.6,1039.5,904.4"/>
			<path id="XMLID_5076_" fill-rule="evenodd" clip-rule="evenodd" fill="#7F7F7F" d="M1039.5,904.6c-0.6-0.2-1.3,0.2-1.4,0.8
				c-0.2,0.6,0.2,1.3,0.8,1.4c0.6,0.2,1.3-0.2,1.4-0.8C1040.4,905.4,1040.1,904.8,1039.5,904.6"/>
			<path id="XMLID_5075_" fill-rule="evenodd" clip-rule="evenodd" fill="#8C8C8C" d="M1037.7,915.6c-1-0.3-2,0.3-2.3,1.2
				c-0.3,1,0.3,2,1.2,2.3c1,0.3,2-0.3,2.3-1.2C1039.2,916.9,1038.6,915.9,1037.7,915.6"/>
			<path id="XMLID_5074_" fill-rule="evenodd" clip-rule="evenodd" fill="#B0B0B0" d="M1037.5,916c-0.7-0.2-1.5,0.2-1.7,0.9
				c-0.2,0.7,0.2,1.5,0.9,1.7c0.7,0.2,1.5-0.2,1.7-0.9C1038.7,917,1038.3,916.2,1037.5,916"/>
			<path id="XMLID_5073_" fill-rule="evenodd" clip-rule="evenodd" fill="#7F7F7F" d="M1037.5,916.2c-0.6-0.2-1.3,0.2-1.4,0.8
				c-0.2,0.6,0.2,1.3,0.8,1.4c0.6,0.2,1.3-0.2,1.4-0.8C1038.4,917,1038.1,916.4,1037.5,916.2"/>
			<path id="XMLID_5072_" fill-rule="evenodd" clip-rule="evenodd" fill="#FFFFFF" d="M1011.6,962.9c0.6,0.2,0.9,0.8,0.7,1.4
				c-0.2,0.6-0.8,0.9-1.4,0.7c-0.6-0.2-0.9-0.8-0.7-1.4C1010.4,963.1,1011,962.8,1011.6,962.9"/>
			<path id="XMLID_5071_" fill-rule="evenodd" clip-rule="evenodd" fill="#FFFFFF" d="M1005.7,982.8c0.6,0.2,0.9,0.8,0.7,1.4
				c-0.2,0.6-0.8,0.9-1.4,0.7c-0.6-0.2-0.9-0.8-0.7-1.4C1004.5,982.9,1005.1,982.6,1005.7,982.8"/>
			<path id="XMLID_5070_" fill-rule="evenodd" clip-rule="evenodd" fill="#FFFFFF" d="M1000.4,1000.4c0.6,0.2,0.9,0.8,0.7,1.4
				c-0.2,0.6-0.8,0.9-1.4,0.7c-0.6-0.2-0.9-0.8-0.7-1.4C999.2,1000.6,999.8,1000.2,1000.4,1000.4"/>
			<path id="XMLID_5069_" fill-rule="evenodd" clip-rule="evenodd" fill="#FFFFFF" d="M997.7,1023.6c0.6,0.2,0.9,0.8,0.7,1.4
				c-0.2,0.6-0.8,0.9-1.4,0.7c-0.6-0.2-0.9-0.8-0.7-1.4C996.5,1023.8,997.1,1023.5,997.7,1023.6"/>
			<path id="XMLID_5068_" fill-rule="evenodd" clip-rule="evenodd" fill="#FFFFFF" d="M989.9,1021.3c0.6,0.2,0.9,0.8,0.7,1.4
				c-0.2,0.6-0.8,0.9-1.4,0.7c-0.6-0.2-0.9-0.8-0.7-1.4C988.7,1021.5,989.3,1021.1,989.9,1021.3"/>
			<path id="XMLID_5067_" fill-rule="evenodd" clip-rule="evenodd" fill="#FFFFFF" d="M988,1041.9c0.6,0.2,0.9,0.8,0.7,1.4
				c-0.2,0.6-0.8,0.9-1.4,0.7c-0.6-0.2-0.9-0.8-0.7-1.4C986.8,1042.1,987.4,1041.7,988,1041.9"/>
			<path id="XMLID_5066_" fill-rule="evenodd" clip-rule="evenodd" fill="#FFFFFF" d="M984.8,1052.6c0.6,0.2,0.9,0.8,0.7,1.4
				c-0.2,0.6-0.8,0.9-1.4,0.7c-0.6-0.2-0.9-0.8-0.7-1.4C983.6,1052.8,984.2,1052.4,984.8,1052.6"/>
			<path id="XMLID_5065_" fill-rule="evenodd" clip-rule="evenodd" fill="#FFFFFF" d="M981.9,1062.3c0.6,0.2,0.9,0.8,0.7,1.4
				c-0.2,0.6-0.8,0.9-1.4,0.7c-0.6-0.2-0.9-0.8-0.7-1.4C980.7,1062.5,981.3,1062.1,981.9,1062.3"/>
			<path id="XMLID_5064_" fill-rule="evenodd" clip-rule="evenodd" fill="#FFFFFF" d="M979.3,1071c0.6,0.2,0.9,0.8,0.7,1.4
				c-0.2,0.6-0.8,0.9-1.4,0.7c-0.6-0.2-0.9-0.8-0.7-1.4C978.1,1071.1,978.8,1070.8,979.3,1071"/>
			<path id="XMLID_5061_" fill-rule="evenodd" clip-rule="evenodd" fill="#231916" d="M941.2,1173.5c0.4,0.1,0.7,0.6,0.5,1
				c-0.1,0.4-0.6,0.7-1,0.5c-0.4-0.1-0.7-0.6-0.5-1C940.4,1173.6,940.8,1173.4,941.2,1173.5"/>
			<path id="XMLID_5056_" fill-rule="evenodd" clip-rule="evenodd" fill="#231916" d="M944.3,1174.4c0.4,0.1,0.7,0.6,0.5,1
				c-0.1,0.4-0.6,0.7-1,0.5c-0.4-0.1-0.7-0.6-0.5-1C943.4,1174.5,943.8,1174.3,944.3,1174.4"/>
			<path id="XMLID_5050_" fill-rule="evenodd" clip-rule="evenodd" fill="#231916" d="M947.8,1175.5c0.4,0.1,0.7,0.6,0.5,1
				c-0.1,0.4-0.6,0.7-1,0.5c-0.4-0.1-0.7-0.6-0.5-1C946.9,1175.6,947.4,1175.3,947.8,1175.5"/>
			<path id="XMLID_5047_" fill-rule="evenodd" clip-rule="evenodd" fill="#231916" d="M949.5,1176c0.4,0.1,0.7,0.6,0.5,1
				c-0.1,0.4-0.6,0.7-1,0.5c-0.4-0.1-0.7-0.6-0.5-1C948.6,1176.1,949.1,1175.8,949.5,1176"/>
			<path id="XMLID_5044_" fill-rule="evenodd" clip-rule="evenodd" fill="#231916" d="M953,1177c0.4,0.1,0.7,0.6,0.5,1
				c-0.1,0.4-0.6,0.7-1,0.5c-0.4-0.1-0.7-0.6-0.5-1C952.1,1177.1,952.6,1176.9,953,1177"/>
			<path id="XMLID_5038_" fill-rule="evenodd" clip-rule="evenodd" fill="#231916" d="M956.3,1178c0.4,0.1,0.7,0.6,0.5,1
				c-0.1,0.4-0.6,0.7-1,0.5c-0.4-0.1-0.7-0.6-0.5-1C955.5,1178.1,955.9,1177.9,956.3,1178"/>
			<polygon id="XMLID_5035_" fill-rule="evenodd" clip-rule="evenodd" fill="#EDEEEE" points="937.7,1169 960.8,1174.6 
				960.5,1175.5 937.4,1169.9 			"/>
		</g>
		<path id="XMLID_5032_" fill-rule="evenodd" clip-rule="evenodd" fill="#051E42" d="M96.4,270.4c16.2-17.5,28.3-35.8,49.9-49.5
			c0,12.3-4,24.5-11.2,34.5c12.3,0.2,24.6,0.4,36.9,0.6c0.3,8,0.7,16,1,23.9c13.9-5.9,27.9-11.7,41.8-17.6c-2,8.5-3.9,17.1-5.9,25.6
			c11.2-6.1,22.4-12.2,33.5-18.2c0.3,10.6,0.6,21.2,1,31.8c9.4-7.6,20-13.7,31.3-18.1c-3.5,8.2-7,16.4-10.5,24.7
			c12.7-2.8,25.9-3.8,38.9-2.9c-3.4,8.3-9.3,15.6-16.6,20.8c18.5-3.7,37-7.4,55.5-11.1c-9.2,9.5-18.4,19-27.6,28.4
			c7.6-2.5,16.1-2.5,23.6,0.2c-11.4,13.3-25.9,24-42,30.9c11.8-0.8,23.7-1.6,35.5-2.4c-7.2,11.6-18.7,20.6-31.7,24.8
			c33.1,1.8,74.3-1.1,87.5-31.5c0,8-0.1,15.9-0.1,23.9c9-7.5,19.3-13.5,30.2-17.7c0.5,8.2,1.1,16.5,1.6,24.7
			c7-6.5,15.5-11.3,24.6-14.1c-7.5,12.4-17.3,23.3-28.8,32.1c21.1-16.3,47.7-25.2,74.4-24.9c-8.2,9.4-16.5,18.7-24.7,28.1
			c12.2-8.2,28.8-9.5,42.2-3.3c-6.6,9.7-15.5,17.9-25.7,23.7c13.7-3.5,28-4.4,42-2.7c-10.1,5.6-20.2,11.1-30.3,16.7
			c12-2.1,24.7,0,35.3,5.8c-10.8,5-21.7,10-32.5,14.9c18-1.1,36.3,5.3,49.7,17.5c-15.2,4.3-30.4,8.6-45.5,13
			c21.9,3.9,43.8,7.7,65.7,11.6c-5.7,3.7-11.4,7.4-17.1,11c5.2,8.5,10.5,16.9,15.7,25.4c-14.3,3.3-29.1,4.4-43.8,3.2
			c4.8,8,9.6,15.9,14.4,23.9c-10-0.9-19.7-4.4-28-10.2c0.9,7.1,1.9,14.1,2.8,21.2c-9.1-2.2-18.3-4.4-27.4-6.6c-1,6.7-2,13.4-3.1,20
			c-12.6-1.8-24.2-9.8-30.4-21c-3.2,9.3-3.1,19.8,0.3,29c-6.2-8.1-12.4-16.1-18.5-24.2c-1.4,10.2-2.8,20.5-4.2,30.7
			c-10.6-5.2-19.5-13.8-25.1-24.3c0.9,9.5-0.2,19.2-3.5,28.1c-4.9-4.8-9.8-9.6-14.7-14.4c3.9,17,12.5,32.9,24.6,45.5
			c-16.5-1.5-32.8-5.9-47.8-13c6.4,4.7,9.7,13.2,8.2,20.9c-9.6-7-29.7-8.1-27.1,3.5c-4.9-8.4-9.8-16.8-14.7-25.3
			c-4.8,5.7-9.6,11.4-14.4,17.1c-4.3-6.2-8.6-12.3-12.9-18.5c-6.1,11.1-14.1,21-23.6,29.3c-3.4-10.6-6.9-21.2-10.3-31.8
			c-1.8,7.2-5.9,13.8-11.4,18.8c-5.1-3.5-8.9-8.8-10.6-14.8c-3.2,11.8-3.5,24.6-2.1,36.6c-9.3-16.6-20.9-17.8-30.3-1.4
			c-2.2-2.8-13.2-21.8-9.4-25c-9.5,8.3-17.4,18.4-23,29.7c1.4-9.7,2.9-19.3,4.3-29c-9.3,12.8-20.1,24.7-32,35.1
			c4-10.8,6-22.3,5.7-33.8c-12.9,7.8-24.2,18.2-33.1,30.3c-5.1-11-7-24.7-8.3-36.3c-15.2,8.2-28.5,20-42.3,30.6
			c0.9-6.5,1.7-13,2.6-19.5c-7.1,4.1-14.3,8.2-21.4,12.3c0.6-5.2,1.2-10.4,1.9-15.7c-11.3,6.9-23.8,11.5-36.8,13.7
			c0.9-5.6,1.9-11.2,2.8-16.8c-16.9,4.7-33.7,9.3-50.6,14c4.3-11.4,8.6-22.8,12.9-34.2c-5.8,7.2-18-0.9-19.2-10
			c-1.2-9.1,3-18.3,2.1-27.4c-0.9-9.2-12.2-18.1-18.7-11.7c1.7-17.8,11.9-34.6,26.9-44.3c-13,3.9-27-5.2-33.4-17.1
			c-6.4-12-6.9-26.1-7.4-39.6c-0.8-25.4-1.6-50.9-2.4-76.3c-0.5-16.9-0.8-34.8,7.9-49.3c8.7-14.5,30-22.7,43-11.9
			c-6-10.9-11-22.4-14.9-34.2c15.7,5,32,7.9,48.5,8.6c-1.3-7.4-2.6-14.7-3.9-22.1c10.9,4.6,21.9,9.3,32.8,13.9
			c0.3-9.6,0.6-19.2,0.8-28.8c8.6,3.8,17.1,7.6,25.7,11.4c0.3-9.9-1.8-20-6-29c8.5,5.5,16.2,11.1,25.3,15.1
			C92.8,274.2,94.6,272.3,96.4,270.4z"/>
		<path id="XMLID_5152_" fill-rule="evenodd" clip-rule="evenodd" fill="#051E42" d="M157.1,612.7c2.2,58.1-35.3,109.2-53.3,164.5
			C81.5,845.7,89.5,920,99.1,991.5c-17.8-2.2-36-1.3-53.5,2.6c2.6-43,5.2-85.9,7.9-128.9c1.2-20.4,2.5-41-0.2-61.3
			c-2.9-21.9-10.4-43-17.7-63.8c-12.4-35-24.8-70.1-37.3-105.1c1.8-9.1,15.6-10.5,22.5-4.3S29.3,647,31.1,656
			c6,30.1,17,59.1,32.3,85.7c11.6-39.3,20.9-79.2,27.7-119.6c8.7-1.1,17.2-3.9,24.7-8.3c-9.5,37-16,74.8-19.6,112.8
			c13.9-35.9,27.8-71.8,41.7-107.8c2-5.2,0.1-14.4-4.9-11.8L157.1,612.7z"/>
		<path id="XMLID_5169_" fill-rule="evenodd" clip-rule="evenodd" fill="#FFFFFF" d="M839.8,361c0,38.9-31.5,70.4-70.4,70.4
			c-17.6,0-33.8-6.5-46.1-17.2c7,3,14.7,4.7,22.9,4.7c32,0,57.9-25.9,57.9-57.9c0-32-25.9-57.9-57.9-57.9c-8.1,0-15.8,1.7-22.9,4.7
			c12.3-10.7,28.5-17.2,46.1-17.2C808.2,290.6,839.8,322.1,839.8,361z"/>
		<circle id="XMLID_5161_" fill-rule="evenodd" clip-rule="evenodd" fill="#FFFFFF" cx="885.6" cy="264.9" r="7.4"/>
		<circle id="XMLID_5163_" fill-rule="evenodd" clip-rule="evenodd" fill="#FFFFFF" cx="487.7" cy="143.5" r="4.7"/>
		<circle id="XMLID_5177_" fill-rule="evenodd" clip-rule="evenodd" fill="#FFFFFF" cx="415.4" cy="39.7" r="4.7"/>
		<circle id="XMLID_5164_" fill-rule="evenodd" clip-rule="evenodd" fill="#FFFFFF" cx="609.2" cy="252.8" r="4.7"/>
		<circle id="XMLID_5171_" fill-rule="evenodd" clip-rule="evenodd" fill="#FFFFFF" cx="218.3" cy="101.1" r="4.7"/>
		<circle id="XMLID_5172_" fill-rule="evenodd" clip-rule="evenodd" fill="#FFFFFF" cx="1240.4" cy="279.4" r="4.7"/>
		<circle id="XMLID_5165_" fill-rule="evenodd" clip-rule="evenodd" fill="#FFFFFF" cx="725.4" cy="239" r="2.1"/>
		<circle id="XMLID_5166_" fill-rule="evenodd" clip-rule="evenodd" fill="#FFFFFF" cx="379.3" cy="182.7" r="2.4"/>
		<circle id="XMLID_5178_" fill-rule="evenodd" clip-rule="evenodd" fill="#FFFFFF" cx="505.2" cy="82.6" r="2.4"/>
		<circle id="XMLID_5167_" fill-rule="evenodd" clip-rule="evenodd" fill="#FFFFFF" cx="759" cy="149.4" r="2.4"/>
		<circle id="XMLID_5179_" fill-rule="evenodd" clip-rule="evenodd" fill="#FFFFFF" cx="956.9" cy="220.9" r="2.4"/>
		<circle id="XMLID_5168_" fill-rule="evenodd" clip-rule="evenodd" fill="#FFFFFF" cx="920.8" cy="349.4" r="2.4"/>
		<circle id="XMLID_5173_" fill-rule="evenodd" clip-rule="evenodd" fill="#FFFFFF" cx="1098.4" cy="330.6" r="2.4"/>
		<circle id="XMLID_5174_" fill-rule="evenodd" clip-rule="evenodd" fill="#FFFFFF" cx="248.4" cy="138.8" r="2.4"/>
		<circle id="XMLID_5175_" fill-rule="evenodd" clip-rule="evenodd" fill="#FFFFFF" cx="140" cy="180.3" r="2.4"/>
		<circle id="XMLID_5176_" fill-rule="evenodd" clip-rule="evenodd" fill="#FFFFFF" cx="70.6" cy="55" r="2.4"/>
		<circle id="XMLID_5170_" fill-rule="evenodd" clip-rule="evenodd" fill="#FFFFFF" cx="467.7" cy="361" r="2.4"/>
	</g>
</g>
</svg>
