<svg id="Capa_1" enable-background="new 0 0 512 512" height="512" viewBox="0 0 512 512" width="512" xmlns="http://www.w3.org/2000/svg"><g><g><circle cx="401.128" cy="251.131" fill="#ffbf9e" r="36.081"/></g><g><circle cx="110.87" cy="251.131" fill="#f7ab8b" r="36.081"/></g><g><path d="m156.905 504.5c-12.566 0-22.098-11.469-19.643-23.793 11.054-55.475 60.014-97.282 118.738-97.282s107.684 41.808 118.738 97.282c2.456 12.324-7.076 23.793-19.643 23.793z" fill="#4e5660"/></g><g><path d="m280.993 386.03c-8.065-1.705-16.426-2.605-24.993-2.605-58.6 0-107.629 41.885-118.724 97.271-2.469 12.326 7.069 23.804 19.64 23.804h28.008c.001-58.166 41.276-106.909 96.069-118.47z" fill="#383c43"/></g><g><path d="m437.597 293.42c0-21.049-17.063-38.112-38.112-38.112v-20.678l-1.373-19.941c-9.706-69.807-69.633-123.545-142.112-123.545s-132.406 53.738-142.112 123.545l-1.373 19.941v20.678c-21.049 0-38.112 17.063-38.112 38.112 0 16.718 10.769 30.911 25.744 36.048-3.831 5.944-6.063 13.016-6.063 20.613 0 20.602 16.35 37.375 36.78 38.078-.95 3.329-1.469 6.84-1.469 10.474 0 21.049 17.063 38.112 38.112 38.112 2.591 0 5.121-.261 7.568-.754 6.501 11.72 18.994 19.656 33.345 19.656 6.816 0 13.208-1.798 18.744-4.932 6.989 8.085 17.311 13.208 28.836 13.208s21.848-5.123 28.836-13.208c5.536 3.134 11.928 4.932 18.744 4.932 14.352 0 26.845-7.936 33.345-19.656 2.446.493 4.976.754 7.568.754 21.049 0 38.112-17.063 38.112-38.112 0-3.634-.519-7.145-1.469-10.474 20.431-.703 36.78-17.476 36.78-38.078 0-7.597-2.232-14.669-6.063-20.613 14.976-5.137 25.744-19.33 25.744-36.048z" fill="#e26e7e"/></g><g><path d="m227.175 450.727c-4.843-7.124-7.676-15.724-7.676-24.988 0-7.339 1.788-14.257 4.935-20.36-24.098-.551-43.467-20.244-43.467-44.474 0-24.577 19.923-44.5 44.5-44.5v-221.998c-58.221 12.619-103.275 60.568-111.577 120.282l-1.373 19.941v20.678c-21.049 0-38.112 17.063-38.112 38.112 0 16.718 10.769 30.911 25.744 36.048-3.831 5.944-6.063 13.016-6.063 20.613 0 20.602 16.35 37.375 36.78 38.078-.95 3.329-1.469 6.84-1.469 10.474 0 21.049 17.063 38.112 38.112 38.112 2.591 0 5.121-.261 7.568-.754 6.501 11.72 18.994 19.656 33.345 19.656 6.816 0 13.208-1.798 18.744-4.932.002.004.005.008.009.012z" fill="#d3596e"/></g><g><g><path d="m447.321 13.308-19.349 38.699c-7.199 14.398-21.915 23.493-38.013 23.493h-267.917c-16.098 0-30.814-9.095-38.013-23.493l-19.35-38.699c-1.78-3.56-5.418-5.808-9.397-5.808-5.803 0-10.507 4.704-10.507 10.507v40.493c0 46.944 38.056 85 85 85h252.45c46.944 0 85-38.056 85-85v-40.493c0-5.803-4.704-10.507-10.507-10.507-3.979 0-7.617 2.248-9.397 5.808z" fill="#fcf2d0"/></g></g><g><g><path d="m382.225 109.5h-252.45c-46.944 0-85-38.056-85-85v34c0 46.944 38.056 85 85 85h252.45c46.944 0 85-38.056 85-85v-34c0 46.944-38.056 85-85 85z" fill="#efdfb4"/></g></g><g><g><path d="m255.999 43.5c-88.366 0-160 71.634-160 160h320c0-88.366-71.635-160-160-160z" fill="#9aa3b1"/></g></g><g><path d="m256 43.5h-.001c-88.365 0-160 71.634-160 160h60c0-67.146 41.365-124.623 100.001-148.357z" fill="#7e8b9e"/></g><g><path d="m256 7.5c-11.046 0-20 8.954-20 20v176h40v-176c0-11.046-8.954-20-20-20z" fill="#fcf2d0"/></g><g><path d="m256 129.407c-11.046 0-20-8.954-20-20v94.093h40v-94.093c0 11.046-8.954 20-20 20z" fill="#efdfb4"/></g><g><path d="m147.726 213.137v75.424c0 22.281 18.063 40.344 40.344 40.344h135.861c22.281 0 40.344-18.063 40.344-40.344v-75.424z" fill="#ffd4be"/></g><g><path d="m237.175 288.561v-75.424h-89.449v75.424c0 22.281 18.063 40.344 40.344 40.344h89.449c-22.282 0-40.344-18.062-40.344-40.344z" fill="#ffbf9e"/></g><g><path d="m207.315 249.111-24.065-6.448c-3.995-1.067-8.113 1.302-9.186 5.304-1.072 4.001 1.302 8.113 5.303 9.186l7.078 1.897c-.252.75-.394 1.551-.394 2.386v10.366c0 4.142 3.358 7.5 7.5 7.5s7.5-3.358 7.5-7.5v-8.839l2.381.638c.65.174 1.303.257 1.946.257 3.311 0 6.342-2.21 7.24-5.561 1.072-4.001-1.302-8.113-5.303-9.186z"/><path d="m337.936 247.967c-1.071-4.001-5.183-6.373-9.186-5.304l-24.065 6.448c-4.001 1.072-6.375 5.185-5.303 9.186.897 3.351 3.928 5.561 7.239 5.561.643 0 1.296-.083 1.946-.257l2.381-.638v8.839c0 4.142 3.357 7.5 7.5 7.5s7.5-3.358 7.5-7.5v-10.366c0-.835-.142-1.636-.394-2.386l7.079-1.897c4.001-1.073 6.375-5.185 5.303-9.186z"/></g><g><path d="m145.232 289.522c17.134 17.149 44.928 17.155 62.07.014 13.042-13.042 34.188-13.042 47.23 0l.108.108c13.042 13.042 13.042 34.188 0 47.23l-6.521 6.521c-27.07 27.07-70.959 27.07-98.029 0-13.101-13.101-19.861-30.142-20.28-47.309-.199-8.134 9.672-12.319 15.422-6.564z" fill="#e8899e"/></g><g><path d="m366.769 289.522c-17.134 17.149-44.928 17.155-62.07.014-13.042-13.042-34.188-13.042-47.23 0l-.108.108c-13.042 13.042-13.042 34.188 0 47.23l6.521 6.521c27.07 27.07 70.959 27.07 98.029 0 13.101-13.101 19.861-30.142 20.28-47.309.198-8.134-9.672-12.319-15.422-6.564z" fill="#e8899e"/></g><g><path d="m446 223.5h-380c-11.046 0-20-8.954-20-20 0-11.046 8.954-20 20-20h380c11.046 0 20 8.954 20 20 0 11.046-8.954 20-20 20z" fill="#c6c6c6"/></g><g><path d="m217.175 203.5c0-11.046 8.954-20 20-20h-171.175c-11.046 0-20 8.954-20 20s8.954 20 20 20h171.175c-11.046 0-20-8.954-20-20z" fill="#9aa3b1"/></g><g><circle cx="331.823" cy="132.092" fill="#7e8b9e" r="20"/></g><g><circle cx="180.175" cy="132.092" fill="#7e8b9e" r="20"/></g><g><path d="m474.725 58.5v-40.494c0-9.928-8.077-18.006-18.006-18.006-6.865 0-13.037 3.814-16.105 9.954l-19.35 38.698c-5.967 11.934-17.963 19.348-31.305 19.348h-35.485c-20.608-15.001-44.766-25.413-70.974-29.743v-10.757c0-15.164-12.337-27.5-27.5-27.5-15.164 0-27.5 12.336-27.5 27.5v10.756c-26.198 4.329-50.353 14.742-70.962 29.744h-35.497c-13.343 0-25.338-7.414-31.305-19.348l-19.349-38.697c-3.069-6.141-9.24-9.955-16.105-9.955-9.929 0-18.007 8.078-18.007 18.006v40.494c0 13.088 2.681 25.741 7.967 37.608 1.244 2.792 3.984 4.45 6.855 4.45 1.02 0 2.056-.209 3.048-.651 3.784-1.686 5.484-6.12 3.799-9.903-4.426-9.934-6.669-20.533-6.669-31.504v-40.494c0-1.658 1.349-3.006 3.007-3.006 1.146 0 2.176.637 2.689 1.662l19.35 38.698c8.523 17.049 25.66 27.64 44.721 27.64h17.635c-14.442 13.944-26.387 30.459-35.094 48.813-11.389-3.915-21.769-10.476-30.261-19.173-2.894-2.964-7.643-3.02-10.605-.126-2.964 2.894-3.02 7.642-.126 10.605 9.896 10.134 21.949 17.83 35.176 22.539-3.579 9.722-6.281 19.867-8.012 30.341h-24.755c-15.164 0-27.5 12.336-27.5 27.5s12.337 27.501 27.5 27.501h6.218c-3.202 6.147-4.929 13.038-4.929 20.131 0 7.235 1.769 14.253 5.143 20.548-3.522 6.467-5.529 13.873-5.529 21.741 0 16.577 8.963 31.6 22.988 39.607-2.177 5.39-3.306 11.167-3.306 17.054 0 21.777 15.024 39.913 35.493 44.488-.121 1.351-.182 2.707-.182 4.064 0 17.205 9.578 32.211 23.679 39.978-7.528 12.573-12.793 26.207-15.668 40.63-1.604 8.047.471 16.312 5.692 22.676 5.257 6.408 13.022 10.083 21.306 10.083h198.191c8.284 0 16.05-3.675 21.307-10.083 5.221-6.364 7.295-14.628 5.691-22.675-2.875-14.43-8.143-28.06-15.67-40.629 14.102-7.767 23.681-22.774 23.681-39.979 0-1.363-.062-2.725-.184-4.081 5.486-1.244 10.711-3.498 15.413-6.678 3.432-2.32 4.332-6.983 2.012-10.414-2.321-3.432-6.984-4.332-10.414-2.012-4.752 3.214-10.304 5.017-16.054 5.215-2.307.08-4.448 1.216-5.806 3.082s-1.782 4.253-1.148 6.472c.783 2.745 1.181 5.576 1.181 8.416 0 16.879-13.732 30.612-30.611 30.612-2.041 0-4.089-.204-6.087-.606-3.204-.644-6.454.857-8.039 3.714-5.404 9.742-15.668 15.794-26.787 15.794-5.271 0-10.475-1.369-15.049-3.959-3.112-1.762-7.033-1.082-9.369 1.623-5.83 6.744-14.272 10.612-23.162 10.612s-17.333-3.868-23.163-10.613c-2.337-2.705-6.259-3.382-9.369-1.622-4.574 2.59-9.777 3.958-15.048 3.958-11.119 0-21.383-6.052-26.787-15.794-1.585-2.857-4.839-4.358-8.04-3.714-1.997.402-4.045.606-6.086.606-16.879 0-30.612-13.732-30.612-30.612 0-2.836.397-5.668 1.182-8.417.633-2.219.209-4.606-1.149-6.472s-3.5-3.002-5.806-3.082c-16.563-.57-29.538-14.003-29.538-30.583 0-5.887 1.683-11.61 4.867-16.55 1.249-1.938 1.537-4.343.782-6.521-.756-2.178-2.471-3.888-4.652-4.636-12.368-4.243-20.678-15.878-20.678-28.954 0-16.879 13.732-30.612 30.612-30.612 4.142 0 7.5-3.358 7.5-7.5v-20.42l.268-3.888h19.944v48.427c-2.64-.22-5.351.187-7.914 1.285-6.24 2.673-10.166 8.779-10 15.557.483 19.8 8.465 38.42 22.475 52.429 14.509 14.509 33.799 22.5 54.317 22.5s39.809-7.99 54.318-22.5l2.576-2.576 2.578 2.578c14.509 14.509 33.799 22.5 54.317 22.5 20.52 0 39.81-7.991 54.317-22.5 14.011-14.009 21.992-32.629 22.476-52.43.165-6.777-3.761-12.883-10.001-15.556-2.562-1.097-5.273-1.504-7.913-1.284v-48.428h19.943l.268 3.888v20.42c0 4.142 3.357 7.5 7.5 7.5 16.879 0 30.611 13.732 30.611 30.612 0 13.076-8.31 24.711-20.678 28.954-2.181.748-3.896 2.458-4.652 4.636s-.467 4.583.782 6.521c3.184 4.94 4.867 10.664 4.867 16.55 0 1.983-.19 3.968-.567 5.9-.791 4.066 1.863 8.003 5.93 8.795.483.094.966.14 1.44.14 3.518 0 6.657-2.487 7.354-6.068.559-2.875.843-5.824.843-8.767 0-5.887-1.13-11.664-3.307-17.054 14.024-8.007 22.987-23.031 22.987-39.607 0-7.871-2.009-15.279-5.533-21.748 3.371-6.296 5.144-13.322 5.144-20.541 0-7.077-1.737-13.974-4.943-20.131h6.237c15.163 0 27.5-12.336 27.5-27.5s-12.337-27.5-27.5-27.5h-24.758c-1.73-10.473-4.431-20.616-8.007-30.336 36.541-12.985 61.49-47.845 61.49-87.164zm-303.39 385.585c8.508 11.872 22.288 19.062 37.085 19.062 5.896 0 11.736-1.15 17.167-3.356 8.32 7.45 19.123 11.632 30.413 11.632s22.093-4.183 30.412-11.632c5.433 2.207 11.272 3.356 17.168 3.356 14.798 0 28.577-7.19 37.086-19.062 1.273.106 2.551.16 3.827.16 2.522 0 4.994-.215 7.405-.61 7.532 11.828 12.742 24.773 15.484 38.539.723 3.624-.217 7.353-2.577 10.229-2.396 2.922-5.936 4.597-9.71 4.597h-198.19c-3.774 0-7.313-1.675-9.709-4.597-2.36-2.877-3.3-6.606-2.578-10.23 2.742-13.759 7.947-26.708 15.479-38.54 2.413.396 4.887.611 7.41.611 1.276.001 2.554-.053 3.828-.159zm218.624-361.085c19.061 0 36.196-10.591 44.721-27.64l19.351-38.699c.512-1.025 1.542-1.662 2.688-1.662 1.657 0 3.006 1.349 3.006 3.006v40.495c0 33.229-21.266 62.65-52.31 73.301-8.704-18.35-20.643-34.86-35.08-48.801zm-133.959-68c6.893 0 12.5 5.607 12.5 12.5v148.5h-25v-148.5c0-6.893 5.608-12.5 12.5-12.5zm-27.5 38.479v122.521h-122.527c11.325-62.205 60.391-111.206 122.527-122.521zm-123.468 180.636c-.012.171-.018.343-.018.515v13.794c-8.193 1.361-15.652 4.918-21.758 10.037-.628-2.373-.968-4.829-.968-7.331 0-7.573 3.008-14.792 8.307-20.131h14.651zm50.361 103.976c-11.273-11.274-17.696-26.257-18.085-42.189-.006-.248-.024-1.001.911-1.402.642-.275 1.218-.168 1.708.323 9.704 9.711 22.608 15.062 36.336 15.064h.012c13.724 0 26.626-5.344 36.331-15.049 4.892-4.891 11.395-7.585 18.312-7.585 5.484 0 10.704 1.699 15.071 4.838-7.903 13.066-7.838 29.626.19 42.637l-3.362 3.362c-24.104 24.104-63.322 24.104-87.424.001zm218.388-43.591c.936.4.917 1.154.911 1.402-.389 15.933-6.812 30.916-18.086 42.189-11.675 11.676-27.198 18.106-43.711 18.106-16.512 0-32.035-6.43-43.711-18.106l-6.521-6.52c-10.097-10.097-10.097-26.526-.013-36.611l.121-.12c4.891-4.891 11.394-7.585 18.311-7.585 6.918 0 13.421 2.694 18.312 7.585 9.705 9.705 22.606 15.049 36.332 15.049h.012c13.729-.003 26.633-5.353 36.336-15.065.489-.49 1.064-.6 1.707-.324zm-17.006-6.32c-6.107 4.351-13.39 6.707-21.04 6.708-.003 0-.005 0-.008 0-9.718 0-18.854-3.784-25.725-10.655-7.725-7.725-17.994-11.979-28.919-11.979-9.208 0-17.945 3.033-25.084 8.603-7.144-5.572-15.878-8.603-25.082-8.603-10.924 0-21.194 4.254-28.918 11.979-6.872 6.872-16.006 10.655-25.725 10.655-.002 0-.006 0-.008 0-7.649-.001-14.932-2.357-21.039-6.708v-57.18h201.548zm72.933-37.049c0 2.498-.339 4.955-.967 7.329-6.106-5.118-13.564-8.674-21.756-10.035v-13.795c0-.172-.006-.344-.018-.516l-.214-3.114h14.656c5.292 5.337 8.299 12.58 8.299 20.131zm28.792-47.631c0 6.893-5.607 12.5-12.5 12.5h-380c-6.893 0-12.5-5.607-12.5-12.5s5.608-12.5 12.5-12.5h380c6.893 0 12.5 5.607 12.5 12.5zm-175-27.5v-122.52c62.159 11.318 111.198 60.306 122.523 122.52z"/><path d="m331.823 104.592c-15.163 0-27.5 12.336-27.5 27.5s12.337 27.5 27.5 27.5 27.5-12.336 27.5-27.5-12.337-27.5-27.5-27.5zm0 40c-6.893 0-12.5-5.607-12.5-12.5s5.607-12.5 12.5-12.5 12.5 5.607 12.5 12.5-5.608 12.5-12.5 12.5z"/><path d="m180.175 104.592c-15.164 0-27.5 12.336-27.5 27.5s12.336 27.5 27.5 27.5 27.5-12.336 27.5-27.5-12.337-27.5-27.5-27.5zm0 40c-6.893 0-12.5-5.607-12.5-12.5s5.607-12.5 12.5-12.5 12.5 5.607 12.5 12.5-5.608 12.5-12.5 12.5z"/></g></g></svg>