<svg id="Capa_1" enable-background="new 0 0 512 512" height="512" viewBox="0 0 512 512" width="512" xmlns="http://www.w3.org/2000/svg"><g><g><g><path d="m256 43.5c-88.366 0-160 71.634-160 160v15.245h320v-15.245c0-88.366-71.635-160-160-160z" fill="#f7ef87"/></g></g><g><path d="m256 43.5c-88.366 0-160 71.635-160 160v15.245h60v-15.245c0-67.146 41.365-124.622 100-148.356z" fill="#efd176"/></g><g><path d="m411.241 251.131c0 26.67 18.019 26.67 18.019 53.34 0 26.671-18.019 26.671-18.019 53.341 0 26.672 18.019 26.672 18.019 53.344 0 .953-.023 1.871-.067 2.758-1.422 28.458-25.377 50.586-53.871 50.586h-238.648c-28.494 0-52.449-22.127-53.871-50.586-.044-.887-.067-1.806-.067-2.758 0-26.672 18.019-26.672 18.019-53.344 0-26.671-18.019-26.671-18.019-53.341s18.019-26.67 18.019-53.34z" fill="#efd176"/></g><g><path d="m322.99 403.717h-134.002c-26.246 17.514-45.305 44.995-51.712 76.979-2.469 12.326 7.069 23.804 19.64 23.804h198.16c12.58 0 22.114-11.493 19.636-23.826-6.394-31.825-25.355-59.375-51.722-76.957z" fill="#89d47f"/></g><g><path d="m188.988 403.717c-26.246 17.514-45.305 44.995-51.712 76.979-2.469 12.326 7.069 23.804 19.64 23.804h28.008c0-41.985 21.507-79.057 54.078-100.783z" fill="#5ec783"/></g><g><path d="m188.998 403.717c8.7 28.762 35.4 49.708 67.002 49.708 31.598 0 58.295-20.94 66.999-49.697-8.118-5.415-16.927-9.9-26.3-13.255-2.538-.91-5.111-1.729-7.72-2.467-10.485-2.978-21.547-4.58-32.978-4.58-24.757-.001-47.801 7.48-67.003 20.291z" fill="#ffbf9e"/></g><g><path d="m207.628 434.014c17.339-24.125 43.318-41.645 73.365-47.984-8.065-1.705-16.426-2.605-24.993-2.605-24.756 0-47.8 7.481-67.002 20.292 3.533 11.681 10.036 22.074 18.63 30.297z" fill="#f7ab8b"/></g><g><path d="m369.914 245.355c-7.626 18.41 1.117 39.516 19.527 47.142s39.516-1.117 47.142-19.527 13.862-33.466 25.881-62.483-74.323-9.138-92.55 34.868z" fill="#ffbf9e"/></g><g><path d="m142.086 245.355c7.626 18.41-1.117 39.516-19.527 47.142s-39.516-1.117-47.142-19.527-13.862-33.466-25.881-62.483 74.322-9.138 92.55 34.868z" fill="#f7ab8b"/></g><g><path d="m396.545 215.342c-82.683-64.247-198.407-64.247-281.09 0-2.906 11.447-4.455 23.435-4.455 35.786 0 80.081 64.919 145 145 145s145-64.919 145-145c0-12.35-1.549-24.339-4.455-35.786z" fill="#ffd4be"/></g><g><path d="m161 251.128c0-25.717 6.695-49.869 18.438-70.81-22.611 8.015-44.24 19.683-63.983 35.024-2.906 11.447-4.455 23.435-4.455 35.786 0 80.081 64.919 145 145 145 8.526 0 16.878-.743 25-2.154-68.167-11.848-120-71.29-120-142.846z" fill="#ffbf9e"/></g><g><g><g><ellipse cx="172.932" cy="299.09" fill="#eda1ab" rx="30.65" ry="24.408"/></g><g><ellipse cx="339.068" cy="298.934" fill="#eda1ab" rx="30.65" ry="24.408"/></g></g><g><path d="m190.759 280.739c-6.251 0-12.195-2.703-16.313-7.418-2.725-3.12-2.403-7.858.716-10.582 3.119-2.725 7.856-2.404 10.583.716 1.268 1.452 3.095 2.285 5.014 2.285h.006c1.921-.002 3.749-.838 5.016-2.294 2.719-3.125 7.457-3.454 10.58-.736 3.126 2.719 3.455 7.456.736 10.581-4.112 4.728-10.06 7.443-16.317 7.449-.009-.001-.016-.001-.021-.001z"/></g><g><path d="m321.168 280.616c-6.253 0-12.197-2.704-16.313-7.42-2.724-3.121-2.402-7.858.719-10.582 3.122-2.723 7.859-2.402 10.582.719 1.267 1.451 3.094 2.283 5.013 2.283h.006c1.92-.002 3.748-.838 5.015-2.294 2.719-3.125 7.457-3.454 10.58-.736 3.126 2.719 3.455 7.456.736 10.581-4.112 4.729-10.061 7.443-16.317 7.449-.009 0-.015 0-.021 0z"/></g><g><path d="m256 292.262c-8.478 0-16.539-3.671-22.118-10.073-2.722-3.123-2.396-7.86.727-10.582 3.122-2.721 7.859-2.396 10.582.727 2.729 3.132 6.669 4.928 10.81 4.928s8.08-1.796 10.81-4.928c2.721-3.123 7.457-3.448 10.582-.727 3.122 2.722 3.448 7.459.727 10.582-5.581 6.402-13.643 10.073-22.12 10.073z"/></g></g><g><path d="m256 7.5c-11.046 0-20 8.954-20 20v136h40v-136c0-11.046-8.955-20-20-20z" fill="#fcf2d0"/></g><g><path d="m256 89.407c-11.046 0-20-8.954-20-20v94.093h40v-94.093c0 11.046-8.955 20-20 20z" fill="#efdfb4"/></g><g><g><path d="m256 185.255c-45.905 0-85.867-17.911-115.564-51.797-22.115-25.234-30.775-50.767-31.133-51.842-3.489-10.48 2.177-21.805 12.657-25.294 10.449-3.483 21.75 2.15 25.27 12.583.18.516 7.128 20.171 24.217 39.236 22.073 24.627 50.521 37.114 84.554 37.114 82.393 0 108.492-75.514 108.746-76.276 3.49-10.48 14.809-16.147 25.295-12.657 10.479 3.49 16.146 14.814 12.656 25.294-.357 1.075-9.019 26.608-31.133 51.842-29.699 33.886-69.66 51.797-115.565 51.797z" fill="#fff"/></g></g><g><path d="m287.501 164.057c-4.287-9.986.162-21.504 9.923-26.09-11.881 4.5-25.612 7.288-41.424 7.288-34.032 0-62.48-12.487-84.554-37.114-17.089-19.065-24.037-38.721-24.217-39.236-3.52-10.433-14.82-16.066-25.27-12.583-10.48 3.49-16.146 14.814-12.657 25.294.357 1.075 9.018 26.608 31.133 51.842 29.697 33.886 69.659 51.797 115.564 51.797 20.233 0 39.31-3.484 56.864-10.278-9.952 3.649-21.13-1.062-25.362-10.92z" fill="#fcf2d0"/></g><g><circle cx="256" cy="220.255" fill="#fff" r="15"/></g><g><circle cx="256" cy="185.255" fill="#fff" r="20"/></g><path d="m465.751 194.096c-8.385-6.86-25.254-5.668-42.512-.011-1.624-29.337-10.836-57.465-26.909-82.064 9.237-15.481 13.238-27.295 13.484-28.035 2.32-6.969 1.789-14.425-1.498-20.994s-8.936-11.465-15.905-13.786c-14.388-4.788-29.989 3.019-34.769 17.369-.015.043-.389 1.11-1.156 2.935-21.506-16.156-46.483-26.869-72.986-31.249v-10.761c0-15.164-12.337-27.5-27.5-27.5s-27.5 12.336-27.5 27.5v10.751c-26.484 4.377-51.462 15.091-72.969 31.242-.796-1.87-1.186-2.958-1.195-2.986-4.829-14.316-20.418-22.079-34.745-17.301-14.387 4.79-22.194 20.392-17.405 34.777.247.742 4.248 12.557 13.484 28.038-16.074 24.603-25.286 52.734-26.909 82.073-17.269-5.655-34.158-6.847-42.523.011-2.604 2.136-8.173 8.287-3.63 19.251l25.881 62.483c2.148 5.185 5.173 9.754 8.843 13.587-1.402 4.596-2.095 9.554-2.095 15.044 0 15.632 5.47 23.727 10.295 30.87 4.315 6.388 7.725 11.433 7.725 22.472 0 11.04-3.409 16.085-7.725 22.473-4.825 7.143-10.295 15.239-10.295 30.871 0 1.051.025 2.104.077 3.132 1.533 30.695 25.865 55.066 56.348 57.496-.652 2.459-1.238 4.938-1.739 7.439-1.612 8.046.457 16.314 5.677 22.682 5.257 6.416 13.027 10.095 21.316 10.095h198.16c8.292 0 16.063-3.681 21.319-10.1 5.222-6.375 7.288-14.65 5.67-22.704-.5-2.491-1.086-4.961-1.736-7.411 30.485-2.428 54.82-26.8 56.355-57.5.051-1.025.076-2.078.076-3.129 0-15.632-5.47-23.728-10.295-30.871-4.315-6.388-7.725-11.433-7.725-22.473 0-11.039 3.408-16.084 7.725-22.472 4.825-7.143 10.295-15.238 10.295-30.87 0-5.486-.689-10.448-2.092-15.047 3.67-3.833 6.696-8.401 8.843-13.584l25.881-62.482c4.547-10.975-1.032-17.126-3.641-19.261zm-57.316 5.902c-3.996 1.887-7.884 3.964-11.552 6.192-19.14-14.204-40.038-25.311-62.358-33.146 15.834-8.785 30.197-20.399 42.68-34.642 3.697-4.218 7.031-8.449 10.033-12.586 13.336 22.466 20.603 47.855 21.197 74.182zm-152.435-184.998c6.893 0 12.5 5.607 12.5 12.5v48c0 4.142 3.357 7.5 7.5 7.5s7.5-3.358 7.5-7.5v-22.007c24.074 4.385 46.709 14.504 66.097 29.6-3.493 5.929-8.22 12.851-14.383 19.725-14.475 16.145-31.798 26.74-51.715 31.689v-29.007c0-4.142-3.357-7.5-7.5-7.5s-7.5 3.358-7.5 7.5v31.615c-4.074.422-8.24.64-12.5.64-4.262 0-8.427-.216-12.5-.634v-109.621c.001-6.893 5.608-12.5 12.501-12.5zm-27.5 38.496v81.041c-19.889-4.905-37.13-15.403-51.469-31.401-6.228-6.948-11.032-14.01-14.589-20.059 19.384-15.083 42.009-25.199 66.058-29.581zm-104.168 9.942c6.51-2.17 13.596 1.357 15.815 7.936.305.874 7.669 21.642 25.714 41.774 23.557 26.282 53.884 39.608 90.139 39.608 87.746 0 115.591-80.593 115.862-81.407 2.177-6.539 9.268-10.086 15.81-7.911 3.167 1.055 5.734 3.28 7.229 6.266 1.494 2.986 1.736 6.375.68 9.546-.337 1.015-8.51 25.136-29.656 49.265-22.359 25.512-51.346 41.73-84.146 47.167-3.896-10.457-13.98-17.926-25.778-17.926s-21.882 7.469-25.778 17.926c-32.8-5.436-61.788-21.654-84.146-47.167-21.146-24.127-29.319-48.25-29.657-49.268-2.179-6.539 1.37-13.631 7.912-15.809zm139.168 156.817c0 4.136-3.364 7.5-7.5 7.5s-7.5-3.364-7.5-7.5 3.364-7.5 7.5-7.5 7.5 3.365 7.5 7.5zm-20-35c0-6.893 5.607-12.5 12.5-12.5s12.5 5.607 12.5 12.5-5.607 12.5-12.5 12.5-12.5-5.607-12.5-12.5zm-118.739-59.439c3.002 4.137 6.337 8.368 10.034 12.586 12.483 14.243 26.845 25.857 42.679 34.642-22.32 7.835-43.218 18.942-62.358 33.147-3.667-2.226-7.552-4.303-11.551-6.189.593-26.327 7.859-51.718 21.196-74.186zm-68.296 81.8c-.421-1.016-.546-1.694-.568-2.033 1.465-1.041 7.727-2.256 19.071.207 10.61 2.304 22.038 6.964 31.988 12.984-2.289 10.591-3.455 21.449-3.455 32.355 0 12.624 1.552 24.89 4.458 36.629-11.057-.267-21.18-6.959-25.612-17.658zm33.83 205.927c-.039-.779-.059-1.582-.059-2.387 0-11.04 3.409-16.086 7.725-22.474 4.825-7.143 10.295-15.239 10.295-30.871 0-15.631-5.47-23.727-10.295-30.869-4.315-6.388-7.725-11.433-7.725-22.472 0-2.006.116-3.866.35-5.621 5.576 2.552 11.702 3.93 18.009 3.93 1.276 0 2.562-.075 3.85-.189 14.274 39.696 44.568 71.809 83.049 88.508-3.564 1.91-7.046 3.981-10.421 6.222-.083.051-.165.104-.247.158-21.759 14.519-38.618 35.523-48.254 59.52-24.744-.054-45.062-19.122-46.277-43.455zm205.769-15.299c6.167 2.336 12.154 5.23 17.875 8.644-9.485 23.541-32.184 39.036-57.939 39.036-25.71 0-48.448-15.518-57.937-39.051 5.686-3.389 11.655-6.272 17.82-8.611 12.789 3.491 26.237 5.365 40.117 5.365 13.599.001 27.076-1.843 40.064-5.383zm68.727 94.152c-2.396 2.926-5.938 4.604-9.715 4.604h-198.16c-3.777 0-7.318-1.678-9.716-4.603-2.358-2.878-3.295-6.606-2.57-10.228 5.234-26.128 19.933-49.932 40.842-66.596 12.46 27.453 39.782 45.352 70.529 45.352 30.801 0 58.079-17.874 70.532-45.335 20.887 16.648 35.578 40.437 40.827 66.561.728 3.628-.208 7.362-2.569 10.245zm49.245-165.453c-4.825 7.143-10.295 15.238-10.295 30.869 0 15.632 5.47 23.728 10.295 30.871 4.315 6.388 7.725 11.434 7.725 22.474 0 .805-.02 1.607-.058 2.383-1.217 24.339-21.54 43.409-46.286 43.458-9.644-24.007-26.509-45.013-48.266-59.521-.077-.051-.155-.101-.233-.149-3.383-2.246-6.866-4.32-10.426-6.23 12.741-5.498 24.75-12.73 35.614-21.558 3.215-2.612 3.703-7.336 1.091-10.55-2.611-3.215-7.337-3.704-10.55-1.091-24.388 19.817-55.16 30.73-86.647 30.73-75.817 0-137.5-61.682-137.5-137.5 0-10.618 1.216-21.183 3.616-31.445 22.732-17.25 48.167-29.776 75.639-37.249 10.001 3.777 20.456 6.54 31.284 8.244 1.252 6.231 4.617 11.706 9.312 15.645-3.034 3.835-4.852 8.673-4.852 13.931 0 12.407 10.094 22.5 22.5 22.5s22.5-10.093 22.5-22.5c0-5.258-1.818-10.097-4.852-13.931 4.695-3.94 8.06-9.414 9.312-15.645 10.828-1.705 21.283-4.467 31.284-8.245 27.472 7.474 52.907 19.999 75.639 37.249 2.4 10.262 3.616 20.827 3.616 31.445 0 31.488-10.913 62.26-30.729 86.647-2.612 3.214-2.124 7.938 1.091 10.55 1.391 1.13 3.063 1.679 4.725 1.679 2.181 0 4.344-.946 5.825-2.771 10.888-13.4 19.35-28.538 25.121-44.647 1.294.115 2.584.19 3.866.19 6.308 0 12.436-1.378 18.013-3.931.234 1.757.35 3.619.35 5.624.001 11.041-3.409 16.086-7.724 22.474zm41.499-119.326-25.881 62.483c-4.433 10.705-14.574 17.402-25.644 17.657 2.955-11.923 4.49-24.225 4.49-36.629 0-10.907-1.167-21.765-3.456-32.356 9.922-6.004 21.315-10.653 31.909-12.965 11.393-2.484 17.679-1.269 19.15-.225-.022.34-.147 1.019-.568 2.035z"/></g></svg>