<svg id="Capa_1" enable-background="new 0 0 512 512" height="512" viewBox="0 0 512 512" width="512" xmlns="http://www.w3.org/2000/svg"><g><g><path d="m369.914 245.355c-7.626 18.41 1.117 39.516 19.527 47.142s39.516-1.117 47.142-19.527 13.862-33.466 25.881-62.483-74.322-9.138-92.55 34.868z" fill="#ffbf9e"/></g><g><path d="m142.086 245.355c7.626 18.41-1.117 39.516-19.527 47.142s-39.516-1.117-47.142-19.527-13.862-33.466-25.881-62.483 74.322-9.138 92.55 34.868z" fill="#f7ab8b"/></g><g><path d="m156.904 504.5c-12.566 0-22.098-11.469-19.643-23.793 11.054-55.475 60.014-97.282 118.738-97.282s107.684 41.808 118.738 97.282c2.456 12.324-7.076 23.793-19.643 23.793z" fill="#89d47f"/></g><g><path d="m280.993 386.03c-8.065-1.705-16.426-2.605-24.993-2.605-58.6 0-107.629 41.885-118.724 97.271-2.469 12.326 7.069 23.804 19.64 23.804h28.008c.001-58.166 41.276-106.909 96.069-118.47z" fill="#5ec783"/></g><g><path d="m223 432.78-15.173-58.167h96.334l-15.161 58.167z" fill="#f7ab8b"/></g><g><path d="m287.585 459.581c27.323-23.708 32.641-62.417 32.726-84.968h-16.15l-48.167 58.167 16.663 24.867c3.367 5.026 10.36 5.898 14.928 1.934z" fill="#e26e7e"/></g><g><path d="m224.403 459.581c-27.323-23.708-32.64-62.417-32.726-84.968h16.15l48.167 58.167-16.663 24.867c-3.367 5.026-10.36 5.898-14.928 1.934z" fill="#e26e7e"/></g><g><g><circle cx="256" cy="251.128" fill="#ffd4be" r="145"/></g></g><g><g><path d="m161 251.128c0-71.555 51.833-130.998 120-142.846-8.122-1.412-16.474-2.154-25-2.154-80.081 0-145 64.919-145 145s64.919 145 145 145c8.526 0 16.878-.743 25-2.154-68.167-11.848-120-71.29-120-142.846z" fill="#ffbf9e"/></g></g><g><path d="m256 7.5c-29.787 0-144.185 81.179-158.713 190.352-1.603 12.046 7.658 22.784 19.81 22.784h138.903 138.903c12.152 0 21.413-10.738 19.81-22.784-14.528-109.173-128.926-190.352-158.713-190.352z" fill="#e8899e"/></g><g><path d="m215.288 25.325c-45.161 29.682-107.528 93.828-118.001 172.527-1.603 12.046 7.658 22.784 19.81 22.784h127.091c-91.096-40.315-56.196-174.621-28.9-195.311z" fill="#e26e7e"/></g><g><g><g><ellipse cx="176.443" cy="300.122" fill="#eda1ab" rx="29.355" ry="23.377"/></g><g><ellipse cx="335.557" cy="300.122" fill="#eda1ab" rx="29.355" ry="23.377"/></g></g><g><path d="m193.551 285.119c-4.143 0-7.5-3.358-7.5-7.5v-12c0-4.142 3.357-7.5 7.5-7.5s7.5 3.358 7.5 7.5v12c0 4.142-3.358 7.5-7.5 7.5z"/></g><g><path d="m318.448 285.119c-4.143 0-7.5-3.358-7.5-7.5v-12c0-4.142 3.357-7.5 7.5-7.5s7.5 3.358 7.5 7.5v12c0 4.142-3.357 7.5-7.5 7.5z"/></g><g><path d="m256 292.262c-8.478 0-16.539-3.671-22.118-10.073-2.722-3.123-2.396-7.86.727-10.582 3.121-2.721 7.859-2.396 10.582.727 2.729 3.132 6.669 4.928 10.81 4.928s8.08-1.796 10.81-4.928c2.721-3.123 7.457-3.448 10.582-.727 3.122 2.722 3.448 7.459.727 10.582-5.581 6.402-13.642 10.073-22.12 10.073z"/></g></g><g><path d="m107.851 160.636h296.297c5.72 0 9.558-5.814 7.378-11.102-6.081-14.749-13.736-28.699-22.365-41.676-2.986-4.49-7.989-7.222-13.381-7.222h-239.56c-5.392 0-10.395 2.732-13.381 7.222-8.629 12.976-16.284 26.927-22.365 41.676-2.181 5.288 1.658 11.102 7.377 11.102z" fill="#4e5660"/></g><g><path d="m285.996 180.636h-60c-11.046 0-20-8.954-20-20v-60c0-11.046 8.954-20 20-20h60c11.046 0 20 8.954 20 20v60c0 11.046-8.955 20-20 20z" fill="#f7ef87"/></g><g><path d="m235.996 160.636v-60c0-11.046 8.954-20 20-20h-30c-11.046 0-20 8.954-20 20v60c0 11.046 8.954 20 20 20h30c-11.046 0-20-8.954-20-20z" fill="#efd176"/></g><g><path d="m235.996 110.636h40v40h-40z" fill="#4e5660"/></g><g><path d="m466.78 195.017c-8.475-8.302-27.288-6.495-44.975-.496-1.486-10.164-3.847-20.419-7.056-30.589.842-.792 1.606-1.68 2.264-2.664 2.892-4.321 3.433-9.777 1.446-14.594-5.979-14.499-13.735-28.956-23.054-42.97-3.966-5.962-10.317-9.749-17.303-10.443-18.276-24.963-41.785-48.574-66.495-66.708-22.653-16.627-43.441-26.553-55.607-26.553-12.155 0-32.927 9.914-55.562 26.519-24.724 18.138-48.255 41.764-66.541 66.743-6.987.694-13.337 4.481-17.304 10.444-9.318 14.013-17.074 28.47-23.054 42.97-1.986 4.817-1.444 10.273 1.448 14.594.657.982 1.42 1.869 2.26 2.66-3.209 10.169-5.567 20.427-7.054 30.592-17.687-6-36.499-7.809-44.975.495-2.184 2.139-6.81 8.208-2.612 18.34l25.881 62.483c6.875 16.599 22.876 26.93 40.168 26.93 1.264 0 2.536-.072 3.811-.184 5.771 16.11 14.233 31.249 25.122 44.649 1.482 1.825 3.645 2.771 5.825 2.771 1.661 0 3.334-.55 4.725-1.679 3.215-2.612 3.703-7.336 1.091-10.55-19.816-24.388-30.729-55.16-30.729-86.647 0-7.719.653-15.43 1.924-22.992h271.151c1.271 7.562 1.925 15.271 1.925 22.992 0 75.818-61.683 137.5-137.5 137.5-31.487 0-62.26-10.914-86.647-30.73-3.216-2.613-7.94-2.124-10.55 1.091-2.612 3.214-2.124 7.938 1.091 10.55 7.714 6.268 16.005 11.73 24.724 16.34.245 3.305.62 6.969 1.182 10.893-28.863 18.85-49.178 48.765-55.894 82.469-1.604 8.047.471 16.312 5.691 22.675 5.257 6.407 13.023 10.082 21.307 10.082h198.191c8.284 0 16.05-3.675 21.307-10.083 5.221-6.364 7.295-14.628 5.691-22.675-6.733-33.788-27.014-63.614-55.905-82.475.561-3.919.937-7.588 1.182-10.905 33.295-17.708 59.285-47.393 72.186-83.274 1.262.11 2.521.18 3.773.18 17.293 0 33.313-10.342 40.182-26.927l25.881-62.483c4.198-10.132-.428-16.202-2.612-18.341zm-195.772 207.873-15.014 18.131-15.029-18.149c4.983.497 10 .756 15.035.756 5.064 0 10.07-.254 15.008-.738zm-52.865-4.06 28.506 34.423-13.548 20.219c-.512.764-1.219 1.004-1.722 1.071-.439.06-1.278.052-2.062-.627-19.447-16.875-26.446-42.276-28.885-60.8 5.78 2.261 11.694 4.171 17.711 5.714zm149.24 83.343c.723 3.624-.217 7.353-2.577 10.229-2.396 2.922-5.936 4.597-9.71 4.597h-198.192c-3.774 0-7.313-1.675-9.71-4.597-2.36-2.876-3.3-6.605-2.577-10.229 5.534-27.774 21.533-52.639 44.37-69.373 4.596 17.844 13.475 37.673 30.5 52.446 3.229 2.802 7.342 4.32 11.556 4.32.772 0 1.549-.051 2.323-.154 4.963-.664 9.408-3.43 12.195-7.59l10.432-15.569 10.432 15.569c2.787 4.16 7.232 6.926 12.195 7.589.774.104 1.551.154 2.323.154 4.214 0 8.327-1.519 11.556-4.32 17.022-14.77 25.906-34.579 30.505-52.449 22.856 16.735 38.83 41.534 44.379 69.377zm-84.713-28.256c-.783.681-1.628.689-2.062.627-.503-.067-1.21-.308-1.722-1.071l-13.547-20.219 28.461-34.37c6.071-1.554 11.997-3.474 17.754-5.733-2.45 18.598-9.468 43.919-28.884 60.766zm121.59-245.023c-2.396 2.736-5.719 4.242-9.356 4.242h-277.807c-3.638 0-6.961-1.506-9.356-4.242-2.404-2.744-3.505-6.409-3.02-10.053 1.354-10.172 3.68-20.481 6.926-30.706h87.898c3.273 11.529 13.889 20 26.452 20h60c12.563 0 23.178-8.472 26.452-20h87.902c3.246 10.226 5.575 20.533 6.929 30.705.485 3.645-.616 7.31-3.02 10.054zm-21.344-96.883c8.776 13.199 16.07 26.786 21.677 40.382.035.086.119.288-.045.532-.141.21-.297.21-.399.21h-90.652v-45h62.284c2.853.001 5.521 1.45 7.135 3.876zm-173.605-73.398c22.235-16.312 39.471-23.613 46.689-23.613 7.225 0 24.478 7.312 46.733 23.646 20.521 15.06 40.17 34.096 56.403 54.49h-46.689c-3.274-11.528-13.889-20-26.452-20h-14.995c-4.143 0-7.5 3.358-7.5 7.5s3.357 7.5 7.5 7.5h14.996c6.893 0 12.5 5.607 12.5 12.5v60c0 6.893-5.607 12.5-12.5 12.5h-60c-6.893 0-12.5-5.607-12.5-12.5v-60c0-6.893 5.607-12.5 12.5-12.5h15.004c4.143 0 7.5-3.358 7.5-7.5s-3.357-7.5-7.5-7.5h-15.004c-12.563 0-23.178 8.471-26.452 20h-46.682c16.246-20.41 35.914-39.459 56.449-54.523zm-101.904 113.78c5.606-13.596 12.9-27.183 21.677-40.381 1.614-2.427 4.282-3.876 7.136-3.876h62.276v45h-90.645c-.103 0-.258 0-.398-.21-.164-.245-.081-.448-.046-.533zm-25.061 117.707-25.881-62.483c-.422-1.02-.547-1.7-.569-2.038 2.477-1.831 16.066-2.626 35.805 5.515 1.143 2.777 2.737 5.378 4.756 7.683 2.573 2.938 5.712 5.254 9.181 6.848-1.412 8.391-2.137 16.945-2.137 25.503 0 12.401 1.534 24.701 4.488 36.621-11.066-.27-21.225-6.985-25.643-17.649zm373.189-62.483-25.881 62.483c-4.409 10.644-14.558 17.36-25.609 17.647 2.904-11.735 4.455-23.998 4.455-36.618 0-8.561-.726-17.112-2.138-25.503 3.47-1.595 6.609-3.911 9.182-6.849 2.019-2.305 3.613-4.906 4.756-7.683 19.738-8.14 33.329-7.346 35.805-5.514-.023.337-.148 1.017-.57 2.037z"/><path d="m228.496 110.636v40c0 4.142 3.357 7.5 7.5 7.5h40c4.143 0 7.5-3.358 7.5-7.5v-40c0-4.142-3.357-7.5-7.5-7.5h-40c-4.142 0-7.5 3.358-7.5 7.5zm15 7.5h25v25h-25z"/></g></g></svg>