<?xml version="1.0" encoding="iso-8859-1"?>
<!-- Generator: Adobe Illustrator 19.0.0, SVG Export Plug-In . SVG Version: 6.00 Build 0)  -->
<svg version="1.1" id="Capa_1" xmlns="http://www.w3.org/2000/svg" xmlns:xlink="http://www.w3.org/1999/xlink" x="0px" y="0px"
	 viewBox="0 0 512.002 512.002" style="enable-background:new 0 0 512.002 512.002;" xml:space="preserve">
<path style="fill:#FFC477;" d="M388.726,10.007L336.287,40.13c-20.996,12.061-33.421,34.914-32.131,59.099l2.538,47.589
	l31.286,53.069l-28.246,3.928l2.772,51.963l25.474,43.211l-22.999,3.198l2.503,46.927c1.089,20.424,11.841,39.107,28.951,50.306
	l42.291,27.681"/>
<g>
	<path style="fill:#FF9929;" d="M388.726,131.038v296.065l42.289-27.682c17.109-11.202,27.86-29.885,28.951-50.304l1.874-35.161
		l-21.415-5.529l23.358-30.91l3.185-59.755l5.246-98.311l1.08-20.221c1.288-24.191-11.136-47.041-32.13-59.105l-52.438-30.124"/>
</g>
<path d="M388.73,95.322c-0.65,0-1.31-0.07-1.96-0.2c-0.64-0.13-1.27-0.32-1.87-0.57s-1.18-0.56-1.73-0.92
	c-0.54-0.37-1.05-0.78-1.51-1.24c-0.47-0.47-0.88-0.98-1.25-1.52c-0.36-0.55-0.67-1.13-0.92-1.73c-0.25-0.6-0.44-1.23-0.57-1.87
	c-0.13-0.65-0.19-1.3-0.19-1.95c0-0.66,0.06-1.31,0.19-1.96c0.13-0.64,0.32-1.27,0.57-1.87s0.56-1.18,0.92-1.73
	c0.37-0.54,0.78-1.06,1.25-1.52c0.46-0.46,0.97-0.88,1.51-1.24c0.55-0.36,1.13-0.67,1.73-0.92s1.23-0.44,1.87-0.57
	c1.29-0.26,2.62-0.26,3.91,0c0.64,0.13,1.27,0.32,1.87,0.57s1.19,0.56,1.73,0.92c0.55,0.36,1.06,0.78,1.52,1.24s0.88,0.98,1.24,1.52
	c0.36,0.55,0.67,1.13,0.92,1.73s0.44,1.23,0.57,1.87c0.13,0.65,0.2,1.3,0.2,1.96c0,0.65-0.07,1.3-0.2,1.95
	c-0.13,0.64-0.32,1.27-0.57,1.87c-0.25,0.6-0.56,1.18-0.92,1.73c-0.36,0.54-0.78,1.05-1.24,1.52c-0.46,0.46-0.97,0.87-1.52,1.24
	c-0.54,0.36-1.13,0.67-1.73,0.92s-1.23,0.44-1.87,0.57C390.04,95.252,389.38,95.322,388.73,95.322z"/>
<polygon style="fill:#F6DAB9;" points="472.213,119.452 466.967,217.762 388.726,296.029 388.726,202.965 "/>
<path style="fill:#B0DBD0;" d="M199.737,296.139v-12.905h17.295c9.613,0,17.405-7.795,17.405-17.411l0,0
	c0-9.616-7.793-17.411-17.405-17.411H96.908c-9.613,0-17.405,7.795-17.405,17.411l0,0c0,9.616,7.793,17.411,17.405,17.411h18.29
	v12.905c0,10.395-8.424,18.821-18.816,18.821h-28.83c-15.982,0-28.938,12.96-28.938,28.947v129.148
	c0,15.987,12.956,28.947,28.938,28.947h177.841c15.982,0,28.938-12.96,28.938-28.947V343.907c0-15.987-12.956-28.947-28.938-28.947
	h-26.841C208.161,314.961,199.737,306.534,199.737,296.139z"/>
<rect x="77.953" y="354.31" style="fill:#2C7B7E;" width="157.04" height="108.34"/>
<path d="M234.992,472.651H77.954c-5.523,0-10-4.477-10-10V354.312c0-5.523,4.477-10,10-10h157.039c5.523,0,10,4.477,10,10v108.339
	C244.992,468.174,240.515,472.651,234.992,472.651z M87.954,452.651h137.039v-88.339H87.954V452.651z"/>
<path d="M446.145,31.455L393.707,1.331c-3.301-1.897-7.231-1.701-10.255,0.173l-52.146,29.955
	C306.9,45.478,292.671,71.65,294.17,99.761l2.538,47.589c0.085,1.604,0.556,3.163,1.372,4.546l23.67,40.15l-13.393,1.862
	c-5.145,0.715-8.885,5.25-8.608,10.438l2.771,51.963c0.085,1.604,0.556,3.163,1.372,4.546l17.858,30.292l-8.146,1.132
	c-5.145,0.715-8.886,5.25-8.609,10.438l2.503,46.927c1.254,23.513,13.763,45.247,33.46,58.14l37.766,24.719v14.348l-10.107-10.111
	c-3.904-3.907-10.237-3.907-14.142-0.002c-3.906,3.905-3.907,10.236-0.002,14.142l24.238,24.246
	c0.005,0.005,0.009,0.009,0.014,0.013V502c0,5.523,4.477,10,10,10s10-4.477,10-10v-26.861c0.005-0.005,0.009-0.009,0.014-0.013
	l24.238-24.246c3.905-3.906,3.903-10.237-0.002-14.142c-3.905-3.904-10.237-3.903-14.142,0.002l-10.107,10.111v-14.343
	l37.768-24.723c19.695-12.895,32.203-34.628,33.459-58.137l1.874-35.161c0.253-4.752-2.878-9.025-7.486-10.215l-6.896-1.78
	l14.317-18.947c1.203-1.591,1.902-3.505,2.008-5.497l9.511-178.287C484.776,71.651,470.548,45.477,446.145,31.455z M351.912,391.051
	c-14.388-9.417-23.525-25.294-24.441-42.471l-2.014-37.755l13.9-1.933c3.312-0.46,6.173-2.545,7.627-5.555s1.308-6.548-0.39-9.428
	l-24.233-41.105l-2.152-40.35l19.148-2.663c3.311-0.46,6.173-2.545,7.627-5.556c1.454-3.01,1.308-6.548-0.39-9.428l-30.044-50.963
	l-2.408-45.149c-1.095-20.536,9.299-39.654,27.126-49.895l47.462-27.264l47.451,27.259c17.826,10.243,28.22,29.365,27.126,49.901
	l-0.875,16.393l-63.707,63.727v-47.78c0-5.523-4.477-10-10-10s-10,4.477-10,10l-0.001,277.563L351.912,391.051z M398.726,207.106
	l62.111-62.13l-3.651,68.427l-58.459,58.479L398.726,207.106L398.726,207.106z M430.982,311.72c1.101,3.157,3.706,5.554,6.943,6.39
	l13.494,3.483l-1.438,26.99c-0.917,17.173-10.055,33.05-24.442,42.47l-26.812,17.551V300.17l56.868-56.886l-1.635,30.646
	l-21.513,28.469C430.431,305.065,429.881,308.563,430.982,311.72z"/>
<path d="M245.393,304.961h-26.841c-4.861,0-8.815-3.958-8.815-8.822v-2.905h7.295c15.111,0,27.405-12.296,27.405-27.411
	c0-15.114-12.294-27.411-27.405-27.411H96.908c-15.111,0-27.405,12.296-27.405,27.411c0,15.114,12.294,27.411,27.405,27.411h8.29
	v2.905c0,4.864-3.955,8.822-8.816,8.822h-28.83c-21.47,0-38.938,17.471-38.938,38.947v129.147c0,21.475,17.467,38.947,38.938,38.947
	h177.841c21.47,0,38.938-17.472,38.938-38.947V343.908C284.331,322.432,266.864,304.961,245.393,304.961z M264.331,473.055
	c0,10.447-8.495,18.947-18.938,18.947H67.553c-10.442,0-18.938-8.5-18.938-18.947V343.908c0-10.447,8.495-18.947,18.938-18.947
	h28.83c15.889,0,28.816-12.929,28.816-28.822v-2.905h38.042c5.523,0,10-4.477,10-10s-4.477-10-10-10H96.908
	c-4.083,0-7.405-3.325-7.405-7.411s3.322-7.411,7.405-7.411h120.124c4.083,0,7.405,3.325,7.405,7.411s-3.322,7.411-7.405,7.411
	h-17.295c-5.523,0-10,4.477-10,10v12.905c0,15.893,12.927,28.822,28.815,28.822h26.841c10.442,0,18.938,8.5,18.938,18.947V473.055z"
	/>
<ellipse style="fill:#F6DAB9;" cx="156.47" cy="408.48" rx="23.09" ry="23.1"/>
<path d="M156.473,441.577c-18.245,0-33.088-14.847-33.088-33.096s14.843-33.096,33.088-33.096s33.088,14.847,33.088,33.096
	S174.718,441.577,156.473,441.577z M156.473,395.386c-7.217,0-13.088,5.875-13.088,13.096s5.872,13.096,13.088,13.096
	s13.088-5.875,13.088-13.096S163.69,395.386,156.473,395.386z"/>
<g>
</g>
<g>
</g>
<g>
</g>
<g>
</g>
<g>
</g>
<g>
</g>
<g>
</g>
<g>
</g>
<g>
</g>
<g>
</g>
<g>
</g>
<g>
</g>
<g>
</g>
<g>
</g>
<g>
</g>
</svg>
