<svg width="32" height="32" viewBox="0 0 32 32" fill="none" xmlns="http://www.w3.org/2000/svg">
<path d="M12.1094 22.6562C12.1094 22.5625 12.0156 22.4688 11.875 22.4688C11.7344 22.4688 11.6406 22.5625 11.6406 22.6562C11.6406 22.75 11.7344 22.8438 11.875 22.7969C12.0156 22.7969 12.1094 22.75 12.1094 22.6562ZM10.6562 22.4219C10.6562 22.5156 10.75 22.6562 10.8906 22.6562C10.9844 22.7031 11.125 22.6562 11.1719 22.5625C11.1719 22.4688 11.125 22.375 10.9844 22.3281C10.8438 22.2812 10.7031 22.3281 10.6562 22.4219ZM12.7656 22.375C12.625 22.375 12.5312 22.4688 12.5312 22.6094C12.5312 22.7031 12.6719 22.75 12.8125 22.7031C12.9531 22.6562 13.0469 22.6094 13 22.5156C13 22.4219 12.8594 22.3281 12.7656 22.375ZM15.8125 4.375C9.34375 4.375 4.375 9.34375 4.375 15.8125C4.375 21.0156 7.60938 25.4688 12.2969 27.0625C12.9062 27.1562 13.0938 26.7812 13.0938 26.5C13.0938 26.1719 13.0938 24.5781 13.0938 23.5938C13.0938 23.5938 9.8125 24.2969 9.10938 22.1875C9.10938 22.1875 8.59375 20.8281 7.84375 20.5C7.84375 20.5 6.76562 19.75 7.89062 19.75C7.89062 19.75 9.0625 19.8438 9.71875 20.9688C10.75 22.7969 12.4375 22.2812 13.1406 21.9531C13.2344 21.2031 13.5156 20.6875 13.8906 20.3594C11.2656 20.0781 8.59375 19.7031 8.59375 15.2031C8.59375 13.8906 8.96875 13.2812 9.71875 12.4375C9.57812 12.1094 9.20312 10.8906 9.85938 9.25C10.7969 8.96875 13.0938 10.5156 13.0938 10.5156C14.0312 10.2344 15.0156 10.1406 16 10.1406C17.0312 10.1406 18.0156 10.2344 18.9531 10.5156C18.9531 10.5156 21.2031 8.92188 22.1875 9.25C22.8438 10.8906 22.4219 12.1094 22.3281 12.4375C23.0781 13.2812 23.5469 13.8906 23.5469 15.2031C23.5469 19.7031 20.7812 20.0781 18.1562 20.3594C18.5781 20.7344 18.9531 21.4375 18.9531 22.5625C18.9531 24.1094 18.9062 26.0781 18.9062 26.4531C18.9062 26.7812 19.1406 27.1562 19.75 27.0156C24.4375 25.4688 27.625 21.0156 27.625 15.8125C27.625 9.34375 22.3281 4.375 15.8125 4.375ZM8.92188 20.5469C8.82812 20.5938 8.875 20.7344 8.92188 20.8281C9.01562 20.875 9.10938 20.9219 9.20312 20.875C9.25 20.8281 9.25 20.6875 9.15625 20.5938C9.0625 20.5469 8.96875 20.5 8.92188 20.5469ZM8.40625 20.1719C8.35938 20.2656 8.40625 20.3125 8.5 20.3594C8.59375 20.4062 8.6875 20.4062 8.73438 20.3125C8.73438 20.2656 8.6875 20.2188 8.59375 20.1719C8.5 20.125 8.45312 20.125 8.40625 20.1719ZM9.90625 21.8594C9.85938 21.9062 9.85938 22.0469 10 22.1406C10.0938 22.2344 10.2344 22.2812 10.2812 22.1875C10.3281 22.1406 10.3281 22 10.2344 21.9062C10.1406 21.8125 10 21.7656 9.90625 21.8594ZM9.39062 21.1562C9.29688 21.2031 9.29688 21.3438 9.39062 21.4375C9.48438 21.5312 9.57812 21.5781 9.67188 21.5312C9.71875 21.4844 9.71875 21.3438 9.67188 21.25C9.57812 21.1562 9.48438 21.1094 9.39062 21.1562Z" fill="black"/>
</svg>
