<svg id="Capa_1" enable-background="new 0 0 512 512" height="512" viewBox="0 0 512 512" width="512" xmlns="http://www.w3.org/2000/svg"><g><g><circle cx="401.128" cy="251.131" fill="#ffbf9e" r="36.081"/></g><g><circle cx="110.87" cy="251.131" fill="#f7ab8b" r="36.081"/></g><g><g><path d="m296.699 390.472c-2.538-.91-5.111-1.729-7.72-2.467-10.485-2.978-21.547-4.58-32.978-4.58-58.6 0-107.629 41.885-118.724 97.271-2.469 12.326 7.069 23.804 19.64 23.804h198.16c12.58 0 22.114-11.493 19.636-23.826-8.362-41.62-38.202-75.949-78.014-90.202z" fill="#a3defe"/></g></g><g><path d="m227.164 383.425h57.672v121.075h-57.672z" fill="#fff"/></g><g><path d="m280.993 386.03c-8.065-1.705-16.426-2.605-24.993-2.605-58.6 0-107.629 41.885-118.724 97.271-2.469 12.326 7.069 23.804 19.64 23.804h28.008c.001-58.166 41.276-106.909 96.069-118.47z" fill="#7acefa"/></g><g><path d="m256 436.827c22.477 0 40.698-18.221 40.698-40.698 0-1.969-.148-3.903-.418-5.798-2.403-.851-4.835-1.628-7.302-2.325-10.485-2.978-21.547-4.581-32.978-4.581-14.115 0-27.672 2.438-40.28 6.902-.271 1.896-.419 3.831-.419 5.801.001 22.477 18.222 40.699 40.699 40.699z" fill="#ffe4c2"/></g><g><path d="m437.597 293.42c0-21.049-17.063-38.112-38.112-38.112v-20.678l-1.373-19.941c-9.706-69.807-69.633-123.545-142.112-123.545s-132.406 53.738-142.112 123.545l-1.373 19.941v20.678c-21.049 0-38.112 17.063-38.112 38.112 0 16.718 10.769 30.911 25.744 36.048-3.831 5.944-6.063 13.016-6.063 20.613 0 20.602 16.35 37.375 36.78 38.078-.95 3.329-1.469 6.84-1.469 10.474 0 21.049 17.063 38.112 38.112 38.112 2.591 0 5.121-.261 7.568-.754 6.501 11.72 18.994 19.656 33.345 19.656 6.816 0 13.208-1.798 18.744-4.932 6.989 8.085 17.311 13.208 28.836 13.208s21.848-5.123 28.836-13.208c5.536 3.134 11.928 4.932 18.744 4.932 14.352 0 26.845-7.936 33.345-19.656 2.446.493 4.976.754 7.568.754 21.049 0 38.112-17.063 38.112-38.112 0-3.634-.519-7.145-1.469-10.474 20.431-.703 36.78-17.476 36.78-38.078 0-7.597-2.232-14.669-6.063-20.613 14.976-5.137 25.744-19.33 25.744-36.048z" fill="#d2996f"/></g><g><path d="m227.175 450.727c-4.843-7.124-7.676-15.724-7.676-24.988 0-7.339 1.788-14.257 4.935-20.36-24.098-.551-43.467-20.244-43.467-44.474 0-24.577 19.923-44.5 44.5-44.5v-221.998c-58.221 12.619-103.275 60.568-111.577 120.282l-1.373 19.941v20.678c-21.049 0-38.112 17.063-38.112 38.112 0 16.718 10.769 30.911 25.744 36.048-3.831 5.944-6.063 13.016-6.063 20.613 0 20.602 16.35 37.375 36.78 38.078-.95 3.329-1.469 6.84-1.469 10.474 0 21.049 17.063 38.112 38.112 38.112 2.591 0 5.121-.261 7.568-.754 6.501 11.72 18.994 19.656 33.345 19.656 6.816 0 13.208-1.798 18.744-4.932.002.004.005.008.009.012z" fill="#c18053"/></g><g><path d="m147.726 265.619c0 31.969 25.916 57.884 57.884 57.884h100.78c31.968 0 57.884-25.916 57.884-57.884 0-31.968-25.916-57.884-57.884-57.884h-100.78c-31.968 0-57.884 25.915-57.884 57.884z" fill="#ffd4be"/></g><g><path d="m222.73 265.619c0-31.969 25.916-57.884 57.884-57.884h-75.004c-31.968 0-57.884 25.916-57.884 57.884 0 31.969 25.916 57.884 57.884 57.884h75.004c-31.968 0-57.884-25.916-57.884-57.884z" fill="#ffbf9e"/></g><g><g><path d="m193.552 283.119c-4.142 0-7.5-3.358-7.5-7.5v-12c0-4.142 3.358-7.5 7.5-7.5s7.5 3.358 7.5 7.5v12c0 4.142-3.358 7.5-7.5 7.5z"/></g><g><path d="m318.448 283.119c-4.143 0-7.5-3.358-7.5-7.5v-12c0-4.142 3.357-7.5 7.5-7.5s7.5 3.358 7.5 7.5v12c0 4.142-3.357 7.5-7.5 7.5z"/></g></g><g><g><path d="m198.482 358.5c-13.719 0-23.419-13.517-18.929-26.481 10.967-31.664 41.052-54.401 76.447-54.401s65.48 22.736 76.447 54.401c4.49 12.964-5.21 26.481-18.929 26.481z" fill="#e1b89a"/></g></g><g><path d="m256 7.5c-29.787 0-144.185 81.179-158.713 190.352-1.603 12.046 7.658 22.784 19.81 22.784h138.903 138.903c12.152 0 21.413-10.738 19.81-22.784-14.528-109.173-128.926-190.352-158.713-190.352z" fill="#e8899e"/></g><g><path d="m215.288 25.325c-45.161 29.682-107.528 93.828-118.001 172.527-1.603 12.046 7.658 22.784 19.81 22.784h127.091c-91.095-40.315-56.196-174.621-28.9-195.311z" fill="#e26e7e"/></g><g><path d="m107.852 160.636h296.297c5.72 0 9.558-5.814 7.378-11.102-6.081-14.749-13.736-28.699-22.365-41.676-2.986-4.49-7.989-7.222-13.381-7.222h-239.561c-5.392 0-10.395 2.732-13.381 7.222-8.629 12.976-16.284 26.927-22.365 41.676-2.18 5.288 1.658 11.102 7.378 11.102z" fill="#4e5660"/></g><g><path d="m285.996 180.636h-60c-11.046 0-20-8.954-20-20v-60c0-11.046 8.954-20 20-20h60c11.046 0 20 8.954 20 20v60c0 11.046-8.954 20-20 20z" fill="#f7ef87"/></g><g><path d="m235.996 160.636v-60c0-11.046 8.954-20 20-20h-30c-11.046 0-20 8.954-20 20v60c0 11.046 8.954 20 20 20h30c-11.046 0-20-8.954-20-20z" fill="#efd176"/></g><g><path d="m235.996 110.636h40v40h-40z" fill="#4e5660"/></g><g><path d="m445.097 293.42c0-7.87-2.009-15.279-5.533-21.748 3.372-6.295 5.144-13.319 5.144-20.542 0-16.927-9.965-32.143-24.737-39.282 2.076-4.645 2.864-9.826 2.178-14.986-1.454-10.927-3.943-21.979-7.399-32.93.842-.792 1.606-1.68 2.264-2.664 2.892-4.321 3.433-9.777 1.446-14.594-5.979-14.499-13.735-28.956-23.054-42.97-3.966-5.962-10.317-9.749-17.303-10.443-18.276-24.963-41.785-48.574-66.495-66.708-22.654-16.627-43.442-26.553-55.608-26.553-12.156 0-32.926 9.914-55.562 26.519-24.724 18.138-48.254 41.765-66.54 66.743-6.987.694-13.338 4.481-17.304 10.444-9.318 14.013-17.075 28.469-23.054 42.969-1.986 4.817-1.445 10.273 1.447 14.595.658.982 1.42 1.869 2.261 2.661-3.456 10.952-5.942 22.006-7.396 32.932-.686 5.159.101 10.339 2.175 14.982-14.781 7.132-24.739 22.33-24.739 39.286 0 7.232 1.771 14.251 5.144 20.546-3.523 6.468-5.53 13.874-5.53 21.743 0 16.577 8.963 31.6 22.988 39.607-2.177 5.39-3.306 11.167-3.306 17.054 0 21.777 15.024 39.913 35.493 44.488-.121 1.351-.182 2.707-.182 4.064 0 17.224 9.599 32.245 23.726 40.005-7.538 12.566-12.814 26.185-15.698 40.584-1.612 8.047.457 16.314 5.676 22.682 5.258 6.416 13.028 10.096 21.318 10.096h198.16c8.292 0 16.063-3.681 21.319-10.1 5.222-6.375 7.288-14.65 5.67-22.704-2.891-14.392-8.168-27.997-15.696-40.553 14.132-7.758 23.735-22.783 23.735-40.011 0-1.364-.062-2.726-.184-4.083 5.214-1.183 10.198-3.279 14.712-6.211 3.474-2.257 4.46-6.902 2.203-10.375-2.256-3.473-6.902-4.459-10.375-2.204-4.644 3.017-10.032 4.712-15.583 4.903-2.307.079-4.448 1.216-5.806 3.082s-1.782 4.253-1.148 6.472c.783 2.745 1.181 5.576 1.181 8.416 0 16.879-13.732 30.612-30.611 30.612-2.041 0-4.089-.204-6.087-.606-3.204-.644-6.454.857-8.039 3.714-5.404 9.742-15.668 15.794-26.787 15.794-5.271 0-10.475-1.369-15.049-3.958-3.112-1.764-7.033-1.082-9.369 1.622-5.83 6.744-14.272 10.612-23.162 10.612s-17.333-3.868-23.163-10.613c-2.337-2.704-6.259-3.382-9.369-1.622-4.574 2.59-9.777 3.958-15.048 3.958-11.119 0-21.383-6.052-26.787-15.794-1.585-2.857-4.839-4.358-8.04-3.714-1.997.402-4.045.606-6.086.606-16.879 0-30.612-13.732-30.612-30.612 0-2.837.397-5.668 1.182-8.417.633-2.219.209-4.606-1.149-6.472s-3.5-3.002-5.806-3.082c-16.563-.57-29.538-14.003-29.538-30.583 0-5.887 1.683-11.61 4.867-16.55 1.249-1.938 1.537-4.343.782-6.521-.756-2.178-2.471-3.888-4.652-4.636-12.368-4.243-20.678-15.878-20.678-28.954 0-16.879 13.732-30.612 30.612-30.612 4.142 0 7.5-3.358 7.5-7.5v-20.421l.465-6.751h31.58c-7.622 10.885-11.834 23.926-11.834 37.482 0 24.376 13.434 46.44 34.667 57.726-.88 2.031-1.694 4.104-2.427 6.22-2.937 8.479-1.63 17.541 3.583 24.864 5.158 7.245 13.544 11.571 22.432 11.571h115.036c8.889 0 17.274-4.326 22.433-11.571 5.214-7.323 6.521-16.386 3.584-24.864-.732-2.115-1.545-4.185-2.425-6.215 21.258-11.274 34.665-33.256 34.665-57.731 0-13.557-4.212-26.598-11.834-37.482h31.58l.465 6.751v20.42c0 4.142 3.357 7.5 7.5 7.5 16.879 0 30.611 13.732 30.611 30.612 0 13.076-8.31 24.711-20.678 28.954-2.181.748-3.896 2.458-4.652 4.636s-.467 4.583.782 6.521c3.184 4.94 4.867 10.664 4.867 16.55 0 2.149-.223 4.292-.662 6.368-.858 4.052 1.731 8.033 5.783 8.891.524.111 1.046.164 1.562.164 3.468 0 6.582-2.419 7.329-5.948.656-3.096.988-6.284.988-9.475 0-5.887-1.13-11.664-3.307-17.054 14.025-8.002 22.988-23.025 22.988-39.602zm-104.431 150.665c1.273.106 2.551.16 3.827.16 2.498 0 4.947-.21 7.336-.598 7.545 11.829 12.769 24.762 15.53 38.504.729 3.628-.207 7.362-2.568 10.245-2.396 2.926-5.938 4.604-9.715 4.604h-62.74v-35.271c3.663.932 7.441 1.417 11.244 1.417 14.798.001 28.577-7.188 37.086-19.061zm-63.33 22.022v30.893h-42.672v-30.893c6.503 3.447 13.809 5.316 21.336 5.316 7.528 0 14.834-1.869 21.336-5.316zm-106.001-22.022c8.508 11.873 22.288 19.062 37.085 19.062 3.803 0 7.581-.485 11.244-1.417v35.27h-62.747c-3.777 0-7.319-1.678-9.716-4.603-2.359-2.878-3.295-6.606-2.57-10.228 2.753-13.745 7.974-26.688 15.527-38.524 2.394.39 4.847.6 7.35.6 1.275 0 2.553-.054 3.827-.16zm-54.238-230.949c-3.638 0-6.961-1.506-9.357-4.242-2.403-2.744-3.503-6.409-3.019-10.053 1.353-10.171 3.679-20.479 6.925-30.706h87.897c3.274 11.529 13.888 20 26.452 20h60c12.563 0 23.178-8.472 26.452-20h87.902c3.246 10.226 5.575 20.533 6.929 30.705.485 3.645-.615 7.309-3.02 10.053-2.396 2.736-5.719 4.242-9.356 4.242h-277.805zm265.819-101.125c8.776 13.199 16.07 26.786 21.677 40.382.035.086.119.288-.045.532-.141.21-.297.21-.399.21h-90.652v-45h62.284c2.853.001 5.521 1.45 7.135 3.876zm-173.605-73.398c22.236-16.312 39.471-23.613 46.689-23.613 7.225 0 24.478 7.312 46.733 23.646 20.521 15.06 40.17 34.096 56.403 54.49h-46.689c-3.274-11.528-13.889-20-26.452-20h-14.995c-4.143 0-7.5 3.358-7.5 7.5s3.357 7.5 7.5 7.5h14.996c6.893 0 12.5 5.607 12.5 12.5v60c0 6.893-5.607 12.5-12.5 12.5h-60c-6.893 0-12.5-5.607-12.5-12.5v-60c0-6.893 5.607-12.5 12.5-12.5h15.004c4.142 0 7.5-3.358 7.5-7.5s-3.358-7.5-7.5-7.5h-15.004c-12.563 0-23.178 8.471-26.452 20h-46.681c16.246-20.409 35.913-39.459 56.448-54.523zm-101.904 113.78c5.606-13.596 12.899-27.182 21.677-40.381 1.614-2.427 4.282-3.876 7.136-3.876h62.276v45h-90.645c-.103 0-.258 0-.398-.21-.164-.245-.081-.447-.046-.533zm-2.392 82.237v13.794c-8.193 1.361-15.652 4.918-21.758 10.037-.628-2.373-.968-4.83-.968-7.331 0-12.544 8.303-23.622 20.082-27.291 1.043.664 2.127 1.26 3.247 1.776l-.585 8.499c-.012.172-.018.344-.018.516zm218.716 111.099c-2.385 3.35-6.106 5.271-10.213 5.271h-115.036c-4.106 0-7.828-1.921-10.213-5.271-2.363-3.319-2.957-7.421-1.629-11.255 10.225-29.521 38.098-49.355 69.36-49.355s59.136 19.834 69.36 49.355c1.328 3.834.734 7.936-1.629 11.255zm33.044-80.11c0 18.888-10.361 35.849-26.783 44.527-16.065-24.558-43.703-40.027-73.991-40.027-30.287 0-57.923 15.468-73.989 40.024-16.403-8.686-26.785-25.712-26.785-44.524 0-14.332 6.096-27.921 16.741-37.482h168.065c10.645 9.562 16.742 23.15 16.742 37.482zm50.211-17.195v-13.794c0-.172-.006-.344-.018-.516l-.585-8.498c1.122-.517 2.207-1.113 3.251-1.778 11.77 3.672 20.075 14.771 20.075 27.293 0 2.499-.34 4.955-.967 7.329-6.107-5.119-13.565-8.674-21.756-10.036z"/><path d="m228.496 110.636v40c0 4.142 3.358 7.5 7.5 7.5h40c4.143 0 7.5-3.358 7.5-7.5v-40c0-4.142-3.357-7.5-7.5-7.5h-40c-4.142 0-7.5 3.358-7.5 7.5zm15 7.5h25v25h-25z"/></g></g></svg>