<svg id="Capa_1" enable-background="new 0 0 511.974 511.974" height="512" viewBox="0 0 511.974 511.974" width="512" xmlns="http://www.w3.org/2000/svg"><g><g><path d="m369.901 245.329c-7.626 18.41 1.117 39.516 19.527 47.142s39.516-1.117 47.142-19.527 13.862-33.466 25.881-62.483c12.02-29.017-74.322-9.137-92.55 34.868z" fill="#5ec783"/></g><g><path d="m142.073 245.329c7.626 18.41-1.117 39.516-19.527 47.142s-39.516-1.117-47.142-19.527-13.862-33.466-25.881-62.483 74.323-9.137 92.55 34.868z" fill="#49b76b"/></g><g><circle cx="114.829" cy="306.974" fill="#f7ef87" r="30"/></g><g><circle cx="397.145" cy="306.974" fill="#f7ef87" r="30"/></g><g><path d="m156.892 504.474c-12.566 0-22.098-11.469-19.643-23.793 11.054-55.475 60.014-97.282 118.738-97.282s107.684 41.808 118.738 97.282c2.456 12.324-7.076 23.793-19.643 23.793z" fill="#5ec783"/></g><g><path d="m280.98 386.004c-8.065-1.705-16.426-2.605-24.993-2.605-58.6 0-107.629 41.885-118.724 97.271-2.469 12.326 7.069 23.804 19.64 23.804h28.008c.001-58.166 41.276-106.909 96.069-118.47z" fill="#49b76b"/></g><g><path d="m130.987 464.527h75c11.046 0 20-8.954 20-20v-70h-45c-38.66 0-70 31.34-70 70 0 11.046 8.955 20 20 20z" fill="#c6c6c6"/></g><g><path d="m380.987 464.527h-75c-11.046 0-20-8.954-20-20v-70h45c38.66 0 70 31.34 70 70 0 11.046-8.954 20-20 20z" fill="#c6c6c6"/></g><g><g><circle cx="255.987" cy="251.103" fill="#89d47f" r="145"/></g></g><g><g><path d="m160.987 251.103c0-71.555 51.833-130.998 120-142.846-8.122-1.412-16.474-2.154-25-2.154-80.081 0-145 64.919-145 145s64.919 145 145 145c8.526 0 16.878-.743 25-2.154-68.166-11.848-120-71.291-120-142.846z" fill="#5ec783"/></g></g><g><g><path d="m202.009 115.432c0 40.695 17.002 77.522 44.468 104.142 5.25 5.088 13.772 5.088 19.022 0 27.466-26.619 44.468-63.447 44.468-104.142s-17.003-77.522-44.469-104.142c-5.25-5.088-13.772-5.088-19.022 0-27.465 26.62-44.467 63.447-44.467 104.142z" fill="#e8899e"/></g></g><g><path d="m255.987 115.432c0-31.167 9.981-60.059 26.989-83.84-5.2-7.27-11.048-14.069-17.478-20.301-5.25-5.088-13.772-5.088-19.022 0-27.466 26.619-44.468 63.447-44.468 104.142s17.002 77.522 44.468 104.142c5.25 5.088 13.772 5.088 19.022 0 6.431-6.232 12.279-13.031 17.478-20.301-17.007-23.783-26.989-52.675-26.989-83.842z" fill="#e26e7e"/></g><g><g><g><ellipse cx="176.431" cy="300.096" fill="#fff" rx="29.355" ry="23.377"/></g><g><ellipse cx="335.544" cy="300.096" fill="#fff" rx="29.355" ry="23.377"/></g></g><g><path d="m277.378 271.582c-3.123-2.721-7.86-2.396-10.581.727-2.729 3.132-6.669 4.928-10.81 4.928s-8.081-1.796-10.81-4.928c-2.721-3.123-7.459-3.448-10.581-.727-3.123 2.721-3.449 7.458-.728 10.582 5.578 6.402 13.64 10.073 22.118 10.073 8.479 0 16.54-3.671 22.118-10.073 2.723-3.124 2.397-7.861-.726-10.582z"/><path d="m207.303 254.086-24.065-6.448c-4.003-1.069-8.114 1.302-9.186 5.304-1.072 4.001 1.302 8.113 5.303 9.186l7.079 1.897c-.252.75-.394 1.551-.394 2.386v10.366c0 4.142 3.357 7.5 7.5 7.5s7.5-3.358 7.5-7.5v-8.839l2.381.638c.65.174 1.304.257 1.946.257 3.312 0 6.342-2.21 7.239-5.561 1.072-4.002-1.302-8.114-5.303-9.186z"/><path d="m337.923 252.941c-1.072-4.001-5.185-6.373-9.186-5.304l-24.065 6.448c-4.001 1.072-6.375 5.185-5.303 9.186.897 3.351 3.928 5.561 7.239 5.561.643 0 1.296-.083 1.946-.257l2.381-.638v8.839c0 4.142 3.357 7.5 7.5 7.5s7.5-3.358 7.5-7.5v-10.366c0-.835-.142-1.636-.394-2.386l7.079-1.897c4.001-1.073 6.375-5.185 5.303-9.186z"/></g></g><path d="m465.757 194.086c-12.014-9.864-41.713-3.076-64.775 9.699-4.432-13.594-10.769-26.566-18.956-38.56-16.189-23.715-38.479-42.214-64.61-53.719-1.015-39.94-17.507-77.309-46.698-105.601-8.122-7.874-21.339-7.873-29.461 0-29.19 28.291-45.681 65.658-46.697 105.597-26.039 11.462-48.262 29.872-64.445 53.483-8.268 12.062-14.661 25.116-19.122 38.8-23.055-12.766-52.781-19.554-64.782-9.692-2.599 2.136-8.153 8.286-3.615 19.24l25.881 62.483c2.652 6.403 6.726 11.979 11.91 16.41-1.962 4.545-3.056 9.534-3.056 14.75 0 20.678 16.822 37.5 37.5 37.5 6.099 0 12.094-1.507 17.442-4.313 8.005 11.089 17.462 21.061 28.09 29.64-13.184 3.62-25.23 10.701-34.981 20.744-14.117 14.54-21.893 33.711-21.893 53.982 0 15.164 12.337 27.5 27.5 27.5h.571c-.62 2.385-1.186 4.783-1.665 7.189-1.604 8.047.471 16.312 5.691 22.675 5.257 6.408 13.022 10.083 21.307 10.083h198.191c8.284 0 16.05-3.675 21.307-10.083 5.221-6.364 7.295-14.628 5.691-22.675-.479-2.405-1.04-4.805-1.66-7.189h.566c15.163 0 27.5-12.336 27.5-27.5 0-20.397-7.858-39.654-22.128-54.224-9.72-9.924-21.674-16.915-34.745-20.503 10.628-8.579 20.085-18.551 28.09-29.64 5.351 2.805 11.354 4.315 17.441 4.315 20.678 0 37.5-16.822 37.5-37.5 0-5.223-1.091-10.213-3.048-14.756 5.18-4.431 9.251-10.005 11.902-16.404l25.881-62.483c4.539-10.962-1.023-17.113-3.624-19.248zm-409.305 13.505c-.421-1.016-.546-1.695-.568-2.034 1.461-1.036 7.689-2.25 18.979.187 10.63 2.295 22.102 6.968 32.084 13.008-2.276 10.545-3.459 21.373-3.459 32.35 0 6.692.437 13.284 1.277 19.751-5.986 1.675-11.357 4.807-15.73 8.972-2.868-2.728-5.156-6.021-6.701-9.751zm58.377 121.883c-12.406 0-22.5-10.093-22.5-22.5 0-9.736 6.308-18.16 15.127-21.239 3.467 14.874 9.12 28.916 16.595 41.775-2.864 1.292-5.979 1.964-9.222 1.964zm3.658 115.053c0-33.64 26.072-60.861 59.529-62.414 12.458 7.442 26.057 13.161 40.471 16.819v45.595c0 6.893-5.607 12.5-12.5 12.5h-75c-6.892 0-12.5-5.607-12.5-12.5zm275 0c0 6.893-5.607 12.5-12.5 12.5h-75c-6.893 0-12.5-5.607-12.5-12.5 0-4.142-3.357-7.5-7.5-7.5s-7.5 3.358-7.5 7.5c0 15.164 12.337 27.5 27.5 27.5h58.87c.991 3.333 1.835 6.722 2.513 10.121.723 3.624-.217 7.353-2.577 10.229-2.396 2.922-5.936 4.597-9.71 4.597h-198.191c-3.774 0-7.313-1.675-9.71-4.597-2.36-2.876-3.3-6.605-2.577-10.23.677-3.4 1.529-6.786 2.52-10.12h58.863c15.163 0 27.5-12.336 27.5-27.5v-42.587c7.345 1.091 14.856 1.663 22.5 1.663s15.155-.572 22.5-1.663v12.587c0 4.142 3.357 7.5 7.5 7.5s7.5-3.358 7.5-7.5v-15.595c14.412-3.658 28.009-9.375 40.465-16.816 32.966 1.559 59.534 29.223 59.534 62.411zm-137.5-55.924c-75.817 0-137.5-61.682-137.5-137.5 0-52.839 29.726-100.191 76.532-123.284 1.246 15.355 4.807 30.326 10.652 44.65 1.565 3.835 5.946 5.677 9.777 4.111 3.836-1.565 5.676-5.942 4.111-9.778-6.669-16.344-10.051-33.628-10.051-51.371 0-37.317 14.982-72.389 42.188-98.756 2.325-2.253 6.255-2.255 8.582 0 27.205 26.367 42.188 61.439 42.188 98.756s-14.982 72.389-42.188 98.756c-2.325 2.253-6.255 2.255-8.582 0-6.996-6.78-13.29-14.28-18.707-22.292-2.319-3.432-6.98-4.332-10.414-2.013-3.431 2.32-4.332 6.983-2.012 10.414 5.994 8.867 12.957 17.164 20.693 24.662 4.062 3.937 9.396 5.905 14.73 5.905s10.67-1.968 14.73-5.904c27.116-26.281 43.267-60.397 46.24-97.129 46.787 23.099 76.529 70.493 76.529 123.272.002 75.819-61.68 137.501-137.498 137.501zm141.158-59.129c-3.237 0-6.354-.673-9.222-1.966 7.476-12.859 13.129-26.902 16.595-41.777 8.825 3.073 15.126 11.485 15.126 21.244.001 12.406-10.092 22.499-22.499 22.499zm58.377-121.883-25.881 62.483c-1.543 3.725-3.827 7.014-6.689 9.74-4.374-4.163-9.75-7.288-15.742-8.961.84-6.467 1.277-13.058 1.277-19.75 0-10.977-1.182-21.805-3.459-32.351 9.967-6.031 21.419-10.699 32.04-12.998 11.315-2.449 17.56-1.235 19.022-.196-.022.338-.147 1.017-.568 2.033z"/></g></svg>