<?xml version="1.0" encoding="iso-8859-1"?>
<!-- Generator: Adobe Illustrator 19.0.0, SVG Export Plug-In . SVG Version: 6.00 Build 0)  -->
<svg version="1.1" id="Capa_1" xmlns="http://www.w3.org/2000/svg" xmlns:xlink="http://www.w3.org/1999/xlink" x="0px" y="0px"
	 viewBox="0 0 512 512" style="enable-background:new 0 0 512 512;" xml:space="preserve">
<polyline style="fill:#898890;" points="42.689,230.11 42.689,10 469.311,10 469.311,230.11 "/>
<path style="fill:#C6C5CA;" d="M439.629,502H72.371c-16.393,0-29.681-13.289-29.681-29.681V230.11h426.621v242.208
	C469.311,488.711,456.022,502,439.629,502z"/>
<polyline style="fill:#F6DAB9;" points="429.094,198.804 429.094,50.206 82.905,50.206 82.905,198.804 "/>
<path style="fill:#FF9929;" d="M436.496,230.11c3.648-23.154-9.276-43.594-44.568-53.115c-5.127-1.205-9.35-6.433-10.556-11.558
	c-9.047-32.869-25.134-52.471-70.981-40.408c-5.428,1.508-10.857,0-14.477-3.92c-13.574-13.57-26.243-22.012-40.418-22.012
	c-12.066,0-25.035,6.633-40.418,22.012c-3.618,3.92-9.35,5.428-14.477,3.92c-32.875-8.744-57.608-5.729-69.976,40.408
	c-1.205,5.125-5.429,10.353-10.556,11.558c-35.29,9.521-48.214,29.961-44.566,53.115H436.496z"/>
<path style="fill:#A84926;" d="M429.094,421.587V310.523c-22.211,0-40.216-18.001-40.216-40.206H123.121
	c0,22.205-18.005,40.206-40.216,40.206v111.065c22.211,0,40.216,18.001,40.216,40.206h265.757
	C388.878,439.588,406.884,421.587,429.094,421.587z"/>
<path style="fill:#C6C5CA;" d="M285.24,331.534c0-16.145-13.091-29.233-29.241-29.233s-29.241,13.088-29.241,29.233
	c0,11.716,6.893,21.821,14.835,26.485v25.511h28.811v-25.511C278.347,353.355,285.24,343.249,285.24,331.534z"/>
<path d="M270.405,393.529h-28.811c-5.523,0-10-4.478-10-10v-20.353c-9.158-7.586-14.835-19.434-14.835-31.643
	c0-21.634,17.604-39.233,39.241-39.233s39.24,17.6,39.24,39.233c0,12.209-5.678,24.057-14.835,31.643v20.353
	C280.405,389.052,275.928,393.529,270.405,393.529z M251.595,373.529h8.811v-15.511c0-3.547,1.878-6.827,4.937-8.623
	c4.768-2.8,9.898-9.583,9.898-17.861c0-10.605-8.631-19.233-19.24-19.233s-19.241,8.628-19.241,19.233
	c0,8.278,5.131,15.062,9.899,17.861c3.058,1.795,4.937,5.076,4.937,8.623v15.511H251.595z"/>
<path d="M310.631,212.473c-2.559,0-5.118-0.976-7.07-2.928c-6.446-6.445-9.997-15.016-9.997-24.131
	c0-9.114,3.551-17.685,9.997-24.13c13.307-13.303,34.959-13.303,48.266,0c3.905,3.904,3.906,10.236,0.002,14.143
	c-3.905,3.905-10.235,3.907-14.143,0.002c-5.51-5.508-14.475-5.508-19.984,0c-2.668,2.667-4.138,6.214-4.138,9.985
	c0,3.772,1.47,7.319,4.138,9.986c3.905,3.905,3.906,10.237,0.002,14.143C315.75,211.496,313.19,212.473,310.631,212.473z"/>
<path d="M242.272,191.882c-5.523,0-10-4.478-10-10c0-7.788-6.339-14.124-14.13-14.124s-14.129,6.336-14.129,14.124
	c0,5.522-4.477,10-10,10s-10-4.478-10-10c0-18.816,15.311-34.124,34.129-34.124c18.819,0,34.13,15.308,34.13,34.124
	C252.272,187.404,247.795,191.882,242.272,191.882z"/>
<path d="M362.439,431.109c-0.649,0-1.31-0.069-1.949-0.199c-0.641-0.12-1.271-0.32-1.87-0.57c-0.601-0.25-1.181-0.55-1.73-0.92
	c-0.54-0.36-1.06-0.78-1.52-1.24s-0.88-0.97-1.24-1.52c-0.36-0.54-0.67-1.12-0.92-1.73c-0.25-0.6-0.44-1.229-0.57-1.87
	c-0.13-0.64-0.2-1.3-0.2-1.95c0-0.649,0.07-1.31,0.2-1.949c0.13-0.641,0.32-1.271,0.57-1.881c0.25-0.6,0.56-1.18,0.92-1.72
	c0.36-0.55,0.78-1.06,1.24-1.52s0.979-0.88,1.52-1.25c0.55-0.351,1.13-0.66,1.73-0.91s1.229-0.45,1.87-0.57
	c1.29-0.27,2.619-0.27,3.909,0c0.641,0.12,1.271,0.32,1.87,0.57c0.601,0.25,1.181,0.56,1.721,0.91c0.55,0.37,1.06,0.79,1.529,1.25
	c0.46,0.46,0.88,0.97,1.24,1.52c0.36,0.54,0.67,1.12,0.92,1.72c0.25,0.61,0.44,1.24,0.57,1.881c0.13,0.64,0.189,1.3,0.189,1.949
	c0,0.65-0.06,1.311-0.189,1.95c-0.13,0.641-0.32,1.271-0.57,1.87c-0.25,0.61-0.56,1.19-0.92,1.73c-0.37,0.55-0.78,1.06-1.24,1.52
	c-0.47,0.46-0.979,0.88-1.529,1.24c-0.54,0.37-1.12,0.67-1.721,0.92c-0.6,0.25-1.229,0.45-1.87,0.57
	C363.75,431.04,363.1,431.109,362.439,431.109z"/>
<path d="M469.311,0H42.689c-5.523,0-10,4.478-10,10v462.318C32.689,494.199,50.49,512,72.371,512h367.258
	c21.881,0,39.682-17.801,39.682-39.682V10C479.311,4.478,474.833,0,469.311,0z M459.311,20v200.11h-12.33
	c-0.381-7.346-2.334-16.105-7.887-24.601V50.206c0-5.522-4.478-10-10-10H82.905c-5.523,0-10,4.478-10,10V195.51
	c-5.552,8.496-7.505,17.255-7.886,24.601h-12.33V20H459.311z M419.094,177.208c-6.591-3.823-14.673-7.199-24.562-9.867
	c-0.105-0.028-0.21-0.055-0.316-0.079c-0.797-0.188-2.614-2.01-3.109-4.113c-0.028-0.122-0.06-0.244-0.093-0.365
	c-8.283-30.088-25.223-62.667-83.167-47.425c-0.045,0.012-0.089,0.023-0.133,0.036c-1.778,0.492-3.36,0.113-4.452-1.068
	c-0.091-0.099-0.184-0.194-0.278-0.289c-11.615-11.611-27.51-24.939-47.487-24.939c-15.379,0-30.469,7.925-47.488,24.939
	c-0.094,0.095-0.187,0.191-0.278,0.29c-1.016,1.101-2.79,1.556-4.307,1.108c-0.083-0.024-0.167-0.048-0.251-0.07
	c-14.433-3.839-33.095-7.286-49.417,0.197c-15.431,7.075-26.156,22.542-32.789,47.286c-0.026,0.1-0.052,0.199-0.075,0.299
	c-0.495,2.104-2.313,3.927-3.109,4.114c-0.106,0.024-0.212,0.051-0.317,0.079c-9.888,2.668-17.969,6.044-24.56,9.867V60.206h326.188
	L419.094,177.208L419.094,177.208z M122.551,186.685c8.301-2.043,15.568-9.724,17.768-18.785
	c10.291-38.258,27.483-41.23,57.604-33.234c8.696,2.498,18.208-0.084,24.344-6.603c12.792-12.761,23.664-18.965,33.229-18.965
	c9.83,0,20.082,5.85,33.228,18.963c6.138,6.523,15.408,9.059,24.271,6.624c38.771-10.184,50.563,3.824,58.692,33.25
	c2.21,9.047,9.47,16.711,17.762,18.75c16.89,4.578,35.936,14.03,37.53,33.426H85.021
	C86.614,200.715,105.661,191.263,122.551,186.685z M459.311,472.318c0,10.853-8.829,19.682-19.682,19.682H72.371
	c-10.852,0-19.681-8.829-19.681-19.682V240.11h406.621V472.318z"/>
<path d="M429.094,300.522c-16.661,0-30.216-13.551-30.216-30.206c0-5.522-4.478-10-10-10H123.122c-5.523,0-10,4.478-10,10
	c0,16.655-13.555,30.206-30.216,30.206c-5.523,0-10,4.478-10,10v111.064c0,5.522,4.477,10,10,10
	c16.661,0,30.216,13.551,30.216,30.207c0,5.522,4.477,10,10,10h265.756c5.522,0,10-4.478,10-10
	c0-16.656,13.555-30.207,30.216-30.207c5.522,0,10-4.478,10-10V310.522C439.094,305,434.616,300.522,429.094,300.522z
	 M419.094,412.587c-19.681,3.993-35.222,19.53-39.216,39.207H132.121c-1.557-7.67-4.868-14.711-9.495-20.685h199.603
	c5.522,0,10-4.478,10-10s-4.478-10-10-10H92.906v-91.587c19.68-3.992,35.222-19.529,39.215-39.206h247.758
	c3.993,19.677,19.534,35.214,39.215,39.206V412.587z"/>
<g>
</g>
<g>
</g>
<g>
</g>
<g>
</g>
<g>
</g>
<g>
</g>
<g>
</g>
<g>
</g>
<g>
</g>
<g>
</g>
<g>
</g>
<g>
</g>
<g>
</g>
<g>
</g>
<g>
</g>
</svg>
