<?xml version="1.0" encoding="iso-8859-1"?>
<!-- Generator: Adobe Illustrator 19.0.0, SVG Export Plug-In . SVG Version: 6.00 Build 0)  -->
<svg version="1.1" id="Capa_1" xmlns="http://www.w3.org/2000/svg" xmlns:xlink="http://www.w3.org/1999/xlink" x="0px" y="0px"
	 viewBox="0 0 512.002 512.002" style="enable-background:new 0 0 512.002 512.002;" xml:space="preserve">
<path style="fill:#898890;" d="M374.237,331.557v-60.447c0-2.668-85.092-2.869-84.856,0l-2.54,105.956
	c0.101,1.23-0.268,2.453-1.033,3.422l-25.978,45.234c-1.953,2.476-5.706,2.476-7.659,0l-25.978-45.234
	c-0.765-0.969-1.133-2.192-1.032-3.422l-2.54-105.956c0.236-2.87-84.856-2.668-84.856,0v57.623c0,1.747,0.935,3.361,2.449,4.23
	c0,0,36.466,18.646,36.647,20.181v118.733H335.14V353.143C335.322,351.609,374.237,331.557,374.237,331.557z"/>
<path style="fill:#C6C5CA;" d="M222.47,95.794C145.31,107.673,86.225,174.358,86.225,254.844l3.957,87.72l83.844,159.181
	c1.849,0.326,2.875,0.356,2.837,0.025V353.143c-0.181-1.534-36.647-20.181-36.647-20.181c-1.515-0.869-2.449-2.483-2.449-4.23
	V271.11c0-2.668,85.092-2.87,84.856,0l2.54,105.956c-0.101,1.23,0.267,2.453,1.032,3.422l25.978,45.234
	c1.953,2.476,5.706,2.476,7.659,0l25.978-45.234c0.765-0.969,1.134-2.192,1.033-3.422l2.54-105.956
	c-0.236-2.869,84.856-2.668,84.856,0v60.447c0,0-38.915,20.052-39.096,21.586v148.626c-0.039,0.332,0.988,0.302,2.838-0.025
	l83.843-159.181l3.957-87.72c-0.001-80.182-58.641-146.668-135.373-158.914"/>
<g>
	<path style="fill:#B0DBD0;" d="M95.942,470.254c0,8.576,63.752,28.96,78.084,31.491L90.182,342.564L95.942,470.254z"/>
	<path style="fill:#B0DBD0;" d="M337.979,501.745c14.334-2.532,78.084-22.916,78.084-31.491l5.76-127.689L337.979,501.745z"/>
</g>
<path style="fill:#F24141;" d="M275.365,133.912H236.64l-19.675-69.797C208.11,37.483,227.937,10,256.002,10l0,0
	c28.065,0,47.891,27.483,39.038,54.116L275.365,133.912z"/>
<path d="M394.446,143.388c-24.831-28.848-58.549-48.585-95.553-56.081l5.713-20.267c5.144-15.712,2.551-32.398-7.129-45.818
	C287.747,7.734,272.631,0,256.002,0s-31.745,7.734-41.474,21.221c-9.681,13.42-12.273,30.106-7.129,45.818l5.713,20.267
	c-36.858,7.466-70.445,27.061-95.261,55.742c-26.842,31.021-41.625,70.725-41.625,111.796c0,0.15,0.003,0.301,0.01,0.45
	l3.957,87.721l5.753,127.545c0.189,7.842,7.621,12.703,15.645,16.788c6.104,3.106,14.375,6.575,24.583,10.31
	c16.884,6.176,37.57,12.427,46.112,13.935c0.005,0.001,0.01,0.002,0.015,0.002c0.948,0.168,2.292,0.404,3.816,0.404
	c2.362-0.001,5.155-0.567,7.562-2.838c2.043-1.927,3.19-4.636,3.183-7.417v-19.867h138.277v19.885
	c-0.003,2.772,1.141,5.472,3.177,7.395c3.947,3.728,8.932,2.874,11.358,2.444c0.014-0.002,0.029-0.005,0.043-0.007
	c8.544-1.51,29.229-7.761,46.111-13.936c10.209-3.734,18.48-7.202,24.583-10.31c8.023-4.084,15.455-8.945,15.644-16.787
	l5.753-127.545l3.957-87.721c0.007-0.149,0.01-0.3,0.01-0.45C435.779,213.936,421.099,174.354,394.446,143.388z M230.749,32.921
	C236.673,24.71,245.877,20,256.002,20c10.125,0,19.33,4.71,25.253,12.921c5.923,8.212,7.489,18.432,4.295,28.04
	c-0.049,0.146-0.094,0.293-0.136,0.441l-17.621,62.51h-23.584l-17.621-62.51c-0.042-0.148-0.087-0.296-0.136-0.441
	C223.259,51.354,224.826,41.133,230.749,32.921z M218.555,106.619l5.455,19.35c-52.506,9.429-95.161,50.376-105.459,104.239
	c-1.037,5.425,2.52,10.663,7.944,11.7c0.634,0.121,1.266,0.18,1.889,0.18c4.703,0,8.895-3.334,9.811-8.124
	c9.976-52.181,55.802-90.053,108.961-90.053h17.688c41.802,0,79.657,23.184,98.792,60.506c2.52,4.914,8.545,6.856,13.461,4.336
	c4.915-2.52,6.856-8.546,4.336-13.461c-18.978-37.015-53.577-62.244-93.436-69.342l5.451-19.336
	c71.093,13.562,122.226,75.055,122.329,148.007l-3.846,85.26l-34.646,65.779l-32.145,61.029V358.457
	c6.679-3.854,21.12-11.54,33.677-18.01c3.328-1.715,5.419-5.146,5.419-8.89V271.11c0-3.744-2.084-7.198-5.439-9.014
	c-2.085-1.129-5.575-3.019-47.185-3.063c-0.496-0.001-0.982-0.001-1.468-0.001c-40.733,0-43.571,1.85-46.073,3.483
	c-2.905,1.896-4.646,5.073-4.689,8.454l-2.518,105.012l-20.863,36.328l-20.862-36.326l-2.518-105.008
	c-0.042-3.384-1.782-6.563-4.689-8.461c-2.533-1.652-5.378-3.521-47.542-3.482c-41.609,0.045-45.099,1.935-47.185,3.063
	c-3.354,1.815-5.438,5.27-5.438,9.014v57.623c0,5.314,2.863,10.258,7.472,12.903c0.14,0.08,0.281,0.156,0.424,0.229
	c11.55,5.906,24.858,12.946,31.2,16.589v108.232L127.419,391.8l-27.347-51.921l-3.846-85.26
	C96.33,182.736,148.508,120.095,218.555,106.619z M105.798,466.83l-3.609-80.012l32.162,61.061l20.178,38.308
	C135.809,480.311,112.658,471.618,105.798,466.83z M186.863,461.877V353.144c0-0.391-0.023-0.781-0.068-1.169
	c-0.652-5.544-4.682-7.841-10.78-11.319c-3.134-1.787-7.458-4.146-12.853-7.01c-5.945-3.158-11.932-6.261-15.395-8.046v-45.897
	c15.403-0.898,49.963-0.924,65.058-0.042l2.332,97.256c-0.121,3.224,0.801,6.373,2.635,9.019l25.709,44.768
	c0.244,0.425,0.519,0.83,0.822,1.215c2.839,3.598,7.096,5.66,11.679,5.66c4.583,0,8.84-2.063,11.679-5.66
	c0.304-0.385,0.578-0.79,0.822-1.215l25.708-44.767c1.835-2.646,2.757-5.796,2.636-9.02l2.332-97.256
	c15.097-0.882,49.659-0.857,65.058,0.042v45.775c-3.75,1.954-8.984,4.696-14.189,7.474c-5.744,3.066-10.346,5.584-13.677,7.484
	c-6.554,3.739-10.509,5.995-11.162,11.538c-0.045,0.388-0.068,0.778-0.068,1.169v108.732L186.863,461.877L186.863,461.877z
	 M406.206,466.829c-6.859,4.787-30.008,13.479-48.729,19.357l52.339-99.368L406.206,466.829z"/>
<path d="M383.64,242.087c5.523,0,10-4.478,10-10c0-5.522-4.477-10-10-10h-0.01c-5.523,0-9.995,4.478-9.995,10
	C373.635,237.609,378.118,242.087,383.64,242.087z"/>
<g>
</g>
<g>
</g>
<g>
</g>
<g>
</g>
<g>
</g>
<g>
</g>
<g>
</g>
<g>
</g>
<g>
</g>
<g>
</g>
<g>
</g>
<g>
</g>
<g>
</g>
<g>
</g>
<g>
</g>
</svg>
