<svg id="Capa_1" enable-background="new 0 0 512 512" height="512" viewBox="0 0 512 512" width="512" xmlns="http://www.w3.org/2000/svg"><g><g><path d="m416 17.5c0-5.523-4.477-10-10-10h-70c-44.183 0-80 35.817-80 80h90c38.66 0 70-31.34 70-70z" fill="#e8899e"/></g><g><path d="m186 405.708-10 61.119 10 37.673h140l10-37.673-10-61.119c-19.764-14.03-43.917-22.283-70-22.283s-50.236 8.253-70 22.283z" fill="#9aa3b1"/></g><g><path d="m294.609 389.733c-12.127-4.08-25.106-6.309-38.609-6.309-26.083 0-50.236 8.253-70 22.283l-10 61.119 10 37.673h26.116c0-53.253 34.598-98.612 82.493-114.766z" fill="#7e8b9e"/></g><g><path d="m326 405.708v98.792h29.096c12.566 0 22.098-11.469 19.642-23.793-6.144-30.835-24.004-57.442-48.738-74.999z" fill="#4e5660"/></g><g><path d="m186 405.708v98.792h-29.096c-12.566 0-22.098-11.469-19.642-23.793 6.144-30.835 24.004-57.442 48.738-74.999z" fill="#383c43"/></g><g><path d="m256 436.827c22.477 0 40.698-18.221 40.698-40.698 0-1.969-.148-3.903-.418-5.798-2.403-.851-4.835-1.628-7.302-2.325-10.485-2.978-21.547-4.581-32.978-4.581-14.115 0-27.672 2.438-40.28 6.902-.271 1.896-.419 3.831-.419 5.801.001 22.477 18.222 40.699 40.699 40.699z" fill="#4e5660"/></g><g><path d="m236.433 431.818c14.556-19.325 34.753-34.174 58.123-42.068-1.843-.622-3.697-1.214-5.578-1.745-10.485-2.978-21.547-4.581-32.978-4.581-14.115 0-27.672 2.438-40.28 6.902-.271 1.896-.419 3.831-.419 5.801.001 15.385 8.539 28.772 21.132 35.691z" fill="#383c43"/></g><g><path d="m131 464.553h75c11.046 0 20-8.954 20-20v-70h-45c-38.66 0-70 31.34-70 70 0 11.046 8.954 20 20 20z" fill="#c6c6c6"/></g><g><path d="m381 464.553h-75c-11.046 0-20-8.954-20-20v-70h45c38.66 0 70 31.34 70 70 0 11.046-8.954 20-20 20z" fill="#c6c6c6"/></g><g><path d="m371 162.816c-26.509-34.468-68.156-56.687-115-56.687s-88.491 22.219-115 56.687v176.625c26.509 34.468 68.156 56.687 115 56.687s88.491-22.22 115-56.687z" fill="#ffd4be"/></g><g><path d="m193.551 223.5v-103.254c-20.704 9.899-38.698 24.557-52.551 42.57v176.625c26.509 34.468 68.156 56.687 115 56.687 10.285 0 20.319-1.073 29.998-3.109-77.041-27.513-92.447-69.52-92.447-169.519z" fill="#ffbf9e"/></g><g><g><g><ellipse cx="176.443" cy="300.122" fill="#eda1ab" rx="29.355" ry="23.377"/></g><g><ellipse cx="335.557" cy="300.122" fill="#eda1ab" rx="29.355" ry="23.377"/></g></g><g><path d="m193.551 285.119c-4.142 0-7.5-3.358-7.5-7.5v-12c0-4.142 3.358-7.5 7.5-7.5s7.5 3.358 7.5 7.5v12c0 4.142-3.358 7.5-7.5 7.5z"/></g><g><path d="m318.449 285.119c-4.142 0-7.5-3.358-7.5-7.5v-12c0-4.142 3.358-7.5 7.5-7.5s7.5 3.358 7.5 7.5v12c0 4.142-3.358 7.5-7.5 7.5z"/></g><g><path d="m256 292.262c-8.477 0-16.539-3.671-22.118-10.073-2.722-3.123-2.396-7.86.726-10.582s7.86-2.397 10.582.726c2.73 3.132 6.67 4.928 10.811 4.928s8.081-1.796 10.811-4.928c2.721-3.124 7.459-3.448 10.582-.726s3.448 7.459.726 10.582c-5.581 6.402-13.643 10.073-22.12 10.073z"/></g></g><g><path d="m314.598 36.231c14.675-17.556 36.73-28.731 61.402-28.731h-40c-44.183 0-80 35.817-80 80h90c12.576 0 24.366-3.333 34.566-9.139-18.36-18.626-40.844-33.175-65.968-42.13z" fill="#e26e7e"/></g><g><path d="m111 201.128v120c0 41.421 33.579 75 75 75 11.046 0 20-8.954 20-20s-8.954-20-20-20c-13.807 0-25-11.193-25-25v-162.766h190v162.767c0 13.807-11.193 25-25 25-11.046 0-20 8.954-20 20s8.954 20 20 20c41.421 0 75-33.579 75-75v-120c0-80.081-64.919-145-145-145-80.081-.001-145 64.918-145 144.999z" fill="#9aa3b1"/></g><g><path d="m256 56.128c-80.082 0-145 64.919-145 145v40.29c13.246 7.68 28.618 12.082 45 12.082h5v-52.372-32.766h190v32.766 52.372h5c16.382 0 31.754-4.402 45-12.082v-40.29c0-80.081-64.919-145-145-145z" fill="#7e8b9e"/></g><g><path d="m256 7.5c-11.046 0-20 8.954-20 20v49.968h40v-49.968c0-11.046-8.954-20-20-20z" fill="#c6c6c6"/></g><g><path d="m256 77.468c-11.046 0-20-8.954-20-20v86.032h40v-86.032c0 11.046-8.954 20-20 20z" fill="#9aa3b1"/></g><g><path d="m356 223.5h-200c-33.137 0-60-26.863-60-60 0-33.137 26.863-60 60-60h200c33.137 0 60 26.863 60 60 0 33.137-26.863 60-60 60z" fill="#c6c6c6"/></g><g><circle cx="156" cy="163.5" fill="#9aa3b1" r="20"/></g><g><circle cx="222.667" cy="163.5" fill="#9aa3b1" r="20"/></g><g><circle cx="289.333" cy="163.5" fill="#9aa3b1" r="20"/></g><g><circle cx="356" cy="163.5" fill="#9aa3b1" r="20"/></g><g><path d="m367.386 96.98c-1.265-1.352-2.552-2.68-3.862-3.982 14.201-3.271 27.222-10.489 37.685-21.109 14.374-14.59 22.291-33.906 22.291-54.389 0-9.649-7.851-17.5-17.5-17.5h-70c-19.678 0-38.677 6.67-53.971 18.645-3.695-10.831-13.963-18.645-26.029-18.645-15.164 0-27.5 12.336-27.5 27.5v23.609c-31.997 5.846-61.523 21.967-83.886 45.871-31.814 5.43-56.114 33.182-56.114 66.52 0 16.036 5.631 30.775 15.006 42.368-.001.037-.006.073-.006.11v115.15c0 25.165 11.339 47.72 29.161 62.865-5.478 4.371-10.344 9.443-14.501 15.191-2.428 3.356-1.674 8.045 1.682 10.472 1.329.961 2.866 1.423 4.389 1.423 2.325 0 4.617-1.078 6.083-3.105 4.242-5.865 9.383-10.876 15.306-14.944 11.945 6.735 25.716 10.598 40.379 10.598 7.78 0 14.81-3.252 19.817-8.463 4.179 1.457 8.408 2.732 12.683 3.814v45.573c0 6.893-5.607 12.5-12.5 12.5h-75c-6.893 0-12.5-5.607-12.5-12.5 0-4.07.393-8.139 1.168-12.095.796-4.065-1.854-8.006-5.918-8.802-4.063-.793-8.005 1.854-8.802 5.918-.96 4.904-1.447 9.943-1.447 14.979 0 15.164 12.336 27.5 27.5 27.5h.563c-.62 2.385-1.177 4.785-1.657 7.189-1.604 8.047.471 16.313 5.692 22.676 5.257 6.408 13.022 10.083 21.306 10.083h198.191c8.284 0 16.049-3.675 21.306-10.083 5.221-6.363 7.295-14.628 5.692-22.676-.479-2.406-1.045-4.804-1.665-7.188h.572c15.164 0 27.5-12.336 27.5-27.5 0-23.96-10.731-45.959-29.135-60.582 17.807-15.145 29.135-37.69 29.135-62.843v-115.15c0-.037-.005-.073-.006-.11 9.375-11.593 15.006-26.332 15.006-42.368 0-33.338-24.3-61.091-56.114-66.52zm-83.886-30.593c22.496 4.582 43.548 14.811 61.115 29.613h-61.115zm52.5-51.387h70c1.378 0 2.5 1.122 2.5 2.5 0 33.41-26.762 61.089-59.964 62.429-19.064-14.554-41.374-24.497-65.036-28.82v-13.573c13.657-14.336 32.656-22.536 52.5-22.536zm-80 0c6.893 0 12.5 5.607 12.5 12.5v68.5h-25v-68.5c0-6.893 5.607-12.5 12.5-12.5zm-27.5 81h-61.115c17.567-14.802 38.62-25.031 61.115-29.613zm-42.5 292.628c-37.22 0-67.5-30.28-67.5-67.5v-101.534c10.084 6.764 22.085 10.87 35 11.343v100.192c0 17.92 14.58 32.5 32.5 32.5 6.893 0 12.5 5.607 12.5 12.5s-5.607 12.499-12.5 12.499zm0-40c-9.649 0-17.5-7.851-17.5-17.5v-100.128h105.833c4.142 0 7.5-3.358 7.5-7.5s-3.358-7.5-7.5-7.5h-118.333c-28.949 0-52.5-23.551-52.5-52.5s23.551-52.5 52.5-52.5h200c28.949 0 52.5 23.551 52.5 52.5s-23.551 52.5-52.5 52.5h-51.667c-4.142 0-7.5 3.358-7.5 7.5s3.358 7.5 7.5 7.5h39.167v100.128c0 9.649-7.851 17.5-17.5 17.5-15.164 0-27.5 12.336-27.5 27.5 0 1.923.2 3.801.578 5.614-13.848 4.57-28.308 6.886-43.078 6.886-14.768 0-29.229-2.314-43.078-6.884.378-1.814.578-3.692.578-5.616 0-15.163-12.336-27.5-27.5-27.5zm70 55c7.584 0 15.094-.56 22.5-1.655v18.555c-6.14 5.686-14.037 8.798-22.5 8.798-8.456 0-16.358-3.113-22.5-8.797v-18.556c7.407 1.095 14.917 1.655 22.5 1.655zm-22.5 40.925v-5.836c6.884 3.63 14.612 5.61 22.5 5.61 7.893 0 15.619-1.979 22.5-5.609v5.835c0 15.164 12.336 27.5 27.5 27.5h12.5v24.947h-125v-24.947h12.5c15.164 0 27.5-12.337 27.5-27.5zm-86.305 47.85c-2.36-2.877-3.3-6.606-2.578-10.23.677-3.396 1.519-6.788 2.51-10.12h31.373v24.947h-21.596c-3.774 0-7.313-1.675-9.709-4.597zm220.188-10.231c.722 3.625-.217 7.354-2.578 10.231-2.396 2.921-5.936 4.597-9.709 4.597h-21.596v-24.947h31.362c.992 3.334 1.844 6.72 2.521 10.119zm26.117-37.619c0 6.893-5.607 12.5-12.5 12.5h-75c-6.893 0-12.5-5.607-12.5-12.5v-45.575c4.275-1.083 8.504-2.356 12.682-3.813 5.007 5.211 12.038 8.464 19.818 8.464 14.665 0 28.437-3.864 40.384-10.6 17.044 11.685 27.116 30.684 27.116 51.524zm-67.5-55.925c-6.893 0-12.5-5.607-12.5-12.5s5.607-12.5 12.5-12.5c17.92 0 32.5-14.58 32.5-32.5v-100.191c12.915-.473 24.916-4.579 35-11.343v101.535c0 37.219-30.28 67.499-67.5 67.499z"/><path d="m156 136c-15.164 0-27.5 12.336-27.5 27.5s12.336 27.5 27.5 27.5 27.5-12.336 27.5-27.5-12.336-27.5-27.5-27.5zm0 40c-6.893 0-12.5-5.607-12.5-12.5s5.607-12.5 12.5-12.5 12.5 5.607 12.5 12.5-5.607 12.5-12.5 12.5z"/><path d="m222.667 136c-15.164 0-27.5 12.336-27.5 27.5s12.336 27.5 27.5 27.5 27.5-12.336 27.5-27.5-12.337-27.5-27.5-27.5zm0 40c-6.893 0-12.5-5.607-12.5-12.5s5.607-12.5 12.5-12.5 12.5 5.607 12.5 12.5-5.608 12.5-12.5 12.5z"/><path d="m316.833 163.5c0-15.164-12.336-27.5-27.5-27.5s-27.5 12.336-27.5 27.5 12.336 27.5 27.5 27.5 27.5-12.336 27.5-27.5zm-40 0c0-6.893 5.607-12.5 12.5-12.5s12.5 5.607 12.5 12.5-5.607 12.5-12.5 12.5-12.5-5.607-12.5-12.5z"/><path d="m356 191c15.164 0 27.5-12.336 27.5-27.5s-12.336-27.5-27.5-27.5-27.5 12.336-27.5 27.5 12.336 27.5 27.5 27.5zm0-40c6.893 0 12.5 5.607 12.5 12.5s-5.607 12.5-12.5 12.5-12.5-5.607-12.5-12.5 5.607-12.5 12.5-12.5z"/></g></g></svg>