<?xml version="1.0" encoding="iso-8859-1"?>
<!-- Generator: Adobe Illustrator 19.0.0, SVG Export Plug-In . SVG Version: 6.00 Build 0)  -->
<svg version="1.1" id="Capa_1" xmlns="http://www.w3.org/2000/svg" xmlns:xlink="http://www.w3.org/1999/xlink" x="0px" y="0px"
	 viewBox="0 0 512 512" style="enable-background:new 0 0 512 512;" xml:space="preserve">
<rect x="69.76" y="68.4" style="fill:#F6DAB9;" width="372.1" height="375.2"/>
<path style="fill:#2C7B7E;" d="M277.504,136.964c-7.141,6.668-18.534,4.544-27.842,1.606c-9.328-2.938-20.131-6.089-28.279-0.701
	c-5.493,3.629-8.118,10.196-12.217,15.329c-8.667,10.857-25.004,14.73-37.628,8.915c-8.789-4.036-15.167-11.822-22.593-18.023
	c-7.436-6.201-17.557-11.05-26.611-7.614c-19.816,20.31-52.575,6.648-52.575-22.099V68.4h194.805
	c0.336,0.935,0.641,1.891,0.926,2.856c2.319,7.817-26.011,23.746-16.286,26.115c9.725,2.379,19.877,5.398,26.774,12.656
	C282.855,117.295,284.818,130.133,277.504,136.964z"/>
<path d="M352.609,379.007c-2.829,0-5.641-1.193-7.618-3.517c-4.287-5.034-8.332-9.467-11.582-13.027
	c-3.008-3.297-4.95-5.426-6.734-7.616c-22.157-27.17-29.916-71.901-18.866-108.775c4.929-16.457,12.406-28.688,18.414-38.516
	c1.871-3.06,3.634-5.943,5.037-8.521c1.439-2.648,2.253-4.86,2.708-6.438c-10.774-26.147-8.047-56.615,7.804-86.214
	c2.607-4.869,8.669-6.7,13.536-4.095c4.869,2.607,6.702,8.668,4.095,13.536c-13.459,25.132-15.556,50.538-5.904,71.538
	c0.794,1.726,1.079,3.643,0.822,5.524c-0.38,2.792-1.599,8.544-5.49,15.704c-1.646,3.025-3.627,6.263-5.541,9.394
	c-5.408,8.847-12.136,19.852-16.322,33.827c-9.257,30.894-3.002,68.066,15.21,90.4c1.434,1.759,3.227,3.724,5.94,6.698
	c3.241,3.552,7.592,8.318,12.101,13.614c3.581,4.205,3.075,10.517-1.13,14.097C357.206,378.223,354.901,379.007,352.609,379.007z"/>
<path d="M372.189,407.16c-0.649,0-1.31-0.061-1.96-0.19c-0.63-0.13-1.26-0.32-1.87-0.57c-0.6-0.25-1.18-0.56-1.72-0.92
	c-0.55-0.37-1.06-0.79-1.52-1.25s-0.88-0.97-1.25-1.52c-0.36-0.54-0.67-1.12-0.92-1.72c-0.25-0.61-0.44-1.24-0.57-1.881
	c-0.13-0.64-0.19-1.3-0.19-1.949c0-0.65,0.061-1.311,0.19-1.95c0.13-0.641,0.32-1.271,0.57-1.87c0.25-0.61,0.56-1.19,0.92-1.73
	c0.37-0.55,0.79-1.06,1.25-1.52s0.97-0.88,1.52-1.24c0.54-0.359,1.12-0.67,1.72-0.92c0.61-0.25,1.24-0.45,1.87-0.57
	c3.25-0.659,6.71,0.41,9.03,2.73c0.46,0.46,0.88,0.97,1.24,1.52c0.359,0.54,0.67,1.12,0.92,1.73c0.25,0.6,0.439,1.229,0.57,1.87
	c0.13,0.64,0.199,1.3,0.199,1.95c0,0.649-0.069,1.31-0.199,1.949c-0.131,0.641-0.32,1.271-0.57,1.881
	c-0.25,0.6-0.561,1.18-0.92,1.72c-0.36,0.55-0.78,1.06-1.24,1.52C377.399,406.09,374.819,407.16,372.189,407.16z"/>
<path style="fill:#A84926;" d="M49.485,74.957c-7.662,0-14.713-2.664-20.275-7.113v376.312c5.562-4.449,12.613-7.113,20.275-7.113
	s14.713,2.664,20.275,7.112V67.844C64.198,72.293,57.147,74.957,49.485,74.957z"/>
<g>
	<path style="fill:#898890;" d="M49.485,74.957c-17.921,0-32.501-14.57-32.501-32.478S31.564,10,49.485,10
		s32.501,14.57,32.501,32.478S67.406,74.957,49.485,74.957z"/>
	<path style="fill:#898890;" d="M49.485,502c-17.921,0-32.501-14.57-32.501-32.478s14.58-32.478,32.501-32.478
		s32.501,14.57,32.501,32.478S67.406,502,49.485,502z"/>
</g>
<path style="fill:#A84926;" d="M462.269,74.957c-7.712,0-14.81-2.658-20.411-7.099v376.285c5.602-4.441,12.699-7.099,20.411-7.099
	s14.809,2.658,20.411,7.099V67.858C477.079,72.298,469.981,74.957,462.269,74.957z"/>
<path style="fill:#FFC477;" d="M441.858,89.381h-3.53c-30.578,0-76.214,57.048-54.333,89.841
	c3.703,14.973-1.516,31.716-8.199,44.006s-15.075,22.841-19.429,37.378c-6.256,20.88-2.075,47.919,9.613,62.252
	c5.534,6.79,41.933,42.928,46.287,66.989c2.801,15.48-5.463,34.247,1.719,46.069c7.014,11.53,19.895,9.129,27.872-0.959V89.381z"/>
<g>
	<path style="fill:#898890;" d="M462.269,74.957c-18.056,0-32.746-14.57-32.746-32.478S444.214,10,462.269,10
		s32.746,14.57,32.746,32.478S480.325,74.957,462.269,74.957z"/>
	<path style="fill:#898890;" d="M462.269,502c-18.056,0-32.746-14.57-32.746-32.478s14.69-32.478,32.746-32.478
		s32.746,14.57,32.746,32.478S480.325,502,462.269,502z"/>
</g>
<path style="fill:#B0DBD0;" d="M272.387,406.426c-4.598,11.609,55.071,19.812,44.949,26.745c-2.085,1.423-3.886,3.243-5.157,5.428
	c-0.997,1.718-1.546,3.395-1.729,5.001H109.823c9.674-30.587,25.573-67.833,43.365-75.477c5.157-2.226,8.85-2.294,10.925-2.318
	c27.957-0.32,20.396,21.184,34.159,24.448c11.464,2.724,22.796-3.863,33.223-9.372c10.406-5.51,23.478-10.064,33.467-3.812
	C274.249,382.883,276.405,396.23,272.387,406.426z"/>
<path d="M492.681,72.301c7.623-7.675,12.335-18.212,12.335-29.823C505.016,19.056,485.84,0,462.27,0s-42.746,19.056-42.746,42.479
	c0,5.627,1.107,11.002,3.116,15.921H88.888c1.997-4.919,3.098-10.294,3.098-15.921C91.986,19.056,72.92,0,49.485,0
	S6.984,19.056,6.984,42.479c0,11.591,4.669,22.111,12.226,29.783v367.476c-7.556,7.672-12.226,18.193-12.226,29.783
	C6.984,492.944,26.05,512,49.485,512s42.5-19.056,42.5-42.479c0-5.627-1.101-11.002-3.098-15.921h333.751
	c-2.008,4.919-3.116,10.294-3.116,15.921c0,23.423,19.176,42.479,42.746,42.479s42.746-19.056,42.746-42.479
	c0-11.61-4.712-22.147-12.335-29.823V72.301H492.681z M462.27,427.043c-3.59,0-7.077,0.443-10.411,1.275V83.682
	c3.334,0.832,6.821,1.275,10.411,1.275s7.077-0.443,10.411-1.275v344.636C469.347,427.486,465.859,427.043,462.27,427.043z
	 M328.385,429.938c-1.251-8.883-10.537-11.97-25.922-17.084c-5.451-1.812-14.751-4.903-19.315-7.345
	c3.173-12.841,0.004-28.851-12.881-36.918c-11.232-7.028-25.852-5.865-43.444,3.448l-1.901,1.009
	c-8.472,4.506-17.231,9.17-24.343,7.475c-0.762-0.181-1.367-1.071-3.238-4.766c-3.79-7.483-10.106-19.955-32.63-19.955
	c-0.234,0-0.471,0.002-0.709,0.005c-2.309,0.025-7.714,0.087-14.76,3.129c-20.537,8.824-36.41,44.057-46.677,74.665H79.76V150.552
	c1.702,1,3.496,1.888,5.376,2.654c14.53,5.915,30.497,2.915,42.313-7.776c4.68-0.67,10.712,2.688,15.087,6.337
	c2,1.67,3.965,3.515,6.045,5.467c5.224,4.903,11.145,10.461,18.774,13.964c5.292,2.438,11.037,3.603,16.786,3.603
	c12.471-0.001,24.956-5.485,32.839-15.36c1.695-2.122,3.063-4.253,4.387-6.313c1.87-2.912,3.637-5.662,5.532-6.914
	c4.091-2.707,11.681-0.646,19.753,1.896c6.205,1.959,25.089,7.921,37.677-3.833c4.811-4.493,7.58-10.851,7.799-17.9
	c0.26-8.384-3.062-17.063-8.9-23.235c-5.527-5.815-12.336-9.389-19.273-11.889c4.135-3.941,8.251-8.183,10.323-12.85h157.581v1.542
	c-21.56,3.671-43.064,24.785-54.233,45.664c-11.303,21.13-12.361,41.948-3.012,57.489c2.772,14.145-4.33,29.338-7.603,35.355
	c-1.882,3.461-3.913,6.782-6.063,10.299c-5.28,8.636-10.74,17.566-14.16,28.985c-7.172,23.936-2.252,54.649,11.44,71.44
	c1.076,1.321,2.824,3.235,5.242,5.886c9.798,10.734,35.823,39.251,38.957,56.566c0.922,5.095,0.245,11.212-0.471,17.688
	c-0.861,7.789-1.809,16.36,0.313,24.285h-73.966C328.528,432.412,328.56,431.181,328.385,429.938z M49.485,84.957
	c3.542,0,6.983-0.436,10.275-1.256v344.597c-3.291-0.82-6.733-1.256-10.275-1.256s-6.984,0.436-10.275,1.256V83.701
	C42.502,84.521,45.943,84.957,49.485,84.957z M422.107,388.065c-4.159-22.982-30.977-52.366-43.864-66.487
	c-2.032-2.228-3.788-4.151-4.513-5.041c-9.55-11.71-13.042-35.514-7.783-53.063c2.676-8.937,7.236-16.396,12.064-24.292
	c2.186-3.574,4.444-7.271,6.569-11.177c4.501-8.277,14.4-29.833,9.122-51.184c-0.277-1.122-0.748-2.188-1.39-3.15
	c-8.876-13.302-0.896-31.447,2.947-38.631c8.737-16.334,24.175-30.526,36.598-34.532v330.521c-2.14,1.86-4.274,2.655-5.698,2.556
	c-0.485-0.029-1.96-0.12-3.627-2.86c-2.387-3.93-1.566-11.352-0.697-19.21C422.639,404.254,423.548,396.026,422.107,388.065z
	 M462.27,20c12.542,0,22.746,10.084,22.746,22.479s-10.204,22.479-22.746,22.479s-22.746-10.084-22.746-22.479S449.728,20,462.27,20
	z M237.548,98.478c0.538,2.039,2.521,6.96,9.282,8.607c8.278,2.024,16.788,4.45,21.884,9.813c2.175,2.3,3.519,5.775,3.424,8.855
	c-0.054,1.735-0.545,3.048-1.459,3.902c-1.849,1.726-6.474,3.02-18.012-0.624c-9.725-3.063-24.42-7.689-36.795,0.493
	c-5.414,3.577-8.558,8.473-11.332,12.792c-1.098,1.709-2.135,3.324-3.188,4.642c-5.752,7.208-17.25,9.934-25.64,6.066
	c-4.676-2.146-8.934-6.144-13.442-10.375c-2.196-2.063-4.468-4.194-6.919-6.241c-8.71-7.263-18.038-11.055-26.717-11.055
	c-3.407,0-6.715,0.585-9.845,1.772c-1.361,0.517-2.593,1.324-3.61,2.366c-6.273,6.432-14.685,8.37-22.502,5.188
	c-8.087-3.291-12.916-10.882-12.916-20.304V78.399h168.674c-0.042,0.039-0.082,0.077-0.122,0.114
	C241.42,85,235.469,90.602,237.548,98.478z M49.485,20c12.407,0,22.5,10.084,22.5,22.479s-10.094,22.479-22.5,22.479
	c-12.407,0-22.501-10.084-22.501-22.479S37.078,20,49.485,20z M49.485,492c-12.407,0-22.501-10.084-22.501-22.479
	s10.094-22.479,22.501-22.479s22.5,10.084,22.5,22.479S61.892,492,49.485,492z M123.74,433.601
	c10.936-30.52,23.591-52.077,33.411-56.297c3.375-1.457,5.514-1.481,7.077-1.499c10.641-0.119,12.198,2.922,15.271,8.989
	c2.587,5.107,6.497,12.826,16.461,15.188c14.455,3.436,27.706-3.611,38.354-9.275l1.861-0.987
	c7.451-3.945,17.573-7.871,23.481-4.175c4.899,3.067,5.729,11.376,3.43,17.213c-1.375,3.483-1.252,7.29,0.348,10.721
	c3.85,8.255,14.931,12.441,32.722,18.355c1.588,0.527,3.423,1.138,5.26,1.768H123.74V433.601z M462.27,492
	c-12.542,0-22.746-10.084-22.746-22.479s10.204-22.479,22.746-22.479s22.746,10.084,22.746,22.479S474.812,492,462.27,492z"/>
<polygon style="fill:#F24141;" points="238.097,283.065 215.095,260.079 238.097,237.093 215.072,214.084 192.07,237.07 
	169.068,214.084 146.043,237.093 169.045,260.079 146.043,283.065 169.068,306.074 192.07,283.088 215.072,306.074 "/>
<path d="M169.068,316.074c-2.558,0-5.116-0.976-7.069-2.927l-23.025-23.01c-1.876-1.875-2.931-4.42-2.931-7.073
	s1.055-5.198,2.932-7.073l15.923-15.912l-15.924-15.913c-1.876-1.875-2.931-4.42-2.931-7.073s1.055-5.198,2.932-7.073L162,207.011
	c3.904-3.902,10.232-3.902,14.137,0l15.934,15.922l15.934-15.922c3.904-3.902,10.232-3.902,14.137,0l23.025,23.009
	c1.877,1.875,2.932,4.42,2.932,7.073s-1.055,5.198-2.931,7.073l-15.924,15.913l15.923,15.912c1.877,1.875,2.932,4.42,2.932,7.073
	s-1.055,5.198-2.931,7.073l-23.024,23.009c-3.905,3.902-10.233,3.902-14.137,0l-15.934-15.922l-15.933,15.923
	C174.185,315.099,171.626,316.074,169.068,316.074z M160.19,283.064l8.878,8.872l15.933-15.922c3.905-3.902,10.233-3.902,14.137,0
	l15.934,15.922l8.877-8.872l-15.923-15.912c-1.877-1.875-2.932-4.42-2.932-7.073s1.055-5.198,2.931-7.073l15.924-15.913
	l-8.878-8.872l-15.934,15.922c-3.904,3.902-10.232,3.902-14.137,0l-15.934-15.922l-8.878,8.872l15.924,15.913
	c1.876,1.875,2.931,4.42,2.931,7.073s-1.055,5.198-2.932,7.073L160.19,283.064z"/>
<g>
</g>
<g>
</g>
<g>
</g>
<g>
</g>
<g>
</g>
<g>
</g>
<g>
</g>
<g>
</g>
<g>
</g>
<g>
</g>
<g>
</g>
<g>
</g>
<g>
</g>
<g>
</g>
<g>
</g>
</svg>
