<svg id="Capa_1" enable-background="new 0 0 512 512" height="512" viewBox="0 0 512 512" width="512" xmlns="http://www.w3.org/2000/svg"><g><g><path d="m454.533 478.025c-5.502-28.721-19.81-55.157-40.644-77.205 2.835-7.335 4.338-15.333 4.169-23.707-.686-34.058-29.183-61.007-63.248-61.007h-197.621c-34.063 0-62.558 26.945-63.248 61-.17 8.374 1.332 16.371 4.166 23.706-20.787 21.981-35.136 48.385-40.644 77.208-2.624 13.73 7.822 26.479 21.801 26.479h353.467c13.977.001 24.432-12.747 21.802-26.474z" fill="#5ec783"/></g><g><path d="m143.942 377.107c.239-11.785 3.811-22.715 9.788-31.975 26.688 8.178 60.595 12.209 102.271 12.209 63.004 0 108.268-9.204 137.632-28.047-10.779-8.269-24.289-13.187-38.822-13.187h-197.622c-34.063 0-62.558 26.945-63.248 61-.17 8.374 1.332 16.371 4.166 23.706-20.787 21.981-35.136 48.385-40.644 77.208-2.624 13.73 7.822 26.479 21.801 26.479h25.694c0-39.1 16.14-75.126 43.149-103.687-2.833-7.335-4.335-15.333-4.165-23.706z" fill="#49b76b"/></g><g><path d="m266.001 405.554v-15.368c0-5.523-4.478-10.001-10.001-10.001-5.523 0-10.001 4.478-10.001 10.001v15.368c0 27.032-21.914 48.946-48.946 48.946-27.032 0-48.946 21.914-48.946 48.946v1.054h215.785v-1.054c0-27.032-21.914-48.946-48.946-48.946-27.031 0-48.945-21.914-48.945-48.946z" fill="#49b76b"/></g><g><path d="m306 415.067c0-28.286-23.488-51.086-52.023-49.96-25.752 1.016-46.752 21.881-47.924 47.626-.978 21.492 11.624 40.154 29.947 48.162 0 10.862 8.805 19.667 19.666 19.667h.667c10.861 0 19.666-8.805 19.666-19.667 17.657-7.717 30.001-25.327 30.001-45.828z" fill="#fff"/></g><g><path d="m246.053 412.733c.883-19.402 13.03-36.028 29.983-43.48-6.713-2.94-14.192-4.457-22.06-4.146-25.752 1.016-46.752 21.881-47.924 47.626-.978 21.491 11.624 40.154 29.947 48.162 0 10.861 8.805 19.667 19.667 19.667h.667c10.861 0 19.666-8.805 19.666-19.667-18.322-8.009-30.923-26.671-29.946-48.162z" fill="#fcf2d0"/></g><g><g><path d="m233.551 436.314c-4.142 0-7.5-3.358-7.5-7.5v-12c0-4.142 3.358-7.5 7.5-7.5s7.5 3.358 7.5 7.5v12c0 4.142-3.358 7.5-7.5 7.5z"/></g><g><path d="m278.449 436.314c-4.142 0-7.5-3.358-7.5-7.5v-12c0-4.142 3.358-7.5 7.5-7.5s7.5 3.358 7.5 7.5v12c0 4.142-3.358 7.5-7.5 7.5z"/></g></g><g><path d="m369.914 188.274c-7.626 18.41 1.117 39.516 19.527 47.142s39.516-1.117 47.142-19.527 13.862-33.466 25.881-62.483-74.322-9.138-92.55 34.868z" fill="#49b76b"/></g><g><path d="m142.086 188.274c7.626 18.41-1.117 39.516-19.527 47.142s-39.516-1.117-47.142-19.527-13.862-33.466-25.881-62.483 74.323-9.138 92.55 34.868z" fill="#49b76b"/></g><g><circle cx="256" cy="152.5" fill="#5ec783" r="145"/></g><g><path d="m163.449 152.5c0-71.126 51.214-130.286 118.776-142.629-8.507-1.553-17.27-2.371-26.225-2.371-80.081 0-145 64.919-145 145s0 145 145 145c9.333 0 18.054-.274 26.224-.798-118.765-7.626-118.775-69.275-118.775-144.202z" fill="#49b76b"/></g><g><path d="m217.315 95.083-24.065-6.448c-3.996-1.069-8.113 1.302-9.186 5.304-1.072 4.001 1.302 8.113 5.303 9.186l7.079 1.897c-.252.751-.395 1.552-.395 2.387v10.366c0 4.142 3.358 7.5 7.5 7.5s7.5-3.358 7.5-7.5v-8.84l2.381.638c.65.174 1.303.257 1.946.257 3.311 0 6.342-2.21 7.24-5.561 1.072-4.001-1.302-8.114-5.303-9.186z"/><path d="m327.936 93.938c-1.072-4.001-5.188-6.373-9.186-5.304l-24.065 6.448c-4.001 1.072-6.375 5.185-5.304 9.186.898 3.351 3.928 5.561 7.24 5.561.643 0 1.296-.083 1.946-.257l2.381-.638v8.84c0 4.142 3.358 7.5 7.5 7.5s7.5-3.358 7.5-7.5v-10.366c0-.835-.142-1.636-.395-2.387l7.079-1.897c4.002-1.072 6.376-5.185 5.304-9.186z"/></g><g><path d="m359.363 257.269v-47.229c0-16.098 9.095-30.814 23.493-38.013l38.699-19.349c3.559-1.78 5.808-5.418 5.808-9.397 0-5.803-4.704-10.506-10.507-10.506h-40.493c-46.944 0-85 38.056-85 85v39.495h68z" fill="#fcf2d0"/></g><g><path d="m152.637 257.269v-47.229c0-16.098-9.095-30.814-23.493-38.013l-38.699-19.349c-3.559-1.78-5.808-5.418-5.808-9.397 0-5.803 4.704-10.506 10.507-10.506h40.493c46.944 0 85 38.056 85 85v39.495h-68z" fill="#fcf2d0"/></g><g><path d="m256 179.255c-84.276 0-149.638 32.681-149.638 64.34 0 31.66 1.638 83.745 149.638 83.745s149.638-52.085 149.638-83.745c0-31.659-65.362-64.34-149.638-64.34z" fill="#89d47f"/></g><g><path d="m256 323.282c-97.703-16.674-104.863-81.309-104.863-124.417-27.797 12.204-44.776 28.599-44.776 44.731 0 31.66 1.638 83.745 149.638 83.745v-4.059z" fill="#5ec783"/></g><g><path d="m256 209.255c-31.858 0-69.58 62.459-59.949 75.613s29.209-3.7 29.209-3.7 9.627 69.016 30.74 69.016 30.74-69.016 30.74-69.016 19.578 16.854 29.209 3.7c9.632-13.154-28.09-75.613-59.949-75.613z" fill="#e26e7e"/></g><path d="m413.138 244.52c13.601-3.136 24.902-12.55 30.374-25.76l25.881-62.483c3.83-9.246.397-15.053-1.99-17.692-7.759-8.577-24.04-6.723-34.921-4.215-3.106-5.425-8.94-9.095-15.627-9.095h-10.785c-4.614-25.565-15.733-49.572-32.355-69.73-2.636-3.195-7.361-3.65-10.558-1.015-3.196 2.635-3.65 7.362-1.015 10.558 14.406 17.47 24.212 38.147 28.644 60.188h-14.423c-34.059 0-65.516 19.003-81.531 48.807-12.595-1.526-25.616-2.325-38.831-2.325-13.216 0-26.236.799-38.832 2.325-16.014-29.801-47.481-48.807-81.531-48.807h-14.433c12.762-63.359 69.45-110.276 134.795-110.276 31.583 0 61.278 10.411 85.875 30.108 3.233 2.588 7.953 2.065 10.542-1.167 2.589-3.233 2.067-7.953-1.167-10.542-26.895-21.538-60.723-33.399-95.25-33.399-36.856 0-72.434 13.324-100.181 37.519-26.181 22.829-43.759 53.833-49.884 87.755h-10.791c-6.686 0-12.521 3.671-15.627 9.096-10.897-2.513-27.159-4.36-34.918 4.211-2.389 2.639-5.824 8.446-1.993 17.695l25.881 62.483c5.473 13.212 16.773 22.624 30.374 25.76.008 14.927.384 36.957 18.911 55.646 4.537 4.576 9.915 8.688 16.154 12.342-9.047 3.12-17.446 8.049-24.669 14.609-3.066 2.785-3.294 7.528-.509 10.594 1.48 1.63 3.513 2.458 5.554 2.458 1.799 0 3.604-.644 5.04-1.948 10.376-9.424 23.817-14.614 37.846-14.614h1.938c.216 0 .429-.014.641-.032 3.994 1.24 8.197 2.374 12.604 3.406 5.797 15.041 17.449 38.036 38.199 53-7.048 9.077-11.459 20.279-12.011 32.411-1.024 22.509 10.781 43.012 30.385 53.418 2.319 12.642 13.419 22.251 26.721 22.251h.667c13.304 0 24.405-9.612 26.722-22.256 18.632-9.938 30.445-29.392 30.445-50.738 0-12.929-4.21-25.14-11.985-35.151 20.69-14.962 32.318-37.899 38.112-52.936 4.398-1.031 8.593-2.162 12.579-3.398.158.01.314.024.475.024h2.13c30.145 0 55.154 24.071 55.75 53.658.145 7.168-1.089 14.184-3.666 20.853-1.042 2.697-.441 5.753 1.544 7.854 20.23 21.41 33.623 46.814 38.729 73.465.836 4.365-.302 8.825-3.124 12.239-2.797 3.384-6.92 5.325-11.312 5.325h-353.467c-4.388 0-8.509-1.939-11.304-5.319-2.824-3.415-3.965-7.881-3.13-12.252 5.094-26.655 18.485-52.059 38.727-73.462 1.987-2.102 2.589-5.158 1.547-7.856-2.576-6.668-3.809-13.684-3.664-20.852.119-5.875 1.183-11.635 3.162-17.119 1.406-3.896-.613-8.195-4.509-9.601-3.895-1.407-8.194.613-9.601 4.509-2.535 7.024-3.897 14.395-4.049 21.907-.152 7.535.892 14.94 3.107 22.075-20.478 22.774-34.088 49.508-39.453 77.583-1.677 8.778.621 17.754 6.304 24.627 5.655 6.839 13.988 10.761 22.863 10.761h353.467c8.88 0 17.217-3.925 22.874-10.768 5.681-6.873 7.975-15.845 6.294-24.618-5.377-28.066-18.987-54.797-39.453-77.574 2.217-7.136 3.262-14.542 3.11-22.078-.598-29.697-20.432-55.019-47.526-64.43 6.246-3.655 11.631-7.767 16.173-12.344 18.551-18.693 18.927-40.734 18.935-55.668zm-21.839-36.69c-5.914-4.578-12.951-8.899-21.015-12.859 3.336-6.977 8.923-12.735 15.925-16.237l7.16-3.58c-.188 10.765-.691 22.017-2.07 32.676zm64.805-59.328c-.022.339-.148 1.018-.569 2.034l-25.881 62.483c-3.55 8.57-10.842 14.701-19.634 16.825-1.407-3.102-3.287-6.166-5.605-9.171 3.356-17.078 3.927-36.071 4.049-53.065l16.445-8.223c4.203-2.102 7.315-5.657 8.861-9.894 13.457-3.491 20.744-2.117 22.334-.989zm-79.741-8.228h40.493c1.658 0 3.007 1.349 3.007 3.006 0 1.146-.637 2.177-1.662 2.689l-38.699 19.349c-10.159 5.08-18.241 13.48-22.978 23.656-13.862-5.404-29.299-9.613-45.725-12.516 14.075-22.245 38.865-36.184 65.564-36.184zm-281.219 0h40.493c26.692 0 51.489 13.941 65.564 36.185-16.425 2.903-31.861 7.112-45.722 12.515-4.739-10.177-12.826-18.579-22.981-23.655l-38.699-19.349c-1.025-.513-1.662-1.543-1.662-2.689 0-1.658 1.349-3.007 3.007-3.007zm25.555 67.558c-1.383-10.683-1.883-21.935-2.07-32.677l7.161 3.581c6.999 3.5 12.589 9.26 15.926 16.236-8.065 3.959-15.102 8.28-21.017 12.86zm-38.353 5.187-25.881-62.483c-.421-1.016-.546-1.695-.569-2.034 1.592-1.131 8.88-2.503 22.335.99 1.546 4.236 4.657 7.792 8.861 9.893l16.446 8.223c.122 16.939.679 35.924 4.048 53.066-2.318 3.004-4.198 6.068-5.605 9.17-8.793-2.124-16.085-8.254-19.635-16.825zm107.785 117.396c12.4 1.941 26.131 3.237 41.232 3.901 6.419 14.8 14.018 22.469 23.011 23.286-.231.006-.461.001-.693.01-12.036.475-23.185 4.746-32.265 11.636-15.272-10.153-25.216-25.889-31.285-38.833zm89.181-50.282c-.023.167-2.387 16.902-7.223 33.439-6.735 23.029-13.469 29.113-16.089 29.113-2.611 0-9.327-6.057-16.049-28.979-4.849-16.535-7.239-33.407-7.263-33.575-.38-2.718-2.214-5.012-4.782-5.979-.859-.324-1.756-.482-2.646-.482-1.768 0-3.51.625-4.893 1.815-2.765 2.38-10.435 7.409-15.223 6.866-.908-.104-1.895-.397-2.963-1.807-1.022-2.65 1.482-14.519 12.016-30.573 13.036-19.867 29.835-33.215 41.803-33.215s28.767 13.349 41.804 33.217c10.534 16.055 13.038 27.923 12.015 30.572-1.064 1.405-2.046 1.699-2.949 1.805-4.768.56-12.335-4.391-15.237-6.864-2.08-1.791-4.972-2.302-7.54-1.333-2.568.967-4.402 3.262-4.781 5.98zm-6.315 173.889c-2.731 1.193-4.497 3.891-4.497 6.872 0 6.708-5.458 12.167-12.167 12.167h-.667c-6.708 0-12.167-5.458-12.167-12.167 0-2.981-1.765-5.679-4.497-6.872-16.273-7.113-26.266-23.186-25.458-40.949.994-21.833 18.883-39.611 40.727-40.472.582-.023 1.161-.034 1.739-.034 11.049 0 21.446 4.174 29.439 11.857 8.416 8.09 13.05 18.973 13.05 30.643.001 16.893-10.01 32.184-25.502 38.955zm17.666-84.825c-9.542-7.246-20.983-11.268-33.053-11.593 9-.811 16.603-8.479 23.026-23.287 15.101-.664 28.832-1.961 41.233-3.902-6.06 12.927-15.979 28.628-31.206 38.782zm-4.548-50.176c.124-.413.249-.819.371-1.239 2.572-8.794 4.468-17.512 5.733-24.12 4.738 2.356 10.565 4.251 16.344 3.591 5.438-.623 10.084-3.373 13.438-7.954 6.526-8.913 1.085-24.21-4.628-35.475-10.616-20.93-35.721-52.069-61.373-52.069-25.651 0-50.755 31.138-61.372 52.068-5.714 11.264-11.155 26.563-4.629 35.476 3.354 4.581 8 7.331 13.438 7.954 5.784.661 11.606-1.234 16.344-3.591 1.265 6.608 3.161 15.326 5.733 24.12.123.42.248.826.372 1.24-48.083-2.778-80.846-12.659-97.46-29.417-14.564-14.691-14.564-32.792-14.564-46.009 0-12.334 14.505-26.243 38.801-37.207 28.057-12.661 64.757-19.634 103.337-19.634s75.28 6.973 103.337 19.634c24.296 10.964 38.801 24.873 38.801 37.207 0 13.223 0 31.333-14.582 46.027-16.618 16.747-49.376 26.621-97.441 29.398z"/></g></svg>