<?xml version="1.0" encoding="utf-8"?>
<!-- Generator: Adobe Illustrator 18.0.0, SVG Export Plug-In . SVG Version: 6.00 Build 0)  -->
<!DOCTYPE svg PUBLIC "-//W3C//DTD SVG 1.1//EN" "http://www.w3.org/Graphics/SVG/1.1/DTD/svg11.dtd">
<svg version="1.1" xmlns="http://www.w3.org/2000/svg" xmlns:xlink="http://www.w3.org/1999/xlink" x="0px" y="0px" width="2800px"
	 height="2800px" viewBox="0 0 2800 2800" enable-background="new 0 0 2800 2800" xml:space="preserve">
<g id="BACKGROUND">
	<g>
		<linearGradient id="SVGID_1_" gradientUnits="userSpaceOnUse" x1="-1.257104e-07" y1="1.257094e-07" x2="2800" y2="2800">
			<stop  offset="0" style="stop-color:#0051A8"/>
			<stop  offset="1" style="stop-color:#00B9F2"/>
		</linearGradient>
		<rect fill="url(#SVGID_1_)" width="2800" height="2800"/>
	</g>
	<path opacity="0.1" fill="#FFFFFF" d="M2166.6,101c-64,95.8-134,183.1-208.1,259.7c-60.1,62.1-125,119.2-193,169.8
		c-178.7,133-360.4,208.6-570.7,296.2c-175.8,73.2-357.5,148.9-549.4,261.8c-112.8,66.3-214.9,137.2-312.3,216.7
		C224,1394.3,125,1490.9,30.4,1600.4c-10.2,11.9-20.4,23.8-30.4,35.9V2800h2800V0h-566L2166.6,101z"/>
	<path opacity="0.1" fill="#FFFFFF" d="M2800,2800V157.2l-459,686.9c-46.4,69.4-97.1,132.7-150.8,188.2
		c-43.5,45-90.6,86.4-139.9,123.1c-129.5,96.4-261.1,151.2-413.5,214.7c-127.4,53-259.1,107.9-398.2,189.7
		c-81.7,48.1-155.8,99.4-226.3,157.1c-79,64.6-150.8,134.6-219.3,214c-172.4,199.7-302.6,436.2-386.9,702.9L353.6,2800H2800z"/>
	<path opacity="0.4" fill="#FFFFFF" d="M2800,2800V719l-216.2,323.5c-54.7,81.8-114.9,156.9-179.1,223.2
		c-53.1,54.8-110.6,105.4-170.9,150.3c-154.3,114.8-304.7,177.5-464,243.8c-121.2,50.5-235.7,98.2-355.2,168.4
		c-67.5,39.7-128.3,81.9-186.1,129.1c-64.6,52.8-123.4,110.2-179.8,175.4c-143.7,166.4-252.5,364.5-323.4,588.9l-24.8,78.3H2800z"/>
	<path fill="#FFFFFF" d="M2800,2800V1042.9l-66.5,99.5c-60.7,90.8-127.8,174.4-199.4,248.4c-59.8,61.8-124.7,118.8-192.8,169.5
		c-172.1,128.1-339.9,198-502.2,265.5c-115.3,48-224.3,93.4-333.1,157.4c-59.4,34.9-112.9,72-163.4,113.3
		c-56.5,46.1-108,96.4-157.4,153.7c-127.6,147.8-224.5,324.6-288,525.5l-7.6,24.1H2800z"/>
</g>
<g id="BEACH">
	<linearGradient id="SVGID_2_" gradientUnits="userSpaceOnUse" x1="1718.3879" y1="1825.1554" x2="2746.6162" y2="2853.3838">
		<stop  offset="0" style="stop-color:#FBC7BA"/>
		<stop  offset="1" style="stop-color:#FFFFFF"/>
	</linearGradient>
	<path fill="url(#SVGID_2_)" d="M2800,2800V1186.9c-136.6,204.5-282.2,341.9-411,437.6c-421.8,313.8-807.4,288.9-1143.4,678.1
		c-136.8,158.4-220.4,333.5-272.3,497.4H2800z"/>
	<g opacity="0.2">
		<path d="M2730,2293.1c-11.2-0.6-22.5-0.5-33.8,0.3l-17.6,18.1l8.9-17.4c-12.1,1.2-24.2,3.2-36.1,6l-19.1,24l10.7-21.9
			c-14.6,3.9-29,9.1-43.1,15.5l-8,21.7l2.2-19c-6.2,3-12.4,6.3-18.5,9.8c-3.2,1.8-6.3,3.7-9.4,5.7l-5.3,23.7l-0.3-20
			c-11.1,7.4-21.4,15.4-31.1,24l-0.1,22.4l-5.5-17.4c-10.3,9.6-19.7,20-28.2,30.8l1.3,13.1l-4.1-9.6c-4.3,5.7-8.4,11.5-12.2,17.4
			c3.2-6.3,6.2-12.7,9-19.3l-10.3,1.2l12-5.4c5.1-12.9,9.4-26.2,12.6-39.9l-17.8,3.9l19.4-11.3c2.6-12.7,4.4-25.7,5.2-39l-17.5,9.7
			l17.9-16.5c0.1-3.7,0.2-7.3,0.2-11c0-7-0.3-14-0.8-20.9l-15.4,11.4l14.8-17.7c-1.5-15.4-4.2-30.5-8.1-45.1l-13.6,20.2l11.3-28.6
			c-3.5-11.8-7.9-23.2-12.9-34.3l-10.6,16.4l6.9-24.3c-5-10.2-10.5-20-16.6-29.5c-6.1,9.4-11.7,19.3-16.6,29.5l6.9,24.3l-10.6-16.4
			c-5,11.1-9.3,22.5-12.9,34.3l11.3,28.6l-13.6-20.2c-3.9,14.6-6.6,29.6-8.1,45.1l14.8,17.7l-15.4-11.4c-0.5,6.9-0.8,13.9-0.8,20.9
			c0,3.7,0.1,7.4,0.2,11l17.9,16.5l-17.5-9.7c0.8,13.3,2.6,26.3,5.2,39l19.4,11.3l-17.8-3.9c3.2,13.7,7.4,27,12.6,39.9l12,5.4
			l-10.3-1.2c2.8,6.6,5.8,13,9,19.3c-3.8-5.9-7.9-11.8-12.2-17.4l-4.1,9.6l1.3-13.1c-8.6-10.9-18-21.2-28.2-30.8l-5.5,17.4
			l-0.1-22.4c-9.7-8.6-20.1-16.6-31.1-24l-0.3,20l-5.3-23.7c-3.1-1.9-6.2-3.9-9.4-5.7c-6.1-3.5-12.3-6.8-18.5-9.8l2.2,19l-8-21.7
			c-14.1-6.4-28.5-11.6-43.1-15.5l10.7,21.9l-19.1-24c-12-2.8-24-4.8-36.1-6l8.9,17.4l-17.6-18.1c-11.3-0.8-22.6-0.9-33.8-0.3
			c5.1,10,10.9,19.7,17.2,29.1l24.5,6.2l-19.5,1c7.1,9.9,14.8,19.3,23.3,28.3l30.4,4.5l-24.3,1.7c10.7,10.7,22.4,20.6,35,29.6
			l22.7-3.9l-17.5,7.6c5.7,3.9,11.6,7.6,17.7,11.1c3.2,1.8,6.4,3.6,9.6,5.3l23.2-7.2l-17.2,10.3c11.9,5.9,24,10.9,36.3,15l19.5-11.1
			l-12.3,13.4c13.5,4.1,27.1,7.1,40.8,9l10.6-7.7l-6.2,8.3c7.1,0.9,14.1,1.5,21.2,1.9c-7.1,0.4-14.2,1-21.2,1.9l6.2,8.3l-10.6-7.7
			c-13.7,2-27.4,5-40.8,9l12.3,13.4l-19.5-11.1c-12.3,4.1-24.4,9.1-36.3,15l17.2,10.3l-23.2-7.2c-3.2,1.7-6.5,3.5-9.6,5.3
			c-6.1,3.5-12,7.2-17.7,11.1l17.5,7.6l-22.7-3.9c-12.6,9-24.3,18.9-35,29.6l24.3,1.7l-30.4,4.5c-8.4,9-16.2,18.4-23.3,28.3l19.5,1
			l-24.5,6.2c-6.3,9.4-12.1,19.1-17.2,29.1c11.2,0.6,22.5,0.5,33.8-0.3l17.6-18.1l-8.9,17.4c12.1-1.2,24.2-3.2,36.1-6l19.1-24
			l-10.7,21.9c14.6-3.9,29-9.1,43.1-15.5l8-21.7l-2.2,19c6.2-3,12.4-6.3,18.5-9.8c3.2-1.8,6.3-3.7,9.4-5.7l5.3-23.7l0.3,20
			c11.1-7.4,21.4-15.4,31.1-24l0.1-22.4l5.5,17.4c10.3-9.6,19.7-20,28.2-30.8l-1.3-13.1l4.1,9.6c4.3-5.7,8.4-11.5,12.2-17.4
			c-3.2,6.3-6.2,12.7-9,19.3l10.3-1.2l-12,5.4c-5.1,12.9-9.4,26.2-12.6,39.9l17.8-3.9L2427,2541c-2.6,12.7-4.4,25.7-5.2,39l17.5-9.7
			l-17.9,16.5c-0.1,3.7-0.2,7.3-0.2,11c0,7,0.3,14,0.8,20.9l15.4-11.4l-14.8,17.7c1.5,15.4,4.2,30.5,8.1,45.1l13.6-20.2l-11.3,28.6
			c3.5,11.8,7.9,23.2,12.9,34.3l10.6-16.4l-6.9,24.3c5,10.2,10.5,20,16.6,29.5c6.1-9.4,11.7-19.3,16.6-29.5l-6.9-24.3l10.6,16.4
			c5-11.1,9.3-22.5,12.9-34.3l-11.3-28.6l13.6,20.2c3.9-14.6,6.6-29.6,8.1-45.1l-14.8-17.7l15.4,11.4c0.5-6.9,0.8-13.9,0.8-20.9
			c0-3.7-0.1-7.4-0.2-11l-17.9-16.5l17.5,9.7c-0.8-13.3-2.6-26.3-5.2-39l-19.4-11.3l17.8,3.9c-3.2-13.7-7.4-27-12.6-39.9l-12-5.4
			l10.3,1.2c-2.8-6.6-5.8-13-9-19.3c3.8,5.9,7.9,11.8,12.2,17.4l4.1-9.6l-1.3,13.1c8.6,10.9,18,21.2,28.2,30.8l5.5-17.4l0.1,22.4
			c9.7,8.6,20.1,16.6,31.1,24l0.3-20l5.3,23.7c3.1,1.9,6.2,3.9,9.4,5.7c6.1,3.5,12.3,6.8,18.5,9.8l-2.2-19l8,21.7
			c14.1,6.4,28.5,11.6,43.1,15.5l-10.7-21.9l19.1,24c12,2.8,24,4.8,36.1,6l-8.9-17.4l17.6,18.1c11.3,0.8,22.6,0.9,33.8,0.3
			c-5.1-10-10.9-19.7-17.2-29.1l-24.5-6.2l19.5-1c-7.1-9.9-14.8-19.3-23.3-28.3l-30.4-4.5l24.3-1.7c-10.7-10.7-22.4-20.6-35-29.6
			l-22.7,3.9l17.5-7.6c-5.7-3.9-11.6-7.6-17.7-11.1c-3.2-1.8-6.4-3.6-9.6-5.3l-23.2,7.2l17.2-10.3c-11.9-5.9-24-10.9-36.3-15
			l-19.5,11.1l12.3-13.4c-13.5-4.1-27.1-7.1-40.8-9l-10.6,7.7l6.2-8.3c-7.1-0.9-14.1-1.5-21.2-1.9c7.1-0.4,14.2-1,21.2-1.9l-6.2-8.3
			l10.6,7.7c13.7-2,27.4-5,40.8-9l-12.3-13.4l19.5,11.1c12.3-4.1,24.4-9.1,36.3-15l-17.2-10.3l23.2,7.2c3.2-1.7,6.5-3.5,9.6-5.3
			c6.1-3.5,12-7.2,17.7-11.1l-17.5-7.6l22.7,3.9c12.6-9,24.3-18.9,35-29.6l-24.3-1.7l30.4-4.5c8.4-9,16.2-18.4,23.3-28.3l-19.5-1
			l24.5-6.2C2719.1,2312.8,2724.9,2303.1,2730,2293.1z"/>
		<path d="M2688.3,1905.8l19.5-1c-7.1-9.9-14.8-19.3-23.3-28.3l-30.4-4.5l24.3-1.7c-10.7-10.7-22.4-20.6-35-29.6l-22.7,3.9l17.5-7.6
			c-5.7-3.9-11.6-7.6-17.7-11.1c-3.2-1.8-6.4-3.6-9.6-5.3l-23.2,7.2l17.2-10.3c-11.9-5.9-24-10.9-36.3-15l-19.5,11.1l12.3-13.4
			c-13.5-4.1-27.1-7.1-40.8-9l-10.6,7.7l6.2-8.3c-7.1-0.9-14.1-1.5-21.2-1.9c7.1-0.4,14.2-1,21.2-1.9l-6.2-8.3l10.6,7.7
			c13.7-2,27.4-5,40.8-9l-12.3-13.4l19.5,11.1c12.3-4.1,24.4-9.1,36.3-15l-17.2-10.3l23.2,7.2c3.2-1.7,6.5-3.5,9.6-5.3
			c6.1-3.5,12-7.2,17.7-11.1l-17.5-7.6l22.7,3.9c12.6-9,24.3-18.9,35-29.6l-24.3-1.7l30.4-4.5c8.4-9,16.2-18.4,23.3-28.3l-19.5-1
			l24.5-6.2c6.3-9.4,12.1-19.1,17.2-29.1c-11.2-0.6-22.5-0.5-33.8,0.3l-17.6,18.1l8.9-17.4c-12.1,1.2-24.2,3.2-36.1,6l-19.1,24
			l10.7-21.9c-14.6,3.9-29,9.1-43.1,15.5l-8,21.7l2.2-19c-6.2,3-12.4,6.3-18.5,9.8c-3.2,1.8-6.3,3.7-9.4,5.7l-5.3,23.7l-0.3-20
			c-11.1,7.4-21.4,15.4-31.1,24l-0.1,22.4l-5.5-17.4c-10.3,9.6-19.7,20-28.2,30.8l1.3,13.1l-4.1-9.6c-4.3,5.7-8.4,11.5-12.2,17.4
			c3.2-6.3,6.2-12.7,9-19.3l-10.3,1.2l12-5.4c5.1-12.9,9.4-26.2,12.6-39.9l-17.8,3.9l19.4-11.3c2.6-12.7,4.4-25.7,5.2-39l-17.5,9.7
			l17.9-16.5c0.1-3.7,0.2-7.3,0.2-11c0-7-0.3-14-0.8-20.9l-15.4,11.4l14.8-17.7c-1.5-15.4-4.2-30.5-8.1-45.1l-13.6,20.2l11.3-28.6
			c-3.5-11.8-7.9-23.2-12.9-34.3l-10.6,16.4l6.9-24.3c-5-10.2-10.5-20-16.6-29.5c-6.1,9.4-11.7,19.3-16.6,29.5l6.9,24.3l-10.6-16.4
			c-5,11.1-9.3,22.5-12.9,34.3l11.3,28.6l-13.6-20.2c-3.9,14.6-6.6,29.6-8.1,45.1l14.8,17.7l-15.4-11.4c-0.5,6.9-0.8,13.9-0.8,20.9
			c0,3.7,0.1,7.4,0.2,11l17.9,16.5l-17.5-9.7c0.8,13.3,2.6,26.3,5.2,39l19.4,11.3l-17.8-3.9c3.2,13.7,7.4,27,12.6,39.9l12,5.4
			l-10.3-1.2c2.8,6.6,5.8,13,9,19.3c-3.8-5.9-7.9-11.8-12.2-17.4l-4.1,9.6l1.3-13.1c-8.6-10.9-18-21.2-28.2-30.8l-5.5,17.4
			l-0.1-22.4c-9.7-8.6-20.1-16.6-31.1-24l-0.3,20l-5.3-23.7c-3.1-1.9-6.2-3.9-9.4-5.7c-6.1-3.5-12.3-6.8-18.5-9.8l2.2,19l-8-21.7
			c-14.1-6.4-28.5-11.6-43.1-15.5l10.7,21.9l-19.1-24c-12-2.8-24-4.8-36.1-6l8.9,17.4l-17.6-18.1c-11.3-0.8-22.6-0.9-33.8-0.3
			c5.1,10,10.9,19.7,17.2,29.1l24.5,6.2l-19.5,1c7.1,9.9,14.8,19.3,23.3,28.3l30.4,4.5l-24.3,1.7c10.7,10.7,22.4,20.6,35,29.6
			l22.7-3.9l-17.5,7.6c5.7,3.9,11.6,7.6,17.7,11.1c3.2,1.8,6.4,3.6,9.6,5.3l23.2-7.2l-17.2,10.3c11.9,5.9,24,10.9,36.3,15l19.5-11.1
			l-12.3,13.4c13.5,4.1,27.1,7.1,40.8,9l10.6-7.7l-6.2,8.3c7.1,0.9,14.1,1.5,21.2,1.9c-7.1,0.4-14.2,1-21.2,1.9l6.2,8.3l-10.6-7.7
			c-13.7,2-27.4,5-40.8,9l12.3,13.4l-19.5-11.1c-12.3,4.1-24.4,9.1-36.3,15l17.2,10.3l-23.2-7.2c-3.2,1.7-6.5,3.5-9.6,5.3
			c-6.1,3.5-12,7.2-17.7,11.1l17.5,7.6l-22.7-3.9c-12.6,9-24.3,18.9-35,29.6l24.3,1.7l-30.4,4.5c-8.4,9-16.2,18.4-23.3,28.3l19.5,1
			l-24.5,6.2c-6.3,9.4-12.1,19.1-17.2,29.1c11.2,0.6,22.5,0.5,33.8-0.3l17.6-18.1l-8.9,17.4c12.1-1.2,24.2-3.2,36.1-6l19.1-24
			l-10.7,21.9c14.6-3.9,29-9.1,43.1-15.5l8-21.7l-2.2,19c6.2-3,12.4-6.3,18.5-9.8c3.2-1.8,6.3-3.7,9.4-5.7l5.3-23.7l0.3,20
			c11.1-7.4,21.4-15.4,31.1-24l0.1-22.4l5.5,17.4c10.3-9.6,19.7-20,28.2-30.8l-1.3-13.1l4.1,9.6c4.3-5.7,8.4-11.5,12.2-17.4
			c-3.2,6.3-6.2,12.7-9,19.3l10.3-1.2l-12,5.4c-5.1,12.9-9.4,26.2-12.6,39.9l17.8-3.9l-19.4,11.3c-2.6,12.7-4.4,25.7-5.2,39
			l17.5-9.7l-17.9,16.5c-0.1,3.7-0.2,7.3-0.2,11c0,7,0.3,14,0.8,20.9l15.4-11.4l-14.8,17.7c1.5,15.4,4.2,30.5,8.1,45.1l13.6-20.2
			l-11.3,28.6c3.5,11.8,7.9,23.2,12.9,34.3l10.6-16.4l-6.9,24.3c5,10.2,10.5,20,16.6,29.5c6.1-9.4,11.7-19.3,16.6-29.5l-6.9-24.3
			l10.6,16.4c5-11.1,9.3-22.5,12.9-34.3l-11.3-28.6l13.6,20.2c3.9-14.6,6.6-29.6,8.1-45.1l-14.8-17.7l15.4,11.4
			c0.5-6.9,0.8-13.9,0.8-20.9c0-3.7-0.1-7.4-0.2-11l-17.9-16.5l17.5,9.7c-0.8-13.3-2.6-26.3-5.2-39l-19.4-11.3l17.8,3.9
			c-3.2-13.7-7.4-27-12.6-39.9l-12-5.4l10.3,1.2c-2.8-6.6-5.8-13-9-19.3c3.8,5.9,7.9,11.8,12.2,17.4l4.1-9.6l-1.3,13.1
			c8.6,10.9,18,21.2,28.2,30.8l5.5-17.4l0.1,22.4c9.7,8.6,20.1,16.6,31.1,24l0.3-20l5.3,23.7c3.1,1.9,6.2,3.9,9.4,5.7
			c6.1,3.5,12.3,6.8,18.5,9.8l-2.2-19l8,21.7c14.1,6.4,28.5,11.6,43.1,15.5l-10.7-21.9l19.1,24c12,2.8,24,4.8,36.1,6l-8.9-17.4
			l17.6,18.1c11.3,0.8,22.6,0.9,33.8,0.3c-5.1-10-10.9-19.7-17.2-29.1L2688.3,1905.8z"/>
		<path d="M2074.1,2293.1c-11.2-0.6-22.5-0.5-33.8,0.3l-17.6,18.1l8.9-17.4c-12.1,1.2-24.2,3.2-36.1,6l-19.1,24l10.7-21.9
			c-14.6,3.9-29,9.1-43.1,15.5l-8,21.7l2.2-19c-6.2,3-12.4,6.3-18.5,9.8c-3.2,1.8-6.3,3.7-9.4,5.7l-5.3,23.7l-0.3-20
			c-11.1,7.4-21.4,15.4-31.1,24l-0.1,22.4l-5.5-17.4c-10.3,9.6-19.7,20-28.2,30.8l1.3,13.1l-4.1-9.6c-4.3,5.7-8.4,11.5-12.2,17.4
			c3.2-6.3,6.2-12.7,9-19.3l-10.3,1.2l12-5.4c5.1-12.9,9.4-26.2,12.6-39.9l-17.8,3.9l19.4-11.3c2.6-12.7,4.4-25.7,5.2-39l-17.5,9.7
			l17.9-16.5c0.1-3.7,0.2-7.3,0.2-11c0-7-0.3-14-0.8-20.9l-15.4,11.4l14.8-17.7c-1.5-15.4-4.2-30.5-8.1-45.1l-13.6,20.2l11.3-28.6
			c-3.5-11.8-7.9-23.2-12.9-34.3l-10.6,16.4l6.9-24.3c-5-10.2-10.5-20-16.6-29.5c-6.1,9.4-11.7,19.3-16.6,29.5l6.9,24.3l-10.6-16.4
			c-5,11.1-9.3,22.5-12.9,34.3l11.3,28.6l-13.6-20.2c-3.9,14.6-6.6,29.6-8.1,45.1l14.8,17.7l-15.4-11.4c-0.5,6.9-0.8,13.9-0.8,20.9
			c0,3.7,0.1,7.4,0.2,11l17.9,16.5l-17.5-9.7c0.8,13.3,2.6,26.3,5.2,39l19.4,11.3l-17.8-3.9c3.2,13.7,7.4,27,12.6,39.9l12,5.4
			l-10.3-1.2c2.8,6.6,5.8,13,9,19.3c-3.8-5.9-7.9-11.8-12.2-17.4l-4.1,9.6l1.3-13.1c-8.6-10.9-18-21.2-28.2-30.8l-5.5,17.4
			l-0.1-22.4c-9.7-8.6-20.1-16.6-31.1-24l-0.3,20l-5.3-23.7c-3.1-1.9-6.2-3.9-9.4-5.7c-6.1-3.5-12.3-6.8-18.5-9.8l2.2,19l-8-21.7
			c-14.1-6.4-28.5-11.6-43.1-15.5l10.7,21.9l-19.1-24c-12-2.8-24-4.8-36.1-6l8.9,17.4l-17.6-18.1c-11.3-0.8-22.6-0.9-33.8-0.3
			c5.1,10,10.9,19.7,17.2,29.1l24.5,6.2l-19.5,1c7.1,9.9,14.8,19.3,23.3,28.3l30.4,4.5l-24.3,1.7c10.7,10.7,22.4,20.6,35,29.6
			l22.7-3.9l-17.5,7.6c5.7,3.9,11.6,7.6,17.7,11.1c3.2,1.8,6.4,3.6,9.6,5.3l23.2-7.2l-17.2,10.3c11.9,5.9,24,10.9,36.3,15l19.5-11.1
			l-12.3,13.4c13.5,4.1,27.1,7.1,40.8,9l10.6-7.7l-6.2,8.3c7.1,0.9,14.1,1.5,21.2,1.9c-7.1,0.4-14.2,1-21.2,1.9l6.2,8.3l-10.6-7.7
			c-13.7,2-27.4,5-40.8,9l12.3,13.4l-19.5-11.1c-12.3,4.1-24.4,9.1-36.3,15l17.2,10.3l-23.2-7.2c-3.2,1.7-6.5,3.5-9.6,5.3
			c-6.1,3.5-12,7.2-17.7,11.1l17.5,7.6l-22.7-3.9c-12.6,9-24.3,18.9-35,29.6l24.3,1.7l-30.4,4.5c-8.4,9-16.2,18.4-23.3,28.3l19.5,1
			l-24.5,6.2c-6.3,9.4-12.1,19.1-17.2,29.1c11.2,0.6,22.5,0.5,33.8-0.3l17.6-18.1l-8.9,17.4c12.1-1.2,24.2-3.2,36.1-6l19.1-24
			l-10.7,21.9c14.6-3.9,29-9.1,43.1-15.5l8-21.7l-2.2,19c6.2-3,12.4-6.3,18.5-9.8c3.2-1.8,6.3-3.7,9.4-5.7l5.3-23.7l0.3,20
			c11.1-7.4,21.4-15.4,31.1-24l0.1-22.4l5.5,17.4c10.3-9.6,19.7-20,28.2-30.8l-1.3-13.1l4.1,9.6c4.3-5.7,8.4-11.5,12.2-17.4
			c-3.2,6.3-6.2,12.7-9,19.3l10.3-1.2l-12,5.4c-5.1,12.9-9.4,26.2-12.6,39.9l17.8-3.9L1771,2541c-2.6,12.7-4.4,25.7-5.2,39l17.5-9.7
			l-17.9,16.5c-0.1,3.7-0.2,7.3-0.2,11c0,7,0.3,14,0.8,20.9l15.4-11.4l-14.8,17.7c1.5,15.4,4.2,30.5,8.1,45.1l13.6-20.2l-11.3,28.6
			c3.5,11.8,7.9,23.2,12.9,34.3l10.6-16.4l-6.9,24.3c5,10.2,10.5,20,16.6,29.5c6.1-9.4,11.7-19.3,16.6-29.5l-6.9-24.3l10.6,16.4
			c5-11.1,9.3-22.5,12.9-34.3l-11.3-28.6l13.6,20.2c3.9-14.6,6.6-29.6,8.1-45.1l-14.8-17.7l15.4,11.4c0.5-6.9,0.8-13.9,0.8-20.9
			c0-3.7-0.1-7.4-0.2-11l-17.9-16.5l17.5,9.7c-0.8-13.3-2.6-26.3-5.2-39l-19.4-11.3l17.8,3.9c-3.2-13.7-7.4-27-12.6-39.9l-12-5.4
			l10.3,1.2c-2.8-6.6-5.8-13-9-19.3c3.8,5.9,7.9,11.8,12.2,17.4l4.1-9.6l-1.3,13.1c8.6,10.9,18,21.2,28.2,30.8l5.5-17.4l0.1,22.4
			c9.7,8.6,20.1,16.6,31.1,24l0.3-20l5.3,23.7c3.1,1.9,6.2,3.9,9.4,5.7c6.1,3.5,12.3,6.8,18.5,9.8l-2.2-19l8,21.7
			c14.1,6.4,28.5,11.6,43.1,15.5l-10.7-21.9l19.1,24c12,2.8,24,4.8,36.1,6l-8.9-17.4l17.6,18.1c11.3,0.8,22.6,0.9,33.8,0.3
			c-5.1-10-10.9-19.7-17.2-29.1l-24.5-6.2l19.5-1c-7.1-9.9-14.8-19.3-23.3-28.3l-30.4-4.5l24.3-1.7c-10.7-10.7-22.4-20.6-35-29.6
			l-22.7,3.9l17.5-7.6c-5.7-3.9-11.6-7.6-17.7-11.1c-3.2-1.8-6.4-3.6-9.6-5.3l-23.2,7.2l17.2-10.3c-11.9-5.9-24-10.9-36.3-15
			l-19.5,11.1l12.3-13.4c-13.5-4.1-27.1-7.1-40.8-9l-10.6,7.7l6.2-8.3c-7.1-0.9-14.1-1.5-21.2-1.9c7.1-0.4,14.2-1,21.2-1.9l-6.2-8.3
			l10.6,7.7c13.7-2,27.4-5,40.8-9l-12.3-13.4l19.5,11.1c12.3-4.1,24.4-9.1,36.3-15l-17.2-10.3l23.2,7.2c3.2-1.7,6.5-3.5,9.6-5.3
			c6.1-3.5,12-7.2,17.7-11.1l-17.5-7.6l22.7,3.9c12.6-9,24.3-18.9,35-29.6l-24.3-1.7l30.4-4.5c8.4-9,16.2-18.4,23.3-28.3l-19.5-1
			l24.5-6.2C2063.2,2312.8,2069,2303.1,2074.1,2293.1z"/>
	</g>
	<g>
		<g>
			<g>
				<g>
					<linearGradient id="SVGID_3_" gradientUnits="userSpaceOnUse" x1="2466.188" y1="2425.3762" x2="2466.188" y2="2120.7524">
						<stop  offset="0" style="stop-color:#006038"/>
						<stop  offset="1" style="stop-color:#C1D82F"/>
					</linearGradient>
					<path fill="url(#SVGID_3_)" d="M2479.2,2382.4l12-5.4c5.1-12.9,9.4-26.2,12.6-39.9l-17.8,3.9l19.4-11.3
						c2.6-12.7,4.4-25.7,5.2-39l-17.5,9.7l17.9-16.5c0.1-3.7,0.2-7.3,0.2-11c0-7-0.3-14-0.8-20.9l-15.4,11.4l14.8-17.7
						c-1.5-15.4-4.2-30.5-8.1-45.1l-13.6,20.2l11.3-28.6c-3.5-11.8-7.9-23.2-12.9-34.3l-10.6,16.4l6.9-24.3
						c-5-10.2-10.5-20-16.6-29.5c-6.1,9.4-11.7,19.3-16.6,29.5l6.9,24.3l-10.6-16.4c-5,11.1-9.3,22.5-12.9,34.3l11.3,28.6
						l-13.6-20.2c-3.9,14.6-6.6,29.6-8.1,45.1l14.8,17.7l-15.4-11.4c-0.5,6.9-0.8,13.9-0.8,20.9c0,3.7,0.1,7.4,0.2,11l17.9,16.5
						l-17.5-9.7c0.8,13.3,2.6,26.3,5.2,39l19.4,11.3l-17.8-3.9c3.2,13.7,7.4,27,12.6,39.9l12,5.4l-10.3-1.2
						c6.5,15.5,14.3,30.3,23.4,44.2c9-13.9,16.9-28.7,23.4-44.2L2479.2,2382.4z"/>
					<g opacity="0.1">
						<path d="M2462.6,2419.6c1.2,1.9,2.3,3.9,3.5,5.7c1.2-1.9,2.4-3.8,3.5-5.7l-3.5-230.4L2462.6,2419.6z"/>
					</g>
				</g>
			</g>
			<g>
				<g>
					
						<linearGradient id="SVGID_4_" gradientUnits="userSpaceOnUse" x1="1743.6761" y1="2428.3828" x2="1743.6761" y2="2123.759" gradientTransform="matrix(-1 0 0 -1 4209.8643 4853.7593)">
						<stop  offset="0" style="stop-color:#006038"/>
						<stop  offset="1" style="stop-color:#C1D82F"/>
					</linearGradient>
					<path fill="url(#SVGID_4_)" d="M2453.1,2468.4l-12,5.4c-5.1,12.9-9.4,26.2-12.6,39.9l17.8-3.9L2427,2521
						c-2.6,12.7-4.4,25.7-5.2,39l17.5-9.7l-17.9,16.5c-0.1,3.7-0.2,7.3-0.2,11c0,7,0.3,14,0.8,20.9l15.4-11.4l-14.8,17.7
						c1.5,15.4,4.2,30.5,8.1,45.1l13.6-20.2l-11.3,28.6c3.5,11.8,7.9,23.2,12.9,34.3l10.6-16.4l-6.9,24.3c5,10.2,10.5,20,16.6,29.5
						c6.1-9.4,11.7-19.3,16.6-29.5l-6.9-24.3l10.6,16.4c5-11.1,9.3-22.5,12.9-34.3l-11.3-28.6l13.6,20.2c3.9-14.6,6.6-29.6,8.1-45.1
						l-14.8-17.7l15.4,11.4c0.5-6.9,0.8-13.9,0.8-20.9c0-3.7-0.1-7.4-0.2-11l-17.9-16.5l17.5,9.7c-0.8-13.3-2.6-26.3-5.2-39
						l-19.4-11.3l17.8,3.9c-3.2-13.7-7.4-27-12.6-39.9l-12-5.4l10.3,1.2c-6.5-15.5-14.3-30.3-23.4-44.2c-9,13.9-16.9,28.7-23.4,44.2
						L2453.1,2468.4z"/>
					<g opacity="0.1">
						<path d="M2469.7,2431.1c-1.2-1.9-2.3-3.9-3.5-5.7c-1.2,1.9-2.4,3.8-3.5,5.7l3.5,230.4L2469.7,2431.1z"/>
					</g>
				</g>
			</g>
			<g>
				<g>
					
						<linearGradient id="SVGID_5_" gradientUnits="userSpaceOnUse" x1="2139.5334" y1="2653.9246" x2="2139.5334" y2="2349.3008" gradientTransform="matrix(0.5 -0.866 0.866 0.5 -901.9446 2951.3042)">
						<stop  offset="0" style="stop-color:#006038"/>
						<stop  offset="1" style="stop-color:#C1D82F"/>
					</linearGradient>
					<path fill="url(#SVGID_5_)" d="M2435.5,2392.6l1.3-13.1c-8.6-10.9-18-21.2-28.2-30.8l-5.5,17.4l-0.1-22.4
						c-9.7-8.6-20.1-16.6-31.1-24l-0.3,20l-5.3-23.7c-3.1-1.9-6.2-3.9-9.4-5.7c-6.1-3.5-12.3-6.8-18.5-9.8l2.2,19l-8-21.7
						c-14.1-6.4-28.5-11.6-43.1-15.5l10.7,21.9l-19.1-24c-12-2.8-24-4.8-36.1-6l8.9,17.4l-17.6-18.1c-11.3-0.8-22.6-0.9-33.8-0.3
						c5.1,10,10.9,19.7,17.2,29.1l24.5,6.2l-19.5,1c7.1,9.9,14.8,19.3,23.3,28.3l30.4,4.5l-24.3,1.7c10.7,10.7,22.4,20.6,35,29.6
						l22.7-3.9l-17.5,7.6c5.7,3.9,11.6,7.6,17.7,11.1c3.2,1.8,6.4,3.6,9.6,5.3l23.2-7.2l-17.2,10.3c11.9,5.9,24,10.9,36.3,15
						l19.5-11.1l-12.3,13.4c13.5,4.1,27.1,7.1,40.8,9l10.6-7.7l-6.2,8.3c16.7,2.1,33.4,2.7,50,1.9c-7.5-14.8-16.4-29-26.6-42.3
						L2435.5,2392.6z"/>
					<g opacity="0.1">
						<path d="M2459.4,2425.6c2.3-0.1,4.5-0.1,6.8-0.2c-1-2-2.1-4-3.2-5.9l-201.3-112.1L2459.4,2425.6z"/>
					</g>
				</g>
			</g>
			<g>
				<g>
					
						<linearGradient id="SVGID_6_" gradientUnits="userSpaceOnUse" x1="2070.3308" y1="2199.8345" x2="2070.3308" y2="1895.2108" gradientTransform="matrix(-0.5 0.866 -0.866 -0.5 5406.4663 1732.3344)">
						<stop  offset="0" style="stop-color:#006038"/>
						<stop  offset="1" style="stop-color:#C1D82F"/>
					</linearGradient>
					<path fill="url(#SVGID_6_)" d="M2496.9,2458.2l-1.3,13.1c8.6,10.9,18,21.2,28.2,30.8l5.5-17.4l0.1,22.4
						c9.7,8.6,20.1,16.6,31.1,24l0.3-20l5.3,23.7c3.1,1.9,6.2,3.9,9.4,5.7c6.1,3.5,12.3,6.8,18.5,9.8l-2.2-19l8,21.7
						c14.1,6.4,28.5,11.6,43.1,15.5l-10.7-21.9l19.1,24c12,2.8,24,4.8,36.1,6l-8.9-17.4l17.6,18.1c11.3,0.8,22.6,0.9,33.8,0.3
						c-5.1-10-10.9-19.7-17.2-29.1l-24.5-6.2l19.5-1c-7.1-9.9-14.8-19.3-23.3-28.3l-30.4-4.5l24.3-1.7c-10.7-10.7-22.4-20.6-35-29.6
						l-22.7,3.9l17.5-7.6c-5.7-3.9-11.6-7.6-17.7-11.1c-3.2-1.8-6.4-3.6-9.6-5.3l-23.2,7.2l17.2-10.3c-11.9-5.9-24-10.9-36.3-15
						l-19.5,11.1l12.3-13.4c-13.5-4.1-27.1-7.1-40.8-9l-10.6,7.7l6.2-8.3c-16.7-2.1-33.4-2.7-50-1.9c7.5,14.8,16.4,29,26.6,42.3
						L2496.9,2458.2z"/>
					<g opacity="0.1">
						<path d="M2472.9,2425.2c-2.3,0.1-4.5,0.1-6.8,0.2c1,2,2.1,4,3.2,5.9l201.3,112.1L2472.9,2425.2z"/>
					</g>
				</g>
			</g>
			<g>
				<g>
					
						<linearGradient id="SVGID_7_" gradientUnits="userSpaceOnUse" x1="1778.2773" y1="2485.3074" x2="1778.2773" y2="2180.6836" gradientTransform="matrix(-0.5 -0.866 0.866 -0.5 1202.9875 5208.0635)">
						<stop  offset="0" style="stop-color:#006038"/>
						<stop  offset="1" style="stop-color:#C1D82F"/>
					</linearGradient>
					<path fill="url(#SVGID_7_)" d="M2422.4,2435.6l-10.6-7.7c-13.7,2-27.4,5-40.8,9l12.3,13.4l-19.5-11.1
						c-12.3,4.1-24.4,9.1-36.3,15l17.2,10.3l-23.2-7.2c-3.2,1.7-6.5,3.5-9.6,5.3c-6.1,3.5-12,7.2-17.7,11.1l17.5,7.6l-22.7-3.9
						c-12.6,9-24.3,18.9-35,29.6l24.3,1.7l-30.4,4.5c-8.4,9-16.2,18.4-23.3,28.3l19.5,1l-24.5,6.2c-6.3,9.4-12.1,19.1-17.2,29.1
						c11.2,0.6,22.5,0.5,33.8-0.3l17.6-18.1l-8.9,17.4c12.1-1.2,24.2-3.2,36.1-6l19.1-24l-10.7,21.9c14.6-3.9,29-9.1,43.1-15.5
						l8-21.7l-2.2,19c6.2-3,12.4-6.3,18.5-9.8c3.2-1.8,6.3-3.7,9.4-5.7l5.3-23.7l0.3,20c11.1-7.4,21.4-15.4,31.1-24l0.1-22.4
						l5.5,17.4c10.3-9.6,19.7-20,28.2-30.8l-1.3-13.1l4.1,9.6c10.2-13.4,19.1-27.5,26.6-42.3c-16.6-0.9-33.3-0.2-50,1.9
						L2422.4,2435.6z"/>
					<g opacity="0.1">
						<path d="M2463,2431.3c1.1-2,2.2-3.9,3.2-5.9c-2.2-0.1-4.5-0.1-6.8-0.2l-197.8,118.3L2463,2431.3z"/>
					</g>
				</g>
			</g>
			<g>
				<g>
					
						<linearGradient id="SVGID_8_" gradientUnits="userSpaceOnUse" x1="2431.5869" y1="2368.4517" x2="2431.5869" y2="2063.8281" gradientTransform="matrix(0.5 0.866 -0.866 0.5 3301.5339 -864.6656)">
						<stop  offset="0" style="stop-color:#006038"/>
						<stop  offset="1" style="stop-color:#C1D82F"/>
					</linearGradient>
					<path fill="url(#SVGID_8_)" d="M2509.9,2415.2l10.6,7.7c13.7-2,27.4-5,40.8-9l-12.3-13.4l19.5,11.1c12.3-4.1,24.4-9.1,36.3-15
						l-17.2-10.3l23.2,7.2c3.2-1.7,6.5-3.5,9.6-5.3c6.1-3.5,12-7.2,17.7-11.1l-17.5-7.6l22.7,3.9c12.6-9,24.3-18.9,35-29.6
						l-24.3-1.7l30.4-4.5c8.4-9,16.2-18.4,23.3-28.3l-19.5-1l24.5-6.2c6.3-9.4,12.1-19.1,17.2-29.1c-11.2-0.6-22.5-0.5-33.8,0.3
						l-17.6,18.1l8.9-17.4c-12.1,1.2-24.2,3.2-36.1,6l-19.1,24l10.7-21.9c-14.6,3.9-29,9.1-43.1,15.5l-8,21.7l2.2-19
						c-6.2,3-12.4,6.3-18.5,9.8c-3.2,1.8-6.3,3.7-9.4,5.7l-5.3,23.7l-0.3-20c-11.1,7.4-21.4,15.4-31.1,24l-0.1,22.4l-5.5-17.4
						c-10.3,9.6-19.7,20-28.2,30.8l1.3,13.1l-4.1-9.6c-10.2,13.4-19.1,27.5-26.6,42.3c16.6,0.9,33.3,0.2,50-1.9L2509.9,2415.2z"/>
					<g opacity="0.1">
						<path d="M2469.4,2419.4c-1.1,2-2.2,3.9-3.2,5.9c2.2,0.1,4.5,0.1,6.8,0.2l197.8-118.3L2469.4,2419.4z"/>
					</g>
				</g>
			</g>
		</g>
		<g>
			<g>
				<g>
					<linearGradient id="SVGID_9_" gradientUnits="userSpaceOnUse" x1="2466.188" y1="1768.817" x2="2466.188" y2="1464.1932">
						<stop  offset="0" style="stop-color:#006038"/>
						<stop  offset="1" style="stop-color:#C1D82F"/>
					</linearGradient>
					<path fill="url(#SVGID_9_)" d="M2479.2,1725.8l12-5.4c5.1-12.9,9.4-26.2,12.6-39.9l-17.8,3.9l19.4-11.3
						c2.6-12.7,4.4-25.7,5.2-39l-17.5,9.7l17.9-16.5c0.1-3.7,0.2-7.3,0.2-11c0-7-0.3-14-0.8-20.9l-15.4,11.4l14.8-17.7
						c-1.5-15.4-4.2-30.5-8.1-45.1l-13.6,20.2l11.3-28.6c-3.5-11.8-7.9-23.2-12.9-34.3l-10.6,16.4l6.9-24.3
						c-5-10.2-10.5-20-16.6-29.5c-6.1,9.4-11.7,19.3-16.6,29.5l6.9,24.3l-10.6-16.4c-5,11.1-9.3,22.5-12.9,34.3l11.3,28.6
						l-13.6-20.2c-3.9,14.6-6.6,29.6-8.1,45.1l14.8,17.7l-15.4-11.4c-0.5,6.9-0.8,13.9-0.8,20.9c0,3.7,0.1,7.4,0.2,11l17.9,16.5
						l-17.5-9.7c0.8,13.3,2.6,26.3,5.2,39l19.4,11.3l-17.8-3.9c3.2,13.7,7.4,27,12.6,39.9l12,5.4l-10.3-1.2
						c6.5,15.5,14.3,30.3,23.4,44.2c9-13.9,16.9-28.7,23.4-44.2L2479.2,1725.8z"/>
					<g opacity="0.1">
						<path d="M2462.6,1763.1c1.2,1.9,2.3,3.9,3.5,5.7c1.2-1.9,2.4-3.8,3.5-5.7l-3.5-230.4L2462.6,1763.1z"/>
					</g>
				</g>
			</g>
			<g>
				<g>
					
						<linearGradient id="SVGID_10_" gradientUnits="userSpaceOnUse" x1="1743.6761" y1="3084.9421" x2="1743.6761" y2="2780.3184" gradientTransform="matrix(-1 0 0 -1 4209.8643 4853.7593)">
						<stop  offset="0" style="stop-color:#006038"/>
						<stop  offset="1" style="stop-color:#C1D82F"/>
					</linearGradient>
					<path fill="url(#SVGID_10_)" d="M2453.1,1811.8l-12,5.4c-5.1,12.9-9.4,26.2-12.6,39.9l17.8-3.9l-19.4,11.3
						c-2.6,12.7-4.4,25.7-5.2,39l17.5-9.7l-17.9,16.5c-0.1,3.7-0.2,7.3-0.2,11c0,7,0.3,14,0.8,20.9l15.4-11.4l-14.8,17.7
						c1.5,15.4,4.2,30.5,8.1,45.1l13.6-20.2l-11.3,28.6c3.5,11.8,7.9,23.2,12.9,34.3l10.6-16.4l-6.9,24.3c5,10.2,10.5,20,16.6,29.5
						c6.1-9.4,11.7-19.3,16.6-29.5l-6.9-24.3l10.6,16.4c5-11.1,9.3-22.5,12.9-34.3l-11.3-28.6l13.6,20.2c3.9-14.6,6.6-29.6,8.1-45.1
						l-14.8-17.7l15.4,11.4c0.5-6.9,0.8-13.9,0.8-20.9c0-3.7-0.1-7.4-0.2-11l-17.9-16.5l17.5,9.7c-0.8-13.3-2.6-26.3-5.2-39
						l-19.4-11.3l17.8,3.9c-3.2-13.7-7.4-27-12.6-39.9l-12-5.4l10.3,1.2c-6.5-15.5-14.3-30.3-23.4-44.2c-9,13.9-16.9,28.7-23.4,44.2
						L2453.1,1811.8z"/>
					<g opacity="0.1">
						<path d="M2469.7,1774.6c-1.2-1.9-2.3-3.9-3.5-5.7c-1.2,1.9-2.4,3.8-3.5,5.7l3.5,230.4L2469.7,1774.6z"/>
					</g>
				</g>
			</g>
			<g>
				<g>
					
						<linearGradient id="SVGID_11_" gradientUnits="userSpaceOnUse" x1="2708.1304" y1="2325.6448" x2="2708.1304" y2="2021.0211" gradientTransform="matrix(0.5 -0.866 0.866 0.5 -901.9446 2951.3042)">
						<stop  offset="0" style="stop-color:#006038"/>
						<stop  offset="1" style="stop-color:#C1D82F"/>
					</linearGradient>
					<path fill="url(#SVGID_11_)" d="M2435.5,1736l1.3-13.1c-8.6-10.9-18-21.2-28.2-30.8l-5.5,17.4l-0.1-22.4
						c-9.7-8.6-20.1-16.6-31.1-24l-0.3,20l-5.3-23.7c-3.1-1.9-6.2-3.9-9.4-5.7c-6.1-3.5-12.3-6.8-18.5-9.8l2.2,19l-8-21.7
						c-14.1-6.4-28.5-11.6-43.1-15.5l10.7,21.9l-19.1-24c-12-2.8-24-4.8-36.1-6l8.9,17.4l-17.6-18.1c-11.3-0.8-22.6-0.9-33.8-0.3
						c5.1,10,10.9,19.7,17.2,29.1l24.5,6.2l-19.5,1c7.1,9.9,14.8,19.3,23.3,28.3l30.4,4.5l-24.3,1.7c10.7,10.7,22.4,20.6,35,29.6
						l22.7-3.9l-17.5,7.6c5.7,3.9,11.6,7.6,17.7,11.1c3.2,1.8,6.4,3.6,9.6,5.3l23.2-7.2l-17.2,10.3c11.9,5.9,24,10.9,36.3,15
						l19.5-11.1l-12.3,13.4c13.5,4.1,27.1,7.1,40.8,9l10.6-7.7l-6.2,8.3c16.7,2.1,33.4,2.7,50,1.9c-7.5-14.8-16.4-29-26.6-42.3
						L2435.5,1736z"/>
					<g opacity="0.1">
						<path d="M2459.4,1769c2.3-0.1,4.5-0.1,6.8-0.2c-1-2-2.1-4-3.2-5.9l-201.3-112.1L2459.4,1769z"/>
					</g>
				</g>
			</g>
			<g>
				<g>
					
						<linearGradient id="SVGID_12_" gradientUnits="userSpaceOnUse" x1="1501.7339" y1="2528.1143" x2="1501.7339" y2="2223.4905" gradientTransform="matrix(-0.5 0.866 -0.866 -0.5 5406.4663 1732.3344)">
						<stop  offset="0" style="stop-color:#006038"/>
						<stop  offset="1" style="stop-color:#C1D82F"/>
					</linearGradient>
					<path fill="url(#SVGID_12_)" d="M2496.9,1801.6l-1.3,13.1c8.6,10.9,18,21.2,28.2,30.8l5.5-17.4l0.1,22.4
						c9.7,8.6,20.1,16.6,31.1,24l0.3-20l5.3,23.7c3.1,1.9,6.2,3.9,9.4,5.7c6.1,3.5,12.3,6.8,18.5,9.8l-2.2-19l8,21.7
						c14.1,6.4,28.5,11.6,43.1,15.5l-10.7-21.9l19.1,24c12,2.8,24,4.8,36.1,6l-8.9-17.4l17.6,18.1c11.3,0.8,22.6,0.9,33.8,0.3
						c-5.1-10-10.9-19.7-17.2-29.1l-24.5-6.2l19.5-1c-7.1-9.9-14.8-19.3-23.3-28.3l-30.4-4.5l24.3-1.7c-10.7-10.7-22.4-20.6-35-29.6
						l-22.7,3.9l17.5-7.6c-5.7-3.9-11.6-7.6-17.7-11.1c-3.2-1.8-6.4-3.6-9.6-5.3l-23.2,7.2l17.2-10.3c-11.9-5.9-24-10.9-36.3-15
						l-19.5,11.1l12.3-13.4c-13.5-4.1-27.1-7.1-40.8-9l-10.6,7.7l6.2-8.3c-16.7-2.1-33.4-2.7-50-1.9c7.5,14.8,16.4,29,26.6,42.3
						L2496.9,1801.6z"/>
					<g opacity="0.1">
						<path d="M2472.9,1768.6c-2.3,0.1-4.5,0.1-6.8,0.2c1,2,2.1,4,3.2,5.9l201.3,112.1L2472.9,1768.6z"/>
					</g>
				</g>
			</g>
			<g>
				<g>
					
						<linearGradient id="SVGID_13_" gradientUnits="userSpaceOnUse" x1="2346.8745" y1="2813.5869" x2="2346.8745" y2="2508.9631" gradientTransform="matrix(-0.5 -0.866 0.866 -0.5 1202.9875 5208.0635)">
						<stop  offset="0" style="stop-color:#006038"/>
						<stop  offset="1" style="stop-color:#C1D82F"/>
					</linearGradient>
					<path fill="url(#SVGID_13_)" d="M2422.4,1779l-10.6-7.7c-13.7,2-27.4,5-40.8,9l12.3,13.4l-19.5-11.1
						c-12.3,4.1-24.4,9.1-36.3,15l17.2,10.3l-23.2-7.2c-3.2,1.7-6.5,3.5-9.6,5.3c-6.1,3.5-12,7.2-17.7,11.1l17.5,7.6l-22.7-3.9
						c-12.6,9-24.3,18.9-35,29.6l24.3,1.7l-30.4,4.5c-8.4,9-16.2,18.4-23.3,28.3l19.5,1l-24.5,6.2c-6.3,9.4-12.1,19.1-17.2,29.1
						c11.2,0.6,22.5,0.5,33.8-0.3l17.6-18.1l-8.9,17.4c12.1-1.2,24.2-3.2,36.1-6l19.1-24l-10.7,21.9c14.6-3.9,29-9.1,43.1-15.5
						l8-21.7l-2.2,19c6.2-3,12.4-6.3,18.5-9.8c3.2-1.8,6.3-3.7,9.4-5.7l5.3-23.7l0.3,20c11.1-7.4,21.4-15.4,31.1-24l0.1-22.4
						l5.5,17.4c10.3-9.6,19.7-20,28.2-30.8l-1.3-13.1l4.1,9.6c10.2-13.4,19.1-27.5,26.6-42.3c-16.6-0.9-33.3-0.2-50,1.9L2422.4,1779
						z"/>
					<g opacity="0.1">
						<path d="M2463,1774.8c1.1-2,2.2-3.9,3.2-5.9c-2.2-0.1-4.5-0.1-6.8-0.2l-197.8,118.3L2463,1774.8z"/>
					</g>
				</g>
			</g>
			<g>
				<g>
					
						<linearGradient id="SVGID_14_" gradientUnits="userSpaceOnUse" x1="1862.9899" y1="2040.1721" x2="1862.9899" y2="1735.5483" gradientTransform="matrix(0.5 0.866 -0.866 0.5 3301.5339 -864.6656)">
						<stop  offset="0" style="stop-color:#006038"/>
						<stop  offset="1" style="stop-color:#C1D82F"/>
					</linearGradient>
					<path fill="url(#SVGID_14_)" d="M2509.9,1758.6l10.6,7.7c13.7-2,27.4-5,40.8-9l-12.3-13.4l19.5,11.1c12.3-4.1,24.4-9.1,36.3-15
						l-17.2-10.3l23.2,7.2c3.2-1.7,6.5-3.5,9.6-5.3c6.1-3.5,12-7.2,17.7-11.1l-17.5-7.6l22.7,3.9c12.6-9,24.3-18.9,35-29.6
						l-24.3-1.7l30.4-4.5c8.4-9,16.2-18.4,23.3-28.3l-19.5-1l24.5-6.2c6.3-9.4,12.1-19.1,17.2-29.1c-11.2-0.6-22.5-0.5-33.8,0.3
						l-17.6,18.1l8.9-17.4c-12.1,1.2-24.2,3.2-36.1,6l-19.1,24l10.7-21.9c-14.6,3.9-29,9.1-43.1,15.5l-8,21.7l2.2-19
						c-6.2,3-12.4,6.3-18.5,9.8c-3.2,1.8-6.3,3.7-9.4,5.7l-5.3,23.7l-0.3-20c-11.1,7.4-21.4,15.4-31.1,24l-0.1,22.4l-5.5-17.4
						c-10.3,9.6-19.7,20-28.2,30.8l1.3,13.1l-4.1-9.6c-10.2,13.4-19.1,27.5-26.6,42.3c16.6,0.9,33.3,0.2,50-1.9L2509.9,1758.6z"/>
					<g opacity="0.1">
						<path d="M2469.4,1762.9c-1.1,2-2.2,3.9-3.2,5.9c2.2,0.1,4.5,0.1,6.8,0.2l197.8-118.3L2469.4,1762.9z"/>
					</g>
				</g>
			</g>
		</g>
		<g>
			<g>
				<g>
					<linearGradient id="SVGID_15_" gradientUnits="userSpaceOnUse" x1="1810.2511" y1="2425.3762" x2="1810.2511" y2="2120.7524">
						<stop  offset="0" style="stop-color:#006038"/>
						<stop  offset="1" style="stop-color:#C1D82F"/>
					</linearGradient>
					<path fill="url(#SVGID_15_)" d="M1823.3,2382.4l12-5.4c5.1-12.9,9.4-26.2,12.6-39.9l-17.8,3.9l19.4-11.3
						c2.6-12.7,4.4-25.7,5.2-39l-17.5,9.7l17.9-16.5c0.1-3.7,0.2-7.3,0.2-11c0-7-0.3-14-0.8-20.9l-15.4,11.4l14.8-17.7
						c-1.5-15.4-4.2-30.5-8.1-45.1l-13.6,20.2l11.3-28.6c-3.5-11.8-7.9-23.2-12.9-34.3l-10.6,16.4l6.9-24.3
						c-5-10.2-10.5-20-16.6-29.5c-6.1,9.4-11.7,19.3-16.6,29.5l6.9,24.3l-10.6-16.4c-5,11.1-9.3,22.5-12.9,34.3l11.3,28.6
						l-13.6-20.2c-3.9,14.6-6.6,29.6-8.1,45.1l14.8,17.7l-15.4-11.4c-0.5,6.9-0.8,13.9-0.8,20.9c0,3.7,0.1,7.4,0.2,11l17.9,16.5
						l-17.5-9.7c0.8,13.3,2.6,26.3,5.2,39l19.4,11.3l-17.8-3.9c3.2,13.7,7.4,27,12.6,39.9l12,5.4l-10.3-1.2
						c6.5,15.5,14.3,30.3,23.4,44.2c9-13.9,16.9-28.7,23.4-44.2L1823.3,2382.4z"/>
					<g opacity="0.1">
						<path d="M1806.7,2419.6c1.2,1.9,2.3,3.9,3.5,5.7c1.2-1.9,2.4-3.8,3.5-5.7l-3.5-230.4L1806.7,2419.6z"/>
					</g>
				</g>
			</g>
			<g>
				<g>
					
						<linearGradient id="SVGID_16_" gradientUnits="userSpaceOnUse" x1="2399.613" y1="2428.3828" x2="2399.613" y2="2123.759" gradientTransform="matrix(-1 0 0 -1 4209.8643 4853.7593)">
						<stop  offset="0" style="stop-color:#006038"/>
						<stop  offset="1" style="stop-color:#C1D82F"/>
					</linearGradient>
					<path fill="url(#SVGID_16_)" d="M1797.2,2468.4l-12,5.4c-5.1,12.9-9.4,26.2-12.6,39.9l17.8-3.9L1771,2521
						c-2.6,12.7-4.4,25.7-5.2,39l17.5-9.7l-17.9,16.5c-0.1,3.7-0.2,7.3-0.2,11c0,7,0.3,14,0.8,20.9l15.4-11.4l-14.8,17.7
						c1.5,15.4,4.2,30.5,8.1,45.1l13.6-20.2l-11.3,28.6c3.5,11.8,7.9,23.2,12.9,34.3l10.6-16.4l-6.9,24.3c5,10.2,10.5,20,16.6,29.5
						c6.1-9.4,11.7-19.3,16.6-29.5l-6.9-24.3l10.6,16.4c5-11.1,9.3-22.5,12.9-34.3l-11.3-28.6l13.6,20.2c3.9-14.6,6.6-29.6,8.1-45.1
						l-14.8-17.7l15.4,11.4c0.5-6.9,0.8-13.9,0.8-20.9c0-3.7-0.1-7.4-0.2-11l-17.9-16.5l17.5,9.7c-0.8-13.3-2.6-26.3-5.2-39
						l-19.4-11.3l17.8,3.9c-3.2-13.7-7.4-27-12.6-39.9l-12-5.4l10.3,1.2c-6.5-15.5-14.3-30.3-23.4-44.2c-9,13.9-16.9,28.7-23.4,44.2
						L1797.2,2468.4z"/>
					<g opacity="0.1">
						<path d="M1813.8,2431.1c-1.2-1.9-2.3-3.9-3.5-5.7c-1.2,1.9-2.4,3.8-3.5,5.7l3.5,230.4L1813.8,2431.1z"/>
					</g>
				</g>
			</g>
			<g>
				<g>
					
						<linearGradient id="SVGID_17_" gradientUnits="userSpaceOnUse" x1="1811.5648" y1="2085.8665" x2="1811.5648" y2="1781.2427" gradientTransform="matrix(0.5 -0.866 0.866 0.5 -901.9446 2951.3042)">
						<stop  offset="0" style="stop-color:#006038"/>
						<stop  offset="1" style="stop-color:#C1D82F"/>
					</linearGradient>
					<path fill="url(#SVGID_17_)" d="M1779.6,2392.6l1.3-13.1c-8.6-10.9-18-21.2-28.2-30.8l-5.5,17.4l-0.1-22.4
						c-9.7-8.6-20.1-16.6-31.1-24l-0.3,20l-5.3-23.7c-3.1-1.9-6.2-3.9-9.4-5.7c-6.1-3.5-12.3-6.8-18.5-9.8l2.2,19l-8-21.7
						c-14.1-6.4-28.5-11.6-43.1-15.5l10.7,21.9l-19.1-24c-12-2.8-24-4.8-36.1-6l8.9,17.4l-17.6-18.1c-11.3-0.8-22.6-0.9-33.8-0.3
						c5.1,10,10.9,19.7,17.2,29.1l24.5,6.2l-19.5,1c7.1,9.9,14.8,19.3,23.3,28.3l30.4,4.5l-24.3,1.7c10.7,10.7,22.4,20.6,35,29.6
						l22.7-3.9l-17.5,7.6c5.7,3.9,11.6,7.6,17.7,11.1c3.2,1.8,6.4,3.6,9.6,5.3l23.2-7.2l-17.2,10.3c11.9,5.9,24,10.9,36.3,15
						l19.5-11.1l-12.3,13.4c13.5,4.1,27.1,7.1,40.8,9l10.6-7.7l-6.2,8.3c16.7,2.1,33.4,2.7,50,1.9c-7.5-14.8-16.4-29-26.6-42.3
						L1779.6,2392.6z"/>
					<g opacity="0.1">
						<path d="M1803.5,2425.6c2.3-0.1,4.5-0.1,6.8-0.2c-1-2-2.1-4-3.2-5.9l-201.3-112.1L1803.5,2425.6z"/>
					</g>
				</g>
			</g>
			<g>
				<g>
					
						<linearGradient id="SVGID_18_" gradientUnits="userSpaceOnUse" x1="2398.2993" y1="2767.8926" x2="2398.2993" y2="2463.2688" gradientTransform="matrix(-0.5 0.866 -0.866 -0.5 5406.4663 1732.3344)">
						<stop  offset="0" style="stop-color:#006038"/>
						<stop  offset="1" style="stop-color:#C1D82F"/>
					</linearGradient>
					<path fill="url(#SVGID_18_)" d="M1840.9,2458.2l-1.3,13.1c8.6,10.9,18,21.2,28.2,30.8l5.5-17.4l0.1,22.4
						c9.7,8.6,20.1,16.6,31.1,24l0.3-20l5.3,23.7c3.1,1.9,6.2,3.9,9.4,5.7c6.1,3.5,12.3,6.8,18.5,9.8l-2.2-19l8,21.7
						c14.1,6.4,28.5,11.6,43.1,15.5l-10.7-21.9l19.1,24c12,2.8,24,4.8,36.1,6l-8.9-17.4l17.6,18.1c11.3,0.8,22.6,0.9,33.8,0.3
						c-5.1-10-10.9-19.7-17.2-29.1l-24.5-6.2l19.5-1c-7.1-9.9-14.8-19.3-23.3-28.3l-30.4-4.5l24.3-1.7c-10.7-10.7-22.4-20.6-35-29.6
						l-22.7,3.9l17.5-7.6c-5.7-3.9-11.6-7.6-17.7-11.1c-3.2-1.8-6.4-3.6-9.6-5.3l-23.2,7.2l17.2-10.3c-11.9-5.9-24-10.9-36.3-15
						l-19.5,11.1l12.3-13.4c-13.5-4.1-27.1-7.1-40.8-9l-10.6,7.7l6.2-8.3c-16.7-2.1-33.4-2.7-50-1.9c7.5,14.8,16.4,29,26.6,42.3
						L1840.9,2458.2z"/>
					<g opacity="0.1">
						<path d="M1817,2425.2c-2.3,0.1-4.5,0.1-6.8,0.2c1,2,2.1,4,3.2,5.9l201.3,112.1L1817,2425.2z"/>
					</g>
				</g>
			</g>
			<g>
				<g>
					
						<linearGradient id="SVGID_19_" gradientUnits="userSpaceOnUse" x1="2106.2458" y1="1917.2493" x2="2106.2458" y2="1612.6255" gradientTransform="matrix(-0.5 -0.866 0.866 -0.5 1202.9875 5208.0635)">
						<stop  offset="0" style="stop-color:#006038"/>
						<stop  offset="1" style="stop-color:#C1D82F"/>
					</linearGradient>
					<path fill="url(#SVGID_19_)" d="M1766.5,2435.6l-10.6-7.7c-13.7,2-27.4,5-40.8,9l12.3,13.4l-19.5-11.1
						c-12.3,4.1-24.4,9.1-36.3,15l17.2,10.3l-23.2-7.2c-3.2,1.7-6.5,3.5-9.6,5.3c-6.1,3.5-12,7.2-17.7,11.1l17.5,7.6l-22.7-3.9
						c-12.6,9-24.3,18.9-35,29.6l24.3,1.7l-30.4,4.5c-8.4,9-16.2,18.4-23.3,28.3l19.5,1l-24.5,6.2c-6.3,9.4-12.1,19.1-17.2,29.1
						c11.2,0.6,22.5,0.5,33.8-0.3l17.6-18.1l-8.9,17.4c12.1-1.2,24.2-3.2,36.1-6l19.1-24l-10.7,21.9c14.6-3.9,29-9.1,43.1-15.5
						l8-21.7l-2.2,19c6.2-3,12.4-6.3,18.5-9.8c3.2-1.8,6.3-3.7,9.4-5.7l5.3-23.7l0.3,20c11.1-7.4,21.4-15.4,31.1-24l0.1-22.4
						l5.5,17.4c10.3-9.6,19.7-20,28.2-30.8l-1.3-13.1l4.1,9.6c10.2-13.4,19.1-27.5,26.6-42.3c-16.6-0.9-33.3-0.2-50,1.9
						L1766.5,2435.6z"/>
					<g opacity="0.1">
						<path d="M1807,2431.3c1.1-2,2.2-3.9,3.2-5.9c-2.2-0.1-4.5-0.1-6.8-0.2l-197.8,118.3L1807,2431.3z"/>
					</g>
				</g>
			</g>
			<g>
				<g>
					
						<linearGradient id="SVGID_20_" gradientUnits="userSpaceOnUse" x1="2103.6184" y1="2936.5098" x2="2103.6184" y2="2631.886" gradientTransform="matrix(0.5 0.866 -0.866 0.5 3301.5339 -864.6656)">
						<stop  offset="0" style="stop-color:#006038"/>
						<stop  offset="1" style="stop-color:#C1D82F"/>
					</linearGradient>
					<path fill="url(#SVGID_20_)" d="M1854,2415.2l10.6,7.7c13.7-2,27.4-5,40.8-9l-12.3-13.4l19.5,11.1c12.3-4.1,24.4-9.1,36.3-15
						l-17.2-10.3l23.2,7.2c3.2-1.7,6.5-3.5,9.6-5.3c6.1-3.5,12-7.2,17.7-11.1l-17.5-7.6l22.7,3.9c12.6-9,24.3-18.9,35-29.6
						l-24.3-1.7l30.4-4.5c8.4-9,16.2-18.4,23.3-28.3l-19.5-1l24.5-6.2c6.3-9.4,12.1-19.1,17.2-29.1c-11.2-0.6-22.5-0.5-33.8,0.3
						l-17.6,18.1l8.9-17.4c-12.1,1.2-24.2,3.2-36.1,6l-19.1,24l10.7-21.9c-14.6,3.9-29,9.1-43.1,15.5l-8,21.7l2.2-19
						c-6.2,3-12.4,6.3-18.5,9.8c-3.2,1.8-6.3,3.7-9.4,5.7l-5.3,23.7l-0.3-20c-11.1,7.4-21.4,15.4-31.1,24l-0.1,22.4l-5.5-17.4
						c-10.3,9.6-19.7,20-28.2,30.8l1.3,13.1l-4.1-9.6c-10.2,13.4-19.1,27.5-26.6,42.3c16.6,0.9,33.3,0.2,50-1.9L1854,2415.2z"/>
					<g opacity="0.1">
						<path d="M1813.5,2419.4c-1.1,2-2.2,3.9-3.2,5.9c2.2,0.1,4.5,0.1,6.8,0.2l197.8-118.3L1813.5,2419.4z"/>
					</g>
				</g>
			</g>
		</g>
	</g>
	<g opacity="0.2">
		<path d="M1837.6,1474.8l-64.5-64.5c-4.3-4.3-4.5-11.1-0.5-15.7l152.8-174.6c7.2-8.2,16.9-13.7,27.7-15.6l87.8-15.4
			c10.6-1.9,19.8,7.4,18,18l-15.4,87.8c-1.9,10.7-7.4,20.5-15.6,27.7l-174.6,152.8C1848.7,1479.3,1841.9,1479,1837.6,1474.8z"/>
		<path d="M1778,1405.4c-1.7-1.7-1.8-4.5-0.2-6.3l152.8-174.6c6.1-7,14.5-11.7,23.7-13.3l87.8-15.4c2.8-0.5,5.6,0.4,7.6,2.4
			c2,2,2.9,4.8,2.4,7.6l-15.4,87.8c-1.6,9.2-6.3,17.6-13.3,23.7l-174.6,152.8c-1.8,1.6-4.6,1.5-6.3-0.2L1778,1405.4z"/>
		<path d="M1851,1444.3l-47.4-47.4c-2.3-2.3-2.4-5.9-0.3-8.3l83.5-95.4c20.6-23.6,48.7-39.4,79.6-44.8l0,0
			c19.6-3.4,36.6,13.6,33.2,33.2v0c-5.4,30.9-21.2,58.9-44.8,79.6l-95.4,83.5C1857,1446.7,1853.3,1446.6,1851,1444.3z"/>
		<g>
			<path d="M1949.4,1349.1c2.5-7.4,4.4-15.1,5.7-22.8c1.7-9.4-1.3-18.7-8.1-25.5c-6.8-6.8-16.1-9.7-25.5-8.1
				c-7.7,1.3-15.4,3.3-22.8,5.7l0,0c-6.9,2.3-13.1,6.4-17.9,11.9l-71.9,82.2l46.4,46.4l82.2-71.9
				C1943,1362.2,1947.1,1356,1949.4,1349.1L1949.4,1349.1z"/>
		</g>
		<path d="M1920.6,1287.1L1920.6,1287.1c23.7-4.2,44.4,16.5,40.2,40.2l0,0c-1.4,8-3.4,15.9-5.9,23.6c12.6-15.5,21.2-34.1,24.7-54.1
			v0c2.9-16.8-11.7-31.4-28.5-28.5h0c-19.9,3.5-38.5,12-54.1,24.7C1904.7,1290.5,1912.5,1288.5,1920.6,1287.1z"/>
		<path d="M1908.9,1352.9l-13.9-13.9c-3.3-3.3-8.7-3.3-12,0l-38.6,38.6c-3.3,3.3-3.3,8.7,0,12l13.9,13.9c3.3,3.3,8.7,3.3,12,0
			l38.6-38.6C1912.3,1361.6,1912.3,1356.2,1908.9,1352.9z"/>
	</g>
	<g opacity="0.2">
		<path d="M640.9,1496.1l64.5,64.5c4.3,4.3,4.5,11.1,0.5,15.7L553.1,1751c-7.2,8.2-16.9,13.7-27.7,15.6l-87.8,15.4
			c-10.6,1.9-19.8-7.4-18-18l15.4-87.8c1.9-10.7,7.4-20.5,15.6-27.7l174.6-152.8C629.8,1491.6,636.7,1491.8,640.9,1496.1z"/>
		<path d="M700.5,1565.5c1.7,1.7,1.8,4.5,0.2,6.3l-152.8,174.6c-6.1,7-14.5,11.7-23.7,13.3l-87.8,15.4c-2.8,0.5-5.6-0.4-7.6-2.4
			c-2-2-2.9-4.8-2.4-7.6l15.4-87.8c1.6-9.2,6.3-17.6,13.3-23.7l174.6-152.8c1.8-1.6,4.6-1.5,6.3,0.2L700.5,1565.5z"/>
		<path d="M627.5,1526.6l47.4,47.4c2.3,2.3,2.4,5.9,0.3,8.3l-83.5,95.4c-20.6,23.6-48.7,39.4-79.6,44.8h0
			c-19.6,3.4-36.6-13.6-33.2-33.2v0c5.4-30.9,21.2-58.9,44.8-79.6l95.4-83.5C621.6,1524.2,625.2,1524.3,627.5,1526.6z"/>
		<g>
			<path d="M529.1,1621.8c-2.5,7.4-4.4,15.1-5.7,22.8c-1.7,9.4,1.3,18.7,8.1,25.5s16.1,9.7,25.5,8.1c7.7-1.3,15.4-3.3,22.8-5.7l0,0
				c6.9-2.3,13.1-6.4,17.9-11.9l71.9-82.2l-46.4-46.4l-82.2,71.9C535.5,1608.7,531.4,1614.9,529.1,1621.8L529.1,1621.8z"/>
		</g>
		<path d="M557.9,1683.8L557.9,1683.8c-23.7,4.2-44.4-16.5-40.2-40.2l0,0c1.4-8,3.4-15.9,5.9-23.6c-12.6,15.5-21.2,34.1-24.7,54.1
			l0,0c-2.9,16.8,11.7,31.4,28.5,28.5l0,0c19.9-3.5,38.5-12,54.1-24.7C573.9,1680.4,566,1682.4,557.9,1683.8z"/>
		<path d="M569.6,1618l13.9,13.9c3.3,3.3,8.7,3.3,12,0l38.6-38.6c3.3-3.3,3.3-8.7,0-12l-13.9-13.9c-3.3-3.3-8.7-3.3-12,0l-38.6,38.6
			C566.3,1609.3,566.3,1614.7,569.6,1618z"/>
	</g>
	<g>
		<path fill="#F2F2F2" d="M1837.6,1454.8l-64.5-64.5c-4.3-4.3-4.5-11.1-0.5-15.7l152.8-174.6c7.2-8.2,16.9-13.7,27.7-15.6l87.8-15.4
			c10.6-1.9,19.8,7.4,18,18l-15.4,87.8c-1.9,10.7-7.4,20.5-15.6,27.7l-174.6,152.8C1848.7,1459.3,1841.9,1459,1837.6,1454.8z"/>
		<path fill="#E2AB7C" d="M1778,1385.4c-1.7-1.7-1.8-4.5-0.2-6.3l152.8-174.6c6.1-7,14.5-11.7,23.7-13.3l87.8-15.4
			c2.8-0.5,5.6,0.4,7.6,2.4c2,2,2.9,4.8,2.4,7.6l-15.4,87.8c-1.6,9.2-6.3,17.6-13.3,23.7l-174.6,152.8c-1.8,1.6-4.6,1.5-6.3-0.2
			L1778,1385.4z"/>
		<path fill="#F2F2F2" d="M1851,1424.3l-47.4-47.4c-2.3-2.3-2.4-5.9-0.3-8.3l83.5-95.4c20.6-23.6,48.7-39.4,79.6-44.8l0,0
			c19.6-3.4,36.6,13.6,33.2,33.2v0c-5.4,30.9-21.2,58.9-44.8,79.6l-95.4,83.5C1857,1426.7,1853.3,1426.6,1851,1424.3z"/>
		<g>
			<path fill="#CCCCCC" d="M1949.4,1329.1c2.5-7.4,4.4-15.1,5.7-22.8c1.7-9.4-1.3-18.7-8.1-25.5c-6.8-6.8-16.1-9.7-25.5-8.1
				c-7.7,1.3-15.4,3.3-22.8,5.7l0,0c-6.9,2.3-13.1,6.4-17.9,11.9l-71.9,82.2l46.4,46.4l82.2-71.9
				C1943,1342.2,1947.1,1336,1949.4,1329.1L1949.4,1329.1z"/>
		</g>
		<path fill="#29ABE2" d="M1920.6,1267.1L1920.6,1267.1c23.7-4.2,44.4,16.5,40.2,40.2l0,0c-1.4,8-3.4,15.9-5.9,23.6
			c12.6-15.5,21.2-34.1,24.7-54.1v0c2.9-16.8-11.7-31.4-28.5-28.5h0c-19.9,3.5-38.5,12-54.1,24.7
			C1904.7,1270.5,1912.5,1268.5,1920.6,1267.1z"/>
		<path fill="#B33639" d="M1908.9,1332.9l-13.9-13.9c-3.3-3.3-8.7-3.3-12,0l-38.6,38.6c-3.3,3.3-3.3,8.7,0,12l13.9,13.9
			c3.3,3.3,8.7,3.3,12,0l38.6-38.6C1912.3,1341.6,1912.3,1336.2,1908.9,1332.9z"/>
	</g>
	<g>
		<path fill="#F2F2F2" d="M640.9,1476.1l64.5,64.5c4.3,4.3,4.5,11.1,0.5,15.7L553.1,1731c-7.2,8.2-16.9,13.7-27.7,15.6l-87.8,15.4
			c-10.6,1.9-19.8-7.4-18-18l15.4-87.8c1.9-10.7,7.4-20.5,15.6-27.7l174.6-152.8C629.8,1471.6,636.7,1471.8,640.9,1476.1z"/>
		<path fill="#E2AB7C" d="M700.5,1545.5c1.7,1.7,1.8,4.5,0.2,6.3l-152.8,174.6c-6.1,7-14.5,11.7-23.7,13.3l-87.8,15.4
			c-2.8,0.5-5.6-0.4-7.6-2.4c-2-2-2.9-4.8-2.4-7.6l15.4-87.8c1.6-9.2,6.3-17.6,13.3-23.7l174.6-152.8c1.8-1.6,4.6-1.5,6.3,0.2
			L700.5,1545.5z"/>
		<path fill="#F2F2F2" d="M627.5,1506.6l47.4,47.4c2.3,2.3,2.4,5.9,0.3,8.3l-83.5,95.4c-20.6,23.6-48.7,39.4-79.6,44.8h0
			c-19.6,3.4-36.6-13.6-33.2-33.2v0c5.4-30.9,21.2-58.9,44.8-79.6l95.4-83.5C621.6,1504.2,625.2,1504.3,627.5,1506.6z"/>
		<g>
			<path fill="#CCCCCC" d="M529.1,1601.8c-2.5,7.4-4.4,15.1-5.7,22.8c-1.7,9.4,1.3,18.7,8.1,25.5s16.1,9.7,25.5,8.1
				c7.7-1.3,15.4-3.3,22.8-5.7l0,0c6.9-2.3,13.1-6.4,17.9-11.9l71.9-82.2l-46.4-46.4l-82.2,71.9
				C535.5,1588.7,531.4,1594.9,529.1,1601.8L529.1,1601.8z"/>
		</g>
		<path fill="#29ABE2" d="M557.9,1663.8L557.9,1663.8c-23.7,4.2-44.4-16.5-40.2-40.2l0,0c1.4-8,3.4-15.9,5.9-23.6
			c-12.6,15.5-21.2,34.1-24.7,54.1l0,0c-2.9,16.8,11.7,31.4,28.5,28.5l0,0c19.9-3.5,38.5-12,54.1-24.7
			C573.9,1660.4,566,1662.4,557.9,1663.8z"/>
		<path fill="#B33639" d="M569.6,1598l13.9,13.9c3.3,3.3,8.7,3.3,12,0l38.6-38.6c3.3-3.3,3.3-8.7,0-12l-13.9-13.9
			c-3.3-3.3-8.7-3.3-12,0l-38.6,38.6C566.3,1589.3,566.3,1594.7,569.6,1598z"/>
	</g>
</g>
<g id="RESORT">
	<g>
		<g opacity="0.2">
			<path d="M1516.1,1444.8l-13.3-13.3l6.8-6.8l-6.9-6.9l13.5-13.5l20.2-20.2l13.4-13.4l6.8,6.8l13.6-13.6l-6.8-6.8l13.4-13.4
				l20.2-20.2l13.4-13.4l6.8,6.8l13.6-13.6l-6.8-6.8l13.4-13.4l20.2-20.2l13.4-13.4l6.8,6.8l13.6-13.6l-6.8-6.8l13.4-13.4l20.2-20.2
				l81.7,81.7l264.8-264.8l-264.8-264.8l-264.8,264.8l81.7,81.7l-20.2,20.2l-13.4,13.4l-6.8-6.8l-13.6,13.6l6.8,6.8l-13.4,13.4
				l-20.2,20.2l-13.4,13.4l-6.8-6.8l-13.6,13.6l6.8,6.8l-13.4,13.4l-20.2,20.2l-13.4,13.4l-6.8-6.8l-13.6,13.6l6.8,6.8l-13.4,13.4
				l-20.2,20.2l-13.5,13.5l-6.8-6.8l-6.8,6.8l-13.5-13.5l-20.2-20.2l-13.4-13.4l6.8-6.8l-13.6-13.6l-6.8,6.8l-13.4-13.4l-20.2-20.2
				l-13.4-13.4l6.8-6.8l-13.6-13.6l-6.8,6.8l-13.4-13.4l-20.2-20.2l-13.4-13.4l6.8-6.8l-13.6-13.6l-6.8,6.8l-13.4-13.4l-20.2-20.2
				l-13.4-13.4l6.8-6.8l-13.6-13.6l-6.8,6.8l-13.4-13.4l-20.2-20.2l-13.4-13.4l6.8-6.8l-13.6-13.6l-6.8,6.8l-13.4-13.4l-20.2-20.2
				l-13.4-13.4l6.8-6.8l-13.6-13.6l-6.8,6.8l-13.4-13.4l-20.2-20.2L976,904.7l6.8-6.8l-6.8-6.8l13.4-13.4l20.2-20.2l13.4-13.4
				l6.8,6.8l13.6-13.6l-6.8-6.8l13.4-13.4l20.2-20.2l13.4-13.4l6.8,6.8l13.6-13.6l-6.8-6.8l13.4-13.4l20.2-20.2l13.4-13.4l6.8,6.8
				l13.6-13.6l-6.8-6.8l13.4-13.4l20.2-20.2l81.7,81.7L1538.5,492l-264.8-264.8L1008.8,492l81.7,81.7l0,0l-20.2,20.2l-13.4,13.4
				l-6.8-6.8l-13.6,13.6l6.8,6.8l-13.4,13.4l-20.2,20.2l-13.4,13.4l-6.8-6.8L975.7,675l6.8,6.8l-13.4,13.4l-20.2,20.2L935.4,729
				l-6.8-6.8L915,735.8l6.8,6.8L908.3,756l-20.2,20.2l-13.4,13.4l-6.8-6.8l-13.6,13.6l6.8,6.8L773.4,891l-6.8-6.8L753,897.8l6.8,6.8
				L746.3,918l-20.2,20.2l-13.4,13.4l-6.8-6.8l-13.6,13.6l6.8,6.8l-13.4,13.4L665.3,999l-13.4,13.4l-6.8-6.8l-13.6,13.6l6.8,6.8
				l-13.4,13.4l-20.2,20.2l-13.4,13.4l-6.8-6.8l-13.6,13.6l6.8,6.8l-13.4,13.4l-20.2,20.2l-81.7-81.7l-264.8,264.8l264.8,264.8
				L727,1303.6l-81.7-81.7l20.2-20.2l13.4-13.4l6.8,6.8l13.6-13.6l-6.8-6.8l13.4-13.4l20.2-20.2l13.4-13.4l6.8,6.8l13.6-13.6
				l-6.8-6.8l13.4-13.4l20.2-20.2l13.4-13.4l6.8,6.8l13.6-13.6l-6.8-6.8l13.4-13.4l20.2-20.2l13.4-13.4l6.8,6.8l6.7-6.7l13.5,13.5
				l20.2,20.2l13.4,13.4l-6.8,6.8l13.6,13.6l6.8-6.8l13.4,13.4l20.2,20.2l13.4,13.4l-6.8,6.8l13.6,13.6l6.8-6.8l13.4,13.4l20.2,20.2
				l13.4,13.4l-6.8,6.8l13.6,13.6l6.8-6.8l13.4,13.4l20.2,20.2l13.4,13.4l-6.8,6.8l13.6,13.6l6.8-6.8l13.4,13.4l20.2,20.2l13.4,13.4
				l-6.8,6.8l13.6,13.6l6.8-6.8l13.4,13.4l20.2,20.2l13.4,13.4l-6.8,6.8l13.6,13.6l6.8-6.8l13.4,13.4l20.2,20.2l13.5,13.5l-6.8,6.8
				l6.8,6.8l-13.3,13.3l-20.2,20.2l-13.4,13.4l-6.8-6.8l-13.6,13.6l6.8,6.8l-13.4,13.4l-20.2,20.2l-13.4,13.4l-6.8-6.8l-13.6,13.6
				l6.8,6.8l-13.4,13.4l-20.2,20.2l-13.4,13.4l-6.8-6.8l-13.6,13.6l6.8,6.8l-13.4,13.4l-20.2,20.2l-81.7-81.7l-264.8,264.8
				l264.8,264.8l264.8-264.8l-81.7-81.7v0l20.2-20.2l13.4-13.4l6.8,6.8l13.6-13.6l-6.8-6.8l13.4-13.4l20.2-20.2l13.4-13.4l6.8,6.8
				l13.6-13.6l-6.8-6.8l13.4-13.4l20.2-20.2l13.4-13.4l6.8,6.8l13.6-13.6l-6.8-6.8l13.4-13.4l20.2-20.2l13.3-13.3l6.9,6.9l6.8-6.8
				l13.3,13.3L1516.1,1444.8z M874.8,992.3L874.8,992.3l87.6-87.6l0,0L874.8,992.3z"/>
			<path d="M2204.7,2133.4l-13.4-13.4l6.8-6.8l-13.6-13.6l-6.8,6.8l-13.4-13.4l-20.2-20.2l-13.4-13.4l6.8-6.8l-13.6-13.6l-6.8,6.8
				l-13.4-13.4l-20.2-20.2l-13.4-13.4l6.8-6.8l-13.6-13.6l-6.8,6.8l-13.4-13.4l-20.2-20.2l-13.4-13.4l6.8-6.8l-13.6-13.6l-6.8,6.8
				l-13.4-13.4l-20.2-20.2l-13.4-13.4l6.8-6.8l-13.6-13.6l-6.8,6.8l-13.4-13.4l-20.2-20.2l-20.2-20.2l-13.4-13.4l6.8-6.8l-13.6-13.6
				l-6.8,6.8l-13.4-13.4l-20.2-20.2l-13.5-13.5l6.8-6.8l-13.6-13.6l-6.8,6.8l-13.5-13.5l-20.2-20.2l-13.3-13.3l6.8-6.8l-13.6-13.6
				l-6.8,6.8l-13.5-13.5l-20.2-20.2l-13.3-13.3l6.8-6.8l-13.6-13.6l-6.8,6.8l-13.5-13.5l-20.2-20.2l-13.3-13.3l6.8-6.8l-13.6-13.6
				l-6.8,6.8l-13.5-13.5l-20.2-20.2l-13.3-13.3l6.8-6.8l-13.6-13.6l-6.8,6.8l-13.5-13.5l-20.2-20.2l-101.4,101.4l20.2,20.2
				l13.5,13.5l-6.8,6.8l13.6,13.6l6.8-6.8l13.3,13.3l20.2,20.2l13.5,13.5l-6.8,6.8l13.6,13.6l6.8-6.8l13.3,13.3l20.2,20.2l13.5,13.5
				l-6.8,6.8l13.6,13.6l6.8-6.8l13.3,13.3l20.2,20.2l13.5,13.5l-6.8,6.8l13.6,13.6l6.8-6.8l13.3,13.3l20.2,20.2l13.5,13.5l-6.8,6.8
				l13.6,13.6l6.8-6.8l13.5,13.5l20.2,20.2l13.4,13.4l-6.8,6.8l13.6,13.6l6.8-6.8l13.4,13.4l20.2,20.2l20.2,20.2l13.4,13.4l-6.8,6.8
				l13.6,13.6l6.8-6.8l13.4,13.4l20.2,20.2l13.4,13.4l-6.8,6.8l13.6,13.6l6.8-6.8l13.4,13.4l20.2,20.2l13.4,13.4l-6.8,6.8l13.6,13.6
				l6.8-6.8l13.4,13.4l20.2,20.2l13.4,13.4l-6.8,6.8l13.6,13.6l6.8-6.8l13.4,13.4l20.2,20.2l13.4,13.4l-6.8,6.8l13.6,13.6l6.8-6.8
				l13.4,13.4L2204.7,2133.4z M1705.1,1822.9l-0.1-0.1l87.7-87.7l0.1,0.1L1705.1,1822.9z"/>
		</g>
		<g>
			<g>
				
					<rect x="914.3" y="735.4" transform="matrix(-0.7071 0.7071 -0.7071 -0.7071 2155.9966 721.1376)" fill="#E2AB7C" width="28.6" height="143.4"/>
				
					<rect x="954.8" y="694.9" transform="matrix(-0.7071 0.7071 -0.7071 -0.7071 2196.4956 623.3641)" fill="#E2AB7C" width="28.6" height="143.4"/>
				
					<rect x="995.3" y="654.4" transform="matrix(-0.7071 0.7071 -0.7071 -0.7071 2236.9946 525.5906)" fill="#E2AB7C" width="28.6" height="143.4"/>
				
					<rect x="1035.8" y="613.9" transform="matrix(-0.7071 0.7071 -0.7071 -0.7071 2277.4937 427.8174)" fill="#E2AB7C" width="28.6" height="143.4"/>
				
					<rect x="1076.3" y="573.4" transform="matrix(-0.7071 0.7071 -0.7071 -0.7071 2317.9929 330.0438)" fill="#E2AB7C" width="28.6" height="143.4"/>
				
					<rect x="1116.8" y="532.9" transform="matrix(-0.7071 0.7071 -0.7071 -0.7071 2358.4919 232.2705)" fill="#E2AB7C" width="28.6" height="143.4"/>
				
					<rect x="1100" y="549.8" transform="matrix(-0.7071 -0.7071 0.7071 -0.7071 1601.2388 1791.4467)" fill="#E2AB7C" width="143.4" height="28.6"/>
				
					<rect x="549.8" y="1099.9" transform="matrix(-0.7071 0.7071 -0.7071 -0.7071 1791.5051 1601.0977)" fill="#E2AB7C" width="28.6" height="143.4"/>
				
					<rect x="590.3" y="1059.4" transform="matrix(-0.7071 0.7071 -0.7071 -0.7071 1832.0043 1503.3241)" fill="#E2AB7C" width="28.6" height="143.4"/>
				
					<rect x="630.8" y="1018.9" transform="matrix(-0.7071 0.7071 -0.7071 -0.7071 1872.5032 1405.5508)" fill="#E2AB7C" width="28.6" height="143.4"/>
				
					<rect x="671.3" y="978.4" transform="matrix(-0.7071 0.7071 -0.7071 -0.7071 1913.0022 1307.7775)" fill="#E2AB7C" width="28.6" height="143.4"/>
				
					<rect x="711.8" y="937.9" transform="matrix(-0.7071 0.7071 -0.7071 -0.7071 1953.5012 1210.004)" fill="#E2AB7C" width="28.6" height="143.4"/>
				
					<rect x="752.3" y="897.4" transform="matrix(-0.7071 0.7071 -0.7071 -0.7071 1994.0004 1112.2308)" fill="#E2AB7C" width="28.6" height="143.4"/>
				<polygon fill="#E2AB7C" points="766.6,867.8 746.3,888 847.7,989.4 867.8,969.3 888.1,989.5 989.5,888.1 969.2,867.9 868,969.1 
									"/>
				
					<rect x="1100" y="1157.4" transform="matrix(-0.7071 0.7071 -0.7071 -0.7071 2828.6306 1171.7402)" fill="#E2AB7C" width="143.4" height="28.6"/>
				
					<rect x="1059.5" y="1116.9" transform="matrix(-0.7071 0.7071 -0.7071 -0.7071 2730.8574 1131.2412)" fill="#E2AB7C" width="143.4" height="28.6"/>
				
					<rect x="1019" y="1076.4" transform="matrix(-0.7071 0.7071 -0.7071 -0.7071 2633.084 1090.7419)" fill="#E2AB7C" width="143.4" height="28.6"/>
				
					<rect x="978.5" y="1035.9" transform="matrix(-0.7071 0.7071 -0.7071 -0.7071 2535.3108 1050.2429)" fill="#E2AB7C" width="143.4" height="28.6"/>
				
					<rect x="1140.5" y="1197.9" transform="matrix(-0.7071 0.7071 -0.7071 -0.7071 2926.4043 1212.2391)" fill="#E2AB7C" width="143.4" height="28.6"/>
				
					<rect x="938" y="995.4" transform="matrix(-0.7071 0.7071 -0.7071 -0.7071 2437.5374 1009.744)" fill="#E2AB7C" width="143.4" height="28.6"/>
				
					<rect x="897.5" y="954.9" transform="matrix(-0.7071 0.7071 -0.7071 -0.7071 2339.7639 969.2449)" fill="#E2AB7C" width="143.4" height="28.6"/>
				
					<rect x="1505.1" y="1562.5" transform="matrix(-0.7071 0.7071 -0.7071 -0.7071 3806.6479 1576.8483)" fill="#E2AB7C" width="143.4" height="28.6"/>
				
					<rect x="1464.6" y="1522" transform="matrix(-0.7071 0.7071 -0.7071 -0.7071 3708.8748 1536.3492)" fill="#E2AB7C" width="143.4" height="28.6"/>
				
					<rect x="1424.1" y="1481.5" transform="matrix(-0.7071 0.7071 -0.7071 -0.7071 3611.1016 1495.8502)" fill="#E2AB7C" width="143.4" height="28.6"/>
				
					<rect x="1262" y="1319.4" transform="matrix(-0.7071 0.7071 -0.7071 -0.7071 3219.7241 1333.7365)" fill="#E2AB7C" width="143.4" height="28.6"/>
				
					<rect x="1383.6" y="1441" transform="matrix(-0.7071 0.7071 -0.7071 -0.7071 3513.3267 1455.3506)" fill="#E2AB7C" width="143.4" height="28.6"/>
				
					<rect x="1667.1" y="1724.5" transform="matrix(-0.7071 0.7071 -0.7071 -0.7071 4197.7417 1738.8445)" fill="#E2AB7C" width="143.4" height="28.6"/>
				
					<rect x="1626.6" y="1684" transform="matrix(-0.7071 0.7071 -0.7071 -0.7071 4099.9683 1698.3455)" fill="#E2AB7C" width="143.4" height="28.6"/>
				
					<rect x="1586.1" y="1643.5" transform="matrix(-0.7071 0.7071 -0.7071 -0.7071 4002.1948 1657.8464)" fill="#E2AB7C" width="143.4" height="28.6"/>
				
					<rect x="1545.6" y="1603" transform="matrix(-0.7071 0.7071 -0.7071 -0.7071 3904.4216 1617.3473)" fill="#E2AB7C" width="143.4" height="28.6"/>
				
					<rect x="1221.5" y="1278.9" transform="matrix(-0.7071 0.7071 -0.7071 -0.7071 3121.9509 1293.2374)" fill="#E2AB7C" width="143.4" height="28.6"/>
				
					<rect x="1181" y="1238.4" transform="matrix(-0.7071 0.7071 -0.7071 -0.7071 3024.1775 1252.7382)" fill="#E2AB7C" width="143.4" height="28.6"/>
				
					<rect x="1910.2" y="1967.6" transform="matrix(-0.7071 0.7071 -0.7071 -0.7071 4784.6646 1981.9561)" fill="#E2AB7C" width="143.4" height="28.6"/>
				
					<rect x="1869.7" y="1927.1" transform="matrix(-0.7071 0.7071 -0.7071 -0.7071 4686.8916 1941.4569)" fill="#E2AB7C" width="143.4" height="28.6"/>
				
					<rect x="1829.2" y="1886.6" transform="matrix(-0.7071 0.7071 -0.7071 -0.7071 4589.1182 1900.9579)" fill="#E2AB7C" width="143.4" height="28.6"/>
				
					<rect x="1788.7" y="1846.1" transform="matrix(-0.7071 0.7071 -0.7071 -0.7071 4491.3447 1860.4587)" fill="#E2AB7C" width="143.4" height="28.6"/>
				
					<rect x="2072.2" y="2129.6" transform="matrix(-0.7071 0.7071 -0.7071 -0.7071 5175.7583 2143.9521)" fill="#E2AB7C" width="143.4" height="28.6"/>
				
					<rect x="2031.7" y="2089.1" transform="matrix(-0.7071 0.7071 -0.7071 -0.7071 5077.9849 2103.4531)" fill="#E2AB7C" width="143.4" height="28.6"/>
				
					<rect x="1991.2" y="2048.6" transform="matrix(-0.7071 0.7071 -0.7071 -0.7071 4980.2109 2062.9541)" fill="#E2AB7C" width="143.4" height="28.6"/>
				
					<rect x="1950.7" y="2008.1" transform="matrix(-0.7071 0.7071 -0.7071 -0.7071 4882.438 2022.4551)" fill="#E2AB7C" width="143.4" height="28.6"/>
				
					<rect x="1748.2" y="1805.6" transform="matrix(-0.7071 0.7071 -0.7071 -0.7071 4393.5713 1819.9598)" fill="#E2AB7C" width="143.4" height="28.6"/>
				
					<rect x="1707.7" y="1765.1" transform="matrix(-0.7071 0.7071 -0.7071 -0.7071 4295.7979 1779.4608)" fill="#E2AB7C" width="143.4" height="28.6"/>
				
					<rect x="796.2" y="796.2" transform="matrix(-0.7071 0.7071 -0.7071 -0.7071 2095.1887 867.9386)" fill="#C28A60" width="143.4" height="143.4"/>
				
					<rect x="934.6" y="715.2" transform="matrix(-0.7071 0.7071 -0.7071 -0.7071 2176.2461 672.2508)" fill="#C28A60" width="28.6" height="143.4"/>
				
					<rect x="975.1" y="674.7" transform="matrix(-0.7071 0.7071 -0.7071 -0.7071 2216.7451 574.4775)" fill="#C28A60" width="28.6" height="143.4"/>
				
					<rect x="1015.6" y="634.2" transform="matrix(-0.7071 0.7071 -0.7071 -0.7071 2257.2441 476.7039)" fill="#C28A60" width="28.6" height="143.4"/>
				
					<rect x="1056.1" y="593.7" transform="matrix(-0.7071 0.7071 -0.7071 -0.7071 2297.7432 378.9308)" fill="#C28A60" width="28.6" height="143.4"/>
				
					<rect x="1096.6" y="553.2" transform="matrix(-0.7071 0.7071 -0.7071 -0.7071 2338.2424 281.1572)" fill="#C28A60" width="28.6" height="143.4"/>
				
					<rect x="1079.7" y="570" transform="matrix(-0.7071 -0.7071 0.7071 -0.7071 1552.3522 1811.6962)" fill="#C28A60" width="143.4" height="28.6"/>
				
					<rect x="570.1" y="1079.7" transform="matrix(-0.7071 0.7071 -0.7071 -0.7071 1811.7546 1552.2109)" fill="#C28A60" width="28.6" height="143.4"/>
				
					<rect x="610.6" y="1039.2" transform="matrix(-0.7071 0.7071 -0.7071 -0.7071 1852.2537 1454.4375)" fill="#C28A60" width="28.6" height="143.4"/>
				
					<rect x="651.1" y="998.7" transform="matrix(-0.7071 0.7071 -0.7071 -0.7071 1892.7527 1356.6642)" fill="#C28A60" width="28.6" height="143.4"/>
				
					<rect x="691.6" y="958.2" transform="matrix(-0.7071 0.7071 -0.7071 -0.7071 1933.2517 1258.8911)" fill="#C28A60" width="28.6" height="143.4"/>
				
					<rect x="732.1" y="917.7" transform="matrix(-0.7071 0.7071 -0.7071 -0.7071 1973.7509 1161.1176)" fill="#C28A60" width="28.6" height="143.4"/>
				
					<rect x="772.6" y="877.2" transform="matrix(-0.7071 0.7071 -0.7071 -0.7071 2014.25 1063.344)" fill="#C28A60" width="28.6" height="143.4"/>
				
					<rect x="1079.7" y="1137.1" transform="matrix(-0.7071 0.7071 -0.7071 -0.7071 2779.7441 1151.4907)" fill="#C28A60" width="143.4" height="28.6"/>
				
					<rect x="1039.2" y="1096.6" transform="matrix(-0.7071 0.7071 -0.7071 -0.7071 2681.9707 1110.9915)" fill="#C28A60" width="143.4" height="28.6"/>
				
					<rect x="998.7" y="1056.1" transform="matrix(-0.7071 0.7071 -0.7071 -0.7071 2584.1975 1070.4924)" fill="#C28A60" width="143.4" height="28.6"/>
				
					<rect x="958.2" y="1015.6" transform="matrix(-0.7071 0.7071 -0.7071 -0.7071 2486.4238 1029.9935)" fill="#C28A60" width="143.4" height="28.6"/>
				
					<rect x="1120.2" y="1177.6" transform="matrix(-0.7071 0.7071 -0.7071 -0.7071 2877.5176 1191.9896)" fill="#C28A60" width="143.4" height="28.6"/>
				
					<rect x="917.7" y="975.1" transform="matrix(-0.7071 0.7071 -0.7071 -0.7071 2388.6506 989.4945)" fill="#C28A60" width="143.4" height="28.6"/>
				
					<rect x="877.2" y="934.6" transform="matrix(-0.7071 0.7071 -0.7071 -0.7071 2290.8772 948.9954)" fill="#C28A60" width="143.4" height="28.6"/>
				
					<rect x="1440.9" y="1262" transform="matrix(-0.7071 0.7071 -0.7071 -0.7071 3427.3325 1247.7423)" fill="#E2AB7C" width="28.6" height="143.4"/>
				
					<rect x="1481.4" y="1221.5" transform="matrix(-0.7071 0.7071 -0.7071 -0.7071 3467.8315 1149.9688)" fill="#E2AB7C" width="28.6" height="143.4"/>
				
					<rect x="1521.9" y="1181" transform="matrix(-0.7071 0.7071 -0.7071 -0.7071 3508.3308 1052.1951)" fill="#E2AB7C" width="28.6" height="143.4"/>
				
					<rect x="1562.4" y="1140.5" transform="matrix(-0.7071 0.7071 -0.7071 -0.7071 3548.8296 954.4221)" fill="#E2AB7C" width="28.6" height="143.4"/>
				
					<rect x="1602.9" y="1100" transform="matrix(-0.7071 0.7071 -0.7071 -0.7071 3589.3289 856.6486)" fill="#E2AB7C" width="28.6" height="143.4"/>
				
					<rect x="1643.4" y="1059.5" transform="matrix(-0.7071 0.7071 -0.7071 -0.7071 3629.8279 758.8752)" fill="#E2AB7C" width="28.6" height="143.4"/>
				
					<rect x="1683.9" y="1019" transform="matrix(-0.7071 0.7071 -0.7071 -0.7071 3670.3269 661.1019)" fill="#E2AB7C" width="28.6" height="143.4"/>
				
					<rect x="1076.4" y="1626.5" transform="matrix(-0.7071 0.7071 -0.7071 -0.7071 3062.8411 2127.7021)" fill="#E2AB7C" width="28.6" height="143.4"/>
				
					<rect x="1116.9" y="1586" transform="matrix(-0.7071 0.7071 -0.7071 -0.7071 3103.3403 2029.9286)" fill="#E2AB7C" width="28.6" height="143.4"/>
				
					<rect x="1157.4" y="1545.5" transform="matrix(-0.7071 0.7071 -0.7071 -0.7071 3143.8391 1932.1556)" fill="#E2AB7C" width="28.6" height="143.4"/>
				
					<rect x="1197.9" y="1505" transform="matrix(-0.7071 0.7071 -0.7071 -0.7071 3184.3381 1834.3823)" fill="#E2AB7C" width="28.6" height="143.4"/>
				
					<rect x="1238.4" y="1464.5" transform="matrix(-0.7071 0.7071 -0.7071 -0.7071 3224.8374 1736.6088)" fill="#E2AB7C" width="28.6" height="143.4"/>
				
					<rect x="1278.9" y="1424" transform="matrix(-0.7071 0.7071 -0.7071 -0.7071 3265.3364 1638.8354)" fill="#E2AB7C" width="28.6" height="143.4"/>
				
					<rect x="1319.4" y="1383.5" transform="matrix(0.7071 -0.7071 0.7071 0.7071 -638.3287 1369.322)" fill="#E2AB7C" width="28.6" height="143.4"/>
				
					<rect x="1461.2" y="1241.8" transform="matrix(-0.7071 0.7071 -0.7071 -0.7071 3447.582 1198.8553)" fill="#C28A60" width="28.6" height="143.4"/>
				
					<rect x="1501.7" y="1201.3" transform="matrix(-0.7071 0.7071 -0.7071 -0.7071 3488.0811 1101.082)" fill="#C28A60" width="28.6" height="143.4"/>
				
					<rect x="1542.2" y="1160.8" transform="matrix(-0.7071 0.7071 -0.7071 -0.7071 3528.5803 1003.3085)" fill="#C28A60" width="28.6" height="143.4"/>
				
					<rect x="1582.7" y="1120.3" transform="matrix(-0.7071 0.7071 -0.7071 -0.7071 3569.0791 905.5355)" fill="#C28A60" width="28.6" height="143.4"/>
				
					<rect x="1623.2" y="1079.8" transform="matrix(-0.7071 0.7071 -0.7071 -0.7071 3609.5784 807.7619)" fill="#C28A60" width="28.6" height="143.4"/>
				
					<rect x="1663.7" y="1039.3" transform="matrix(-0.7071 0.7071 -0.7071 -0.7071 3650.0774 709.9886)" fill="#C28A60" width="28.6" height="143.4"/>
				
					<rect x="1096.7" y="1606.3" transform="matrix(-0.7071 0.7071 -0.7071 -0.7071 3083.0906 2078.8157)" fill="#C28A60" width="28.6" height="143.4"/>
				
					<rect x="1137.2" y="1565.8" transform="matrix(-0.7071 0.7071 -0.7071 -0.7071 3123.5898 1981.0422)" fill="#C28A60" width="28.6" height="143.4"/>
				
					<rect x="1177.7" y="1525.3" transform="matrix(-0.7071 0.7071 -0.7071 -0.7071 3164.0886 1883.269)" fill="#C28A60" width="28.6" height="143.4"/>
				
					<rect x="1218.2" y="1484.8" transform="matrix(-0.7071 0.7071 -0.7071 -0.7071 3204.5876 1785.4957)" fill="#C28A60" width="28.6" height="143.4"/>
				
					<rect x="1258.7" y="1444.3" transform="matrix(-0.7071 0.7071 -0.7071 -0.7071 3245.0869 1687.7222)" fill="#C28A60" width="28.6" height="143.4"/>
				
					<rect x="1299.2" y="1403.8" transform="matrix(-0.7071 0.7071 -0.7071 -0.7071 3285.5859 1589.9485)" fill="#C28A60" width="28.6" height="143.4"/>
				
					<rect x="1322.8" y="1322.8" transform="matrix(-0.7071 0.7071 -0.7071 -0.7071 3366.5254 1394.5435)" fill="#C28A60" width="143.4" height="143.4"/>
				
					<rect x="1484.8" y="1542.2" transform="matrix(-0.7071 0.7071 -0.7071 -0.7071 3757.7615 1556.5988)" fill="#C28A60" width="143.4" height="28.6"/>
				
					<rect x="1444.3" y="1501.7" transform="matrix(-0.7071 0.7071 -0.7071 -0.7071 3659.988 1516.0997)" fill="#C28A60" width="143.4" height="28.6"/>
				
					<rect x="1403.8" y="1461.2" transform="matrix(-0.7071 0.7071 -0.7071 -0.7071 3562.2148 1475.6007)" fill="#C28A60" width="143.4" height="28.6"/>
				
					<rect x="1241.7" y="1299.1" transform="matrix(-0.7071 0.7071 -0.7071 -0.7071 3170.8376 1313.4869)" fill="#C28A60" width="143.4" height="28.6"/>
				
					<rect x="1646.8" y="1704.2" transform="matrix(-0.7071 0.7071 -0.7071 -0.7071 4148.855 1718.595)" fill="#C28A60" width="143.4" height="28.6"/>
				
					<rect x="1606.3" y="1663.7" transform="matrix(-0.7071 0.7071 -0.7071 -0.7071 4051.0818 1678.0959)" fill="#C28A60" width="143.4" height="28.6"/>
				
					<rect x="1565.8" y="1623.2" transform="matrix(-0.7071 0.7071 -0.7071 -0.7071 3953.3081 1637.5968)" fill="#C28A60" width="143.4" height="28.6"/>
				
					<rect x="1525.3" y="1582.7" transform="matrix(-0.7071 0.7071 -0.7071 -0.7071 3855.5347 1597.0978)" fill="#C28A60" width="143.4" height="28.6"/>
				
					<rect x="1201.2" y="1258.6" transform="matrix(-0.7071 0.7071 -0.7071 -0.7071 3073.0642 1272.9877)" fill="#C28A60" width="143.4" height="28.6"/>
				
					<rect x="1160.7" y="1218.1" transform="matrix(-0.7071 0.7071 -0.7071 -0.7071 2975.2908 1232.4886)" fill="#C28A60" width="143.4" height="28.6"/>
				
					<rect x="1889.9" y="1947.3" transform="matrix(-0.7071 0.7071 -0.7071 -0.7071 4735.7783 1961.7065)" fill="#C28A60" width="143.4" height="28.6"/>
				
					<rect x="1849.4" y="1906.8" transform="matrix(-0.7071 0.7071 -0.7071 -0.7071 4638.0049 1921.2074)" fill="#C28A60" width="143.4" height="28.6"/>
				
					<rect x="1808.9" y="1866.3" transform="matrix(-0.7071 0.7071 -0.7071 -0.7071 4540.231 1880.7083)" fill="#C28A60" width="143.4" height="28.6"/>
				
					<rect x="1768.4" y="1825.8" transform="matrix(-0.7071 0.7071 -0.7071 -0.7071 4442.458 1840.2092)" fill="#C28A60" width="143.4" height="28.6"/>
				
					<rect x="2051.9" y="2109.3" transform="matrix(-0.7071 0.7071 -0.7071 -0.7071 5126.8716 2123.7026)" fill="#C28A60" width="143.4" height="28.6"/>
				
					<rect x="2011.4" y="2068.8" transform="matrix(-0.7071 0.7071 -0.7071 -0.7071 5029.0981 2083.2036)" fill="#C28A60" width="143.4" height="28.6"/>
				
					<rect x="1970.9" y="2028.3" transform="matrix(-0.7071 0.7071 -0.7071 -0.7071 4931.3247 2042.7045)" fill="#C28A60" width="143.4" height="28.6"/>
				
					<rect x="1930.4" y="1987.8" transform="matrix(-0.7071 0.7071 -0.7071 -0.7071 4833.5513 2002.2056)" fill="#C28A60" width="143.4" height="28.6"/>
				
					<rect x="1727.9" y="1785.4" transform="matrix(-0.7071 0.7071 -0.7071 -0.7071 4344.6846 1799.7103)" fill="#C28A60" width="143.4" height="28.6"/>
				
					<rect x="1687.4" y="1744.9" transform="matrix(-0.7071 0.7071 -0.7071 -0.7071 4246.9111 1759.2113)" fill="#C28A60" width="143.4" height="28.6"/>
				<g>
					
						<rect x="514" y="1101.1" transform="matrix(-0.7071 0.7071 -0.7071 -0.7071 1679.2711 1525.9736)" fill="#8A6246" width="19.3" height="19.3"/>
					
						<rect x="615.3" y="1202.5" transform="matrix(-0.7071 0.7071 -0.7071 -0.7071 1923.9012 1627.3027)" fill="#8A6246" width="19.3" height="19.3"/>
					
						<rect x="757" y="858.1" transform="matrix(-0.7071 -0.7071 0.7071 -0.7071 695.0397 2023.4553)" fill="#8A6246" width="19.3" height="19.3"/>
					
						<rect x="858.3" y="959.5" transform="matrix(-0.7071 0.7071 -0.7071 -0.7071 2166.8962 1040.6608)" fill="#8A6246" width="19.3" height="19.3"/>
					
						<rect x="696.2" y="918.9" transform="matrix(-0.7071 0.7071 -0.7071 -0.7071 1861.5175 1085.9921)" fill="#8A6246" width="19.3" height="19.3"/>
					
						<rect x="797.5" y="1020.2" transform="matrix(-0.7071 0.7071 -0.7071 -0.7071 2106.1475 1187.3212)" fill="#8A6246" width="19.3" height="19.3"/>
					
						<rect x="635.5" y="979.6" transform="matrix(-0.7071 0.7071 -0.7071 -0.7071 1800.769 1232.652)" fill="#8A6246" width="19.3" height="19.3"/>
					
						<rect x="736.8" y="1081" transform="matrix(-0.7071 0.7071 -0.7071 -0.7071 2045.3992 1333.9811)" fill="#8A6246" width="19.3" height="19.3"/>
					
						<rect x="574.7" y="1040.4" transform="matrix(-0.7071 0.7071 -0.7071 -0.7071 1740.0205 1379.3119)" fill="#8A6246" width="19.3" height="19.3"/>
					
						<rect x="676" y="1141.7" transform="matrix(-0.7071 0.7071 -0.7071 -0.7071 1984.6506 1480.641)" fill="#8A6246" width="19.3" height="19.3"/>
				</g>
				<g>
					
						<rect x="858.2" y="756.9" transform="matrix(-0.7071 0.7071 -0.7071 -0.7071 2023.5134 694.8994)" fill="#8A6246" width="19.3" height="19.3"/>
					
						<rect x="959.5" y="858.2" transform="matrix(-0.7071 0.7071 -0.7071 -0.7071 2268.1436 796.2285)" fill="#8A6246" width="19.3" height="19.3"/>
					
						<rect x="1101.2" y="513.9" transform="matrix(-0.7071 -0.7071 0.7071 -0.7071 1526.1139 1679.213)" fill="#8A6246" width="19.3" height="19.3"/>
					
						<rect x="1202.5" y="615.2" transform="matrix(-0.7071 0.7071 -0.7071 -0.7071 2511.1384 209.5865)" fill="#8A6246" width="19.3" height="19.3"/>
					
						<rect x="1040.4" y="574.6" transform="matrix(-0.7071 0.7071 -0.7071 -0.7071 2205.7598 254.9177)" fill="#8A6246" width="19.3" height="19.3"/>
					
						<rect x="1141.8" y="676" transform="matrix(-0.7071 0.7071 -0.7071 -0.7071 2450.3899 356.2469)" fill="#8A6246" width="19.3" height="19.3"/>
					
						<rect x="979.7" y="635.4" transform="matrix(-0.7071 0.7071 -0.7071 -0.7071 2145.0112 401.5776)" fill="#8A6246" width="19.3" height="19.3"/>
					
						<rect x="1081" y="736.7" transform="matrix(-0.7071 0.7071 -0.7071 -0.7071 2389.6414 502.9067)" fill="#8A6246" width="19.3" height="19.3"/>
					
						<rect x="919" y="696.1" transform="matrix(-0.7071 0.7071 -0.7071 -0.7071 2084.2627 548.2375)" fill="#8A6246" width="19.3" height="19.3"/>
					
						<rect x="1020.3" y="797.5" transform="matrix(-0.7071 0.7071 -0.7071 -0.7071 2328.8928 649.5666)" fill="#8A6246" width="19.3" height="19.3"/>
				</g>
				<g>
					
						<rect x="1040.6" y="1627.8" transform="matrix(-0.7071 0.7071 -0.7071 -0.7071 2950.6501 2052.5962)" fill="#8A6246" width="19.3" height="19.3"/>
					
						<rect x="1141.9" y="1729.1" transform="matrix(-0.7071 0.7071 -0.7071 -0.7071 3195.2803 2153.9253)" fill="#8A6246" width="19.3" height="19.3"/>
					
						<rect x="1222.8" y="1445.5" transform="matrix(-0.7071 0.7071 -0.7071 -0.7071 3132.8965 1612.6145)" fill="#8A6246" width="19.3" height="19.3"/>
					
						<rect x="1324.2" y="1546.8" transform="matrix(-0.7071 0.7071 -0.7071 -0.7071 3377.5266 1713.9436)" fill="#8A6246" width="19.3" height="19.3"/>
					
						<rect x="1162.1" y="1506.3" transform="matrix(-0.7071 0.7071 -0.7071 -0.7071 3072.1479 1759.2744)" fill="#8A6246" width="19.3" height="19.3"/>
					
						<rect x="1263.4" y="1607.6" transform="matrix(-0.7071 0.7071 -0.7071 -0.7071 3316.7781 1860.6035)" fill="#8A6246" width="19.3" height="19.3"/>
					
						<rect x="1101.3" y="1567" transform="matrix(-0.7071 0.7071 -0.7071 -0.7071 3011.3997 1905.9343)" fill="#8A6246" width="19.3" height="19.3"/>
					
						<rect x="1202.7" y="1668.3" transform="matrix(-0.7071 0.7071 -0.7071 -0.7071 3256.0295 2007.2633)" fill="#8A6246" width="19.3" height="19.3"/>
					
						<rect x="1627.8" y="1040.5" transform="matrix(-0.7071 -0.7071 0.7071 -0.7071 2052.7363 2950.5923)" fill="#8A6246" width="19.3" height="19.3"/>
					
						<rect x="1729.1" y="1141.9" transform="matrix(-0.7071 0.7071 -0.7071 -0.7071 3782.5173 736.209)" fill="#8A6246" width="19.3" height="19.3"/>
					
						<rect x="1567.1" y="1101.3" transform="matrix(-0.7071 0.7071 -0.7071 -0.7071 3477.1387 781.5403)" fill="#8A6246" width="19.3" height="19.3"/>
					
						<rect x="1668.4" y="1202.6" transform="matrix(-0.7071 0.7071 -0.7071 -0.7071 3721.7688 882.8694)" fill="#8A6246" width="19.3" height="19.3"/>
					
						<rect x="1506.3" y="1162" transform="matrix(-0.7071 0.7071 -0.7071 -0.7071 3416.3904 928.1997)" fill="#8A6246" width="19.3" height="19.3"/>
					
						<rect x="1607.7" y="1263.3" transform="matrix(-0.7071 0.7071 -0.7071 -0.7071 3661.0205 1029.5288)" fill="#8A6246" width="19.3" height="19.3"/>
					
						<rect x="1445.6" y="1222.8" transform="matrix(-0.7071 0.7071 -0.7071 -0.7071 3355.6418 1074.8601)" fill="#8A6246" width="19.3" height="19.3"/>
					
						<rect x="1546.9" y="1324.1" transform="matrix(-0.7071 0.7071 -0.7071 -0.7071 3600.2717 1176.1891)" fill="#8A6246" width="19.3" height="19.3"/>
				</g>
				<g>
					
						<rect x="1162" y="1263.3" transform="matrix(-0.7071 0.7071 -0.7071 -0.7071 2900.1838 1344.6793)" fill="#8A6246" width="19.3" height="19.3"/>
					
						<rect x="1263.3" y="1162" transform="matrix(-0.7071 0.7071 -0.7071 -0.7071 3001.5127 1100.0497)" fill="#8A6246" width="19.3" height="19.3"/>
					
						<rect x="1222.7" y="1324.1" transform="matrix(-0.7071 0.7071 -0.7071 -0.7071 3046.843 1405.4275)" fill="#8A6246" width="19.3" height="19.3"/>
					
						<rect x="1324" y="1222.8" transform="matrix(-0.7071 0.7071 -0.7071 -0.7071 3148.1716 1160.7979)" fill="#8A6246" width="19.3" height="19.3"/>
					
						<rect x="1283.5" y="1384.9" transform="matrix(-0.7071 0.7071 -0.7071 -0.7071 3193.5459 1466.1938)" fill="#8A6246" width="19.3" height="19.3"/>
					
						<rect x="1384.8" y="1283.5" transform="matrix(-0.7071 0.7071 -0.7071 -0.7071 3294.875 1221.5643)" fill="#8A6246" width="19.3" height="19.3"/>
					
						<rect x="919" y="1020.4" transform="matrix(-0.7071 0.7071 -0.7071 -0.7071 2313.542 1101.6844)" fill="#8A6246" width="19.3" height="19.3"/>
					
						<rect x="1020.3" y="919" transform="matrix(-0.7071 -0.7071 0.7071 -0.7071 1101.5425 2313.6006)" fill="#8A6246" width="19.3" height="19.3"/>
					
						<rect x="979.7" y="1081.1" transform="matrix(-0.7071 0.7071 -0.7071 -0.7071 2460.2021 1162.4331)" fill="#8A6246" width="19.3" height="19.3"/>
					
						<rect x="1081" y="979.8" transform="matrix(-0.7071 0.7071 -0.7071 -0.7071 2561.531 917.8033)" fill="#8A6246" width="19.3" height="19.3"/>
					
						<rect x="1040.5" y="1141.9" transform="matrix(-0.7071 0.7071 -0.7071 -0.7071 2606.8621 1223.1814)" fill="#8A6246" width="19.3" height="19.3"/>
					
						<rect x="1141.8" y="1040.5" transform="matrix(-0.7071 0.7071 -0.7071 -0.7071 2708.1909 978.5519)" fill="#8A6246" width="19.3" height="19.3"/>
					
						<rect x="1101.2" y="1202.6" transform="matrix(-0.7071 0.7071 -0.7071 -0.7071 2753.522 1283.9299)" fill="#8A6246" width="19.3" height="19.3"/>
					
						<rect x="1202.5" y="1101.3" transform="matrix(-0.7071 0.7071 -0.7071 -0.7071 2854.8511 1039.3004)" fill="#8A6246" width="19.3" height="19.3"/>
					
						<rect x="1627.9" y="1729.3" transform="matrix(-0.7071 0.7071 -0.7071 -0.7071 4025.1013 1810.6354)" fill="#8A6246" width="19.3" height="19.3"/>
					
						<rect x="1729.2" y="1628" transform="matrix(-0.7071 0.7071 -0.7071 -0.7071 4126.4302 1566.0056)" fill="#8A6246" width="19.3" height="19.3"/>
					
						<rect x="1688.7" y="1790.1" transform="matrix(-0.7071 0.7071 -0.7071 -0.7071 4171.7603 1871.3835)" fill="#8A6246" width="19.3" height="19.3"/>
					
						<rect x="1790" y="1688.7" transform="matrix(-0.7071 0.7071 -0.7071 -0.7071 4273.0894 1626.7538)" fill="#8A6246" width="19.3" height="19.3"/>
					
						<rect x="1749.4" y="1850.8" transform="matrix(-0.7071 0.7071 -0.7071 -0.7071 4318.4634 1932.1499)" fill="#8A6246" width="19.3" height="19.3"/>
					
						<rect x="1850.8" y="1749.5" transform="matrix(-0.7071 0.7071 -0.7071 -0.7071 4419.7925 1687.5204)" fill="#8A6246" width="19.3" height="19.3"/>
					
						<rect x="1384.9" y="1486.3" transform="matrix(-0.7071 0.7071 -0.7071 -0.7071 3438.4592 1567.6403)" fill="#8A6246" width="19.3" height="19.3"/>
					
						<rect x="1486.3" y="1385" transform="matrix(-0.7071 0.7071 -0.7071 -0.7071 3539.7881 1323.0105)" fill="#8A6246" width="19.3" height="19.3"/>
					
						<rect x="1445.7" y="1547.1" transform="matrix(-0.7071 0.7071 -0.7071 -0.7071 3585.1196 1628.389)" fill="#8A6246" width="19.3" height="19.3"/>
					
						<rect x="1547" y="1445.7" transform="matrix(-0.7071 0.7071 -0.7071 -0.7071 3686.4485 1383.7594)" fill="#8A6246" width="19.3" height="19.3"/>
					
						<rect x="1506.4" y="1607.8" transform="matrix(-0.7071 0.7071 -0.7071 -0.7071 3731.7798 1689.1376)" fill="#8A6246" width="19.3" height="19.3"/>
					
						<rect x="1607.7" y="1506.5" transform="matrix(-0.7071 0.7071 -0.7071 -0.7071 3833.1084 1444.5079)" fill="#8A6246" width="19.3" height="19.3"/>
					
						<rect x="1567.2" y="1668.6" transform="matrix(-0.7071 0.7071 -0.7071 -0.7071 3878.4395 1749.8862)" fill="#8A6246" width="19.3" height="19.3"/>
					
						<rect x="1668.5" y="1567.2" transform="matrix(-0.7071 0.7071 -0.7071 -0.7071 3979.7683 1505.2565)" fill="#8A6246" width="19.3" height="19.3"/>
					
						<rect x="1891.2" y="1992.6" transform="matrix(-0.7071 0.7071 -0.7071 -0.7071 4660.6499 2073.8884)" fill="#8A6246" width="19.3" height="19.3"/>
					
						<rect x="1992.5" y="1891.2" transform="matrix(-0.7071 0.7071 -0.7071 -0.7071 4761.979 1829.2588)" fill="#8A6246" width="19.3" height="19.3"/>
					
						<rect x="1951.9" y="2053.3" transform="matrix(-0.7071 0.7071 -0.7071 -0.7071 4807.3091 2134.6365)" fill="#8A6246" width="19.3" height="19.3"/>
					
						<rect x="2053.2" y="1952" transform="matrix(-0.7071 0.7071 -0.7071 -0.7071 4908.6382 1890.0071)" fill="#8A6246" width="19.3" height="19.3"/>
					
						<rect x="2012.7" y="2114.1" transform="matrix(-0.7071 0.7071 -0.7071 -0.7071 4954.0122 2195.4028)" fill="#8A6246" width="19.3" height="19.3"/>
					
						<rect x="2114" y="2012.7" transform="matrix(-0.7071 0.7071 -0.7071 -0.7071 5055.3413 1950.7732)" fill="#8A6246" width="19.3" height="19.3"/>
					
						<rect x="2073.4" y="2174.8" transform="matrix(-0.7071 0.7071 -0.7071 -0.7071 5100.6504 2256.1423)" fill="#8A6246" width="19.3" height="19.3"/>
					
						<rect x="2174.8" y="2073.5" transform="matrix(-0.7071 0.7071 -0.7071 -0.7071 5201.9795 2011.5127)" fill="#8A6246" width="19.3" height="19.3"/>
					
						<rect x="1830.4" y="1931.8" transform="matrix(-0.7071 0.7071 -0.7071 -0.7071 4513.9883 2013.139)" fill="#8A6246" width="19.3" height="19.3"/>
					
						<rect x="1931.8" y="1830.5" transform="matrix(-0.7071 0.7071 -0.7071 -0.7071 4615.3174 1768.5094)" fill="#8A6246" width="19.3" height="19.3"/>
				</g>
			</g>
			<g>
				<polygon fill="#E6E6E6" points="1273.7,197.2 1008.8,462 1273.7,462 				"/>
				<polygon fill="#CCCCCC" points="1008.8,462 1273.7,726.9 1273.7,462 				"/>
				<polygon fill="#B3B3B3" points="1273.7,726.9 1538.5,462 1273.7,462 				"/>
				<polygon fill="#CCCCCC" points="1273.7,462 1538.5,462 1273.7,197.2 				"/>
			</g>
			<g>
				<polygon fill="#E6E6E6" points="462.1,1008.8 197.3,1273.6 462.1,1273.6 				"/>
				<polygon fill="#CCCCCC" points="197.3,1273.6 462.1,1538.5 462.1,1273.6 				"/>
				<polygon fill="#B3B3B3" points="462.1,1538.5 727,1273.6 462.1,1273.6 				"/>
				<polygon fill="#CCCCCC" points="462.1,1273.6 727,1273.6 462.1,1008.8 				"/>
			</g>
			<g>
				<polygon fill="#E6E6E6" points="1800.3,723.8 1535.4,988.7 1800.3,988.7 				"/>
				<polygon fill="#CCCCCC" points="1535.4,988.7 1800.3,1253.5 1800.3,988.7 				"/>
				<polygon fill="#B3B3B3" points="1800.3,1253.5 2065.1,988.7 1800.3,988.7 				"/>
				<polygon fill="#CCCCCC" points="1800.3,988.7 2065.1,988.7 1800.3,723.8 				"/>
			</g>
			<g>
				<polygon fill="#E6E6E6" points="988.7,1535.4 723.9,1800.2 988.7,1800.2 				"/>
				<polygon fill="#CCCCCC" points="723.9,1800.2 988.7,2065.1 988.7,1800.2 				"/>
				<polygon fill="#B3B3B3" points="988.7,2065.1 1253.6,1800.2 988.7,1800.2 				"/>
				<polygon fill="#CCCCCC" points="988.7,1800.2 1253.6,1800.2 988.7,1535.4 				"/>
			</g>
		</g>
	</g>
</g>
</svg>
