<?xml version="1.0" encoding="utf-8"?>
<!-- Generator: Adobe Illustrator 19.0.0, SVG Export Plug-In . SVG Version: 6.00 Build 0)  -->
<svg version="1.1" id="Layer_1" xmlns="http://www.w3.org/2000/svg" xmlns:xlink="http://www.w3.org/1999/xlink" x="0px" y="0px"
	 width="1400px" height="1400px" viewBox="0 0 1400 1400" enable-background="new 0 0 1400 1400" xml:space="preserve">
<rect id="XMLID_279_" fill-rule="evenodd" clip-rule="evenodd" fill="#90D4FF" width="1400" height="1400"/>
<path id="XMLID_280_" fill-rule="evenodd" clip-rule="evenodd" fill="#63B6DD" d="M1183,1215.9H201.6c-18.1,0-32.8-14.7-32.8-32.8
	l0,0c0-18.1,14.7-32.8,32.8-32.8H1183c18.1,0,32.8,14.7,32.8,32.8l0,0C1215.9,1201.2,1201.2,1215.9,1183,1215.9z"/>
<g id="XMLID_278_">
	<g id="XMLID_189_">
		<g id="XMLID_183_">
			<g id="XMLID_184_">
				
					<rect id="XMLID_272_" x="615.9" y="316.7" fill-rule="evenodd" clip-rule="evenodd" fill="#E1DAE5" width="12.1" height="148.8"/>
				
					<rect id="XMLID_271_" x="767.7" y="316.7" fill-rule="evenodd" clip-rule="evenodd" fill="#E1DAE5" width="12.1" height="148.8"/>
				<path id="XMLID_270_" fill-rule="evenodd" clip-rule="evenodd" fill="#323733" d="M637.5,243.3h120.9
					c14.2,0,25.8,11.6,25.8,25.8l0,62h-20.5v-62c0-2.9-2.4-5.8-5.3-5.3H637.5c-2.8-0.5-5.3,2.4-5.3,5.3v62h-20.5v-62
					C611.8,254.9,623.4,243.3,637.5,243.3"/>
				<path id="XMLID_269_" fill-rule="evenodd" clip-rule="evenodd" fill="#1E1618" d="M632.8,421.6c1.3,0.5,1.9,2,1.4,3.3l-6.3,15.6
					c-0.5,1.3-2,1.9-3.3,1.4c-1.3-0.5-1.9-2-1.4-3.2l6.3-15.6C630.1,421.7,631.5,421.1,632.8,421.6"/>
				<path id="XMLID_268_" fill-rule="evenodd" clip-rule="evenodd" fill="#1E1618" d="M763.2,421.6c-1.3,0.5-1.9,2-1.4,3.3l6.3,15.6
					c0.5,1.3,2,1.9,3.3,1.4c1.3-0.5,1.9-2,1.4-3.2l-6.3-15.6C765.9,421.7,764.4,421.1,763.2,421.6"/>
				<path id="XMLID_267_" fill-rule="evenodd" clip-rule="evenodd" fill="#323733" d="M698.1,409c-24.8,0-46.8,6.8-60,17.1
					c-4.4,3.3-12.9,3-11.8,0c6.8-18.3,36.4-32.1,71.9-32.1c35.5,0,65.1,13.8,71.9,32.1c1.1,3-7.5,3.3-11.9,0
					C744.8,415.8,722.9,409,698.1,409"/>
				<path id="XMLID_266_" fill-rule="evenodd" clip-rule="evenodd" fill="#323733" d="M618.4,439.3h159.3c4.3,0,7.9,3.5,7.9,7.9v2.6
					c0,4.3-3.5,7.9-7.9,7.9H618.4c-4.3,0-7.9-3.5-7.9-7.9l0-2.6C610.5,442.8,614,439.3,618.4,439.3"/>
				<path id="XMLID_220_" fill-rule="evenodd" clip-rule="evenodd" fill="#FF8700" d="M554.2,457.7h287c43.1,0,78.4,35.3,78.4,78.4
					v511.8c0,32.8-26.8,59.5-59.5,59.5H535.4c-32.8,0-59.5-26.8-59.5-59.5V536C475.8,492.9,511.1,457.7,554.2,457.7"/>
				<path id="XMLID_219_" fill-rule="evenodd" clip-rule="evenodd" fill="#1E1618" d="M955.6,847.7c-0.5-1.3-2-1.9-3.3-1.4
					l-15.6,6.3c-1.3,0.5-1.9,2-1.4,3.2c0.5,1.3,2,1.9,3.2,1.4l15.6-6.3C955.5,850.5,956.1,849,955.6,847.7"/>
				<path id="XMLID_185_" fill-rule="evenodd" clip-rule="evenodd" fill="#1E1618" d="M955.6,717.6c-0.5,1.3-2,1.9-3.3,1.4
					l-15.6-6.3c-1.3-0.5-1.9-2-1.4-3.2c0.5-1.3,2-1.9,3.2-1.4l15.6,6.3C955.5,714.9,956.1,716.3,955.6,717.6"/>
				<path id="XMLID_217_" fill-rule="evenodd" clip-rule="evenodd" fill="#323733" d="M968.1,782.5c0,24.8-6.8,46.8-17.1,60
					c-3.3,4.4-3,12.9,0,11.9c18.3-6.8,32.1-36.4,32.1-71.9c0-35.5-13.8-65.1-32.1-71.9c-3-1.1-3.3,7.5,0,11.8
					C961.4,735.7,968.1,757.6,968.1,782.5"/>
				<path id="XMLID_216_" fill-rule="evenodd" clip-rule="evenodd" fill="#323733" d="M937.9,862.2V702.9c0-4.3-3.5-7.9-7.9-7.9
					h-2.6c-4.3,0-7.9,3.5-7.9,7.9l0,159.3c0,4.3,3.5,7.9,7.9,7.9h2.6C934.4,870.1,937.9,866.5,937.9,862.2"/>
				<path id="XMLID_215_" fill-rule="evenodd" clip-rule="evenodd" fill="#FF8700" d="M566.8,499.8h261.7c23,0,41.7,21.6,41.7,48
					v193.9H525.1V547.8C525.1,521.4,543.9,499.8,566.8,499.8"/>
				<path id="XMLID_214_" fill-rule="evenodd" clip-rule="evenodd" fill="#DB4200" d="M573.1,492.5h249.2c26.4,0,48,21.6,48,48
					v201.2H525.1V540.5C525.1,514.1,546.7,492.5,573.1,492.5"/>
				<path id="XMLID_213_" fill-rule="evenodd" clip-rule="evenodd" fill="#FFAE00" d="M566.8,492.5h261.7c23,0,41.7,21.6,41.7,48
					v193.9H525.1V540.5C525.1,514.1,543.9,492.5,566.8,492.5"/>
				<path id="XMLID_212_" fill-rule="evenodd" clip-rule="evenodd" fill="#FF5E00" d="M870.2,547.8v186.6H525.1V547.8
					c0-26.4,18.8-48,41.7-48h261.7C851.5,499.8,870.2,521.4,870.2,547.8"/>
				<path id="XMLID_211_" fill-rule="evenodd" clip-rule="evenodd" fill="#FFAE00" d="M569.9,783.7h255.6
					c24.6,0,44.8,20.2,44.8,44.8v163.1c0,24.6-20.2,44.8-44.8,44.8H569.9c-24.6,0-44.8-20.2-44.8-44.8V828.5
					C525.1,803.9,545.2,783.7,569.9,783.7"/>
				<path id="XMLID_210_" fill-rule="evenodd" clip-rule="evenodd" fill="#DB4200" d="M870.2,835v156.7c0,24.6-20.2,44.8-44.8,44.8
					H569.9c-24.6,0-44.8-20.2-44.8-44.8V835c0-24.6,20.2-44.8,44.8-44.8h255.6C850.1,790.2,870.2,810.4,870.2,835"/>
				<path id="XMLID_209_" fill-rule="evenodd" clip-rule="evenodd" fill="#FF5E00" d="M870.2,835v150.2c0,24.6-20.2,44.8-44.8,44.8
					H569.9c-24.6,0-44.8-20.2-44.8-44.8V835c0-24.6,20.2-44.8,44.8-44.8h255.6C850.1,790.2,870.2,810.4,870.2,835"/>
				<path id="XMLID_206_" fill-rule="evenodd" clip-rule="evenodd" fill="#B3321C" d="M666.7,246.9c2.1,0,3.9,1.7,3.9,3.9
					c0,2.1-1.7,3.9-3.9,3.9c-2.1,0-3.9-1.7-3.9-3.9C662.9,248.6,664.6,246.9,666.7,246.9 M658.7,244.1h16l7.6,7.6v44.2
					c-1,0-1.8,0.8-1.8,1.8c0,1,0.8,1.8,1.8,1.8v15.6l0,7.6h-31.3v-23.2c1,0,1.8-0.8,1.8-1.8c0-1-0.8-1.8-1.8-1.8v-44.2L658.7,244.1z
					"/>
				<polygon id="XMLID_205_" fill-rule="evenodd" clip-rule="evenodd" fill="#F9FAF5" points="653.6,256.4 653.6,320.2 679.8,320.2 
					679.8,256.4 673.7,256.4 659.7,256.4 				"/>
				<rect id="XMLID_204_" x="655.6" y="260.2" fill-rule="evenodd" clip-rule="evenodd" fill="#2F2D32" width="11.3" height="0.9"/>
				<rect id="XMLID_203_" x="655.6" y="264.7" fill-rule="evenodd" clip-rule="evenodd" fill="#2F2D32" width="22.5" height="0.9"/>
				<rect id="XMLID_202_" x="655.6" y="269.2" fill-rule="evenodd" clip-rule="evenodd" fill="#2F2D32" width="22.5" height="0.9"/>
				<rect id="XMLID_201_" x="655.6" y="273.7" fill-rule="evenodd" clip-rule="evenodd" fill="#2F2D32" width="22.5" height="0.9"/>
				<rect id="XMLID_200_" x="655.6" y="278.3" fill-rule="evenodd" clip-rule="evenodd" fill="#2F2D32" width="22.5" height="0.9"/>
				<rect id="XMLID_199_" x="655.6" y="282.8" fill-rule="evenodd" clip-rule="evenodd" fill="#2F2D32" width="22.5" height="0.9"/>
				<rect id="XMLID_198_" x="655.6" y="287.3" fill-rule="evenodd" clip-rule="evenodd" fill="#2F2D32" width="22.5" height="0.9"/>
				<rect id="XMLID_197_" x="655.6" y="291.8" fill-rule="evenodd" clip-rule="evenodd" fill="#2F2D32" width="22.5" height="0.9"/>
				<rect id="XMLID_196_" x="655.6" y="296.3" fill-rule="evenodd" clip-rule="evenodd" fill="#2F2D32" width="22.5" height="0.9"/>
				<rect id="XMLID_195_" x="655.6" y="300.8" fill-rule="evenodd" clip-rule="evenodd" fill="#2F2D32" width="22.5" height="0.9"/>
				<rect id="XMLID_194_" x="655.6" y="305.3" fill-rule="evenodd" clip-rule="evenodd" fill="#2F2D32" width="22.5" height="0.9"/>
				<rect id="XMLID_192_" x="655.6" y="309.8" fill-rule="evenodd" clip-rule="evenodd" fill="#2F2D32" width="22.5" height="0.9"/>
				<rect id="XMLID_191_" x="655.6" y="314.3" fill-rule="evenodd" clip-rule="evenodd" fill="#2F2D32" width="22.5" height="0.9"/>
				<path id="XMLID_190_" fill-rule="evenodd" clip-rule="evenodd" fill="#972918" d="M665.9,240.9h1.7c0.9,0,1.6,0.7,1.6,1.6v8.2
					c0,0.9-0.7,1.6-1.6,1.6h-1.7c-0.9,0-1.6-0.7-1.6-1.6v-8.2C664.2,241.6,665,240.9,665.9,240.9"/>
			</g>
		</g>
		<g id="XMLID_273_">
			
				<rect id="XMLID_187_" x="544.7" y="1107.4" fill-rule="evenodd" clip-rule="evenodd" fill="#323733" width="43.2" height="16.8"/>
			
				<rect id="XMLID_188_" x="553.7" y="1124.2" fill-rule="evenodd" clip-rule="evenodd" fill="#323733" width="25.3" height="58.3"/>
			
				<rect id="XMLID_218_" x="549.3" y="1124.2" fill-rule="evenodd" clip-rule="evenodd" fill="#323733" width="34.1" height="29.1"/>
		</g>
		<g id="XMLID_274_">
			
				<rect id="XMLID_277_" x="807.4" y="1107.4" fill-rule="evenodd" clip-rule="evenodd" fill="#323733" width="43.2" height="16.8"/>
			
				<rect id="XMLID_276_" x="816.4" y="1124.2" fill-rule="evenodd" clip-rule="evenodd" fill="#323733" width="25.3" height="58.3"/>
			<rect id="XMLID_275_" x="812" y="1124.2" fill-rule="evenodd" clip-rule="evenodd" fill="#323733" width="34.1" height="29.1"/>
		</g>
	</g>
	<g id="XMLID_1_">
		<path id="XMLID_34_" fill-rule="evenodd" clip-rule="evenodd" fill="#00314D" d="M632.4,972.9H1158c17.4,0,31.5,14.2,31.5,31.5
			v129.8c0,17.4-14.2,31.5-31.5,31.5H632.4c-17.4,0-31.5-14.2-31.5-31.5v-129.8C600.8,987.1,615,972.9,632.4,972.9"/>
		<path id="XMLID_33_" fill-rule="evenodd" clip-rule="evenodd" fill="#00385E" d="M659.4,972.9h471.7c17.4,0,31.5,14.2,31.5,31.5
			v129.8c0,17.4-14.2,31.5-31.5,31.5H659.4c-17.4,0-31.5-14.2-31.5-31.5v-129.8C627.8,987.1,642,972.9,659.4,972.9"/>
		<path id="XMLID_32_" fill-rule="evenodd" clip-rule="evenodd" fill="#002743" d="M1189.6,1124.1v10.2c0,17.4-14.2,31.5-31.5,31.5
			H632.4c-17.4,0-31.5-14.2-31.5-31.5v-10.2H1189.6z"/>
		<path id="XMLID_31_" fill-rule="evenodd" clip-rule="evenodd" fill="#00314D" d="M1162.6,1124.1v10.2c0,17.4-14.2,31.5-31.5,31.5
			H659.4c-17.4,0-31.5-14.2-31.5-31.5v-10.2H1162.6z"/>
		<path id="XMLID_30_" fill-rule="evenodd" clip-rule="evenodd" fill="#00385E" d="M1189.6,1014.7v-10.2c0-17.4-14.2-31.5-31.5-31.5
			H632.4c-17.4,0-31.5,14.2-31.5,31.5v10.2H1189.6z"/>
		<path id="XMLID_29_" fill-rule="evenodd" clip-rule="evenodd" fill="#003F66" d="M1162.6,1014.7v-10.2c0-17.4-14.2-31.5-31.5-31.5
			H659.4c-17.4,0-31.5,14.2-31.5,31.5v10.2H1162.6z"/>
		<rect id="XMLID_28_" x="600.8" y="1026.9" fill-rule="evenodd" clip-rule="evenodd" fill="#002948" width="588.7" height="4.6"/>
		<path id="XMLID_27_" fill-rule="evenodd" clip-rule="evenodd" fill="#798085" d="M696.6,1002.7h24.8c4.5,0,8.1,3.7,8.1,8.1v36
			c0,4.5-3.7,8.1-8.1,8.1h-24.8c-4.5,0-8.1-3.7-8.1-8.1v-36C688.4,1006.3,692.1,1002.7,696.6,1002.7"/>
		<rect id="XMLID_26_" x="697.6" y="1011.8" fill-rule="evenodd" clip-rule="evenodd" fill="#C1BDBC" width="22.7" height="33.9"/>
		<rect id="XMLID_25_" x="706.7" y="1021.4" fill-rule="evenodd" clip-rule="evenodd" fill="#6C6C76" width="4.6" height="14.7"/>
		<path id="XMLID_24_" fill-rule="evenodd" clip-rule="evenodd" fill="#798085" d="M1069.1,1002.7h24.8c4.5,0,8.1,3.7,8.1,8.1v36
			c0,4.5-3.7,8.1-8.1,8.1h-24.8c-4.5,0-8.1-3.7-8.1-8.1v-36C1060.9,1006.3,1064.6,1002.7,1069.1,1002.7"/>
		<rect id="XMLID_23_" x="1070.1" y="1011.8" fill-rule="evenodd" clip-rule="evenodd" fill="#C1BDBC" width="22.7" height="33.9"/>
		<rect id="XMLID_22_" x="1079.2" y="1021.4" fill-rule="evenodd" clip-rule="evenodd" fill="#6C6C76" width="4.6" height="14.7"/>
		<rect id="XMLID_21_" x="804.6" y="1046" fill-rule="evenodd" clip-rule="evenodd" fill="#BFBDCB" width="47.5" height="19.5"/>
		<rect id="XMLID_20_" x="938.3" y="1046" fill-rule="evenodd" clip-rule="evenodd" fill="#BFBDCB" width="47.5" height="19.5"/>
		<path id="XMLID_19_" fill-rule="evenodd" clip-rule="evenodd" fill="#D6D6D6" d="M831.9,1053h16.4v28.1c0,6.4,5.3,11.7,11.7,11.7
			h70.3c6.4,0,11.7-5.3,11.7-11.7V1053h16.4v28.1c0,15.5-12.7,28.1-28.1,28.1h-70.3c-15.5,0-28.1-12.7-28.1-28.1V1053z"/>
		<path id="XMLID_52_" fill-rule="evenodd" clip-rule="evenodd" fill="#B3321C" d="M894.6,1095.8c1.6,0,3,1.3,3,3s-1.3,3-3,3
			c-1.6,0-3-1.3-3-3S893,1095.8,894.6,1095.8 M888.5,1093.7h12.3l5.9,5.9v34c-0.8,0-1.4,0.6-1.4,1.4c0,0.8,0.6,1.4,1.4,1.4v12l0,5.9
			h-24.1v-17.8c0.8,0,1.4-0.6,1.4-1.4c0-0.8-0.6-1.4-1.4-1.4v-34L888.5,1093.7z"/>
		<polygon id="XMLID_16_" fill-rule="evenodd" clip-rule="evenodd" fill="#F9FAF5" points="884.5,1103.2 884.5,1152.2 904.7,1152.2 
			904.7,1103.2 900,1103.2 889.3,1103.2 		"/>
		<rect id="XMLID_15_" x="886.1" y="1106.1" fill-rule="evenodd" clip-rule="evenodd" fill="#2F2D32" width="8.7" height="0.7"/>
		<rect id="XMLID_14_" x="886.1" y="1109.5" fill-rule="evenodd" clip-rule="evenodd" fill="#2F2D32" width="17.3" height="0.7"/>
		<rect id="XMLID_13_" x="886.1" y="1113" fill-rule="evenodd" clip-rule="evenodd" fill="#2F2D32" width="17.3" height="0.7"/>
		<rect id="XMLID_12_" x="886.1" y="1116.5" fill-rule="evenodd" clip-rule="evenodd" fill="#2F2D32" width="17.3" height="0.7"/>
		<rect id="XMLID_11_" x="886.1" y="1119.9" fill-rule="evenodd" clip-rule="evenodd" fill="#2F2D32" width="17.3" height="0.7"/>
		<rect id="XMLID_10_" x="886.1" y="1123.4" fill-rule="evenodd" clip-rule="evenodd" fill="#2F2D32" width="17.3" height="0.7"/>
		<rect id="XMLID_9_" x="886.1" y="1126.9" fill-rule="evenodd" clip-rule="evenodd" fill="#2F2D32" width="17.3" height="0.7"/>
		<rect id="XMLID_8_" x="886.1" y="1130.3" fill-rule="evenodd" clip-rule="evenodd" fill="#2F2D32" width="17.3" height="0.7"/>
		<rect id="XMLID_7_" x="886.1" y="1133.8" fill-rule="evenodd" clip-rule="evenodd" fill="#2F2D32" width="17.3" height="0.7"/>
		<rect id="XMLID_6_" x="886.1" y="1137.3" fill-rule="evenodd" clip-rule="evenodd" fill="#2F2D32" width="17.3" height="0.7"/>
		<rect id="XMLID_5_" x="886.1" y="1140.7" fill-rule="evenodd" clip-rule="evenodd" fill="#2F2D32" width="17.3" height="0.7"/>
		<rect id="XMLID_4_" x="886.1" y="1144.2" fill-rule="evenodd" clip-rule="evenodd" fill="#2F2D32" width="17.3" height="0.7"/>
		<rect id="XMLID_3_" x="886.1" y="1147.7" fill-rule="evenodd" clip-rule="evenodd" fill="#2F2D32" width="17.3" height="0.7"/>
		<path id="XMLID_2_" fill-rule="evenodd" clip-rule="evenodd" fill="#972918" d="M894,1091.2h1.3c0.7,0,1.3,0.6,1.3,1.3v6.3
			c0,0.7-0.6,1.3-1.3,1.3H894c-0.7,0-1.3-0.6-1.3-1.3v-6.3C892.7,1091.8,893.3,1091.2,894,1091.2"/>
	</g>
	<g id="XMLID_114_">
		<path id="XMLID_112_" fill-rule="evenodd" clip-rule="evenodd" fill="#5E3B27" d="M665.2,801.1h502.9c5.5,0,10.1,4.5,10.1,10.1
			v151.2c0,5.5-4.5,10.1-10.1,10.1H665.2c-5.5,0-10.1-4.5-10.1-10.1V811.2C655.1,805.6,659.7,801.1,665.2,801.1"/>
		<path id="XMLID_111_" fill-rule="evenodd" clip-rule="evenodd" fill="#5E3B27" d="M1178.2,926.3v36.1c0,0.1,0,0.2,0,0.3h0
			c-0.1,5.4-4.9,9.8-10.7,9.8H665.8c-5.8,0-10.5-4.4-10.7-9.8h0c0-0.1,0-0.2,0-0.3v-36.1H1178.2z"/>
		<path id="XMLID_110_" fill-rule="evenodd" clip-rule="evenodd" fill="#5E3B27" d="M679.9,801.1h488.2c5.5,0,10.1,4.5,10.1,10.1
			v151.2c0,5.5-4.5,10.1-10.1,10.1H679.9c-5.5,0-10.1-4.5-10.1-10.1V811.2C669.9,805.6,674.4,801.1,679.9,801.1"/>
		<path id="XMLID_109_" fill-rule="evenodd" clip-rule="evenodd" fill="#805133" d="M679.9,801.1h473.4c5.5,0,10.1,4.5,10.1,10.1
			v151.2c0,5.5-4.5,10.1-10.1,10.1H679.9c-5.5,0-10.1-4.5-10.1-10.1V811.2C669.9,805.6,674.4,801.1,679.9,801.1"/>
		<path id="XMLID_108_" fill-rule="evenodd" clip-rule="evenodd" fill="#754930" d="M1178.2,926.3v36.1c0,5.5-4.8,10.1-10.7,10.1
			H665.8c-5.9,0-10.7-4.5-10.7-10.1v-36.1H1178.2z"/>
		<path id="XMLID_107_" fill-rule="evenodd" clip-rule="evenodd" fill="#8C634A" d="M665.2,801.1h502.9c5,0,9.2,3.7,9.9,8.5
			c-0.8,4.8-4.9,8.5-9.9,8.5H665.2c-5,0-9.2-3.7-9.9-8.5C656,804.8,660.2,801.1,665.2,801.1"/>
		<path id="XMLID_106_" fill-rule="evenodd" clip-rule="evenodd" fill="#333834" d="M664.3,799h9.9c1.3,0,2.3,1,2.3,2.3v19.5
			c0,1.4-1.1,2.5-2.5,2.5h-19.2c-1.4,0-2.6-1.2-2.6-2.6v-9.6C652.1,804.4,657.6,799,664.3,799"/>
		<path id="XMLID_105_" fill-rule="evenodd" clip-rule="evenodd" fill="#333834" d="M1168,799h-9.9c-1.3,0-2.3,1-2.3,2.3v19.5
			c0,1.4,1.1,2.5,2.5,2.5h19.2c1.4,0,2.6-1.2,2.6-2.6v-9.6C1180.2,804.4,1174.7,799,1168,799"/>
		<path id="XMLID_104_" fill-rule="evenodd" clip-rule="evenodd" fill="#717171" d="M664.3,808.2c1.6,0,2.9,1.3,2.9,2.9
			c0,1.6-1.3,2.9-2.9,2.9c-1.6,0-2.9-1.3-2.9-2.9C661.4,809.5,662.7,808.2,664.3,808.2"/>
		<path id="XMLID_103_" fill-rule="evenodd" clip-rule="evenodd" fill="#717171" d="M1168,808.2c1.6,0,2.9,1.3,2.9,2.9
			c0,1.6-1.3,2.9-2.9,2.9c-1.6,0-2.9-1.3-2.9-2.9C1165.1,809.5,1166.4,808.2,1168,808.2"/>
		<path id="XMLID_102_" fill-rule="evenodd" clip-rule="evenodd" fill="#333834" d="M916.1,867c7,0,12.6,5.6,12.6,12.6
			c0,7-5.6,12.6-12.6,12.6c-7,0-12.6-5.6-12.6-12.6C903.5,872.7,909.1,867,916.1,867"/>
		<path id="XMLID_193_" fill-rule="evenodd" clip-rule="evenodd" fill="#595857" d="M915.4,873.5h1.3v12.3h-1.3V873.5z M916.1,870.9
			c4.8,0,8.7,3.9,8.7,8.7c0,4.8-3.9,8.7-8.7,8.7c-4.8,0-8.7-3.9-8.7-8.7C907.4,874.8,911.3,870.9,916.1,870.9z"/>
		<path id="XMLID_99_" fill-rule="evenodd" clip-rule="evenodd" fill="#9E9E9F" d="M842.3,869.4l31.5-3.3c2.9-0.3,5.4,2.4,5.4,5.4
			v6.6c0,3-2.4,5.7-5.4,5.4l-31.5-3.3c-2.9-0.3-5.4-2.4-5.4-5.4C837,871.8,839.4,869.7,842.3,869.4"/>
		<path id="XMLID_98_" fill-rule="evenodd" clip-rule="evenodd" fill="#9E9E9F" d="M990.9,869.4l-31.5-3.3c-2.9-0.3-5.4,2.4-5.4,5.4
			v6.6c0,3,2.4,5.7,5.4,5.4l31.5-3.3c2.9-0.3,5.4-2.4,5.4-5.4C996.3,871.8,993.9,869.7,990.9,869.4"/>
		<path id="XMLID_97_" fill-rule="evenodd" clip-rule="evenodd" fill="#63676B" d="M859.9,872.3h14.6v25c0,5.7,4.7,10.4,10.4,10.4
			h62.4c5.7,0,10.4-4.7,10.4-10.4v-25h14.6v25c0,13.7-11.2,25-25,25h-62.4c-13.7,0-25-11.2-25-25V872.3z"/>
		<path id="XMLID_96_" fill-rule="evenodd" clip-rule="evenodd" fill="#7E848A" d="M859.9,872.3h14.6v21.8v3.2
			c0,5.7,4.7,10.4,10.4,10.4h62.4c5.7,0,10.4-4.7,10.4-10.4v-3.2v-21.8h14.6v21.8c0,13.7-11.2,25-25,25h-62.4c-13.7,0-25-11.2-25-25
			V872.3z"/>
		<path id="XMLID_186_" fill-rule="evenodd" clip-rule="evenodd" fill="#4F3221" d="M679.9,972.4h-14.1c-5.9,0-10.7-4.5-10.7-10.1
			v-36.1h14.7v36.1C669.9,967.9,674.4,972.4,679.9,972.4 M1178.2,926.3v36.1c0,5.5-4.8,10.1-10.7,10.1h-14.1
			c5.5,0,10.1-4.5,10.1-10.1v-36.1H1178.2z"/>
		<path id="XMLID_93_" fill-rule="evenodd" clip-rule="evenodd" fill="#333834" d="M664.3,974.6h9.9c1.3,0,2.3-1,2.3-2.3v-19.5
			c0-1.4-1.1-2.5-2.5-2.5h-19.2c-1.4,0-2.6,1.2-2.6,2.6v9.6C652.1,969.1,657.6,974.6,664.3,974.6"/>
		<path id="XMLID_92_" fill-rule="evenodd" clip-rule="evenodd" fill="#333834" d="M1168,974.6h-9.9c-1.3,0-2.3-1-2.3-2.3v-19.5
			c0-1.4,1.1-2.5,2.5-2.5h19.2c1.4,0,2.6,1.2,2.6,2.6v9.6C1180.2,969.1,1174.7,974.6,1168,974.6"/>
		<path id="XMLID_91_" fill-rule="evenodd" clip-rule="evenodd" fill="#717171" d="M1168,959.5c1.6,0,2.9,1.3,2.9,2.9
			c0,1.6-1.3,2.9-2.9,2.9c-1.6,0-2.9-1.3-2.9-2.9C1165.1,960.8,1166.4,959.5,1168,959.5"/>
		<path id="XMLID_90_" fill-rule="evenodd" clip-rule="evenodd" fill="#717171" d="M664.3,959.5c1.6,0,2.9,1.3,2.9,2.9
			c0,1.6-1.3,2.9-2.9,2.9c-1.6,0-2.9-1.3-2.9-2.9C661.4,960.8,662.7,959.5,664.3,959.5"/>
		<path id="XMLID_178_" fill-rule="evenodd" clip-rule="evenodd" fill="#B77735" d="M716.7,801.1h7.5v171.3h-7.5V801.1z
			 M705.9,801.1h8.1v171.3h-8.1V801.1z M695.6,801.1h7.5v171.3h-7.5V801.1z"/>
		<path id="XMLID_174_" fill-rule="evenodd" clip-rule="evenodd" fill="#B77735" d="M803.6,801.1h7.5v171.3h-7.5V801.1z
			 M792.7,801.1h8.1v171.3h-8.1V801.1z M782.4,801.1h7.5v171.3h-7.5V801.1z"/>
		<path id="XMLID_170_" fill-rule="evenodd" clip-rule="evenodd" fill="#B77735" d="M1043.4,801.1h7.5v171.3h-7.5V801.1z
			 M1032.5,801.1h8.1v171.3h-8.1V801.1z M1022.2,801.1h7.5v171.3h-7.5V801.1z"/>
		<path id="XMLID_166_" fill-rule="evenodd" clip-rule="evenodd" fill="#B77735" d="M1130.2,801.1h7.5v171.3h-7.5V801.1z
			 M1119.4,801.1h8.1v171.3h-8.1V801.1z M1109.1,801.1h7.5v171.3h-7.5V801.1z"/>
		<path id="XMLID_162_" fill-rule="evenodd" clip-rule="evenodd" fill="#A2682D" d="M716.7,926.3h7.5v46.2h-7.5V926.3z M705.9,926.3
			h8.1v46.2h-8.1V926.3z M703,926.3v46.2h-7.5v-46.2H703z"/>
		<path id="XMLID_158_" fill-rule="evenodd" clip-rule="evenodd" fill="#A2682D" d="M803.6,926.3h7.5v46.2h-7.5V926.3z M792.7,926.3
			h8.1v46.2h-8.1V926.3z M789.9,926.3v46.2h-7.5v-46.2H789.9z"/>
		<path id="XMLID_154_" fill-rule="evenodd" clip-rule="evenodd" fill="#A2682D" d="M1043.4,926.3h7.5v46.2h-7.5V926.3z
			 M1032.5,926.3h8.1v46.2h-8.1V926.3z M1029.7,926.3v46.2h-7.5v-46.2H1029.7z"/>
		<path id="XMLID_150_" fill-rule="evenodd" clip-rule="evenodd" fill="#A2682D" d="M1130.2,926.3h7.5v46.2h-7.5V926.3z
			 M1119.4,926.3h8.1v46.2h-8.1V926.3z M1116.5,926.3v46.2h-7.5v-46.2H1116.5z"/>
		<path id="XMLID_146_" fill-rule="evenodd" clip-rule="evenodd" fill="#C88038" d="M713.9,818.1h-8.1v-17h8.1V818.1z M724.2,818.1
			h-7.5v-17h7.5V818.1z M695.6,801.1h7.5v17h-7.5V801.1z"/>
		<path id="XMLID_142_" fill-rule="evenodd" clip-rule="evenodd" fill="#C88038" d="M800.8,818.1h-8.1v-17h8.1V818.1z M811.1,818.1
			h-7.5v-17h7.5V818.1z M782.4,801.1h7.5v17h-7.5V801.1z"/>
		<path id="XMLID_138_" fill-rule="evenodd" clip-rule="evenodd" fill="#C88038" d="M1040.6,818.1h-8.1v-17h8.1V818.1z
			 M1050.9,818.1h-7.5v-17h7.5V818.1z M1022.2,801.1h7.5v17h-7.5V801.1z"/>
		<path id="XMLID_134_" fill-rule="evenodd" clip-rule="evenodd" fill="#C88038" d="M1127.4,818.1h-8.1v-17h8.1V818.1z
			 M1137.7,818.1h-7.5v-17h7.5V818.1z M1109.1,801.1h7.5v17h-7.5V801.1z"/>
		<rect id="XMLID_53_" x="654.6" y="849.2" fill-rule="evenodd" clip-rule="evenodd" fill="#4F3221" width="523" height="4.1"/>
		<path id="XMLID_130_" fill-rule="evenodd" clip-rule="evenodd" fill="#B3321C" d="M909.5,910.4c1.6,0.9,2.1,3,1.2,4.6
			c-0.9,1.6-3,2.1-4.6,1.2c-1.6-0.9-2.1-3-1.2-4.6C905.9,910.1,907.9,909.5,909.5,910.4 M904.7,904.8l12.1,7.1l2.4,9.1l-19.4,33.3
			c-0.8-0.4-1.7-0.2-2.2,0.6c-0.4,0.8-0.2,1.7,0.6,2.2l-6.8,11.7l-3.3,5.8l-23.6-13.8l10.2-17.5c0.8,0.4,1.7,0.2,2.2-0.6
			c0.4-0.8,0.2-1.7-0.6-2.2l19.4-33.3L904.7,904.8z"/>
		<polygon id="XMLID_49_" fill-rule="evenodd" clip-rule="evenodd" fill="#F9FAF5" points="895.4,911.9 867.4,959.9 887.1,971.5 
			915.2,923.4 910.6,920.7 900,914.6 		"/>
		
			<rect id="XMLID_48_" x="894.4" y="918" transform="matrix(-0.8636 -0.5041 0.5041 -0.8636 1213.0239 2164.9553)" fill-rule="evenodd" clip-rule="evenodd" fill="#2F2D32" width="9.8" height="0.7"/>
		
			<rect id="XMLID_47_" x="891.8" y="923.9" transform="matrix(-0.8636 -0.5041 0.5041 -0.8636 1214.2808 2177.0317)" fill-rule="evenodd" clip-rule="evenodd" fill="#2F2D32" width="19.6" height="0.7"/>
		
			<rect id="XMLID_46_" x="889.8" y="927.3" transform="matrix(-0.8636 -0.5041 0.5041 -0.8636 1208.8738 2182.3579)" fill-rule="evenodd" clip-rule="evenodd" fill="#2F2D32" width="19.6" height="0.7"/>
		
			<rect id="XMLID_45_" x="887.8" y="930.7" transform="matrix(-0.8636 -0.5041 0.5041 -0.8636 1203.4773 2187.6819)" fill-rule="evenodd" clip-rule="evenodd" fill="#2F2D32" width="19.6" height="0.7"/>
		
			<rect id="XMLID_44_" x="885.8" y="934.1" transform="matrix(-0.8636 -0.5041 0.5041 -0.8636 1198.0665 2193.009)" fill-rule="evenodd" clip-rule="evenodd" fill="#2F2D32" width="19.6" height="0.7"/>
		
			<rect id="XMLID_43_" x="883.8" y="937.5" transform="matrix(-0.8636 -0.5041 0.5041 -0.8636 1192.6783 2198.3308)" fill-rule="evenodd" clip-rule="evenodd" fill="#2F2D32" width="19.6" height="0.7"/>
		
			<rect id="XMLID_42_" x="881.9" y="940.9" transform="matrix(-0.8636 -0.5041 0.5041 -0.8636 1187.2672 2203.658)" fill-rule="evenodd" clip-rule="evenodd" fill="#2F2D32" width="19.6" height="0.7"/>
		
			<rect id="XMLID_41_" x="879.9" y="944.3" transform="matrix(-0.8636 -0.5041 0.5041 -0.8636 1181.875 2208.9807)" fill-rule="evenodd" clip-rule="evenodd" fill="#2F2D32" width="19.6" height="0.7"/>
		
			<rect id="XMLID_40_" x="877.9" y="947.7" transform="matrix(-0.8636 -0.5041 0.5041 -0.8636 1176.4734 2214.3059)" fill-rule="evenodd" clip-rule="evenodd" fill="#2F2D32" width="19.6" height="0.7"/>
		
			<rect id="XMLID_39_" x="875.9" y="951.1" transform="matrix(-0.8636 -0.5041 0.5041 -0.8636 1171.0646 2219.6326)" fill-rule="evenodd" clip-rule="evenodd" fill="#2F2D32" width="19.6" height="0.7"/>
		
			<rect id="XMLID_38_" x="873.9" y="954.4" transform="matrix(-0.8636 -0.5041 0.5041 -0.8636 1165.666 2224.957)" fill-rule="evenodd" clip-rule="evenodd" fill="#2F2D32" width="19.6" height="0.7"/>
		
			<rect id="XMLID_37_" x="872" y="957.8" transform="matrix(-0.8636 -0.5041 0.5041 -0.8636 1160.2614 2230.2825)" fill-rule="evenodd" clip-rule="evenodd" fill="#2F2D32" width="19.6" height="0.7"/>
		
			<rect id="XMLID_36_" x="870" y="961.2" transform="matrix(-0.8636 -0.5041 0.5041 -0.8636 1154.8667 2235.606)" fill-rule="evenodd" clip-rule="evenodd" fill="#2F2D32" width="19.6" height="0.7"/>
		<path id="XMLID_35_" fill-rule="evenodd" clip-rule="evenodd" fill="#972918" d="M911.5,905.6l1.2,0.7c0.7,0.4,0.9,1.3,0.5,2
			l-3.6,6.2c-0.4,0.7-1.3,0.9-2,0.5l-1.2-0.7c-0.7-0.4-0.9-1.3-0.5-2l3.6-6.2C910,905.4,910.8,905.2,911.5,905.6"/>
	</g>
	<g id="XMLID_115_">
		<path id="XMLID_159_" fill-rule="evenodd" clip-rule="evenodd" fill="#1E1618" d="M839.2,723.2c-0.5,1.2-1.9,1.8-3.2,1.3
			l-15.2-6.1c-1.2-0.5-1.9-1.9-1.3-3.2c0.5-1.2,1.9-1.8,3.2-1.3l15.2,6.1C839.1,720.6,839.7,722,839.2,723.2"/>
		<path id="XMLID_157_" fill-rule="evenodd" clip-rule="evenodd" fill="#D4D2DD" d="M676.3,664.3h372.8c12.3,0,22.4,10.1,22.4,22.4
			v92c0,12.3-10.1,22.4-22.4,22.4H676.3c-12.3,0-22.4-10.1-22.4-22.4v-92C653.9,674.4,664,664.3,676.3,664.3"/>
		<path id="XMLID_156_" fill-rule="evenodd" clip-rule="evenodd" fill="#E4E2E9" d="M695.4,664.3H1030c12.3,0,22.4,10.1,22.4,22.4
			v92c0,12.3-10.1,22.4-22.4,22.4H695.4c-12.3,0-22.4-10.1-22.4-22.4v-92C673.1,674.4,683.1,664.3,695.4,664.3"/>
		<path id="XMLID_155_" fill-rule="evenodd" clip-rule="evenodd" fill="#BFBBCC" d="M1071.5,771.5v7.2c0,12.3-10.1,22.4-22.4,22.4
			H676.3c-12.3,0-22.4-10.1-22.4-22.4v-7.2H1071.5z"/>
		<path id="XMLID_153_" fill-rule="evenodd" clip-rule="evenodd" fill="#D4D2DD" d="M1052.4,771.5v7.2c0,12.3-10.1,22.4-22.4,22.4
			H695.4c-12.3,0-22.4-10.1-22.4-22.4v-7.2H1052.4z"/>
		<path id="XMLID_152_" fill-rule="evenodd" clip-rule="evenodd" fill="#F0EFF3" d="M1071.5,693.9v-7.2c0-12.3-10.1-22.4-22.4-22.4
			H676.3c-12.3,0-22.4,10.1-22.4,22.4v7.2H1071.5z"/>
		<path id="XMLID_151_" fill-rule="evenodd" clip-rule="evenodd" fill="#FFFFFF" d="M1052.4,693.9v-7.2c0-12.3-10.1-22.4-22.4-22.4
			H695.4c-12.3,0-22.4,10.1-22.4,22.4v7.2H1052.4z"/>
		<rect id="XMLID_149_" x="653.9" y="702.6" fill-rule="evenodd" clip-rule="evenodd" fill="#363636" width="417.6" height="3.2"/>
		<path id="XMLID_148_" fill-rule="evenodd" clip-rule="evenodd" fill="#798085" d="M721.8,685.4h17.6c3.2,0,5.8,2.6,5.8,5.8v25.5
			c0,3.2-2.6,5.8-5.8,5.8h-17.6c-3.2,0-5.8-2.6-5.8-5.8v-25.5C716.1,688,718.7,685.4,721.8,685.4"/>
		<rect id="XMLID_147_" x="722.6" y="691.9" fill-rule="evenodd" clip-rule="evenodd" fill="#C1BDBC" width="16.1" height="24.1"/>
		<rect id="XMLID_145_" x="729" y="698.7" fill-rule="evenodd" clip-rule="evenodd" fill="#6C6C76" width="3.3" height="10.4"/>
		<path id="XMLID_144_" fill-rule="evenodd" clip-rule="evenodd" fill="#798085" d="M986,685.4h17.6c3.2,0,5.8,2.6,5.8,5.8v25.5
			c0,3.2-2.6,5.8-5.8,5.8H986c-3.2,0-5.8-2.6-5.8-5.8v-25.5C980.3,688,982.9,685.4,986,685.4"/>
		<rect id="XMLID_143_" x="986.8" y="691.9" fill-rule="evenodd" clip-rule="evenodd" fill="#C1BDBC" width="16.1" height="24.1"/>
		<rect id="XMLID_141_" x="993.2" y="698.7" fill-rule="evenodd" clip-rule="evenodd" fill="#6C6C76" width="3.3" height="10.4"/>
		<path id="XMLID_140_" fill-rule="evenodd" clip-rule="evenodd" fill="#565656" d="M805.4,716.1h19.9c3.8,0,6.9,3.1,6.9,6.9
			c0,3.8-3.1,6.9-6.9,6.9h-19.9c-3.8,0-6.9-3.1-6.9-6.9C798.5,719.2,801.6,716.1,805.4,716.1"/>
		<path id="XMLID_139_" fill-rule="evenodd" clip-rule="evenodd" fill="#565656" d="M900.1,716.1H920c3.8,0,6.9,3.1,6.9,6.9
			c0,3.8-3.1,6.9-6.9,6.9h-19.9c-3.8,0-6.9-3.1-6.9-6.9C893.2,719.2,896.3,716.1,900.1,716.1"/>
		<path id="XMLID_137_" fill-rule="evenodd" clip-rule="evenodd" fill="#565656" d="M817.9,721.1h11.6v20c0,4.5,3.8,8.3,8.3,8.3
			h49.8c4.5,0,8.3-3.8,8.3-8.3v-20h11.6v20c0,11-9,20-20,20h-49.8c-11,0-20-9-20-20V721.1z"/>
		<path id="XMLID_136_" fill-rule="evenodd" clip-rule="evenodd" fill="#565656" d="M862.7,716.6c13.6,0,24.6,2.9,24.6,6.4
			c0,3.5-11,6.4-24.6,6.4c-13.6,0-24.6-2.9-24.6-6.4C838.1,719.5,849.1,716.6,862.7,716.6"/>
		<path id="XMLID_132_" fill-rule="evenodd" clip-rule="evenodd" fill="#B3321C" d="M849.5,752.9c1.8,0,3.2,1.4,3.2,3.2
			c0,1.8-1.4,3.2-3.2,3.2s-3.2-1.4-3.2-3.2C846.3,754.3,847.7,752.9,849.5,752.9 M842.8,750.6h13.3l6.3,6.3v36.8
			c-0.8,0-1.5,0.7-1.5,1.5c0,0.8,0.7,1.5,1.5,1.5v13l0,6.3h-26v-19.3c0.8,0,1.5-0.7,1.5-1.5c0-0.8-0.7-1.5-1.5-1.5v-36.8
			L842.8,750.6z"/>
		<polygon id="XMLID_131_" fill-rule="evenodd" clip-rule="evenodd" fill="#F9FAF5" points="838.6,760.8 838.6,813.9 860.4,813.9 
			860.4,760.8 855.3,760.8 843.7,760.8 		"/>
		<rect id="XMLID_129_" x="840.3" y="764" fill-rule="evenodd" clip-rule="evenodd" fill="#2F2D32" width="9.4" height="0.7"/>
		<rect id="XMLID_128_" x="840.3" y="767.7" fill-rule="evenodd" clip-rule="evenodd" fill="#2F2D32" width="18.7" height="0.7"/>
		<rect id="XMLID_127_" x="840.3" y="771.5" fill-rule="evenodd" clip-rule="evenodd" fill="#2F2D32" width="18.7" height="0.7"/>
		<rect id="XMLID_126_" x="840.3" y="775.2" fill-rule="evenodd" clip-rule="evenodd" fill="#2F2D32" width="18.7" height="0.7"/>
		<rect id="XMLID_125_" x="840.3" y="779" fill-rule="evenodd" clip-rule="evenodd" fill="#2F2D32" width="18.7" height="0.7"/>
		<rect id="XMLID_124_" x="840.3" y="782.7" fill-rule="evenodd" clip-rule="evenodd" fill="#2F2D32" width="18.7" height="0.7"/>
		<rect id="XMLID_123_" x="840.3" y="786.5" fill-rule="evenodd" clip-rule="evenodd" fill="#2F2D32" width="18.7" height="0.7"/>
		<rect id="XMLID_122_" x="840.3" y="790.2" fill-rule="evenodd" clip-rule="evenodd" fill="#2F2D32" width="18.7" height="0.7"/>
		<rect id="XMLID_121_" x="840.3" y="793.9" fill-rule="evenodd" clip-rule="evenodd" fill="#2F2D32" width="18.7" height="0.7"/>
		<rect id="XMLID_120_" x="840.3" y="797.7" fill-rule="evenodd" clip-rule="evenodd" fill="#2F2D32" width="18.7" height="0.7"/>
		<rect id="XMLID_119_" x="840.3" y="801.4" fill-rule="evenodd" clip-rule="evenodd" fill="#2F2D32" width="18.7" height="0.7"/>
		<rect id="XMLID_118_" x="840.3" y="805.2" fill-rule="evenodd" clip-rule="evenodd" fill="#2F2D32" width="18.7" height="0.7"/>
		<rect id="XMLID_117_" x="840.3" y="808.9" fill-rule="evenodd" clip-rule="evenodd" fill="#2F2D32" width="18.7" height="0.7"/>
		<path id="XMLID_116_" fill-rule="evenodd" clip-rule="evenodd" fill="#972918" d="M848.8,747.9h1.4c0.8,0,1.4,0.6,1.4,1.4v6.8
			c0,0.8-0.6,1.4-1.4,1.4h-1.4c-0.8,0-1.4-0.6-1.4-1.4v-6.8C847.5,748.5,848.1,747.9,848.8,747.9"/>
	</g>
	<g id="XMLID_113_">
		<rect id="XMLID_265_" x="347.8" y="485.4" fill-rule="evenodd" clip-rule="evenodd" fill="#E1DAE5" width="11.8" height="144.8"/>
		<rect id="XMLID_264_" x="495.6" y="485.4" fill-rule="evenodd" clip-rule="evenodd" fill="#E1DAE5" width="11.8" height="144.8"/>
		<path id="XMLID_263_" fill-rule="evenodd" clip-rule="evenodd" fill="#474D48" d="M368.9,414c47.9-13.5,75.3-13.6,117.7,0
			c13.8,0,25.1,11.3,25.1,25.1v60.4h-20v-60.4c0-2.8-2.4-5.6-5.1-5.1c-37,6.6-75.9,7.8-117.7,0c-2.8-0.5-5.1,2.3-5.1,5.1v60.4h-20
			v-60.4C343.8,425.3,355.1,414,368.9,414"/>
		<path id="XMLID_262_" fill-rule="evenodd" clip-rule="evenodd" fill="#323733" d="M511.6,443.6v55.8h-20v-55.8v-4.6
			c0-2.8-2.4-5.6-5.1-5.1c-37,6.6-75.9,7.8-117.7,0c-2.8-0.5-5.1,2.3-5.1,5.1v4.6v55.8h-20v-55.8c0-13.8,11.3-25.1,25.1-25.1
			c47.9-13.5,75.3-13.6,117.7,0C500.4,418.6,511.6,429.8,511.6,443.6"/>
		<path id="XMLID_261_" fill-rule="evenodd" clip-rule="evenodd" fill="#1E1618" d="M472.9,590.8c-0.9,0.5-1.3,1.9-1,3.2l4.4,15.2
			c0.4,1.2,1.4,1.8,2.3,1.3h0c0.9-0.5,1.3-1.9,1-3.2l-4.4-15.2C474.8,590.9,473.8,590.3,472.9,590.8"/>
		<path id="XMLID_260_" fill-rule="evenodd" clip-rule="evenodd" fill="#1E1618" d="M382.5,590.8c0.9,0.5,1.3,1.9,1,3.2l-4.4,15.2
			c-0.4,1.2-1.4,1.8-2.3,1.3h0c-0.9-0.5-1.3-1.9-1-3.2l4.4-15.2C380.6,590.9,381.6,590.3,382.5,590.8"/>
		<path id="XMLID_259_" fill-rule="evenodd" clip-rule="evenodd" fill="#323733" d="M427.6,578.6c17.2,0,32.4,6.6,41.7,16.6
			c3,3.2,9,2.9,8.2,0c-4.7-17.8-25.3-31.3-49.9-31.3c-24.6,0-45.1,13.4-49.9,31.3c-0.8,2.9,5.2,3.2,8.2,0
			C395.2,585.2,410.4,578.6,427.6,578.6"/>
		<path id="XMLID_258_" fill-rule="evenodd" clip-rule="evenodd" fill="#363436" d="M483,608H372.4c-3,0-5.5,3.5-5.5,7.7v2.6
			c0,4.2,2.5,7.7,5.5,7.7H483c3,0,5.5-3.5,5.5-7.7v-2.6C488.4,611.5,486,608,483,608"/>
		<path id="XMLID_257_" fill-rule="evenodd" clip-rule="evenodd" fill="#005697" d="M253.3,615.7h348.9c23.6,0,42.8,19.3,42.8,42.8
			v436.8c0,23.6-19.3,42.8-42.8,42.8H253.3c-23.6,0-42.8-19.3-42.8-42.8V658.5C210.4,635,229.7,615.7,253.3,615.7"/>
		<path id="XMLID_256_" fill-rule="evenodd" clip-rule="evenodd" fill="#363436" d="M283.6,1163.2c0,10.3-8.3,18.6-18.6,18.6
			c-10.3,0-18.6-8.3-18.6-18.6c0-10.3,8.3-18.6,18.6-18.6C275.2,1144.6,283.6,1152.9,283.6,1163.2"/>
		<path id="XMLID_255_" fill-rule="evenodd" clip-rule="evenodd" fill="#989196" d="M277.9,1163.2c0,7.2-5.8,13-13,13
			c-7.2,0-13-5.8-13-13c0-7.2,5.8-13,13-13C272.1,1150.2,277.9,1156,277.9,1163.2"/>
		<path id="XMLID_254_" fill-rule="evenodd" clip-rule="evenodd" fill="#4C423A" d="M275.2,1163.2c0,5.7-4.6,10.2-10.2,10.2
			c-5.7,0-10.2-4.6-10.2-10.2c0-5.7,4.6-10.2,10.2-10.2C270.6,1153,275.2,1157.5,275.2,1163.2"/>
		<rect id="XMLID_253_" x="261" y="1127.8" fill-rule="evenodd" clip-rule="evenodd" fill="#4C423A" width="7.9" height="36.9"/>
		<path id="XMLID_252_" fill-rule="evenodd" clip-rule="evenodd" fill="#B5B4B9" d="M279.8,1138.1h-26.5
			c-23.6,0-42.8-19.3-42.8-42.8v-25.7h47.3c17.4,0,31.6,14.1,31.6,31.6v14.3C289.3,1124.4,285.7,1132.4,279.8,1138.1z"/>
		<path id="XMLID_251_" fill-rule="evenodd" clip-rule="evenodd" fill="#D6D4DE" d="M220.2,1069.6h37.6c17.4,0,31.6,14.1,31.6,31.6
			v14.3c0,5.2-1.3,10.2-3.5,14.5H263c-23.6,0-42.8-19.3-42.8-42.8V1069.6z"/>
		<path id="XMLID_250_" fill-rule="evenodd" clip-rule="evenodd" fill="#00477F" d="M287.8,1044.3L287.8,1044.3
			c-6.2,0-11.3-5.1-11.3-11.3l0-329.3c0-6.2,5.1-11.3,11.3-11.3v0c6.2,0,11.3,5.1,11.3,11.3V1033
			C299.1,1039.3,294,1044.3,287.8,1044.3"/>
		<path id="XMLID_249_" fill-rule="evenodd" clip-rule="evenodd" fill="#00477F" d="M343.8,1044.3L343.8,1044.3
			c-6.2,0-11.3-5.1-11.3-11.3V703.8c0-6.2,5.1-11.3,11.3-11.3l0,0c6.2,0,11.3,5.1,11.3,11.3V1033
			C355.1,1039.3,350,1044.3,343.8,1044.3"/>
		<path id="XMLID_248_" fill-rule="evenodd" clip-rule="evenodd" fill="#00477F" d="M399.7,1044.3L399.7,1044.3
			c-6.2,0-11.3-5.1-11.3-11.3V703.8c0-6.2,5.1-11.3,11.3-11.3l0,0c6.2,0,11.3,5.1,11.3,11.3V1033
			C411,1039.3,406,1044.3,399.7,1044.3"/>
		<path id="XMLID_247_" fill-rule="evenodd" clip-rule="evenodd" fill="#00477F" d="M455.7,1044.3c-6.2,0-11.3-5.1-11.3-11.3V703.8
			c0-6.2,5.1-11.3,11.3-11.3c6.2,0,11.3,5.1,11.3,11.3l0,329.3C467,1039.3,461.9,1044.3,455.7,1044.3"/>
		<path id="XMLID_246_" fill-rule="evenodd" clip-rule="evenodd" fill="#00477F" d="M511.6,1044.3c-6.2,0-11.3-5.1-11.3-11.3V703.8
			c0-6.2,5.1-11.3,11.3-11.3c6.2,0,11.3,5.1,11.3,11.3V1033C522.9,1039.3,517.9,1044.3,511.6,1044.3"/>
		<path id="XMLID_245_" fill-rule="evenodd" clip-rule="evenodd" fill="#00477F" d="M567.6,1044.3c-6.2,0-11.3-5.1-11.3-11.3V703.8
			c0-6.2,5.1-11.3,11.3-11.3c6.2,0,11.3,5.1,11.3,11.3V1033C578.9,1039.3,573.8,1044.3,567.6,1044.3"/>
		<path id="XMLID_244_" fill-rule="evenodd" clip-rule="evenodd" fill="#00477F" d="M287.8,1044.3L287.8,1044.3
			c-6.2,0-11.3-5.1-11.3-11.3l0-76.5c7.5,0.5,15,0.8,22.6,0.8v75.7C299.1,1039.3,294,1044.3,287.8,1044.3"/>
		<path id="XMLID_243_" fill-rule="evenodd" clip-rule="evenodd" fill="#00477F" d="M343.8,1044.3L343.8,1044.3
			c-6.2,0-11.3-5.1-11.3-11.3v-77.3c7.6-0.7,15.1-1.7,22.6-2.9v80.2C355.1,1039.3,350,1044.3,343.8,1044.3"/>
		<path id="XMLID_242_" fill-rule="evenodd" clip-rule="evenodd" fill="#0E6BB4" d="M289.9,692.6c5.2,1,9.2,5.6,9.2,11.1V1033
			c0,5.5-4,10.1-9.2,11.1c-5.2-1-9.2-5.6-9.2-11.1l0-329.3C280.7,698.2,284.7,693.6,289.9,692.6"/>
		<path id="XMLID_241_" fill-rule="evenodd" clip-rule="evenodd" fill="#0E6BB4" d="M280.7,956.8c6.1,0.3,12.2,0.5,18.4,0.5v75.7
			c0,5.5-4,10.1-9.2,11.1c-5.2-1-9.2-5.6-9.2-11.1L280.7,956.8z"/>
		<path id="XMLID_240_" fill-rule="evenodd" clip-rule="evenodd" fill="#0E6BB4" d="M345.9,692.6c5.2,1,9.2,5.6,9.2,11.1V1033
			c0,5.5-4,10.1-9.2,11.1c-5.2-1-9.2-5.6-9.2-11.1V703.8C336.7,698.2,340.6,693.6,345.9,692.6"/>
		<path id="XMLID_239_" fill-rule="evenodd" clip-rule="evenodd" fill="#0E6BB4" d="M336.7,955.3c6.2-0.7,12.3-1.5,18.4-2.5v80.2
			c0,5.5-4,10.1-9.2,11.1c-5.2-1-9.2-5.6-9.2-11.1V955.3z"/>
		<path id="XMLID_238_" fill-rule="evenodd" clip-rule="evenodd" fill="#0E6BB4" d="M401.8,692.6c5.2,1,9.2,5.6,9.2,11.1V1033
			c0,5.5-4,10.1-9.2,11.1c-5.2-1-9.2-5.6-9.2-11.1V703.8C392.6,698.2,396.6,693.6,401.8,692.6"/>
		<path id="XMLID_237_" fill-rule="evenodd" clip-rule="evenodd" fill="#0E6BB4" d="M457.8,692.6c5.2,1,9.2,5.6,9.2,11.1l0,329.3
			c0,5.5-4,10.1-9.2,11.1c-5.2-1-9.2-5.6-9.2-11.1V703.8C448.6,698.2,452.5,693.6,457.8,692.6"/>
		<path id="XMLID_236_" fill-rule="evenodd" clip-rule="evenodd" fill="#0E6BB4" d="M513.7,692.6c5.2,1,9.2,5.6,9.2,11.1V1033
			c0,5.5-4,10.1-9.2,11.1c-5.2-1-9.2-5.6-9.2-11.1V703.8C504.5,698.2,508.5,693.6,513.7,692.6"/>
		<path id="XMLID_235_" fill-rule="evenodd" clip-rule="evenodd" fill="#0E6BB4" d="M569.7,692.6c5.2,1,9.2,5.6,9.2,11.1V1033
			c0,5.5-4,10.1-9.2,11.1c-5.2-1-9.2-5.6-9.2-11.1V703.8C560.5,698.2,564.5,693.6,569.7,692.6"/>
		<path id="XMLID_234_" fill-rule="evenodd" clip-rule="evenodd" fill="#0E6BB4" d="M299.1,957.3v75.8c0,5.5-4,10.1-9.2,11.1
			c-5.2-1-9.2-5.6-9.2-11.1l0-76.5C286.8,956.9,292.9,957.2,299.1,957.3"/>
		<path id="XMLID_233_" fill-rule="evenodd" clip-rule="evenodd" fill="#0E6BB4" d="M280.7,956.8c6.1,0.3,12.2,0.5,18.4,0.5v75.7
			c0,5.5-4,10.1-9.2,11.1c-5.2-1-9.2-5.6-9.2-11.1L280.7,956.8z"/>
		<path id="XMLID_232_" fill-rule="evenodd" clip-rule="evenodd" fill="#0E6BB4" d="M355.1,953.5v79.5c0,5.5-4,10.1-9.2,11.1
			c-5.2-1-9.2-5.6-9.2-11.1v-77.3C342.9,955.2,349,954.4,355.1,953.5"/>
		<path id="XMLID_231_" fill-rule="evenodd" clip-rule="evenodd" fill="#0E6BB4" d="M355.1,953.5v79.5c0,5.5-4,10.1-9.2,11.1
			c-5.2-1-9.2-5.6-9.2-11.1v-77.3C342.9,955.2,349,954.4,355.1,953.5"/>
		<path id="XMLID_230_" fill-rule="evenodd" clip-rule="evenodd" fill="#363436" d="M571.8,1163.2c0,10.3,8.3,18.6,18.6,18.6
			c10.3,0,18.6-8.3,18.6-18.6c0-10.3-8.3-18.6-18.6-18.6C580.2,1144.6,571.8,1152.9,571.8,1163.2"/>
		<path id="XMLID_229_" fill-rule="evenodd" clip-rule="evenodd" fill="#989196" d="M577.5,1163.2c0,7.2,5.8,13,13,13
			c7.2,0,13-5.8,13-13c0-7.2-5.8-13-13-13C583.3,1150.2,577.5,1156,577.5,1163.2"/>
		<path id="XMLID_228_" fill-rule="evenodd" clip-rule="evenodd" fill="#4C423A" d="M580.2,1163.2c0,5.7,4.6,10.2,10.2,10.2
			c5.7,0,10.2-4.6,10.2-10.2c0-5.7-4.6-10.2-10.2-10.2C584.8,1153,580.2,1157.5,580.2,1163.2"/>
		<rect id="XMLID_227_" x="586.5" y="1127.8" fill-rule="evenodd" clip-rule="evenodd" fill="#4C423A" width="7.9" height="36.9"/>
		<path id="XMLID_226_" fill-rule="evenodd" clip-rule="evenodd" fill="#B5B4B9" d="M575.6,1138.1h26.5c23.6,0,42.8-19.3,42.8-42.8
			v-25.7h-47.3c-17.4,0-31.6,14.1-31.6,31.6v14.3C566.1,1124.4,569.7,1132.4,575.6,1138.1z"/>
		<path id="XMLID_225_" fill-rule="evenodd" clip-rule="evenodd" fill="#D6D4DE" d="M635.2,1069.6h-37.6
			c-17.4,0-31.6,14.1-31.6,31.6v14.3c0,5.2,1.3,10.2,3.5,14.5h22.8c23.6,0,42.8-19.3,42.8-42.8V1069.6z"/>
		<path id="XMLID_224_" fill-rule="evenodd" clip-rule="evenodd" fill="#ECEBF0" d="M279.8,615.7h-26.5c-23.6,0-42.8,19.3-42.8,42.8
			v25.7h47.3c17.4,0,31.6-14.1,31.6-31.6v-14.3C289.3,629.5,285.7,621.5,279.8,615.7z"/>
		<path id="XMLID_223_" fill-rule="evenodd" clip-rule="evenodd" fill="#D6D4DE" d="M220.2,684.2h37.6c17.4,0,31.6-14.1,31.6-31.6
			v-14.3c0-5.2-1.3-10.2-3.5-14.5H263c-23.6,0-42.8,19.3-42.8,42.8V684.2z"/>
		<path id="XMLID_222_" fill-rule="evenodd" clip-rule="evenodd" fill="#ECEBF0" d="M575.6,615.7h26.5c23.6,0,42.8,19.3,42.8,42.8
			v25.7h-47.3c-17.4,0-31.6-14.1-31.6-31.6v-14.3C566.1,629.5,569.7,621.5,575.6,615.7z"/>
		<path id="XMLID_221_" fill-rule="evenodd" clip-rule="evenodd" fill="#D6D4DE" d="M635.2,684.2h-37.6c-17.4,0-31.6-14.1-31.6-31.6
			v-14.3c0-5.2,1.3-10.2,3.5-14.5h22.8c23.6,0,42.8,19.3,42.8,42.8V684.2z"/>
		<path id="XMLID_180_" fill-rule="evenodd" clip-rule="evenodd" fill="#B3321C" d="M427.7,567.7c2.1,0,3.8,1.7,3.8,3.8
			c0,2.1-1.7,3.8-3.8,3.8c-2.1,0-3.8-1.7-3.8-3.8C424,569.4,425.6,567.7,427.7,567.7 M419.9,565h15.6l7.4,7.4v43
			c-1,0-1.8,0.8-1.8,1.8c0,1,0.8,1.8,1.8,1.8v15.2l0,7.4h-30.5V619c1,0,1.8-0.8,1.8-1.8c0-1-0.8-1.8-1.8-1.8v-43L419.9,565z"/>
		<polygon id="XMLID_179_" fill-rule="evenodd" clip-rule="evenodd" fill="#F9FAF5" points="414.9,577 414.9,639.1 440.5,639.1 
			440.5,577 434.5,577 420.9,577 		"/>
		<rect id="XMLID_177_" x="416.9" y="580.7" fill-rule="evenodd" clip-rule="evenodd" fill="#2F2D32" width="11" height="0.8"/>
		<rect id="XMLID_176_" x="416.9" y="585.1" fill-rule="evenodd" clip-rule="evenodd" fill="#2F2D32" width="21.9" height="0.8"/>
		<rect id="XMLID_175_" x="416.9" y="589.5" fill-rule="evenodd" clip-rule="evenodd" fill="#2F2D32" width="21.9" height="0.8"/>
		<rect id="XMLID_173_" x="416.9" y="593.8" fill-rule="evenodd" clip-rule="evenodd" fill="#2F2D32" width="21.9" height="0.8"/>
		<rect id="XMLID_172_" x="416.9" y="598.2" fill-rule="evenodd" clip-rule="evenodd" fill="#2F2D32" width="21.9" height="0.8"/>
		<rect id="XMLID_171_" x="416.9" y="602.6" fill-rule="evenodd" clip-rule="evenodd" fill="#2F2D32" width="21.9" height="0.8"/>
		<rect id="XMLID_169_" x="416.9" y="607" fill-rule="evenodd" clip-rule="evenodd" fill="#2F2D32" width="21.9" height="0.8"/>
		<rect id="XMLID_168_" x="416.9" y="611.4" fill-rule="evenodd" clip-rule="evenodd" fill="#2F2D32" width="21.9" height="0.8"/>
		<rect id="XMLID_167_" x="416.9" y="615.8" fill-rule="evenodd" clip-rule="evenodd" fill="#2F2D32" width="21.9" height="0.8"/>
		<rect id="XMLID_165_" x="416.9" y="620.2" fill-rule="evenodd" clip-rule="evenodd" fill="#2F2D32" width="21.9" height="0.8"/>
		<rect id="XMLID_164_" x="416.9" y="624.5" fill-rule="evenodd" clip-rule="evenodd" fill="#2F2D32" width="21.9" height="0.8"/>
		<rect id="XMLID_163_" x="416.9" y="628.9" fill-rule="evenodd" clip-rule="evenodd" fill="#2F2D32" width="21.9" height="0.8"/>
		<rect id="XMLID_161_" x="416.9" y="633.3" fill-rule="evenodd" clip-rule="evenodd" fill="#2F2D32" width="21.9" height="0.8"/>
		<path id="XMLID_160_" fill-rule="evenodd" clip-rule="evenodd" fill="#972918" d="M426.9,561.9h1.6c0.9,0,1.6,0.7,1.6,1.6v8
			c0,0.9-0.7,1.6-1.6,1.6h-1.6c-0.9,0-1.6-0.7-1.6-1.6v-8C425.3,562.6,426,561.9,426.9,561.9"/>
	</g>
</g>
</svg>
