<?xml version="1.0" encoding="UTF-8" standalone="no"?> <!-- Created with Vectornator for iOS (http://vectornator.io/) --><!DOCTYPE svg PUBLIC "-//W3C//DTD SVG 1.1//EN" "http://www.w3.org/Graphics/SVG/1.1/DTD/svg11.dtd">
<svg height="100%" style="fill-rule:nonzero;clip-rule:evenodd;stroke-linecap:round;stroke-linejoin:round;" xmlns:xlink="http://www.w3.org/1999/xlink" xmlns="http://www.w3.org/2000/svg" xml:space="preserve" width="100%" xmlns:vectornator="http://vectornator.io" version="1.1" viewBox="0 0 300 50">
<metadata>
<vectornator:setting key="DimensionsVisible" value="1"/>
<vectornator:setting key="PencilOnly" value="0"/>
<vectornator:setting key="SnapToPoints" value="0"/>
<vectornator:setting key="OutlineMode" value="0"/>
<vectornator:setting key="CMYKEnabledKey" value="0"/>
<vectornator:setting key="RulersVisible" value="1"/>
<vectornator:setting key="SnapToEdges" value="0"/>
<vectornator:setting key="GuidesVisible" value="1"/>
<vectornator:setting key="DisplayWhiteBackground" value="0"/>
<vectornator:setting key="doHistoryDisabled" value="0"/>
<vectornator:setting key="SnapToGuides" value="1"/>
<vectornator:setting key="TimeLapseWatermarkDisabled" value="0"/>
<vectornator:setting key="Units" value="Points"/>
<vectornator:setting key="DynamicGuides" value="0"/>
<vectornator:setting key="IsolateActiveLayer" value="0"/>
<vectornator:setting key="SnapToGrid" value="0"/>
</metadata>
<defs/>
<g id="Layer 1" vectornator:layerName="Layer 1">
<path d="M18.7733+23.9126L47.1887+23.9126C48.6974+23.9126+49.9205+24.3995+49.9205+25L49.9205+25C49.9205+25.6005+48.6974+26.0874+47.1887+26.0874L18.7733+26.0874C17.2646+26.0874+16.0415+25.6005+16.0415+25L16.0415+25C16.0415+24.3995+17.2646+23.9126+18.7733+23.9126Z" opacity="1" fill="#0000ff"/>
<path d="M64.7201+23.9126L93.1354+23.9126C94.6442+23.9126+95.8672+24.3995+95.8672+25L95.8672+25C95.8672+25.6005+94.6442+26.0874+93.1354+26.0874L64.7201+26.0874C63.2113+26.0874+61.9882+25.6005+61.9882+25L61.9882+25C61.9882+24.3995+63.2113+23.9126+64.7201+23.9126Z" opacity="1" fill="#0000ff"/>
<path d="M110.667+23.9126L139.082+23.9126C140.591+23.9126+141.814+24.3995+141.814+25L141.814+25C141.814+25.6005+140.591+26.0874+139.082+26.0874L110.667+26.0874C109.158+26.0874+107.935+25.6005+107.935+25L107.935+25C107.935+24.3995+109.158+23.9126+110.667+23.9126Z" opacity="1" fill="#0000ff"/>
<path d="M156.614+23.9126L185.029+23.9126C186.538+23.9126+187.761+24.3995+187.761+25L187.761+25C187.761+25.6005+186.538+26.0874+185.029+26.0874L156.614+26.0874C155.105+26.0874+153.882+25.6005+153.882+25L153.882+25C153.882+24.3995+155.105+23.9126+156.614+23.9126Z" opacity="1" fill="#b0c4de"/>
<path d="M202.56+23.9126L230.976+23.9126C232.484+23.9126+233.707+24.3995+233.707+25L233.707+25C233.707+25.6005+232.484+26.0874+230.976+26.0874L202.56+26.0874C201.052+26.0874+199.828+25.6005+199.828+25L199.828+25C199.828+24.3995+201.052+23.9126+202.56+23.9126Z" opacity="1" fill="#b0c4de"/>
<path d="M248.507+23.9126L276.922+23.9126C278.431+23.9126+279.654+24.3995+279.654+25L279.654+25C279.654+25.6005+278.431+26.0874+276.922+26.0874L248.507+26.0874C246.998+26.0874+245.775+25.6005+245.775+25L245.775+25C245.775+24.3995+246.998+23.9126+248.507+23.9126Z" opacity="1" fill="#b0c4de"/>
<path d="M285.688+11.6831L285.688+11.6831C293.043+11.6831+299.005+17.6453+299.005+25L299.005+25C299.005+32.3547+293.043+38.3169+285.688+38.3169L285.688+38.3169C278.333+38.3169+272.371+32.3547+272.371+25L272.371+25C272.371+17.6453+278.333+11.6831+285.688+11.6831Z" opacity="1" fill="#b0c4de"/>
<path d="M10.0076+16.0376L10.0076+16.0376C14.9574+16.0376+18.97+20.0502+18.97+25L18.97+25C18.97+29.9498+14.9574+33.9624+10.0076+33.9624L10.0076+33.9624C5.05786+33.9624+1.04528+29.9498+1.04528+25L1.04528+25C1.04528+20.0502+5.05786+16.0376+10.0076+16.0376Z" opacity="1" fill="#0000ff"/>
<path d="M55.9544+16.0376L55.9544+16.0376C60.9041+16.0376+64.9167+20.0502+64.9167+25L64.9167+25C64.9167+29.9498+60.9041+33.9624+55.9544+33.9624L55.9544+33.9624C51.0046+33.9624+46.992+29.9498+46.992+25L46.992+25C46.992+20.0502+51.0046+16.0376+55.9544+16.0376Z" opacity="1" fill="#0000ff"/>
<path d="M101.901+16.0376L101.901+16.0376C106.851+16.0376+110.863+20.0502+110.863+25L110.863+25C110.863+29.9498+106.851+33.9624+101.901+33.9624L101.901+33.9624C96.9513+33.9624+92.9387+29.9498+92.9387+25L92.9387+25C92.9387+20.0502+96.9513+16.0376+101.901+16.0376Z" opacity="1" fill="#0000ff"/>
<path d="M147.848+16.0376L147.848+16.0376C152.798+16.0376+156.81+20.0502+156.81+25L156.81+25C156.81+29.9498+152.798+33.9624+147.848+33.9624L147.848+33.9624C142.898+33.9624+138.885+29.9498+138.885+25L138.885+25C138.885+20.0502+142.898+16.0376+147.848+16.0376Z" opacity="1" fill="#0000ff"/>
<path d="M193.795+16.0376L193.795+16.0376C198.744+16.0376+202.757+20.0502+202.757+25L202.757+25C202.757+29.9498+198.744+33.9624+193.795+33.9624L193.795+33.9624C188.845+33.9624+184.832+29.9498+184.832+25L184.832+25C184.832+20.0502+188.845+16.0376+193.795+16.0376Z" opacity="1" fill="#b0c4de"/>
<path d="M239.741+16.0376L239.741+16.0376C244.691+16.0376+248.704+20.0502+248.704+25L248.704+25C248.704+29.9498+244.691+33.9624+239.741+33.9624L239.741+33.9624C234.792+33.9624+230.779+29.9498+230.779+25L230.779+25C230.779+20.0502+234.792+16.0376+239.741+16.0376Z" opacity="1" fill="#b0c4de"/>
</g>
</svg>
