<?xml version="1.0" encoding="UTF-8"?>
<svg id="a" data-name="Lager 1" xmlns="http://www.w3.org/2000/svg" viewBox="0 0 421.33 232.72">
  <defs>
    <style>
      .b {
        fill: #74122d;
      }

      .c {
        fill: #d3d3d3;
      }

      .d {
        fill: #ee7112;
      }

      .e {
        fill: #e6c22a;
      }
    </style>
  </defs>
  <path class="e" d="m349.23,87.84c1.85.06,3.7.13,5.55.19,1.41,1.25,3.1.53,4.64.57,2.9.07,5.51.81,8.27,1.75,2.77.95,4.66,3.09,7.47,3.95,8.71,2.65,16.31,7.86,24.75,11.22,4.71,1.87,9.31,4.06,13.86,6.33,2.46,1.22,5.43,1.55,7.56,3.96-1.68.14-3.07.25-4.45.36-1.27-.09-2.53-.25-3.8-.26-18.35-.02-36.7-.02-55.06,0-1.27,0-2.53.17-3.8.26-1.14-.13-2.3-.4-3.46.45.45,3.26-1.53,4.92-4.21,6.26-3.44,1.72-7.13,2.33-10.86,2.72-1.7.18-2.59.64-2.56,2.46.08,4.93-3.85,7.18-7.92,7.21-3.89.03-5.94,1.29-7.67,4.77-2.45,4.93-6.77,7.88-12.37,8.66-1.93.03-3.61-.8-5.27-1.62-12.5-6.21-25.5-11.13-38.81-15.27-4.75-1.48-9.49-3.02-14.23-4.54-2.46-.79-4.26.21-5.77,2.11-.99,1.24-1.36,2.82-.34,3.83,2.69,2.69,3.37,6.3,4.83,9.54.85,1.89,1.67,3.43,4,2.64,2.41-.81,2.05-2.85,1.61-4.68-.45-1.85-1.15-3.64-1.86-5.86.99.21,1.43.28,1.84.4,12.55,3.55,25.13,7.02,37.63,10.75,2.06.61,4.65.77,5.89,3.13-6.17,4.23-12.98,6.95-20.21,8.7-3.22-.1-6.45-.2-9.67-.31-2.03-.48-4.14-.74-6.07-1.49-2.38-.93-4.74-1.39-7.26-1.05-1.27-2.59-3.22-2.72-5.33-1.25-1.24.86-2.36,1.83-3.92,2.03-3.22-.08-6.45-.16-9.67-.23-.53-1.37-.45-2.51.53-3.81,1.24-1.64,2.23-3.52,3.08-5.41.8-1.79,1.6-4.07-.84-5.07-2.37-.97-3.86.74-4.8,2.83-.42.95-.65,2.05-1.28,2.84-1.95,2.47-3.46,5.53-7.13,5.96-.83-.95-1.88-1.78-2.46-2.86-1.75-3.25-4.5-3.61-7.81-3.45-6.22.31-12.35-.59-18.38-2.1-9.71-2.43-18.38-6.89-25.83-13.59-2.63-2.37-5.13-4.89-7.69-7.33.8-3.3,4.41-3.92,6.1-6.4,1.96-2.89,4.09-3.04,6.91-.8,5.06,4.02,10.56,7.5,15.18,12.06,1.51,1.49,3.34,2.01,5.34,2.14,1.88.12,3.22-.67,3.49-2.61.28-2.04-.65-3.39-2.77-3.65-2.12-.26-4.03-.78-5.6-2.4-1.13-1.17-1.77-2.66-3.09-3.73-4.68-3.78-9.65-7.14-14.6-10.54-1.71-1.17-3.23-1.17-4.66.31-1.04,1.08-1.91,2.33-2.97,3.39-2.65,2.66-5.03,5.71-8.92,6.74-2.47-2.39-5.07-4.67-7.38-7.21-1.57-1.73-2.98-3.49-3.18-6.24-.25-3.56-3.08-5.1-6.76-5.55-4.5-.55-8.53,1.91-12.95,1.52-1.24-.11-2.74.29-3.19-1.36-.38-1.43.15-2.76,1.36-3.63,1.55-1.11,2.4-2.71,3.55-4.22-4.62-3.21-9.46-5.55-14.48-7.67-6.09-2.57-12.31-5-17.62-9.12-1.04-1.97-1.76-3.97-.59-6.15.16-.19.32-.37.48-.56.74-.54,1.49-1.08,2.23-1.62,1.37-.84,2.89-.67,4.38-.63,7.12.17,13.25,3.52,19.54,6.26,2.13.93,4.03,1.56,6.51,1.06,2.97-.59,5.95-1.67,9.09-1.24-.06.69-.04,1.4-.21,2.06-.94,3.53.1,6.14,3.26,8.02,2.93,1.74,5.62.89,7.95-1.09,2.45-2.09,2.75-5.61,1-8.56-.46-.78-1.32-1.33-1.25-2.38.35-.61.97-.51,1.53-.58,7.61-.97,15.26-.54,22.89-.8,11.82-.39,22.8,3.17,33.61,7.16,8.06,2.97,16.1,6.18,23.64,10.4,1.38,1.26,2.35,2.83,3.27,4.44,5.03,8.74,5.78,18.22,4.79,27.97-.16,1.61-.13,2.82,1.7,3.11,1.85.28,2.58-.99,2.66-2.49.39-7.16.76-14.36-1.48-21.3-1.31-4.05-3.16-7.93-4.77-11.88,4.17-1.66,8.46-.32,12.69-.53,4.55,6.73,6.35,14.33,6.9,22.28.24,3.47.05,6.98.06,10.47,0,1.22.13,2.39,1.63,2.67,1.57.29,2.42-.64,2.82-1.98.26-.87.27-1.82.39-2.73.39-2.93-.6-5.75-.66-8.64-.13-6.69-1.59-13.08-4.45-19.13-.43-.92-1.17-1.8-.51-2.91,3.52-.22,7.03-.45,10.55-.67,2.56,2.44,4.57,5.66,5.3,8.73,1.95,8.15,3.69,16.41,4.42,24.8.13,1.51-.08,3.3,2.14,3.24,2.48-.07,2.16-2.08,2.04-3.63-.57-7.02-1.83-13.92-3.26-20.82-.91-4.39-3.57-8.01-4.38-12.34,2.81-.01,5.63-.02,8.44-.04,1.55,4.31,5.41,7.31,5.12,12.85-.36,6.82,1.13,13.74,1.79,20.62.13,1.34.21,2.88,1.97,2.58,1.63-.28,2.57-1.44,1.9-3.36-.55-1.58-1.4-3.24-1.31-4.81.57-9.57-.5-18.86-3.91-27.85,3.96.23,7.92.47,11.89.7,1.37,2.8,2.89,5.53,4.07,8.41,2.5,6.06,2.28,12.48,2.19,18.87-.03,1.88.23,3.88,2.48,3.82,1.97-.05,2.18-2.08,2.35-3.73.05-.46,0-.93.01-1.4.11-8.86-2.58-17.1-5.56-25.28,6.67-.65,13.09,2.42,19.81,1.35,1.77-.28,3.65-.18,5.35.7,1.03,5.76,3.5,11.27,2.96,17.33-.09.97.88,2.02,2.11,1.89,1.31-.14,1.87-1.04,1.93-2.44.26-6.01-.13-11.82-4.19-16.74,6.74-.07,13.47-.14,20.21-.21Zm-35.15,2.56c-.82.91-.5,1.94-.21,2.9,1,3.31,1.9,6.64,2.2,10.09.2,2.29.21,4.61.51,6.89.13.99.62,2.05,1.99,2.01,1.18-.03,1.65-.95,1.78-1.83.72-4.63-.33-9.15-.91-13.71-.43-3.33-2.7-4.94-5.36-6.36Z"/>
  <path class="c" d="m93.72,74.56c-4.78,2.82-10.28,3.3-15.5,4.63-15.23,3.87-30.63,6.94-46.24,8.85-.42.05-.81.38-1.22.57-1.16.05-2.32.11-3.48.17-7.24.66-14.48,1.35-21.72,1.96-1.43.12-2.96.32-4.27-.84,13.99-1.92,28.05-3.07,41.91-5.59,13.95-2.54,27.9-5.13,41.33-9.95-28.12,2.59-56.1,7.07-84.54,4.51.14-.87.67-.74,1-.72,9.76.43,19.51-.37,29.22-.87,16.62-.84,33.21-2.41,49.59-5.63.2-.04.37-.26.55-.4,1.4-.25,2.95.38,4.19-.75,1.33-.08,2.77.15,3.74-1.19-.86-1.42-1.54-2.91-3.03-3.74-.21-.24-.43-.47-.64-.71-3.64-5.35-7.4-10.63-10.9-16.07-6.42-9.95-12.1-20.31-16.37-31.39-.07-.76.02-1.57-.69-2.11-.42-1.98-.84-3.95-1.29-6.06.53.12.87.1.94.23.63,1.22,1.23,2.46,1.81,3.71,6.48,14.02,13.03,28.02,22.27,40.5,3.34,4.5,6.29,9.42,11.13,12.63h0c-.01.59.16,1.07.68,1.38l.03.03c.3.24.59.47.89.71-1.17,2.18-.45,4.18.59,6.15Z"/>
  <path class="c" d="m91.52,66.29c-2.22-6.13-5.72-11.66-8.36-17.6-3.91-8.8-6.92-17.91-9.72-27.1-.09-.95-.19-1.9-.28-2.84-.15-.22-.3-.44-.46-.66-1.01-5.99-1.83-11.99-1.4-18.08,2.06,4.33,2.24,9.13,3.31,13.7,3.3,14.05,7.9,27.59,14.4,40.46,2.08,4.12,4.54,8.05,6.83,12.06-.74.54-1.48,1.08-2.23,1.62-.45-.05-.91-.1-1.36-.15,0,0-.03-.03-.03-.03-.01-.57-.1-1.09-.68-1.37h0Z"/>
  <path class="b" d="m143.2,68.87c.82.8,1.82.95,2.9.86-.07,1.05.79,1.61,1.25,2.38,1.75,2.95,1.45,6.47-1,8.56-2.33,1.98-5.02,2.83-7.95,1.09-3.17-1.88-4.2-4.49-3.26-8.02.17-.66.15-1.37.21-2.06,1.23-.88,2.46-1.75,3.69-2.63,1.39-.06,2.77-.12,4.16-.17Z"/>
  <path class="d" d="m232.58,155.53c-1.24-.6-2.13-.42-3.37.5-5.35,3.92-11.4,5.6-18.09,6.05-16.38,1.1-31.83-3.52-47.33-7.39-4.08-1.02-5.49-.23-7.74,2.69-3.17,4.09-7.02,7.67-10.77,11.28-1.27,1.22-2.03,2.28-2.02,4.09.06,10-.38,20.02.17,29.99.36,6.48.12,13.08,2.03,19.45-3.68,1.65-3.9-1.33-4.25-3.12-1.69-8.9-2.72-17.85-3.1-26.95-.26-6.12-.35-12.25-.45-18.37-.04-2.51.45-5.02.68-7.53.09-.92.68-1.72,1.41-1.82,4.48-.64,6.12-4.66,8.86-7.32,1.49-1.45,2.97-3.07,3.89-4.9,2.4-4.79,6.46-4.8,10.68-3.86,11.83,2.64,23.49,6.29,35.54,7.67,7.89.9,16.17,1.92,23.44-3.12,3.67-.43,5.18-3.49,7.13-5.96.62-.79.85-1.89,1.28-2.84.93-2.09,2.43-3.8,4.8-2.83,2.45,1,1.64,3.28.84,5.07-.84,1.89-1.83,3.77-3.08,5.41-.98,1.3-1.06,2.44-.53,3.81Z"/>
  <path class="d" d="m145.84,131.08c4.09-3.53,5.08-9.08,8.51-13.03,3.89-1.03,6.27-4.08,8.92-6.74,1.06-1.06,1.92-2.31,2.97-3.39,1.42-1.48,2.95-1.48,4.66-.31,4.95,3.4,9.92,6.76,14.6,10.54,1.32,1.06,1.96,2.56,3.09,3.73,1.57,1.62,3.49,2.14,5.6,2.4,2.12.26,3.05,1.61,2.77,3.65-.27,1.94-1.61,2.73-3.49,2.61-2-.13-3.83-.64-5.34-2.14-4.62-4.57-10.12-8.04-15.18-12.06-2.82-2.24-4.94-2.09-6.91.8-1.68,2.48-5.29,3.1-6.1,6.4-2.89.59-4.84,2.87-5.67,5.11-1.79,4.83-5.34,8.31-8.15,12.34-6.44,9.24-11.99,19.02-17.93,28.56-2.08,3.34-2.33,3.5-6.13,2,6.72-14.23,17.68-25.95,23.76-40.46Z"/>
  <path class="d" d="m305.19,148.7c2.52,3.62,6.88,4.62,10.2,7.15,6.03,4.61,12.33,8.88,17.81,14.18,1.75,1.69,2.72,3.6,1.69,6.05-1.59.24-2.44-.52-3.14-1.45-7.77-10.36-18.95-16.13-29.91-22.14-2.29-1.26-4.38-3.04-7.12-3.36-1.25-2.37-3.84-2.52-5.89-3.13-12.5-3.73-25.08-7.2-37.63-10.75-.42-.12-.85-.19-1.84-.4.72,2.22,1.42,4.01,1.86,5.86.44,1.83.8,3.86-1.61,4.68-2.33.79-3.15-.75-4-2.64-1.46-3.24-2.14-6.85-4.83-9.54-1.01-1.01-.65-2.59.34-3.83,1.51-1.89,3.31-2.89,5.77-2.11,4.74,1.51,9.48,3.06,14.23,4.54,13.31,4.14,26.31,9.07,38.81,15.27,1.66.82,3.34,1.66,5.27,1.62Z"/>
  <path class="d" d="m251.5,154.98c.18,1.7-.67,2.8-1.99,3.77-3.67,2.68-7.4,5.24-11.81,6.55-1.24.37-2.34.95-3.47,1.8,7.46,9.32,13.66,19.47,19.31,29.98.77,1.43.62,3.49,2.5,4.29,4.24,9.42,9.37,18.36,14.89,27.08.94,1.48,1.62,2.92-.86,4.27-2.24-3.29-4.88-6.29-6.82-9.92-6.22-11.66-11.75-23.77-19.48-34.52-5.55-7.72-12.36-14.48-18.84-21.47-1.05-1.13-2.75-2.03-1.91-4.04.83-1.98,2.6-1.59,4.19-1.55,5.73.14,10.86-1.33,15.03-5.46,1.56-.2,2.68-1.17,3.92-2.03,2.12-1.47,4.06-1.34,5.33,1.25Z"/>
  <path class="d" d="m263.35,84.57c2.08,0,4.17,0,6.25-.01.81,4.33,3.47,7.95,4.38,12.34,1.43,6.9,2.69,13.8,3.26,20.82.13,1.55.44,3.56-2.04,3.63-2.22.06-2.01-1.73-2.14-3.24-.73-8.4-2.47-16.66-4.42-24.8-.74-3.07-2.75-6.29-5.3-8.73Z"/>
  <path class="d" d="m246.62,85.23c2.06,0,4.12,0,6.18.01-.66,1.12.07,1.99.51,2.91,2.86,6.06,4.32,12.44,4.45,19.13.06,2.89,1.04,5.72.66,8.64-.12.91-.13,1.86-.39,2.73-.4,1.34-1.25,2.27-2.82,1.98-1.5-.27-1.63-1.44-1.63-2.67,0-3.49.18-6.99-.06-10.47-.54-7.95-2.35-15.55-6.9-22.28Z"/>
  <path class="d" d="m227.77,85.91c2.06-.05,4.12-.1,6.17-.15,1.61,3.96,3.46,7.83,4.77,11.88,2.24,6.94,1.87,14.14,1.48,21.3-.08,1.49-.82,2.77-2.66,2.49-1.83-.28-1.87-1.49-1.7-3.11.99-9.75.24-19.23-4.79-27.97-.93-1.61-1.89-3.18-3.27-4.44Z"/>
  <path class="d" d="m295.5,85.26c1.85.23,3.7.46,5.54.69,2.98,8.18,5.67,16.42,5.56,25.28,0,.47.03.93-.01,1.4-.17,1.65-.38,3.68-2.35,3.73-2.25.06-2.51-1.94-2.48-3.82.09-6.38.3-12.81-2.19-18.87-1.18-2.87-2.7-5.61-4.07-8.41Z"/>
  <path class="d" d="m278.05,84.53c1.85.01,3.7.02,5.56.04,3.41,8.99,4.49,18.28,3.91,27.85-.09,1.57.76,3.23,1.31,4.81.66,1.91-.28,3.08-1.9,3.36-1.76.3-1.84-1.24-1.97-2.58-.65-6.88-2.15-13.8-1.79-20.62.29-5.54-3.57-8.54-5.12-12.85Z"/>
  <path class="d" d="m314.09,90.39c2.66,1.42,4.94,3.04,5.36,6.36.58,4.56,1.64,9.08.91,13.71-.14.87-.6,1.79-1.78,1.83-1.37.04-1.86-1.02-1.99-2.01-.29-2.28-.31-4.59-.51-6.89-.3-3.46-1.2-6.78-2.2-10.09-.29-.97-.62-1.99.21-2.9Z"/>
  <path class="d" d="m326.21,88.01c.94.01,1.88.02,2.81.04,4.05,4.92,4.45,10.73,4.19,16.74-.06,1.39-.62,2.3-1.93,2.44-1.23.13-2.2-.92-2.11-1.89.55-6.06-1.92-11.57-2.96-17.33Z"/>
  <path class="c" d="m416.88,116.17c-.82.64-1.79.41-2.7.41-19.09.01-38.17.01-57.26,0-.91,0-1.87.23-2.69-.41,1.27-.09,2.53-.26,3.8-.26,18.35-.02,36.7-.02,55.06,0,1.27,0,2.53.17,3.8.26Z"/>
</svg>