<?xml version="1.0" encoding="iso-8859-1"?>
<!-- Generator: Adobe Illustrator 19.0.0, SVG Export Plug-In . SVG Version: 6.00 Build 0)  -->
<svg version="1.1" id="Capa_1" xmlns="http://www.w3.org/2000/svg" xmlns:xlink="http://www.w3.org/1999/xlink" x="0px" y="0px"
	 viewBox="0 0 512 512" style="enable-background:new 0 0 512 512;" xml:space="preserve">
<polyline style="fill:#2C7B7E;" points="443.541,250.13 443.541,10 96.936,10 96.936,502 443.541,502 443.541,337 "/>
<path style="fill:#F6DAB9;" d="M403.21,249.13V88.645c-21.161,0-38.314-17.154-38.314-38.314H175.581
	c0,21.161-17.154,38.314-38.314,38.314v334.709c21.16,0,38.314,17.154,38.314,38.314h189.315c0-21.16,17.154-38.314,38.314-38.314
	V338"/>
<path style="fill:#A84926;" d="M38.456,41.257v429.485c0,17.263,13.994,31.257,31.257,31.257h27.222V10H69.714
	C52.451,10,38.456,23.994,38.456,41.257z"/>
<path d="M308.766,406.712h-77.055c-5.523,0-10-4.478-10-10s4.477-10,10-10h77.055c5.523,0,10,4.478,10,10
	S314.289,406.712,308.766,406.712z"/>
<path style="fill:#F24141;" d="M337.5,210.047l-5.416-58.791c-7.791-2.558-21.787,24.519-21.787,24.519
	s-23.101-54.739-40.059-54.739c-16.958,0-40.059,54.739-40.059,54.739s-13.996-27.077-21.787-24.519l-5.416,58.791
	c-1.477,17.598,4.374,35.025,16.172,48.165l3.415,3.804c12.152,13.535,29.485,14.466,47.674,14.466l0,0
	c18.19,0,35.522-0.932,47.674-14.466l3.415-3.804C333.126,245.071,338.977,227.644,337.5,210.047z"/>
<path style="fill:#F6DAB9;" d="M304.493,242.227c0,18.918-15.336,34.255-34.255,34.255s-34.255-15.337-34.255-34.255
	c0-18.919,34.255-52.581,34.255-52.581S304.493,223.308,304.493,242.227z"/>
<path d="M347.465,209.21c-0.002-0.026-0.004-0.054-0.007-0.08l-5.416-58.791c-0.366-3.968-3.052-7.341-6.838-8.584
	c-10.624-3.487-19.377,7.038-23.728,13.078c-1.839-3.604-3.925-7.505-6.187-11.426c-12.917-22.388-23.727-32.372-35.051-32.372
	s-22.134,9.984-35.051,32.372c-2.262,3.921-4.348,7.822-6.187,11.426c-4.351-6.04-13.105-16.568-23.728-13.078
	c-3.786,1.243-6.472,4.616-6.838,8.584l-5.423,58.871c-1.701,20.259,5.113,40.555,18.696,55.683l3.415,3.804
	c14.748,16.425,34.486,17.785,55.115,17.785s40.367-1.36,55.115-17.784l3.416-3.805C342.352,249.765,349.166,229.469,347.465,209.21
	z M245.983,242.227c0-8.271,12.726-25.418,24.259-38.127c11.531,12.697,24.251,29.833,24.251,38.127
	c0,13.374-10.881,24.255-24.255,24.255S245.983,255.601,245.983,242.227z M313.888,251.53l-0.521,0.58
	c0.729-3.181,1.127-6.486,1.127-9.884c0-21.997-31.026-53.602-37.246-59.714c-3.891-3.822-10.128-3.822-14.019,0
	c-6.22,6.112-37.246,37.717-37.246,59.714c0,3.398,0.398,6.703,1.127,9.884l-0.52-0.579c-9.916-11.044-14.89-25.859-13.655-40.567
	l3.583-38.894c1.673,2.645,3.33,5.5,4.778,8.296c1.781,3.445,5.375,5.54,9.27,5.399c3.875-0.149,7.316-2.528,8.826-6.101
	c0.052-0.123,5.258-12.393,12.328-24.877c11.004-19.432,17.165-23.067,18.519-23.668c1.354,0.601,7.515,4.236,18.519,23.668
	c7.07,12.484,12.276,24.754,12.327,24.874c1.508,3.573,4.946,5.95,8.821,6.103c3.891,0.151,7.49-1.951,9.274-5.395
	c1.449-2.797,3.107-5.654,4.78-8.3l3.58,38.854C328.768,225.698,323.793,240.498,313.888,251.53z"/>
<path d="M339.17,370.569c-0.65,0-1.31-0.069-1.96-0.199c-0.63-0.13-1.26-0.32-1.87-0.57c-0.6-0.25-1.18-0.56-1.72-0.92
	c-0.55-0.36-1.06-0.78-1.52-1.24s-0.88-0.97-1.25-1.52c-0.36-0.54-0.66-1.13-0.92-1.73c-0.25-0.6-0.44-1.229-0.57-1.87
	c-0.13-0.64-0.19-1.3-0.19-1.95c0-0.649,0.06-1.31,0.19-1.96c0.13-0.63,0.32-1.26,0.57-1.869c0.25-0.601,0.56-1.181,0.92-1.721
	c0.37-0.55,0.79-1.06,1.25-1.52c0.46-0.47,0.97-0.88,1.52-1.25c0.54-0.36,1.12-0.67,1.72-0.92c0.61-0.25,1.24-0.44,1.87-0.57
	c1.29-0.26,2.62-0.26,3.91,0c0.64,0.13,1.27,0.32,1.87,0.57c0.61,0.25,1.19,0.56,1.73,0.92c0.55,0.37,1.06,0.78,1.52,1.25
	c0.46,0.46,0.88,0.97,1.24,1.52c0.36,0.54,0.67,1.12,0.92,1.721c0.25,0.609,0.44,1.239,0.57,1.869c0.13,0.65,0.2,1.311,0.2,1.96
	c0,0.65-0.07,1.311-0.2,1.95c-0.13,0.641-0.32,1.271-0.57,1.87c-0.25,0.601-0.56,1.19-0.92,1.73c-0.36,0.55-0.78,1.06-1.24,1.52
	C344.38,369.5,341.8,370.569,339.17,370.569z"/>
<path d="M299.169,370.567h-97.861c-5.523,0-10-4.478-10-10s4.477-10,10-10h97.861c5.523,0,10,4.478,10,10
	S304.692,370.567,299.169,370.567z"/>
<path style="fill:#FFC477;" d="M473.544,337h-93.568c-23.988,0-43.435-19.447-43.435-43.435l0,0
	c0-23.988,19.447-43.435,43.435-43.435h93.568V337z"/>
<path d="M473.544,240.13h-20.003V10c0-5.522-4.477-10-10-10H69.713c-22.75,0-41.257,18.508-41.257,41.258v429.484
	c0,22.75,18.508,41.258,41.257,41.258h373.828c5.523,0,10-4.478,10-10V347h20.003c5.523,0,10-4.478,10-10v-86.87
	C483.544,244.607,479.067,240.13,473.544,240.13z M48.456,470.742V41.258C48.456,29.536,57.992,20,69.713,20h17.222v472H69.713
	C57.992,492,48.456,482.464,48.456,470.742z M433.541,492H106.936V20h326.605v220.13H413.21V88.646c0-5.522-4.477-10-10-10
	c-15.613,0-28.314-12.702-28.314-28.314c0-5.522-4.477-10-10-10H175.581c-5.523,0-10,4.478-10,10
	c0,15.612-12.702,28.314-28.314,28.314c-5.523,0-10,4.478-10,10v334.709c0,5.522,4.477,10,10,10
	c15.613,0,28.314,12.702,28.314,28.314c0,5.522,4.477,10,10,10h189.314c5.523,0,10-4.478,10-10
	c0-15.612,12.702-28.314,28.314-28.314c5.523,0,10-4.478,10-10V347h20.331v145H433.541z M379.976,347h13.234v67.396
	c-18.631,3.937-33.337,18.643-37.274,37.273H184.541c-3.937-18.631-18.643-33.337-37.274-37.273V97.604
	c18.631-3.937,33.337-18.643,37.274-37.273h171.396c3.937,18.631,18.643,33.337,37.274,37.273V240.13h-13.234
	c-29.464,0-53.435,23.971-53.435,53.436C326.541,323.029,350.512,347,379.976,347z M463.544,327h-83.568
	c-18.436,0-33.435-14.999-33.435-33.435c0-18.437,14.999-33.436,33.435-33.436h83.568V327z"/>
<circle style="fill:#F47C5A;" cx="383.47" cy="293.56" r="16.667"/>
<path d="M383.469,320.231c-14.704,0-26.667-11.962-26.667-26.666s11.963-26.667,26.667-26.667s26.667,11.963,26.667,26.667
	S398.173,320.231,383.469,320.231z M383.469,286.898c-3.676,0-6.667,2.991-6.667,6.667s2.991,6.666,6.667,6.666
	s6.667-2.99,6.667-6.666S387.145,286.898,383.469,286.898z"/>
<g>
</g>
<g>
</g>
<g>
</g>
<g>
</g>
<g>
</g>
<g>
</g>
<g>
</g>
<g>
</g>
<g>
</g>
<g>
</g>
<g>
</g>
<g>
</g>
<g>
</g>
<g>
</g>
<g>
</g>
</svg>
