<?xml version="1.0" encoding="iso-8859-1"?>
<!-- Generator: Adobe Illustrator 19.0.0, SVG Export Plug-In . SVG Version: 6.00 Build 0)  -->
<svg version="1.1" id="Capa_1" xmlns="http://www.w3.org/2000/svg" xmlns:xlink="http://www.w3.org/1999/xlink" x="0px" y="0px"
	 viewBox="0 0 512 512" style="enable-background:new 0 0 512 512;" xml:space="preserve">
<polyline style="fill:#FFC477;" points="194.822,378.717 111.896,461.585 50.297,400.02 133.224,317.153 "/>
<polygon style="fill:#F24141;" points="101.648,410.271 104.128,370.947 143.473,368.468 140.993,407.792 "/>
<polyline style="fill:#B0DBD0;" points="193.35,318.611 223.391,348.652 470.057,140.145 501.998,10.137 "/>
<g>
	<polyline style="fill:#81B4A7;" points="501.998,10.137 371.919,42.06 163.309,288.57 193.35,318.611 418.299,93.791 	"/>
</g>
<path d="M441.569,80.526c-0.649,0-1.31-0.06-1.96-0.189c-0.63-0.13-1.26-0.32-1.869-0.57c-0.601-0.25-1.181-0.56-1.721-0.92
	c-0.55-0.36-1.06-0.78-1.52-1.24c-0.46-0.47-0.88-0.979-1.25-1.52c-0.36-0.55-0.66-1.13-0.91-1.73c-0.25-0.6-0.45-1.229-0.57-1.87
	c-0.13-0.649-0.2-1.3-0.2-1.96c0-0.649,0.07-1.3,0.2-1.95c0.12-0.64,0.32-1.27,0.57-1.869c0.25-0.601,0.55-1.181,0.91-1.73
	c0.37-0.54,0.79-1.06,1.25-1.52c2.319-2.32,5.77-3.381,9.02-2.73c0.641,0.13,1.271,0.32,1.87,0.57c0.61,0.25,1.19,0.56,1.73,0.92
	c0.55,0.359,1.06,0.78,1.52,1.24s0.88,0.979,1.24,1.52c0.36,0.55,0.67,1.13,0.92,1.73c0.25,0.6,0.44,1.229,0.57,1.869
	c0.13,0.65,0.199,1.301,0.199,1.95c0,0.66-0.069,1.311-0.199,1.96c-0.13,0.641-0.32,1.271-0.57,1.87
	c-0.25,0.601-0.56,1.181-0.92,1.73c-0.36,0.54-0.78,1.05-1.24,1.52c-0.46,0.46-0.97,0.88-1.52,1.24c-0.54,0.36-1.12,0.67-1.73,0.92
	c-0.6,0.25-1.229,0.44-1.87,0.57C442.88,80.467,442.22,80.526,441.569,80.526z"/>
<polygon style="fill:#A84926;" points="221.431,405.313 106.609,290.552 135.958,261.218 250.749,376.01 "/>
<path style="fill:#DA5B2C;" d="M87.513,495.881l-71.505-71.467c-8.011-8.007-8.011-20.992,0-28.999l0.35-0.349
	c8.005-8.001,20.979-8.001,28.983,0l71.505,71.467c8.011,8.007,8.011,20.992,0,28.999l-0.35,0.349
	C108.492,503.881,95.518,503.881,87.513,495.881z"/>
<path d="M512,10.077c0-0.021,0-0.043,0-0.064c0-0.015-0.001-0.029-0.001-0.044c-0.016-1.017-0.189-2.011-0.499-2.953
	c-0.001-0.002-0.001-0.004-0.002-0.006c-0.022-0.066-0.044-0.132-0.068-0.198c-0.009-0.025-0.017-0.049-0.026-0.074
	c-0.014-0.039-0.029-0.078-0.044-0.118c-0.019-0.05-0.038-0.1-0.057-0.15c-0.003-0.008-0.007-0.016-0.01-0.025
	c-0.51-1.29-1.27-2.426-2.208-3.367c-0.004-0.004-0.008-0.008-0.012-0.012c-0.012-0.012-0.024-0.023-0.036-0.035
	c-0.988-0.981-2.191-1.765-3.559-2.27c-0.015-0.006-0.03-0.011-0.045-0.017c-0.047-0.017-0.095-0.034-0.142-0.051
	c-0.043-0.015-0.087-0.03-0.131-0.045c-0.022-0.007-0.045-0.015-0.067-0.022c-0.07-0.023-0.141-0.045-0.211-0.066h-0.001
	c-0.719-0.217-1.467-0.355-2.23-0.404c-0.009-0.001-0.017-0.001-0.025-0.002c-0.035-0.002-0.071-0.004-0.107-0.006
	c-1.048-0.056-2.08,0.055-3.064,0.315l-129.92,31.885c-2.049,0.503-3.887,1.642-5.25,3.252L162.696,273.814l-19.667-19.666
	c-3.905-3.903-10.235-3.904-14.141-0.002l-29.348,29.333c-1.876,1.876-2.931,4.42-2.931,7.073s1.055,5.197,2.931,7.073
	l19.537,19.527l-68.881,68.833c-11.966-9.831-29.732-9.162-40.91,2.009l-0.348,0.348C3.174,394.103,0,401.764,0,409.915
	c0,8.149,3.174,15.811,8.938,21.572l71.505,71.467c5.946,5.942,13.755,8.913,21.564,8.913c7.805-0.001,15.61-2.97,21.55-8.905
	l0.357-0.356c5.765-5.762,8.938-13.423,8.938-21.573c0-7.139-2.435-13.903-6.913-19.343l68.882-68.833l19.541,19.53
	c1.952,1.951,4.511,2.927,7.069,2.927c2.558,0,5.117-0.976,7.069-2.927l29.317-29.302c1.876-1.875,2.931-4.419,2.931-7.072
	c0-2.652-1.054-5.196-2.929-7.072l-19.669-19.669l238.362-201.489c1.612-1.362,2.751-3.2,3.255-5.251L511.663,12.71
	C511.89,11.862,512.006,10.977,512,10.077z M94.577,417.342c1.881,1.881,4.427,2.929,7.07,2.929c0.21,0,0.42-0.007,0.63-0.02
	l39.314-2.477l-29.694,29.673l-47.452-47.426l29.7-29.679l-2.478,39.3C91.487,412.507,92.547,415.311,94.577,417.342z
	 M112.343,399.577l1.211-19.204l19.225-1.211l-1.211,19.204L112.343,399.577z M109.784,488.45l-0.357,0.356
	c-4.093,4.092-10.754,4.092-14.845,0L23.077,417.34c-1.984-1.983-3.077-4.62-3.077-7.425c0-2.807,1.093-5.443,3.079-7.429
	l0.348-0.348c2.046-2.046,4.734-3.068,7.423-3.068c2.688,0,5.376,1.023,7.422,3.068l4.93,4.927c0.009,0.009,0.018,0.018,0.027,0.028
	l61.599,61.565c0.004,0.004,0.008,0.007,0.011,0.011l4.938,4.935c1.984,1.983,3.077,4.621,3.077,7.427
	S111.761,486.474,109.784,488.45z M150.975,408.397l2.478-39.3c0.181-2.865-0.879-5.67-2.909-7.7c-2.03-2.03-4.847-3.08-7.7-2.909
	l-39.315,2.477l29.694-29.673l47.452,47.426L150.975,408.397z M221.432,391.174L120.755,290.553l15.2-15.192l100.649,100.648
	L221.432,391.174z M461.12,134.605l-237.16,200.472l-16.465-16.465l217.874-217.749c3.906-3.904,3.908-10.236,0.004-14.143
	c-3.904-3.907-10.236-3.909-14.143-0.004L193.352,304.47l0,0l-16.464-16.465L377.455,50.999l110.893-27.215L461.12,134.605z"/>
<g>
</g>
<g>
</g>
<g>
</g>
<g>
</g>
<g>
</g>
<g>
</g>
<g>
</g>
<g>
</g>
<g>
</g>
<g>
</g>
<g>
</g>
<g>
</g>
<g>
</g>
<g>
</g>
<g>
</g>
</svg>
