<svg id="Capa_1" enable-background="new 0 0 512 512" height="512" viewBox="0 0 512 512" width="512" xmlns="http://www.w3.org/2000/svg"><g><g><path d="m401.13 215.05h-145.13-145.13s-47.314 136.461-36.081 148.716 36.081-9.957 36.081-9.957-12.684 56.467 0 64.616 44.854-25.552 44.854-25.552l10 61.236h90.276 90.277l10-61.236s32.17 33.702 44.854 25.552 0-64.616 0-64.616 24.848 22.213 36.081 9.957c11.232-12.255-36.082-148.716-36.082-148.716z" fill="#e8899e"/></g><g><circle cx="401.127" cy="251.131" fill="#5ec783" r="36.081"/></g><g><circle cx="110.87" cy="251.131" fill="#49b76b" r="36.081"/></g><g><path d="m322.99 403.717h-134.002c-26.246 17.514-45.305 44.995-51.712 76.979-2.469 12.326 7.069 23.804 19.64 23.804h198.16c12.58 0 22.114-11.493 19.636-23.826-6.394-31.825-25.355-59.375-51.722-76.957z" fill="#4e5660"/></g><g><path d="m188.988 403.717c-26.246 17.514-45.305 44.995-51.712 76.979-2.469 12.326 7.069 23.804 19.64 23.804h28.008c0-41.985 21.507-79.057 54.078-100.783z" fill="#383c43"/></g><g><path d="m188.998 403.717c8.7 28.762 35.4 49.708 67.002 49.708 31.598 0 58.295-20.94 66.999-49.697-8.118-5.415-16.927-9.9-26.3-13.255-2.538-.91-5.111-1.729-7.72-2.467-10.485-2.978-21.547-4.58-32.978-4.58-24.757-.001-47.801 7.48-67.003 20.291z" fill="#5ec783"/></g><g><path d="m207.629 434.014c17.339-24.125 43.318-41.645 73.365-47.984-8.065-1.705-16.426-2.605-24.993-2.605-24.756 0-47.8 7.481-67.002 20.292 3.533 11.681 10.035 22.074 18.63 30.297z" fill="#49b76b"/></g><g><path d="m256 7.5c46.532 0 210 79.755 210 114.989s-210 32.936-210 32.936z" fill="#383c43"/></g><g><path d="m409.814 120.706c-11.692-25.701-27.807-50.334-47.895-73.215-2.085-2.375-4.239-4.749-6.445-7.115-39.936-18.868-79.974-32.876-99.474-32.876v147.926s101.651 1.112 163.507-10.077c-2.751-8.249-5.974-16.469-9.693-24.643z" fill="#282d35"/></g><g><circle cx="256" cy="251.128" fill="#89d47f" r="145"/></g><g><path d="m161 251.128c0-71.555 51.833-130.998 120-142.846-8.122-1.412-16.474-2.154-25-2.154-80.081 0-145 64.919-145 145s64.919 145 145 145c8.526 0 16.878-.743 25-2.154-68.167-11.848-120-71.29-120-142.846z" fill="#5ec783"/></g><g><g><g><ellipse cx="176.443" cy="299.965" fill="#fff" rx="29.355" ry="23.377"/></g><g><ellipse cx="335.557" cy="299.965" fill="#fff" rx="29.355" ry="23.377"/></g></g><g><path d="m207.315 253.955-24.065-6.448c-4.002-1.069-8.114 1.302-9.186 5.304-1.072 4.001 1.302 8.113 5.303 9.186l7.079 1.897c-.252.75-.394 1.551-.394 2.386v10.366c0 4.142 3.357 7.5 7.5 7.5s7.5-3.358 7.5-7.5v-8.839l2.381.638c.65.174 1.304.257 1.946.257 3.312 0 6.342-2.21 7.239-5.561 1.072-4.002-1.302-8.114-5.303-9.186z"/><path d="m337.936 252.81c-1.071-4.001-5.184-6.373-9.186-5.304l-24.065 6.448c-4.001 1.072-6.375 5.185-5.303 9.186.897 3.351 3.928 5.561 7.239 5.561.643 0 1.296-.083 1.946-.257l2.381-.638v8.839c0 4.142 3.357 7.5 7.5 7.5s7.5-3.358 7.5-7.5v-10.366c0-.835-.142-1.636-.394-2.386l7.079-1.897c4.001-1.073 6.375-5.185 5.303-9.186z"/></g></g><g><path d="m256 7.5c-28.825 0-145.13 90.238-145.13 207.55h145.13 145.13c0-117.312-116.305-207.55-145.13-207.55z" fill="#383c43"/></g><g><path d="m225.703 20.413c-44.847 28.931-114.833 103.631-114.833 194.637h130.162v-31.55c-35.347-23.993-60.272-132.852-15.329-163.087z" fill="#282d35"/></g><g><path d="m484.5 223.5h-457c-11.046 0-20-8.954-20-20 0-11.046 8.954-20 20-20h457c11.046 0 20 8.954 20 20 0 11.046-8.954 20-20 20z" fill="#4e5660"/></g><g><path d="m221.032 203.5c0-11.046 8.954-20 20-20h-213.532c-11.046 0-20 8.954-20 20s8.954 20 20 20h213.532c-11.046 0-20-8.954-20-20z" fill="#383c43"/></g><g><path d="m256 266.279c-9.627 0-17.969 6.669-20.089 16.06l-10.325 45.746c-4.401 19.498 10.425 38.043 30.414 38.043 19.989 0 34.814-18.545 30.414-38.043l-10.325-45.746c-2.12-9.391-10.462-16.06-20.089-16.06z" fill="#49b76b"/></g><g><path d="m484.5 176h-79.956c-1.392-6.681-3.149-13.358-5.244-20.017 51.222-6.465 74.199-16.882 74.199-33.494 0-10.877-9.544-23.556-29.177-38.761-15.655-12.125-37.235-25.471-62.406-38.596-41.684-21.737-98.868-45.132-125.916-45.132-16.96 0-50.256 21.722-79.17 51.65-20.915 21.647-57.234 66.189-69.364 124.35h-79.966c-15.164 0-27.5 12.336-27.5 27.5s12.336 27.5 27.5 27.5h44.732c-3.207 6.157-4.944 13.054-4.944 20.131 0 12.628 5.404 24.013 14.014 31.979-5.883 20.142-10.172 36.854-12.753 49.692-4.823 23.998-3.204 31.76.711 36.031 8.73 9.525 21.115 6.476 30.965 1.377-.576 3.763-1.131 7.869-1.571 12.069-2.525 24.112-.009 37.206 8.162 42.455 8.325 5.349 20.038 2.048 35.811-10.085 2.851-2.193 5.559-4.46 7.979-6.588l3.069 18.794c-11.69 15.398-19.938 33.336-23.75 52.369-1.612 8.046.457 16.314 5.677 22.682 5.257 6.416 13.027 10.095 21.316 10.095h198.16c8.292 0 16.063-3.681 21.319-10.1 5.222-6.375 7.288-14.65 5.67-22.704-3.822-19.021-12.065-36.942-23.741-52.326l3.072-18.809c2.42 2.127 5.128 4.395 7.979 6.588 15.773 12.134 27.486 15.435 35.812 10.085 8.17-5.25 10.687-18.343 8.161-42.455-.44-4.2-.995-8.307-1.571-12.069 9.847 5.097 22.233 8.149 30.964-1.376 3.926-4.282 5.542-12.08.675-36.217-2.585-12.815-6.861-29.461-12.716-49.511 8.608-7.966 14.01-19.35 14.01-31.976 0-7.084-1.731-13.979-4.936-20.131h44.724c15.164 0 27.5-12.336 27.5-27.5s-12.336-27.5-27.5-27.5zm-296.882-113.928c29.673-30.714 58.779-47.072 68.382-47.072 12.55 0 56.807 26.963 93.157 76.391 2.453 3.337 7.148 4.052 10.485 1.599 3.337-2.454 4.053-7.148 1.599-10.485-15.321-20.833-32.962-38.947-49.783-52.863 19.634 7.5 41.755 17.439 63.523 28.79 24.394 12.72 45.195 25.568 60.157 37.155 22.235 17.22 23.361 25.431 23.361 26.902 0 .115-1.793 11.485-64.317 19.014-4.421-11.269-9.828-22.458-16.22-33.498-2.076-3.584-6.663-4.807-10.249-2.732-3.584 2.076-4.808 6.664-2.731 10.249 11.499 19.858 19.619 40.167 24.208 60.478h-266.372c11.98-52.985 45.396-93.843 64.8-113.928zm-82.79 168.928c-.876 6.655-1.328 13.395-1.328 20.128 0 9.497.902 18.934 2.648 28.187-13.52-2.258-23.86-14.033-23.86-28.184 0-7.551 3.008-14.794 8.299-20.131zm45.472 156.691c-.074.079-7.61 7.935-16.501 14.822-12.137 9.403-17.789 10-18.809 9.63-.465-.589-3.908-5.863-1.287-29.515 1.555-14.036 4.455-27.047 4.484-27.177.712-3.178-.71-6.449-3.517-8.102-2.805-1.653-6.361-1.302-8.794.861-7.643 6.799-20.633 14.295-25.109 10.896-.635-2.71-1.337-15.295 13.717-67.603 4.772 1.944 9.962 3.061 15.396 3.183 5.693 19.091 15.086 37.034 27.769 52.622 1.482 1.822 3.643 2.767 5.822 2.767 1.663 0 3.338-.551 4.729-1.682 3.213-2.614 3.698-7.338 1.084-10.551-19.852-24.399-30.784-55.195-30.784-86.714 0-6.743.499-13.49 1.471-20.128h272.059c.972 6.637 1.47 13.384 1.47 20.128 0 75.818-61.683 137.5-137.5 137.5-31.487 0-62.26-10.914-86.647-30.73-3.216-2.612-7.94-2.124-10.55 1.091-2.612 3.214-2.124 7.938 1.091 10.55 10.863 8.827 22.868 16.057 35.607 21.555-3.567 1.911-7.051 3.983-10.428 6.226-.083.051-.165.104-.247.158-6.579 4.39-12.704 9.379-18.324 14.858l-3.376-20.672c-.459-2.807-2.467-5.113-5.184-5.955-2.715-.841-5.676-.073-7.642 1.982zm163.639 19.197c-9.485 23.541-32.184 39.036-57.939 39.036-25.71 0-48.448-15.518-57.937-39.051 5.701-3.398 11.687-6.288 17.871-8.63 12.989 3.54 26.466 5.385 40.066 5.385 13.879 0 27.327-1.875 40.115-5.365 6.149 2.333 12.119 5.221 17.824 8.625zm50.852 85.508c-2.396 2.926-5.938 4.604-9.715 4.604h-198.16c-3.777 0-7.318-1.678-9.716-4.603-2.358-2.878-3.295-6.606-2.57-10.228 5.234-26.128 19.933-49.932 40.842-66.596 12.46 27.453 39.782 45.352 70.529 45.352 30.801 0 58.079-17.874 70.532-45.335 20.886 16.648 35.578 40.437 40.827 66.561.728 3.628-.208 7.362-2.569 10.245zm66.442-133.289c-4.478 3.395-17.467-4.096-25.104-10.89-2.43-2.173-5.984-2.525-8.796-.875-2.811 1.651-4.233 4.929-3.521 8.109.029.13 2.93 13.141 4.484 27.177 2.62 23.637-.817 28.919-1.286 29.514-1.031.366-6.677-.23-18.81-9.629-8.891-6.888-16.427-14.744-16.5-14.82-1.965-2.058-4.924-2.829-7.643-1.986-2.718.841-4.726 3.148-5.185 5.956l-3.378 20.686c-5.626-5.486-11.758-10.479-18.345-14.872-.077-.051-.155-.101-.233-.149-3.381-2.244-6.861-4.318-10.419-6.226 41.007-17.792 72.717-53.091 85.653-96.415 5.422-.126 10.601-1.243 15.364-3.183 15.057 52.311 14.354 64.893 13.719 67.603zm-1.525-107.976c0 14.14-10.324 25.908-23.829 28.178 1.714-9.136 2.621-18.554 2.621-28.181 0-6.736-.452-13.475-1.329-20.128h14.233c5.296 5.338 8.304 12.569 8.304 20.131zm54.792-35.131h-457c-6.893 0-12.5-5.607-12.5-12.5s5.607-12.5 12.5-12.5h457c6.893 0 12.5 5.607 12.5 12.5s-5.607 12.5-12.5 12.5z"/><path d="m256 373.628c11.819 0 22.831-5.294 30.211-14.526 7.381-9.231 10.121-21.139 7.52-32.668l-10.325-45.746c-2.911-12.9-14.181-21.91-27.405-21.91s-24.494 9.01-27.405 21.909l-10.325 45.747c-2.602 11.529.139 23.436 7.52 32.667 7.378 9.233 18.39 14.527 30.209 14.527zm-23.098-43.891 10.325-45.747c1.356-6.012 6.608-10.211 12.772-10.211s11.416 4.199 12.772 10.212l10.325 45.746c1.594 7.058-.084 14.348-4.603 20-4.519 5.651-11.26 8.893-18.495 8.893s-13.977-3.241-18.495-8.893c-4.517-5.653-6.194-12.943-4.601-20z"/></g></g></svg>