<svg id="Capa_1" enable-background="new 0 0 512 512" height="512" viewBox="0 0 512 512" width="512" xmlns="http://www.w3.org/2000/svg"><g><g><circle cx="401.127" cy="251.131" fill="#ffbf9e" r="36.081"/></g><g><circle cx="110.87" cy="251.131" fill="#f7ab8b" r="36.081"/></g><g><path d="m156.904 504.5c-12.566 0-22.098-11.469-19.643-23.793 11.054-55.475 60.014-97.282 118.738-97.282s107.684 41.808 118.738 97.282c2.456 12.324-7.076 23.793-19.643 23.793z" fill="#b49cdc"/></g><g><path d="m280.993 386.03c-8.065-1.705-16.426-2.605-24.993-2.605-58.6 0-107.629 41.885-118.724 97.271-2.469 12.326 7.069 23.804 19.64 23.804h28.008c.001-58.166 41.276-106.909 96.069-118.47z" fill="#908cd6"/></g><g><path d="m256 436.827c22.477 0 40.698-18.221 40.698-40.698 0-1.969-.148-3.903-.418-5.798-2.403-.851-4.835-1.628-7.302-2.325-10.485-2.978-21.547-4.581-32.978-4.581-14.115 0-27.672 2.438-40.28 6.902-.271 1.896-.419 3.831-.419 5.801.001 22.477 18.222 40.699 40.699 40.699z" fill="#ffe4c2"/></g><g><path d="m437.597 293.42c0-21.049-17.063-38.112-38.112-38.112v-20.678l-1.373-19.941c-9.706-69.807-69.634-123.545-142.112-123.545s-132.406 53.738-142.112 123.545l-1.373 19.941v20.678c-21.049 0-38.112 17.063-38.112 38.112 0 16.718 10.769 30.911 25.744 36.048-3.831 5.944-6.063 13.016-6.063 20.613 0 20.602 16.35 37.375 36.78 38.078-.95 3.329-1.469 6.84-1.469 10.474 0 21.049 17.063 38.112 38.112 38.112 2.591 0 5.121-.261 7.568-.754 6.501 11.72 18.994 19.656 33.345 19.656 6.816 0 13.208-1.798 18.744-4.932 6.989 8.085 17.311 13.208 28.836 13.208s21.848-5.123 28.836-13.208c5.536 3.134 11.928 4.932 18.744 4.932 14.352 0 26.845-7.936 33.345-19.656 2.446.493 4.976.754 7.568.754 21.049 0 38.112-17.063 38.112-38.112 0-3.634-.519-7.145-1.469-10.474 20.431-.703 36.78-17.476 36.78-38.078 0-7.597-2.232-14.669-6.063-20.613 14.975-5.137 25.744-19.33 25.744-36.048z" fill="#fcf2d0"/></g><g><path d="m227.175 450.727c-4.843-7.124-7.676-15.724-7.676-24.988 0-7.339 1.788-14.257 4.935-20.36-24.098-.551-43.467-20.244-43.467-44.474 0-24.577 19.923-44.5 44.5-44.5v-221.998c-58.221 12.619-103.275 60.568-111.577 120.282l-1.373 19.941v20.678c-21.049 0-38.112 17.063-38.112 38.112 0 16.718 10.769 30.911 25.744 36.048-3.831 5.944-6.063 13.016-6.063 20.613 0 20.602 16.35 37.375 36.78 38.078-.95 3.329-1.469 6.84-1.469 10.474 0 21.049 17.063 38.112 38.112 38.112 2.591 0 5.121-.261 7.568-.754 6.501 11.72 18.994 19.656 33.345 19.656 6.816 0 13.208-1.798 18.744-4.932.001.004.005.008.009.012z" fill="#efdfb4"/></g><g><path d="m147.726 265.619c0 31.969 25.916 57.884 57.884 57.884h100.78c31.968 0 57.884-25.916 57.884-57.884 0-31.968-25.916-57.884-57.884-57.884h-100.78c-31.969 0-57.884 25.915-57.884 57.884z" fill="#ffd4be"/></g><g><path d="m222.73 265.619c0-31.969 25.916-57.884 57.884-57.884h-75.004c-31.968 0-57.884 25.916-57.884 57.884 0 31.969 25.916 57.884 57.884 57.884h75.004c-31.968 0-57.884-25.916-57.884-57.884z" fill="#ffbf9e"/></g><g><g><path d="m193.551 283.119c-4.142 0-7.5-3.358-7.5-7.5v-12c0-4.142 3.358-7.5 7.5-7.5s7.5 3.358 7.5 7.5v12c0 4.142-3.358 7.5-7.5 7.5z"/></g><g><path d="m318.449 283.119c-4.142 0-7.5-3.358-7.5-7.5v-12c0-4.142 3.358-7.5 7.5-7.5s7.5 3.358 7.5 7.5v12c0 4.142-3.358 7.5-7.5 7.5z"/></g></g><g><g><path d="m198.482 358.5c-13.719 0-23.419-13.517-18.929-26.481 10.967-31.664 41.052-54.401 76.447-54.401s65.48 22.736 76.447 54.401c4.49 12.964-5.21 26.481-18.929 26.481z" fill="#fff"/></g></g><g><path d="m256 7.5c46.532 0 210 79.755 210 114.989s-210 32.936-210 32.936z" fill="#908cd6"/></g><g><path d="m409.814 120.706c-11.692-25.701-27.807-50.334-47.895-73.215-2.085-2.375-4.239-4.749-6.445-7.115-39.936-18.868-79.974-32.876-99.474-32.876v147.926s101.651 1.112 163.507-10.077c-2.751-8.249-5.974-16.469-9.693-24.643z" fill="#6c6cc1"/></g><g><path d="m256 7.5c-28.825 0-145.13 90.238-145.13 207.55h145.13 145.13c0-117.312-116.305-207.55-145.13-207.55z" fill="#908cd6"/></g><g><path d="m225.703 20.413c-44.847 28.931-114.833 103.631-114.833 194.637h130.162v-31.55c-35.347-23.993-60.272-132.852-15.329-163.087z" fill="#6c6cc1"/></g><g><path d="m446 223.5h-380c-11.046 0-20-8.954-20-20 0-11.046 8.954-20 20-20h380c11.046 0 20 8.954 20 20 0 11.046-8.954 20-20 20z" fill="#b49cdc"/></g><g><path d="m221.032 203.5c0-11.046 8.954-20 20-20h-175.032c-11.046 0-20 8.954-20 20s8.954 20 20 20h175.032c-11.046 0-20-8.954-20-20z" fill="#908cd6"/></g><path d="m446 176h-41.461c-1.433-6.869-3.209-13.542-5.252-20.015 51.232-6.465 74.213-16.882 74.213-33.496 0-10.877-9.544-23.556-29.177-38.761-15.656-12.125-37.235-25.471-62.406-38.596-41.685-21.737-98.87-45.132-125.917-45.132-16.96 0-50.256 21.722-79.17 51.65-20.914 21.648-57.234 66.19-69.363 124.35h-41.467c-15.164 0-27.5 12.336-27.5 27.5s12.336 27.5 27.5 27.5h6.218c-3.202 6.147-4.929 13.038-4.929 20.131 0 7.235 1.769 14.253 5.143 20.548-3.522 6.467-5.529 13.873-5.529 21.741 0 16.577 8.963 31.6 22.988 39.607-2.177 5.39-3.306 11.167-3.306 17.054 0 2.949.284 5.899.844 8.77.699 3.581 3.837 6.065 7.353 6.065.476 0 .959-.045 1.444-.14 4.065-.793 6.718-4.732 5.925-8.797-.376-1.926-.566-3.911-.566-5.897 0-5.887 1.683-11.61 4.867-16.55 1.249-1.938 1.537-4.343.782-6.521-.756-2.178-2.471-3.888-4.652-4.636-12.368-4.243-20.678-15.878-20.678-28.954 0-16.879 13.732-30.612 30.612-30.612 4.142 0 7.5-3.358 7.5-7.5v-20.42l.268-3.888h29.842c-6.442 10.275-9.898 22.162-9.898 34.619 0 24.538 13.387 46.478 34.661 57.741-.878 2.027-1.689 4.094-2.421 6.206-2.937 8.479-1.63 17.541 3.583 24.864 5.158 7.245 13.544 11.571 22.432 11.571h115.036c8.888 0 17.274-4.326 22.432-11.571 5.214-7.323 6.52-16.386 3.583-24.864-.731-2.112-1.543-4.179-2.421-6.206 21.274-11.263 34.661-33.203 34.661-57.74 0-12.457-3.456-24.344-9.898-34.619h29.842l.268 3.888v20.42c0 4.142 3.358 7.5 7.5 7.5 16.879 0 30.612 13.732 30.612 30.612 0 13.076-8.31 24.711-20.678 28.954-2.181.748-3.896 2.458-4.652 4.636-.755 2.178-.467 4.583.782 6.521 3.184 4.939 4.867 10.663 4.867 16.55 0 16.579-12.975 30.013-29.538 30.583-2.306.08-4.448 1.216-5.806 3.082s-1.782 4.252-1.149 6.472c.784 2.748 1.182 5.58 1.182 8.417 0 16.879-13.732 30.612-30.612 30.612-2.042 0-4.089-.204-6.086-.606-3.201-.645-6.454.857-8.04 3.714-5.404 9.742-15.668 15.794-26.787 15.794-5.271 0-10.475-1.369-15.048-3.958-3.112-1.762-7.031-1.083-9.369 1.622-5.83 6.745-14.272 10.613-23.163 10.613s-17.333-3.868-23.163-10.613c-2.337-2.705-6.259-3.382-9.369-1.622-4.574 2.59-9.777 3.958-15.048 3.958-11.119 0-21.383-6.052-26.787-15.794-1.585-2.857-4.838-4.358-8.04-3.714-1.997.402-4.045.606-6.086.606-16.879 0-30.612-13.732-30.612-30.612 0-2.836.397-5.668 1.182-8.417.633-2.219.209-4.606-1.149-6.472s-3.5-3.002-5.806-3.082c-5.75-.198-11.301-2.001-16.054-5.215-3.432-2.32-8.094-1.42-10.414 2.012-2.32 3.431-1.419 8.094 2.012 10.414 4.703 3.18 9.927 5.434 15.413 6.678-.122 1.356-.184 2.718-.184 4.081 0 17.205 9.578 32.211 23.679 39.978-7.528 12.573-12.793 26.207-15.668 40.63-1.604 8.047.471 16.312 5.692 22.676 5.257 6.408 13.022 10.083 21.306 10.083h198.191c8.284 0 16.049-3.675 21.306-10.083 5.221-6.364 7.295-14.628 5.692-22.676-2.876-14.431-8.143-28.061-15.67-40.629 14.102-7.767 23.681-22.774 23.681-39.979 0-1.357-.061-2.713-.182-4.064 20.468-4.575 35.493-22.71 35.493-44.488 0-5.887-1.129-11.664-3.306-17.054 14.025-8.007 22.988-23.031 22.988-39.607 0-7.871-2.009-15.279-5.533-21.748 3.371-6.296 5.144-13.322 5.144-20.541 0-7.077-1.737-13.974-4.944-20.131h6.235c15.164 0 27.5-12.336 27.5-27.5s-12.336-27.503-27.5-27.503zm-78.617 306.173c.722 3.624-.217 7.353-2.578 10.23-2.396 2.921-5.936 4.597-9.709 4.597h-198.192c-3.774 0-7.313-1.675-9.709-4.597-2.36-2.877-3.3-6.606-2.578-10.23 2.742-13.759 7.947-26.708 15.479-38.54 2.413.396 4.887.611 7.41.611 1.276 0 2.554-.054 3.828-.16 8.508 11.872 22.288 19.062 37.085 19.062 5.896 0 11.736-1.15 17.167-3.356 8.32 7.45 19.123 11.632 30.413 11.632s22.093-4.183 30.413-11.632c5.432 2.207 11.272 3.356 17.167 3.356 14.797 0 28.577-7.19 37.085-19.062 1.273.106 2.551.16 3.828.16 2.522 0 4.994-.215 7.406-.61 7.533 11.829 12.742 24.772 15.485 38.539zm7.598-423.741c24.393 12.72 45.195 25.568 60.157 37.155 22.235 17.22 23.361 25.431 23.361 26.902 0 .115-1.793 11.488-64.342 19.017-16.184-41.123-42.296-72.552-58.824-89.686-7.809-8.096-15.938-15.585-23.98-22.218 19.661 7.505 41.822 17.459 63.628 28.83zm-269.949 175.683c-.012.171-.018.343-.018.515v13.794c-8.193 1.361-15.652 4.918-21.758 10.037-.628-2.373-.968-4.829-.968-7.331 0-7.573 3.008-14.792 8.307-20.131h14.651zm218.699 111.614c-2.385 3.35-6.107 5.271-10.213 5.271h-115.036c-4.106 0-7.828-1.921-10.213-5.271-2.363-3.319-2.957-7.421-1.629-11.255 10.225-29.521 38.098-49.355 69.36-49.355s59.135 19.834 69.36 49.355c1.328 3.834.734 7.936-1.629 11.255zm6.264-35.577c-16.065-24.562-43.704-40.033-73.995-40.033s-57.93 15.471-73.995 40.033c-16.434-8.669-26.779-25.596-26.779-44.533 0-13.015 4.888-25.227 13.79-34.619h173.968c8.903 9.391 13.791 21.604 13.791 34.619-.001 18.936-10.346 35.863-26.78 44.533zm98.746-51.692c-6.106-5.118-13.564-8.674-21.756-10.035v-13.795c0-.172-.006-.344-.018-.515l-.214-3.115h14.656c5.292 5.337 8.299 12.58 8.299 20.131 0 2.497-.339 4.954-.967 7.329zm17.259-42.46h-380c-6.893 0-12.5-5.607-12.5-12.5s5.607-12.5 12.5-12.5h237.449c4.142 0 7.5-3.358 7.5-7.5s-3.358-7.5-7.5-7.5h-180.63c11.979-52.985 45.394-93.843 64.799-113.928 29.673-30.714 58.779-47.072 68.382-47.072 9.632 0 38.81 16.415 68.539 47.234 19.379 20.091 52.685 60.888 64.641 113.766h-55.623c-4.142 0-7.5 3.358-7.5 7.5s3.358 7.5 7.5 7.5h112.443c6.893 0 12.5 5.607 12.5 12.5s-5.607 12.5-12.5 12.5z"/></g></svg>